<svg xmlns="http://www.w3.org/2000/svg"  viewBox="0 0 100 100" width="100px" height="100px"><path d="M 18 27 A 1.0001 1.0001 0 0 0 17 28 L 17 75 C 17 80.511334 21.488666 85 27 85 L 72 85 C 77.511334 85 82 80.511334 82 75 L 82 28 A 1.0001 1.0001 0 0 0 81 27 L 18 27 z M 19 29 L 49 29 L 49 36 L 39.5 36 C 38.125015 36 37 37.125015 37 38.5 L 37 40.5 C 37 41.874985 38.125015 43 39.5 43 L 49 43 L 49 78 L 30.5 78 C 26.904219 78 24 75.095781 24 71.5 L 24 32.5 A 0.50005 0.50005 0 0 0 23.492188 31.992188 A 0.50005 0.50005 0 0 0 23 32.5 L 23 71.5 C 23 75.636219 26.363781 79 30.5 79 L 49.419922 79 A 0.50005 0.50005 0 0 0 49.582031 79 L 68.5 79 C 72.636219 79 76 75.636219 76 71.5 L 76 43.5 A 0.50005 0.50005 0 1 0 75 43.5 L 75 71.5 C 75 75.095781 72.095781 78 68.5 78 L 50 78 L 50 43 L 59.5 43 C 60.874985 43 62 41.874985 62 40.5 L 62 38.5 C 62 37.125015 60.874985 36 59.5 36 L 50 36 L 50 29 L 80 29 L 80 75 C 80 79.430666 76.430666 83 72 83 L 27 83 C 22.569334 83 19 79.430666 19 75 L 19 29 z M 75.492188 31.992188 A 0.50005 0.50005 0 0 0 75 32.5 L 75 38.5 A 0.50005 0.50005 0 1 0 76 38.5 L 76 32.5 A 0.50005 0.50005 0 0 0 75.492188 31.992188 z M 39.5 37 L 59.5 37 C 60.335015 37 61 37.664985 61 38.5 L 61 40.5 C 61 41.335015 60.335015 42 59.5 42 L 49.580078 42 A 0.50005 0.50005 0 0 0 49.417969 42 L 39.5 42 C 38.664985 42 38 41.335015 38 40.5 L 38 38.5 C 38 37.664985 38.664985 37 39.5 37 z M 31.492188 60.992188 A 0.50005 0.50005 0 0 0 31.097656 61.195312 L 29.146484 63.146484 A 0.50005 0.50005 0 1 0 29.853516 63.853516 L 31 62.707031 L 31 68.5 A 0.50005 0.50005 0 1 0 32 68.5 L 32 62.707031 L 33.146484 63.853516 A 0.50005 0.50005 0 1 0 33.853516 63.146484 L 31.898438 61.191406 A 0.50005 0.50005 0 0 0 31.492188 60.992188 z M 38.492188 60.992188 A 0.50005 0.50005 0 0 0 38.097656 61.195312 L 36.146484 63.146484 A 0.50005 0.50005 0 1 0 36.853516 63.853516 L 38 62.707031 L 38 68.5 A 0.50005 0.50005 0 1 0 39 68.5 L 39 62.707031 L 40.146484 63.853516 A 0.50005 0.50005 0 1 0 40.853516 63.146484 L 38.898438 61.191406 A 0.50005 0.50005 0 0 0 38.492188 60.992188 z M 28.5 70 A 0.50005 0.50005 0 1 0 28.5 71 L 41.5 71 A 0.50005 0.50005 0 1 0 41.5 70 L 28.5 70 z"/></svg>