<svg xmlns="http://www.w3.org/2000/svg"  viewBox="0 0 48 48" width="96px" height="96px"><path fill="#ffc107" d="M40 45L8 45 8 3 30 3 40 13z"/><path fill="#fff3e0" d="M38.5 14L29 14 29 4.5z"/><path fill="#c47205" d="M19.307 28.893c0 1.334-.315 2.373-.947 3.111-.631.738-1.507 1.106-2.628 1.106-1.117 0-1.994-.365-2.632-1.096-.639-.732-.962-1.756-.971-3.072v-1.703c0-1.367.316-2.434.95-3.203.633-.768 1.513-1.152 2.639-1.152 1.107 0 1.979.379 2.618 1.133.638.754.961 1.813.971 3.176V28.893zM17.29 27.225c0-.896-.128-1.564-.383-2.002-.256-.438-.652-.656-1.189-.656-.533 0-.928.211-1.183.631-.256.422-.388 1.064-.397 1.924v1.771c0 .869.13 1.512.39 1.924.26.414.66.619 1.203.619.523 0 .913-.201 1.169-.605.255-.402.385-1.029.39-1.877V27.225zM27.517 31.846c-.388.42-.862.734-1.426.947-.563.211-1.179.316-1.849.316-1.145 0-2.033-.354-2.666-1.063-.634-.707-.96-1.738-.978-3.094v-1.789c0-1.373.3-2.43.899-3.17.6-.74 1.474-1.111 2.622-1.111 1.08 0 1.895.268 2.443.801.55.533.867 1.369.954 2.508h-1.955c-.055-.633-.187-1.064-.396-1.295-.21-.229-.538-.346-.984-.346-.543 0-.937.199-1.183.596-.246.396-.374 1.027-.383 1.893v1.805c0 .908.136 1.566.406 1.98.272.412.717.617 1.337.617.396 0 .718-.078.964-.238L25.5 31.08v-1.826h-1.408v-1.516h3.425V31.846zM35.706 31.846c-.388.42-.862.734-1.426.947-.563.211-1.179.316-1.849.316-1.144 0-2.033-.354-2.666-1.063-.634-.707-.96-1.738-.978-3.094v-1.789c0-1.373.3-2.43.898-3.17.6-.74 1.474-1.111 2.622-1.111 1.08 0 1.895.268 2.443.801.55.533.867 1.369.954 2.508h-1.955c-.055-.633-.188-1.064-.396-1.295-.21-.229-.538-.346-.984-.346-.543 0-.936.199-1.183.596s-.374 1.027-.383 1.893v1.805c0 .908.136 1.566.406 1.98.272.412.717.617 1.337.617.396 0 .718-.078.964-.238l.178-.123v-1.826h-1.408v-1.516h3.425V31.846z"/></svg>