<svg xmlns="http://www.w3.org/2000/svg"  viewBox="0 0 48 48" width="96px" height="96px"><path fill="#90caf9" d="M24,4C12.954,4,4,12.955,4,24s8.954,20,20,20s20-8.955,20-20S35.046,4,24,4z M24,27.684c-2.035,0-3.684-1.649-3.684-3.684s1.649-3.684,3.684-3.684s3.684,1.649,3.684,3.684S26.035,27.684,24,27.684z"/><path fill="#cfe8f9" d="M28.022 22.645l10.902-8.699c-1.326-1.963-3.033-3.645-5.008-4.955l-8.759 10.925C26.505 20.3 27.574 21.323 28.022 22.645zM19.934 25.214L8.999 33.927c1.333 2.008 3.057 3.734 5.065 5.068l8.665-10.946C21.385 27.623 20.339 26.565 19.934 25.214z"/><path fill="#1e88e5" d="M24,18c-3.314,0-6,2.688-6,6s2.686,6,6,6c3.313,0,6-2.688,6-6S27.313,18,24,18z M24,26c-1.104,0-2-0.895-2-2s0.896-2,2-2s2,0.895,2,2S25.104,26,24,26z"/></svg>