<svg xmlns="http://www.w3.org/2000/svg"  viewBox="0 0 48 48" width="96px" height="96px"><path fill="#BA68C8" d="M40 45L8 45 8 3 30 3 40 13z"/><path fill="#F3E5F5" d="M38.5 14L29 14 29 4.5z"/><path fill="#4A148C" d="M20.807 28.919c0 1.335-.315 2.372-.947 3.11s-1.507 1.107-2.628 1.107c-1.117 0-1.994-.366-2.632-1.097-.638-.732-.961-1.756-.971-3.073v-1.702c0-1.367.317-2.435.95-3.203.633-.768 1.513-1.151 2.639-1.151 1.107 0 1.98.377 2.618 1.132.638.754.961 1.813.971 3.175V28.919zM18.79 27.251c0-.897-.127-1.565-.383-2.003s-.652-.656-1.189-.656c-.533 0-.927.211-1.183.632-.255.422-.387 1.063-.396 1.925v1.771c0 .87.13 1.512.39 1.924.26.413.661.619 1.203.619.524 0 .914-.201 1.169-.605.255-.402.385-1.028.39-1.876V27.251zM28.114 24.722h-2.461V33h-2.017v-8.278h-2.42v-1.675h6.897V24.722zM34.403 28.939h-3.124V33h-2.01v-9.953h5.51v1.675h-3.5v2.55h3.124V28.939z"/></svg>