<svg xmlns="http://www.w3.org/2000/svg"  viewBox="0 0 48 48" width="96px" height="96px"><path fill="#ff9100" d="M40 45L8 45 8 3 30 3 40 13z"/><path fill="#ffe0b2" d="M38.5 14L29 14 29 4.5zM19.897 24.723h-2.461V33H15.42v-8.277H13v-1.676h6.897V24.723zM24.983 30.963h-2.741L21.709 33h-2.126l3.11-9.953h1.839L27.663 33h-2.146L24.983 30.963zM22.68 29.289h1.859l-.93-3.549L22.68 29.289zM31.608 29.363h-.998V33H28.6v-9.953h3.206c1.007 0 1.785.262 2.334.781.55.524.824 1.266.824 2.227 0 1.32-.481 2.246-1.442 2.775l1.743 4.074V33h-2.16L31.608 29.363zM30.609 27.688h1.142c.4 0 .701-.133.902-.398.2-.266.301-.625.301-1.07 0-.998-.39-1.496-1.169-1.496h-1.176V27.688z"/></svg>