<svg xmlns="http://www.w3.org/2000/svg"  viewBox="0 0 48 48" width="96px" height="96px"><path fill="#FF80AB" d="M40 45L8 45 8 3 30 3 40 13z"/><path fill="#FCE4EC" d="M38.5 14L29 14 29 4.5z"/><path fill="#E91E63" d="M11.707 33v-9.953h2.632c1.162 0 2.088.369 2.779 1.107s1.042 1.75 1.056 3.035v1.613c0 1.308-.345 2.335-1.036 3.079C16.448 32.628 15.497 33 14.284 33H11.707zM13.717 24.722v6.61h.602c.67 0 1.142-.177 1.415-.53.273-.353.417-.962.431-1.828v-1.729c0-.93-.13-1.578-.39-1.944-.26-.367-.702-.56-1.326-.578H13.717zM22.241 23.047l1.88 7.198 1.873-7.198h2.625V33h-2.017v-2.693l.185-4.149L24.798 33h-1.367l-1.989-6.843.185 4.149V33h-2.01v-9.953H22.241zM37 31.872c-.387.419-.862.734-1.426.947-.563.211-1.179.317-1.849.317-1.144 0-2.032-.354-2.666-1.063-.634-.708-.96-1.739-.978-3.093v-1.791c0-1.372.3-2.428.898-3.169.6-.74 1.474-1.11 2.622-1.11 1.08 0 1.895.267 2.444.8.549.533.867 1.369.953 2.509h-1.955c-.055-.634-.188-1.065-.396-1.296-.209-.229-.537-.345-.984-.345-.543 0-.937.198-1.183.595s-.374 1.027-.383 1.894v1.805c0 .907.136 1.566.407 1.979.271.412.717.618 1.336.618.396 0 .718-.08.964-.239l.178-.123v-1.825h-1.408v-1.518H37V31.872z"/></svg>