<svg xmlns="http://www.w3.org/2000/svg"  viewBox="0 0 48 48" width="96px" height="96px"><path fill="#F44336" d="M40 45L8 45 8 3 30 3 40 13z"/><path fill="#FFEBEE" d="M38.5 14L29 14 29 4.5zM14.425 23.047l1.88 7.198 1.873-7.198h2.625V33h-2.017v-2.693l.185-4.149L16.981 33h-1.367l-1.989-6.843.185 4.149V33H11.8v-9.953H14.425zM29.423 28.919c0 1.335-.315 2.372-.946 3.11-.632.738-1.508 1.107-2.629 1.107-1.117 0-1.994-.366-2.632-1.097-.638-.732-.961-1.756-.971-3.073v-1.702c0-1.367.317-2.435.95-3.203.633-.768 1.513-1.151 2.639-1.151 1.107 0 1.98.377 2.618 1.132.638.754.962 1.813.971 3.175V28.919zM27.406 27.251c0-.897-.127-1.565-.383-2.003s-.652-.656-1.189-.656c-.533 0-.927.211-1.183.632-.255.422-.387 1.063-.396 1.925v1.771c0 .87.13 1.512.39 1.924.26.413.66.619 1.203.619.523 0 .914-.201 1.169-.605.255-.402.386-1.028.39-1.876V27.251zM33.955 30.266l1.675-7.219h2.242L35.001 33h-2.092l-2.851-9.953h2.229L33.955 30.266z"/></svg>