<svg xmlns="http://www.w3.org/2000/svg"  viewBox="0 0 48 48" width="96px" height="96px"><path fill="#3F51B5" d="M40 45L8 45 8 3 30 3 40 13z"/><path fill="#E8EAF6" d="M38.5 14L29 14 29 4.5zM22.567 31.872c-.387.419-.862.734-1.425.947-.563.211-1.179.317-1.849.317-1.144 0-2.033-.354-2.666-1.063-.633-.708-.959-1.739-.978-3.093v-1.791c0-1.372.3-2.428.899-3.169.599-.74 1.473-1.11 2.622-1.11 1.08 0 1.895.267 2.444.8s.867 1.369.954 2.509h-1.955c-.055-.634-.187-1.065-.396-1.296-.209-.229-.538-.345-.984-.345-.542 0-.937.198-1.183.595s-.374 1.027-.383 1.894v1.805c0 .907.136 1.566.407 1.979.271.412.717.618 1.336.618.396 0 .718-.08.964-.239l.178-.123v-1.825h-1.408v-1.518h3.425V31.872zM26.088 33h-2.01v-9.953h2.01V33zM32.91 28.939h-3.125V33h-2.01v-9.953h5.51v1.675h-3.5v2.55h3.125V28.939z"/></svg>