<svg xmlns="http://www.w3.org/2000/svg"  viewBox="0 0 48 48" width="96px" height="96px"><path fill="#3F51B5" d="M40 45L8 45 8 3 30 3 40 13z"/><path fill="#E8EAF6" d="M37.5 14L28 14 28 4.5zM14.81 29.5V33H12.8v-9.953h3.391c.984 0 1.77.306 2.355.916s.878 1.403.878 2.379-.29 1.745-.868 2.311S17.175 29.5 16.149 29.5H14.81zM14.81 27.825h1.381c.383 0 .679-.125.889-.376s.314-.615.314-1.094c0-.497-.107-.892-.321-1.187-.214-.293-.501-.442-.861-.447H14.81V27.825zM27.723 33h-2.01l-2.939-6.528V33h-2.01v-9.953h2.01l2.946 6.535v-6.535h2.003V33zM36.104 31.872c-.387.419-.862.734-1.426.947-.563.211-1.179.317-1.849.317-1.144 0-2.032-.354-2.666-1.063-.634-.708-.96-1.739-.978-3.093v-1.791c0-1.372.3-2.428.898-3.169.6-.74 1.474-1.11 2.622-1.11 1.08 0 1.895.267 2.444.8.549.533.867 1.369.953 2.509h-1.955c-.055-.634-.188-1.065-.396-1.296-.209-.229-.537-.345-.984-.345-.543 0-.937.198-1.183.595s-.374 1.027-.383 1.894v1.805c0 .907.136 1.566.407 1.979.271.412.717.618 1.336.618.396 0 .718-.08.964-.239l.178-.123v-1.825h-1.408v-1.518h3.425V31.872z"/></svg>