<svg xmlns="http://www.w3.org/2000/svg"  viewBox="0 0 48 48" width="96px" height="96px"><path fill="#ff9100" d="M40 45L8 45 8 3 30 3 40 13z"/><path fill="#ffe0b2" d="M38.5 14L29 14 29 4.5zM17.393 31.331h4.102V33h-6.453v-1.211l4.06-7.066H15v-1.676h6.419v1.184L17.393 31.331zM24.83 33h-2.01v-9.953h2.01V33zM28.528 29.5V33h-2.01v-9.953h3.391c.984 0 1.769.305 2.354.916.586.611.879 1.404.879 2.379s-.29 1.744-.868 2.31c-.579.566-1.381.848-2.406.848H28.528zM28.528 27.824h1.381c.383 0 .679-.125.889-.375.209-.25.315-.615.315-1.094 0-.496-.107-.891-.321-1.188-.215-.293-.502-.441-.861-.445h-1.401V27.824z"/></svg>