<svg xmlns="http://www.w3.org/2000/svg"  viewBox="0 0 48 48" width="96px" height="96px"><path fill="#F44336" d="M40 45L8 45 8 3 30 3 40 13z"/><path fill="#FFEBEE" d="M38.5 14L29 14 29 4.5zM14.425 23.047l1.88 7.198 1.873-7.198h2.625V33h-2.017v-2.693l.185-4.149L16.981 33h-1.367l-1.989-6.843.185 4.149V33H11.8v-9.953H14.425zM24.426 29.5V33h-2.01v-9.953h3.391c.984 0 1.77.306 2.355.916.585.61.878 1.403.878 2.379s-.29 1.745-.868 2.311S26.791 29.5 25.766 29.5H24.426zM24.426 27.825h1.381c.383 0 .68-.125.889-.376s.314-.615.314-1.094c0-.497-.107-.892-.321-1.187-.214-.293-.501-.442-.861-.447h-1.401V27.825zM37.147 31.872c-.388.419-.862.734-1.425.947-.563.211-1.18.317-1.85.317-1.145 0-2.033-.354-2.666-1.063-.633-.708-.959-1.739-.978-3.093v-1.791c0-1.372.3-2.428.899-3.169.599-.74 1.473-1.11 2.621-1.11 1.08 0 1.895.267 2.443.8.55.533.867 1.369.954 2.509h-1.955c-.055-.634-.187-1.065-.396-1.296-.21-.229-.538-.345-.984-.345-.542 0-.937.198-1.183.595s-.373 1.027-.383 1.894v1.805c0 .907.136 1.566.406 1.979.271.412.717.618 1.337.618.396 0 .718-.08.964-.239l.178-.123v-1.825h-1.408v-1.518h3.425V31.872z"/></svg>