<svg xmlns="http://www.w3.org/2000/svg"  viewBox="0 0 48 48" width="96px" height="96px"><path fill="#fff" d="M25 37L24 37 24 32 23.5 32 23.5 31 25 31zM18.5 37c-.8 0-1.5-.7-1.5-1.5v-3c0-.8.7-1.5 1.5-1.5s1.5.7 1.5 1.5v3C20 36.3 19.3 37 18.5 37zM18.5 32c-.3 0-.5.2-.5.5v3c0 .3.2.5.5.5s.5-.2.5-.5v-3C19 32.2 18.8 32 18.5 32zM12.5 37c-.8 0-1.5-.7-1.5-1.5v-3c0-.8.7-1.5 1.5-1.5s1.5.7 1.5 1.5v3C14 36.3 13.3 37 12.5 37zM12.5 32c-.3 0-.5.2-.5.5v3c0 .3.2.5.5.5s.5-.2.5-.5v-3C13 32.2 12.8 32 12.5 32zM30 37L29 37 29 32 28.5 32 28.5 31 30 31zM34.5 37c-.8 0-1.5-.7-1.5-1.5v-3c0-.8.7-1.5 1.5-1.5s1.5.7 1.5 1.5v3C36 36.3 35.3 37 34.5 37zM34.5 32c-.3 0-.5.2-.5.5v3c0 .3.2.5.5.5s.5-.2.5-.5v-3C35 32.2 34.8 32 34.5 32z"/><path fill="#8ac8fd" d="M41,45H9V3h22l10,10V45z"/><path fill="#dff5ff" d="M39.5,14H30V4.5L39.5,14z"/><path fill="#0072c3" d="M19 29h-1.5v-7H16v-1l3-.5V29zM33.5 40H32v-7h-1.5v-1l3-.5V40zM25 23.6c0-.7-.1-1.2-.3-1.5-.2-.3-.6-.5-1-.5s-.8.2-1 .5c-.2.3-.3.8-.3 1.5v2.3c0 .7.1 1.2.3 1.5s.6.5 1 .5c.4 0 .8-.2 1-.5.2-.3.3-.8.3-1.5V23.6zM26.4 25.7c0 1.1-.2 1.9-.7 2.5-.5.6-1.1.8-2 .8-.8 0-1.5-.3-2-.8-.5-.6-.7-1.4-.7-2.5v-1.9c0-1.1.2-1.9.7-2.5.5-.6 1.1-.9 2-.9.8 0 1.5.3 2 .9.5.6.7 1.4.7 2.5V25.7zM32.2 23.4c0-.7-.1-1.2-.4-1.6s-.6-.5-1-.5c-.4 0-.8.2-1 .5-.2.3-.3.9-.3 1.6v2.4c0 .7.1 1.2.4 1.6.2.3.6.5 1 .5s.8-.2 1-.5.3-.9.3-1.6V23.4zM33.6 25.6c0 1.1-.3 2-.8 2.5s-1.2.9-2 .9c-.9 0-1.5-.3-2.1-.9S28 26.7 28 25.6v-1.9c0-1.1.3-2 .8-2.5s1.2-.9 2-.9c.9 0 1.5.3 2 .9s.8 1.4.8 2.5V25.6zM20.2 34.4c0-.7-.1-1.2-.4-1.6-.2-.3-.6-.5-1-.5s-.8.2-1 .5c-.2.3-.3.9-.3 1.6v2.4c0 .7.1 1.2.4 1.6.2.3.6.5 1 .5s.8-.2 1-.5.3-.9.3-1.6V34.4zM21.6 36.6c0 1.1-.3 2-.8 2.5s-1.2.9-2 .9c-.9 0-1.5-.3-2.1-.9S16 37.7 16 36.6v-1.9c0-1.1.3-2 .8-2.5s1.2-.9 2-.9c.9 0 1.5.3 2 .9s.8 1.4.8 2.5V36.6zM27.6 34.4c0-.7-.1-1.2-.4-1.6-.2-.3-.6-.5-1-.5s-.8.2-1 .5c-.2.3-.3.9-.3 1.6v2.4c0 .7.1 1.2.4 1.6.2.3.6.5 1 .5s.8-.2 1-.5.3-.9.3-1.6V34.4zM29 36.6c0 1.1-.3 2-.8 2.5s-1.2.9-2 .9c-.9 0-1.5-.3-2.1-.9s-.8-1.4-.8-2.5v-1.9c0-1.1.3-2 .8-2.5s1.2-.9 2-.9c.9 0 1.5.3 2 .9s.8 1.4.8 2.5V36.6z"/></svg>