<svg xmlns="http://www.w3.org/2000/svg"  viewBox="0 0 48 48" width="96px" height="96px"><path fill="#FF80AB" d="M40 45L8 45 8 3 30 3 40 13z"/><path fill="#FCE4EC" d="M38.5 14L29 14 29 4.5z"/><path fill="#E91E63" d="M18.94 28.693H15.81v2.639h3.705V33H13.8v-9.953h5.701v1.675H15.81v2.352h3.131V28.693zM23.787 26.465l1.34-3.418h2.304l-2.338 4.936L27.485 33h-2.331l-1.367-3.479L22.427 33h-2.331l2.393-5.018-2.345-4.936h2.304L23.787 26.465zM33.645 28.693h-3.131v2.639h3.705V33h-5.715v-9.953h5.701v1.675h-3.691v2.352h3.131V28.693z"/></svg>