<svg xmlns="http://www.w3.org/2000/svg"  viewBox="0 0 48 48" width="96px" height="96px"><path fill="#BA68C8" d="M41 45L9 45 9 3 31 3 41 13z"/><path fill="#F3E5F5" d="M39.5 14L30 14 30 4.5z"/><path fill="#4A148C" d="M16.807,29.302l0.919-6.255h1.939L17.94,33h-1.966l-1.133-5.865L13.722,33H11.75l-1.732-9.953h1.952l0.913,6.248l1.139-6.248h1.646L16.807,29.302z M26.971,28.897c0,1.301-0.309,2.313-0.924,3.032c-0.615,0.721-1.47,1.08-2.563,1.08c-1.089,0-1.944-0.357-2.566-1.069c-0.623-0.714-0.938-1.712-0.947-2.996v-1.661c0-1.333,0.309-2.373,0.927-3.123c0.618-0.749,1.476-1.123,2.573-1.123c1.08,0,1.931,0.367,2.553,1.104c0.623,0.734,0.938,1.768,0.947,3.097V28.897z M25.004,27.271c0-0.875-0.125-1.526-0.374-1.954c-0.249-0.426-0.636-0.639-1.16-0.639c-0.52,0-0.904,0.205-1.154,0.615c-0.249,0.412-0.377,1.037-0.386,1.877v1.728c0,0.848,0.126,1.474,0.38,1.875c0.253,0.403,0.644,0.604,1.173,0.604c0.511,0,0.891-0.196,1.141-0.591c0.249-0.392,0.375-1.003,0.38-1.829V27.271z M32.952,28.939h-2.988V33h-1.923v-9.953h5.271v1.675h-3.348v2.55h2.988V28.939z M38.9,28.939h-2.982V33H34v-9.953h5.26v1.675h-3.342v2.55H38.9V28.939z"/></svg>