<svg xmlns="http://www.w3.org/2000/svg"  viewBox="0 0 48 48" width="96px" height="96px"><path fill="#BA68C8" d="M40 45L8 45 8 3 30 3 40 13z"/><path fill="#F3E5F5" d="M38.5 14L29 14 29 4.5z"/><path fill="#4A148C" d="M28,28.9c0,1.3-0.3,2.4-0.9,3.1c-0.6,0.7-1.5,1.1-2.6,1.1c-1.1,0-2-0.4-2.6-1.1c-0.6-0.7-1-1.8-1-3.1v-1.7c0-1.4,0.3-2.4,1-3.2c0.6-0.8,1.5-1.2,2.6-1.2c1.1,0,2,0.4,2.6,1.1c0.6,0.8,1,1.8,1,3.2V28.9z M26,27.3c0-0.9-0.1-1.6-0.4-2c-0.3-0.4-0.7-0.7-1.2-0.7c-0.5,0-0.9,0.2-1.2,0.6c-0.3,0.4-0.4,1.1-0.4,1.9v1.8c0,0.9,0.1,1.5,0.4,1.9c0.3,0.4,0.7,0.6,1.2,0.6c0.5,0,0.9-0.2,1.2-0.6c0.3-0.4,0.4-1,0.4-1.9V27.3z M13,33V23h2.6c1.2,0,2.1,0.4,2.8,1.1c0.7,0.7,1,1.8,1.1,3v1.6c0,1.3-0.3,2.3-1,3.1c-0.7,0.7-1.6,1.1-2.9,1.1H13z M15,24.7v6.6h0.6c0.7,0,1.1-0.2,1.4-0.5c0.3-0.4,0.4-1,0.4-1.8v-1.7c0-0.9-0.1-1.6-0.4-1.9c-0.3-0.4-0.7-0.6-1.3-0.6H15z M35.9,29.8c-0.1,1.1-0.4,2-1,2.6c-0.6,0.6-1.4,0.9-2.5,0.9c-1.1,0-2-0.4-2.6-1.1c-0.6-0.7-0.9-1.8-0.9-3.2v-1.7c0-1.4,0.3-2.4,0.9-3.2c0.6-0.7,1.5-1.1,2.6-1.1c1.1,0,1.9,0.3,2.5,0.9c0.6,0.6,0.9,1.5,1,2.6h-2c0-0.7-0.1-1.2-0.3-1.5c-0.2-0.3-0.6-0.4-1.1-0.4c-0.5,0-0.9,0.2-1.1,0.6c-0.2,0.4-0.3,1-0.4,1.9V29c0,1,0.1,1.7,0.3,2c0.2,0.4,0.6,0.6,1.1,0.6c0.5,0,0.9-0.1,1.1-0.4c0.2-0.3,0.3-0.7,0.3-1.4H35.9z"/></svg>