<svg xmlns="http://www.w3.org/2000/svg"  viewBox="0 0 48 48" width="96px" height="96px"><path fill="#4db6ac" d="M40 45L8 45 8 3 30 3 40 13z"/><path fill="#e0f2f1" d="M38.5 14L29 14 29 4.5z"/><path fill="#00695c" d="M14.892 26.465l1.34-3.418h2.304l-2.338 4.936L18.59 33h-2.331l-1.367-3.479L13.532 33h-2.331l2.393-5.018-2.345-4.936h2.304L14.892 26.465zM22.934 23.047l1.88 7.198 1.873-7.198h2.625V33h-2.017v-2.693l.185-4.149L25.491 33h-1.367l-1.989-6.843.185 4.149V33h-2.01v-9.953H22.934zM33.635 31.332h3.527V33h-5.537v-9.953h2.01V31.332z"/></svg>