<svg xmlns="http://www.w3.org/2000/svg"  viewBox="0 0 48 48" width="96px" height="96px"><path fill="#ff80ab" d="M40 45L8 45 8 3 30 3 40 13z"/><path fill="#fce4ec" d="M38.5 14L29 14 29 4.5z"/><path fill="#e91e63" d="M17.217 31.054h-2.741l-.533 2.037h-2.126l3.11-9.953h1.839l3.131 9.953H17.75L17.217 31.054zM14.913 29.379h1.859l-.93-3.548L14.913 29.379zM32.152 29.249l-.793.998v2.844h-2.01v-9.953h2.01v4.341l.636-1.073 1.853-3.268h2.461l-2.851 4.375 2.898 5.578h-2.386L32.152 29.249zM23.396 29.591v3.5h-2.01v-9.953h3.391c2.375 0 3.233 1.879 3.233 3.295 0 2.511-1.926 3.158-3.233 3.158H23.396zM23.396 27.916h1.381c1.187 0 1.203-1.256 1.203-1.47s-.057-1.634-1.203-1.634h-1.381V27.916z"/></svg>