<svg xmlns="http://www.w3.org/2000/svg"  viewBox="0 0 48 48" width="96px" height="96px"><linearGradient id="ldLw80Wb5w9tTRcKjgX8Ga" x1="2.252" x2="34.131" y1="12.996" y2="42.423" gradientUnits="userSpaceOnUse"><stop offset="0" stop-color="#0077d2"/><stop offset="1" stop-color="#0b59a2"/></linearGradient><path fill="url(#ldLw80Wb5w9tTRcKjgX8Ga)" d="M23.008,22.387L6.256,31.181c-1.523,0.8-1.523,2.98,0,3.779l16.752,8.795	c0.621,0.326,1.363,0.326,1.984,0l16.752-8.795c1.523-0.8,1.523-2.98,0-3.779l-16.752-8.795	C24.371,22.06,23.629,22.06,23.008,22.387z"/><path d="M25.457,35.569L37.78,29.1l-12.787-6.713c-0.621-0.326-1.363-0.326-1.984,0L10.22,29.1l12.322,6.469	c0.447,0.235,0.952,0.36,1.458,0.36S25.011,35.805,25.457,35.569z" opacity=".05"/><path d="M25.225,35.127l12.017-6.309l-12.25-6.431c-0.621-0.326-1.363-0.326-1.984,0l-12.25,6.431	l12.017,6.309c0.376,0.198,0.8,0.303,1.225,0.303S24.849,35.325,25.225,35.127z" opacity=".07"/><linearGradient id="ldLw80Wb5w9tTRcKjgX8Gb" x1="6.773" x2="38.652" y1="8.098" y2="37.525" gradientUnits="userSpaceOnUse"><stop offset="0" stop-color="#2aa4f4"/><stop offset="1" stop-color="#007ad9"/></linearGradient><path fill="url(#ldLw80Wb5w9tTRcKjgX8Gb)" d="M23.008,13.316L6.256,22.11c-1.523,0.8-1.523,2.98,0,3.779l16.752,8.795	c0.621,0.326,1.363,0.326,1.984,0l16.752-8.795c1.523-0.8,1.523-2.98,0-3.779l-16.752-8.795	C24.371,12.989,23.629,12.989,23.008,13.316z"/><path d="M25.457,26.498l12.322-6.469l-12.787-6.713c-0.621-0.326-1.363-0.326-1.984,0l-12.787,6.713	l12.321,6.469c0.447,0.235,0.952,0.36,1.458,0.36S25.011,26.733,25.457,26.498z" opacity=".05"/><path d="M25.225,26.056l12.017-6.309l-12.25-6.431c-0.621-0.326-1.363-0.326-1.984,0l-12.25,6.431	l12.017,6.309c0.376,0.198,0.8,0.303,1.225,0.303S24.849,26.254,25.225,26.056z" opacity=".07"/><linearGradient id="ldLw80Wb5w9tTRcKjgX8Gc" x1="11.294" x2="43.173" y1="3.201" y2="32.627" gradientUnits="userSpaceOnUse"><stop offset="0" stop-color="#75daff"/><stop offset="1" stop-color="#1ea2e4"/></linearGradient><path fill="url(#ldLw80Wb5w9tTRcKjgX8Gc)" d="M23.008,4.245L6.256,13.039c-1.523,0.8-1.523,2.98,0,3.779l16.752,8.795	c0.621,0.326,1.363,0.326,1.984,0l16.752-8.795c1.523-0.8,1.523-2.98,0-3.779L24.992,4.245C24.371,3.918,23.629,3.918,23.008,4.245z"/></svg>