<svg xmlns="http://www.w3.org/2000/svg"  viewBox="0 0 48 48" width="96px" height="96px"><linearGradient id="NyTLzsOvu2hiH2q16GFlAa" x1="-5.326" x2="17.563" y1="96.186" y2="50.024" gradientTransform="translate(20.942 -50.558)" gradientUnits="userSpaceOnUse"><stop offset="0" stop-color="#0077d2"/><stop offset="1" stop-color="#0b59a2"/></linearGradient><path fill="url(#NyTLzsOvu2hiH2q16GFlAa)" d="M25.524,9.068L9.455,25.137c-1.435,1.435-1.435,3.761,0,5.196l11.212,11.212	c1.435,1.435,3.761,1.435,5.196,0l16.07-16.07C42.616,24.792,43,23.865,43,22.898V11.646C43,9.641,41.359,8,39.354,8H28.103	C27.135,8,26.208,8.384,25.524,9.068z"/><linearGradient id="NyTLzsOvu2hiH2q16GFlAb" x1="10.819" x2="34.706" y1="5.309" y2="29.196" gradientUnits="userSpaceOnUse"><stop offset="0" stop-color="#32bdef"/><stop offset="1" stop-color="#1ea2e4"/></linearGradient><path fill="url(#NyTLzsOvu2hiH2q16GFlAb)" d="M21.837,6.049L6.057,21.83c-1.409,1.409-1.409,3.694,0,5.103l11.011,11.011	c1.409,1.409,3.694,1.409,5.103,0l15.781-15.781C38.623,21.491,39,20.58,39,19.63V8.581C39,6.611,37.389,5,35.419,5H24.37	C23.42,5,22.509,5.377,21.837,6.049z M33.629,12.351c-0.985,0-1.79-0.806-1.79-1.79s0.806-1.79,1.79-1.79s1.79,0.806,1.79,1.79	S34.614,12.351,33.629,12.351"/></svg>