<svg xmlns="http://www.w3.org/2000/svg"  viewBox="0 0 48 48" width="96px" height="96px"><radialGradient id="oPXJPSjF6nlxQ7ZAIbFD6a" cx="24" cy="25" r="19" gradientTransform="matrix(1 0 0 -1 0 48)" gradientUnits="userSpaceOnUse"><stop offset=".078" stop-color="#fff"/><stop offset=".202" stop-color="#fff5a3"/><stop offset=".216" stop-color="#fff392"/><stop offset=".263" stop-color="#ffee5f"/><stop offset=".307" stop-color="#ffea37"/><stop offset=".347" stop-color="#ffe71a"/><stop offset=".382" stop-color="#ffe508"/><stop offset=".408" stop-color="#ffe402"/><stop offset=".545" stop-color="#fdde02"/><stop offset=".736" stop-color="#f9cc01"/><stop offset=".956" stop-color="#f2af00"/><stop offset="1" stop-color="#f0a800"/></radialGradient><circle cx="24" cy="23" r="19" fill="url(#oPXJPSjF6nlxQ7ZAIbFD6a)"/><radialGradient id="oPXJPSjF6nlxQ7ZAIbFD6b" cx="21.677" cy="10.537" r="10.066" gradientTransform="matrix(1 0 0 -1 0 48)" gradientUnits="userSpaceOnUse"><stop offset="0" stop-color="#6e757b"/><stop offset="1" stop-color="#4a4e52"/></radialGradient><path fill="url(#oPXJPSjF6nlxQ7ZAIbFD6b)" d="M29,38H19c0,0.7,0,2,0,2c0,2.8,2.2,5,5,5s5-2.2,5-5C29,40,29,38.7,29,38z"/><path fill="#fefefe" d="M34,23c0-5.5-4.5-10-10-10s-10,4.5-10,10c0,5,5,9,5,14v1h10v-1C29,32,34,28,34,23z"/></svg>