<svg xmlns="http://www.w3.org/2000/svg"  viewBox="0 0 48 48" width="96px" height="96px"><linearGradient id="PuVtuXTbHVUsxZgps56lha" x1="4" x2="44" y1="24" y2="24" gradientUnits="userSpaceOnUse"><stop offset="0" stop-color="#50e6ff"/><stop offset=".55" stop-color="#50e6ff"/><stop offset=".58" stop-color="#4fe3fc"/><stop offset=".601" stop-color="#4edaf4"/><stop offset=".62" stop-color="#4acae7"/><stop offset=".637" stop-color="#46b4d3"/><stop offset=".64" stop-color="#45b0d0"/><stop offset=".71" stop-color="#45b0d0"/><stop offset=".713" stop-color="#46b4d3"/><stop offset=".73" stop-color="#4acae7"/><stop offset=".749" stop-color="#4edaf4"/><stop offset=".77" stop-color="#4fe3fc"/><stop offset=".8" stop-color="#50e6ff"/><stop offset="1" stop-color="#50e6ff"/></linearGradient><path fill="url(#PuVtuXTbHVUsxZgps56lha)" d="M4,16v16c0,1.105,0.895,2,2,2h36c1.105,0,2-0.895,2-2V16c0-1.105-0.895-2-2-2H6 C4.895,14,4,14.895,4,16z"/><path fill="#057093" d="M38,44h-1c-4.418,0-8-3.582-8-8V12c0-4.418,3.582-8,8-8h1c0.552,0,1,0.448,1,1v2 c0,0.552-0.448,1-1,1h-1c-2.209,0-4,1.791-4,4v24c0,2.209,1.791,4,4,4h1c0.552,0,1,0.448,1,1v2C39,43.552,38.552,44,38,44z"/><path fill="#057093" d="M24,44h1c4.418,0,8-3.582,8-8V12c0-4.418-3.582-8-8-8h-1c-0.552,0-1,0.448-1,1v2 c0,0.552,0.448,1,1,1h1c2.209,0,4,1.791,4,4v24c0,2.209-1.791,4-4,4h-1c-0.552,0-1,0.448-1,1v2C23,43.552,23.448,44,24,44z"/></svg>