<svg xmlns="http://www.w3.org/2000/svg"  viewBox="0 0 48 48" width="96px" height="96px"><circle cx="40" cy="9" r="1" fill="#64717c"/><circle cx="36" cy="9" r="1" fill="#64717c"/><circle cx="40" cy="13" r="1" fill="#64717c"/><circle cx="40" cy="17" r="1" fill="#64717c"/><circle cx="40" cy="25" r="1" fill="#64717c"/><circle cx="40" cy="29" r="1" fill="#64717c"/><circle cx="40" cy="33" r="1" fill="#64717c"/><circle cx="40" cy="37" r="1" fill="#64717c"/><circle cx="40" cy="41" r="1" fill="#64717c"/><circle cx="36" cy="41" r="1" fill="#64717c"/><circle cx="32" cy="41" r="1" fill="#64717c"/><circle cx="28" cy="41" r="1" fill="#64717c"/><circle cx="40" cy="21" r="1" fill="#64717c"/><path fill="#50e6ff" d="M23,8v34H9c-1.105,0-2-0.895-2-2V10c0-1.105,0.895-2,2-2H23z"/><linearGradient id="dRcwZ02OpsMOf2NkRFIUha" x1="24.832" x2="30.98" y1="5.725" y2="40.593" gradientUnits="userSpaceOnUse"><stop offset="0" stop-color="#32bdef"/><stop offset="1" stop-color="#1ea2e4"/></linearGradient><path fill="url(#dRcwZ02OpsMOf2NkRFIUha)" d="M23,8l8.629-3.451C32.285,4.286,33,4.77,33,5.477v31.169c0,0.818-0.498,1.553-1.257,1.857	L23,42V8z"/><linearGradient id="dRcwZ02OpsMOf2NkRFIUhb" x1="29.541" x2="14.544" y1="21.499" y2="21.499" gradientUnits="userSpaceOnUse"><stop offset=".478" stop-color="#ad4bd5"/><stop offset="1" stop-color="#912fbd"/></linearGradient><path fill="url(#dRcwZ02OpsMOf2NkRFIUhb)" d="M29.78,20.969l-4.131-4.131c-0.236-0.236-0.64-0.068-0.64,0.265V20h-8.011L16.5,22.999h8.51	v2.897c0,0.334,0.404,0.501,0.64,0.265l4.131-4.131C30.073,21.737,30.073,21.262,29.78,20.969z"/><linearGradient id="dRcwZ02OpsMOf2NkRFIUhc" x1="-588.523" x2="-585.524" y1="113.841" y2="113.841" gradientTransform="translate(602.523 -87.841)" gradientUnits="userSpaceOnUse"><stop offset="0" stop-color="#c965eb"/><stop offset="1" stop-color="#c767e5"/></linearGradient><path fill="url(#dRcwZ02OpsMOf2NkRFIUhc)" d="M16.999,31.5V20C15.124,21.499,14,22.624,14,24.123V31.5c0,0.276,0.224,0.5,0.5,0.5h1.999	C16.775,32,16.999,31.776,16.999,31.5z"/></svg>