<svg xmlns="http://www.w3.org/2000/svg"  viewBox="0 0 48 48" width="96px" height="96px"><linearGradient id="TGbgz7YIIasADw2jo2LPPa" x1="24" x2="24" y1="44.346" y2="13.335" gradientTransform="matrix(1 0 0 -1 0 48)" gradientUnits="userSpaceOnUse"><stop offset="0" stop-color="#f44f5a"/><stop offset=".443" stop-color="#ee3d4a"/><stop offset=".651" stop-color="#ed3b48"/><stop offset=".726" stop-color="#eb3442"/><stop offset=".779" stop-color="#e82938"/><stop offset=".804" stop-color="#e52030"/></linearGradient><path fill="url(#TGbgz7YIIasADw2jo2LPPa)" d="M21.62,6.991c-0.013-0.046-0.02-0.126-0.02-0.186C21.6,6.36,21.958,6,22.4,6	c0.188,0,0.319,0.071,0.371,0.091c0.978,0.384,7.697,3.572,6.143,12.787C31.17,17.51,30.211,15,31.116,15	c0.277,0,0.39,0.104,0.56,0.348C34.144,18.892,36,22.973,36,26.927C36,33.595,30.628,39,24,39c-7.288,0-12-6.176-12-12.073	C12,17.118,23.49,15.307,21.62,6.991z"/><linearGradient id="TGbgz7YIIasADw2jo2LPPb" x1="23.5" x2="23.5" y1="30.346" y2="17.849" gradientTransform="matrix(1 0 0 -1 0 48)" gradientUnits="userSpaceOnUse"><stop offset="0" stop-color="#fed100"/><stop offset=".353" stop-color="#fdcf00"/><stop offset=".523" stop-color="#fcc700"/><stop offset=".655" stop-color="#f9ba00"/><stop offset=".766" stop-color="#f4a800"/><stop offset=".865" stop-color="#ee9001"/><stop offset=".954" stop-color="#e77201"/><stop offset="1" stop-color="#e36001"/></linearGradient><path fill="url(#TGbgz7YIIasADw2jo2LPPb)" d="M23.225,18.152c0,0-0.182-0.152-0.446-0.152c-0.398,0-0.722,0.317-0.722,0.708	c0.722,4.25-4.329,5.667-4.329,10.625c0,3.13,2.584,5.667,5.772,5.667s5.772-2.537,5.772-5.667	C29.272,25.295,25.65,19.906,23.225,18.152z"/><path fill="#64717c" d="M30,42h-4l-5.5-1L15,42h-4l-5-5v-4l11.667-5H22l5,1l6-1h4l5,5v4L30,42z"/><linearGradient id="TGbgz7YIIasADw2jo2LPPc" x1="19.087" x2="29.046" y1="22.239" y2="3.511" gradientTransform="matrix(1 0 0 -1 0 48)" gradientUnits="userSpaceOnUse"><stop offset="0" stop-color="#bec5c8"/><stop offset=".968" stop-color="#b9c1c4"/></linearGradient><path fill="url(#TGbgz7YIIasADw2jo2LPPc)" d="M27,41c0,0.552-0.448,1-1,1H15c-0.552,0-1-0.448-1-1v-4c0-0.552,0.448-1,1-1h11	c0.552,0,1,0.448,1,1V41z M42,41c0,0.552-0.448,1-1,1H30c-0.552,0-1-0.448-1-1v-4c0-0.552,0.448-1,1-1h11c0.552,0,1,0.448,1,1V41z M33,33c0,0.552-0.448,1-1,1H21c-0.552,0-1-0.448-1-1v-4c0-0.552,0.448-1,1-1h11c0.552,0,1,0.448,1,1V33z M6,33c0,0.552,0.448,1,1,1	h10c0.552,0,1-0.448,1-1v-4c0-0.552-0.448-1-1-1H7c-0.552,0-1,0.448-1,1V33z M41,28h-5c-0.552,0-1,0.448-1,1v4c0,0.552,0.448,1,1,1	h6v-5C42,28.448,41.552,28,41,28z M11,36H6v5c0,0.552,0.448,1,1,1h4c0.552,0,1-0.448,1-1v-4C12,36.448,11.552,36,11,36z"/></svg>