<svg xmlns="http://www.w3.org/2000/svg"  viewBox="0 0 48 48" width="96px" height="96px"><linearGradient id="e_IkPMJeWJ2fyCSAXNMQPa" x1="15" x2="15" y1="249.94" y2="231.981" gradientTransform="matrix(1 0 0 -1 0 254)" gradientUnits="userSpaceOnUse"><stop offset="0" stop-color="#9dffce"/><stop offset="1" stop-color="#50d18d"/></linearGradient><path fill="url(#e_IkPMJeWJ2fyCSAXNMQPa)" d="M23,22H7c-0.55,0-1-0.45-1-1V5c0-0.55,0.45-1,1-1h16c0.55,0,1,0.45,1,1v16	C24,21.55,23.55,22,23,22z"/><linearGradient id="e_IkPMJeWJ2fyCSAXNMQPb" x1="-45.352" x2="-38.683" y1="-791.151" y2="-784.575" gradientTransform="matrix(1 0 0 -1 52.373 -754.646)" gradientUnits="userSpaceOnUse"><stop offset=".282" stop-color="#ffc430"/><stop offset=".401" stop-color="#f8bd2d"/><stop offset=".574" stop-color="#e5aa23"/><stop offset=".78" stop-color="#c58a14"/><stop offset="1" stop-color="#9c6000"/></linearGradient><path fill="url(#e_IkPMJeWJ2fyCSAXNMQPb)" d="M4.364,29c-1.358,0-1.972,0.843-1.972,1.967l9.541,11.154 c0.098,0.098,0.204,0.186,0.307,0.278V30.791c-1.794,3.063-3.11,0.321-4.476,0.639C7.764,31.43,7.195,29,4.364,29z"/><linearGradient id="e_IkPMJeWJ2fyCSAXNMQPc" x1="9.5" x2="21" y1="240.603" y2="240.603" gradientTransform="matrix(1 0 0 -1 0 254)" gradientUnits="userSpaceOnUse"><stop offset=".824" stop-color="#135d36"/><stop offset=".931" stop-color="#125933"/><stop offset="1" stop-color="#11522f"/></linearGradient><path fill="url(#e_IkPMJeWJ2fyCSAXNMQPc)" d="M13.646,17.354l-4-4c-0.195-0.196-0.195-0.512,0-0.707l0.707-0.707	c0.196-0.196,0.512-0.196,0.707,0L14,14.879l5.439-5.439c0.195-0.196,0.512-0.196,0.707,0l0.707,0.707	c0.195,0.196,0.195,0.512,0,0.707l-6.5,6.5C14.158,17.549,13.842,17.549,13.646,17.354z"/><linearGradient id="e_IkPMJeWJ2fyCSAXNMQPd" x1="26.55" x2="44.266" y1="249.45" y2="231.734" gradientTransform="matrix(1 0 0 -1 0 254)" gradientUnits="userSpaceOnUse"><stop offset="0" stop-color="#33bef0"/><stop offset="1" stop-color="#22a5e2"/></linearGradient><path fill="url(#e_IkPMJeWJ2fyCSAXNMQPd)" d="M43,4H27c-0.552,0-1,0.448-1,1v16c0,0.552,0.448,1,1,1h16c0.552,0,1-0.448,1-1V5	C44,4.448,43.552,4,43,4z"/><path d="M28.5,20.5h13c0.552,0,1-0.448,1-1v-13c0-0.552-0.448-1-1-1h-13	c-0.552,0-1,0.448-1,1v13C27.5,20.052,27.948,20.5,28.5,20.5z" opacity=".05"/><path d="M28.5,20.25h13c0.414,0,0.75-0.336,0.75-0.75v-13	c0-0.414-0.336-0.75-0.75-0.75h-13c-0.414,0-0.75,0.336-0.75,0.75v13C27.75,19.914,28.086,20.25,28.5,20.25z" opacity=".07"/><radialGradient id="e_IkPMJeWJ2fyCSAXNMQPe" cx="33.109" cy="242.616" r="12.79" gradientTransform="matrix(1.0769 0 0 -1.0769 -4.536 268.997)" gradientUnits="userSpaceOnUse"><stop offset="0" stop-color="#fafafb"/><stop offset=".293" stop-color="#f6f7f8"/><stop offset=".566" stop-color="#ebecee"/><stop offset=".832" stop-color="#d8dcdf"/><stop offset="1" stop-color="#c8cdd1"/></radialGradient><path fill="url(#e_IkPMJeWJ2fyCSAXNMQPe)" d="M41.5,20h-13c-0.276,0-0.5-0.224-0.5-0.5v-13C28,6.224,28.224,6,28.5,6h13	C41.776,6,42,6.224,42,6.5v13C42,19.776,41.776,20,41.5,20z"/><linearGradient id="e_IkPMJeWJ2fyCSAXNMQPf" x1="70.913" x2="70.915" y1="358.532" y2="358.532" gradientTransform="scale(1 -1) rotate(-9.317 -2375.252 568.726)" gradientUnits="userSpaceOnUse"><stop offset="0" stop-color="#ffc430"/><stop offset=".57" stop-color="#f8bd29"/><stop offset="1" stop-color="#f0b421"/></linearGradient><path fill="url(#e_IkPMJeWJ2fyCSAXNMQPf)" d="M4.63,34.743c0.001-0.006,0.003-0.009,0.004-0.015l-0.002-0.001L4.63,34.743z"/><path d="M17.091,22v-5.914c0-1.573-1.203-2.922-2.736-3.071C14.25,13.005,14.147,13,14.045,13	C12.366,13,11,14.334,11,15.974V22H17.091z" opacity=".05"/><path d="M16.591,22v-5.914c0-1.318-1.004-2.449-2.286-2.574c-0.087-0.009-0.174-0.013-0.26-0.013	c-1.403,0-2.545,1.11-2.545,2.474V22H16.591z" opacity=".07"/><linearGradient id="e_IkPMJeWJ2fyCSAXNMQPg" x1="13.559" x2="33.571" y1="226.075" y2="205.294" gradientTransform="matrix(1 0 0 -1 0 254)" gradientUnits="userSpaceOnUse"><stop offset="0" stop-color="#ffc430"/><stop offset=".41" stop-color="#fec130"/><stop offset=".72" stop-color="#fcb730"/><stop offset=".998" stop-color="#f7a72f"/><stop offset="1" stop-color="#f7a72f"/></linearGradient><path fill="url(#e_IkPMJeWJ2fyCSAXNMQPg)" d="M26.513,26.554l-10.422-1.502v-8.966c0-1.033-0.77-1.973-1.834-2.076	C13.032,13.892,12,14.816,12,15.974c0,0.187,0,26.422,0,26.422C13.195,43.422,14.738,44,16.348,44h8.743	C27.802,44,30,41.879,30,39.263v-8.805C30,28.503,28.517,26.843,26.513,26.554z"/><linearGradient id="e_IkPMJeWJ2fyCSAXNMQPh" x1="17.034" x2="15.196" y1="225.815" y2="226.815" gradientTransform="matrix(1 0 0 -1 0 254)" gradientUnits="userSpaceOnUse"><stop offset=".282" stop-color="#ffc430"/><stop offset=".401" stop-color="#f8bd2d"/><stop offset=".574" stop-color="#e5aa23"/><stop offset=".78" stop-color="#c58a14"/><stop offset="1" stop-color="#9c6000"/></linearGradient><polygon fill="url(#e_IkPMJeWJ2fyCSAXNMQPh)" points="16.076,25.053 16.076,31.357 18.818,25.462"/><circle cx="14" cy="16" r="1" fill="#fff0c9"/></svg>