<svg xmlns="http://www.w3.org/2000/svg"  viewBox="0 0 48 48" width="96px" height="96px"><linearGradient id="GwuMQJpzjGUV7n3q2Qpbla" x1="13.48" x2="31.634" y1="11.593" y2="37.853" gradientUnits="userSpaceOnUse"><stop offset="0" stop-color="#7dd8f3"/><stop offset="1" stop-color="#45b0d0"/></linearGradient><path fill="url(#GwuMQJpzjGUV7n3q2Qpbla)" d="M4,38V15h40v23c0,1.1-0.9,2-2,2H6C4.9,40,4,39.1,4,38z"/><path fill="#0d86ad" d="M39.5,23h-13c-0.276,0-0.5-0.224-0.5-0.5v-1c0-0.276,0.224-0.5,0.5-0.5h13c0.276,0,0.5,0.224,0.5,0.5	v1C40,22.776,39.776,23,39.5,23z"/><path fill="#0d86ad" d="M39.5,27h-13c-0.276,0-0.5-0.224-0.5-0.5v-1c0-0.276,0.224-0.5,0.5-0.5h13c0.276,0,0.5,0.224,0.5,0.5	v1C40,26.776,39.776,27,39.5,27z"/><path fill="#0d86ad" d="M39.5,31h-13c-0.276,0-0.5-0.224-0.5-0.5v-1c0-0.276,0.224-0.5,0.5-0.5h13c0.276,0,0.5,0.224,0.5,0.5	v1C40,30.776,39.776,31,39.5,31z"/><path fill="#0d86ad" d="M36.5,35h-10c-0.276,0-0.5-0.224-0.5-0.5v-1c0-0.276,0.224-0.5,0.5-0.5h10c0.276,0,0.5,0.224,0.5,0.5	v1C37,34.776,36.776,35,36.5,35z"/><linearGradient id="GwuMQJpzjGUV7n3q2Qpblb" x1="4.614" x2="42.936" y1="7.741" y2="15.533" gradientUnits="userSpaceOnUse"><stop offset="0" stop-color="#0077d2"/><stop offset="1" stop-color="#0b59a2"/></linearGradient><path fill="url(#GwuMQJpzjGUV7n3q2Qpblb)" d="M44,10v5H4v-5c0-1.1,0.9-2,2-2h36C43.1,8,44,8.9,44,10z"/><linearGradient id="GwuMQJpzjGUV7n3q2Qpblc" x1="16" x2="42" y1="11.5" y2="11.5" gradientUnits="userSpaceOnUse"><stop offset="0" stop-color="#7dd8f3"/><stop offset="1" stop-color="#45b0d0"/></linearGradient><path fill="url(#GwuMQJpzjGUV7n3q2Qpblc)" d="M16.5,13h25c0.276,0,0.5-0.224,0.5-0.5v-2c0-0.276-0.224-0.5-0.5-0.5h-25	c-0.276,0-0.5,0.224-0.5,0.5v2C16,12.776,16.224,13,16.5,13z"/><linearGradient id="GwuMQJpzjGUV7n3q2Qpbld" x1="6.751" x2="8.032" y1="10.416" y2="12.269" gradientUnits="userSpaceOnUse"><stop offset="0" stop-color="#75daff"/><stop offset="1" stop-color="#49bef1"/></linearGradient><circle cx="7.5" cy="11.5" r="1.5" fill="url(#GwuMQJpzjGUV7n3q2Qpbld)"/><linearGradient id="GwuMQJpzjGUV7n3q2Qpble" x1="11.751" x2="13.032" y1="10.416" y2="12.269" gradientUnits="userSpaceOnUse"><stop offset="0" stop-color="#75daff"/><stop offset="1" stop-color="#49bef1"/></linearGradient><circle cx="12.5" cy="11.5" r="1.5" fill="url(#GwuMQJpzjGUV7n3q2Qpble)"/><radialGradient id="GwuMQJpzjGUV7n3q2Qpblf" cx="24.519" cy="32.852" r="8.922" gradientUnits="userSpaceOnUse"><stop offset="0" stop-color="#ba84f5"/><stop offset=".129" stop-color="#b584f3"/><stop offset=".291" stop-color="#a585ee"/><stop offset=".47" stop-color="#8c87e6"/><stop offset=".662" stop-color="#6889db"/><stop offset=".862" stop-color="#3b8bcd"/><stop offset="1" stop-color="#178dc2"/></radialGradient><path fill="url(#GwuMQJpzjGUV7n3q2Qpblf)" d="M21.222,21H8.778C8.348,21,8,21.348,8,21.778v12.444C8,34.652,8.348,35,8.778,35h12.444	C21.652,35,22,34.652,22,34.222V21.778C22,21.348,21.652,21,21.222,21z"/><path fill="#436dcd" d="M18.136,27.636c-0.447-0.447-1.168-0.457-1.627-0.022l-3.842,3.64V35h8.556	C21.652,35,22,34.652,22,34.222V31.5L18.136,27.636z"/><circle cx="19" cy="24" r="1" fill="#fff"/><linearGradient id="GwuMQJpzjGUV7n3q2Qpblg" x1="14.965" x2="14.965" y1="25.718" y2="35.161" gradientUnits="userSpaceOnUse"><stop offset="0" stop-color="#124787"/><stop offset=".923" stop-color="#173b75"/><stop offset="1" stop-color="#173a73"/></linearGradient><path fill="url(#GwuMQJpzjGUV7n3q2Qpblg)" d="M8.778,35h12.444c0.316,0,0.586-0.189,0.708-0.459l-8.46-8.46	c-0.447-0.447-1.168-0.457-1.627-0.022L8,29.699v4.523C8,34.652,8.348,35,8.778,35z"/></svg>