<svg xmlns="http://www.w3.org/2000/svg"  viewBox="0 0 48 48" width="96px" height="96px"><path fill="#7b83eb" d="M24,13H3v24c0,1.105,0.895,2,2,2h19V13z"/><path fill="#5059c9" d="M45,13H24v26h19c1.105,0,2-0.895,2-2V13z"/><path fill="#3a41ac" d="M43,9H5c-1.105,0-2,0.895-2,2v2h42v-2C45,9.895,44.105,9,43,9z"/><circle cx="7" cy="18" r="1" fill="#3a41ac"/><circle cx="7" cy="22" r="1" fill="#3a41ac"/><circle cx="7" cy="26" r="1" fill="#3a41ac"/><circle cx="7" cy="34" r="1" fill="#3a41ac"/><path fill="#3a41ac" d="M20,19h-7c-0.552,0-1-0.448-1-1v0c0-0.552,0.448-1,1-1h7c0.552,0,1,0.448,1,1v0	C21,18.552,20.552,19,20,19z"/><path fill="#3a41ac" d="M20,27h-7c-0.552,0-1-0.448-1-1v0c0-0.552,0.448-1,1-1h7c0.552,0,1,0.448,1,1v0	C21,26.552,20.552,27,20,27z"/><path fill="#3a41ac" d="M20,23h-7c-0.552,0-1-0.448-1-1v0c0-0.552,0.448-1,1-1h7c0.552,0,1,0.448,1,1v0	C21,22.552,20.552,23,20,23z"/><path fill="#3a41ac" d="M20,35h-7c-0.552,0-1-0.448-1-1l0,0c0-0.552,0.448-1,1-1h7c0.552,0,1,0.448,1,1l0,0	C21,34.552,20.552,35,20,35z"/><path fill="#3a41ac" d="M20,31h-2c-0.552,0-1-0.448-1-1v0c0-0.552,0.448-1,1-1h2c0.552,0,1,0.448,1,1v0	C21,30.552,20.552,31,20,31z"/><circle cx="28" cy="18" r="1" fill="#7b83eb"/><circle cx="28" cy="22" r="1" fill="#7b83eb"/><circle cx="28" cy="26" r="1" fill="#7b83eb"/><circle cx="28" cy="34" r="1" fill="#7b83eb"/><path fill="#7b83eb" d="M41,19h-7c-0.552,0-1-0.448-1-1v0c0-0.552,0.448-1,1-1h7c0.552,0,1,0.448,1,1v0	C42,18.552,41.552,19,41,19z"/><path fill="#7b83eb" d="M41,27h-7c-0.552,0-1-0.448-1-1v0c0-0.552,0.448-1,1-1h7c0.552,0,1,0.448,1,1v0	C42,26.552,41.552,27,41,27z"/><path fill="#7b83eb" d="M41,23h-7c-0.552,0-1-0.448-1-1v0c0-0.552,0.448-1,1-1h7c0.552,0,1,0.448,1,1v0	C42,22.552,41.552,23,41,23z"/><path fill="#7b83eb" d="M41,35h-7c-0.552,0-1-0.448-1-1l0,0c0-0.552,0.448-1,1-1h7c0.552,0,1,0.448,1,1l0,0	C42,34.552,41.552,35,41,35z"/><path fill="#7b83eb" d="M41,31h-2c-0.552,0-1-0.448-1-1v0c0-0.552,0.448-1,1-1h2c0.552,0,1,0.448,1,1v0	C42,30.552,41.552,31,41,31z"/></svg>