<svg xmlns="http://www.w3.org/2000/svg"  viewBox="0 0 48 48" width="96px" height="96px"><path fill="#e3a600" d="M13,9V6c0-0.552,0.448-1,1-1h0c0.552,0,1,0.448,1,1v3H13z"/><path fill="#e3a600" d="M17,9V6c0-0.552,0.448-1,1-1h0c0.552,0,1,0.448,1,1v3H17z"/><path fill="#e3a600" d="M21,9V6c0-0.552,0.448-1,1-1h0c0.552,0,1,0.448,1,1v3H21z"/><path fill="#e3a600" d="M25,9V6c0-0.552,0.448-1,1-1h0c0.552,0,1,0.448,1,1v3H25z"/><path fill="#e3a600" d="M29,9V6c0-0.552,0.448-1,1-1h0c0.552,0,1,0.448,1,1v3H29z"/><path fill="#e3a600" d="M33,9V6c0-0.552,0.448-1,1-1l0,0c0.552,0,1,0.448,1,1v3H33z"/><linearGradient id="qykBHthKC_SR9NwM248gla" x1="24.056" x2="23.957" y1="8.271" y2="36.062" gradientUnits="userSpaceOnUse"><stop offset="0" stop-color="#899198"/><stop offset="1" stop-color="#787e85"/></linearGradient><path fill="url(#qykBHthKC_SR9NwM248gla)" d="M37,39H11c-1.105,0-2-0.895-2-2V11c0-1.105,0.895-2,2-2h26c1.105,0,2,0.895,2,2v26	C39,38.105,38.105,39,37,39z"/><path d="M32.36,36H15.637C13.628,36,12,34.372,12,32.363V15.64	c0-2.01,1.63-3.64,3.64-3.64h16.72c2.01,0,3.64,1.63,3.64,3.64v16.72C36,34.37,34.37,36,32.36,36z" opacity=".05"/><path d="M32.162,35H15.838C14.271,35,13,33.729,13,32.162V15.838	C13,14.271,14.271,13,15.838,13h16.324C33.729,13,35,14.271,35,15.838v16.324C35,33.729,33.729,35,32.162,35z" opacity=".07"/><linearGradient id="qykBHthKC_SR9NwM248glb" x1="23.902" x2="24.166" y1="14.123" y2="40.827" gradientUnits="userSpaceOnUse"><stop offset="0" stop-color="#ccc"/><stop offset=".396" stop-color="#bbb"/><stop offset="1" stop-color="#999"/></linearGradient><path fill="url(#qykBHthKC_SR9NwM248glb)" d="M32,34H16c-1.105,0-2-0.895-2-2V16c0-1.105,0.895-2,2-2h16c1.105,0,2,0.895,2,2v16	C34,33.105,33.105,34,32,34z"/><path fill="#e3a600" d="M13,39v3c0,0.552,0.448,1,1,1h0c0.552,0,1-0.448,1-1v-3H13z"/><path fill="#e3a600" d="M17,39v3c0,0.552,0.448,1,1,1h0c0.552,0,1-0.448,1-1v-3H17z"/><path fill="#e3a600" d="M21,39v3c0,0.552,0.448,1,1,1h0c0.552,0,1-0.448,1-1v-3H21z"/><path fill="#e3a600" d="M25,39v3c0,0.552,0.448,1,1,1h0c0.552,0,1-0.448,1-1v-3H25z"/><path fill="#e3a600" d="M29,39v3c0,0.552,0.448,1,1,1h0c0.552,0,1-0.448,1-1v-3H29z"/><path fill="#e3a600" d="M33,39v3c0,0.552,0.448,1,1,1l0,0c0.552,0,1-0.448,1-1v-3H33z"/><path fill="#e3a600" d="M39,35h3c0.552,0,1-0.448,1-1l0,0c0-0.552-0.448-1-1-1h-3V35z"/><path fill="#e3a600" d="M39,31h3c0.552,0,1-0.448,1-1v0c0-0.552-0.448-1-1-1h-3V31z"/><path fill="#e3a600" d="M39,27h3c0.552,0,1-0.448,1-1v0c0-0.552-0.448-1-1-1h-3V27z"/><path fill="#e3a600" d="M39,23h3c0.552,0,1-0.448,1-1v0c0-0.552-0.448-1-1-1h-3V23z"/><path fill="#e3a600" d="M39,19h3c0.552,0,1-0.448,1-1v0c0-0.552-0.448-1-1-1h-3V19z"/><path fill="#e3a600" d="M39,15h3c0.552,0,1-0.448,1-1v0c0-0.552-0.448-1-1-1h-3V15z"/><path fill="#e3a600" d="M9,35H6c-0.552,0-1-0.448-1-1l0,0c0-0.552,0.448-1,1-1h3V35z"/><path fill="#e3a600" d="M9,31H6c-0.552,0-1-0.448-1-1v0c0-0.552,0.448-1,1-1h3V31z"/><path fill="#e3a600" d="M9,27H6c-0.552,0-1-0.448-1-1v0c0-0.552,0.448-1,1-1h3V27z"/><path fill="#e3a600" d="M9,23H6c-0.552,0-1-0.448-1-1v0c0-0.552,0.448-1,1-1h3V23z"/><path fill="#e3a600" d="M9,19H6c-0.552,0-1-0.448-1-1v0c0-0.552,0.448-1,1-1h3V19z"/><path fill="#e3a600" d="M9,15H6c-0.552,0-1-0.448-1-1v0c0-0.552,0.448-1,1-1h3V15z"/><linearGradient id="qykBHthKC_SR9NwM248glc" x1="36" x2="36" y1="10.989" y2="12.571" gradientUnits="userSpaceOnUse"><stop offset="0" stop-color="#4c4c4c"/><stop offset="1" stop-color="#343434"/></linearGradient><circle cx="36" cy="12" r="1" fill="url(#qykBHthKC_SR9NwM248glc)"/><linearGradient id="qykBHthKC_SR9NwM248gld" x1="12" x2="12" y1="34.989" y2="36.571" gradientUnits="userSpaceOnUse"><stop offset="0" stop-color="#4c4c4c"/><stop offset="1" stop-color="#343434"/></linearGradient><circle cx="12" cy="36" r="1" fill="url(#qykBHthKC_SR9NwM248gld)"/><linearGradient id="qykBHthKC_SR9NwM248gle" x1="36" x2="36" y1="34.989" y2="36.571" gradientUnits="userSpaceOnUse"><stop offset="0" stop-color="#4c4c4c"/><stop offset="1" stop-color="#343434"/></linearGradient><circle cx="36" cy="36" r="1" fill="url(#qykBHthKC_SR9NwM248gle)"/><linearGradient id="qykBHthKC_SR9NwM248glf" x1="12" x2="12" y1="10.989" y2="12.571" gradientUnits="userSpaceOnUse"><stop offset="0" stop-color="#4c4c4c"/><stop offset="1" stop-color="#343434"/></linearGradient><circle cx="12" cy="12" r="1" fill="url(#qykBHthKC_SR9NwM248glf)"/></svg>