<svg xmlns="http://www.w3.org/2000/svg"  viewBox="0 0 48 48" width="96px" height="96px"><path fill="#50e6ff" d="M39,16v25c0,1.105-0.895,2-2,2H11c-1.105,0-2-0.895-2-2V7c0-1.105,0.895-2,2-2h17L39,16z"/><path fill="#057093" d="M32.5,21h-17c-0.276,0-0.5-0.224-0.5-0.5v-1c0-0.276,0.224-0.5,0.5-0.5h17c0.276,0,0.5,0.224,0.5,0.5	v1C33,20.776,32.776,21,32.5,21z"/><path fill="#057093" d="M30.5,25h-15c-0.276,0-0.5-0.224-0.5-0.5v-1c0-0.276,0.224-0.5,0.5-0.5h15c0.276,0,0.5,0.224,0.5,0.5	v1C31,24.776,30.776,25,30.5,25z"/><path fill="#057093" d="M32.5,29h-17c-0.276,0-0.5-0.224-0.5-0.5v-1c0-0.276,0.224-0.5,0.5-0.5h17c0.276,0,0.5,0.224,0.5,0.5	v1C33,28.776,32.776,29,32.5,29z"/><path fill="#057093" d="M27.5,33h-12c-0.276,0-0.5-0.224-0.5-0.5v-1c0-0.276,0.224-0.5,0.5-0.5h12c0.276,0,0.5,0.224,0.5,0.5	v1C28,32.776,27.776,33,27.5,33z"/><linearGradient id="yfMHI4HjB37yWV1npL5HQa" x1="22.5" x2="22.5" y1="26" y2="5" gradientUnits="userSpaceOnUse"><stop offset="0" stop-color="#3079d6"/><stop offset="1" stop-color="#297cd2"/></linearGradient><path fill="url(#yfMHI4HjB37yWV1npL5HQa)" d="M28,5H11C9.895,5,9,5.895,9,7v6H6.455c-0.405,0-0.607,0.49-0.321,0.776l3.723,3.723	c0.355,0.355,0.931,0.355,1.286,0l3.723-3.723C15.152,13.49,14.95,13,14.545,13H12V8h16l8,8v9.5c0,0.276,0.224,0.5,0.5,0.5h2	c0.276,0,0.5-0.224,0.5-0.5V16L28,5z"/><linearGradient id="yfMHI4HjB37yWV1npL5HQb" x1="25.478" x2="25.478" y1="43" y2="22" gradientUnits="userSpaceOnUse"><stop offset="0" stop-color="#3079d6"/><stop offset="1" stop-color="#297cd2"/></linearGradient><path fill="url(#yfMHI4HjB37yWV1npL5HQb)" d="M41.821,34.224l-3.723-3.723c-0.355-0.355-0.931-0.355-1.285,0l-3.723,3.723	C32.803,34.51,33.005,35,33.41,35H36v5H12V22.5c0-0.276-0.224-0.5-0.5-0.5h-2C9.224,22,9,22.224,9,22.5V41c0,1.105,0.895,2,2,2h26	c1.105,0,2-0.895,2-2v-6h2.5C41.905,35,42.107,34.51,41.821,34.224z"/><rect width="3" height="1" x="36" y="16" opacity=".05"/><rect width="3" height=".5" x="36" y="16" opacity=".05"/><rect width="3" height="1" x="26" y="6" opacity=".05" transform="rotate(90 27.5 6.5)"/><rect width="3" height=".5" x="26.25" y="6.25" opacity=".05" transform="rotate(90 27.75 6.5)"/><linearGradient id="yfMHI4HjB37yWV1npL5HQc" x1="28.529" x2="33.6" y1="-1251.471" y2="-1246.4" gradientTransform="matrix(1 0 0 -1 0 -1236)" gradientUnits="userSpaceOnUse"><stop offset="0" stop-color="#3079d6"/><stop offset="1" stop-color="#297cd2"/></linearGradient><path fill="url(#yfMHI4HjB37yWV1npL5HQc)" d="M28,5v9c0,1.105,0.895,2,2,2h9L28,5z"/></svg>