<svg xmlns="http://www.w3.org/2000/svg"  viewBox="0 0 48 48" width="96px" height="96px"><linearGradient id="7BDWD4ZdDeZm~8SgpcfAFa" x1="16.904" x2="33.664" y1="47.845" y2="16.325" gradientTransform="matrix(1 0 0 -1 0 48)" gradientUnits="userSpaceOnUse"><stop offset="0" stop-color="#0077d2"/><stop offset="1" stop-color="#0b59a2"/></linearGradient><path fill="url(#7BDWD4ZdDeZm~8SgpcfAFa)" d="M44.211,22H3.789C2.801,22,2,21.199,2,20.211V6.789C2,5.801,2.801,5,3.789,5h40.422	C45.199,5,46,5.801,46,6.789v13.422C46,21.199,45.199,22,44.211,22z"/><linearGradient id="7BDWD4ZdDeZm~8SgpcfAFb" x1="19.346" x2="29.122" y1="43.253" y2="24.866" gradientTransform="matrix(1 0 0 -1 0 48)" gradientUnits="userSpaceOnUse"><stop offset="0" stop-color="#fcfcfc"/><stop offset=".495" stop-color="#f4f4f4"/><stop offset=".869" stop-color="#e8e8e8"/><stop offset="1" stop-color="#e8e8e8"/></linearGradient><polygon fill="url(#7BDWD4ZdDeZm~8SgpcfAFb)" points="4,20 4,7 44,7 44,20"/><circle cx="19.5" cy="13.5" r="2.5" fill="#0b5aa4"/><circle cx="10.5" cy="13.5" r="2.5" fill="#0b5aa4"/><circle cx="28.5" cy="13.5" r="2.5" fill="#0b5aa4"/><circle cx="37.5" cy="13.5" r="2.5" fill="#0b5aa4"/><linearGradient id="7BDWD4ZdDeZm~8SgpcfAFc" x1="19.786" x2="27.731" y1="4.075" y2="19.016" gradientTransform="matrix(1 0 0 -1 0 48)" gradientUnits="userSpaceOnUse"><stop offset="0" stop-color="#32bdef"/><stop offset="1" stop-color="#1ea2e4"/></linearGradient><path fill="url(#7BDWD4ZdDeZm~8SgpcfAFc)" d="M23.741,44.996c-4.692-0.132-8.603-4.043-8.737-8.735C14.859,31.18,18.95,27,24,27v4	c-3.109,0-5.564,2.852-4.887,6.077c0.397,1.887,1.922,3.413,3.809,3.809c3.06,0.643,5.784-1.534,6.055-4.414	C29.003,36.209,29.207,36,29.472,36h3.007c0.284,0,0.522,0.239,0.506,0.522C32.709,41.327,28.645,45.135,23.741,44.996z"/><linearGradient id="7BDWD4ZdDeZm~8SgpcfAFd" x1="22.302" x2="27.79" y1="24.041" y2="13.718" gradientTransform="matrix(1 0 0 -1 0 48)" gradientUnits="userSpaceOnUse"><stop offset="0" stop-color="#32bdef"/><stop offset="1" stop-color="#1ea2e4"/></linearGradient><path fill="url(#7BDWD4ZdDeZm~8SgpcfAFd)" d="M29.654,30.222l-5.239,4.567c-0.518,0.451-1.413,0.131-1.413-0.508l-0.009-9.561	c0-0.64,0.886-0.959,1.413-0.508l5.248,4.559C30.115,29.172,30.115,29.82,29.654,30.222z"/></svg>