<svg xmlns="http://www.w3.org/2000/svg"  viewBox="0 0 48 48" width="96px" height="96px"><path fill="#64717c" d="M16,6h-2v32c0,1.657,1.343,3,3,3h9v-2h-9c-0.552,0-1-0.448-1-1V25h10v-2H16V6z"/><linearGradient id="4RxtpKI4_WKe2V_J7J5Cfa" x1="711.5" x2="711.5" y1="409.459" y2="400" gradientTransform="translate(-696.5 -396.5)" gradientUnits="userSpaceOnUse"><stop offset="0" stop-color="#42a3f2"/><stop offset="1" stop-color="#42a4eb"/></linearGradient><path fill="url(#4RxtpKI4_WKe2V_J7J5Cfa)" d="M22,3H8C7.448,3,7,3.448,7,4v8c0,0.552,0.448,1,1,1h14c0.552,0,1-0.448,1-1V4	C23,3.448,22.552,3,22,3z"/><linearGradient id="4RxtpKI4_WKe2V_J7J5Cfb" x1="699.5" x2="699.5" y1="443.459" y2="434" gradientTransform="translate(-666.5 -414.5)" gradientUnits="userSpaceOnUse"><stop offset="0" stop-color="#3079d6"/><stop offset="1" stop-color="#297cd2"/></linearGradient><path fill="url(#4RxtpKI4_WKe2V_J7J5Cfb)" d="M40,19H26c-0.552,0-1,0.448-1,1v8c0,0.552,0.448,1,1,1h14c0.552,0,1-0.448,1-1v-8	C41,19.448,40.552,19,40,19z"/><linearGradient id="4RxtpKI4_WKe2V_J7J5Cfc" x1="699.5" x2="699.5" y1="459.459" y2="450" gradientTransform="translate(-666.5 -414.5)" gradientUnits="userSpaceOnUse"><stop offset="0" stop-color="#3079d6"/><stop offset="1" stop-color="#297cd2"/></linearGradient><path fill="url(#4RxtpKI4_WKe2V_J7J5Cfc)" d="M40,35H26c-0.552,0-1,0.448-1,1v8c0,0.552,0.448,1,1,1h14c0.552,0,1-0.448,1-1v-8	C41,35.448,40.552,35,40,35z"/></svg>