<svg xmlns="http://www.w3.org/2000/svg"  viewBox="0 0 48 48" width="96px" height="96px"><linearGradient id="NWlHyh8VOXjBX4UVkfWP8a" x1="17.326" x2="30.777" y1="14" y2="14" gradientUnits="userSpaceOnUse"><stop offset="0" stop-color="#f44f5a"/><stop offset=".443" stop-color="#ee3d4a"/><stop offset="1" stop-color="#e52030"/></linearGradient><path fill="url(#NWlHyh8VOXjBX4UVkfWP8a)" d="M24,4c-3.866,0-7,3.134-7,7s7,13,7,13s7-9.134,7-13S27.866,4,24,4z"/><linearGradient id="NWlHyh8VOXjBX4UVkfWP8b" x1="29.687" x2="35.124" y1="11.916" y2="24.746" gradientUnits="userSpaceOnUse"><stop offset="0" stop-color="#f44f5a"/><stop offset=".443" stop-color="#ee3d4a"/><stop offset="1" stop-color="#e52030"/></linearGradient><path fill="url(#NWlHyh8VOXjBX4UVkfWP8b)" d="M41.321,14c-1.933-3.348-6.214-4.495-9.562-2.562S24,24,24,24s11.41,1.495,14.758-0.438	C42.106,21.629,43.254,17.348,41.321,14z"/><linearGradient id="NWlHyh8VOXjBX4UVkfWP8c" x1="36.155" x2="29.018" y1="22.884" y2="35.373" gradientUnits="userSpaceOnUse"><stop offset="0" stop-color="#f44f5a"/><stop offset=".443" stop-color="#ee3d4a"/><stop offset="1" stop-color="#e52030"/></linearGradient><path fill="url(#NWlHyh8VOXjBX4UVkfWP8c)" d="M41.321,34c1.933-3.348,0.786-7.629-2.562-9.562C35.41,22.505,24,24,24,24	s4.41,10.629,7.758,12.562C35.106,38.495,39.388,37.348,41.321,34z"/><linearGradient id="NWlHyh8VOXjBX4UVkfWP8d" x1="31.26" x2="16.81" y1="34" y2="34" gradientUnits="userSpaceOnUse"><stop offset="0" stop-color="#f44f5a"/><stop offset=".443" stop-color="#ee3d4a"/><stop offset="1" stop-color="#e52030"/></linearGradient><path fill="url(#NWlHyh8VOXjBX4UVkfWP8d)" d="M24,44c3.866,0,7-3.134,7-7s-7-13-7-13s-7,9.134-7,13S20.134,44,24,44z"/><linearGradient id="NWlHyh8VOXjBX4UVkfWP8e" x1="18.93" x2="11.708" y1="35.082" y2="22.847" gradientUnits="userSpaceOnUse"><stop offset="0" stop-color="#f44f5a"/><stop offset=".443" stop-color="#ee3d4a"/><stop offset="1" stop-color="#e52030"/></linearGradient><path fill="url(#NWlHyh8VOXjBX4UVkfWP8e)" d="M6.679,34c1.933,3.348,6.214,4.495,9.562,2.562C19.59,34.629,24,24,24,24	s-11.41-1.495-14.758,0.438S4.746,30.652,6.679,34z"/><linearGradient id="NWlHyh8VOXjBX4UVkfWP8f" x1="11.753" x2="18.55" y1="25.277" y2="13.382" gradientUnits="userSpaceOnUse"><stop offset="0" stop-color="#f44f5a"/><stop offset=".443" stop-color="#ee3d4a"/><stop offset="1" stop-color="#e52030"/></linearGradient><path fill="url(#NWlHyh8VOXjBX4UVkfWP8f)" d="M16.242,11.438C12.894,9.505,8.612,10.652,6.68,14c-1.933,3.348-0.786,7.629,2.562,9.562	C12.59,25.495,24,24,24,24s-5.787-7.561-6.826-11.835C16.858,11.862,16.545,11.613,16.242,11.438z"/><path fill="#d61827" d="M24,12.143c-0.552,0-1,0.448-1,1C23,13.695,24,24,24,24s1-10.305,1-10.857	C25,12.591,24.552,12.143,24,12.143z"/><path fill="#d61827" d="M24,36c0.552,0,1-0.448,1-1s-1-10.857-1-10.857S23,34.448,23,35S23.448,36,24,36z"/><path fill="#d61827" d="M13.67,30.036c0.276,0.478,0.888,0.642,1.366,0.366s8.903-6.295,8.903-6.295	s-9.424,4.286-9.903,4.563S13.393,29.557,13.67,30.036z"/><path fill="#d61827" d="M34.33,18.107c-0.276-0.478-0.888-0.642-1.366-0.366c-0.478,0.276-8.903,6.295-8.903,6.295	s9.424-4.286,9.903-4.563C34.443,19.197,34.607,18.585,34.33,18.107z"/><path fill="#d61827" d="M34.33,30.036c0.276-0.478,0.112-1.09-0.366-1.366c-0.478-0.276-9.903-4.563-9.903-4.563	s8.424,6.018,8.903,6.295C33.443,30.678,34.054,30.514,34.33,30.036z"/><path fill="#d61827" d="M13.67,18.107c-0.276,0.478-0.112,1.09,0.366,1.366c0.478,0.276,9.903,4.563,9.903,4.563	s-8.424-6.018-8.903-6.295S13.946,17.629,13.67,18.107z"/><linearGradient id="NWlHyh8VOXjBX4UVkfWP8g" x1="19.321" x2="27.528" y1="19.321" y2="27.528" gradientUnits="userSpaceOnUse"><stop offset="0" stop-color="#fed100"/><stop offset="1" stop-color="#e36001"/></linearGradient><path fill="url(#NWlHyh8VOXjBX4UVkfWP8g)" d="M24,19c-2.761,0-5,2.239-5,5s2.239,5,5,5s5-2.239,5-5S26.761,19,24,19z"/></svg>