<svg xmlns="http://www.w3.org/2000/svg"  viewBox="0 0 48 48" width="96px" height="96px"><path fill="#64717c" d="M17,19H7c-0.552,0-1-0.447-1-1s0.448-1,1-1h10c0.552,0,1,0.447,1,1S17.552,19,17,19z"/><path fill="#64717c" d="M7.001,17c-0.354,0-0.697-0.188-0.879-0.521c-0.265-0.484-0.086-1.092,0.399-1.356l11-6	c0.486-0.265,1.093-0.085,1.357,0.399c0.265,0.484,0.086,1.092-0.399,1.356l-11,6C7.327,16.961,7.163,17,7.001,17z"/><path fill="#64717c" d="M17.999,27c-0.162,0-0.326-0.039-0.478-0.122l-11-6c-0.485-0.265-0.664-0.872-0.399-1.356	s0.872-0.663,1.357-0.399l11,6c0.485,0.265,0.664,0.872,0.399,1.356C18.696,26.812,18.353,27,17.999,27z"/><path fill="#64717c" d="M7,44c-0.552,0-1-0.447-1-1V8c0-0.553,0.448-1,1-1s1,0.447,1,1v35C8,43.553,7.552,44,7,44z"/><linearGradient id="FLX5bOLQ980VwobKteXXKa" x1="5" x2="9" y1="18" y2="18" gradientUnits="userSpaceOnUse"><stop offset="0" stop-color="#92a3b0"/><stop offset=".015" stop-color="#a3b5c4"/><stop offset=".032" stop-color="#aec2d1"/><stop offset=".046" stop-color="#b2c6d6"/></linearGradient><line x1="7" x2="7" y1="20" y2="16" fill="none" stroke="url(#FLX5bOLQ980VwobKteXXKa)" stroke-linecap="round" stroke-linejoin="round" stroke-miterlimit="10" stroke-width="4"/><linearGradient id="FLX5bOLQ980VwobKteXXKb" x1="5.648" x2="8.44" y1="5.375" y2="10.796" gradientUnits="userSpaceOnUse"><stop offset="0" stop-color="#f44f5a"/><stop offset=".443" stop-color="#ee3d4a"/><stop offset="1" stop-color="#e52030"/></linearGradient><circle cx="7" cy="8" r="3" fill="url(#FLX5bOLQ980VwobKteXXKb)"/><linearGradient id="FLX5bOLQ980VwobKteXXKc" x1="28.203" x2="30.596" y1="7.332" y2="24.394" gradientUnits="userSpaceOnUse"><stop offset="0" stop-color="#f44f5a"/><stop offset=".443" stop-color="#ee3d4a"/><stop offset="1" stop-color="#e52030"/></linearGradient><path fill="url(#FLX5bOLQ980VwobKteXXKc)" d="M42.352,12.317l-24-4.286C17.126,7.813,16,8.755,16,10.001v15.999	c0,1.245,1.126,2.188,2.352,1.969l24-4.286c0.954-0.17,1.648-1,1.648-1.969v-7.427C44,13.317,43.305,12.488,42.352,12.317z"/><linearGradient id="FLX5bOLQ980VwobKteXXKd" x1="27.618" x2="31.169" y1="8.863" y2="24.613" gradientUnits="userSpaceOnUse"><stop offset="0" stop-color="#f0f0f0"/><stop offset="1" stop-color="#bbc1c4"/></linearGradient><path fill="url(#FLX5bOLQ980VwobKteXXKd)" d="M22,8.683l5,0.893v16.848l-5,0.893V8.683z M33,10.647v14.705l5-0.893V11.54L33,10.647z"/></svg>