<svg xmlns="http://www.w3.org/2000/svg"  viewBox="0 0 48 48" width="96px" height="96px"><linearGradient id="Y2MBg9lti7D0ov~adiJgUa" x1="16.758" x2="30.883" y1="3.118" y2="17.242" gradientUnits="userSpaceOnUse"><stop offset="0" stop-color="#f44f5a"/><stop offset=".443" stop-color="#ee3d4a"/><stop offset="1" stop-color="#e52030"/></linearGradient><path fill="url(#Y2MBg9lti7D0ov~adiJgUa)" d="M24,4l-1,1v19h2.414L38.14,11.274V9.86C34.52,6.24,29.52,4,24,4z"/><linearGradient id="Y2MBg9lti7D0ov~adiJgUb" x1="-33.907" x2="-.208" y1="19.952" y2="53.652" gradientTransform="rotate(45.001 24.001 92)" gradientUnits="userSpaceOnUse"><stop offset="0" stop-color="#fed100"/><stop offset="1" stop-color="#e36001"/></linearGradient><path fill="url(#Y2MBg9lti7D0ov~adiJgUb)" d="M38.142,9.858L24,24l1,1l17.997,0l1-1C43.997,18.881,42.045,13.761,38.142,9.858z"/><linearGradient id="Y2MBg9lti7D0ov~adiJgUc" x1="-46.93" x2="-36.223" y1="74.93" y2="85.637" gradientTransform="rotate(90 24 92)" gradientUnits="userSpaceOnUse"><stop offset="0" stop-color="#ffd747"/><stop offset=".482" stop-color="#ffd645"/><stop offset="1" stop-color="#f5bc00"/></linearGradient><path fill="url(#Y2MBg9lti7D0ov~adiJgUc)" d="M44,24H24v1.414L36.726,38.14h1.414C41.76,34.52,44,29.52,44,24z"/><linearGradient id="Y2MBg9lti7D0ov~adiJgUd" x1="-27.013" x2="-16.306" y1="123.013" y2="133.72" gradientTransform="rotate(134.999 24 92)" gradientUnits="userSpaceOnUse"><stop offset="0" stop-color="#33c481"/><stop offset="1" stop-color="#21a366"/></linearGradient><path fill="url(#Y2MBg9lti7D0ov~adiJgUd)" d="M38.142,38.142L24,24l-1,1l0,17.997l1,1C29.119,43.997,34.239,42.045,38.142,38.142z"/><linearGradient id="Y2MBg9lti7D0ov~adiJgUe" x1="21.07" x2="31.777" y1="142.93" y2="153.637" gradientTransform="rotate(180 24 92)" gradientUnits="userSpaceOnUse"><stop offset="0" stop-color="#28afea"/><stop offset="1" stop-color="#0b88da"/></linearGradient><path fill="url(#Y2MBg9lti7D0ov~adiJgUe)" d="M24,44V24h-1.414L9.86,36.726v1.414C13.48,41.76,18.48,44,24,44z"/><linearGradient id="Y2MBg9lti7D0ov~adiJgUf" x1="67.621" x2="78.328" y1="121.481" y2="132.188" gradientTransform="rotate(-134.999 24 92)" gradientUnits="userSpaceOnUse"><stop offset=".002" stop-color="#427fdb"/><stop offset=".397" stop-color="#2668cb"/><stop offset=".763" stop-color="#1358bf"/><stop offset="1" stop-color="#0c52bb"/></linearGradient><path fill="url(#Y2MBg9lti7D0ov~adiJgUf)" d="M9.858,38.142L24,24l-1-1L5.003,23l-1,1C4.003,29.119,5.955,34.239,9.858,38.142z"/><linearGradient id="Y2MBg9lti7D0ov~adiJgUg" x1="89.07" x2="99.777" y1="74.93" y2="85.637" gradientTransform="rotate(-90 24 92)" gradientUnits="userSpaceOnUse"><stop offset="0" stop-color="#a235d4"/><stop offset=".441" stop-color="#a033d1"/><stop offset=".702" stop-color="#982cc9"/><stop offset=".915" stop-color="#8b21bb"/><stop offset="1" stop-color="#831bb3"/></linearGradient><path fill="url(#Y2MBg9lti7D0ov~adiJgUg)" d="M4,24h20v-1.414L11.274,9.86H9.86C6.24,13.48,4,18.48,4,24z"/><linearGradient id="Y2MBg9lti7D0ov~adiJgUh" x1="69.153" x2="96.498" y1="26.847" y2="54.191" gradientTransform="rotate(-45.001 23.999 92)" gradientUnits="userSpaceOnUse"><stop offset="0" stop-color="#e83c67"/><stop offset=".423" stop-color="#c5214a"/><stop offset=".773" stop-color="#b01038"/><stop offset="1" stop-color="#a80a31"/></linearGradient><path fill="url(#Y2MBg9lti7D0ov~adiJgUh)" d="M9.858,9.858L24,24V4.003C18.881,4.003,13.761,5.955,9.858,9.858z"/></svg>