<svg xmlns="http://www.w3.org/2000/svg"  viewBox="0 0 48 48" width="96px" height="96px"><linearGradient id="CnwFb63xJOzKHmQaoj6ZXa" x1="6" x2="31" y1="18.5" y2="18.5" gradientUnits="userSpaceOnUse"><stop offset="0" stop-color="#42a3f2"/><stop offset="1" stop-color="#42a4eb"/></linearGradient><path fill="url(#CnwFb63xJOzKHmQaoj6ZXa)" d="M6,8c0-1.104,0.896-2,2-2h21c1.104,0,2,0.896,2,2v21c0,1.104-0.896,2-2,2H8 c-1.104,0-2-0.896-2-2V8z"/><linearGradient id="CnwFb63xJOzKHmQaoj6ZXb" x1="11.916" x2="24.084" y1="19.737" y2="19.737" gradientUnits="userSpaceOnUse"><stop offset="0" stop-color="#11408a"/><stop offset="1" stop-color="#103f8f"/></linearGradient><path fill="url(#CnwFb63xJOzKHmQaoj6ZXb)" d="M12.832,25.854l-0.916-1.776l0.889-0.459c0.061-0.031,6.101-3.208,9.043-9.104l0.446-0.895 l1.79,0.893l-0.447,0.895c-3.241,6.496-9.645,9.85-9.916,9.989L12.832,25.854z"/><linearGradient id="CnwFb63xJOzKHmQaoj6ZXc" x1="12" x2="26" y1="19" y2="19" gradientUnits="userSpaceOnUse"><stop offset="0" stop-color="#11408a"/><stop offset="1" stop-color="#103f8f"/></linearGradient><path fill="url(#CnwFb63xJOzKHmQaoj6ZXc)" d="M24.019,25l-0.87-0.49c-0.207-0.116-5.092-2.901-8.496-7.667l1.627-1.162 c3.139,4.394,7.805,7.061,7.851,7.087L25,23.26L24.019,25z M12,13h14v2H12V13z"/><linearGradient id="CnwFb63xJOzKHmQaoj6ZXd" x1="18" x2="20" y1="13" y2="13" gradientUnits="userSpaceOnUse"><stop offset="0" stop-color="#11408a"/><stop offset="1" stop-color="#103f8f"/></linearGradient><path fill="url(#CnwFb63xJOzKHmQaoj6ZXd)" d="M18,11h2v4h-2V11z"/><linearGradient id="CnwFb63xJOzKHmQaoj6ZXe" x1="17" x2="42" y1="29.5" y2="29.5" gradientUnits="userSpaceOnUse"><stop offset="0" stop-color="#1d59b3"/><stop offset="1" stop-color="#195bbc"/></linearGradient><path fill="url(#CnwFb63xJOzKHmQaoj6ZXe)" d="M31,17h9c1.104,0,2,0.896,2,2v21c0,1.104-0.896,2-2,2H19c-1.104,0-2-0.896-2-2v-9L31,17z"/><path fill="#fff" d="M32.172,33h-4.359l-1.008,3H24l4.764-13h2.444L36,36h-2.805L32.172,33z M28.444,31h3.101 l-1.559-4.714L28.444,31z"/><linearGradient id="CnwFb63xJOzKHmQaoj6ZXf" x1="6" x2="10.241" y1="80" y2="80" gradientTransform="matrix(1 0 0 -1 0 118)" gradientUnits="userSpaceOnUse"><stop offset="0" stop-color="#c965eb"/><stop offset="1" stop-color="#c767e5"/></linearGradient><path fill="url(#CnwFb63xJOzKHmQaoj6ZXf)" d="M6,41.595c0,0.361,0.436,0.541,0.691,0.285l3.332-3.351c0.291-0.293,0.291-0.766,0-1.058 L6.691,34.12C6.436,33.864,6,34.044,6,34.405V41.595z"/><linearGradient id="CnwFb63xJOzKHmQaoj6ZXg" x1="-97.759" x2="-93.517" y1="-28" y2="-28" gradientTransform="matrix(-1 0 0 1 -55.759 38)" gradientUnits="userSpaceOnUse"><stop offset="0" stop-color="#c965eb"/><stop offset="1" stop-color="#c767e5"/></linearGradient><path fill="url(#CnwFb63xJOzKHmQaoj6ZXg)" d="M42,6.405c0-0.361-0.436-0.541-0.691-0.285l-3.332,3.351c-0.291,0.293-0.291,0.766,0,1.058 l3.332,3.351C41.564,14.136,42,13.956,42,13.595V6.405z"/></svg>