<svg xmlns="http://www.w3.org/2000/svg" viewBox="0 0 48 48" width="96px" height="96px">
  <linearGradient id="SVGID_1_" x1="18.921" x2="25.143" y1="-472.285" y2="-451.285" gradientTransform="translate(0 478)" gradientUnits="userSpaceOnUse">
    <stop offset="0" stop-color="#0078d3" />
    <stop offset="1" stop-color="#0858a1" />
  </linearGradient>
  <path fill="url(#SVGID_1_)" d="M43,29.5H5V16.6c0-0.7,0.4-1.3,0.9-1.7L22.4,4.5c1-0.6,2.2-0.6,3.2,0l16.5,10.4c0.6,0.4,0.9,1,0.9,1.7V29.5z" />
  <linearGradient id="SVGID_2_" x1="24" x2="24" y1="-464.584" y2="-450.767" gradientTransform="translate(0 478)" gradientUnits="userSpaceOnUse">
    <stop offset="0" stop-color="#fff" />
    <stop offset=".24" stop-color="#f8f8f7" />
    <stop offset="1" stop-color="#e3e3e1" />
  </linearGradient>
  <path fill="url(#SVGID_2_)" d="M38,32H10V14c0-0.6,0.4-1,1-1h26c0.6,0,1,0.4,1,1V32z" />
  <linearGradient id="SVGID_3_" x1="25.886" x2="37.997" y1="-450.064" y2="-432.731" gradientTransform="translate(0 478)" gradientUnits="userSpaceOnUse">
    <stop offset="0" stop-color="#3ccbf4" />
    <stop offset="1" stop-color="#1fa0e5" />
  </linearGradient>
  <path fill="url(#SVGID_3_)" d="M43,17v21.3c0,1-0.8,1.7-1.8,1.7H9.6l4.8-6.3L43,17z" />
  <linearGradient id="SVGID_4_" x1="3.074" x2="39.962" y1="-450.764" y2="-432.875" gradientTransform="translate(0 478)" gradientUnits="userSpaceOnUse">
    <stop offset="0" stop-color="#28afea" />
    <stop offset="1" stop-color="#0b88da" />
  </linearGradient>
  <path fill="url(#SVGID_4_)" d="M5,17v21.3c0,1,0.8,1.7,1.8,1.7h34.5c0.6,0,1.1-0.3,1.4-0.7L5,17z" />
  <radialGradient id="SVGID_5_" cx="36.373" cy="37.908" r="11.628" gradientUnits="userSpaceOnUse">
    <stop offset="0" />
    <stop offset="1" stop-opacity="0" />
  </radialGradient>
  <path fill="url(#SVGID_5_)" d="M37,26c-6.6,0-12,5.4-12,12c0,0.7,0.1,1.3,0.2,2h16c1,0,1.8-0.8,1.8-1.7V27.6C41.2,26.6,39.2,26,37,26z" />
  <linearGradient id="SVGID_6_" x1="30.189" x2="44.426" y1="1537.189" y2="1551.426" gradientTransform="translate(0 -1506)" gradientUnits="userSpaceOnUse">
    <stop offset="0" stop-color="#889097" />
    <stop offset=".331" stop-color="#848c94" />
    <stop offset=".669" stop-color="#78828b" />
    <stop offset="1" stop-color="#64717c" />
  </linearGradient>
  <path fill="url(#SVGID_6_)" d="M46.7,35.7c-1.2,0.2-2.4-0.4-3.1-1.5c-0.6-1.1-0.5-2.4,0.2-3.4c-1.1-1.1-2.5-1.9-4-2.3	c-0.5,1.1-1.6,1.9-2.8,1.9s-2.4-0.8-2.8-1.9c-1.5,0.5-2.9,1.3-4,2.3c0.7,1,0.9,2.3,0.2,3.4c-0.6,1.1-1.9,1.7-3.1,1.5	C27.1,36.4,27,37.2,27,38s0.1,1.6,0.3,2.3c1.2-0.2,2.4,0.4,3.1,1.5c0.6,1.1,0.5,2.4-0.2,3.4c1.1,1.1,2.5,1.9,4,2.3	c0.5-1.1,1.6-1.9,2.8-1.9s2.4,0.8,2.8,1.9c1.5-0.5,2.9-1.3,4-2.3c-0.7-1-0.9-2.3-0.2-3.4c0.6-1.1,1.9-1.7,3.1-1.5	c0.2-0.7,0.3-1.5,0.3-2.3S46.9,36.4,46.7,35.7z">
    <animateTransform attributeType="xml" attributeName="transform" type="rotate" from="-360 37 38" to="0 37 38" dur="7s" additive="sum" repeatCount="indefinite" />
  </path>
  <linearGradient id="SVGID_7_" x1="40.484" x2="33.47" y1="1547.484" y2="1540.47" gradientTransform="translate(0 -1506)" gradientUnits="userSpaceOnUse">
    <stop offset="0" stop-color="#fff" />
    <stop offset=".242" stop-color="#f2f2f2" />
    <stop offset="1" stop-color="#ccc" />
  </linearGradient>
  <circle cx="37" cy="38" r="5" fill="url(#SVGID_7_)" />
  <linearGradient id="SVGID_8_" x1="34.193" x2="39.117" y1="1541.193" y2="1546.117" gradientTransform="translate(0 -1506)" gradientUnits="userSpaceOnUse">
    <stop offset="0" stop-color="#0d61a9" />
    <stop offset=".363" stop-color="#0e5fa4" />
    <stop offset=".78" stop-color="#135796" />
    <stop offset="1" stop-color="#16528c" />
  </linearGradient>
  <circle cx="37" cy="38" r="3" fill="url(#SVGID_8_)" />
</svg>
