<svg xmlns="http://www.w3.org/2000/svg"  viewBox="0 0 48 48" width="96px" height="96px" fill-rule="evenodd" clip-rule="evenodd" baseProfile="basic"><linearGradient id="VEJ7WxFB5tL4RFmK4IHb2a" x1="-154.225" x2="-150.427" y1="16377.388" y2="16390.451" gradientTransform="translate(185.347 -16351.835)" gradientUnits="userSpaceOnUse"><stop offset="0" stop-color="#0d61a9"/><stop offset="1" stop-color="#16568c"/></linearGradient><path fill="url(#VEJ7WxFB5tL4RFmK4IHb2a)" d="M34.001,26c-7.732,0-14,4.556-14,9.249v1 c0,0.967,0.784,1.749,1.751,1.749H46.25c0.965,0,1.749-0.783,1.749-1.749v-1c0-4.009-4.225-8.041-10.375-9.097 C36.573,25.972,35.13,26,34.001,26z"/><path fill="#d6a221" d="M38.001,27.8c0,1.517-1.6,3.2-4,3.2s-4-1.683-4-3.2 c0-2.111,0-5.628,0-5.628h8C38.001,22.172,38.001,25.689,38.001,27.8z"/><linearGradient id="VEJ7WxFB5tL4RFmK4IHb2b" x1="-151.716" x2="-150.144" y1="16375.498" y2="16375.498" gradientTransform="translate(192.85 -16357.498)" gradientUnits="userSpaceOnUse"><stop offset="0" stop-color="#c48f0c"/><stop offset=".251" stop-color="#d19b16"/><stop offset=".619" stop-color="#dca51f"/><stop offset="1" stop-color="#e0a922"/></linearGradient><path fill="url(#VEJ7WxFB5tL4RFmK4IHb2b)" d="M41.643,16h-1.132v4h1.281 c0.441,0,0.819-0.312,0.892-0.74l0.296-1.703C43.121,16.743,42.483,16,41.643,16z"/><linearGradient id="VEJ7WxFB5tL4RFmK4IHb2c" x1="-155.283" x2="-156.855" y1="16375.498" y2="16375.498" gradientTransform="translate(182.15 -16357.498)" gradientUnits="userSpaceOnUse"><stop offset="0" stop-color="#c48f0c"/><stop offset=".251" stop-color="#d19b16"/><stop offset=".619" stop-color="#dca51f"/><stop offset="1" stop-color="#e0a922"/></linearGradient><path fill="url(#VEJ7WxFB5tL4RFmK4IHb2c)" d="M26.358,16h1.132v4h-1.283 c-0.44,0-0.817-0.312-0.892-0.74l-0.295-1.703C24.879,16.743,25.518,16,26.358,16z"/><radialGradient id="VEJ7WxFB5tL4RFmK4IHb2d" cx="-81.001" cy="16395.75" r="6.286" gradientTransform="translate(142.001 -21843.46) scale(1.3333)" gradientUnits="userSpaceOnUse"><stop offset="0" stop-color="#ffcd54"/><stop offset=".261" stop-color="#fdca4d"/><stop offset=".639" stop-color="#f7c03a"/><stop offset="1" stop-color="#f0b421"/></radialGradient><path fill="url(#VEJ7WxFB5tL4RFmK4IHb2d)" d="M34.001,7.868c-3.455,0-7,0.524-7,7.991 c0,0.599,0,4.572,0,5.209c0,2.665,4.2,5.932,7,5.932s7-3.267,7-5.932c0-0.637,0-4.612,0-5.209 C41.001,8.392,37.454,7.868,34.001,7.868z"/><radialGradient id="VEJ7WxFB5tL4RFmK4IHb2e" cx="-80.999" cy="16395.748" r="16.578" gradientTransform="translate(134.73 -21853.889) scale(1.3333)" gradientUnits="userSpaceOnUse"><stop offset="0" stop-color="#c25915"/><stop offset=".01" stop-color="#c25915"/><stop offset=".508" stop-color="#b85515"/><stop offset="1" stop-color="#ad3f16"/></radialGradient><path fill="url(#VEJ7WxFB5tL4RFmK4IHb2e)" d="M34.001,6c-3.343,0-4,1-4,1c-2,0-4.5,2.029-4.5,6 c0,1.447,0.5,3,1.5,6c0.477-5.727,1.467-9,3-9c1.108,0,1.613,1,4,1c2.015,0,2-1,4-1c2.624,0,3,8.097,3,9c1-3,1.5-4.736,1.5-6 C42.501,8.996,39.433,6,34.001,6z"/><radialGradient id="VEJ7WxFB5tL4RFmK4IHb2f" cx="-80.999" cy="16041.474" r="17.697" gradientTransform="matrix(1.3333 0 0 1.3943 140.964 -22358.252)" gradientUnits="userSpaceOnUse"><stop offset="0" stop-color="#c25915"/><stop offset=".01" stop-color="#c25915"/><stop offset=".508" stop-color="#b85515"/><stop offset="1" stop-color="#ad3f16"/></radialGradient><path fill="url(#VEJ7WxFB5tL4RFmK4IHb2f)" d="M34.066,5c-3.643,0-4.065,2-4.065,2 c-0.037,1.015,0,2,0,2s0.625,1.251,4.421,1.251c2.292,0,5.579-1.431,5.579-5.251C40.001,5,39.262,5,34.066,5z"/><g><radialGradient id="VEJ7WxFB5tL4RFmK4IHb2g" cx="-80.999" cy="16395.748" r="8.802" gradientTransform="translate(121.788 -21842.443) scale(1.3333)" gradientUnits="userSpaceOnUse"><stop offset="0" stop-color="#261003"/><stop offset=".376" stop-color="#261003"/><stop offset=".68" stop-color="#431d06"/><stop offset="1" stop-color="#662c09"/></radialGradient><path fill="url(#VEJ7WxFB5tL4RFmK4IHb2g)" d="M14.001,7.831c-8.815,0-11,14.231-11,14.231 c0,2.535,1.177,4.755,3.64,5.343c2.111,0.504,4.767,0.971,7.36,0.971c2.592,0,5.247-0.467,7.359-0.971 c2.463-0.588,3.64-2.809,3.64-5.343C24.999,22.061,22.814,7.831,14.001,7.831z"/><linearGradient id="VEJ7WxFB5tL4RFmK4IHb2h" x1="-159.221" x2="-155.423" y1="16377.387" y2="16390.449" gradientTransform="translate(170.334 -16351.831)" gradientUnits="userSpaceOnUse"><stop offset="0" stop-color="#33bef0"/><stop offset="1" stop-color="#0a85d9"/></linearGradient><path fill="url(#VEJ7WxFB5tL4RFmK4IHb2h)" d="M14.001,26c-7.732,0-14,4.556-14,9.249v1 c0,0.965,0.784,1.749,1.749,1.749h24.5c0.965,0,1.749-0.784,1.749-1.749v-1C27.999,30.556,21.731,26,14.001,26z"/><path fill="#d6a321" d="M17.999,28.8c0,1.517-1.6,3.2-3.999,3.2 c-2.4,0-4-1.683-4-3.2c0-2.111,0-4.628,0-4.628h7.999C17.999,24.172,17.999,26.689,17.999,28.8z"/><radialGradient id="VEJ7WxFB5tL4RFmK4IHb2i" cx="-15653" cy="629.616" r="6.428" gradientTransform="matrix(-1.3333 0 0 -1.4105 -20856.666 905.597)" gradientUnits="userSpaceOnUse"><stop offset="0" stop-color="#ffcf54"/><stop offset=".261" stop-color="#fdcc4d"/><stop offset=".639" stop-color="#f7c23a"/><stop offset="1" stop-color="#f0b621"/></radialGradient><path fill="url(#VEJ7WxFB5tL4RFmK4IHb2i)" d="M14.001,7.063c3.453,0,6.999,0.605,6.999,8.507 c0,0.632,0,5.019,0,5.695c0,2.821-4.287,6.736-6.999,6.736c-2.713,0-7-3.915-7-6.736c0-0.675,0-5.061,0-5.695 C7.001,7.876,10.546,7.063,14.001,7.063z"/><radialGradient id="VEJ7WxFB5tL4RFmK4IHb2j" cx="-80.999" cy="16395.748" r="21.115" gradientTransform="translate(115.979 -21856.47) scale(1.3333)" gradientUnits="userSpaceOnUse"><stop offset="0" stop-color="#c25615"/><stop offset=".508" stop-color="#b85215"/><stop offset="1" stop-color="#ad3f16"/></radialGradient><path fill="url(#VEJ7WxFB5tL4RFmK4IHb2j)" d="M14.001,4c-4.54,0-5,3-5,3 c-1.847,0.272-6,0.208-6,15c0,3.533,1.613,4.625,2.731,5.088C2.662,15.544,11.379,16.907,10.001,9 c3.54,10.336,15.557,3.339,12.268,18.088c1.716-0.727,2.731-2.903,2.731-5.088C24.999,9.92,20.474,4,14.001,4z"/></g><g><linearGradient id="VEJ7WxFB5tL4RFmK4IHb2k" x1="3867.985" x2="3902.471" y1="6473.921" y2="6473.921" gradientTransform="rotate(55.73 9315.634 -2808.423) skewX(21.452)" gradientUnits="userSpaceOnUse"><stop offset="0" stop-color="#f44f5a"/><stop offset=".443" stop-color="#ee3d49"/><stop offset="1" stop-color="#e5202d"/></linearGradient><path fill="url(#VEJ7WxFB5tL4RFmK4IHb2k)" d="M24.001,29.999c-7.732,0-13.999,4.556-13.999,9.249 v1c0,0.967,0.784,1.751,1.749,1.751H36.25c0.967,0,1.751-0.784,1.751-1.751v-1C38.001,34.555,31.733,29.999,24.001,29.999z"/><path fill="#7a4107" d="M28.001,32.799c0,1.517-1.6,3.2-4,3.2s-4-1.683-4-3.2 c0-2.111,0-4.628,0-4.628h8C28.001,28.171,28.001,30.688,28.001,32.799z"/><linearGradient id="VEJ7WxFB5tL4RFmK4IHb2l" x1="-158.247" x2="-158.247" y1="16373.248" y2="16394.248" gradientTransform="translate(182.251 -16364.249)" gradientUnits="userSpaceOnUse"><stop offset="0" stop-color="#454545"/><stop offset="1" stop-color="#212121"/></linearGradient><path fill="url(#VEJ7WxFB5tL4RFmK4IHb2l)" fill-rule="evenodd" d="M14.002,26.999 c0-0.209,0.016-0.415,0.047-0.615c-0.653-0.781-1.047-1.788-1.047-2.885c0-0.848,0.235-1.643,0.645-2.321 c-0.409-0.627-0.645-1.375-0.645-2.179c0-1.533,0.865-2.867,2.133-3.537c-0.087-0.305-0.133-0.628-0.133-0.963 c0-1.772,1.32-3.239,3.031-3.468c0.229-1.711,1.697-3.032,3.471-3.032c0.816,0,1.568,0.281,2.165,0.751 c0.656-0.472,1.461-0.751,2.332-0.751c1.869,0,3.443,1.287,3.881,3.021c1.753,0.189,3.123,1.676,3.123,3.479 c0,0.335-0.048,0.657-0.135,0.963c1.269,0.671,2.136,2.004,2.136,3.537c0,0.947-0.331,1.817-0.881,2.503 c0.548,0.685,0.877,1.553,0.877,2.497c0,1.02-0.383,1.952-1.012,2.659c0.009,0.112,0.015,0.227,0.015,0.341 c0,2.208-1.793,4-4.001,4s-4.001-1.792-4.001-4c0-1.019,0.381-1.951,1.011-2.657c-0.009-0.112-0.013-0.227-0.013-0.343 c0-0.945,0.329-1.816,0.879-2.501c-0.548-0.684-0.876-1.553-0.876-2.499c0-0.612,0.137-1.192,0.384-1.712 c-0.449-0.34-0.812-0.787-1.055-1.301c-0.109,0.009-0.22,0.013-0.331,0.013c-1.188,0-2.256-0.517-2.989-1.34 c-0.321,0.155-0.672,0.261-1.039,0.309c-0.127,0.944-0.631,1.769-1.353,2.319c0.247,0.52,0.385,1.1,0.385,1.712 c0,0.489-0.088,0.957-0.249,1.389c0.775,0.809,1.251,1.905,1.251,3.111c0,0.643-0.136,1.253-0.379,1.807 c0.241,0.515,0.377,1.088,0.377,1.693c0,2.208-1.793,4-4.001,4S14.002,29.207,14.002,26.999z" clip-rule="evenodd"/><radialGradient id="VEJ7WxFB5tL4RFmK4IHb2m" cx="-80.999" cy="15336.952" r="6.089" gradientTransform="matrix(1.3333 0 0 1.5337 132 -23500.54)" gradientUnits="userSpaceOnUse"><stop offset="0" stop-color="#9b6127"/><stop offset=".261" stop-color="#995e23"/><stop offset=".639" stop-color="#935517"/><stop offset="1" stop-color="#8c4b08"/></radialGradient><path fill="url(#VEJ7WxFB5tL4RFmK4IHb2m)" d="M24.001,11.061c3.453,0,7,0.605,7,8.507 c0,0.632,0,5.019,0,5.695c0,2.821-4.287,6.736-7,6.736s-7-3.915-7-6.736c0-0.675,0-5.061,0-5.695 C17.001,11.875,20.547,11.061,24.001,11.061z"/><linearGradient id="VEJ7WxFB5tL4RFmK4IHb2n" x1="-157.748" x2="-157.748" y1="16373.248" y2="16394.248" gradientTransform="translate(182.251 -16364.249)" gradientUnits="userSpaceOnUse"><stop offset="0" stop-color="#454545"/><stop offset="1" stop-color="#212121"/></linearGradient><path fill="url(#VEJ7WxFB5tL4RFmK4IHb2n)" fill-rule="evenodd" d="M29.002,22.999 c0-0.535,0.14-1.036,0.385-1.471c-0.833-0.533-1.385-1.467-1.385-2.529c0-0.041,0-0.084,0.001-0.127 c-0.32,0.083-0.656,0.127-1.003,0.127c-1.193,0-2.265-0.523-2.999-1.352c-0.735,0.829-1.807,1.352-2.999,1.352 c-0.347,0-0.681-0.043-1.001-0.125c0.001,0.041,0.003,0.084,0.003,0.125c0,1.656-1.345,3-3.001,3s-3.001-1.344-3.001-3 c0-1.656,1.345-3,3.001-3c0.041,0,0.083,0.001,0.125,0.003c-0.083-0.32-0.127-0.656-0.127-1.003c0-2.208,1.793-4,4.001-4 c1.192,0,4.804,0,5.997,0c2.208,0,4.001,1.792,4.001,4c0,0.347-0.045,0.683-0.128,1.003c0.043-0.001,0.085-0.003,0.129-0.003 c1.656,0,3.001,1.344,3.001,3c0,0.536-0.141,1.037-0.387,1.472c0.833,0.533,1.387,1.467,1.387,2.528c0,1.656-1.345,3-3.001,3 C30.347,25.999,29.002,24.655,29.002,22.999z" clip-rule="evenodd"/></g></svg>