<svg xmlns="http://www.w3.org/2000/svg"  viewBox="0 0 48 48" width="96px" height="96px"><linearGradient id="fQPhlwRPMUTWTWV5KNe4Ga" x1="5" x2="24" y1="28.581" y2="28.581" gradientUnits="userSpaceOnUse"><stop offset="0" stop-color="#1d59b3"/><stop offset="1" stop-color="#195bbc"/></linearGradient><path fill="url(#fQPhlwRPMUTWTWV5KNe4Ga)" d="M5.307,12.161C5.111,12.563,5,13.008,5,13.472v20.237c0,1.114,0.617,2.136,1.603,2.655	l15.534,8.176C22.72,44.847,23.36,45,24,45V22L5.307,12.161z"/><linearGradient id="fQPhlwRPMUTWTWV5KNe4Gb" x1="24" x2="43" y1="28.581" y2="28.581" gradientUnits="userSpaceOnUse"><stop offset="0" stop-color="#11408a"/><stop offset="1" stop-color="#103f8f"/></linearGradient><path fill="url(#fQPhlwRPMUTWTWV5KNe4Gb)" d="M24,22v23c0.64,0,1.28-0.153,1.863-0.46l15.534-8.176C42.383,35.845,43,34.823,43,33.709	V13.472c0-0.464-0.111-0.909-0.307-1.311L24,22z"/><linearGradient id="fQPhlwRPMUTWTWV5KNe4Gc" x1="5.307" x2="42.693" y1="12.5" y2="12.5" gradientUnits="userSpaceOnUse"><stop offset="0" stop-color="#3079d6"/><stop offset="1" stop-color="#297cd2"/></linearGradient><path fill="url(#fQPhlwRPMUTWTWV5KNe4Gc)" d="M24,22l18.693-9.839c-0.293-0.602-0.781-1.103-1.409-1.4L25.712,3.385	c-1.084-0.513-2.341-0.513-3.425,0L6.716,10.761c-0.628,0.298-1.116,0.799-1.409,1.4L24,22z"/><path fill="#25a2e5" d="M13.178,16.306C13.064,16.538,13,16.796,13,17.065v11.716c0,0.645,0.357,1.237,0.928,1.537	l8.994,4.733c0.338,0.178,0.708,0.267,1.079,0.267V22.002L13.178,16.306z"/><path fill="#027ad4" d="M24,22.002v13.316c0.37,0,0.741-0.089,1.079-0.267l8.994-4.733c0.571-0.3,0.928-0.892,0.928-1.537	V17.065c0-0.269-0.064-0.526-0.178-0.759L24,22.002z"/><path fill="#54daff" d="M24,22.002l10.822-5.696c-0.17-0.348-0.452-0.638-0.816-0.811l-9.015-4.27	c-0.628-0.297-1.355-0.297-1.983,0l-9.015,4.27c-0.364,0.172-0.646,0.462-0.816,0.811L24,22.002z"/></svg>