<svg xmlns="http://www.w3.org/2000/svg"  viewBox="0 0 48 48" width="96px" height="96px"><path fill="#50e6ff" d="M33.755,6H8C6.895,6,6,6.895,6,8v32c0,1.105,0.895,2,2,2h28V8.245C36,7.005,34.995,6,33.755,6z"/><linearGradient id="_UG2OqS6EDhFYZ28lunJga" x1="25" x2="42" y1="24" y2="24" gradientUnits="userSpaceOnUse"><stop offset="0" stop-color="#1951a8"/><stop offset=".175" stop-color="#1955b0"/><stop offset=".505" stop-color="#195ab9"/><stop offset="1" stop-color="#195bbc"/></linearGradient><path fill="url(#_UG2OqS6EDhFYZ28lunJga)" d="M25,6h15c1.105,0,2,0.895,2,2v32c0,1.105-0.895,2-2,2H25V6z"/><path fill="#057093" d="M10.667,11H9.333C9.149,11,9,10.851,9,10.667V9.333C9,9.149,9.149,9,9.333,9h1.333	C10.851,9,11,9.149,11,9.333v1.333C11,10.851,10.851,11,10.667,11z"/><path fill="#057093" d="M21.567,11h-8.134C13.194,11,13,10.806,13,10.567V9.433C13,9.194,13.194,9,13.433,9h8.134	C21.806,9,22,9.194,22,9.433v1.134C22,10.806,21.806,11,21.567,11z"/><path fill="#057093" d="M10.667,15H9.333C9.149,15,9,14.851,9,14.667v-1.333C9,13.149,9.149,13,9.333,13h1.333	C10.851,13,11,13.149,11,13.333v1.333C11,14.851,10.851,15,10.667,15z"/><path fill="#057093" d="M21.567,15h-8.134C13.194,15,13,14.806,13,14.567v-1.134C13,13.194,13.194,13,13.433,13h8.134	C21.806,13,22,13.194,22,13.433v1.134C22,14.806,21.806,15,21.567,15z"/><path fill="#057093" d="M10.667,19H9.333C9.149,19,9,18.851,9,18.667v-1.333C9,17.149,9.149,17,9.333,17h1.333	C10.851,17,11,17.149,11,17.333v1.333C11,18.851,10.851,19,10.667,19z"/><path fill="#057093" d="M21.567,19h-8.134C13.194,19,13,18.806,13,18.567v-1.134C13,17.194,13.194,17,13.433,17h8.134	C21.806,17,22,17.194,22,17.433v1.134C22,18.806,21.806,19,21.567,19z"/><path fill="#057093" d="M10.667,23H9.333C9.149,23,9,22.851,9,22.667v-1.333C9,21.149,9.149,21,9.333,21h1.333	C10.851,21,11,21.149,11,21.333v1.333C11,22.851,10.851,23,10.667,23z"/><path fill="#057093" d="M21.567,23h-8.134C13.194,23,13,22.806,13,22.567v-1.134C13,21.194,13.194,21,13.433,21h8.134	C21.806,21,22,21.194,22,21.433v1.134C22,22.806,21.806,23,21.567,23z"/><path fill="#057093" d="M10.667,27H9.333C9.149,27,9,26.851,9,26.667v-1.333C9,25.149,9.149,25,9.333,25h1.333	C10.851,25,11,25.149,11,25.333v1.333C11,26.851,10.851,27,10.667,27z"/><path fill="#057093" d="M21.567,27h-8.134C13.194,27,13,26.806,13,26.567v-1.134C13,25.194,13.194,25,13.433,25h8.134	C21.806,25,22,25.194,22,25.433v1.134C22,26.806,21.806,27,21.567,27z"/><path fill="#057093" d="M10.667,31H9.333C9.149,31,9,30.851,9,30.667v-1.333C9,29.149,9.149,29,9.333,29h1.333	C10.851,29,11,29.149,11,29.333v1.333C11,30.851,10.851,31,10.667,31z"/><path fill="#057093" d="M21.567,31h-8.134C13.194,31,13,30.806,13,30.567v-1.134C13,29.194,13.194,29,13.433,29h8.134	C21.806,29,22,29.194,22,29.433v1.134C22,30.806,21.806,31,21.567,31z"/><path fill="#057093" d="M10.667,35H9.333C9.149,35,9,34.851,9,34.667v-1.333C9,33.149,9.149,33,9.333,33h1.333	C10.851,33,11,33.149,11,33.333v1.333C11,34.851,10.851,35,10.667,35z"/><path fill="#057093" d="M21.567,35h-8.134C13.194,35,13,34.806,13,34.567v-1.134C13,33.194,13.194,33,13.433,33h8.134	C21.806,33,22,33.194,22,33.433v1.134C22,34.806,21.806,35,21.567,35z"/><path fill="#057093" d="M10.667,39H9.333C9.149,39,9,38.851,9,38.667v-1.333C9,37.149,9.149,37,9.333,37h1.333	C10.851,37,11,37.149,11,37.333v1.333C11,38.851,10.851,39,10.667,39z"/><path fill="#057093" d="M21.567,39h-8.134C13.194,39,13,38.806,13,38.567v-1.134C13,37.194,13.194,37,13.433,37h8.134	C21.806,37,22,37.194,22,37.433v1.134C22,38.806,21.806,39,21.567,39z"/></svg>