<svg xmlns="http://www.w3.org/2000/svg"  viewBox="0 0 48 48" width="96px" height="96px"><linearGradient id="SVGID_1_" x1=".308" x2="42.265" y1="8.778" y2="35.735" gradientUnits="userSpaceOnUse"><stop offset="0" stop-color="#6e6e6e"/><stop offset=".999" stop-color="#4d4d4d"/></linearGradient><path fill="url(#SVGID_1_)" d="M45.8,36H2.2C1,36,0,35,0,33.8V14.2C0,13,1,12,2.2,12h43.6c1.2,0,2.2,1,2.2,2.2v19.6C48,35,47,36,45.8,36z"/><path d="M34,31.9c-0.4,0-0.9-0.2-1.2-0.5l-4.9-5.9c-0.4-0.5-0.5-1.1-0.2-1.6c0.3-0.5,0.8-0.9,1.4-0.9H31v-5.5	c0-0.8,0.7-1.5,1.5-1.5h3c0.8,0,1.5,0.7,1.5,1.5V23h1.9c0.6,0,1.1,0.3,1.4,0.9s0.2,1.1-0.2,1.6l-4.9,5.9	C34.9,31.7,34.4,31.9,34,31.9z" opacity=".05"/><path d="M34,31.4c-0.3,0-0.6-0.1-0.8-0.4l-4.9-5.9c-0.3-0.3-0.3-0.7-0.1-1.1s0.5-0.6,0.9-0.6h2.4v-6c0-0.6,0.4-1,1-1h3	c0.6,0,1,0.4,1,1v6h2.4c0.4,0,0.7,0.2,0.9,0.6s0.1,0.8-0.1,1.1l-4.9,5.9C34.6,31.3,34.3,31.4,34,31.4z" opacity=".07"/><path fill="#fff" d="M32,17.5V24h-2.9c-0.4,0-0.7,0.5-0.4,0.8l4.9,5.9c0.2,0.2,0.6,0.2,0.8,0l4.9-5.9c0.3-0.3,0-0.8-0.4-0.8H36	v-6.5c0-0.3-0.2-0.5-0.5-0.5h-3C32.2,17,32,17.2,32,17.5z"/><path d="M20.5,32c-0.8,0-1.5-0.7-1.5-1.5v-4.6l-1.8,2.3c-0.3,0.4-0.7,0.6-1.2,0.6s-0.9-0.2-1.2-0.6L13,25.9v4.6	c0,0.8-0.7,1.5-1.5,1.5h-3C7.7,32,7,31.3,7,30.5v-13C7,16.7,7.7,16,8.5,16h3.3c0.5,0,0.9,0.2,1.2,0.6l3.1,3.9l3.1-3.9	c0.3-0.4,0.7-0.6,1.2-0.6h3.3c0.8,0,1.5,0.7,1.5,1.5v13c0,0.8-0.7,1.5-1.5,1.5H20.5z" opacity=".05"/><path d="M20.5,31.5c-0.6,0-1-0.4-1-1v-6.1l-2.7,3.5c-0.2,0.2-0.5,0.4-0.8,0.4s-0.6-0.1-0.8-0.4l-2.7-3.5v6.1	c0,0.6-0.4,1-1,1h-3c-0.6,0-1-0.4-1-1v-13c0-0.6,0.4-1,1-1h3.3c0.3,0,0.6,0.1,0.8,0.4l3.5,4.4l3.5-4.4c0.2-0.2,0.5-0.4,0.8-0.4h3.3	c0.6,0,1,0.4,1,1v13c0,0.6-0.4,1-1,1H20.5z" opacity=".07"/><path fill="#fff" d="M24,30.5v-13c0-0.3-0.2-0.5-0.5-0.5h-3.3c-0.2,0-0.3,0.1-0.4,0.2l-3.8,5l-3.8-5c-0.1-0.1-0.2-0.2-0.4-0.2H8.5	C8.2,17,8,17.2,8,17.5v13C8,30.8,8.2,31,8.5,31h3c0.3,0,0.5-0.2,0.5-0.5V23l3.6,4.6c0.2,0.3,0.6,0.3,0.8,0L20,23v7.5	c0,0.3,0.2,0.5,0.5,0.5h3C23.8,31,24,30.8,24,30.5z"/></svg>