<svg xmlns="http://www.w3.org/2000/svg"  viewBox="0 0 48 48" width="96px" height="96px"><linearGradient id="ejEliz0oBcrSlcUFYPkYAa" x1="5.715" x2="40.857" y1="40.37" y2="5.229" gradientTransform="matrix(1 0 0 -1 0 48)" gradientUnits="userSpaceOnUse"><stop offset="0" stop-color="#32bdef"/><stop offset="1" stop-color="#1ea2e4"/></linearGradient><path fill="url(#ejEliz0oBcrSlcUFYPkYAa)" d="M36.2,6H8C6.9,6,6,6.9,6,8v32c0,1.1,0.9,2,2,2h32c1.1,0,2-0.9,2-2V11.8c0-0.5-0.2-1-0.6-1.4l-3.8-3.8	C37.2,6.2,36.7,6,36.2,6z"/><linearGradient id="ejEliz0oBcrSlcUFYPkYAb" x1="38.003" x2="40.027" y1="9.997" y2="7.973" gradientTransform="matrix(1 0 0 -1 0 48)" gradientUnits="userSpaceOnUse"><stop offset="0" stop-color="#0d61a9"/><stop offset="1" stop-color="#16528c"/></linearGradient><rect width="2" height="2" x="38" y="38" fill="url(#ejEliz0oBcrSlcUFYPkYAb)"/><linearGradient id="ejEliz0oBcrSlcUFYPkYAc" x1="8.003" x2="10.027" y1="9.997" y2="7.973" gradientTransform="matrix(1 0 0 -1 0 48)" gradientUnits="userSpaceOnUse"><stop offset="0" stop-color="#0d61a9"/><stop offset="1" stop-color="#16528c"/></linearGradient><rect width="2" height="2" x="8" y="38" fill="url(#ejEliz0oBcrSlcUFYPkYAc)"/><linearGradient id="ejEliz0oBcrSlcUFYPkYAd" x1="13.83" x2="34.965" y1="23.83" y2="44.965" gradientUnits="userSpaceOnUse"><stop offset="0" stop-color="#fff"/><stop offset=".242" stop-color="#f2f2f2"/><stop offset="1" stop-color="#ccc"/></linearGradient><path fill="url(#ejEliz0oBcrSlcUFYPkYAd)" d="M34,42H14c-1.1,0-2-0.9-2-2V28c0-1.1,0.9-2,2-2h20c1.1,0,2,0.9,2,2v12C36,41.1,35.1,42,34,42z"/><path d="M42,15.6L26.1,31.5l-1.2,4.9c-0.1,0.4,0.3,0.8,0.7,0.7l4.9-1.2L42,24.4V15.6z" opacity=".05"/><path d="M42,16.3L26.9,31.4l-0.5,1l0,0h0l-0.9,3.4c-0.1,0.4,0.3,0.7,0.6,0.6l3.4-0.9l0,0l0,0l1-0.5L42,23.7V16.3z" opacity=".07"/><path fill="#c94f60" d="M45.8,18.1l-1.9-1.9c-0.3-0.3-0.8-0.3-1.1,0l-0.9,0.9l3,3l0.9-0.9C46.1,18.9,46.1,18.4,45.8,18.1"/><path fill="#f0f0f0" d="M27,32l-1,4l4-1l0.4-3.5L27,32z"/><path fill="#edbe00" d="M42.3,22.6L30,35l-3-3l12.3-12.3L42.3,22.6z"/><linearGradient id="ejEliz0oBcrSlcUFYPkYAe" x1="42.112" x2="42.112" y1="30.688" y2="25.199" gradientTransform="matrix(1 0 0 -1 0 48)" gradientUnits="userSpaceOnUse"><stop offset="0" stop-color="#dedede"/><stop offset="1" stop-color="#d6d6d6"/></linearGradient><path fill="url(#ejEliz0oBcrSlcUFYPkYAe)" d="M39.3,19.7l2.5-2.5l3,3l-2.5,2.5L39.3,19.7z"/><path fill="#787878" d="M26.5,34L26,36l2-0.5L26.5,34z"/><path fill="#1fa4e6" d="M33,19H13c-1.1,0-2-0.9-2-2V6h24v11C35,18.1,34.1,19,33,19z"/><path d="M33,18.5H17c-1.4,0-2.5-1.1-2.5-2.5V6h21v10C35.5,17.4,34.4,18.5,33,18.5z" opacity=".07"/><radialGradient id="ejEliz0oBcrSlcUFYPkYAf" cx="17.573" cy="45.392" r="23.87" gradientTransform="matrix(1 0 0 -1 0 48)" gradientUnits="userSpaceOnUse"><stop offset="0" stop-color="#fafafb"/><stop offset=".523" stop-color="#e2e4e7"/><stop offset="1" stop-color="#c8cdd1"/></radialGradient><path fill="url(#ejEliz0oBcrSlcUFYPkYAf)" d="M15,6v10c0,1.1,0.9,2,2,2h16c1.1,0,2-0.9,2-2V6H15z"/><rect width="4" height="8" x="27" y="8" fill="#177cad"/></svg>