<svg xmlns="http://www.w3.org/2000/svg"  viewBox="0 0 48 48" width="96px" height="96px"><defs><linearGradient id="q4ZcgI2I2xY6Kw_QGjTtla" x1="47.342" x2="24.972" y1="16.75" y2="16.75" data-name="Безымянный градиент 55" gradientUnits="userSpaceOnUse"><stop offset=".087" stop-color="#dfe9f2"/><stop offset=".291" stop-color="#d6e0e9"/><stop offset=".662" stop-color="#bfc8d1"/><stop offset=".741" stop-color="#889097"/></linearGradient><linearGradient id="q4ZcgI2I2xY6Kw_QGjTtlb" x1="5.412" x2="18" y1="17" y2="17" data-name="Безымянный градиент 56" gradientUnits="userSpaceOnUse"><stop offset=".024" stop-color="#dfe9f2"/><stop offset=".327" stop-color="#d6e0e9"/><stop offset=".798" stop-color="#bfc8d1"/><stop offset=".941" stop-color="#889097"/></linearGradient><linearGradient id="q4ZcgI2I2xY6Kw_QGjTtlc" x1="4.414" x2="18" y1="30.543" y2="30.543" data-name="Безымянный градиент 57" gradientUnits="userSpaceOnUse"><stop offset=".038" stop-color="#dfe9f2"/><stop offset=".488" stop-color="#d6e0e9"/><stop offset=".809" stop-color="#bfc8d1"/><stop offset=".956" stop-color="#889097"/></linearGradient><linearGradient id="q4ZcgI2I2xY6Kw_QGjTtld" x1="17.087" x2="31.387" y1="5.006" y2="44.294" data-name="Безымянный градиент 123" gradientUnits="userSpaceOnUse"><stop offset="0" stop-color="#f44f5a"/><stop offset=".443" stop-color="#ee3d4a"/><stop offset="1" stop-color="#e52030"/></linearGradient></defs><path fill="url(#q4ZcgI2I2xY6Kw_QGjTtla)" d="M30,9,45,24a8.67909,8.67909,0,0,1-9-2L26,12l3-3Z"/><path fill="url(#q4ZcgI2I2xY6Kw_QGjTtlb)" d="M18,24,5.70711,11.70711A1,1,0,0,1,6.41421,10H10v2h2v2h2v2h2v2h2Z"/><path fill="url(#q4ZcgI2I2xY6Kw_QGjTtlc)" d="M14.11129,25.33513a1.62707,1.62707,0,0,1-.27677,1.82874,1.90889,1.90889,0,0,1-2.70188-.03127L9.882,25.882a1.07858,1.07858,0,0,1-.17486-1.58907L10.8043,23.1957a.50575.50575,0,0,0-.1902-.83335,4.96853,4.96853,0,0,0-5.14962,1.17317l-.75737.75737a1,1,0,0,0,0,1.41422L18,39V29l-3.7496-3.74959A.08377.08377,0,0,0,14.11129,25.33513Z"/><rect width="14" height="38" x="17" y="5" fill="url(#q4ZcgI2I2xY6Kw_QGjTtld)" rx="7"/><path d="M24.5,33a.5.5,0,0,1,.5.5V35h1.5a.5.5,0,0,1,.5.5v1a.5.5,0,0,1-.5.5H25v1.5a.5.5,0,0,1-.5.5h-1a.5.5,0,0,1-.5-.5V37H21.5a.5.5,0,0,1-.5-.5v-1a.5.5,0,0,1,.5-.5H23V33.5a.5.5,0,0,1,.5-.5h1m0-1h-1A1.5017,1.5017,0,0,0,22,33.5V34h-.5A1.5017,1.5017,0,0,0,20,35.5v1A1.5017,1.5017,0,0,0,21.5,38H22v.5A1.5017,1.5017,0,0,0,23.5,40h1A1.5017,1.5017,0,0,0,26,38.5V38h.5A1.5017,1.5017,0,0,0,28,36.5v-1A1.5017,1.5017,0,0,0,26.5,34H26v-.5A1.5017,1.5017,0,0,0,24.5,32Z" opacity=".05"/><path d="M24.5,33a.5.5,0,0,1,.5.5V35h1.5a.5.5,0,0,1,.5.5v1a.5.5,0,0,1-.5.5H25v1.5a.5.5,0,0,1-.5.5h-1a.5.5,0,0,1-.5-.5V37H21.5a.5.5,0,0,1-.5-.5v-1a.5.5,0,0,1,.5-.5H23V33.5a.5.5,0,0,1,.5-.5h1m0-.5h-1a1.00112,1.00112,0,0,0-1,1v1h-1a1.00112,1.00112,0,0,0-1,1v1a1.00112,1.00112,0,0,0,1,1h1v1a1.00112,1.00112,0,0,0,1,1h1a1.00112,1.00112,0,0,0,1-1v-1h1a1.00112,1.00112,0,0,0,1-1v-1a1.00112,1.00112,0,0,0-1-1h-1v-1a1.00112,1.00112,0,0,0-1-1Z" opacity=".07"/><path fill="#fff" d="M26.5,35H25V33.5a.5.5,0,0,0-.5-.5h-1a.5.5,0,0,0-.5.5V35H21.5a.5.5,0,0,0-.5.5v1a.5.5,0,0,0,.5.5H23v1.5a.5.5,0,0,0,.5.5h1a.5.5,0,0,0,.5-.5V37h1.5a.5.5,0,0,0,.5-.5v-1A.5.5,0,0,0,26.5,35Z"/></svg>