<?xml version="1.0" encoding="UTF-8"?>
<svg xmlns="http://www.w3.org/2000/svg" xmlns:xlink="http://www.w3.org/1999/xlink" viewBox="0 0 128 128" width="128px" height="128px">
<g id="surface38439588">
<path style=" stroke:none;fill-rule:nonzero;fill:rgb(100%,100%,100%);fill-opacity:1;" d="M 58.425781 50.175781 C 64.011719 50.175781 69.84375 45.566406 69.84375 45.566406 C 69.84375 45.566406 80.898438 59.136719 82.457031 65.03125 C 84.011719 70.925781 86.195312 77.609375 86.105469 82.265625 C 86.015625 86.925781 85.015625 90.183594 85.015625 90.183594 C 85.015625 90.183594 81.796875 83.488281 80.90625 92.207031 C 80.015625 100.921875 78.015625 111.558594 64.015625 111.558594 C 50.015625 111.558594 48.359375 103.3125 48.359375 103.3125 C 48.359375 103.3125 56.871094 99.457031 54.023438 96.609375 C 51.175781 93.761719 40.015625 90.921875 40.015625 78.921875 C 40.015625 66.921875 47.878906 60.066406 48.949219 56.492188 C 50.015625 52.921875 52.96875 48.542969 52.96875 48.542969 Z M 58.425781 50.175781 "/>
<path style=" stroke:none;fill-rule:nonzero;fill:rgb(71.372551%,86.274511%,99.607843%);fill-opacity:1;" d="M 100.226562 88.652344 C 100.226562 84.925781 100.828125 82.824219 100.828125 79.652344 C 100.828125 72.890625 96.722656 65.484375 91.964844 58.644531 C 87.203125 51.804688 83.339844 47.636719 81.253906 39.011719 C 79.171875 30.386719 80.523438 33.09375 78.738281 25.652344 C 77.054688 17.761719 75.140625 10.925781 61.554688 10.925781 C 49.09375 10.925781 46.828125 22.234375 46.828125 33.015625 C 46.828125 36.582031 46.828125 39.808594 46.828125 45.289062 C 46.828125 46.476562 46.53125 47.964844 45.933594 49.152344 C 44.746094 51.832031 32.101562 65.058594 32.101562 84.558594 C 32.101562 84.558594 36.007812 102.066406 47.5 102.066406 C 50.011719 102.066406 52.363281 101.246094 53.734375 99.289062 C 54.628906 97.800781 54.03125 96.3125 53.4375 95.421875 C 52.84375 94.53125 47.34375 91.957031 45.261719 90.171875 C 43.179688 88.386719 39.460938 83.859375 39.460938 79.652344 C 39.460938 68.097656 51.4375 54.957031 51.734375 50.199219 C 51.734375 49.671875 51.734375 48.78125 51.734375 47.742188 C 51.734375 47.742188 54.835938 50.175781 58.421875 50.175781 C 62.007812 50.175781 69.839844 45.566406 69.839844 45.566406 C 69.839844 45.566406 72.007812 50.925781 76.007812 54.925781 C 80.007812 58.925781 86.007812 72.925781 86.007812 80.925781 C 86.007812 88.925781 86.007812 94.925781 86.007812 94.925781 C 86.007812 94.925781 86.007812 96.925781 90.007812 96.925781 C 94.007812 96.925781 100.226562 88.652344 100.226562 88.652344 "/>
<path style=" stroke:none;fill-rule:nonzero;fill:rgb(100%,100%,100%);fill-opacity:1;" d="M 50.140625 42.289062 C 50.140625 36.925781 59.1875 35.21875 59.363281 35.21875 C 60.046875 35.21875 60.757812 35.328125 61.464844 35.496094 C 61.527344 34.699219 61.554688 33.867188 61.554688 33.015625 C 61.554688 24.117188 59.699219 20.742188 54.191406 20.742188 C 48.6875 20.742188 44.375 26.132812 44.375 33.015625 C 44.375 38.542969 47.179688 43.054688 51.125 44.636719 C 50.527344 43.957031 50.140625 43.203125 50.140625 42.289062 Z M 50.140625 42.289062 "/>
<path style=" stroke:none;fill-rule:nonzero;fill:rgb(100%,100%,100%);fill-opacity:1;" d="M 66.464844 20.742188 C 60.960938 20.742188 59.101562 23.964844 59.101562 33.015625 C 59.101562 33.78125 59.132812 34.515625 59.183594 35.238281 C 59.246094 35.234375 59.304688 35.21875 59.363281 35.21875 C 60.183594 35.21875 72.40625 39.691406 72.214844 41.105469 C 72.125 42.054688 72.027344 42.746094 71.851562 43.3125 C 74.535156 41.148438 76.285156 37.390625 76.285156 33.015625 C 76.285156 26.132812 71.96875 20.742188 66.464844 20.742188 Z M 66.464844 20.742188 "/>
<path style=" stroke:none;fill-rule:nonzero;fill:rgb(27.843139%,53.333336%,78.039217%);fill-opacity:1;" d="M 66.464844 37.925781 C 65.113281 37.925781 64.011719 36.277344 64.011719 34.242188 C 64.011719 32.210938 65.113281 30.5625 66.464844 30.5625 C 67.820312 30.5625 68.921875 32.210938 68.921875 34.242188 C 68.921875 36.277344 67.820312 37.925781 66.464844 37.925781 Z M 54.191406 37.925781 C 52.839844 37.925781 51.738281 36.277344 51.738281 34.242188 C 51.738281 32.210938 52.839844 30.5625 54.191406 30.5625 C 55.546875 30.5625 56.644531 32.210938 56.644531 34.242188 C 56.648438 36.277344 55.546875 37.925781 54.191406 37.925781 Z M 54.191406 37.925781 "/>
<path style=" stroke:none;fill-rule:nonzero;fill:rgb(100%,100%,100%);fill-opacity:1;" d="M 90.011719 96.925781 C 86.011719 96.925781 86.160156 88.214844 86.160156 88.214844 C 85.6875 87.925781 85.109375 87.707031 84.382812 87.707031 C 82.933594 87.707031 82.351562 88.289062 81.769531 89.449219 C 81.1875 90.609375 81.191406 91.476562 81.191406 94.378906 C 81.191406 96.699219 81.191406 99.3125 80.898438 101.34375 C 80.316406 106.273438 78.734375 108.480469 78.734375 111.382812 C 78.734375 114.574219 79.609375 116.605469 80.765625 117.476562 C 81.636719 118.347656 83.089844 118.925781 86.277344 118.925781 C 89.46875 118.925781 91.496094 117.765625 93.53125 115.734375 C 94.980469 114.285156 96.144531 113.707031 100.203125 110.804688 C 103.394531 108.773438 108.324219 106.160156 109.199219 105.292969 C 109.773438 104.710938 110.644531 104.421875 110.644531 102.683594 C 110.644531 101.230469 109.484375 100.652344 108.617188 100.363281 C 107.457031 99.78125 105.425781 98.910156 103.683594 96.300781 C 102.8125 94.851562 103.105469 90.789062 101.652344 89.046875 C 100.78125 87.886719 99.625 88.464844 99.335938 88.464844 C 98.683594 88.609375 97.863281 89.015625 96.929688 89.46875 C 94.011719 92.925781 94.484375 96.925781 90.011719 96.925781 Z M 46.878906 101.003906 C 44.035156 96.464844 43.746094 95.617188 41.757812 92.78125 C 40.050781 89.949219 36.351562 84.5625 34.074219 84.5625 C 32.367188 84.5625 31.515625 85.410156 30.375 86.546875 C 29.238281 87.679688 28.027344 89.445312 26.035156 90.863281 C 24.285156 93.148438 19.035156 90.949219 17.527344 94.382812 C 16.699219 96.257812 19.558594 98.734375 19.558594 102.984375 C 19.558594 104.6875 18.136719 105.820312 17.851562 106.953125 C 17.566406 108.371094 17.28125 109.222656 17.851562 110.355469 C 18.988281 112.054688 20.410156 112.625 30.089844 114.609375 C 35.210938 115.742188 40.046875 118.574219 43.179688 118.859375 C 46.308594 119.140625 51.714844 118.859375 51.714844 111.207031 C 52 106.671875 49.441406 105.535156 46.878906 101.003906 Z M 52.355469 46.664062 C 50.679688 45.484375 49.28125 44.308594 49.28125 42.539062 C 49.28125 40.773438 50.398438 40.183594 52.074219 38.710938 C 52.355469 38.414062 55.429688 35.46875 58.503906 35.46875 C 61.574219 35.46875 65.207031 37.53125 66.605469 38.121094 C 69.117188 38.710938 71.632812 39.296875 71.355469 41.359375 C 71.074219 44.304688 70.792969 44.894531 68.003906 46.367188 C 66.046875 46.957031 62.414062 50.199219 59.898438 50.199219 C 58.785156 50.199219 57.105469 50.199219 55.988281 49.902344 C 55.148438 49.609375 53.753906 48.136719 52.355469 46.664062 Z M 52.355469 46.664062 "/>
<path style=" stroke:none;fill-rule:nonzero;fill:rgb(27.843139%,53.333336%,78.039217%);fill-opacity:1;" d="M 34.101562 84.5625 L 30.101562 84.5625 C 30.101562 68.046875 38.867188 55.789062 42.613281 50.554688 C 43.246094 49.664062 43.96875 48.65625 44.109375 48.34375 C 44.5625 47.433594 44.828125 46.265625 44.828125 45.289062 L 44.828125 41.164062 L 48.828125 41.164062 L 48.828125 45.289062 C 48.828125 46.890625 48.414062 48.671875 47.722656 50.050781 C 47.460938 50.652344 46.859375 51.492188 45.863281 52.882812 C 42.046875 58.21875 34.101562 69.328125 34.101562 84.5625 Z M 102.363281 87.570312 L 98.386719 87.136719 C 98.679688 84.492188 98.828125 81.902344 98.828125 79.652344 C 98.828125 72.804688 93.972656 65.03125 90.320312 59.785156 C 89.511719 58.617188 88.726562 57.53125 87.972656 56.484375 C 84.300781 51.398438 81.128906 47.007812 79.3125 39.476562 C 78.199219 34.871094 78.035156 33.382812 77.878906 31.941406 C 77.746094 30.71875 77.621094 29.566406 76.792969 26.117188 C 75.171875 18.5 73.777344 11.964844 61.558594 11.964844 C 55.070312 11.964844 51.140625 15.984375 49.539062 24.257812 L 45.613281 23.496094 C 47.578125 13.339844 53.09375 7.964844 61.558594 7.964844 C 77.015625 7.964844 79.054688 17.539062 80.695312 25.234375 C 81.570312 28.878906 81.714844 30.21875 81.855469 31.511719 C 81.996094 32.824219 82.148438 34.183594 83.199219 38.542969 C 84.832031 45.304688 87.648438 49.207031 91.214844 54.144531 C 91.980469 55.210938 92.78125 56.316406 93.605469 57.503906 C 97.5625 63.195312 102.828125 71.683594 102.828125 79.652344 C 102.828125 82.042969 102.667969 84.785156 102.363281 87.570312 Z M 102.363281 87.570312 "/>
<path style=" stroke:none;fill-rule:nonzero;fill:rgb(27.843139%,53.333336%,78.039217%);fill-opacity:1;" d="M 84.015625 86.988281 C 83.445312 69.054688 77.667969 61.101562 73.027344 54.707031 C 71.003906 51.914062 69.089844 49.28125 67.96875 46.261719 L 71.71875 44.871094 C 72.648438 47.375 74.324219 49.683594 76.265625 52.359375 C 80.964844 58.832031 87.402344 67.699219 88.011719 86.863281 Z M 47.5 104.070312 C 46.542969 104.070312 45.699219 103.378906 45.53125 102.40625 C 45.347656 101.316406 46.078125 100.285156 47.164062 100.097656 C 49.082031 99.773438 51.574219 98.886719 52.097656 98.140625 C 52.292969 97.804688 52.230469 97.269531 51.851562 96.648438 C 51.429688 96.304688 50.039062 95.511719 49.007812 94.921875 C 47.207031 93.890625 45.164062 92.722656 43.964844 91.691406 C 41.714844 89.765625 37.464844 84.769531 37.464844 79.652344 C 37.464844 71.910156 42.175781 63.988281 45.957031 57.621094 C 47.777344 54.554688 49.660156 51.390625 49.742188 50.074219 L 49.738281 47.742188 C 49.738281 46.636719 50.632812 45.742188 51.738281 45.742188 C 52.847656 45.742188 53.738281 46.636719 53.738281 47.742188 L 53.738281 50.199219 C 53.59375 52.605469 51.835938 55.566406 49.398438 59.664062 C 45.863281 65.613281 41.464844 73.011719 41.464844 79.652344 C 41.464844 82.847656 44.449219 86.839844 46.566406 88.65625 C 47.480469 89.441406 49.429688 90.550781 50.992188 91.449219 C 53.460938 92.859375 54.574219 93.515625 55.109375 94.316406 C 56.425781 96.292969 56.554688 98.484375 55.453125 100.316406 C 53.617188 102.953125 48.789062 103.878906 47.839844 104.042969 C 47.722656 104.058594 47.609375 104.070312 47.5 104.070312 Z M 52 110 L 78 110 L 78 114 L 52 114 Z M 52 110 "/>
<path style=" stroke:none;fill-rule:nonzero;fill:rgb(27.843139%,53.333336%,78.039217%);fill-opacity:1;" d="M 86.28125 121.964844 C 82.40625 121.964844 80.425781 119.96875 79.472656 119.007812 C 77.742188 117.699219 76.738281 114.96875 76.738281 111.382812 C 76.738281 109.648438 77.195312 108.160156 77.679688 106.585938 C 78.132812 105.101562 78.644531 103.421875 78.917969 101.109375 C 79.195312 99.167969 79.195312 96.625 79.195312 94.382812 C 79.195312 93.414062 79.328125 84.925781 84.015625 84.925781 C 89.105469 84.925781 89.589844 89.234375 89.820312 91.304688 C 89.878906 91.820312 89.960938 92.5625 90.085938 92.925781 C 91.246094 92.871094 92.453125 91.488281 93.621094 90.15625 C 95.09375 88.472656 96.753906 86.570312 99.144531 86.46875 C 101.339844 85.988281 102.585938 86.949219 103.261719 87.847656 C 104.390625 89.199219 104.695312 91.28125 104.964844 93.117188 C 105.074219 93.851562 105.234375 94.96875 105.40625 95.269531 C 106.683594 97.179688 108.175781 97.910156 109.265625 98.445312 L 109.390625 98.511719 C 112.222656 99.511719 112.652344 101.546875 112.652344 102.679688 C 112.652344 105.019531 111.476562 105.984375 110.847656 106.507812 C 110.773438 106.570312 110.695312 106.628906 110.628906 106.699219 C 109.953125 107.371094 108.449219 108.257812 105.621094 109.898438 C 104.152344 110.757812 102.574219 111.671875 101.285156 112.488281 C 100.027344 113.390625 98.996094 114.105469 98.164062 114.675781 C 96.539062 115.792969 95.796875 116.304688 94.953125 117.148438 L 94.652344 117.449219 C 92.640625 119.460938 90.144531 121.964844 86.28125 121.964844 Z M 84.285156 88.929688 C 83.816406 89.570312 83.195312 91.847656 83.195312 94.382812 C 83.195312 96.757812 83.195312 99.453125 82.882812 101.625 C 82.574219 104.246094 81.980469 106.191406 81.503906 107.757812 C 81.074219 109.144531 80.738281 110.246094 80.738281 111.382812 C 80.738281 114.015625 81.402344 115.449219 81.96875 115.875 L 82.183594 116.058594 C 83.097656 116.980469 84.070312 117.964844 86.28125 117.964844 C 88.484375 117.964844 90.027344 116.417969 91.816406 114.625 L 92.121094 114.320312 C 93.222656 113.214844 94.171875 112.5625 95.894531 111.378906 C 96.707031 110.816406 97.71875 110.121094 99.042969 109.175781 C 100.464844 108.269531 102.089844 107.320312 103.609375 106.441406 C 105.199219 105.515625 107.378906 104.253906 107.796875 103.867188 C 107.941406 103.722656 108.113281 103.574219 108.296875 103.425781 C 108.648438 103.132812 108.648438 103.132812 108.648438 102.679688 C 108.640625 102.59375 108.535156 102.441406 107.988281 102.257812 L 107.496094 102.039062 C 106.257812 101.429688 103.949219 100.296875 102.023438 97.40625 C 101.398438 96.367188 101.207031 95.070312 101.003906 93.695312 C 100.832031 92.527344 100.601562 90.929688 100.136719 90.347656 C 100.101562 90.355469 100.066406 90.363281 100.039062 90.371094 C 99.855469 90.410156 99.625 90.46875 99.335938 90.46875 C 98.65625 90.46875 97.535156 91.757812 96.628906 92.789062 C 95.015625 94.632812 93.011719 96.925781 90.011719 96.925781 C 86.425781 96.925781 86.03125 93.433594 85.84375 91.753906 C 85.570312 89.332031 85.335938 88.96875 84.285156 88.929688 Z M 43.941406 122 C 43.628906 122 43.3125 121.984375 42.996094 121.957031 C 41.089844 121.785156 39.042969 120.722656 36.671875 119.492188 C 34.5 118.367188 32.042969 117.089844 29.652344 116.558594 C 20.0625 114.597656 17.847656 113.9375 16.191406 111.46875 L 16.066406 111.257812 C 15.246094 109.625 15.527344 108.296875 15.796875 107.011719 L 15.890625 106.558594 C 16.101562 105.707031 16.511719 105.074219 16.867188 104.515625 C 17.238281 103.9375 17.558594 103.4375 17.558594 102.984375 C 17.558594 101.214844 16.914062 99.757812 16.347656 98.46875 C 15.65625 96.90625 14.941406 95.289062 15.699219 93.574219 C 17.007812 90.589844 20.058594 90.324219 22.074219 90.148438 C 22.921875 90.074219 24.203125 89.960938 24.449219 89.640625 L 24.878906 89.230469 C 26.066406 88.382812 26.980469 87.34375 27.78125 86.421875 C 28.199219 85.945312 28.585938 85.507812 28.964844 85.128906 C 30.175781 83.921875 31.542969 82.5625 34.074219 82.5625 C 37.269531 82.5625 40.949219 87.558594 43.472656 91.75 C 44.605469 93.355469 45.222656 94.394531 46.078125 95.839844 C 46.679688 96.847656 47.410156 98.078125 48.574219 99.941406 L 48.621094 100.019531 C 49.378906 101.359375 50.125 102.363281 50.847656 103.332031 C 52.445312 105.484375 53.953125 107.515625 53.710938 111.332031 C 53.714844 114.832031 52.648438 117.644531 50.546875 119.566406 C 48.84375 121.121094 46.429688 122 43.941406 122 Z M 19.589844 109.355469 C 20.269531 110.277344 21.582031 110.824219 30.488281 112.648438 C 33.417969 113.296875 36.125 114.703125 38.515625 115.941406 C 40.429688 116.933594 42.234375 117.871094 43.359375 117.972656 C 44.003906 118.035156 46.21875 118.105469 47.847656 116.613281 C 49.085938 115.480469 49.714844 113.660156 49.714844 111.203125 C 49.867188 108.722656 49.121094 107.71875 47.636719 105.71875 C 46.882812 104.707031 46.035156 103.5625 45.160156 102.027344 C 43.984375 100.148438 43.242188 98.898438 42.636719 97.878906 C 41.796875 96.464844 41.242188 95.527344 40.121094 93.929688 C 37.238281 89.148438 34.78125 86.726562 34.003906 86.554688 C 33.226562 86.558594 32.878906 86.871094 31.785156 87.957031 C 31.464844 88.277344 31.144531 88.648438 30.792969 89.050781 C 29.933594 90.035156 28.871094 91.25 27.410156 92.332031 C 26.082031 93.8125 24.0625 93.988281 22.421875 94.132812 C 20.390625 94.308594 19.664062 94.484375 19.359375 95.179688 C 19.359375 95.386719 19.734375 96.230469 20.007812 96.847656 C 20.660156 98.335938 21.558594 100.367188 21.558594 102.980469 C 21.558594 104.605469 20.792969 105.800781 20.234375 106.671875 C 20.074219 106.921875 19.835938 107.296875 19.792969 107.4375 L 19.710938 107.832031 C 19.503906 108.820312 19.472656 109.070312 19.589844 109.355469 Z M 47.617188 44.882812 C 44.335938 42.28125 42.375 37.84375 42.375 33.015625 C 42.375 25.011719 47.566406 18.742188 54.195312 18.742188 C 58.425781 18.742188 62 22.980469 62 28 L 58 28 C 58 24.992188 55.988281 22.742188 54.195312 22.742188 C 49.808594 22.742188 46.375 27.257812 46.375 33.019531 C 46.375 36.636719 47.769531 39.898438 50.101562 41.746094 Z M 47.617188 44.882812 "/>
<path style=" stroke:none;fill-rule:nonzero;fill:rgb(27.843139%,53.333336%,78.039217%);fill-opacity:1;" d="M 70.90625 46.714844 L 69.117188 43.136719 C 72.351562 41.519531 74.28125 36.722656 74.28125 33.015625 C 74.28125 27.253906 70.847656 22.742188 66.464844 22.742188 C 62.125 22.742188 62 27.460938 62 28 L 61.992188 29.199219 C 61.984375 30.875 61.960938 35.328125 61.996094 35.867188 L 58.003906 36.136719 C 57.96875 35.605469 57.972656 33.082031 57.992188 29.179688 L 58 28 C 58 24.796875 59.769531 18.742188 66.464844 18.742188 C 73.089844 18.742188 78.28125 25.015625 78.28125 33.019531 C 78.285156 37.988281 75.75 44.292969 70.90625 46.714844 Z M 70.90625 46.714844 "/>
<path style=" stroke:none;fill-rule:nonzero;fill:rgb(27.843139%,53.333336%,78.039217%);fill-opacity:1;" d="M 59.898438 52.199219 C 58.683594 52.199219 56.847656 52.199219 55.476562 51.839844 C 54.125 51.371094 52.902344 50.144531 51.042969 48.1875 C 49.5625 47.144531 47.28125 45.4375 47.28125 42.542969 C 47.28125 40.132812 48.671875 38.96875 50.015625 37.839844 C 50.242188 37.644531 50.488281 37.441406 50.753906 37.210938 C 50.742188 37.210938 54.398438 33.472656 58.5 33.472656 C 61.453125 33.472656 64.59375 34.964844 66.46875 35.859375 C 66.761719 35.996094 67.019531 36.121094 67.234375 36.214844 C 69.941406 36.851562 73.847656 37.851562 73.335938 41.632812 C 73.007812 45.085938 72.421875 46.300781 68.933594 48.140625 L 68.578125 48.285156 C 68.070312 48.4375 67.070312 49.058594 66.1875 49.605469 C 64.226562 50.820312 62.007812 52.199219 59.898438 52.199219 Z M 56.636719 48.003906 C 57.527344 48.199219 59 48.199219 59.898438 48.199219 C 60.867188 48.199219 62.722656 47.046875 64.078125 46.207031 C 65.246094 45.484375 66.269531 44.851562 67.21875 44.523438 C 69.140625 43.507812 69.144531 43.449219 69.363281 41.171875 C 69.085938 40.757812 67.175781 40.308594 66.148438 40.066406 L 65.828125 39.964844 C 65.546875 39.84375 65.183594 39.671875 64.753906 39.46875 C 63.183594 38.71875 60.550781 37.46875 58.503906 37.46875 C 56.5 37.46875 54.027344 39.570312 53.523438 40.09375 C 53.109375 40.464844 52.839844 40.695312 52.585938 40.90625 C 51.320312 41.960938 51.285156 42.082031 51.285156 42.539062 C 51.285156 43.214844 51.886719 43.886719 53.507812 45.027344 L 53.808594 45.285156 C 54.660156 46.191406 56.070312 47.675781 56.636719 48.003906 Z M 56.636719 48.003906 "/>
<path style=" stroke:none;fill-rule:nonzero;fill:rgb(27.843139%,53.333336%,78.039217%);fill-opacity:1;" d="M 47.5 104.070312 C 46.542969 104.070312 45.699219 103.378906 45.53125 102.40625 C 45.347656 101.316406 46.078125 100.285156 47.164062 100.097656 C 49.082031 99.773438 51.574219 98.886719 52.097656 98.140625 C 52.292969 97.804688 52.230469 97.269531 51.851562 96.648438 C 51.429688 96.304688 50.039062 95.511719 49.007812 94.921875 C 47.207031 93.890625 45.164062 92.722656 43.964844 91.691406 C 41.714844 89.765625 37.464844 84.769531 37.464844 79.652344 C 37.464844 71.910156 42.175781 63.988281 45.957031 57.621094 C 47.777344 54.554688 49.660156 51.390625 49.742188 50.074219 L 49.738281 47.742188 C 49.738281 46.636719 50.632812 45.742188 51.738281 45.742188 C 52.847656 45.742188 53.738281 46.636719 53.738281 47.742188 L 53.738281 50.199219 C 53.59375 52.605469 51.835938 55.566406 49.398438 59.664062 C 45.863281 65.613281 41.464844 73.011719 41.464844 79.652344 C 41.464844 82.847656 44.449219 86.839844 46.566406 88.65625 C 47.480469 89.441406 49.429688 90.550781 50.992188 91.449219 C 53.460938 92.859375 54.574219 93.515625 55.109375 94.316406 C 56.425781 96.292969 56.554688 98.484375 55.453125 100.316406 C 53.617188 102.953125 48.789062 103.878906 47.839844 104.042969 C 47.722656 104.058594 47.609375 104.070312 47.5 104.070312 Z M 47.5 104.070312 "/>
</g>
</svg>
