<svg xmlns="http://www.w3.org/2000/svg"  viewBox="0 0 40 40" width="80px" height="80px"><path fill="#dff0fe" d="M1.5,27.5V7c0-0.827,0.673-1.5,1.5-1.5h34c0.827,0,1.5,0.673,1.5,1.5v20.5H1.5z"/><path fill="#4788c7" d="M37,6c0.551,0,1,0.449,1,1v20H2V7c0-0.551,0.449-1,1-1H37 M37,5H3C1.895,5,1,5.895,1,7v21h38V7 C39,5.895,38.105,5,37,5L37,5z"/><path fill="#98ccfd" d="M21.5,34.5V31c0.001-0.052,0.006-0.646-0.417-1.081C20.897,29.728,20.559,29.5,20,29.5 s-0.897,0.228-1.083,0.419c-0.423,0.436-0.418,1.029-0.417,1.095V34.5h-17v-7h37v7H21.5z"/><path fill="#4788c7" d="M38,28v6H22l0-2.972c0.004-0.143-0.004-0.888-0.558-1.458C21.188,29.31,20.733,29,20,29 s-1.188,0.31-1.441,0.57C18.004,30.141,17.996,30.885,18,31v3H2v-6H38 M39,27H1v8h18v-4c0,0-0.028-1,1-1s1,1,1,1v4h18V27L39,27z"/><path fill="#98ccfd" d="M30 10H35V23H30zM22 10H27V23H22zM13 10H18V23H13zM5 10H10V23H5z"/><path fill="#fff" d="M32 34h2v-3c0-.55-.45-1-1-1l0 0c-.55 0-1 .45-1 1V34zM35 34h2v-3c0-.55-.45-1-1-1l0 0c-.55 0-1 .45-1 1V34zM29 34h2v-3c0-.55-.45-1-1-1h0c-.55 0-1 .45-1 1V34zM26 34h2v-3c0-.55-.45-1-1-1h0c-.55 0-1 .45-1 1V34zM23 34h2v-3c0-.55-.45-1-1-1h0c-.55 0-1 .45-1 1V34zM12 34h2v-3c0-.55-.45-1-1-1h0c-.55 0-1 .45-1 1V34zM15 34h2v-3c0-.55-.45-1-1-1h0c-.55 0-1 .45-1 1V34zM9 34h2v-3c0-.55-.45-1-1-1h0c-.55 0-1 .45-1 1V34zM6 34h2v-3c0-.55-.45-1-1-1h0c-.55 0-1 .45-1 1V34zM3 34h2v-3c0-.55-.45-1-1-1h0c-.55 0-1 .45-1 1V34z"/></svg>