<svg xmlns="http://www.w3.org/2000/svg"  viewBox="0 0 40 40" width="80px" height="80px"><path fill="#4788c7" d="M30 6H34V10H30zM16 2H18V4H16zM18 4H22V6H18zM22 6H24V8H22zM22 2H24V4H22zM20 8H22V10H20zM18 10H20V12H18zM22 10H24V12H22zM22 14H24V16H22zM20 28H22V30H20zM18 30H20V32H18zM16 32H18V34H16zM20 32H22V34H20zM20 36H22V38H20zM20 16H22V28H20zM14 16H16V18H14zM10 16H12V18H10zM6 16H8V18H6zM4 20H6V22H4zM8 20H10V22H8zM12 20H14V22H12zM14 22H16V24H14zM16 24H18V26H16zM18 26H20V28H18zM16 28H18V30H16zM32 30H34V32H32zM30 32H32V34H30zM34 32H36V34H34zM34 36H36V38H34zM28 30H30V32H28zM32 34H34V36H32zM22 34H30V36H22zM26 28H38V30H26zM6 22H8V24H6zM2 18H14V20H2zM36 16H38V18H36zM32 16H34V18H32zM28 16H30V18H28zM26 20H28V22H26zM30 20H32V22H30zM34 20H36V22H34zM36 22H38V24H36zM28 22H30V24H28zM22 24H24V26H22zM26 24H28V26H26zM30 24H32V26H30zM32 26H34V28H32zM24 26H26V28H24z"/><path fill="#4788c7" d="M18 18H36V20H18zM16 6H18V22H16zM36 4v8h-8V4H36M38 2H26v12h12V2L38 2zM6 6H10V10H6z"/><path fill="#4788c7" d="M12 4v8H4V4H12M14 2H2v12h12V2L14 2zM6 30H10V34H6z"/><path fill="#4788c7" d="M12,28v8H4v-8H12 M14,26H2v12h12V26L14,26z"/></svg>