<?xml version="1.0" encoding="UTF-8" standalone="no"?>
<!DOCTYPE svg PUBLIC "-//W3C//DTD SVG 1.1//EN" "http://www.w3.org/Graphics/SVG/1.1/DTD/svg11.dtd">
<svg width="100%" height="100%" viewBox="0 0 512 512" version="1.1" xmlns="http://www.w3.org/2000/svg" xmlns:xlink="http://www.w3.org/1999/xlink" xml:space="preserve" xmlns:serif="http://www.serif.com/" style="fill-rule:evenodd;clip-rule:evenodd;stroke-linejoin:round;stroke-miterlimit:2;">
    <g id="g110">
        <path id="path38" d="M438.48,152C437.114,152.015 435.845,151.292 435.16,150.11L377.39,49.94C376.675,48.754 375.385,48.035 374,48.05L138.33,48.05C136.96,48.032 135.687,48.754 135,49.94L75,153.89L19.17,254.09C18.5,255.275 18.5,256.725 19.17,257.91L75,358L135,462C135.685,463.182 136.954,463.905 138.32,463.89L374,463.89C375.374,463.894 376.65,463.177 377.36,462L435.2,361.9C435.885,360.718 437.154,359.995 438.52,360.01L438.45,152L438.48,152Z" style="fill:rgb(182,220,254);fill-rule:nonzero;"/>
        <path id="path27674" d="M76.014,152L17.659,256.009L76,360L512,360L512,152" style="fill:rgb(223,240,254);fill-rule:nonzero;"/>
        <path id="path381" serif:id="path38" d="M72.104,158.97L76.014,152L76.091,152L135,49.94C135.687,48.754 136.96,48.032 138.33,48.05L374,48.05C375.385,48.035 376.675,48.754 377.39,49.94L435.16,150.11C435.845,151.292 437.114,152.015 438.48,152L512,152L512,360L438.52,360L438.52,360.01C437.154,359.995 435.885,360.718 435.2,361.9L377.36,462C376.65,463.177 375.374,463.894 374,463.89L138.32,463.89C136.954,463.905 135.685,463.182 135,462L78.472,364.018L83.111,355.986L140.73,455.858L371.632,455.858L428.25,357.874C430.273,354.381 433.928,352.176 437.93,351.992C438.124,351.975 438.321,351.968 438.52,351.968C438.52,351.968 503.968,351.968 503.968,351.968C503.968,351.968 503.968,160.032 503.968,160.032C503.968,160.032 438.509,160.032 438.509,160.032C434.268,160.057 430.337,157.808 428.21,154.136L371.662,56.082L140.729,56.082L83.047,156.015C82.895,156.28 82.728,156.534 82.546,156.774L26.869,256.009L83.005,356.07L78.412,363.914L76.154,360L76,360L17.659,256.009L72.085,159.003C73.265,159.668 74.614,160.032 76.014,160.032L76.013,160.03C74.617,160.017 73.275,159.642 72.104,158.97Z" style="fill:rgb(71,136,199);"/>
        <path id="path94" d="M235.08,361.89L217.08,393.16C216.772,393.636 216.354,394.031 215.86,394.31L136,256.14L176.6,256.14C176.585,256.688 176.716,257.23 176.98,257.71C176.989,257.772 177.013,257.83 177.05,257.88L235.05,358.46C235.675,359.513 235.687,360.826 235.08,361.89ZM235.15,153.81L177,254.46C176.723,254.962 176.579,255.527 176.58,256.1L136.07,256.1L215.81,117.92C216.302,118.19 216.713,118.587 217,119.07L217.11,119.18L235.19,150.59C235.702,151.605 235.687,152.808 235.15,153.81Z" style="fill:rgb(152,204,253);fill-rule:nonzero;"/>
        <path id="path98" d="M116.044,290.714L96.97,257.64C96.706,257.16 96.575,256.618 96.59,256.07C96.589,255.497 96.733,254.932 97.01,254.43L116.31,221L175.06,119.26C175.663,118.173 176.817,117.5 178.06,117.51L214.1,117.51C214.695,117.502 215.283,117.643 215.81,117.92L136.07,256.1L136.026,256.176L215.81,394.31C215.287,394.601 214.699,394.755 214.1,394.76L178,394.76C176.757,394.77 175.603,394.097 175,393.01L121.28,300.01L116,290.79L116.044,290.714Z" style="fill:rgb(71,136,199);fill-rule:nonzero;"/>
        <path id="path102" d="M335.63,256.1C335.624,255.496 335.454,254.905 335.14,254.39L277.14,153.84C276.512,152.774 276.512,151.446 277.14,150.38L295.22,119.08C295.526,118.612 295.932,118.219 296.41,117.93L376.19,256.1L296.39,394.31C295.912,394.021 295.506,393.628 295.2,393.16L295.13,393.06L277,361.72C276.476,360.712 276.476,359.508 277,358.5L335.06,257.85C335.38,257.322 335.549,256.717 335.55,256.1L335.63,256.1Z" style="fill:rgb(71,136,199);fill-rule:nonzero;"/>
        <path id="path104" d="M415.68,256.1C415.679,256.717 415.51,257.322 415.19,257.85L337.06,393.16C336.436,394.16 335.338,394.769 334.16,394.77L298.16,394.77C297.549,394.766 296.947,394.612 296.41,394.32L376.19,256.1L396.19,221.48L415.19,254.39C415.504,254.905 415.674,255.496 415.68,256.1ZM396.2,221.44L376.2,256.06L296.39,117.92C296.927,117.628 297.529,117.474 298.14,117.47L334.14,117.47C335.318,117.471 336.416,118.08 337.04,119.08L396.2,221.44Z" style="fill:rgb(152,204,253);fill-rule:nonzero;"/>
    </g>
</svg>
