<svg xmlns="http://www.w3.org/2000/svg"  viewBox="0 0 40 40" width="80px" height="80px"><path fill="#fff" d="M2.5,37.5V8.985C2.5,5.409,5.409,2.5,8.985,2.5H37.5v35H2.5z"/><path fill="#4788c7" d="M37,3v34H3V8.985C3,5.685,5.685,3,8.985,3H37 M38,2H8.985C5.127,2,2,5.127,2,8.985V38h36V2L38,2z"/><path fill="#b6dcfe" d="M2.522,7.5c0.253-2.8,2.613-5,5.478-5h29.5v5H2.522z"/><path fill="#4788c7" d="M37,3v4H3.1C3.565,4.721,5.585,3,8,3H37 M38,2H8C4.686,2,2,4.686,2,8h36V2L38,2z"/><path fill="#b6dcfe" d="M13 14H15V16H13zM21 14H23V16H21zM25 14H27V16H25zM29 14H31V16H29zM9 18H11V20H9zM13 18H15V20H13zM21 18H23V20H21zM25 18H27V20H25zM29 18H31V20H29zM9 26H11V28H9zM13 26H15V28H13zM21 26H23V28H21zM17 14H19V16H17zM17 18H19V20H17zM9 22H11V24H9zM13 22H15V24H13zM21 22H23V24H21zM25 22H27V24H25zM29 22H31V24H29zM17 22H19V24H17zM17 26H19V28H17zM25 26H27V28H25zM3 34H37V37H3z"/><path fill="#98ccfd" d="M12,23.5C5.659,23.5,0.5,18.341,0.5,12S5.659,0.5,12,0.5S23.5,5.659,23.5,12S18.341,23.5,12,23.5z"/><path fill="#4788c7" d="M12,1c6.065,0,11,4.935,11,11s-4.935,11-11,11S1,18.065,1,12S5.935,1,12,1 M12,0 C5.373,0,0,5.373,0,12s5.373,12,12,12s12-5.373,12-12S18.627,0,12,0L12,0z"/><g><path fill="#fff" d="M12 3A9 9 0 1 0 12 21A9 9 0 1 0 12 3Z"/></g><path fill="none" stroke="#4788c7" stroke-linecap="round" stroke-miterlimit="10" d="M14.5 5.5L12 12 15.5 15.5"/><g><path fill="#4788c7" d="M12 10.667A1.333 1.333 0 1 0 12 13.333A1.333 1.333 0 1 0 12 10.667Z"/></g></svg>