<svg xmlns="http://www.w3.org/2000/svg"  viewBox="0 0 40 40" width="80px" height="80px"><path fill="#98ccfd" d="M20,38.5C9.799,38.5,1.5,30.201,1.5,20S9.799,1.5,20,1.5S38.5,9.799,38.5,20S30.201,38.5,20,38.5z"/><path fill="#fff" d="M38.449,19C37.925,9.265,29.863,1.5,20,1.5S2.075,9.265,1.551,19L2,21h36L38.449,19z"/><path fill="#4788c7" d="M20,2c9.925,0,18,8.075,18,18s-8.075,18-18,18S2,29.925,2,20S10.075,2,20,2 M20,1 C9.507,1,1,9.507,1,20s8.507,19,19,19s19-8.507,19-19S30.493,1,20,1L20,1z"/><path fill="#4788c7" d="M35 20c-1.458 0-3.563 1-5 1-1.438 0-3.542-1-5-1s-3.563 1-5 1c-1.438 0-3.542-1-5-1s-3.563 1-5 1c-1.438 0-3.542-1-5-1-.994 0-2.284.46-3.462.754.014.339.02.68.051 1.015.387-.092.778-.195 1.164-.304C3.566 21.237 4.406 21 5 21s1.434.237 2.246.465C8.18 21.728 9.146 22 10 22s1.82-.272 2.754-.535C13.566 21.237 14.406 21 15 21s1.434.237 2.246.465C18.18 21.728 19.146 22 20 22s1.82-.272 2.754-.535C23.566 21.237 24.406 21 25 21s1.434.237 2.246.465C28.18 21.728 29.146 22 30 22s1.82-.272 2.754-.535C33.566 21.237 34.406 21 35 21s1.434.237 2.246.465c.387.109.777.212 1.164.304.032-.334.038-.676.051-1.015C37.284 20.46 35.994 20 35 20zM35 26c-1.458 0-3.563 1-5 1-1.438 0-3.542-1-5-1s-3.563 1-5 1c-1.438 0-3.542-1-5-1s-3.563 1-5 1c-1.438 0-3.542-1-5-1-.77 0-1.717.275-2.652.537.101.322.228.631.346.945.02-.006.04-.011.059-.016C3.566 27.237 4.406 27 5 27s1.434.237 2.246.465C8.18 27.728 9.146 28 10 28s1.82-.272 2.754-.535C13.566 27.237 14.406 27 15 27s1.434.237 2.246.465C18.18 27.728 19.146 28 20 28s1.82-.272 2.754-.535C23.566 27.237 24.406 27 25 27s1.434.237 2.246.465C28.18 27.728 29.146 28 30 28s1.82-.272 2.754-.535C33.566 27.237 34.406 27 35 27s1.434.237 2.246.465c.02.006.04.011.059.016.118-.314.245-.623.346-.945C36.717 26.275 35.77 26 35 26zM33.932 32.133C32.627 32.403 31.114 33 30 33c-1.438 0-3.542-1-5-1s-3.563 1-5 1c-1.438 0-3.542-1-5-1s-3.563 1-5 1c-1.115 0-2.628-.597-3.932-.867.42.482.865.938 1.332 1.374C8.286 33.756 9.193 34 10 34c.854 0 1.82-.272 2.754-.535C13.566 33.237 14.406 33 15 33s1.434.237 2.246.465C18.18 33.728 19.146 34 20 34s1.82-.272 2.754-.535C23.566 33.237 24.406 33 25 33s1.434.237 2.246.465C28.18 33.728 29.146 34 30 34c.807 0 1.714-.244 2.6-.492C33.067 33.072 33.512 32.615 33.932 32.133z"/><path fill="#88c9ff" d="M18 11L17 11 17 7 16.5 7 16.5 6 18 6zM29 11L28 11 28 7 27.5 7 27.5 6 29 6zM11.5 11c-.8 0-1.5-.7-1.5-1.5v-2C10 6.7 10.7 6 11.5 6S13 6.7 13 7.5v2C13 10.3 12.3 11 11.5 11zM11.5 7C11.2 7 11 7.2 11 7.5v2c0 .3.2.5.5.5S12 9.8 12 9.5v-2C12 7.2 11.8 7 11.5 7zM22.5 11c-.8 0-1.5-.7-1.5-1.5v-2C21 6.7 21.7 6 22.5 6S24 6.7 24 7.5v2C24 10.3 23.3 11 22.5 11zM22.5 7C22.2 7 22 7.2 22 7.5v2c0 .3.2.5.5.5S23 9.8 23 9.5v-2C23 7.2 22.8 7 22.5 7zM29 18L28 18 28 14 27.5 14 27.5 13 29 13zM12 18L11 18 11 14 10.5 14 10.5 13 12 13zM22.5 18c-.8 0-1.5-.7-1.5-1.5v-2c0-.8.7-1.5 1.5-1.5s1.5.7 1.5 1.5v2C24 17.3 23.3 18 22.5 18zM22.5 14c-.3 0-.5.2-.5.5v2c0 .3.2.5.5.5s.5-.2.5-.5v-2C23 14.2 22.8 14 22.5 14zM33.5 18c-.8 0-1.5-.7-1.5-1.5v-2c0-.8.7-1.5 1.5-1.5s1.5.7 1.5 1.5v2C35 17.3 34.3 18 33.5 18zM33.5 14c-.3 0-.5.2-.5.5v2c0 .3.2.5.5.5s.5-.2.5-.5v-2C34 14.2 33.8 14 33.5 14zM16.5 18c-.8 0-1.5-.7-1.5-1.5v-2c0-.8.7-1.5 1.5-1.5.8 0 1.5.7 1.5 1.5v2C18 17.3 17.3 18 16.5 18zM16.5 14c-.3 0-.5.2-.5.5v2c0 .3.2.5.5.5s.5-.2.5-.5v-2C17 14.2 16.8 14 16.5 14zM5.5 18C4.7 18 4 17.3 4 16.5v-2C4 13.7 4.7 13 5.5 13S7 13.7 7 14.5v2C7 17.3 6.3 18 5.5 18zM5.5 14C5.2 14 5 14.2 5 14.5v2C5 16.8 5.2 17 5.5 17S6 16.8 6 16.5v-2C6 14.2 5.8 14 5.5 14z"/></svg>