<svg xmlns="http://www.w3.org/2000/svg"  viewBox="0 0 40 40" width="80px" height="80px"><path fill="#dff0fe" d="M4.5 21.5L4.5 13.088 8.351 2.5 31.649 2.5 35.5 13.088 35.5 21.5z"/><path fill="#4788c7" d="M31.3,3L35,13.176V21H5v-7.824L8.7,3H31.3 M32,2H8L4,13v9h32v-9L32,2L32,2z"/><path fill="#98ccfd" d="M7 19L33 19 33 13.529 29.899 5 10.101 5 7 13.529z"/><path fill="#dff0fe" d="M4.5,37.5v-24h10.022c0.253,2.799,2.613,5,5.478,5s5.225-2.201,5.478-5H35.5v24H4.5z"/><path fill="#4788c7" d="M35,14v23H5V14h9.083c0.477,2.834,2.949,5,5.917,5s5.439-2.166,5.917-5H35 M36,13H25 c0,2.761-2.239,5-5,5s-5-2.239-5-5H4v25h32V13L36,13z"/><g><path fill="#4788c7" d="M21,28v-4c0-0.552-0.448-1-1-1h0c-0.552,0-1,0.448-1,1v4h-3l4,5l4-5H21z"/></g></svg>