<svg xmlns="http://www.w3.org/2000/svg"  viewBox="0 0 40 40" width="80px" height="80px"><path fill="#98ccfd" d="M9,24.5c-0.275,0-0.5-0.224-0.5-0.5v-2.309L5.118,20L8.5,18.309V16c0-0.276,0.225-0.5,0.5-0.5h27 c0.275,0,0.5,0.224,0.5,0.5v8c0,0.276-0.225,0.5-0.5,0.5H9z"/><path fill="#4788c7" d="M36,16v8H9v-2v-0.618l-0.553-0.276L6.236,20l2.211-1.106L9,18.618V18v-2H36 M36,15H9 c-0.55,0-1,0.45-1,1v2l-4,2l4,2v2c0,0.55,0.45,1,1,1h27c0.55,0,1-0.45,1-1v-8C37,15.45,36.55,15,36,15L36,15z"/><path fill="#b6dcfe" d="M6,11.5c-0.275,0-0.5-0.224-0.5-0.5V8.691L2.118,7L5.5,5.309V3c0-0.276,0.225-0.5,0.5-0.5h27 c0.275,0,0.5,0.224,0.5,0.5v8c0,0.276-0.225,0.5-0.5,0.5H6z"/><path fill="#4788c7" d="M33,3v8H6V9V8.382L5.447,8.106L3.236,7l2.211-1.106L6,5.618V5V3H33 M33,2H6C5.45,2,5,2.45,5,3v2 L1,7l4,2v2c0,0.55,0.45,1,1,1h27c0.55,0,1-0.45,1-1V3C34,2.45,33.55,2,33,2L33,2z"/><g><path fill="#dff0fe" d="M11,37.5c-0.275,0-0.5-0.224-0.5-0.5v-2.309L7.118,33l3.382-1.691V29c0-0.276,0.225-0.5,0.5-0.5h27 c0.275,0,0.5,0.224,0.5,0.5v8c0,0.276-0.225,0.5-0.5,0.5H11z"/><path fill="#4788c7" d="M38,29v8H11v-2v-0.618l-0.553-0.276L8.236,33l2.211-1.106L11,31.618V31v-2H38 M38,28H11 c-0.55,0-1,0.45-1,1v2l-4,2l4,2v2c0,0.55,0.45,1,1,1h27c0.55,0,1-0.45,1-1v-8C39,28.45,38.55,28,38,28L38,28z"/></g></svg>