<?xml version="1.0" encoding="UTF-8"?>
<svg xmlns="http://www.w3.org/2000/svg" xmlns:xlink="http://www.w3.org/1999/xlink" viewBox="0 0 96 96" width="96px" height="96px">
<g id="surface100632812">
<path style=" stroke:none;fill-rule:nonzero;fill:rgb(87.450981%,94.117647%,99.607843%);fill-opacity:1;" d="M 25.070312 75.71875 L 48.023438 92.570312 L 70.878906 75.695312 L 48.015625 58.648438 L 25.117188 75.660156 L 33.882812 48.050781 L 10.871094 31.148438 L 39.246094 30.980469 L 48.027344 3.429688 L 19.535156 3.429688 L 10.882812 31.09375 C 5.855469 47.109375 10.996094 65.289062 25.070312 75.71875 Z M 25.070312 75.71875 "/>
<path style=" stroke:none;fill-rule:nonzero;fill:rgb(87.450981%,94.117647%,99.607843%);fill-opacity:1;" d="M 85.035156 31.09375 L 62.203125 48.046875 L 70.902344 75.679688 L 70.925781 75.664062 C 84.886719 65.226562 90.195312 47.109375 85.113281 31.035156 L 85.101562 31.042969 L 76.339844 3.429688 L 48.03125 3.429688 L 56.792969 30.929688 Z M 85.035156 31.09375 "/>
<path style=" stroke:none;fill-rule:nonzero;fill:rgb(27.843139%,53.333336%,78.039217%);fill-opacity:1;" d="M 74.597656 77.851562 L 74.578125 77.808594 L 74.554688 77.824219 Z M 74.597656 77.851562 "/>
<path style=" stroke:none;fill-rule:nonzero;fill:rgb(27.843139%,53.333336%,78.039217%);fill-opacity:1;" d="M 48.023438 96 C 47.394531 96 46.769531 95.804688 46.234375 95.410156 L 23.285156 78.398438 C 23.28125 78.398438 23.28125 78.394531 23.277344 78.390625 C 8.574219 67.386719 2.449219 47.960938 8.019531 30.039062 L 16.671875 2.113281 C 17.058594 0.855469 18.222656 0 19.535156 0 L 48.027344 0 C 48.984375 0 49.878906 0.457031 50.449219 1.226562 C 51.011719 2 51.175781 2.992188 50.886719 3.902344 L 42.109375 31.71875 C 41.714844 32.964844 40.566406 33.808594 39.265625 33.816406 L 19.882812 33.933594 L 35.671875 45.640625 C 36.699219 46.398438 37.132812 47.726562 36.746094 48.953125 L 30.777344 67.933594 L 46.21875 56.351562 C 47.292969 55.550781 48.757812 55.554688 49.824219 56.355469 L 72.683594 73.566406 C 73.4375 74.136719 73.878906 75.027344 73.878906 75.972656 C 73.878906 76.914062 73.433594 77.804688 72.671875 78.367188 L 49.816406 95.40625 C 49.285156 95.800781 48.65625 96 48.023438 96 Z M 30.066406 75.957031 L 48.015625 89.261719 L 65.871094 75.949219 L 48.011719 62.5 Z M 12.683594 36.0625 C 10.21875 48.875 14.34375 62.019531 23.578125 70.808594 L 30.382812 49.1875 Z M 21.746094 6 L 14.945312 27.960938 L 37.042969 27.828125 L 43.9375 6 Z M 21.746094 6 "/>
<path style=" stroke:none;fill-rule:nonzero;fill:rgb(27.843139%,53.333336%,78.039217%);fill-opacity:1;" d="M 70.902344 78.9375 C 70.601562 78.9375 70.292969 78.886719 69.992188 78.792969 C 69.0625 78.492188 68.324219 77.769531 68.035156 76.835938 L 59.335938 48.941406 C 58.957031 47.726562 59.382812 46.40625 60.398438 45.648438 L 76.097656 33.875 L 56.769531 33.765625 C 55.464844 33.757812 54.316406 32.90625 53.925781 31.667969 L 45.164062 3.902344 C 44.875 2.992188 45.039062 2 45.605469 1.226562 C 46.171875 0.457031 47.070312 0 48.027344 0 L 76.335938 0 C 77.648438 0 78.804688 0.847656 79.195312 2.101562 L 87.867188 29.699219 C 87.90625 29.789062 87.941406 29.878906 87.96875 29.972656 C 93.550781 47.796875 87.425781 67.222656 72.722656 78.320312 C 72.199219 78.722656 71.550781 78.9375 70.902344 78.9375 Z M 65.695312 49.175781 L 72.414062 70.726562 C 81.65625 61.886719 85.785156 48.726562 83.308594 35.972656 Z M 58.992188 27.78125 L 81.015625 27.90625 L 74.136719 6 L 52.121094 6 Z M 58.992188 27.78125 "/>
</g>
</svg>
