<svg xmlns="http://www.w3.org/2000/svg"  viewBox="0 0 40 40" width="80px" height="80px"><path fill="#dff0fe" d="M20,38.5c-7.859,0-14.5-2.748-14.5-6V7h29v25.5C34.5,35.752,27.859,38.5,20,38.5z"/><path fill="#4788c7" d="M34,7.5v25c0,2.601-5.75,5.5-14,5.5S6,35.101,6,32.5v-25H34 M35,6.5H5c0,1.29,0,24.71,0,26	c0,3.59,6.716,6.5,15,6.5s15-2.91,15-6.5C35,31.21,35,7.79,35,6.5L35,6.5z"/><path fill="#4788c7" d="M20,21c-8.411,0-15-2.556-15-5.817h1C6,17.509,11.626,20,20,20s14-2.491,14-4.817h1 C35,18.444,28.411,21,20,21z"/><path fill="#dff0fe" d="M35,32.5c0-0.662,0-7.16,0-13.5h-2l-6,3v6h-7.161l5.207,10.615C30.844,37.716,35,35.321,35,32.5z"/><path fill="#4788c7" d="M34.5,17L34.5,17c0.275,0,0.5,0.225,0.5,0.5v2c0,0.275-0.225,0.5-0.5,0.5l0,0	c-0.275,0-0.5-0.225-0.5-0.5v-2C34,17.225,34.225,17,34.5,17z"/><path fill="#4788c7" d="M20,30c-8.411,0-15-2.979-15-6.783c0-0.276,0.224-0.5,0.5-0.5S6,22.94,6,23.217 C6,26.352,12.411,29,20,29c0.47,0,0.936-0.01,1.393-0.03c0.303-0.009,0.51,0.203,0.522,0.478c0.012,0.276-0.202,0.51-0.478,0.522 C20.965,29.99,20.485,30,20,30z"/><path fill="#4788c7" d="M20,39c-8.271,0-15-2.916-15-6.5v-26h29.5C34.776,6.5,35,6.724,35,7s-0.224,0.5-0.5,0.5H6v25 c0,2.93,6.542,5.5,14,5.5c2.209,0,4.432-0.227,6.427-0.656c0.275-0.05,0.536,0.113,0.595,0.384 c0.058,0.271-0.114,0.536-0.384,0.595C24.574,38.766,22.279,39,20,39z"/><path fill="#98ccfd" d="M25.04,30.5h4.46v8h5v-8h4.46L32,21.8L25.04,30.5z"/><path fill="#4788c7" d="M34,38v-7v-1h1h2.919L32,22.601L26.081,30H29h1v1v7H34 M35,39h-6v-8h-5l8-10l8,10h-5V39L35,39z"/><path fill="#dff0fe" d="M20,11.5c-8.674,0-14.5-2.585-14.5-5s5.826-5,14.5-5s14.5,2.585,14.5,5S28.674,11.5,20,11.5z"/><path fill="#4788c7" d="M20,2c8.674,0,14,2.621,14,4.5S28.674,11,20,11S6,8.379,6,6.5S11.326,2,20,2 M20,1	C11.716,1,5,3.462,5,6.5S11.716,12,20,12s15-2.462,15-5.5S28.284,1,20,1L20,1z"/></svg>