<svg xmlns="http://www.w3.org/2000/svg"  viewBox="0 0 40 40" width="80px" height="80px"><path fill="#b6dcfe" d="M1.5,35.5v-31h10.293l3,3H38.5V34c0,0.827-0.673,1.5-1.5,1.5H1.5z"/><path fill="#4788c7" d="M11.586,5l2.707,2.707L14.586,8H15h23v26c0,0.551-0.449,1-1,1H2V5H11.586 M12,4H1v32h36 c1.105,0,2-0.895,2-2V7H15L12,4L12,4z"/><path fill="#dff0fe" d="M1.5,35.5v-26h10.651l3-2H38.5V34c0,0.827-0.673,1.5-1.5,1.5H1.5z"/><path fill="#4788c7" d="M38,8v26c0,0.551-0.449,1-1,1H2V10h10h0.303l0.252-0.168L15.303,8H38 M39,7H15l-3,2H1v27h36 c1.105,0,2-0.895,2-2V7L39,7z"/><path fill="#98ccfd" d="M31 22.5A8.5 8.5 0 1 0 31 39.5A8.5 8.5 0 1 0 31 22.5Z"/><path fill="#4788c7" d="M31,23c4.411,0,8,3.589,8,8s-3.589,8-8,8s-8-3.589-8-8S26.589,23,31,23 M31,22 c-4.971,0-9,4.029-9,9s4.029,9,9,9s9-4.029,9-9S35.971,22,31,22L31,22z"/><path fill="none" stroke="#fff" stroke-miterlimit="10" stroke-width="2" d="M31 36L31 26M26 31L36 31"/></svg>