<svg xmlns="http://www.w3.org/2000/svg"  viewBox="0 0 40 40" width="80px" height="80px"><path fill="#fff" d="M2.5 2.5H37.5V37.5H2.5z"/><path fill="#4788c7" d="M37,3v34H3V3H37 M38,2H2v36h36V2L38,2z"/><path fill="#98ccfd" d="M14 20H47V21H14z" transform="rotate(90 30.5 20.5)"/><path fill="#98ccfd" d="M7 20H40V21H7z" transform="rotate(90 23.5 20.5)"/><path fill="#98ccfd" d="M0 20H33V21H0z" transform="rotate(90 16.5 20.5)"/><path fill="#98ccfd" d="M4 16H37V17H4zM4 23H37V24H4zM4 30H37V31H4z"/><path fill="#b6dcfe" d="M30.5 2.5H37.5V9.5H30.5z"/><path fill="#4788c7" d="M37,3v6h-6V3H37 M38,2h-8v8h8V2L38,2z"/><path fill="#b6dcfe" d="M23.5 2.5H30.5V9.5H23.5z"/><path fill="#4788c7" d="M30,3v6h-6V3H30 M31,2h-8v8h8V2L31,2z"/><path fill="#b6dcfe" d="M16.5 2.5H23.5V9.5H16.5z"/><path fill="#4788c7" d="M23,3v6h-6V3H23 M24,2h-8v8h8V2L24,2z"/><path fill="#b6dcfe" d="M9.5 2.5H16.5V9.5H9.5z"/><path fill="#4788c7" d="M16,3v6h-6V3H16 M17,2H9v8h8V2L17,2z"/><g><path fill="#b6dcfe" d="M2.5 2.5H9.5V9.5H2.5z"/><path fill="#4788c7" d="M9,3v6H3V3H9 M10,2H2v8h8V2L10,2z"/></g><g><path fill="#b6dcfe" d="M2.5 9.5H9.5V16.5H2.5z"/><path fill="#4788c7" d="M9,10v6H3v-6H9 M10,9H2v8h8V9L10,9z"/></g><g><path fill="#b6dcfe" d="M2.5 16.5H9.5V23.5H2.5z"/><path fill="#4788c7" d="M9,17v6H3v-6H9 M10,16H2v8h8V16L10,16z"/></g><g><path fill="#b6dcfe" d="M2.5 23.5H9.5V30.5H2.5z"/><path fill="#4788c7" d="M9,24v6H3v-6H9 M10,23H2v8h8V23L10,23z"/></g><g><path fill="#b6dcfe" d="M2.5 30.5H9.5V37.5H2.5z"/><path fill="#4788c7" d="M9,31v6H3v-6H9 M10,30H2v8h8V30L10,30z"/></g></svg>