<svg xmlns="http://www.w3.org/2000/svg"  viewBox="0 0 40 40" width="80px" height="80px"><path fill="#dff0fe" d="M6.5,27.5c-3.309,0-6-2.691-6-6s2.691-6,6-6c0.499,0,1.013,0.069,1.529,0.204l0.495,0.13 l0.119-0.498c0.422-1.771,1.775-3.17,3.53-3.653l0.332-0.091l0.034-0.342C12.919,7.402,16.127,4.5,20,4.5 c2.859,0,5.43,1.596,6.709,4.165l0.203,0.408l0.425-0.165C28.039,8.638,28.766,8.5,29.5,8.5c3.309,0,6,2.691,6,6 c0,0.271-0.024,0.555-0.075,0.896l-0.058,0.391l0.366,0.147c2.288,0.919,3.767,3.104,3.767,5.566c0,3.309-2.691,6-6,6H6.5z"/><path fill="#4788c7" d="M20,5c2.668,0,5.068,1.49,6.262,3.888l0.406,0.816l0.85-0.329C28.161,9.126,28.828,9,29.5,9 c3.033,0,5.5,2.467,5.5,5.5c0,0.247-0.022,0.508-0.069,0.822l-0.117,0.782l0.734,0.295C37.645,17.241,39,19.244,39,21.5 c0,3.033-2.467,5.5-5.5,5.5h-27C3.467,27,1,24.533,1,21.5S3.467,16,6.5,16c0.455,0,0.927,0.063,1.401,0.188l0.99,0.26l0.237-0.995 c0.38-1.593,1.598-2.852,3.177-3.287l0.662-0.182l0.068-0.683C13.391,7.709,16.385,5,20,5 M20,4c-4.149,0-7.559,3.159-7.96,7.202 c-1.922,0.529-3.42,2.071-3.885,4.019C7.626,15.082,7.073,15,6.5,15C2.91,15,0,17.91,0,21.5S2.91,28,6.5,28c3.43,0,23.41,0,27,0 s6.5-2.91,6.5-6.5c0-2.734-1.69-5.069-4.08-6.03c0.048-0.317,0.08-0.64,0.08-0.97c0-3.59-2.91-6.5-6.5-6.5 c-0.827,0-1.615,0.161-2.343,0.442C25.847,5.812,23.138,4,20,4L20,4z"/><path fill="#dff0fe" d="M16 26H24V28H16z"/><path fill="#4788c7" d="M21,32V19c0-0.552-0.448-1-1-1h0c-0.552,0-1,0.448-1,1v13h-5l6,6l6-6H21z"/><path fill="#4788c7" d="M25.5 27h-2c-.275 0-.5.225-.5.5l0 0c0 .275.225.5.5.5h2c.275 0 .5-.225.5-.5l0 0C26 27.225 25.775 27 25.5 27zM16.5 27h-2c-.275 0-.5.225-.5.5l0 0c0 .275.225.5.5.5h2c.275 0 .5-.225.5-.5l0 0C17 27.225 16.775 27 16.5 27z"/></svg>