<svg xmlns="http://www.w3.org/2000/svg"  viewBox="0 0 40 40" width="80px" height="80px"><path fill="#98ccfd" d="M20,29.5c-5.691,0-10.5-4.809-10.5-10.5c0-4.111,2.14-8.003,3.249-9.743 c0.305,1.325,0.903,3.491,1.825,5.003l0.442,0.725l0.419-0.738c2.636-4.638,4.303-10.323,4.852-12.36 C22.55,3.824,30.5,11.187,30.5,19C30.5,24.888,25.888,29.5,20,29.5z"/><path fill="#4788c7" d="M20.559,2.789C23.323,5.26,30,11.961,30,19c0,5.607-4.393,10-10,10c-5.421,0-10-4.579-10-10 c0-3.316,1.451-6.505,2.559-8.456c0.35,1.27,0.875,2.807,1.587,3.977l0.884,1.451l0.839-1.477 C18.281,10.251,19.859,5.268,20.559,2.789 M20,1c0,0-1.741,7.265-5,13c-1.35-2.216-2-6-2-6s-4,5.246-4,11s4.882,11,11,11 s11-4.882,11-11C31,9.579,20,1,20,1L20,1z"/><path fill="#dff0fe" d="M14,24c0-5.231,6-5.464,6-13.077c2.61,3.913,6,7.294,6,13.077c0,3.926-2.941,6-6,6S14,27.981,14,24z"/><path fill="#fff" d="M17.231,26.154c0-1.529,2.769-5.538,2.769-5.538s2.769,4.009,2.769,5.538 c0,1.529-1.24,2.769-2.769,2.769C18.471,28.923,17.231,27.683,17.231,26.154z"/><path fill="#b6dcfe" d="M2.5 23.5H37.5V37.5H2.5z"/><path fill="#4788c7" d="M37,24v13H3V24H37 M38,23H2v15h36V23L38,23z"/><path fill="#b6dcfe" d="M16.5 23.5H30.5V30.5H16.5z"/><path fill="#4788c7" d="M30,24v6H17v-6H30 M31,23H16v8h15V23L31,23z"/><g><path fill="#b6dcfe" d="M2.5 23.5H16.5V30.5H2.5z"/><path fill="#4788c7" d="M16,24v6H3v-6H16 M17,23H2v8h15V23L17,23z"/></g><g><path fill="#b6dcfe" d="M23.5 30.5H37.5V37.5H23.5z"/><path fill="#4788c7" d="M37,31v6H24v-6H37 M38,30H23v8h15V30L38,30z"/></g><g><path fill="#b6dcfe" d="M9.5 30.5H23.5V37.5H9.5z"/><path fill="#4788c7" d="M23,31v6H10v-6H23 M24,30H9v8h15V30L24,30z"/></g></svg>