<svg xmlns="http://www.w3.org/2000/svg"  viewBox="0 0 40 40" width="40px" height="40px"><path fill="#dff0fe" d="M15.5,20.5h-14v12.148l14,1.921V20.5z M15.5,4.589l-14,1.965V18.5h14V4.589z M17.5,4.241V18.5h20 v-17L17.5,4.241z M17.5,20.5v14.276l20,2.811V20.5H17.5z"/><path fill="#4788c7" d="M37.5,38.086c-0.023,0-0.046-0.001-0.069-0.005l-20-2.811C17.184,35.236,17,35.025,17,34.776V20.5 c0-0.276,0.224-0.5,0.5-0.5h20c0.276,0,0.5,0.224,0.5,0.5v17.086c0,0.145-0.063,0.282-0.172,0.377 C37.736,38.043,37.62,38.086,37.5,38.086z M18,34.341l19,2.67V21H18V34.341z M15.5,35.069c-0.022,0-0.045-0.001-0.068-0.005 l-14-1.921C1.185,33.109,1,32.897,1,32.647V20.5C1,20.224,1.224,20,1.5,20h14c0.276,0,0.5,0.224,0.5,0.5v14.069 c0,0.145-0.063,0.282-0.171,0.377C15.737,35.025,15.62,35.069,15.5,35.069z M2,32.211l13,1.784V21H2V32.211z M37.5,19h-20 c-0.276,0-0.5-0.224-0.5-0.5V4.241c0-0.25,0.185-0.461,0.432-0.496l20-2.741c0.141-0.018,0.287,0.024,0.396,0.119 C37.938,1.218,38,1.355,38,1.5v17C38,18.776,37.776,19,37.5,19z M18,18h19V2.073L18,4.677V18z M15.5,19h-14 C1.224,19,1,18.776,1,18.5V6.554c0-0.25,0.184-0.46,0.431-0.495l14-1.965c0.143-0.023,0.288,0.023,0.397,0.118 C15.938,4.307,16,4.444,16,4.589V18.5C16,18.776,15.776,19,15.5,19z M2,18h13V5.164L2,6.989V18z"/></svg>