<svg xmlns="http://www.w3.org/2000/svg"  viewBox="0 0 40 40" width="80px" height="80px"><path fill="#b6dcfe" d="M10.747 39.5L17.747 22.5 8.732 22.5 17.341 0.5 31.167 0.5 23.167 15.5 31.894 15.5 10.774 39.5z"/><path fill="#4788c7" d="M30.333,1l-7.216,13.529L22.333,16H24h6.788L12.325,36.981l5.6-13.6L18.493,22H17H9.465l8.217-21 H30.333 M32,0H17L8,23h9l-7,17h1l22-25h-9L32,0L32,0z"/><path fill="#fff" d="M19.167 1.37L19.178 1.343 19.187 1.315 19.292 1 17.678 1 9.475 22 11.112 22zM19.431 23.761L19.999 22.381 20.156 22 18.493 22 17.925 23.381 12.325 36.981 15.45 33.43z"/></svg>