<svg xmlns="http://www.w3.org/2000/svg"  viewBox="0 0 40 40" width="80px" height="80px"><path fill="#dff0fe" d="M2 2H38V38H2z"/><path fill="#4788c7" d="M28.5 38h-7c-.275 0-.5-.225-.5-.5l0 0c0-.275.225-.5.5-.5h7c.275 0 .5.225.5.5l0 0C29 37.775 28.775 38 28.5 38zM18.5 38h-7c-.275 0-.5-.225-.5-.5l0 0c0-.275.225-.5.5-.5h7c.275 0 .5.225.5.5l0 0C19 37.775 18.775 38 18.5 38zM28.5 3h-7C21.225 3 21 2.775 21 2.5v0C21 2.225 21.225 2 21.5 2h7C28.775 2 29 2.225 29 2.5v0C29 2.775 28.775 3 28.5 3zM18.5 3h-7C11.225 3 11 2.775 11 2.5v0C11 2.225 11.225 2 11.5 2h7C18.775 2 19 2.225 19 2.5v0C19 2.775 18.775 3 18.5 3zM38 38h-6.5c-.275 0-.5-.225-.5-.5l0 0c0-.275.225-.5.5-.5H38V38z"/><path fill="#4788c7" d="M37 38v-6.5c0-.275.225-.5.5-.5l0 0c.275 0 .5.225.5.5V38H37zM38 2v6.5C38 8.775 37.775 9 37.5 9l0 0C37.225 9 37 8.775 37 8.5V2H38z"/><path fill="#4788c7" d="M38 3h-6.5C31.225 3 31 2.775 31 2.5v0C31 2.225 31.225 2 31.5 2H38V3zM2 2h6.5C8.775 2 9 2.225 9 2.5v0C9 2.775 8.775 3 8.5 3H2V2z"/><path fill="#4788c7" d="M3 2v6.5C3 8.775 2.775 9 2.5 9h0C2.225 9 2 8.775 2 8.5V2H3zM2 38v-6.5C2 31.225 2.225 31 2.5 31h0C2.775 31 3 31.225 3 31.5V38H2z"/><path fill="#4788c7" d="M2 37h6.5C8.775 37 9 37.225 9 37.5l0 0C9 37.775 8.775 38 8.5 38H2V37zM37.5 29L37.5 29c-.275 0-.5-.225-.5-.5v-7c0-.275.225-.5.5-.5l0 0c.275 0 .5.225.5.5v7C38 28.775 37.775 29 37.5 29zM37.5 19L37.5 19c-.275 0-.5-.225-.5-.5v-7c0-.275.225-.5.5-.5l0 0c.275 0 .5.225.5.5v7C38 18.775 37.775 19 37.5 19zM2.5 19L2.5 19C2.225 19 2 18.775 2 18.5v-7C2 11.225 2.225 11 2.5 11h0C2.775 11 3 11.225 3 11.5v7C3 18.775 2.775 19 2.5 19zM2.5 29L2.5 29C2.225 29 2 28.775 2 28.5v-7C2 21.225 2.225 21 2.5 21h0C2.775 21 3 21.225 3 21.5v7C3 28.775 2.775 29 2.5 29zM29.5 13h-19c-.276 0-.5-.224-.5-.5v0c0-.276.224-.5.5-.5h19c.276 0 .5.224.5.5v0C30 12.776 29.776 13 29.5 13zM23.5 17h-13c-.276 0-.5-.224-.5-.5v0c0-.276.224-.5.5-.5h13c.276 0 .5.224.5.5v0C24 16.776 23.776 17 23.5 17zM29.5 21h-19c-.276 0-.5-.224-.5-.5v0c0-.276.224-.5.5-.5h19c.276 0 .5.224.5.5v0C30 20.776 29.776 21 29.5 21zM23.5 25h-13c-.276 0-.5-.224-.5-.5v0c0-.276.224-.5.5-.5h13c.276 0 .5.224.5.5v0C24 24.776 23.776 25 23.5 25zM29.5 29h-19c-.276 0-.5-.224-.5-.5v0c0-.276.224-.5.5-.5h19c.276 0 .5.224.5.5v0C30 28.776 29.776 29 29.5 29z"/></svg>