<svg xmlns="http://www.w3.org/2000/svg"  viewBox="0 0 40 40" width="80px" height="80px"><path fill="#98ccfd" d="M30.5,35.5v-0.274c0.61-0.353,1-1.008,1-1.726c0-1.103-0.897-2-2-2s-2,0.897-2,2v2h-15v-2 c0-1.103-0.897-2-2-2s-2,0.897-2,2c0,0.718,0.39,1.373,1,1.726V35.5h-8v-31h37v31H30.5z"/><path fill="#4788c7" d="M38,5v30h-6.505C31.815,34.576,32,34.053,32,33.5c0-1.379-1.121-2.5-2.5-2.5S27,32.121,27,33.5V35 H13v-1.5c0-1.379-1.121-2.5-2.5-2.5S8,32.121,8,33.5c0,0.553,0.185,1.076,0.505,1.5H2V5H38 M39,4H1v32h9v-1.092 c-0.581-0.207-1-0.756-1-1.408c0-0.828,0.672-1.5,1.5-1.5s1.5,0.672,1.5,1.5V36h16v-2.5c0-0.828,0.672-1.5,1.5-1.5 s1.5,0.672,1.5,1.5c0,0.652-0.419,1.202-1,1.408V36h9V4L39,4z"/><path fill="#fff" d="M12 11A4 4 0 1 0 12 19 4 4 0 1 0 12 11zM18 26H6c0-3.314 2.686-6 6-6S18 22.686 18 26zM33 16H23c-.552 0-1-.448-1-1v0c0-.552.448-1 1-1h10c.552 0 1 .448 1 1v0C34 15.552 33.552 16 33 16zM33 20H23c-.552 0-1-.448-1-1v0c0-.552.448-1 1-1h10c.552 0 1 .448 1 1v0C34 19.552 33.552 20 33 20zM33 24H23c-.552 0-1-.448-1-1v0c0-.552.448-1 1-1h10c.552 0 1 .448 1 1v0C34 23.552 33.552 24 33 24z"/></svg>