<svg xmlns="http://www.w3.org/2000/svg"  viewBox="0 0 40 40" width="80px" height="80px"><path fill="#dff0fe" d="M8.5 1.5H31.5V38.5H8.5z"/><path fill="#4788c7" d="M31,2v36H9V2H31 M32,1H8v38h24V1L32,1z"/><path fill="#98ccfd" d="M12.5 5.5H27.5V23.5H12.5z"/><path fill="#4788c7" d="M27,6v17H13V6H27 M28,5H12v19h16V5L28,5z"/><path fill="#4788c7" d="M19.5 3.5H20.5V19.5H19.5z" transform="rotate(90 20 11.5)"/><path fill="#4788c7" d="M19.5 9.5H20.5V25.5H19.5z" transform="rotate(90 20 17.5)"/><path fill="#fff" d="M22 14.5L22 14.5c0-.276.224-.5.5-.5h2c.276 0 .5.224.5.5v0c0 .276-.224.5-.5.5h-2C22.224 15 22 14.776 22 14.5zM22 20.5L22 20.5c0-.276.224-.5.5-.5h2c.276 0 .5.224.5.5v0c0 .276-.224.5-.5.5h-2C22.224 21 22 20.776 22 20.5zM22 8.5L22 8.5C22 8.224 22.224 8 22.5 8h2C24.776 8 25 8.224 25 8.5v0C25 8.776 24.776 9 24.5 9h-2C22.224 9 22 8.776 22 8.5z"/><g><path fill="#98ccfd" d="M20 27.5A2.5 2.5 0 1 0 20 32.5A2.5 2.5 0 1 0 20 27.5Z"/><path fill="#4788c7" d="M20,28c1.103,0,2,0.897,2,2s-0.897,2-2,2s-2-0.897-2-2S18.897,28,20,28 M20,27 c-1.657,0-3,1.343-3,3s1.343,3,3,3s3-1.343,3-3S21.657,27,20,27L20,27z"/></g></svg>