<?xml version="1.0" encoding="UTF-8" standalone="no"?>
<!DOCTYPE svg PUBLIC "-//W3C//DTD SVG 1.1//EN" "http://www.w3.org/Graphics/SVG/1.1/DTD/svg11.dtd">
<svg width="100%" height="100%" viewBox="0 0 48 48" version="1.1" xmlns="http://www.w3.org/2000/svg" xmlns:xlink="http://www.w3.org/1999/xlink" xml:space="preserve" xmlns:serif="http://www.serif.com/" style="fill-rule:evenodd;clip-rule:evenodd;stroke-linejoin:round;stroke-miterlimit:2;">
    <g id="surface100774253">
        <path d="M7.305,19.719L16.883,19.719L12.262,6.695L7.305,19.719Z" style="fill:rgb(152,204,253);fill-rule:nonzero;"/>
        <path d="M31.082,19.719L40.656,19.719L36.039,6.695L31.082,19.719Z" style="fill:rgb(152,204,253);fill-rule:nonzero;"/>
        <path d="M25.656,39.785L40.898,20.031L42.766,26.477C42.766,26.477 43.051,28.008 41.039,29.031C39.031,30.051 25.656,39.785 25.656,39.785Z" style="fill:rgb(254,254,254);fill-rule:nonzero;"/>
        <path d="M22.289,39.785L7.051,20.031L5.184,26.477C5.184,26.477 4.895,28.008 6.906,29.031C8.914,30.051 22.289,39.785 22.289,39.785Z" style="fill:rgb(254,254,254);fill-rule:nonzero;"/>
        <path d="M16.945,20.156L23.902,40.871L31.18,20.031L16.945,20.156Z" style="fill:rgb(152,204,253);fill-rule:nonzero;"/>
        <path d="M7.305,20.031L16.848,20.031L24.094,41.316L7.305,20.031Z" style="fill:rgb(223,239,253);fill-rule:nonzero;"/>
        <path d="M40.898,20.031L31.355,20.031L24.109,41.316L40.898,20.031Z" style="fill:rgb(223,239,253);fill-rule:nonzero;"/>
        <path d="M42.777,24.066C42.184,21.93 41.535,19.813 40.832,17.711C40.129,15.609 39.371,13.527 38.563,11.465C38.156,10.434 37.738,9.406 37.309,8.387C37.121,7.945 36.934,7.508 36.742,7.066C36.605,6.75 36.484,6.301 36.156,6.117C35.051,5.488 34.605,8.164 34.406,8.738C33.699,10.777 32.934,12.777 32.418,14.875C32.035,16.441 31.5,17.957 30.941,19.465C29.188,19.563 27.43,19.703 25.68,19.723C23.586,19.738 21.477,19.586 19.383,19.52C18.652,19.496 17.922,19.473 17.191,19.449C16.848,18.48 16.52,17.504 16.199,16.527C15.512,14.402 14.855,12.27 14.188,10.141C13.906,9.246 13.609,8.359 13.344,7.465C13.211,7.027 13.066,6.34 12.617,6.109C11.934,5.762 11.621,6.594 11.414,7.066C10.988,8.051 10.574,9.039 10.172,10.031C9.336,12.086 8.555,14.156 7.828,16.25C7.02,18.566 6.281,20.906 5.605,23.266C5.113,25 3.965,27.797 6.027,28.977C8.336,30.402 10.52,31.953 12.648,33.637C16.285,36.512 20.051,39.215 23.828,41.902C23.895,41.945 23.961,41.965 24.031,41.969C24.047,41.973 24.063,41.973 24.082,41.973C24.098,41.973 24.117,41.973 24.133,41.969C24.203,41.965 24.27,41.945 24.336,41.898C28.109,39.211 31.879,36.512 35.516,33.637C37.645,31.953 39.828,30.402 42.137,28.973C43.945,27.934 43.223,25.66 42.777,24.066ZM31.641,20.434C34.434,20.438 37.227,20.457 40.02,20.434C38.848,22.023 37.566,23.527 36.305,25.047C34.93,26.703 33.648,28.406 32.414,30.172C30.223,33.316 27.633,36.16 25.352,39.246C26.391,36.211 27.492,33.199 28.492,30.152C29.109,28.273 29.613,26.367 30.199,24.48C30.621,23.113 31.133,21.773 31.641,20.434ZM33.789,13.586C34.34,11.727 35.102,9.938 35.676,8.09C35.734,7.902 35.785,7.711 35.848,7.523C35.879,7.586 35.91,7.641 35.93,7.68C36.023,7.898 36.117,8.117 36.211,8.336C36.426,8.84 36.637,9.348 36.848,9.855C37.613,11.723 38.336,13.609 39.016,15.508C39.477,16.809 39.914,18.117 40.336,19.434C37.563,19.457 34.785,19.438 32.012,19.434C32.059,19.305 32.109,19.176 32.156,19.047C32.813,17.25 33.246,15.414 33.789,13.586ZM28.074,20.602C28.902,20.563 29.73,20.52 30.559,20.48C30.504,20.625 30.449,20.77 30.395,20.914C29.637,22.93 29.039,24.965 28.43,27.027C27.141,31.352 25.543,35.574 24.102,39.848C23.012,36.215 22.137,32.523 20.641,29.023C19.766,26.973 19.184,24.813 18.387,22.73C18.102,21.98 17.828,21.223 17.555,20.465C21.063,20.59 24.566,20.777 28.074,20.602ZM8.594,17.078C9.234,15.207 9.922,13.348 10.648,11.508C11.016,10.57 11.398,9.641 11.789,8.711C11.961,8.305 12.137,7.902 12.313,7.496C12.859,8.961 13.254,10.512 13.719,12.004C14.324,13.941 14.93,15.887 15.57,17.816C15.75,18.355 15.941,18.891 16.133,19.426C13.367,19.348 10.59,19.313 7.82,19.422C8.074,18.641 8.328,17.855 8.594,17.078ZM12.98,32.633C10.914,30.988 8.773,29.5 6.527,28.109C5.629,27.594 5.785,26.445 6,25.594C6.242,24.633 6.523,23.684 6.801,22.734C6.973,22.145 7.156,21.559 7.336,20.973C9.484,23.512 11.617,26.066 13.625,28.715C15.449,31.125 17.117,33.648 18.945,36.055C19.594,36.91 20.25,37.754 20.918,38.594C18.23,36.66 15.566,34.695 12.98,32.633ZM16.969,31.645C15.344,29.316 13.633,27.059 11.848,24.848C10.641,23.355 9.406,21.883 8.164,20.414C10.93,20.316 13.703,20.355 16.469,20.434C16.477,20.434 16.48,20.43 16.488,20.43C16.852,21.434 17.223,22.438 17.594,23.441C18.27,25.277 18.789,27.168 19.547,28.977C20.977,32.41 21.902,35.977 22.961,39.523C20.879,36.961 18.859,34.355 16.969,31.645ZM35.18,32.633C32.473,34.785 29.688,36.836 26.879,38.855C28.988,36.109 31.297,33.52 33.281,30.676C34.551,28.855 35.879,27.113 37.301,25.406C38.508,23.961 39.711,22.512 40.828,20.996C40.914,21.273 41.008,21.547 41.09,21.824C41.418,22.922 41.734,24.023 42.035,25.133C42.293,26.082 42.695,27.5 41.629,28.109C39.387,29.5 37.242,30.992 35.18,32.633Z" style="fill:rgb(71,136,199);fill-rule:nonzero;"/>
    </g>
</svg>
