<svg xmlns="http://www.w3.org/2000/svg"  viewBox="0 0 40 40" width="80px" height="80px"><path fill="#dff0fe" d="M1.5 30.167L1.5 22.72 5.474 4.5 34.526 4.5 38.5 22.72 38.5 30.167z"/><path fill="#4788c7" d="M34.123,5L38,22.774v6.892H2v-6.892L5.877,5H34.123 M34.929,4H5.071L1,22.666v8h38v-8L34.929,4L34.929,4z"/><path fill="#b6dcfe" d="M34.929,32H5.071v-8.91L8.363,8h23.274l3.291,15.09L34.929,32L34.929,32z"/><path fill="#dff0fe" d="M1.5,35.5v-13h13.022C14.508,22.667,14.5,22.833,14.5,23c0,3.033,2.468,5.5,5.5,5.5s5.5-2.467,5.5-5.5c0-0.167-0.008-0.333-0.022-0.5H38.5v13H1.5z"/><path fill="#4788c7" d="M38,23v12H2V23h12c0,3.308,2.692,6,6,6s6-2.692,6-6H38 M38,22H24.899C24.965,22.323,25,22.657,25,23c0,2.761-2.239,5-5,5s-5-2.239-5-5c0-0.343,0.035-0.677,0.101-1H2l-1,1v13h38V23L38,22z"/></svg>