<svg xmlns="http://www.w3.org/2000/svg"  viewBox="0 0 40 40" width="80px" height="80px"><path fill="#dff0fe" d="M20,38.5c-7.859,0-14.5-2.748-14.5-6V7h29v25.5C34.5,35.752,27.859,38.5,20,38.5z"/><path fill="#4788c7" d="M34,7.5v25c0,2.601-5.75,5.5-14,5.5S6,35.101,6,32.5v-25H34 M35,6.5H5c0,1.29,0,24.71,0,26c0,3.59,6.716,6.5,15,6.5s15-2.91,15-6.5C35,31.21,35,7.79,35,6.5L35,6.5z"/><path fill="none" stroke="#4788c7" stroke-miterlimit="10" d="M34.5,15.183c0,2.936-6.492,5.317-14.5,5.317S5.5,18.12,5.5,15.183"/><path fill="#dff0fe" d="M35,32.5c0-0.662,0-7.16,0-13.5h-2l-6,3v6h-7.161l5.207,10.615C30.844,37.716,35,35.321,35,32.5z"/><path fill="#4788c7" d="M34.5,17L34.5,17c0.275,0,0.5,0.225,0.5,0.5v2c0,0.275-0.225,0.5-0.5,0.5l0,0c-0.275,0-0.5-0.225-0.5-0.5v-2C34,17.225,34.225,17,34.5,17z"/><path fill="none" stroke="#4788c7" stroke-linecap="round" stroke-miterlimit="10" d="M5.5,23.217c0,3.47,6.492,6.283,14.5,6.283c0.478,0,0.95-0.01,1.415-0.03"/><path fill="none" stroke="#4788c7" stroke-linecap="round" stroke-miterlimit="10" d="M26.532,37.833C24.557,38.258,22.332,38.5,20,38.5c-7.859,0-14.5-2.748-14.5-6V7h29"/><path fill="#98ccfd" d="M25.04 30.5L29.5 30.5 29.5 22.5 34.5 22.5 34.5 30.5 38.96 30.5 32 39.2z"/><path fill="#4788c7" d="M34,23v7v1h1h2.919L32,38.399L26.081,31H29h1v-1v-7H34 M35,22h-6v8h-5l8,10l8-10h-5V22L35,22z"/><path fill="#dff0fe" d="M20,11.5c-8.674,0-14.5-2.585-14.5-5s5.826-5,14.5-5s14.5,2.585,14.5,5S28.674,11.5,20,11.5z"/><path fill="#4788c7" d="M20,2c8.674,0,14,2.621,14,4.5S28.674,11,20,11S6,8.379,6,6.5S11.326,2,20,2 M20,1C11.716,1,5,3.462,5,6.5S11.716,12,20,12s15-2.462,15-5.5S28.284,1,20,1L20,1z"/></svg>