<svg xmlns="http://www.w3.org/2000/svg"  viewBox="0 0 40 40" width="80px" height="80px"><path fill="#dff0fe" d="M1.5 1.5H26.5V26.5H1.5z"/><path fill="#4788c7" d="M26,2v24H2V2H26 M27,1H1v26h26V1L27,1z"/><path fill="#98ccfd" d="M13.5 38.5L13.5 26.207 26.207 13.5 38.5 13.5 38.5 38.5z"/><path fill="#4788c7" d="M38,14v24H14V26.414L26.414,14H38 M39,13H26L13,26v13h26V13L39,13z"/><path fill="#fff" d="M22.679 28H30.179V31H22.679z"/><path fill="#fff" d="M28.383 20L24.593 20 19.429 34 22.754 34 26.364 22.671 26.492 22.671 30.104 34 33.429 34z"/><path fill="none" stroke="#4788c7" stroke-miterlimit="10" stroke-width="2" d="M7 10L21 10M14 6L14 10M19 10c0 0-2.376 10-12 10M9 13c0 0 3.451 5 9 5"/></svg>