<svg xmlns="http://www.w3.org/2000/svg"  viewBox="0 0 40 40" width="80px" height="80px"><path fill="#4788c7" d="M25,10c-1.105,0-2,0.895-2,2c0,1.105,0.895,2,2,2s2-1.562,2-2.667S26.105,10,25,10z M15,10 c-1.105,0-2,0.229-2,1.333S13.895,14,15,14s2-0.895,2-2C17,10.895,16.105,10,15,10z"/><path fill="#dff0fe" d="M20,18.5c-0.4,0-0.78-0.182-1.044-0.498l-0.105-0.126l-0.16-0.04 c-2.467-0.604-4.19-2.798-4.19-5.336V7.243c0-1.301,1.059-2.359,2.359-2.359h6.281c1.301,0,2.359,1.059,2.359,2.359V12.5 c0,2.538-1.723,4.732-4.19,5.336l-0.16,0.04l-0.105,0.126C20.78,18.318,20.4,18.5,20,18.5z"/><path fill="#4788c7" d="M23.141,5.384c1.025,0,1.859,0.834,1.859,1.86V12.5c0,2.307-1.567,4.302-3.81,4.85l-0.32,0.078 l-0.211,0.253C20.561,17.801,20.343,18,20,18s-0.561-0.199-0.66-0.318l-0.211-0.253l-0.32-0.078C16.567,16.802,15,14.807,15,12.5 V7.243c0-1.025,0.834-1.86,1.859-1.86H23.141 M23.141,4.384h-6.281C15.28,4.384,14,5.664,14,7.243V12.5 c0,2.821,1.949,5.18,4.572,5.822C18.914,18.733,19.423,19,20,19s1.086-0.267,1.428-0.678C24.051,17.68,26,15.321,26,12.5V7.243 C26,5.664,24.72,4.384,23.141,4.384L23.141,4.384z"/><path fill="#b6dcfe" d="M25.5,12.5V11c0-2.703-2.189-4.146-2.283-4.206l-0.332-0.213l-0.285,0.272 c-0.013,0.012-1.511,1.378-4.663,1.378c-1.711,0-3.437,1.025-3.437,3.315V12.5h-0.119C14.133,11.562,13.5,8.98,13.5,7 c0-2.733,2.12-5.5,6.173-5.5c2.17,0,2.834,1.612,2.861,1.681l0.125,0.316L23,3.5c1.467,0,3.5,1.24,3.5,3.568 c0,1.809-0.637,4.467-0.885,5.432H25.5z"/><path fill="#4788c7" d="M19.673 2c1.779 0 2.339 1.229 2.393 1.356L22.311 4H23c1.046 0 3 .9 3 3.068 0 .703-.101 1.544-.237 2.36-.61-1.959-2.192-3.001-2.274-3.054l-.656-.409-.569.519c-.056.051-1.402 1.248-4.326 1.248-1.71 0-3.04.854-3.62 2.204C14.142 8.981 14 7.921 14 7 14 4.515 15.949 2 19.673 2M19.673 1C15.455 1 13 3.872 13 7c0 2.555 1 6 1 6h1c0 0 0-.75 0-1.453 0-1.931 1.399-2.816 2.937-2.816 3.423 0 5.009-1.517 5.009-1.517S25 8.539 25 11c0 .773 0 2 0 2h1c0 0 1-3.603 1-5.932C27 4.414 24.685 3 23 3 23 3 22.238 1 19.673 1L19.673 1zM1 26H39V27H1z"/><path fill="#dff0fe" d="M8,38.5c-1.93,0-3.5-1.57-3.5-3.5v-7.5h31V35c0,1.93-1.57,3.5-3.5,3.5H8z"/><path fill="#4788c7" d="M35,28v7c0,1.654-1.346,3-3,3H8c-1.654,0-3-1.346-3-3v-7H35 M36,27H4v8c0,2.209,1.791,4,4,4h24 c2.209,0,4-1.791,4-4V27L36,27z"/><path fill="#98ccfd" d="M4.5 22.5H35.5V28.5H4.5z"/><path fill="#4788c7" d="M35,23v5H5v-5H35 M36,22H4v7h32V22L36,22z"/><g><path fill="#fff" d="M8.5 17.5H31.5V25.5H8.5z"/><path fill="#4788c7" d="M31,18v7H9v-7H31 M32,17H8v9h24V17L32,17z"/></g><path fill="#4788c7" d="M2 29L2 29c-.55 0-1-.45-1-1v-3c0-.55.45-1 1-1h0c.55 0 1 .45 1 1v3C3 28.55 2.55 29 2 29zM38 29L38 29c-.55 0-1-.45-1-1v-3c0-.55.45-1 1-1l0 0c.55 0 1 .45 1 1v3C39 28.55 38.55 29 38 29z"/></svg>