<svg xmlns="http://www.w3.org/2000/svg"  viewBox="0 0 40 40" width="80px" height="80px"><path fill="#4788c7" d="M20,16c2.206,0,4,1.794,4,4s-1.794,4-4,4s-4-1.794-4-4S17.794,16,20,16 M20,13 c-3.866,0-7,3.134-7,7s3.134,7,7,7s7-3.134,7-7S23.866,13,20,13L20,13z"/><path fill="#98ccfd" d="M20,9c6.065,0,11,4.935,11,11s-4.935,11-11,11S9,26.065,9,20S13.935,9,20,9 M20,7 C12.82,7,7,12.82,7,20s5.82,13,13,13s13-5.82,13-13S27.18,7,20,7L20,7z"/><path fill="#4788c7" d="M20 1A1 1 0 1 0 20 3 1 1 0 1 0 20 1zM20 37A1 1 0 1 0 20 39 1 1 0 1 0 20 37z"/><path fill="#4788c7" d="M20 1A1 1 0 1 0 20 3 1 1 0 1 0 20 1zM20 37A1 1 0 1 0 20 39 1 1 0 1 0 20 37zM38 19A1 1 0 1 0 38 21 1 1 0 1 0 38 19zM2 19A1 1 0 1 0 2 21 1 1 0 1 0 2 19z"/><path fill="#4788c7" d="M32.728 6.272A1 1 0 1 0 32.728 8.272A1 1 0 1 0 32.728 6.272Z" transform="rotate(-45.001 32.728 7.272)"/><path fill="#4788c7" d="M7.272 31.728A1 1 0 1 0 7.272 33.728A1 1 0 1 0 7.272 31.728Z" transform="rotate(-45.001 7.272 32.728)"/><path fill="#4788c7" d="M32.728 6.272A1 1 0 1 0 32.728 8.272A1 1 0 1 0 32.728 6.272Z" transform="rotate(-45.001 32.728 7.272)"/><path fill="#4788c7" d="M7.272 31.728A1 1 0 1 0 7.272 33.728A1 1 0 1 0 7.272 31.728Z" transform="rotate(-45.001 7.272 32.728)"/><path fill="#4788c7" d="M32.728 31.728A1 1 0 1 0 32.728 33.728A1 1 0 1 0 32.728 31.728Z" transform="rotate(-45.001 32.728 32.728)"/><path fill="#4788c7" d="M7.272 6.272A1 1 0 1 0 7.272 8.272A1 1 0 1 0 7.272 6.272Z" transform="rotate(-45.001 7.272 7.272)"/><path fill="#4788c7" d="M26.888 2.37A1 1 0 1 0 26.888 4.37A1 1 0 1 0 26.888 2.37Z" transform="rotate(-67.5 26.888 3.37)"/><path fill="#4788c7" d="M13.112 35.63A1 1 0 1 0 13.112 37.63A1 1 0 1 0 13.112 35.63Z" transform="rotate(-67.5 13.112 36.63)"/><path fill="#4788c7" d="M26.888 2.37A1 1 0 1 0 26.888 4.37A1 1 0 1 0 26.888 2.37Z" transform="rotate(-67.5 26.888 3.37)"/><path fill="#4788c7" d="M13.112 35.63A1 1 0 1 0 13.112 37.63A1 1 0 1 0 13.112 35.63Z" transform="rotate(-67.5 13.112 36.63)"/><path fill="#4788c7" d="M36.63 25.888A1 1 0 1 0 36.63 27.888A1 1 0 1 0 36.63 25.888Z" transform="rotate(-67.5 36.63 26.888)"/><path fill="#4788c7" d="M3.37 12.112A1 1 0 1 0 3.37 14.112A1 1 0 1 0 3.37 12.112Z" transform="rotate(-67.5 3.37 13.111)"/><path fill="#4788c7" d="M36.63 12.112A1 1 0 1 0 36.63 14.112A1 1 0 1 0 36.63 12.112Z" transform="rotate(-22.5 36.628 13.111)"/><path fill="#4788c7" d="M3.37 25.888A1 1 0 1 0 3.37 27.888A1 1 0 1 0 3.37 25.888Z" transform="rotate(-22.5 3.37 26.887)"/><path fill="#4788c7" d="M36.63 12.112A1 1 0 1 0 36.63 14.112A1 1 0 1 0 36.63 12.112Z" transform="rotate(-22.5 36.628 13.111)"/><path fill="#4788c7" d="M3.37 25.888A1 1 0 1 0 3.37 27.888A1 1 0 1 0 3.37 25.888Z" transform="rotate(-22.5 3.37 26.887)"/><path fill="#4788c7" d="M26.888 35.63A1 1 0 1 0 26.888 37.63A1 1 0 1 0 26.888 35.63Z" transform="rotate(-22.5 26.887 36.628)"/><path fill="#4788c7" d="M13.112 2.37A1 1 0 1 0 13.112 4.37A1 1 0 1 0 13.112 2.37Z" transform="rotate(-22.5 13.111 3.37)"/><path fill="#4788c7" d="M16.488 1.346A1 1 0 1 0 16.488 3.346A1 1 0 1 0 16.488 1.346Z" transform="rotate(-11.246 16.488 2.344)"/><path fill="#4788c7" d="M23.512 36.654A1 1 0 1 0 23.512 38.654A1 1 0 1 0 23.512 36.654Z" transform="rotate(-11.246 23.514 37.65)"/><path fill="#4788c7" d="M16.488 1.346A1 1 0 1 0 16.488 3.346A1 1 0 1 0 16.488 1.346Z" transform="rotate(-11.246 16.488 2.344)"/><path fill="#4788c7" d="M23.512 36.654A1 1 0 1 0 23.512 38.654A1 1 0 1 0 23.512 36.654Z" transform="rotate(-11.246 23.514 37.65)"/><path fill="#4788c7" d="M37.654 15.488A1 1 0 1 0 37.654 17.488A1 1 0 1 0 37.654 15.488Z" transform="rotate(-11.246 37.654 16.485)"/><path fill="#4788c7" d="M2.346 22.512A1 1 0 1 0 2.346 24.512A1 1 0 1 0 2.346 22.512Z" transform="rotate(-11.246 2.348 23.51)"/><path fill="#4788c7" d="M30 4.034A1 1 0 1 0 30 6.034A1 1 0 1 0 30 4.034Z" transform="rotate(-56.25 30 5.033)"/><path fill="#4788c7" d="M10 33.966A1 1 0 1 0 10 35.966A1 1 0 1 0 10 33.966Z" transform="rotate(-56.25 10 34.965)"/><path fill="#4788c7" d="M30 4.034A1 1 0 1 0 30 6.034A1 1 0 1 0 30 4.034Z" transform="rotate(-56.25 30 5.033)"/><path fill="#4788c7" d="M10 33.966A1 1 0 1 0 10 35.966A1 1 0 1 0 10 33.966Z" transform="rotate(-56.25 10 34.965)"/><path fill="#4788c7" d="M34.966 29A1 1 0 1 0 34.966 31A1 1 0 1 0 34.966 29Z" transform="rotate(-56.25 34.965 30)"/><path fill="#4788c7" d="M5.034 9A1 1 0 1 0 5.034 11A1 1 0 1 0 5.034 9Z" transform="rotate(-56.25 5.033 10)"/><path fill="#4788c7" d="M23.512 1.346A1 1 0 1 0 23.512 3.346A1 1 0 1 0 23.512 1.346Z" transform="rotate(-78.749 23.512 2.346)"/><path fill="#4788c7" d="M16.488 36.654A1 1 0 1 0 16.488 38.654A1 1 0 1 0 16.488 36.654Z" transform="rotate(-78.749 16.489 37.654)"/><path fill="#4788c7" d="M23.512 1.346A1 1 0 1 0 23.512 3.346A1 1 0 1 0 23.512 1.346Z" transform="rotate(-78.749 23.512 2.346)"/><path fill="#4788c7" d="M16.488 36.654A1 1 0 1 0 16.488 38.654A1 1 0 1 0 16.488 36.654Z" transform="rotate(-78.749 16.489 37.654)"/><path fill="#4788c7" d="M37.654 22.512A1 1 0 1 0 37.654 24.512A1 1 0 1 0 37.654 22.512Z" transform="rotate(-78.749 37.654 23.511)"/><path fill="#4788c7" d="M2.346 15.488A1 1 0 1 0 2.346 17.488A1 1 0 1 0 2.346 15.488Z" transform="rotate(-78.749 2.346 16.488)"/><path fill="#4788c7" d="M34.966 9A1 1 0 1 0 34.966 11A1 1 0 1 0 34.966 9Z" transform="rotate(-33.75 34.965 10)"/><path fill="#4788c7" d="M5.034 29A1 1 0 1 0 5.034 31A1 1 0 1 0 5.034 29Z" transform="rotate(-33.75 5.033 29.999)"/><path fill="#4788c7" d="M34.966 9A1 1 0 1 0 34.966 11A1 1 0 1 0 34.966 9Z" transform="rotate(-33.75 34.965 10)"/><path fill="#4788c7" d="M5.034 29A1 1 0 1 0 5.034 31A1 1 0 1 0 5.034 29Z" transform="rotate(-33.75 5.033 29.999)"/><path fill="#4788c7" d="M30 33.966A1 1 0 1 0 30 35.966A1 1 0 1 0 30 33.966Z" transform="rotate(-33.75 29.999 34.965)"/><path fill="#4788c7" d="M10 4.034A1 1 0 1 0 10 6.034A1 1 0 1 0 10 4.034Z" transform="rotate(-33.75 10 5.033)"/></svg>