<svg xmlns="http://www.w3.org/2000/svg"  viewBox="0 0 40 40" width="80px" height="80px"><path fill="#fff" d="M1.5,35.5v-31h37v28.031c0,1.637-1.332,2.969-2.969,2.969H1.5z"/><path fill="#4788c7" d="M38,5v27.531C38,33.893,36.893,35,35.531,35H2V5H38 M39,4H1v32h34.531 C37.447,36,39,34.447,39,32.531V4L39,4z"/><path fill="#b6dcfe" d="M6 9H34V26.875H6z"/><path fill="#dff0fe" d="M6 19H34V27H6zM6 27H34V31H6z"/><path fill="#dff0fe" d="M14.75 15A3.5 3.143 0 1 0 14.75 21.286A3.5 3.143 0 1 0 14.75 15Z"/><path fill="#dff0fe" d="M11.25 15.786000000000001A2.625 2.357 0 1 0 11.25 20.5 2.625 2.357 0 1 0 11.25 15.786000000000001zM20 16.570999999999998A3.5 3.143 0 1 0 20 22.857 3.5 3.143 0 1 0 20 16.570999999999998z"/><path fill="#dff0fe" d="M25.25 15A3.5 3.143 0 1 0 25.25 21.286 3.5 3.143 0 1 0 25.25 15zM32.25 16.572A1.75 1.571 0 1 0 32.25 19.714000000000002 1.75 1.571 0 1 0 32.25 16.572zM7.75 16.572A1.75 1.571 0 1 0 7.75 19.714000000000002 1.75 1.571 0 1 0 7.75 16.572z"/><path fill="#dff0fe" d="M28.75 15.786000000000001A2.625 2.357 0 1 0 28.75 20.5A2.625 2.357 0 1 0 28.75 15.786000000000001Z"/><path fill="#98ccfd" d="M6 27L34 27 34 25.384 25.25 20z"/><path fill="#b6dcfe" d="M27 27L6 27 6 23 14.75 19z"/><path fill="#98ccfd" d="M31 22.5A8.5 8.5 0 1 0 31 39.5A8.5 8.5 0 1 0 31 22.5Z"/><path fill="#4788c7" d="M31,23c4.411,0,8,3.589,8,8s-3.589,8-8,8s-8-3.589-8-8S26.589,23,31,23 M31,22 c-4.971,0-9,4.029-9,9s4.029,9,9,9s9-4.029,9-9S35.971,22,31,22L31,22z"/><path fill="none" stroke="#fff" stroke-miterlimit="10" stroke-width="2" d="M31 36L31 26M26 31L36 31"/></svg>