<svg xmlns="http://www.w3.org/2000/svg"  viewBox="0 0 40 40" width="80px" height="80px"><path fill="#fff" d="M1.5 3.5H38.5V36.5H1.5z"/><path fill="#4788c7" d="M38,4v32H2V4H38 M39,3H1v34h38V3L39,3z"/><path fill="#98ccfd" d="M2 4H38V10H2z"/><g><path fill="#98ccfd" d="M20,32.5c-5.238,0-9.5-4.262-9.5-9.5s4.262-9.5,9.5-9.5s9.5,4.262,9.5,9.5S25.238,32.5,20,32.5z M16.706,28.647l0.667,0.295C18.208,29.313,19.092,29.5,20,29.5c3.584,0,6.5-2.916,6.5-6.5c0-0.909-0.188-1.793-0.558-2.627 l-0.295-0.666L16.706,28.647z M20,16.5c-3.584,0-6.5,2.916-6.5,6.5c0,0.922,0.194,1.821,0.578,2.671l0.298,0.66l8.955-8.955 l-0.659-0.298C21.822,16.695,20.924,16.5,20,16.5z"/><path fill="#4788c7" d="M20,14c4.963,0,9,4.037,9,9s-4.037,9-9,9s-9-4.037-9-9S15.037,14,20,14 M14.219,27.196l1.023-1.023 l7.932-7.932l1.023-1.023l-1.318-0.596C21.963,16.21,20.995,16,20,16c-3.86,0-7,3.14-7,7c0,0.995,0.21,1.963,0.623,2.878 L14.219,27.196 M20,30c3.86,0,7-3.14,7-7c0-0.978-0.202-1.93-0.6-2.83l-0.59-1.333l-1.031,1.031l-7.91,7.91l-1.031,1.031 l1.333,0.59C18.07,29.798,19.022,30,20,30 M20,13c-5.523,0-10,4.477-10,10c0,5.523,4.477,10,10,10s10-4.477,10-10 C30,17.477,25.523,13,20,13L20,13z M14.534,25.466C14.194,24.713,14,23.88,14,23c0-3.314,2.686-6,6-6 c0.88,0,1.713,0.194,2.466,0.534L14.534,25.466L14.534,25.466z M20,29c-0.864,0-1.683-0.186-2.425-0.515l7.91-7.91 C25.814,21.317,26,22.136,26,23C26,26.314,23.314,29,20,29L20,29z"/></g></svg>