<svg xmlns="http://www.w3.org/2000/svg"  viewBox="0 0 40 40" width="80px" height="80px"><path fill="#dff0fe" d="M1.566,35.793l1.408-4.564l11.824-11.825l-0.592-0.591c-0.419-0.418-0.648-0.974-0.648-1.565 s0.229-1.147,0.648-1.566l0.961-0.962l-0.025-0.238c-0.048-0.444-0.071-0.859-0.071-1.267c0-6.459,5.255-11.714,11.714-11.714 l0.333,0.005c6.104,0.168,11.208,5.272,11.377,11.376c0.089,3.195-1.087,6.213-3.312,8.5c-2.225,2.288-5.207,3.547-8.397,3.547 c-0.408,0-0.822-0.023-1.268-0.071l-0.238-0.026l-0.961,0.961c-0.419,0.418-0.975,0.648-1.566,0.648 c-0.591,0-1.147-0.23-1.565-0.648l-0.592-0.592L18.297,27.5H14.5v3.797L13.297,32.5H9.5v3.797l-0.738,0.738l-4.553,1.398 L1.566,35.793z M26.971,5.5c-2.012,0-3.902,0.783-5.324,2.206l-0.354,0.354l10.648,10.648l0.354-0.354 c1.422-1.422,2.205-3.313,2.205-5.324s-0.783-3.902-2.205-5.324C30.873,6.283,28.982,5.5,26.971,5.5z"/><path fill="#4788c7" d="M26.786,2c0.106,0,0.212,0.001,0.318,0.004c5.844,0.162,10.73,5.047,10.891,10.891 c0.085,3.058-1.041,5.948-3.17,8.137c-2.13,2.19-4.985,3.396-8.039,3.396c-0.39,0-0.787-0.022-1.214-0.068l-0.476-0.051 l-0.338,0.338l-0.792,0.792c-0.324,0.324-0.754,0.502-1.212,0.502c-0.458,0-0.888-0.178-1.212-0.502l-0.238-0.238l-0.707-0.707 l-0.707,0.707L18.09,27H15h-1v1v3.09L13.09,32H10H9v1v3.09l-0.504,0.504l-4.147,1.274l-2.216-2.215l1.282-4.158l11.383-11.383 l0.707-0.707l-0.707-0.707l-0.238-0.238c-0.324-0.324-0.502-0.754-0.502-1.212s0.178-0.888,0.502-1.212l0.792-0.792l0.338-0.338 l-0.051-0.476c-0.046-0.427-0.068-0.824-0.068-1.214C15.571,7.031,20.602,2,26.786,2 M31.941,19.414l0.707-0.707 C34.165,17.191,35,15.174,35,13.029s-0.835-4.161-2.352-5.678C31.132,5.835,29.115,5,26.971,5s-4.161,0.835-5.678,2.352 l-0.707,0.707l0.707,0.707l9.941,9.941L31.941,19.414 M26.786,1C20.04,1,14.571,6.468,14.571,13.214 c0,0.447,0.027,0.887,0.074,1.321l-0.792,0.792c-1.06,1.06-1.06,2.779,0,3.839l0.238,0.238L2.533,30.963L1,35.933L4.068,39 l4.96-1.524L10,36.504V33h3.504L15,31.504V28h3.504l2.091-2.091l0.238,0.238c0.53,0.53,1.225,0.795,1.919,0.795 c0.695,0,1.389-0.265,1.919-0.795l0.792-0.792c0.434,0.047,0.874,0.074,1.321,0.074c6.861,0,12.401-5.657,12.209-12.561 c-0.177-6.374-5.49-11.687-11.863-11.863C27.016,1.002,26.9,1,26.786,1L26.786,1z M31.941,18L22,8.059 C23.373,6.686,25.172,6,26.971,6s3.598,0.686,4.971,2.059C34.686,10.804,34.686,15.255,31.941,18L31.941,18z"/><path fill="#98ccfd" d="M16.953,21.754l-11.1,11.1c-0.195,0.195-0.512,0.195-0.707,0h0c-0.195-0.195-0.195-0.512,0-0.707 l11.1-11.1c0.195-0.195,0.512-0.195,0.707,0l0,0C17.148,21.242,17.148,21.559,16.953,21.754z"/><path fill="#4788c7" d="M17.114 18.465H18.114V25.991H17.114z" transform="rotate(-45.001 17.613 22.229)"/></svg>