<?xml version="1.0" encoding="UTF-8"?>
<svg xmlns="http://www.w3.org/2000/svg" xmlns:xlink="http://www.w3.org/1999/xlink" viewBox="0 0 96 96" width="96px" height="96px">
<g id="surface37335734">
<path style="fill-rule:nonzero;fill:rgb(71.372551%,86.274511%,99.607843%);fill-opacity:1;stroke-width:10;stroke-linecap:butt;stroke-linejoin:round;stroke:rgb(27.843139%,53.333336%,78.039217%);stroke-opacity:1;stroke-miterlimit:10;" d="M 158.112511 139.752963 L 13.88749 139.752963 C 6.229656 139.752963 0.00118494 133.642989 0.00118494 126.133275 L 0.00118494 45.866726 C 0.00118494 38.357012 6.229656 32.247038 13.88749 32.247038 L 158.112511 32.247038 C 165.770345 32.247038 171.998816 38.357012 171.998816 45.866726 L 171.998816 126.133275 C 171.998816 133.642989 165.770345 139.752963 158.112511 139.752963 Z M 158.112511 139.752963 " transform="matrix(0.527442,0,0,0.527442,2.64,2.64)"/>
<path style="fill-rule:nonzero;fill:rgb(27.843139%,53.333336%,78.039217%);fill-opacity:1;stroke-width:10;stroke-linecap:butt;stroke-linejoin:round;stroke:rgb(27.843139%,53.333336%,78.039217%);stroke-opacity:1;stroke-miterlimit:10;" d="M 76.401786 118.25326 C 60.982433 118.25326 52.643243 112.498775 48.147783 105.781506 C 51.561963 106.544327 59.316076 107.558953 68.077409 103.685599 C 69.617863 115.853706 78.253294 117.453408 80.171455 118.119951 C 78.94946 118.201417 77.697841 118.25326 76.401786 118.25326 Z M 76.401786 118.25326 " transform="matrix(0.527442,0,0,0.527442,2.64,2.64)"/>
<path style="fill-rule:nonzero;fill:rgb(27.843139%,53.333336%,78.039217%);fill-opacity:1;stroke-width:10;stroke-linecap:butt;stroke-linejoin:round;stroke:rgb(27.843139%,53.333336%,78.039217%);stroke-opacity:1;stroke-miterlimit:10;" d="M 69.980759 104.929812 C 70.447338 105.974062 70.025195 107.344178 68.921696 107.670043 C 62.048901 109.691889 56.131483 109.958506 51.658241 109.958506 C 50.310344 108.677263 49.169815 107.299742 48.207032 105.877784 C 53.583809 105.877784 62.167397 105.625979 67.233122 103.863344 C 68.321808 103.493043 69.514179 103.87075 69.980759 104.929812 Z M 80.563975 101.604505 C 80.563975 103.900374 78.697655 105.766694 76.401786 105.766694 C 74.105917 105.766694 72.239598 103.900374 72.239598 101.604505 C 72.239598 99.308636 74.105917 97.442316 76.401786 97.442316 C 78.697655 97.442316 80.563975 99.308636 80.563975 101.604505 Z M 80.563975 101.604505 " transform="matrix(0.527442,0,0,0.527442,2.64,2.64)"/>
<path style="fill-rule:nonzero;fill:rgb(27.843139%,53.333336%,78.039217%);fill-opacity:1;stroke-width:10;stroke-linecap:butt;stroke-linejoin:round;stroke:rgb(27.843139%,53.333336%,78.039217%);stroke-opacity:1;stroke-miterlimit:10;" d="M 78.482881 101.604505 C 78.482881 102.75244 77.549721 103.685599 76.401786 103.685599 C 75.253852 103.685599 74.320692 102.75244 74.320692 101.604505 C 74.320692 100.45657 75.253852 99.523411 76.401786 99.523411 C 77.549721 99.523411 78.482881 100.45657 78.482881 101.604505 Z M 76.401786 118.25326 C 60.982433 118.25326 52.643243 112.498775 48.147783 105.781506 C 51.561963 106.544327 59.316076 107.558953 68.077409 103.685599 C 69.617863 115.853706 78.253294 117.453408 80.171455 118.119951 C 78.94946 118.201417 77.697841 118.25326 76.401786 118.25326 Z M 76.401786 118.25326 " transform="matrix(0.527442,0,0,0.527442,2.64,2.64)"/>
<path style="fill-rule:nonzero;fill:rgb(27.843139%,53.333336%,78.039217%);fill-opacity:1;stroke-width:10;stroke-linecap:butt;stroke-linejoin:round;stroke:rgb(27.843139%,53.333336%,78.039217%);stroke-opacity:1;stroke-miterlimit:10;" d="M 69.980759 104.929812 C 70.447338 105.974062 70.025195 107.344178 68.921696 107.670043 C 62.048901 109.691889 56.131483 109.958506 51.658241 109.958506 C 50.310344 108.677263 49.169815 107.299742 48.207032 105.877784 C 53.583809 105.877784 62.167397 105.625979 67.233122 103.863344 C 68.321808 103.493043 69.514179 103.87075 69.980759 104.929812 Z M 80.563975 101.604505 C 80.563975 103.900374 78.697655 105.766694 76.401786 105.766694 C 74.105917 105.766694 72.239598 103.900374 72.239598 101.604505 C 72.239598 99.308636 74.105917 97.442316 76.401786 97.442316 C 78.697655 97.442316 80.563975 99.308636 80.563975 101.604505 Z M 80.563975 101.604505 " transform="matrix(0.527442,0,0,0.527442,2.64,2.64)"/>
<path style="fill-rule:nonzero;fill:rgb(27.843139%,53.333336%,78.039217%);fill-opacity:1;stroke-width:10;stroke-linecap:butt;stroke-linejoin:round;stroke:rgb(27.843139%,53.333336%,78.039217%);stroke-opacity:1;stroke-miterlimit:10;" d="M 78.482881 101.604505 C 78.482881 102.75244 77.549721 103.685599 76.401786 103.685599 C 75.253852 103.685599 74.320692 102.75244 74.320692 101.604505 C 74.320692 100.45657 75.253852 99.523411 76.401786 99.523411 C 77.549721 99.523411 78.482881 100.45657 78.482881 101.604505 Z M 78.482881 101.604505 " transform="matrix(0.527442,0,0,0.527442,2.64,2.64)"/>
<path style="fill-rule:nonzero;fill:rgb(27.843139%,53.333336%,78.039217%);fill-opacity:1;stroke-width:10;stroke-linecap:butt;stroke-linejoin:round;stroke:rgb(27.843139%,53.333336%,78.039217%);stroke-opacity:1;stroke-miterlimit:10;" d="M 115.327878 96.753556 C 109.677077 106.418424 98.29401 118.25326 76.401786 118.25326 C 53.650463 118.25326 46.25184 106.129589 43.926346 96.753556 Z M 120.038113 85.844474 C 119.690029 87.110905 119.016081 89.162375 117.942206 91.621177 C 116.660963 92.576555 115.142727 93.169037 112.876482 93.169037 C 109.291964 93.169037 107.499705 91.82114 105.707445 89.584519 C 103.915186 91.82114 102.122927 93.169037 98.538409 93.169037 C 94.961296 93.169037 93.169037 91.82114 91.376778 89.584519 C 89.584519 91.82114 87.79226 93.169037 84.207741 93.169037 C 80.623223 93.169037 78.830964 91.82114 77.038705 89.584519 C 75.246446 91.82114 73.461593 93.169037 69.877074 93.169037 C 66.292556 93.169037 64.500297 91.82114 62.708038 89.584519 C 60.915778 91.82114 59.123519 93.169037 55.539001 93.169037 C 51.961889 93.169037 50.169629 91.82114 48.37737 89.584519 C 46.962819 91.35456 45.511237 92.532119 43.207962 92.961668 C 42.674727 88.903164 43.000593 86.000001 43.000593 86.000001 C 43.000593 86.000001 45.792666 86.000001 50.169629 86.000001 L 50.169629 75.246446 L 60.915778 75.246446 L 60.915778 64.500297 L 82.415482 64.500297 L 82.415482 53.746742 L 93.169037 53.746742 L 93.169037 75.246446 L 103.915186 75.246446 L 103.915186 86.000001 C 112.047007 86.000001 114.713177 82.741348 114.713177 82.741348 C 112.78761 80.675065 111.150877 77.742278 111.084223 74.357722 C 111.024975 71.343468 112.180315 67.966319 116.009233 64.500297 C 121.023115 69.121659 121.830372 73.461593 121.830372 77.490473 C 123.43748 76.261072 125.866658 75.246446 128.999408 75.246446 C 131.213811 75.246446 133.665207 75.727838 136.168445 76.594343 C 133.93923 85.563045 126.947938 85.96297 122.482102 86.000001 C 121.600785 86.007407 120.778716 85.940752 120.038113 85.844474 Z M 120.038113 85.844474 " transform="matrix(0.527442,0,0,0.527442,2.64,2.64)"/>
<path style="fill-rule:nonzero;fill:rgb(27.843139%,53.333336%,78.039217%);fill-opacity:1;stroke-width:10;stroke-linecap:butt;stroke-linejoin:round;stroke:rgb(27.843139%,53.333336%,78.039217%);stroke-opacity:1;stroke-miterlimit:10;" d="M 115.327878 96.753556 C 116.38694 94.931672 117.260852 93.191255 117.942206 91.621177 C 118.697621 91.058319 119.378976 90.406588 120.038113 89.584519 C 121.830372 91.82114 123.622631 93.169037 127.207149 93.169037 C 127.881098 93.169037 128.443956 93.072759 128.999408 92.983887 L 128.999408 96.753556 Z M 115.327878 96.753556 " transform="matrix(0.527442,0,0,0.527442,2.64,2.64)"/>
<path style=" stroke:none;fill-rule:nonzero;fill:rgb(71.372551%,86.274511%,99.607843%);fill-opacity:1;" d="M 86.035156 76.351562 L 9.964844 76.351562 C 5.925781 76.351562 2.640625 73.128906 2.640625 69.167969 L 2.640625 26.832031 C 2.640625 22.871094 5.925781 19.648438 9.964844 19.648438 L 86.035156 19.648438 C 90.074219 19.648438 93.359375 22.871094 93.359375 26.832031 L 93.359375 69.167969 C 93.359375 73.128906 90.074219 76.351562 86.035156 76.351562 Z M 86.035156 76.351562 "/>
<path style=" stroke:none;fill-rule:nonzero;fill:rgb(27.843139%,53.333336%,78.039217%);fill-opacity:1;" d="M 44.925781 64.941406 C 43.914062 64.589844 39.359375 63.746094 38.546875 57.328125 C 33.925781 59.371094 29.835938 58.835938 28.035156 58.433594 C 30.40625 61.976562 34.804688 65.011719 42.9375 65.011719 C 43.621094 65.011719 44.28125 64.984375 44.925781 64.941406 Z M 44.925781 64.941406 "/>
<path style=" stroke:none;fill-rule:nonzero;fill:rgb(27.843139%,53.333336%,78.039217%);fill-opacity:1;" d="M 38.101562 57.421875 C 35.429688 58.351562 30.902344 58.484375 28.066406 58.484375 C 28.574219 59.234375 29.175781 59.960938 29.886719 60.636719 C 32.246094 60.636719 35.367188 60.496094 38.992188 59.429688 C 39.574219 59.257812 39.796875 58.535156 39.550781 57.984375 C 39.304688 57.425781 38.675781 57.226562 38.101562 57.421875 Z M 42.9375 54.035156 C 41.726562 54.035156 40.742188 55.019531 40.742188 56.230469 C 40.742188 57.441406 41.726562 58.425781 42.9375 58.425781 C 44.148438 58.425781 45.132812 57.441406 45.132812 56.230469 C 45.132812 55.019531 44.148438 54.035156 42.9375 54.035156 Z M 42.9375 54.035156 "/>
<path style=" stroke:none;fill-rule:nonzero;fill:rgb(27.843139%,53.333336%,78.039217%);fill-opacity:1;" d="M 42.9375 55.132812 C 42.332031 55.132812 41.839844 55.625 41.839844 56.230469 C 41.839844 56.835938 42.332031 57.328125 42.9375 57.328125 C 43.542969 57.328125 44.035156 56.835938 44.035156 56.230469 C 44.035156 55.625 43.542969 55.132812 42.9375 55.132812 Z M 44.925781 64.941406 C 43.914062 64.589844 39.359375 63.746094 38.546875 57.328125 C 33.925781 59.371094 29.835938 58.835938 28.035156 58.433594 C 30.40625 61.976562 34.804688 65.011719 42.9375 65.011719 C 43.621094 65.011719 44.28125 64.984375 44.925781 64.941406 Z M 44.925781 64.941406 "/>
<path style=" stroke:none;fill-rule:nonzero;fill:rgb(27.843139%,53.333336%,78.039217%);fill-opacity:1;" d="M 38.101562 57.421875 C 35.429688 58.351562 30.902344 58.484375 28.066406 58.484375 C 28.574219 59.234375 29.175781 59.960938 29.886719 60.636719 C 32.246094 60.636719 35.367188 60.496094 38.992188 59.429688 C 39.574219 59.257812 39.796875 58.535156 39.550781 57.984375 C 39.304688 57.425781 38.675781 57.226562 38.101562 57.421875 Z M 42.9375 54.035156 C 41.726562 54.035156 40.742188 55.019531 40.742188 56.230469 C 40.742188 57.441406 41.726562 58.425781 42.9375 58.425781 C 44.148438 58.425781 45.132812 57.441406 45.132812 56.230469 C 45.132812 55.019531 44.148438 54.035156 42.9375 54.035156 Z M 42.9375 54.035156 "/>
<path style=" stroke:none;fill-rule:nonzero;fill:rgb(27.843139%,53.333336%,78.039217%);fill-opacity:1;" d="M 42.9375 55.132812 C 42.332031 55.132812 41.839844 55.625 41.839844 56.230469 C 41.839844 56.835938 42.332031 57.328125 42.9375 57.328125 C 43.542969 57.328125 44.035156 56.835938 44.035156 56.230469 C 44.035156 55.625 43.542969 55.132812 42.9375 55.132812 Z M 42.9375 55.132812 "/>
<path style=" stroke:none;fill-rule:nonzero;fill:rgb(27.843139%,53.333336%,78.039217%);fill-opacity:1;" d="M 50.835938 53.671875 L 25.808594 53.671875 C 27.035156 58.617188 30.9375 65.011719 42.9375 65.011719 C 54.484375 65.011719 60.488281 58.769531 63.46875 53.671875 Z M 67.242188 48 C 69.597656 47.980469 73.285156 47.769531 74.460938 43.039062 C 73.140625 42.582031 71.847656 42.328125 70.679688 42.328125 C 69.027344 42.328125 67.746094 42.863281 66.898438 43.511719 C 66.898438 41.386719 66.472656 39.097656 63.828125 36.660156 C 61.808594 38.488281 61.199219 40.269531 61.230469 41.859375 C 61.265625 43.644531 62.128906 45.191406 63.144531 46.28125 C 63.144531 46.28125 61.738281 48 57.449219 48 L 57.449219 42.328125 L 51.78125 42.328125 L 51.78125 30.988281 L 46.109375 30.988281 L 46.109375 36.660156 L 34.769531 36.660156 L 34.769531 42.328125 L 29.101562 42.328125 L 29.101562 48 C 26.792969 48 25.320312 48 25.320312 48 C 25.320312 48 25.148438 49.53125 25.429688 51.671875 C 26.644531 51.445312 27.410156 50.824219 28.15625 49.890625 C 29.101562 51.070312 30.046875 51.78125 31.933594 51.78125 C 33.824219 51.78125 34.769531 51.070312 35.714844 49.890625 C 36.660156 51.070312 37.605469 51.78125 39.496094 51.78125 C 41.386719 51.78125 42.328125 51.070312 43.273438 49.890625 C 44.21875 51.070312 45.164062 51.78125 47.054688 51.78125 C 48.945312 51.78125 49.890625 51.070312 50.835938 49.890625 C 51.78125 51.070312 52.726562 51.78125 54.613281 51.78125 C 56.503906 51.78125 57.449219 51.070312 58.394531 49.890625 C 59.339844 51.070312 60.285156 51.78125 62.175781 51.78125 C 63.371094 51.78125 64.171875 51.46875 64.847656 50.964844 C 65.414062 49.667969 65.769531 48.585938 65.953125 47.917969 C 66.34375 47.96875 66.777344 48.003906 67.242188 48 Z M 67.242188 48 "/>
<path style=" stroke:none;fill-rule:nonzero;fill:rgb(27.843139%,53.333336%,78.039217%);fill-opacity:1;" d="M 65.953125 53.671875 L 70.679688 53.671875 L 70.679688 51.683594 C 70.386719 51.730469 70.089844 51.78125 69.734375 51.78125 C 67.84375 51.78125 66.898438 51.070312 65.953125 49.890625 C 65.605469 50.324219 65.246094 50.667969 64.847656 50.964844 C 64.488281 51.792969 64.027344 52.710938 63.46875 53.671875 Z M 65.953125 53.671875 "/>
</g>
</svg>
