<svg xmlns="http://www.w3.org/2000/svg"  viewBox="0 0 40 40" width="80px" height="80px"><path fill="#fff" d="M7.5,35.5v-31h17.26l7.74,7.74V35.5H7.5z"/><path fill="#4788c7" d="M33,36H7V4h17.967L33,12.033V36z M8,35h24V12.447L24.553,5H8V35z"/><rect width="25" height="11" x="7.5" y="24.5" fill="#b6dcfe"/><path fill="#4788c7" d="M33,36H7V24h26V36z M8,35h24V25H8V35z"/><path fill="#dff0fe" d="M24.5,12.5v-8h0.26l7.74,7.74v0.26H24.5z"/><path fill="#4788c7" d="M33,13h-9V4h0.967L33,12.032V13z M25,12h6.554L25,5.447V12z"/><path fill="#4788c7" d="M27.5,16h-15c-0.276,0-0.5-0.224-0.5-0.5l0,0c0-0.276,0.224-0.5,0.5-0.5h15	c0.276,0,0.5,0.224,0.5,0.5l0,0C28,15.776,27.776,16,27.5,16z M23.5,19h-11c-0.276,0-0.5-0.224-0.5-0.5l0,0	c0-0.276,0.224-0.5,0.5-0.5h11c0.276,0,0.5,0.224,0.5,0.5l0,0C24,18.776,23.776,19,23.5,19z M27.5,22h-15	c-0.276,0-0.5-0.224-0.5-0.5l0,0c0-0.276,0.224-0.5,0.5-0.5h15c0.276,0,0.5,0.224,0.5,0.5l0,0C28,21.776,27.776,22,27.5,22z M23.5,25h-11c-0.276,0-0.5-0.224-0.5-0.5l0,0c0-0.276,0.224-0.5,0.5-0.5h11c0.276,0,0.5,0.224,0.5,0.5l0,0	C24,24.776,23.776,25,23.5,25z M27.5,29h-15c-0.276,0-0.5-0.224-0.5-0.5l0,0c0-0.276,0.224-0.5,0.5-0.5h15	c0.276,0,0.5,0.224,0.5,0.5l0,0C28,28.776,27.776,29,27.5,29z"/><path fill="#4788c7" d="M3,7V3h4V2H2v5H3z M37,7h1V2h-5v1h4V7z M37,33v4h-4v1h5v-5H37z M3,33H2v5h5v-1H3V33z"/><path fill="#4788c7" d="M37.5,6L37.5,6C37.775,6,38,6.225,38,6.5v1C38,7.775,37.775,8,37.5,8l0,0C37.225,8,37,7.775,37,7.5	v-1C37,6.225,37.225,6,37.5,6z M37.5,32L37.5,32c0.275,0,0.5,0.225,0.5,0.5v1c0,0.275-0.225,0.5-0.5,0.5l0,0	c-0.275,0-0.5-0.225-0.5-0.5v-1C37,32.225,37.225,32,37.5,32z M2.5,32L2.5,32C2.775,32,3,32.225,3,32.5v1C3,33.775,2.775,34,2.5,34	l0,0C2.225,34,2,33.775,2,33.5v-1C2,32.225,2.225,32,2.5,32z M2.5,6L2.5,6C2.775,6,3,6.225,3,6.5v1C3,7.775,2.775,8,2.5,8l0,0	C2.225,8,2,7.775,2,7.5v-1C2,6.225,2.225,6,2.5,6z M6.5,2h1C7.775,2,8,2.225,8,2.5l0,0C8,2.775,7.775,3,7.5,3h-1	C6.225,3,6,2.775,6,2.5l0,0C6,2.225,6.225,2,6.5,2z M32.5,2h1C33.775,2,34,2.225,34,2.5l0,0C34,2.775,33.775,3,33.5,3h-1	C32.225,3,32,2.775,32,2.5l0,0C32,2.225,32.225,2,32.5,2z M6.5,37h1C7.775,37,8,37.225,8,37.5l0,0C8,37.775,7.775,38,7.5,38h-1	C6.225,38,6,37.775,6,37.5l0,0C6,37.225,6.225,37,6.5,37z M32.5,37h1c0.275,0,0.5,0.225,0.5,0.5l0,0c0,0.275-0.225,0.5-0.5,0.5h-1	c-0.275,0-0.5-0.225-0.5-0.5l0,0C32,37.225,32.225,37,32.5,37z M37,26H3c-0.552,0-1-0.448-1-1l0,0c0-0.552,0.448-1,1-1h34	c0.552,0,1,0.448,1,1l0,0C38,25.552,37.552,26,37,26z"/></svg>