<svg xmlns="http://www.w3.org/2000/svg"  viewBox="0 0 40 40" width="80px" height="80px"><path fill="#dff0fe" d="M6.047,37.5c2.17-2.729,4.038-5.506,5.85-8.198c1.99-2.958,4.047-6.017,6.49-8.984l0.258-0.313 l-0.255-0.317C14.279,14.575,7.834,5.249,5.948,2.5H32.5v7.889c-0.058-0.11-0.14-0.327-0.235-0.751 C31.423,6.501,30.074,5.5,26.704,5.5H16.592c-0.861,0-0.904,0.65-0.904,0.781v0.153l0.085,0.126 c1.045,1.549,1.917,2.941,2.76,4.287c1.434,2.289,2.791,4.456,4.828,7.14c-3.965,4.848-10.716,15.637-10.785,15.748L12.098,34.5H27 c2.664,0,5.1-2.43,6.041-4.716c0.119-0.289,0.285-0.806,0.376-1.139c0.197-0.715,0.595-1.003,0.979-1.102L32.583,37.5H6.047z"/><path fill="#4788c7" d="M32,3v4.522C30.897,5.451,29.192,5,26.704,5H16.592c-0.965,0-1.404,0.664-1.404,1.281v0.306 l0.171,0.254c1.041,1.542,1.911,2.931,2.752,4.274c1.383,2.209,2.696,4.304,4.616,6.861c-3.997,4.981-10.297,15.05-10.575,15.494 L11.196,35H13h14c2.79,0,5.334-2.428,6.403-4.794L32.166,37H7.074c1.915-2.48,3.599-4.984,5.237-7.419 c1.983-2.948,4.034-5.996,6.461-8.946l0.517-0.628l-0.51-0.634C15.009,14.684,9.262,6.43,6.898,3H32 M33,2H5 c0,0,8.098,11.903,13,18c-4.903,5.958-8.105,12.041-13,18c0.375,0,28,0,28,0l2-10.983c0,0-0.093-0.017-0.241-0.017 c-0.46,0-1.451,0.164-1.824,1.513c-0.095,0.343-0.253,0.829-0.357,1.081C31.781,31.531,29.535,34,27,34c-5.029,0-14,0-14,0 s7.054-11.292,11-16c-3.4-4.43-4.936-7.456-7.813-11.719C16.188,6.004,16.456,6,16.592,6c0.134,0,6.037,0,10.112,0 c2.995,0,4.258,0.708,5.073,3.748c0.2,0.884,0.403,1.252,0.81,1.252C32.827,11,33,10.812,33,10.588V2L33,2z"/></svg>