<svg xmlns="http://www.w3.org/2000/svg"  viewBox="0 0 40 40" width="80px" height="80px"><path fill="#dff0fe" d="M1.5 5.5H34.5V38.5H1.5z"/><path fill="#4788c7" d="M34,6v32H2V6H34 M35,5H1v34h34V5L35,5z"/><path fill="#dff0fe" d="M32.667 11.555H35V19H32.667zM21 5H28.444V7.333H21z"/><path fill="#98ccfd" d="M18.707 16L28.707 6 24.207 1.5 38.5 1.5 38.5 15.793 34 11.293 24 21.293z"/><path fill="#4788c7" d="M38,2v12.586l-3.293-3.293L34,10.586l-0.707,0.707L24,20.586L19.414,16l9.293-9.293L29.414,6 l-0.707-0.707L25.414,2H38 M39,1H23l5,5L18,16l6,6l10-10l5,5V1L39,1z"/><path fill="#4788c7" d="M34.5 21L34.5 21c.275 0 .5-.225.5-.5v-2c0-.275-.225-.5-.5-.5l0 0c-.275 0-.5.225-.5.5v2C34 20.775 34.225 21 34.5 21zM19.5 6h2C21.775 6 22 5.775 22 5.5v0C22 5.225 21.775 5 21.5 5h-2C19.225 5 19 5.225 19 5.5v0C19 5.775 19.225 6 19.5 6z"/></svg>