<svg xmlns="http://www.w3.org/2000/svg"  viewBox="0 0 40 40" width="80px" height="80px"><path fill="#dff0fe" d="M10.325,33.787c0.809-1.151,0.698-2.755-0.329-3.783c-0.558-0.558-1.299-0.865-2.087-0.865 c-0.616,0-1.203,0.188-1.697,0.536L1.72,25.182L25.182,1.719l4.493,4.494c-0.809,1.151-0.699,2.756,0.329,3.783 c0.558,0.557,1.299,0.864,2.087,0.864c0.616,0,1.203-0.188,1.697-0.536l4.492,4.494L14.818,38.281L10.325,33.787z"/><path fill="#4788c7" d="M25.182,2.439l3.851,3.851c-0.691,1.307-0.487,2.967,0.611,4.066 c0.654,0.653,1.522,1.013,2.447,1.013c0.574,0,1.127-0.139,1.62-0.401l3.85,3.85L14.818,37.561l-3.851-3.851 c0.691-1.307,0.487-2.967-0.611-4.066c-0.654-0.654-1.522-1.013-2.447-1.013c-0.574,0-1.127,0.139-1.62,0.401l-3.85-3.85 L25.182,2.439 M25.182,1L1,25.182l5.182,5.182c0.477-0.477,1.102-0.715,1.727-0.715c0.625,0,1.25,0.238,1.727,0.715 c0.954,0.954,0.954,2.501,0,3.455L14.818,39L39,14.818l-5.182-5.182c-0.477,0.477-1.102,0.715-1.727,0.715 c-0.625,0-1.25-0.238-1.727-0.715c-0.954-0.954-0.954-2.501,0-3.455L25.182,1L25.182,1z"/></svg>