<svg xmlns="http://www.w3.org/2000/svg"  viewBox="0 0 40 40" width="80px" height="80px"><path fill="#b6dcfe" d="M7,38.5c-2.481,0-4.5-2.019-4.5-4.5V5.5h13V34c0,1.858,0.926,3.504,2.341,4.5H7z"/><path fill="#4788c7" d="M15,6v28c0,1.535,0.58,2.938,1.532,4H7c-2.206,0-4-1.794-4-4V6H15 M16,5H2v29c0,2.761,2.239,5,5,5 h14c-2.761,0-5-2.239-5-5V5L16,5z"/><path fill="#fff" d="M7.5,38.5v-0.027c2.247-0.25,4-2.16,4-4.473V1.5h26V34c0,2.481-2.019,4.5-4.5,4.5H7.5z"/><path fill="#4788c7" d="M37,2v32c0,2.206-1.794,4-4,4H9.997C11.212,37.087,12,35.634,12,34V2H37 M38,1H11v33 c0,2.209-1.791,4-4,4v1h26c2.761,0,5-2.239,5-5V1L38,1z"/><path fill="#4788c7" d="M17.5 9h14C32.328 9 33 8.328 33 7.5v0C33 6.672 32.328 6 31.5 6h-14C16.672 6 16 6.672 16 7.5v0C16 8.328 16.672 9 17.5 9zM26.5 13h6c.276 0 .5-.224.5-.5v0c0-.276-.224-.5-.5-.5h-6c-.276 0-.5.224-.5.5v0C26 12.776 26.224 13 26.5 13zM26.5 16h6c.276 0 .5-.224.5-.5v0c0-.276-.224-.5-.5-.5h-6c-.276 0-.5.224-.5.5v0C26 15.776 26.224 16 26.5 16zM26.5 19h6c.276 0 .5-.224.5-.5v0c0-.276-.224-.5-.5-.5h-6c-.276 0-.5.224-.5.5v0C26 18.776 26.224 19 26.5 19zM6.5 12H11v-1H6.5C6.224 11 6 11.224 6 11.5v0C6 11.776 6.224 12 6.5 12zM6.5 15H11v-1H6.5C6.224 14 6 14.224 6 14.5v0C6 14.776 6.224 15 6.5 15zM6.5 18H11v-1H6.5C6.224 17 6 17.224 6 17.5v0C6 17.776 6.224 18 6.5 18zM6.5 21H11v-1H6.5C6.224 20 6 20.224 6 20.5v0C6 20.776 6.224 21 6.5 21zM6.5 24H11v-1H6.5C6.224 23 6 23.224 6 23.5v0C6 23.776 6.224 24 6.5 24zM6.5 27H11v-1H6.5C6.224 26 6 26.224 6 26.5v0C6 26.776 6.224 27 6.5 27zM6.5 30H11v-1H6.5C6.224 29 6 29.224 6 29.5v0C6 29.776 6.224 30 6.5 30zM6.5 33H11v-1H6.5C6.224 32 6 32.224 6 32.5l0 0C6 32.776 6.224 33 6.5 33zM16.5 13h6c.276 0 .5-.224.5-.5v0c0-.276-.224-.5-.5-.5h-6c-.276 0-.5.224-.5.5v0C16 12.776 16.224 13 16.5 13zM16.5 16h6c.276 0 .5-.224.5-.5v0c0-.276-.224-.5-.5-.5h-6c-.276 0-.5.224-.5.5v0C16 15.776 16.224 16 16.5 16zM16.5 19h6c.276 0 .5-.224.5-.5v0c0-.276-.224-.5-.5-.5h-6c-.276 0-.5.224-.5.5v0C16 18.776 16.224 19 16.5 19zM16.5 22h6c.276 0 .5-.224.5-.5v0c0-.276-.224-.5-.5-.5h-6c-.276 0-.5.224-.5.5v0C16 21.776 16.224 22 16.5 22zM16.5 25h6c.276 0 .5-.224.5-.5v0c0-.276-.224-.5-.5-.5h-6c-.276 0-.5.224-.5.5v0C16 24.776 16.224 25 16.5 25zM16.5 28h6c.276 0 .5-.224.5-.5v0c0-.276-.224-.5-.5-.5h-6c-.276 0-.5.224-.5.5v0C16 27.776 16.224 28 16.5 28zM16.5 31h6c.276 0 .5-.224.5-.5v0c0-.276-.224-.5-.5-.5h-6c-.276 0-.5.224-.5.5v0C16 30.776 16.224 31 16.5 31zM16.5 34h6c.276 0 .5-.224.5-.5l0 0c0-.276-.224-.5-.5-.5h-6c-.276 0-.5.224-.5.5l0 0C16 33.776 16.224 34 16.5 34z"/><path fill="#fff" d="M38,34c0,0-3.134,4-7,4s-7-3.134-7-7s3.134-7,7-7s7,5,7,5V34z"/><g><path fill="#dff0fe" d="M22.059 30h-1.008C21.018 30.329 21 30.662 21 31h1C22 30.662 22.022 30.329 22.059 30zM37 23.019V34c.359.322.696.668 1 1.044V23.871C37.687 23.564 37.35 23.283 37 23.019zM21.461 28h1.062c.122-.344.263-.677.424-1h-1.106C21.698 27.325 21.569 27.658 21.461 28zM25.349 38h-1.478c.357.364.746.694 1.155 1h1.864C26.341 38.718 25.824 38.384 25.349 38zM22.523 34c-.115-.326-.215-.658-.292-1h-1.029c.069.34.157.673.26 1H22.523z"/></g><g><path fill="#dff0fe" d="M31,39.5c-4.687,0-8.5-3.813-8.5-8.5s3.813-8.5,8.5-8.5c2.264,0,4.396,0.887,6.003,2.497 l0.354,0.354l2.143-2.144V29.5h-6.293l2.024-2.024l-0.353-0.354C33.835,26.076,32.458,25.5,31,25.5c-3.032,0-5.5,2.467-5.5,5.5 s2.468,5.5,5.5,5.5c2.071,0,3.958-1.167,4.895-3h3.226C38.033,37.063,34.779,39.5,31,39.5z"/><path fill="#4788c7" d="M31,23c2.131,0,4.137,0.835,5.649,2.35l0.707,0.709l0.708-0.708L39,24.414V29h-4.586l0.817-0.817 l0.706-0.706l-0.705-0.707C34.094,25.629,32.591,25,31,25c-3.308,0-6,2.692-6,6s2.692,6,6,6c2.155,0,4.127-1.158,5.191-3h2.223 c-1.199,2.998-4.091,5-7.414,5c-4.411,0-8-3.589-8-8S26.589,23,31,23 M40,22l-2.643,2.643C35.73,23.013,33.486,22,31,22 c-4.971,0-9,4.029-9,9s4.029,9,9,9c4.282,0,7.859-2.993,8.769-7h-4.191c-0.772,1.764-2.529,3-4.578,3c-2.761,0-5-2.239-5-5 s2.239-5,5-5c1.381,0,2.621,0.57,3.524,1.476L32,30h8V22L40,22z"/></g></svg>