<svg xmlns="http://www.w3.org/2000/svg"  viewBox="0 0 40 40" width="80px" height="80px"><path fill="#dff0fe" d="M20.022,38.5c-5.515,0-10.027-1.667-13.414-4.954C3.219,30.256,1.5,25.898,1.5,20.592 c0-5.459,1.799-10.055,5.346-13.659C10.395,3.328,14.985,1.5,20.49,1.5c14.246,0,18.01,10.782,18.01,16.483 c0,3.578-0.916,6.562-2.724,8.87C33.881,29.273,31.602,30.5,29,30.5c-2.891,0-4.668-1.361-5.218-3.963 c-1.297,2.601-3.409,3.963-6.188,3.963c-4.9,0-7.094-4.415-7.094-8.79c0-3.602,0.818-6.396,2.501-8.541 C14.913,10.734,17.32,9.5,20.156,9.5c1.966,0,3.357,1.054,4.164,2.042c0.034-0.494,0.077-1.05,0.127-1.589L24.49,9.5h3.785 l-0.047,0.543c-0.681,7.843-1.037,12.55-1.045,12.794c0,3.218,1.033,3.663,2.15,3.663c3.903,0,5.166-5.727,5.166-8.5 c0-3.761-1.243-6.812-3.801-9.329C28.441,6.448,25.335,5.5,20.312,5.5c-4.754,0-8.015,1.204-10.574,3.904 C6.926,12.37,5.5,16.09,5.5,20.46c0,4.295,1.352,7.832,4.017,10.511c2.428,2.44,5.736,3.528,10.729,3.528 c3.373,0,6.853-0.712,9.546-1.954l0.709-0.327v4.082l-0.266,0.141C27.663,37.808,24.227,38.5,20.022,38.5z M20.048,13.5 c-1.642,0-2.938,0.74-3.963,2.264c-1.052,1.564-1.585,3.546-1.585,5.889c0,1.535,0.342,2.748,1.018,3.606 c0.656,0.835,1.51,1.241,2.609,1.241c1.633,0,2.896-0.772,3.863-2.36c1.002-1.645,1.51-3.877,1.51-6.634 C23.5,14.773,22.403,13.5,20.048,13.5z"/><path fill="#4788c7" d="M20.49,2C33.937,2,38,12.063,38,17.983c0,3.479-0.872,6.333-2.618,8.562 C33.637,28.774,31.509,30,29,30c-3.253,0-4.887-1.851-4.901-5.33h-0.111C22.904,28.149,20.772,30,17.594,30 C12.625,30,11,25.208,11,21.71c0-3.303,0.679-6.047,2.395-8.233C15.11,11.293,17.363,10,20.156,10c2.703,0,4.241,2.232,4.478,3.05 h0.089c0.03-0.409,0.103-1.778,0.223-3.05h2.785c-0.699,8.054-1.047,12.683-1.047,12.828c0,3.026,0.883,4.172,2.651,4.172 C33.708,27,35,20.719,35,18c0-4.019-1.366-7.143-3.951-9.686S24.887,5,20.312,5c-4.411,0-8.056,1.02-10.938,4.06 C6.492,12.1,5,15.9,5,20.46c0,4.487,1.422,8.109,4.162,10.864C11.902,34.079,15.597,35,20.245,35c3.668,0,7.156-0.802,9.755-2v3 c-2.667,1.417-6.132,2-9.978,2c-5.405,0-9.761-1.604-13.066-4.812S2,25.781,2,20.592c0-5.35,1.734-9.785,5.202-13.308 C10.669,3.762,15.099,2,20.49,2 M18.127,27c1.804,0,3.235-0.866,4.29-2.6C23.473,22.667,24,20.368,24,17.505 C24,14.502,22.682,13,20.048,13c-1.804,0-3.264,0.829-4.378,2.484C14.557,17.141,14,19.197,14,21.653 c0,1.656,0.374,2.962,1.124,3.916C15.875,26.523,16.874,27,18.127,27 M20.49,1C14.846,1,10.136,2.878,6.489,6.582 C2.847,10.283,1,14.996,1,20.592c0,5.446,1.77,9.925,5.26,13.313C9.743,37.286,14.373,39,20.022,39 c4.288,0,7.803-0.712,10.447-2.117L31,36.601V36v-3v-1.562l-1.419,0.654C26.951,33.305,23.548,34,20.245,34 c-4.848,0-8.048-1.043-10.374-3.381C7.302,28.036,6,24.619,6,20.46c0-4.238,1.379-7.843,4.1-10.713 C12.557,7.156,15.706,6,20.312,6c4.879,0,7.88,0.905,10.036,3.027C32.805,11.445,34,14.381,34,18c0,2.506-1.175,8-4.666,8 c-0.657,0-1.651,0-1.651-3.172c0.012-0.269,0.366-4.934,1.043-12.742L28.821,9h-1.09h-2.785h-0.911L23.95,9.907 c-0.016,0.167-0.031,0.336-0.045,0.504C22.975,9.624,21.703,9,20.156,9c-2.955,0-5.565,1.335-7.548,3.86 C10.853,15.096,10,17.991,10,21.71c0,4.624,2.348,9.29,7.594,9.29c1.929,0,4.338-0.625,6.05-3.212C24.496,29.881,26.326,31,29,31 c2.763,0,5.175-1.292,7.17-3.839c1.878-2.398,2.83-5.486,2.83-9.178C39,11.156,34.071,1,20.49,1L20.49,1z M18.127,26 c-0.949,0-1.653-0.333-2.216-1.049C15.306,24.182,15,23.072,15,21.653c0-2.242,0.505-4.13,1.5-5.611 C17.424,14.668,18.585,14,20.048,14C21.508,14,23,14.416,23,17.505c0,2.665-0.483,4.809-1.437,6.374 C20.694,25.307,19.57,26,18.127,26L18.127,26z"/></svg>