<svg xmlns="http://www.w3.org/2000/svg"  viewBox="0 0 40 40" width="80px" height="80px"><path fill="#98ccfd" d="M20,38.5C9.799,38.5,1.5,30.201,1.5,20S9.799,1.5,20,1.5S38.5,9.799,38.5,20S30.201,38.5,20,38.5z"/><path fill="#4788c7" d="M20,2c9.925,0,18,8.075,18,18s-8.075,18-18,18S2,29.925,2,20S10.075,2,20,2 M20,1 C9.507,1,1,9.507,1,20s8.507,19,19,19s19-8.507,19-19S30.493,1,20,1L20,1z"/><path fill="#fff" d="M20.002,31.001L19.84,31C13.866,30.916,9,25.983,9,20.004l0.001-0.154 c0.04-2.825,1.144-5.493,3.109-7.515c0.384-0.396,1.017-0.405,1.414-0.02c0.396,0.385,0.405,1.018,0.02,1.414 c-1.608,1.654-2.511,3.836-2.543,6.145L11,20.004c0,4.891,3.981,8.926,8.874,8.996l0.128,0.001c4.893,0,8.928-3.981,8.997-8.874 L29,19.996c0-2.354-0.904-4.581-2.547-6.27c-0.385-0.396-0.376-1.029,0.02-1.414c0.396-0.385,1.028-0.376,1.414,0.02 C29.895,14.397,31,17.119,31,19.996l-0.001,0.165C30.916,26.136,25.982,31.001,20.002,31.001z"/><path fill="#fff" d="M20,19L20,19c-0.55,0-1-0.45-1-1V8c0-0.55,0.45-1,1-1l0,0c0.55,0,1,0.45,1,1v10 C21,18.55,20.55,19,20,19z"/></svg>