<svg xmlns="http://www.w3.org/2000/svg"  viewBox="0 0 40 40" width="80px" height="80px"><path fill="#4788c7" d="M20 18A2 2 0 1 0 20 22A2 2 0 1 0 20 18Z"/><path fill="#b6dcfe" d="M20.163.008C20.108.008 20.055 0 20 0s-.108.008-.163.008H20.163zM28.484 3.054L28.484 3.054c-.242.484-.049 1.06.421 1.329C34.329 7.486 38 13.316 38 20c0 6.686-3.673 12.517-9.099 15.62-.47.269-.664.844-.422 1.328v0c.253.506.881.716 1.373.437C35.906 33.949 40 27.46 40 20c0-7.458-4.092-13.946-10.144-17.383C29.365 2.338 28.737 2.548 28.484 3.054zM11.536 36.957c.243-.485.048-1.061-.422-1.329C5.679 32.527 2 26.692 2 20c0-6.688 3.676-12.522 9.105-15.623.47-.269.664-.844.422-1.328l0 0c-.253-.506-.88-.716-1.372-.437C4.097 6.046 0 12.538 0 20c0 7.466 4.101 13.96 10.164 17.394C10.656 37.672 11.283 37.462 11.536 36.957L11.536 36.957z"/><g><path fill="#98ccfd" d="M25.793 8.428L25.793 8.428c-.23.459-.081 1.027.359 1.29 3.502 2.097 5.856 5.92 5.856 10.29 0 4.369-2.352 8.19-5.852 10.287-.439.263-.587.831-.358 1.289l0 0c.265.531.927.707 1.435.4 4.057-2.45 6.775-6.891 6.775-11.977 0-5.088-2.72-9.531-6.781-11.98C26.72 7.722 26.059 7.897 25.793 8.428zM14.223 31.589L14.223 31.589c.23-.459.081-1.027-.359-1.29-3.502-2.097-5.856-5.92-5.856-10.29 0-4.369 2.352-8.19 5.852-10.287.439-.263.587-.831.358-1.289l0 0c-.265-.531-.927-.707-1.435-.4-4.057 2.45-6.775 6.892-6.775 11.977 0 5.088 2.72 9.531 6.781 11.98C13.297 32.295 13.958 32.119 14.223 31.589z"/></g><g><path fill="#4788c7" d="M26.008 20.008c0 2.035-1.02 3.832-2.574 4.916-.409.285-.555.82-.332 1.266l0 0c.271.542.966.73 1.464.384 2.079-1.443 3.442-3.843 3.442-6.566 0-2.727-1.368-5.13-3.452-6.572-.498-.345-1.192-.158-1.463.384v0c-.224.447-.077.982.333 1.267C24.985 16.171 26.008 17.971 26.008 20.008zM14.008 20.008c0-2.035 1.02-3.832 2.575-4.916.409-.285.555-.82.332-1.266v0c-.271-.542-.966-.73-1.464-.384-2.079 1.443-3.442 3.843-3.442 6.566 0 2.727 1.368 5.129 3.452 6.572.498.345 1.192.158 1.463-.384v0c.224-.447.077-.982-.333-1.267C15.032 23.846 14.008 22.046 14.008 20.008z"/></g></svg>