<svg xmlns="http://www.w3.org/2000/svg"  viewBox="0 0 40 40" width="80px" height="80px"><path fill="#fff" d="M6,36.5c-1.379,0-2.5-1.121-2.5-2.5V6c0-1.379,1.121-2.5,2.5-2.5h28c1.379,0,2.5,1.121,2.5,2.5v28 c0,1.379-1.121,2.5-2.5,2.5H6z"/><path fill="#4788c7" d="M34,4c1.103,0,2,0.897,2,2v28c0,1.103-0.897,2-2,2H6c-1.103,0-2-0.897-2-2V6c0-1.103,0.897-2,2-2 H34 M34,3H6C4.343,3,3,4.343,3,6v28c0,1.657,1.343,3,3,3h28c1.657,0,3-1.343,3-3V6C37,4.343,35.657,3,34,3L34,3z"/><path fill="#4788c7" d="M28.5 13h-17c-.276 0-.5-.224-.5-.5v0c0-.276.224-.5.5-.5h17c.276 0 .5.224.5.5v0C29 12.776 28.776 13 28.5 13zM23.5 17h-12c-.276 0-.5-.224-.5-.5v0c0-.276.224-.5.5-.5h12c.276 0 .5.224.5.5v0C24 16.776 23.776 17 23.5 17zM28.5 21h-17c-.276 0-.5-.224-.5-.5v0c0-.276.224-.5.5-.5h17c.276 0 .5.224.5.5v0C29 20.776 28.776 21 28.5 21zM28.5 29h-17c-.276 0-.5-.224-.5-.5v0c0-.276.224-.5.5-.5h17c.276 0 .5.224.5.5v0C29 28.776 28.776 29 28.5 29zM23.385 25h-12c-.276 0-.5-.224-.5-.5l0 0c0-.276.224-.5.5-.5h12c.276 0 .5.224.5.5v0C23.885 24.776 23.661 25 23.385 25z"/></svg>