<?xml version="1.0" encoding="UTF-8" standalone="no"?>
<!DOCTYPE svg PUBLIC "-//W3C//DTD SVG 1.1//EN" "http://www.w3.org/Graphics/SVG/1.1/DTD/svg11.dtd">
<svg width="100%" height="100%" viewBox="0 0 48 48" version="1.1" xmlns="http://www.w3.org/2000/svg" xmlns:xlink="http://www.w3.org/1999/xlink" xml:space="preserve" xmlns:serif="http://www.serif.com/" style="fill-rule:evenodd;clip-rule:evenodd;stroke-linejoin:round;stroke-miterlimit:2;">
    <g id="surface100778921">
        <g transform="matrix(1,0,0,1,1,0)">
            <path d="M23.5,10C35.366,10 45,16.273 45,24C45,31.727 35.366,38 23.5,38C21.202,38 4,43 4,43L6,34C6,34 2,27.591 2,24C2,16.273 11.634,10 23.5,10Z" style="fill:rgb(223,240,254);"/>
        </g>
        <path d="M21.488,24.129C21.555,27.863 27.234,27.82 27.199,24.082L27.199,24.031C27.137,20.273 21.426,20.363 21.488,24.129Z" style="fill:rgb(71,136,199);fill-rule:nonzero;"/>
        <path d="M12.441,24.129C12.465,25.695 13.77,26.949 15.344,26.926C16.875,26.926 18.164,25.66 18.148,24.078L18.148,24.039C18.098,20.285 12.383,20.363 12.441,24.129Z" style="fill:rgb(71,136,199);fill-rule:nonzero;"/>
        <path d="M30.539,24.129C30.563,25.695 31.867,26.949 33.438,26.926C35.012,26.918 36.266,25.637 36.246,24.078L36.246,24.039C36.191,20.285 30.48,20.363 30.539,24.129Z" style="fill:rgb(71,136,199);fill-rule:nonzero;"/>
        <path d="M40.535,11.688C34.121,7.469 25.602,6.512 18.523,7.781C10.605,0.18 1.73,3.672 0,4.68C0,4.68 6.09,9.832 5.102,14.344C-2.109,21.66 1.316,29.809 5.102,33.652C6.094,38.164 0,43.316 0,43.316C1.715,44.328 10.563,47.813 18.527,40.25C25.59,41.516 34.109,40.563 40.535,36.336C50.473,30.02 50.508,18.035 40.535,11.688ZM24.512,36.297C22.031,36.305 19.566,35.984 17.172,35.352L15.523,36.938C14.609,37.82 13.578,38.586 12.477,39.207C11.133,39.879 9.668,40.297 8.164,40.43C8.246,40.285 8.32,40.133 8.395,39.996C10.043,36.953 10.488,34.23 9.73,31.809C7.02,29.688 5.395,26.969 5.395,24C5.395,17.199 13.957,11.688 24.516,11.688C35.07,11.688 43.633,17.199 43.633,24C43.629,30.797 35.066,36.297 24.512,36.297Z" style="fill:rgb(71,136,199);fill-rule:nonzero;"/>
    </g>
</svg>
