<svg xmlns="http://www.w3.org/2000/svg"  viewBox="0 0 40 40" width="80px" height="80px"><path fill="#4788c7" d="M38.5 8h-29C9.224 8 9 7.776 9 7.5v0C9 7.224 9.224 7 9.5 7h29C38.776 7 39 7.224 39 7.5v0C39 7.776 38.776 8 38.5 8zM31.5 12h-22C9.224 12 9 11.776 9 11.5v0C9 11.224 9.224 11 9.5 11h22c.276 0 .5.224.5.5v0C32 11.776 31.776 12 31.5 12z"/><path fill="#dff0fe" d="M1.5 7.5H5.5V11.5H1.5z"/><path fill="#4788c7" d="M5 8v3H2V8H5M6 7H1v5h5V7L6 7zM38.5 19h-29C9.224 19 9 18.776 9 18.5l0 0C9 18.224 9.224 18 9.5 18h29c.276 0 .5.224.5.5l0 0C39 18.776 38.776 19 38.5 19zM31.5 23h-22C9.224 23 9 22.776 9 22.5l0 0C9 22.224 9.224 22 9.5 22h22c.276 0 .5.224.5.5l0 0C32 22.776 31.776 23 31.5 23z"/><path fill="#dff0fe" d="M1.5 18.5H5.5V22.5H1.5z"/><path fill="#4788c7" d="M5 19v3H2v-3H5M6 18H1v5h5V18L6 18zM38.5 30h-29C9.224 30 9 29.776 9 29.5l0 0C9 29.224 9.224 29 9.5 29h29c.276 0 .5.224.5.5l0 0C39 29.776 38.776 30 38.5 30zM31.5 34h-22C9.224 34 9 33.776 9 33.5l0 0C9 33.224 9.224 33 9.5 33h22c.276 0 .5.224.5.5l0 0C32 33.776 31.776 34 31.5 34z"/><g><path fill="#dff0fe" d="M1.5 29.5H5.5V33.5H1.5z"/><path fill="#4788c7" d="M5,30v3H2v-3H5 M6,29H1v5h5V29L6,29z"/></g></svg>