<svg xmlns="http://www.w3.org/2000/svg"  viewBox="0 0 40 40" width="80px" height="80px"><path fill="#b6dcfe" d="M6.697 36.543L18.695 20 6.697 3.457 9.107 1.699 22.38 20 9.107 38.301z"/><path fill="#4788c7" d="M8.997,2.399L21.762,20L8.997,37.601l-1.602-1.168l11.492-15.846L19.313,20l-0.426-0.587L7.395,3.567L8.997,2.399 M9.218,1L6,3.347L18.078,20L6,36.653L9.218,39l13.78-19L9.218,1L9.218,1z"/><path fill="#b6dcfe" d="M17.692 36.542L29.697 20 17.692 3.458 20.104 1.699 33.382 20 20.104 38.301z"/><path fill="#4788c7" d="M19.994,2.399L32.765,20L19.994,37.601l-1.603-1.169l11.497-15.845L30.314,20l-0.426-0.587L18.391,3.567L19.994,2.399 M20.215,1l-3.219,2.347L29.079,20L16.996,36.653L20.215,39L34,20L20.215,1L20.215,1z"/></svg>