<svg xmlns="http://www.w3.org/2000/svg"  viewBox="0 0 40 40" width="80px" height="80px"><path fill="#dff0fe" d="M14.5 33.5L14.5 1.5 30.793 1.5 38.5 9.207 38.5 33.5z"/><path fill="#4788c7" d="M30.586,2L38,9.414V33H15V2H30.586 M31,1H14v33h25V9L31,1L31,1z"/><path fill="#b6dcfe" d="M30.5 9.5L30.5 1.5 30.793 1.5 38.5 9.207 38.5 9.5z"/><path fill="#4788c7" d="M31,2.414L37.586,9H31V2.414 M31,1h-1v9h9V9L31,1L31,1z"/><path fill="#fff" d="M1.5 38.5L1.5 6.5 17.793 6.5 25.5 14.207 25.5 38.5z"/><path fill="#4788c7" d="M17.586,7L25,14.414V38H2V7H17.586 M18,6H1v33h25V14L18,6L18,6z"/><path fill="#dff0fe" d="M17.5 14.5L17.5 6.5 17.793 6.5 25.5 14.207 25.5 14.5z"/><path fill="#4788c7" d="M18 7.414L24.586 14H18V7.414M18 6h-1v9h9v-1L18 6 18 6zM6.5 19h14c.275 0 .5.225.5.5l0 0c0 .275-.225.5-.5.5h-14C6.225 20 6 19.775 6 19.5l0 0C6 19.225 6.225 19 6.5 19zM6.5 25h14c.275 0 .5.225.5.5l0 0c0 .275-.225.5-.5.5h-14C6.225 26 6 25.775 6 25.5l0 0C6 25.225 6.225 25 6.5 25zM6.5 22h11c.275 0 .5.225.5.5l0 0c0 .275-.225.5-.5.5h-11C6.225 23 6 22.775 6 22.5l0 0C6 22.225 6.225 22 6.5 22zM6.5 28h11c.275 0 .5.225.5.5l0 0c0 .275-.225.5-.5.5h-11C6.225 29 6 28.775 6 28.5l0 0C6 28.225 6.225 28 6.5 28zM25.5 15h8c.275 0 .5.225.5.5v0c0 .275-.225.5-.5.5h-8c-.275 0-.5-.225-.5-.5v0C25 15.225 25.225 15 25.5 15zM25.5 21h8c.275 0 .5.225.5.5l0 0c0 .275-.225.5-.5.5h-8c-.275 0-.5-.225-.5-.5l0 0C25 21.225 25.225 21 25.5 21zM25.5 27h8c.275 0 .5.225.5.5l0 0c0 .275-.225.5-.5.5h-8c-.275 0-.5-.225-.5-.5l0 0C25 27.225 25.225 27 25.5 27zM25.5 18h5c.275 0 .5.225.5.5l0 0c0 .275-.225.5-.5.5h-5c-.275 0-.5-.225-.5-.5l0 0C25 18.225 25.225 18 25.5 18zM25.5 24h5c.275 0 .5.225.5.5l0 0c0 .275-.225.5-.5.5h-5c-.275 0-.5-.225-.5-.5l0 0C25 24.225 25.225 24 25.5 24zM6.5 31h14c.275 0 .5.225.5.5l0 0c0 .275-.225.5-.5.5h-14C6.225 32 6 31.775 6 31.5l0 0C6 31.225 6.225 31 6.5 31z"/></svg>