<svg xmlns="http://www.w3.org/2000/svg"  viewBox="0 0 40 40" width="80px" height="80px"><path fill="#dff0fe" d="M6 1H34V39H6z"/><path fill="none" stroke="#4788c7" stroke-linecap="round" stroke-miterlimit="10" d="M33.5 28.5L33.5 38.5 6.5 38.5 6.5 1.5 33.5 1.5 33.5 11.5"/><path fill="#98ccfd" d="M26.5 22.5L10.5 22.5 10.5 17.5 26.5 17.5 26.5 10.241 36.292 20 26.5 29.759z"/><path fill="#4788c7" d="M27,11.445L35.583,20L27,28.554V23v-1h-1H11v-4h15h1v-1V11.445 M26,9.037V17H10v6h16v7.963L37,20 L26,9.037L26,9.037z"/></svg>