<svg xmlns="http://www.w3.org/2000/svg"  viewBox="0 0 40 40" width="80px" height="80px"><path fill="#dff0fe" d="M25.992,23.5l-0.457-3.241l-0.309-0.091c-1.183-0.35-2.288-0.987-3.197-1.843l-0.228-0.214 l-3.108,1.181l-1.49-2.581l2.583-2.087l-0.07-0.305C19.572,13.703,19.5,13.091,19.5,12.5c0-0.605,0.077-1.234,0.229-1.869 l0.074-0.312l-2.596-2.035l1.489-2.58l3.14,1.151l0.225-0.209c0.877-0.815,1.887-1.409,3.002-1.766l0.283-0.09L25.972,1.5h2.988 l0.483,3.237l0.307,0.09c1.169,0.342,2.267,0.966,3.174,1.804l0.224,0.207l3.105-1.135l1.5,2.599l-2.511,2.176l0.064,0.291 C35.435,11.35,35.5,11.933,35.5,12.5c0,0.594-0.074,1.209-0.22,1.831l-0.07,0.304l2.537,2.073l-1.494,2.588l-3.105-1.135 l-0.225,0.207c-0.906,0.838-2.004,1.462-3.173,1.805l-0.307,0.09L28.96,23.5H25.992z M27.5,8.5c-2.206,0-4,1.794-4,4s1.794,4,4,4 s4-1.794,4-4S29.706,8.5,27.5,8.5z"/><path fill="#4788c7" d="M28.529,2l0.373,2.495l0.094,0.632l0.614,0.18c1.095,0.321,2.124,0.906,2.974,1.692l0.448,0.415 l0.574-0.21l2.424-0.886l1.084,1.877l-1.973,1.71l-0.45,0.39l0.128,0.581C34.939,11.422,35,11.968,35,12.5 c0,0.556-0.069,1.134-0.206,1.717l-0.142,0.608l0.483,0.395l1.966,1.607l-1.071,1.856l-2.424-0.886l-0.574-0.21l-0.448,0.415 c-0.85,0.786-1.879,1.371-2.974,1.692l-0.614,0.18l-0.094,0.632L28.529,23h-2.103l-0.352-2.493l-0.09-0.637l-0.617-0.183 c-1.107-0.328-2.144-0.925-2.998-1.728l-0.456-0.428l-0.584,0.222l-2.417,0.918l-1.064-1.842l2.007-1.622l0.488-0.394l-0.142-0.611 C20.068,13.626,20,13.053,20,12.5c0-0.567,0.072-1.157,0.215-1.752l0.15-0.624l-0.505-0.396l-2.003-1.569l1.062-1.84l2.456,0.901 l0.576,0.211l0.449-0.418c0.822-0.764,1.769-1.321,2.814-1.656l0.567-0.181l0.111-0.585L26.386,2H28.529 M27.5,17 c2.481,0,4.5-2.019,4.5-4.5S29.981,8,27.5,8c-2.481,0-4.5,2.019-4.5,4.5S25.019,17,27.5,17 M29.391,1h-3.833l-0.647,3.405 C23.706,4.79,22.624,5.44,21.72,6.28l-3.246-1.19l-1.917,3.32l2.686,2.105C19.09,11.153,19,11.815,19,12.5 c0,0.665,0.084,1.31,0.229,1.931l-2.672,2.159l1.917,3.32l3.213-1.221c0.954,0.896,2.11,1.576,3.399,1.958L25.558,24h3.833 l0.5-3.347c1.275-0.373,2.422-1.039,3.372-1.917l3.213,1.174l1.917-3.32l-2.624-2.145C35.914,13.819,36,13.17,36,12.5 c0-0.632-0.074-1.246-0.205-1.839l2.597-2.251l-1.917-3.32l-3.213,1.174c-0.95-0.878-2.096-1.544-3.372-1.917L29.391,1L29.391,1z M27.5,16c-1.933,0-3.5-1.567-3.5-3.5S25.567,9,27.5,9s3.5,1.567,3.5,3.5S29.433,16,27.5,16L27.5,16z"/><g><path fill="#b6dcfe" d="M10.992,38.5l-0.457-3.241l-0.309-0.091c-1.183-0.35-2.288-0.987-3.197-1.843L6.802,33.11 l-3.108,1.181l-1.49-2.581l2.583-2.087l-0.07-0.305C4.572,28.703,4.5,28.091,4.5,27.5c0-0.605,0.077-1.234,0.229-1.869 l0.074-0.312l-2.596-2.035l1.489-2.58l3.14,1.151l0.225-0.209c0.877-0.815,1.887-1.409,3.002-1.766l0.283-0.09l0.626-3.291h2.988 l0.483,3.237l0.307,0.09c1.169,0.342,2.267,0.966,3.174,1.804l0.224,0.207l3.105-1.135l1.5,2.599l-2.511,2.176l0.064,0.291 C20.435,26.35,20.5,26.933,20.5,27.5c0,0.594-0.074,1.209-0.22,1.831l-0.07,0.304l2.537,2.073l-1.494,2.588l-3.105-1.135 l-0.225,0.207c-0.906,0.838-2.004,1.462-3.173,1.805l-0.307,0.09L13.96,38.5H10.992z M12.5,23.5c-2.206,0-4,1.794-4,4s1.794,4,4,4 s4-1.794,4-4S14.706,23.5,12.5,23.5z"/><path fill="#4788c7" d="M13.529,17l0.373,2.495l0.094,0.632l0.614,0.18c1.095,0.321,2.124,0.906,2.974,1.692l0.448,0.415 l0.574-0.21l2.424-0.886l1.084,1.877l-1.973,1.71l-0.45,0.39l0.128,0.581C19.939,26.422,20,26.968,20,27.5 c0,0.556-0.069,1.134-0.206,1.717l-0.142,0.608l0.483,0.395l1.966,1.607l-1.071,1.856l-2.424-0.886l-0.574-0.21l-0.448,0.415 c-0.85,0.786-1.879,1.371-2.974,1.692l-0.614,0.18l-0.094,0.632L13.529,38h-2.103l-0.352-2.493l-0.09-0.637l-0.617-0.183 c-1.107-0.328-2.144-0.925-2.998-1.728l-0.456-0.428l-0.584,0.222l-2.417,0.918L2.85,31.831l2.007-1.622l0.488-0.394l-0.142-0.611 C5.068,28.626,5,28.053,5,27.5c0-0.567,0.072-1.157,0.215-1.752l0.15-0.624l-0.505-0.396l-2.003-1.569l1.062-1.84l2.456,0.901 l0.576,0.211l0.449-0.418c0.822-0.764,1.769-1.321,2.814-1.656l0.567-0.181l0.111-0.585L11.386,17H13.529 M12.5,32 c2.481,0,4.5-2.019,4.5-4.5S14.981,23,12.5,23C10.019,23,8,25.019,8,27.5S10.019,32,12.5,32 M14.391,16h-3.833l-0.647,3.405 C8.706,19.79,7.624,20.44,6.72,21.28l-3.246-1.19l-1.917,3.32l2.686,2.105C4.09,26.153,4,26.815,4,27.5 c0,0.665,0.084,1.31,0.229,1.931L1.557,31.59l1.917,3.32l3.213-1.221c0.954,0.896,2.11,1.576,3.399,1.958L10.558,39h3.833 l0.5-3.347c1.275-0.373,2.422-1.039,3.372-1.917l3.213,1.174l1.917-3.32l-2.624-2.145C20.914,28.819,21,28.17,21,27.5 c0-0.632-0.074-1.246-0.205-1.839l2.597-2.251l-1.917-3.32l-3.213,1.174c-0.95-0.878-2.096-1.544-3.372-1.917L14.391,16L14.391,16 z M12.5,31C10.567,31,9,29.433,9,27.5s1.567-3.5,3.5-3.5s3.5,1.567,3.5,3.5S14.433,31,12.5,31L12.5,31z"/></g></svg>