<svg xmlns="http://www.w3.org/2000/svg"  viewBox="0 0 40 40" width="80px" height="80px"><path fill="#98ccfd" d="M16.5 28.5H23.5V34.5H16.5z"/><path fill="#4788c7" d="M23,29v5h-6v-5H23 M24,28h-8v7h8V28L24,28z"/><path fill="#fff" d="M1.5 4.5H38.5V30.5H1.5z"/><path fill="#4788c7" d="M38,5v25H2V5H38 M39,4H1v27h38V4L39,4z"/><path fill="#98ccfd" d="M1.5 26.5H38.5V30.5H1.5z"/><path fill="#4788c7" d="M38,27v3H2v-3H38 M39,26H1v5h38V26L39,26z"/><path fill="#98ccfd" d="M9.5,36.5V36c0-1.378,1.122-2.5,2.5-2.5h16c1.378,0,2.5,1.122,2.5,2.5v0.5H9.5z"/><path fill="#4788c7" d="M28,34c1.103,0,2,0.897,2,2H10c0-1.103,0.897-2,2-2H28 M28,33H12c-1.657,0-3,1.343-3,3v1h22v-1 C31,34.343,29.657,33,28,33L28,33z"/><path fill="#fff" d="M36.5,29h-2c-0.276,0-0.5-0.224-0.5-0.5v0c0-0.276,0.224-0.5,0.5-0.5h2c0.276,0,0.5,0.224,0.5,0.5v0 C37,28.776,36.776,29,36.5,29z"/><g><path fill="#dff0fe" d="M19.999,22.46c-1.056-0.461-6.369-3.221-6.497-12.131L20,7.544l6.498,2.785 C26.369,19.213,21.018,22.008,19.999,22.46z"/><path fill="#4788c7" d="M20,8.088l5.99,2.567c-0.235,7.926-4.697,10.636-5.987,11.255 c-1.297-0.631-5.759-3.371-5.994-11.255L20,8.088 M20,7l-7,3c0,10.46,7,13,7,13s7-2.486,7-13L20,7L20,7z"/></g><path fill="#98ccfd" d="M20,10.264l-3.9,1.671c0.483,4.491,2.6,6.692,3.912,7.643c1.292-0.934,3.408-3.124,3.889-7.643 L20,10.264z"/></svg>