<svg xmlns="http://www.w3.org/2000/svg"  viewBox="0 0 40 40" width="80px" height="80px"><path fill="#fff" d="M1.5 13.5H38.5V26.5H1.5z"/><path fill="#4788c7" d="M38,14v12H2V14H38 M39,13H1v14h38V13L39,13z"/><path fill="#b6dcfe" d="M5 17H27V23H5z"/><path fill="none" stroke="#4788c7" stroke-linecap="round" stroke-miterlimit="10" d="M34.5 5.5h-1.333c-1.473 0-2.667 1.194-2.667 2.667v23.667c0 1.473 1.194 2.667 2.667 2.667H34.5M26.5 5.5h1.333c1.473 0 2.667 1.194 2.667 2.667v23.667c0 1.473-1.194 2.667-2.667 2.667H26.5"/></svg>