<svg xmlns="http://www.w3.org/2000/svg"  viewBox="0 0 40 40" width="80px" height="80px"><path fill="#fff" d="M2.5,37.5v-35h35V35c0,1.378-1.121,2.5-2.5,2.5H2.5z"/><path fill="#4788c7" d="M37,3v32c0,1.103-0.897,2-2,2H3V3H37 M38,2H2v36h33c1.657,0,3-1.343,3-3V2L38,2z"/><path fill="#b6dcfe" d="M2.5 2.5H37.5V7.5H2.5z"/><path fill="#4788c7" d="M37,3v4H3V3H37 M38,2H2v6h36V2L38,2z"/><path fill="#b6dcfe" d="M13 14H15V16H13zM21 14H23V16H21zM25 14H27V16H25zM29 14H31V16H29zM9 18H11V20H9zM13 18H15V20H13zM21 18H23V20H21zM25 18H27V20H25zM29 18H31V20H29zM9 26H11V28H9zM13 26H15V28H13zM21 26H23V28H21zM17 14H19V16H17zM17 18H19V20H17zM9 22H11V24H9zM13 22H15V24H13zM21 22H23V24H21zM25 22H27V24H25zM29 22H31V24H29zM17 22H19V24H17zM17 26H19V28H17zM25 26H27V28H25zM3 34H37V37H3z"/><path fill="#98ccfd" d="M31,39.5c-4.687,0-8.5-3.813-8.5-8.5s3.813-8.5,8.5-8.5s8.5,3.813,8.5,8.5S35.687,39.5,31,39.5z"/><path fill="#4788c7" d="M31,23c4.411,0,8,3.589,8,8s-3.589,8-8,8s-8-3.589-8-8S26.589,23,31,23 M31,22 c-4.971,0-9,4.029-9,9s4.029,9,9,9s9-4.029,9-9S35.971,22,31,22L31,22z"/><path fill="none" stroke="#fff" stroke-miterlimit="10" stroke-width="2" d="M31 36L31 26M26 31L36 31"/></svg>