<?xml version="1.0" encoding="UTF-8" standalone="no"?>
<!DOCTYPE svg PUBLIC "-//W3C//DTD SVG 1.1//EN" "http://www.w3.org/Graphics/SVG/1.1/DTD/svg11.dtd">
<svg width="100%" height="100%" viewBox="0 0 264 264" version="1.1" xmlns="http://www.w3.org/2000/svg" xmlns:xlink="http://www.w3.org/1999/xlink" xml:space="preserve" xmlns:serif="http://www.serif.com/" style="fill-rule:evenodd;clip-rule:evenodd;stroke-linejoin:round;stroke-miterlimit:2;">
    <g transform="matrix(2.26396,0,0,2.26396,2.66638,2.46404)">
        <path d="M111.78,51.977L62.035,2.238C59.173,-0.627 54.527,-0.627 51.661,2.238L41.332,12.568L54.434,25.67C57.48,24.642 60.971,25.331 63.398,27.759C65.837,30.201 66.522,33.722 65.468,36.778L78.096,49.406C81.151,48.353 84.676,49.033 87.115,51.477C90.526,54.887 90.526,60.412 87.115,63.822C83.704,67.234 78.179,67.234 74.766,63.822C72.202,61.256 71.567,57.488 72.866,54.328L61.089,42.551L61.088,73.542C61.92,73.954 62.704,74.503 63.397,75.193C66.807,78.602 66.807,84.126 63.397,87.541C59.987,90.95 54.459,90.95 51.052,87.541C47.642,84.126 47.642,78.602 51.052,75.193C51.895,74.352 52.87,73.715 53.911,73.288L53.911,42.009C52.87,41.584 51.896,40.952 51.052,40.104C48.469,37.523 47.847,33.732 49.171,30.56L36.255,17.642L2.149,51.747C-0.716,54.614 -0.716,59.26 2.149,62.125L51.891,111.864C54.755,114.729 59.4,114.729 62.267,111.864L111.779,62.36C114.644,59.494 114.644,54.847 111.779,51.981" style="fill:rgb(223,240,254);fill-rule:nonzero;stroke:rgb(71,136,199);stroke-width:2.36px;"/>
    </g>
</svg>
