<svg xmlns="http://www.w3.org/2000/svg"  viewBox="0 0 40 40" width="80px" height="80px"><path fill="#fff" d="M9.5,34.625V30c0-4.093,2.412-7.839,6.145-9.545L16.64,20l-0.995-0.455 C11.912,17.839,9.5,14.093,9.5,10V5.375h21V10c0,4.093-2.412,7.839-6.145,9.545L23.36,20l0.995,0.455 C28.088,22.161,30.5,25.907,30.5,30v4.625H9.5z"/><path fill="#4788c7" d="M30,5.875V10c0,3.897-2.297,7.465-5.853,9.091L22.158,20l1.989,0.909 C27.703,22.535,30,26.103,30,30v4.125H10V30c0-3.897,2.297-7.465,5.853-9.091L17.842,20l-1.989-0.909 C12.297,17.465,10,13.897,10,10V5.875H30 M31,4.875H9V10c0,4.445,2.642,8.265,6.437,10C11.642,21.735,9,25.555,9,30v5.125h22V30 c0-4.445-2.642-8.265-6.437-10C28.358,18.265,31,14.445,31,10V4.875L31,4.875z"/><path fill="#dff0fe" d="M9.5,7.5v-3H9c-1.183,0-2.5-0.88-2.5-2.143V1.5h27V2c0,1.215-1.285,2.5-2.5,2.5h-0.5v3H9.5z"/><path fill="#4788c7" d="M33,2c0,0.953-1.047,2-2,2h-1v1v2H10V5V4H9C8.056,4,7,3.297,7,2.357V2H33 M34,1H6v1.357 C6,3.856,7.501,5,9,5v3h22V5c1.499,0,3-1.501,3-3V1L34,1z"/><path fill="#98ccfd" d="M11,33h18c0-6.028-9-9-9-9S11,26.918,11,33z"/><path fill="#dff0fe" d="M6.5,38.5V38c0-1.215,1.285-2.5,2.5-2.5h0.5v-3h21v3H31c1.215,0,2.5,1.285,2.5,2.5v0.5H6.5z"/><path fill="#4788c7" d="M30,33v2v1h1c0.953,0,2,1.047,2,2H7c0-0.953,1.047-2,2-2h1v-1v-2H30 M31,32H9v3 c-1.499,0-3,1.501-3,3v1h28v-1c0-1.499-1.501-3-3-3V32L31,32z"/><g><path fill="#98ccfd" d="M12.955,14c1.408,2.431,4.032,4,7.045,4s5.592-1.569,7-4H12.955z"/></g><path fill="#b6dcfe" d="M10 4H30V7H10zM10 33H30V36H10z"/></svg>