<svg xmlns="http://www.w3.org/2000/svg"  viewBox="0 0 40 40" width="80px" height="80px"><path fill="#98ccfd" d="M19.999,38.458C18.291,37.715,4.636,30.984,4.501,6.367L20,1.524l15.499,4.843 C35.364,30.919,21.707,37.708,19.999,38.458z"/><path fill="#4788c7" d="M20,2.048l14.996,4.686c-0.258,23.19-12.752,30.119-15,31.177 C17.735,36.869,5.26,30.057,5.004,6.734L20,2.048 M20,1L4,6c0,27.141,16,33,16,33s16-5.932,16-33L20,1L20,1z"/><path fill="#fff" d="M17.999 20.958c.394.219 1.078.379 1.617.379.888 0 1.34-.467 1.34-1.107 0-.715-.438-1.063-1.267-1.604-1.342-.817-1.852-1.851-1.852-2.74 0-1.575 1.05-2.886 3.09-2.886.655 0 1.267.175 1.546.35l-.306 1.646c-.277-.175-.699-.334-1.24-.334-.817 0-1.21.496-1.21 1.021 0 .582.292.888 1.342 1.53 1.311.788 1.779 1.778 1.779 2.813 0 1.792-1.327 2.974-3.236 2.974-.788 0-1.546-.204-1.881-.394L17.999 20.958zM10.804 20.958c.394.219 1.078.379 1.617.379.888 0 1.34-.467 1.34-1.107 0-.715-.438-1.063-1.267-1.604-1.342-.817-1.852-1.851-1.852-2.74 0-1.575 1.05-2.886 3.09-2.886.655 0 1.267.175 1.546.35l-.306 1.646c-.277-.175-.699-.334-1.24-.334-.817 0-1.21.496-1.21 1.021 0 .582.292.888 1.342 1.53 1.311.788 1.779 1.778 1.779 2.813 0 1.792-1.327 2.974-3.236 2.974-.788 0-1.546-.204-1.881-.394L10.804 20.958zM25.697 13h1.943v8.354h2.551V23h-4.495V13H25.697z"/></svg>