<svg xmlns="http://www.w3.org/2000/svg"  viewBox="0 0 40 40" width="80px" height="80px"><path fill="#dff0fe" d="M12.5 37.5L12.5 34.5 16.5 34.5 16.5 17.5 12.5 17.5 12.5 14.5 23.5 14.5 23.5 34.5 27.5 34.5 27.5 37.5z"/><path fill="#4788c7" d="M23,15v19v1h1h3v2H13v-2h3h1v-1V18v-1h-1h-3v-2h3h4H23 M24,14h-4h-4h-4v4h4v16h-4v4h16v-4h-4V14 L24,14z"/><g><path fill="#dff0fe" d="M20 2.5A4.5 4.5 0 1 0 20 11.5A4.5 4.5 0 1 0 20 2.5Z"/><path fill="#4788c7" d="M20,3c2.206,0,4,1.794,4,4s-1.794,4-4,4s-4-1.794-4-4S17.794,3,20,3 M20,2c-2.761,0-5,2.239-5,5 s2.239,5,5,5s5-2.239,5-5S22.761,2,20,2L20,2z"/></g></svg>