<svg xmlns="http://www.w3.org/2000/svg"  viewBox="0 0 40 40" width="80px" height="80px"><path fill="#dff0fe" d="M5.5,37.5V4c0-1.379,1.122-2.5,2.5-2.5h24c1.378,0,2.5,1.121,2.5,2.5v33.5H5.5z"/><path fill="#4788c7" d="M32,2c1.103,0,2,0.897,2,2v33H6V4c0-1.103,0.897-2,2-2H32 M32,1H8C6.343,1,5,2.343,5,4v34h30V4 C35,2.343,33.657,1,32,1L32,1z"/><path fill="#fff" d="M20,32.5c-5.238,0-9.5-4.262-9.5-9.5s4.262-9.5,9.5-9.5s9.5,4.262,9.5,9.5S25.238,32.5,20,32.5z"/><path fill="#4788c7" d="M20,14c4.963,0,9,4.037,9,9s-4.037,9-9,9s-9-4.037-9-9S15.037,14,20,14 M20,13 c-5.523,0-10,4.477-10,10s4.477,10,10,10s10-4.477,10-10S25.523,13,20,13L20,13z"/><path fill="#98ccfd" d="M28.958,22.17c-1.069-0.423-2.904-1.027-4.672-1.027c-2.715,0-7.41,2.857-10,2.857 c-1.444,0-2.56-0.442-3.277-0.835C11.097,28.058,15.085,32,20,32c4.971,0,9-4.029,9-9C29,22.72,28.983,22.443,28.958,22.17z"/><path fill="none" stroke="#4788c7" stroke-miterlimit="10" d="M5.75 8.5L34.25 8.5"/><path fill="#4788c7" d="M9 4A1 1 0 1 0 9 6 1 1 0 1 0 9 4zM13 4A1 1 0 1 0 13 6 1 1 0 1 0 13 4zM31 4A1 1 0 1 0 31 6 1 1 0 1 0 31 4zM31 37h3c.552 0 1 .448 1 1l0 0c0 .552-.448 1-1 1h-3c-.552 0-1-.448-1-1l0 0C30 37.448 30.448 37 31 37zM6 37h3c.552 0 1 .448 1 1l0 0c0 .552-.448 1-1 1H6c-.552 0-1-.448-1-1l0 0C5 37.448 5.448 37 6 37z"/></svg>