<?xml version="1.0" encoding="UTF-8" standalone="no"?>
<!DOCTYPE svg PUBLIC "-//W3C//DTD SVG 1.1//EN" "http://www.w3.org/Graphics/SVG/1.1/DTD/svg11.dtd">
<svg width="100%" height="100%" viewBox="0 0 280 274" version="1.1" xmlns="http://www.w3.org/2000/svg" xmlns:xlink="http://www.w3.org/1999/xlink" xml:space="preserve" xmlns:serif="http://www.serif.com/" style="fill-rule:evenodd;clip-rule:evenodd;stroke-linejoin:round;stroke-miterlimit:2;">
    <g transform="matrix(2.26231,0,0,2.26231,139.89,270.846)">
        <path d="M0,-118.274C-33.347,-118.274 -60.388,-91.239 -60.388,-57.886C-60.388,-31.206 -43.085,-8.57 -19.091,-0.585C-16.073,-0.026 -14.965,-1.895 -14.965,-3.49C-14.965,-4.929 -15.021,-9.687 -15.047,-14.733C-31.847,-11.08 -35.392,-21.858 -35.392,-21.858C-38.139,-28.837 -42.097,-30.694 -42.097,-30.694C-47.576,-34.442 -41.684,-34.365 -41.684,-34.365C-35.62,-33.939 -32.427,-28.141 -32.427,-28.141C-27.041,-18.91 -18.3,-21.579 -14.854,-23.122C-14.311,-27.024 -12.747,-29.689 -11.02,-31.197C-24.433,-32.723 -38.533,-37.902 -38.533,-61.041C-38.533,-67.633 -36.174,-73.021 -32.311,-77.25C-32.938,-78.771 -35.005,-84.913 -31.725,-93.231C-31.725,-93.231 -26.654,-94.853 -15.115,-87.04C-10.298,-88.378 -5.132,-89.049 0,-89.073C5.132,-89.049 10.302,-88.378 15.128,-87.04C26.654,-94.853 31.718,-93.231 31.718,-93.231C35.005,-84.913 32.938,-78.771 32.311,-77.25C36.183,-73.021 38.525,-67.633 38.525,-61.041C38.525,-37.846 24.398,-32.74 10.951,-31.245C13.117,-29.371 15.047,-25.696 15.047,-20.062C15.047,-11.982 14.978,-5.479 14.978,-3.49C14.978,-1.882 16.064,0 19.125,-0.592C43.107,-8.586 60.388,-31.214 60.388,-57.886C60.388,-91.239 33.351,-118.274 0,-118.274" style="fill:rgb(223,240,254);stroke:rgb(71,136,199);stroke-width:2.89px;"/>
    </g>
</svg>
