<svg xmlns="http://www.w3.org/2000/svg"  viewBox="0 0 40 40" width="80px" height="80px"><path fill="none" stroke="#4788c7" stroke-miterlimit="10" d="M14.05 9.918l-6.78 3.767c-1.092.607-1.77 1.758-1.77 3.007v7.476M25.95 9.918l6.78 3.767c1.092.607 1.77 1.758 1.77 3.007v7.476M29.5 32.359l-7.811 4.687c-1.046.628-2.346.654-3.417.07L9.55 32.359"/><path fill="#dff0fe" d="M13.5 13.359L13.5 6.641 20 2.589 26.5 6.641 26.5 13.359 20 17.411z"/><path fill="#4788c7" d="M20,3.178l6,3.74v6.163l-6,3.74l-6-3.74V6.919L20,3.178 M20,2l-7,4.364v7.273L20,18l7-4.364V6.364 L20,2L20,2z"/><path fill="#98ccfd" d="M20 10.312L14 6.924 14 13.081 20 16.822z"/><path fill="#fff" d="M26 6.924L20 10.312 20 16.822 26 13.081z"/><path fill="#dff0fe" d="M25.5 31.359L25.5 24.641 32 20.589 38.5 24.641 38.5 31.359 32 35.411z"/><path fill="#4788c7" d="M32,21.178l6,3.74v6.163l-6,3.74l-6-3.74v-6.163L32,21.178 M32,20l-7,4.364v7.273L32,36l7-4.364 v-7.273L32,20L32,20z"/><path fill="#98ccfd" d="M32 28.312L26 24.924 26 31.081 32 34.822z"/><path fill="#fff" d="M38 24.924L32 28.312 32 34.822 38 31.081z"/><path fill="#dff0fe" d="M1.5 31.359L1.5 24.641 8 20.589 14.5 24.641 14.5 31.359 8 35.411z"/><path fill="#4788c7" d="M8,21.178l6,3.74v6.163l-6,3.74l-6-3.74v-6.163L8,21.178 M8,20l-7,4.364v7.273L8,36l7-4.364v-7.273 L8,20L8,20z"/><path fill="#98ccfd" d="M8 28.312L2 24.924 2 31.081 8 34.822z"/><path fill="#fff" d="M14 24.924L8 28.312 8 34.822 14 31.081z"/></svg>