<?xml version="1.0" encoding="UTF-8"?>
<svg xmlns="http://www.w3.org/2000/svg" xmlns:xlink="http://www.w3.org/1999/xlink" viewBox="0 0 96 96" width="96px" height="96px">
<g id="surface1650270">
<path style="fill-rule:nonzero;fill:rgb(87.450981%,94.117647%,99.607843%);fill-opacity:1;stroke-width:10;stroke-linecap:butt;stroke-linejoin:round;stroke:rgb(27.843139%,53.333336%,78.039217%);stroke-opacity:1;stroke-miterlimit:10;" d="M 48.473013 77.143901 C 48.473013 79.28363 48.703331 81.01473 49.10453 82.285195 C 49.557737 83.563089 50.129817 84.944997 50.932216 86.44578 C 51.221971 86.913845 51.333415 87.374482 51.333415 87.775681 C 51.333415 88.355191 50.991653 88.934701 50.248691 89.514211 L 46.645328 91.936266 C 46.125254 92.285458 45.612611 92.456339 45.159404 92.456339 C 44.587324 92.456339 44.015244 92.166584 43.443163 91.646511 C 42.640765 90.777246 41.95724 89.855973 41.37773 88.934701 C 40.805649 87.946562 40.233569 86.854408 39.609481 85.524507 C 35.144282 90.836683 29.534922 93.496485 22.788831 93.496485 C 17.98187 93.496485 14.148188 92.107147 11.347223 89.3359 C 8.546257 86.564653 7.112342 82.864705 7.112342 78.243484 C 7.112342 73.332508 8.828583 69.342804 12.320502 66.341239 C 15.812422 63.339674 20.441072 61.831462 26.332758 61.831462 C 28.279317 61.831462 30.285313 62.002343 32.395324 62.299528 C 34.512765 62.589283 36.689642 63.049919 38.977964 63.569992 L 38.977964 59.349971 C 38.977964 54.959068 38.064121 51.898066 36.288443 50.107529 C 34.460758 48.316991 31.370037 47.447726 26.964275 47.447726 C 24.958279 47.447726 22.907705 47.678044 20.790264 48.198117 C 18.672824 48.71819 16.61482 49.349708 14.608824 50.159536 C 13.694981 50.568165 13.004027 50.798483 12.602828 50.917357 C 12.201628 51.028801 11.919303 51.088238 11.688985 51.088238 C 10.886586 51.088238 10.492817 50.508728 10.492817 49.2977 L 10.492817 46.467017 C 10.492817 45.538315 10.604261 44.84736 10.894016 44.446161 C 11.176341 44.037532 11.696415 43.636333 12.491383 43.227704 C 14.49738 42.187558 16.897146 41.325723 19.70554 40.627339 C 22.506506 39.876947 25.478352 39.527756 28.628509 39.527756 C 35.434037 39.527756 40.41188 41.087975 43.614044 44.208414 C 46.764201 47.328852 48.361569 52.068947 48.361569 58.421269 L 48.361569 77.143901 Z M 25.248034 85.925706 C 27.135156 85.925706 29.081716 85.576515 31.13229 84.88556 C 33.197723 84.194606 35.025408 82.924142 36.570768 81.185612 C 37.484611 80.093458 38.175565 78.875001 38.517328 77.493093 C 38.85909 76.103754 39.089408 74.424661 39.089408 72.463243 L 39.089408 70.033758 C 37.432604 69.632559 35.656926 69.283367 33.82924 69.053049 C 31.994125 68.822731 30.218447 68.703857 28.450198 68.703857 C 24.616517 68.703857 21.808122 69.461678 19.920999 71.014467 C 18.033877 72.574687 17.120034 74.773853 17.120034 77.663974 C 17.120034 80.375783 17.810988 82.396639 19.237475 83.785977 C 20.611954 85.234752 22.61795 85.925706 25.248034 85.925706 Z M 71.185349 92.166584 C 70.152632 92.166584 69.469107 91.995703 69.008471 91.587074 C 68.547835 91.245311 68.154065 90.435483 67.804873 89.3359 L 54.364698 44.676479 C 54.015506 43.524889 53.844625 42.767068 53.844625 42.365869 C 53.844625 41.444596 54.305261 40.924523 55.219104 40.924523 L 60.828464 40.924523 C 61.913188 40.924523 62.65615 41.095404 63.057349 41.496604 C 63.517985 41.845796 63.859747 42.655624 64.20151 43.755207 L 73.815433 82.002869 L 82.738401 43.755207 C 83.020727 42.596187 83.369919 41.845796 83.823125 41.496604 C 84.276332 41.147412 85.07873 40.924523 86.111447 40.924523 L 90.68809 40.924523 C 91.772814 40.924523 92.515776 41.095404 92.976412 41.496604 C 93.437048 41.845796 93.830818 42.655624 94.061136 43.755207 L 103.102978 82.463506 L 112.999227 43.755207 C 113.340989 42.596187 113.742188 41.845796 114.143387 41.496604 C 114.596594 41.147412 115.339556 40.924523 116.372272 40.924523 L 121.691877 40.924523 C 122.60572 40.924523 123.125793 41.38516 123.125793 42.365869 C 123.125793 42.655624 123.066356 42.945379 123.006919 43.287141 C 122.954912 43.636333 122.836038 44.096969 122.60572 44.735916 L 108.823783 89.395337 C 108.474591 90.546928 108.073391 91.297319 107.620185 91.646511 C 107.166978 91.995703 106.424017 92.226021 105.443307 92.226021 L 100.524902 92.226021 C 99.440178 92.226021 98.697216 92.05514 98.23658 91.646511 C 97.775944 91.245311 97.382174 90.49492 97.151856 89.3359 L 88.288324 52.068947 L 79.4768 89.276463 C 79.194475 90.435483 78.845283 91.185875 78.392076 91.587074 C 77.93144 91.995703 77.136471 92.166584 76.103754 92.166584 Z M 144.693968 93.726803 C 141.714692 93.726803 138.742846 93.377611 135.882443 92.686657 C 133.022041 91.995703 130.793157 91.245311 129.307233 90.376046 C 128.393391 89.855973 127.761873 89.276463 127.531555 88.75639 C 127.301237 88.236317 127.189793 87.664237 127.189793 87.144163 L 127.189793 84.194606 C 127.189793 82.983579 127.642999 82.404069 128.504835 82.404069 C 128.846597 82.404069 129.18836 82.463506 129.530122 82.57495 C 129.871884 82.693824 130.384528 82.924142 130.956608 83.15446 C 132.903167 84.023725 135.020608 84.714679 137.249493 85.175315 C 139.545244 85.635951 141.774129 85.86627 144.06245 85.86627 C 147.665814 85.86627 150.466779 85.234752 152.413339 83.964288 C 154.359898 82.686394 155.385185 80.83642 155.385185 78.473802 C 155.385185 76.854146 154.872542 75.524244 153.839825 74.424661 C 152.814538 73.332508 150.867979 72.344369 148.067013 71.423096 L 139.768133 68.822731 C 135.600118 67.49283 132.509398 65.531411 130.622275 62.923616 C 128.727723 60.382687 127.761873 57.552004 127.761873 54.550439 C 127.761873 52.120954 128.274517 49.981225 129.307233 48.131251 C 130.33252 46.288706 131.706999 44.66905 133.423241 43.398585 C 135.139482 42.068684 137.086041 41.087975 139.366933 40.397021 C 141.662685 39.706066 144.06245 39.416311 146.58109 39.416311 C 147.836695 39.416311 149.151737 39.475748 150.414772 39.646629 C 151.729814 39.817511 152.925982 40.047829 154.13701 40.278147 C 155.273741 40.567902 156.365894 40.857657 157.391181 41.206849 C 158.423898 41.556041 159.226296 41.897803 159.798377 42.246995 C 160.600775 42.707631 161.172856 43.168267 161.514618 43.68834 C 161.85638 44.148977 162.034691 44.787924 162.034691 45.597752 L 162.034691 48.309561 C 162.034691 49.528018 161.574055 50.159536 160.719649 50.159536 C 160.259013 50.159536 159.516051 49.929218 158.542772 49.468582 C 155.28117 47.967799 151.61837 47.217408 147.5618 47.217408 C 144.300198 47.217408 141.722121 47.730051 139.953873 48.829635 C 138.178195 49.929218 137.264352 51.600881 137.264352 53.970929 C 137.264352 55.590585 137.836432 56.972494 138.980593 58.072077 C 140.124754 59.17166 142.242195 60.271243 145.273478 61.251952 L 153.394048 63.852318 C 157.510055 65.182219 160.489331 67.032193 162.25758 69.402241 C 164.033258 71.772288 164.887664 74.484098 164.887664 77.493093 C 164.887664 79.974584 164.37502 82.225758 163.401741 84.187176 C 162.376454 86.156025 161.001975 87.887125 159.226296 89.276463 C 157.458048 90.717809 155.340607 91.757955 152.881404 92.508346 C 150.295898 93.318174 147.606377 93.726803 144.693968 93.726803 Z M 144.693968 93.726803 " transform="matrix(0.525767,0,0,0.525767,2.784,2.784)"/>
<path style="fill-rule:nonzero;fill:rgb(87.450981%,94.117647%,99.607843%);fill-opacity:1;stroke-width:10;stroke-linecap:butt;stroke-linejoin:round;stroke:rgb(27.843139%,53.333336%,78.039217%);stroke-opacity:1;stroke-miterlimit:10;" d="M 155.504059 121.803321 C 136.684842 135.845295 109.336426 143.2972 85.821692 143.2972 C 52.878775 143.2972 23.182601 130.993756 0.76002 110.540024 C -1.015658 108.920368 0.589139 106.728631 2.706579 107.999095 C 26.964275 122.21195 56.875909 130.822875 87.827688 130.822875 C 108.704909 130.822875 131.647562 126.431972 152.755101 117.412418 C 155.905258 115.971073 158.594779 119.492711 155.504059 121.803321 Z M 163.342304 112.791197 C 160.935108 109.670759 147.435496 111.290415 141.313493 112.040806 C 139.485807 112.271124 139.196052 110.651468 140.860286 109.440441 C 151.61094 101.810225 169.285996 104.009391 171.351429 106.55032 C 173.409433 109.150686 170.771919 127.004053 160.71222 135.55554 C 159.166859 136.885442 157.680936 136.187058 158.364461 134.455957 C 160.652783 128.735153 165.74207 115.852199 163.342304 112.791197 Z M 163.342304 112.791197 " transform="matrix(0.525767,0,0,0.525767,2.784,2.784)"/>
<path style=" stroke:none;fill-rule:nonzero;fill:rgb(87.450981%,94.117647%,99.607843%);fill-opacity:1;" d="M 28.269531 43.34375 C 28.269531 44.46875 28.390625 45.378906 28.601562 46.046875 C 28.839844 46.71875 29.140625 47.445312 29.5625 48.234375 C 29.714844 48.480469 29.773438 48.722656 29.773438 48.933594 C 29.773438 49.238281 29.59375 49.542969 29.203125 49.847656 L 27.308594 51.121094 C 27.035156 51.304688 26.765625 51.394531 26.527344 51.394531 C 26.226562 51.394531 25.925781 51.242188 25.625 50.96875 C 25.203125 50.511719 24.84375 50.027344 24.539062 49.542969 C 24.238281 49.023438 23.9375 48.449219 23.609375 47.75 C 21.261719 50.542969 18.3125 51.941406 14.765625 51.941406 C 12.238281 51.941406 10.222656 51.210938 8.75 49.753906 C 7.277344 48.296875 6.523438 46.351562 6.523438 43.921875 C 6.523438 41.339844 7.425781 39.242188 9.261719 37.664062 C 11.097656 36.085938 13.53125 35.292969 16.628906 35.292969 C 17.652344 35.292969 18.707031 35.382812 19.816406 35.539062 C 20.929688 35.691406 22.074219 35.933594 23.277344 36.207031 L 23.277344 33.988281 C 23.277344 31.679688 22.796875 30.070312 21.863281 29.128906 C 20.902344 28.1875 19.277344 27.730469 16.960938 27.730469 C 15.90625 27.730469 14.828125 27.851562 13.714844 28.125 C 12.601562 28.398438 11.519531 28.730469 10.464844 29.15625 C 9.984375 29.371094 9.621094 29.492188 9.410156 29.554688 C 9.199219 29.613281 9.050781 29.644531 8.929688 29.644531 C 8.507812 29.644531 8.300781 29.339844 8.300781 28.703125 L 8.300781 27.214844 C 8.300781 26.726562 8.359375 26.363281 8.511719 26.152344 C 8.660156 25.9375 8.933594 25.726562 9.351562 25.511719 C 10.40625 24.964844 11.667969 24.511719 13.144531 24.144531 C 14.617188 23.75 16.179688 23.566406 17.835938 23.566406 C 21.414062 23.566406 24.03125 24.386719 25.714844 26.027344 C 27.371094 27.667969 28.210938 30.160156 28.210938 33.5 L 28.210938 43.34375 Z M 16.058594 47.960938 C 17.050781 47.960938 18.074219 47.777344 19.152344 47.414062 C 20.238281 47.050781 21.199219 46.382812 22.011719 45.46875 C 22.492188 44.894531 22.855469 44.253906 23.035156 43.527344 C 23.214844 42.796875 23.335938 41.914062 23.335938 40.882812 L 23.335938 39.605469 C 22.464844 39.394531 21.53125 39.210938 20.570312 39.089844 C 19.605469 38.96875 18.671875 38.90625 17.742188 38.90625 C 15.726562 38.90625 14.25 39.304688 13.257812 40.121094 C 12.265625 40.941406 11.785156 42.097656 11.785156 43.617188 C 11.785156 45.042969 12.148438 46.105469 12.898438 46.835938 C 13.621094 47.597656 14.675781 47.960938 16.058594 47.960938 Z M 40.210938 51.242188 C 39.667969 51.242188 39.308594 51.152344 39.066406 50.9375 C 38.824219 50.757812 38.617188 50.332031 38.433594 49.753906 L 31.367188 26.273438 C 31.183594 25.667969 31.09375 25.269531 31.09375 25.058594 C 31.09375 24.574219 31.335938 24.300781 31.816406 24.300781 L 34.765625 24.300781 C 35.335938 24.300781 35.726562 24.390625 35.9375 24.601562 C 36.179688 24.785156 36.359375 25.210938 36.539062 25.789062 L 41.59375 45.898438 L 46.285156 25.789062 C 46.433594 25.179688 46.617188 24.785156 46.855469 24.601562 C 47.09375 24.417969 47.515625 24.300781 48.058594 24.300781 L 50.464844 24.300781 C 51.035156 24.300781 51.425781 24.390625 51.667969 24.601562 C 51.910156 24.785156 52.117188 25.210938 52.238281 25.789062 L 56.992188 46.140625 L 62.195312 25.789062 C 62.375 25.179688 62.585938 24.785156 62.796875 24.601562 C 63.035156 24.417969 63.425781 24.300781 63.96875 24.300781 L 66.765625 24.300781 C 67.246094 24.300781 67.519531 24.542969 67.519531 25.058594 C 67.519531 25.210938 67.488281 25.363281 67.457031 25.542969 C 67.429688 25.726562 67.367188 25.96875 67.246094 26.304688 L 60 49.785156 C 59.816406 50.390625 59.605469 50.785156 59.367188 50.96875 C 59.128906 51.152344 58.738281 51.273438 58.222656 51.273438 L 55.636719 51.273438 C 55.066406 51.273438 54.675781 51.183594 54.433594 50.96875 C 54.191406 50.757812 53.984375 50.363281 53.863281 49.753906 L 49.203125 30.160156 L 44.570312 49.722656 C 44.421875 50.332031 44.238281 50.726562 44 50.9375 C 43.757812 51.152344 43.339844 51.242188 42.796875 51.242188 Z M 78.859375 52.0625 C 77.292969 52.0625 75.730469 51.878906 74.226562 51.515625 C 72.722656 51.152344 71.550781 50.757812 70.769531 50.300781 C 70.289062 50.027344 69.957031 49.722656 69.835938 49.449219 C 69.714844 49.175781 69.65625 48.875 69.65625 48.601562 L 69.65625 47.050781 C 69.65625 46.414062 69.894531 46.109375 70.347656 46.109375 C 70.527344 46.109375 70.707031 46.140625 70.886719 46.199219 C 71.066406 46.261719 71.335938 46.382812 71.636719 46.503906 C 72.660156 46.960938 73.773438 47.324219 74.945312 47.566406 C 76.152344 47.808594 77.324219 47.929688 78.527344 47.929688 C 80.421875 47.929688 81.894531 47.597656 82.917969 46.929688 C 83.941406 46.257812 84.480469 45.285156 84.480469 44.042969 C 84.480469 43.191406 84.210938 42.492188 83.667969 41.914062 C 83.128906 41.339844 82.105469 40.820312 80.632812 40.335938 L 76.269531 38.96875 C 74.078125 38.269531 72.453125 37.238281 71.460938 35.867188 C 70.464844 34.53125 69.957031 33.042969 69.957031 31.464844 C 69.957031 30.1875 70.226562 29.0625 70.769531 28.089844 C 71.308594 27.121094 72.03125 26.269531 72.933594 25.601562 C 73.835938 24.902344 74.859375 24.386719 76.058594 24.023438 C 77.265625 23.660156 78.527344 23.507812 79.851562 23.507812 C 80.511719 23.507812 81.203125 23.539062 81.867188 23.628906 C 82.558594 23.71875 83.1875 23.839844 83.824219 23.960938 C 84.421875 24.113281 84.996094 24.265625 85.535156 24.449219 C 86.078125 24.632812 86.5 24.8125 86.800781 24.996094 C 87.222656 25.238281 87.523438 25.480469 87.703125 25.753906 C 87.882812 25.996094 87.976562 26.332031 87.976562 26.757812 L 87.976562 28.183594 C 87.976562 28.824219 87.734375 29.15625 87.285156 29.15625 C 87.042969 29.15625 86.652344 29.035156 86.140625 28.792969 C 84.425781 28.003906 82.5 27.609375 80.367188 27.609375 C 78.652344 27.609375 77.296875 27.878906 76.367188 28.457031 C 75.433594 29.035156 74.953125 29.914062 74.953125 31.160156 C 74.953125 32.011719 75.253906 32.738281 75.855469 33.316406 C 76.457031 33.894531 77.570312 34.472656 79.164062 34.988281 L 83.433594 36.355469 C 85.597656 37.054688 87.164062 38.027344 88.09375 39.273438 C 89.027344 40.519531 89.476562 41.945312 89.476562 43.527344 C 89.476562 44.832031 89.207031 46.015625 88.695312 47.046875 C 88.15625 48.082031 87.433594 48.992188 86.5 49.722656 C 85.570312 50.480469 84.457031 51.027344 83.164062 51.421875 C 81.804688 51.847656 80.390625 52.0625 78.859375 52.0625 Z M 78.859375 52.0625 "/>
<path style=" stroke:none;fill-rule:nonzero;fill:rgb(87.450981%,94.117647%,99.607843%);fill-opacity:1;" d="M 84.542969 66.824219 C 74.648438 74.207031 60.269531 78.125 47.90625 78.125 C 30.585938 78.125 14.972656 71.65625 3.183594 60.902344 C 2.25 60.050781 3.09375 58.898438 4.207031 59.566406 C 16.960938 67.039062 32.6875 71.566406 48.960938 71.566406 C 59.9375 71.566406 72 69.257812 83.097656 64.515625 C 84.753906 63.757812 86.167969 65.609375 84.542969 66.824219 Z M 88.664062 62.085938 C 87.398438 60.445312 80.300781 61.296875 77.082031 61.691406 C 76.121094 61.8125 75.96875 60.960938 76.84375 60.324219 C 82.496094 56.3125 91.789062 57.46875 92.875 58.804688 C 93.957031 60.171875 92.570312 69.558594 87.28125 74.054688 C 86.46875 74.753906 85.6875 74.386719 86.046875 73.476562 C 87.25 70.46875 89.925781 63.695312 88.664062 62.085938 Z M 88.664062 62.085938 "/>
</g>
</svg>
