<svg xmlns="http://www.w3.org/2000/svg"  viewBox="0 0 40 40" width="80px" height="80px"><path fill="#b6dcfe" d="M1.5,35.5v-31h10.293l3,3H38.5v28H1.5z"/><path fill="#4788c7" d="M11.586,5l2.707,2.707L14.586,8H15h23v27H2V5H11.586 M12,4H1v32h38V7H15L12,4L12,4z"/><path fill="#dff0fe" d="M1.5,35.5v-26h10.651l3-2H38.5v28H1.5z"/><path fill="#4788c7" d="M38,8v27H2V10h10h0.303l0.252-0.168L15.303,8H38 M39,7H15l-3,2H1v27h38V7L39,7z"/><rect width="13" height="2" x="20.5" y="29.5" fill="#98ccfd"/><path fill="#4788c7" d="M34,32H20v-3h14V32z M21,31h12v-1H21V31z"/><g><polygon fill="#98ccfd" points="19.428,22.189 10.236,12.996 8.822,14.411 16.623,22.212 8.822,30.014 10.236,31.428 19.428,22.236 19.405,22.212"/><path fill="#4788c7" d="M10.236,32.136l-2.121-2.122l7.802-7.802L8.115,14.41l2.121-2.121l9.899,9.899l-0.354,0.401 L10.236,32.136z M9.529,30.014l0.707,0.708l8.508-8.511l-8.508-8.508L9.529,14.41l7.802,7.802L9.529,30.014z"/></g></svg>