<svg xmlns="http://www.w3.org/2000/svg"  viewBox="0 0 40 40" width="80px" height="80px"><path fill="#98ccfd" d="M6.758,35.414l-2.879,2.879l-2.172-2.172l2.879-2.879l-2.879-2.879l2.172-2.172l2.879,2.879 l3.384-3.385l-0.217-0.339C8.993,25.893,8.5,24.217,8.5,22.5c0-4.962,4.037-9,9-9s9,4.038,9,9s-4.037,9-9,9 c-1.717,0-3.393-0.493-4.848-1.425l-0.339-0.217L8.93,33.242l2.879,2.879l-2.172,2.172L6.758,35.414z M17.5,16.5 c-3.309,0-6,2.691-6,6s2.691,6,6,6s6-2.691,6-6S20.809,16.5,17.5,16.5z"/><path fill="#4788c7" d="M17.5,14c4.687,0,8.5,3.813,8.5,8.5S22.187,31,17.5,31c-1.621,0-3.204-0.465-4.577-1.346 l-0.678-0.435l-0.569,0.569L8.93,32.535l-0.707,0.707l0.707,0.707l2.172,2.172l-1.465,1.465l-2.172-2.172l-0.707-0.707 l-0.707,0.707l-2.172,2.172l-1.465-1.465l2.172-2.172l0.707-0.707l-0.707-0.707l-2.172-2.172l1.465-1.465l2.172,2.172l0.707,0.707 l0.707-0.707l2.746-2.746l0.569-0.569l-0.435-0.678C9.465,25.704,9,24.121,9,22.5C9,17.813,12.813,14,17.5,14 M17.5,29 c3.584,0,6.5-2.916,6.5-6.5S21.084,16,17.5,16S11,18.916,11,22.5S13.916,29,17.5,29 M17.5,13C12.253,13,8,17.253,8,22.5 c0,1.886,0.556,3.639,1.504,5.117l-2.746,2.746l-2.879-2.879L1,30.363l2.879,2.879L1,36.121L3.879,39l2.879-2.879L9.637,39 l2.879-2.879l-2.879-2.879l2.746-2.746C13.861,31.444,15.614,32,17.5,32c5.247,0,9.5-4.253,9.5-9.5S22.747,13,17.5,13L17.5,13z M17.5,28c-3.038,0-5.5-2.462-5.5-5.5c0-3.038,2.462-5.5,5.5-5.5s5.5,2.462,5.5,5.5C23,25.538,20.538,28,17.5,28L17.5,28z"/><g><path fill="#dff0fe" d="M21.97,26.474c-4.768-0.275-8.47-4.175-8.47-8.974c0-4.962,4.037-9,9-9 c1.716,0,3.393,0.493,4.848,1.425l0.339,0.217L33.328,4.5H27.5v-3h11v11h-3V6.672l-5.642,5.643l0.217,0.339 c0.932,1.454,1.425,3.13,1.425,4.847c0,3.718-2.28,7.006-5.668,8.352c0.439-1.076,0.668-2.216,0.668-3.352 c0-0.171-0.008-0.342-0.02-0.513c1.287-1.14,2.02-2.761,2.02-4.487c0-3.309-2.691-6-6-6s-6,2.691-6,6s2.691,6,6,6 c0.304,0,0.611-0.024,0.918-0.073C23.239,24.552,22.738,25.61,21.97,26.474z"/><path fill="#4788c7" d="M38,2v10h-2V7.879V5.465l-1.707,1.707l-4.504,4.504l-0.569,0.569l0.435,0.678 C30.535,14.296,31,15.879,31,17.5c0,3.117-1.698,5.915-4.318,7.393C26.892,24.108,27,23.303,27,22.5 c0-0.104-0.003-0.207-0.007-0.305C28.275,20.97,29,19.287,29,17.5c0-3.584-2.916-6.5-6.5-6.5S16,13.916,16,17.5s2.916,6.5,6.5,6.5 c0.093,0,0.187-0.002,0.281-0.006c-0.204,0.712-0.553,1.381-1.027,1.963C17.37,25.579,14,21.949,14,17.5 c0-4.687,3.813-8.5,8.5-8.5c1.621,0,3.204,0.465,4.577,1.346l0.678,0.435l0.569-0.569l4.504-4.504L34.535,4h-2.414H28V2H38 M39,1 H27v4h5.121l-4.504,4.504C26.139,8.556,24.386,8,22.5,8c-5.247,0-9.5,4.253-9.5,9.5c0,5.138,4.082,9.313,9.179,9.484 c1.063-1.11,1.732-2.585,1.805-4.192C23.511,22.924,23.015,23,22.5,23c-3.038,0-5.5-2.462-5.5-5.5c0-3.038,2.462-5.5,5.5-5.5 s5.5,2.462,5.5,5.5c0,1.725-0.795,3.263-2.038,4.271C25.984,22.013,26,22.256,26,22.5c0,1.478-0.406,2.917-1.131,4.19 C28.967,25.636,32,21.927,32,17.5c0-1.886-0.556-3.639-1.504-5.117L35,7.879V13h4V1L39,1z"/></g></svg>