<svg xmlns="http://www.w3.org/2000/svg"  viewBox="0 0 40 40" width="80px" height="80px"><path fill="#dff0fe" d="M19.5 30.5H22.5V34.5H19.5z"/><path fill="#4788c7" d="M22,31v3h-2v-3H22 M23,30h-4v5h4V30L23,30z"/><path fill="#dff0fe" d="M12.5 30.5H15.5V34.5H12.5z"/><path fill="#4788c7" d="M15,31v3h-2v-3H15 M16,30h-4v5h4V30L16,30z"/><g><path fill="#dff0fe" d="M5.5 30.5H8.5V34.5H5.5z"/><path fill="#4788c7" d="M8,31v3H6v-3H8 M9,30H5v5h4V30L9,30z"/></g><g><path fill="#dff0fe" d="M26.5,34.5v-4H27c4.136,0,7.5-3.364,7.5-7.5s-3.364-7.5-7.5-7.5H10.5v6.335L1.726,13.5L10.5,5.165 V11.5H27c6.341,0,11.5,5.159,11.5,11.5S33.341,34.5,27,34.5H26.5z"/><path fill="#4788c7" d="M10,6.329V11v1h1h16c6.065,0,11,4.935,11,11s-4.935,11-11,11h0v-3h0c4.411,0,8-3.589,8-8 s-3.589-8-8-8H11h-1v1v4.671L2.452,13.5L10,6.329 M11,4L1,13.5L11,23v-7h16c3.86,0,7,3.14,7,7s-3.14,7-7,7h-1v5h1 c6.617,0,12-5.383,12-12s-5.383-12-12-12H11V4L11,4z"/></g></svg>