<svg xmlns="http://www.w3.org/2000/svg"  viewBox="0 0 40 40" width="80px" height="80px"><path fill="#dff0fe" d="M7.783,37.517c-0.299,0-0.541-0.069-0.739-0.213c-1.167-0.847,0.25-3.821,1.501-6.445 c1.312-2.753,2.551-5.354,1.923-7.033c-0.251-0.672-1.258-1.234-3.167-2.251C4.853,20.27,1.5,18.482,1.5,16.5 c0-0.481,1.095-1,3.5-1c8.207,0,9.04-0.833,9.354-1.146c1.098-1.098,1.475-3.39,1.874-5.816C16.715,5.569,17.22,2.5,19,2.5 c2.207,0,2.847,3.175,3.467,6.245c0.491,2.436,0.955,4.736,2.241,5.661c1.359,0.977,4.311,1.111,7.298,1.111 c0.545,0,1.086-0.005,1.607-0.01C34.096,15.504,34.562,15.5,35,15.5c2.224,0,3.5,0.364,3.5,1c0,1.367-3.112,3.221-5.384,4.575 c-2.133,1.271-3.352,2.026-3.592,2.771c-0.54,1.678,0.687,4.225,1.986,6.921c1.27,2.635,2.708,5.621,1.529,6.478 c-0.199,0.145-0.438,0.215-0.729,0.215c-1.497,0-3.84-1.775-6.105-3.492C23.852,32.185,21.628,30.5,20,30.5 c-1.256,0-3.2,1.465-5.452,3.162C12.15,35.469,9.433,37.517,7.783,37.517z"/><path fill="#4788c7" d="M19,3c1.669,0,2.286,2.422,2.976,5.844c0.511,2.535,0.994,4.928,2.44,5.968 c1.391,1,4.04,1.205,7.589,1.205c0.547,0,1.089-0.005,1.612-0.009C34.098,16.004,34.563,16,35,16c2.635,0,3.001,0.5,3,0.5h0 c0,1.083-3.343,3.075-5.14,4.145c-2.302,1.371-3.516,2.13-3.812,3.048c-0.601,1.868,0.668,4.502,2.012,7.291 c1.006,2.089,2.527,5.245,1.686,5.856c-0.071,0.051-0.193,0.12-0.435,0.12c-1.328,0-3.706-1.801-5.803-3.391 C23.98,31.654,21.797,30,20,30c-1.355,0-3.069,1.24-5.753,3.263c-2.219,1.673-4.982,3.754-6.464,3.754 c-0.253,0-0.375-0.067-0.445-0.118c-0.83-0.602,0.668-3.746,1.659-5.826c1.359-2.852,2.642-5.545,1.94-7.423 c-0.315-0.843-1.326-1.412-3.4-2.517c-2.187-1.165-5.484-2.922-5.536-4.593C2.16,16.378,2.959,16,5,16 c8.414,0,9.287-0.873,9.707-1.293c1.211-1.211,1.601-3.581,2.013-6.089C17.153,5.985,17.644,3,19,3 M19,2 c-3.792,0-2.649,9.649-5,12c-0.854,0.854-5.648,1-9,1c-2.167,0-4,0.417-4,1.5c0,3.583,8.458,6.05,9,7.5 c1.201,3.215-6.036,11.686-3.25,13.708c0.294,0.213,0.642,0.309,1.033,0.309C11.132,38.017,17.62,31,20,31 c2.986,0,9.053,6.96,12.311,6.96c0.383,0,0.727-0.096,1.022-0.311C36.119,35.627,28.948,27.267,30,24c0.485-1.507,9-4.75,9-7.5 c0-1.208-1.907-1.5-4-1.5c-0.912,0-1.943,0.017-2.995,0.017c-2.806,0-5.76-0.122-7.005-1.017C22.301,12.059,23.492,2,19,2L19,2z"/><path fill="#98ccfd" d="M16.5 18A1.5 1.5 0 1 0 16.5 21 1.5 1.5 0 1 0 16.5 18zM14.5 27A1.5 1.5 0 1 0 14.5 30 1.5 1.5 0 1 0 14.5 27zM24.5 17A1.5 1.5 0 1 0 24.5 20 1.5 1.5 0 1 0 24.5 17zM25.5 25A1.5 1.5 0 1 0 25.5 28 1.5 1.5 0 1 0 25.5 25zM20 23A2 2 0 1 0 20 27 2 2 0 1 0 20 23z"/></svg>