<svg xmlns="http://www.w3.org/2000/svg"  viewBox="0 0 40 40" width="80px" height="80px"><path fill="#b6dcfe" d="M19.5 8.5H39.5V17.5H19.5z"/><path fill="#4788c7" d="M39,9v8H20V9H39 M40,8H19v10h21V8L40,8z"/><path fill="#b6dcfe" d="M19.5 22.5H39.5V31.5H19.5z"/><path fill="#4788c7" d="M39,23v8H20v-8H39 M40,22H19v10h21V22L40,22z"/><path fill="#dff0fe" d="M7.268,35.5L5.5,32.849V17.5H4c-1.93,0-3.5-1.57-3.5-3.5V8c0-1.93,1.57-3.5,3.5-3.5h9 c1.93,0,3.5,1.57,3.5,3.5v6c0,1.93-1.57,3.5-3.5,3.5h-1.5v4.293l-1,1v1.414l1,1v1.586l-1,1v1.414l1,1v2.642L9.732,35.5H7.268z M5,7.5C4.173,7.5,3.5,8.173,3.5,9v1c0,0.827,0.673,1.5,1.5,1.5h7c0.827,0,1.5-0.673,1.5-1.5V9c0-0.827-0.673-1.5-1.5-1.5H5z"/><path fill="#4788c7" d="M13,5c1.654,0,3,1.346,3,3v6c0,1.654-1.346,3-3,3h-1h-1v1v3.586l-0.707,0.707L10,22.586V23v1v0.414 l0.293,0.293L11,25.414v1.172l-0.707,0.707L10,27.586V28v1v0.414l0.293,0.293L11,30.414v2.283L9.465,35h-1.93L6,32.697V18v-1H5H4 c-1.654,0-3-1.346-3-3V8c0-1.654,1.346-3,3-3H13 M5,12h7c1.103,0,2-0.897,2-2V9c0-1.103-0.897-2-2-2H5C3.897,7,3,7.897,3,9v1 C3,11.103,3.897,12,5,12 M13,4H4C1.791,4,0,5.791,0,8v6c0,2.209,1.791,4,4,4h1v15l2,3h3l2-3v-3l-1-1v-1l1-1v-2l-1-1v-1l1-1v-4h1 c2.209,0,4-1.791,4-4V8C17,5.791,15.209,4,13,4L13,4z M5,11c-0.552,0-1-0.448-1-1V9c0-0.552,0.448-1,1-1h7c0.552,0,1,0.448,1,1v1 c0,0.552-0.448,1-1,1H5L5,11z"/><path fill="#98ccfd" d="M8 35L8 18 7 18 7 34.197 7.535 35z"/><path fill="#98ccfd" d="M7.5,22L7.5,22C7.225,22,7,21.775,7,21.5v-4C7,17.225,7.225,17,7.5,17h0C7.775,17,8,17.225,8,17.5v4 C8,21.775,7.775,22,7.5,22z"/></svg>