<svg xmlns="http://www.w3.org/2000/svg"  viewBox="0 0 40 40" width="80px" height="80px"><path fill="#b6dcfe" d="M19,8c0.319,1.994-1.947,4-3.537,4C12.338,12,13.875,4,7,4c3.124,9.706-6,11.415-6,22.375 C1,30.591,5.614,36,12,36s11-4.371,11-9.625C23,18.21,19,8,19,8z"/><path fill="#fff" d="M12.039,35C7.701,35,5,30.488,5,28.041C5,22.258,10.794,20.604,9.552,15 c6.43,2.652,1.347,5.533,3.014,7.426c1.308,1.486,3.473-0.631,2.74-2.74C17.717,22.098,19,25.222,19,28.007 C19,31.119,16.383,35,12.039,35z"/><path fill="#dff0fe" d="M8.101 17.849H41.753V20.583H8.101z" transform="rotate(-42.297 24.925 19.215)"/><path fill="#4788c7" d="M36.42,7.589l1.167,1.283L13.435,30.844l-1.167-1.283L36.42,7.589 M36.487,6.176L10.855,29.495 l2.513,2.762L39,8.938L36.487,6.176L36.487,6.176z"/><path fill="#98ccfd" d="M12.249,32.5c-0.492,0-0.963-0.208-1.294-0.572c-0.649-0.713-0.596-1.822,0.117-2.471l1.053-0.958 c0.208-0.189,0.479-0.294,0.76-0.294c0.318,0,0.623,0.135,0.836,0.369l0.833,0.916c0.204,0.224,0.308,0.513,0.293,0.814 c-0.014,0.301-0.145,0.578-0.368,0.781l-1.053,0.958C13.104,32.338,12.686,32.5,12.249,32.5z"/><path fill="#4788c7" d="M12.885,28.705c0.104,0,0.303,0.027,0.466,0.206l0.834,0.917c0.234,0.257,0.215,0.656-0.042,0.889 l-1.053,0.958C12.86,31.884,12.561,32,12.25,32c-0.357,0-0.685-0.145-0.925-0.409c-0.464-0.51-0.426-1.301,0.083-1.765 l1.053-0.958C12.578,28.763,12.728,28.705,12.885,28.705 M12.885,27.705c-0.391,0-0.784,0.14-1.096,0.424l-1.053,0.958 c-0.919,0.836-0.986,2.259-0.15,3.178C11.029,32.752,11.639,33,12.25,33c0.54,0,1.082-0.193,1.513-0.586l1.053-0.958 c0.666-0.606,0.714-1.636,0.109-2.302l-0.834-0.917C13.769,27.884,13.328,27.705,12.885,27.705L12.885,27.705z"/><path fill="none" stroke="#4788c7" stroke-linecap="round" stroke-miterlimit="10" d="M21.376,17.674 c-0.72-3.192-1.625-6.044-2.219-7.768c-0.161,0.326-0.373,0.646-0.633,0.951c-0.851,0.998-2.052,1.643-3.06,1.643 c-1.602,0-2.197-1.538-2.828-3.167c-0.822-2.122-1.747-4.51-4.956-4.803c1.375,5.007-0.509,7.975-2.5,11.108 c-1.809,2.85-3.68,5.797-3.68,10.736C1.5,30.096,5.59,35.5,12,35.5c5.825,0,10.395-3.925,10.491-8.965"/></svg>