<svg xmlns="http://www.w3.org/2000/svg"  viewBox="0 0 40 40" width="80px" height="80px"><path fill="#b6dcfe" d="M1.512,35.5c0.269-5.559,4.982-10,10.738-10h7.5c5.756,0,10.47,4.441,10.738,10H1.512z"/><path fill="#4788c7" d="M19.75,26c5.306,0,9.683,3.954,10.199,9H2.051c0.516-5.046,4.893-9,10.199-9H19.75 M19.75,25h-7.5 C6.037,25,1,29.925,1,36h30C31,29.925,25.963,25,19.75,25L19.75,25z"/><path fill="#fff" d="M16,28.5c-3.055,0-4.3-2.645-4.5-3.124v-5.467h9v5.469C20.297,25.875,19.075,28.5,16,28.5z"/><path fill="#4788c7" d="M20,20.41v4.865C19.737,25.865,18.607,28,16,28c-2.611,0-3.741-2.141-4-2.725V20.41H20 M21,19.41 H11v6.062c0,0,1.267,3.529,5,3.529s5-3.529,5-3.529V19.41L21,19.41z"/><path fill="#dff0fe" d="M22.429,17.643c-1.143,0-2.071-0.929-2.071-2.071s0.929-2.071,2.071-2.071 c1.725,0,2.071,0.465,2.071,1.214C24.5,15.966,23.476,17.643,22.429,17.643z M9.571,17.643c-1.047,0-2.071-1.677-2.071-2.929 c0-0.749,0.347-1.214,2.071-1.214c1.143,0,2.071,0.929,2.071,2.071S10.714,17.643,9.571,17.643z"/><path fill="#4788c7" d="M22.429,14C24,14,24,14.363,24,14.714c0,1.044-0.896,2.429-1.571,2.429 c-0.867,0-1.571-0.705-1.571-1.571S21.562,14,22.429,14 M9.571,14c0.867,0,1.571,0.705,1.571,1.571s-0.705,1.571-1.571,1.571 C8.896,17.143,8,15.758,8,14.714C8,14.363,8,14,9.571,14 M22.429,13c-1.42,0-2.571,1.151-2.571,2.571s1.151,2.571,2.571,2.571 S25,16.134,25,14.714S23.849,13,22.429,13L22.429,13z M9.571,13C8.151,13,7,13.294,7,14.714s1.151,3.429,2.571,3.429 s2.571-1.151,2.571-2.571S10.992,13,9.571,13L9.571,13z"/><path fill="#fff" d="M16,24.5c-0.58,0-1.135-0.224-1.56-0.631l-0.09-0.086l-0.12-0.034 C11.445,22.963,9.5,20.393,9.5,17.5V9.364c0-1.564,1.272-2.837,2.836-2.837h7.328c1.563,0,2.836,1.272,2.836,2.837V17.5 c0,2.893-1.945,5.463-4.73,6.249l-0.12,0.034l-0.09,0.086C17.135,24.276,16.58,24.5,16,24.5z"/><path fill="#4788c7" d="M19.664,7.028C20.952,7.028,22,8.076,22,9.364V17.5c0,2.67-1.796,5.042-4.367,5.768l-0.239,0.068 l-0.18,0.172C16.882,23.825,16.451,24,16,24s-0.882-0.175-1.215-0.492l-0.18-0.172l-0.239-0.068C11.796,22.542,10,20.17,10,17.5 V9.364c0-1.288,1.048-2.336,2.336-2.336H19.664 M19.664,6.028h-7.328C10.494,6.028,9,7.521,9,9.364V17.5 c0,3.205,2.156,5.9,5.095,6.731C14.591,24.705,15.26,25,16,25s1.409-0.295,1.905-0.769C20.844,23.4,23,20.705,23,17.5V9.364 C23,7.521,21.506,6.028,19.664,6.028L19.664,6.028z"/><g><path fill="#b6dcfe" d="M22.5,15.5V12c0-3.484-2.218-4.425-2.312-4.463l-0.343-0.14l-0.234,0.287 C19.589,7.713,17.283,10.5,14,10.5c-2.005,0-4.5,0-4.5,2.5v2.5H9.285C8.845,14.727,7.5,12.151,7.5,9.576 C7.5,4.821,10.995,1.5,16,1.5c3.095,0,4.543,2.704,4.557,2.731l0.119,0.228l0.253,0.036C22.462,4.715,24.5,5.524,24.5,10 c0,2.334-1.338,4.763-1.778,5.5H22.5z"/><path fill="#4788c7" d="M16,2c2.762,0,4.062,2.367,4.113,2.463l0.237,0.454l0.507,0.073C22.321,5.199,24,5.958,24,10 c0,1.395-0.515,2.842-1,3.894V12c0-3.816-2.516-4.883-2.623-4.926l-0.687-0.279l-0.467,0.577C19.201,7.397,17.06,10,14,10 c-1.87,0-5,0-5,3v0.801c-0.486-1.124-1-2.679-1-4.225C8,5.115,11.29,2,16,2 M16,1c-5.36,0-9,3.667-9,8.576C7,12.828,9,16,9,16h1 c0,0,0-2.105,0-3c0-2,2.042-2,4-2c3.573,0,6-3,6-3s2,0.813,2,4c0,0.984,0,4,0,4h1c0,0,2-3.037,2-6c0-4.161-1.703-5.671-4-6 C21,4,19.434,1,16,1L16,1z"/></g><g><path fill="#98ccfd" d="M31,39.5c-4.687,0-8.5-3.813-8.5-8.5s3.813-8.5,8.5-8.5s8.5,3.813,8.5,8.5S35.687,39.5,31,39.5z"/><path fill="#4788c7" d="M31,23c4.411,0,8,3.589,8,8c0,4.411-3.589,8-8,8s-8-3.589-8-8C23,26.589,26.589,23,31,23 M31,22 c-4.971,0-9,4.029-9,9c0,4.971,4.029,9,9,9s9-4.029,9-9C40,26.029,35.971,22,31,22L31,22z"/></g><path fill="none" stroke="#fff" stroke-miterlimit="10" stroke-width="2" d="M27.5 34.5L34.5 27.5M27.5 27.5L34.5 34.5"/></svg>