<svg xmlns="http://www.w3.org/2000/svg"  viewBox="0 0 40 40" width="80px" height="80px"><path fill="#fff" d="M2.5 3.5H37.5V36.5H2.5z"/><path fill="#4788c7" d="M37,4v32H3V4H37 M38,3H2v34h36V3L38,3z"/><path fill="#98ccfd" d="M3 4H37V12H3z"/><path fill="#fff" d="M6 7H8V9H6zM10 7H12V9H10zM14 7H16V9H14z"/><path fill="#98ccfd" d="M6 16H19V33H6z"/><path fill="#4788c7" d="M33.5 17h-11c-.275 0-.5-.225-.5-.5l0 0c0-.275.225-.5.5-.5h11c.275 0 .5.225.5.5l0 0C34 16.775 33.775 17 33.5 17zM33.5 21h-11c-.275 0-.5-.225-.5-.5l0 0c0-.275.225-.5.5-.5h11c.275 0 .5.225.5.5l0 0C34 20.775 33.775 21 33.5 21zM33.5 25h-11c-.275 0-.5-.225-.5-.5l0 0c0-.275.225-.5.5-.5h11c.275 0 .5.225.5.5l0 0C34 24.775 33.775 25 33.5 25zM33.5 29h-11c-.275 0-.5-.225-.5-.5l0 0c0-.275.225-.5.5-.5h11c.275 0 .5.225.5.5l0 0C34 28.775 33.775 29 33.5 29zM33.5 33h-11c-.275 0-.5-.225-.5-.5l0 0c0-.275.225-.5.5-.5h11c.275 0 .5.225.5.5l0 0C34 32.775 33.775 33 33.5 33z"/></svg>