<svg xmlns="http://www.w3.org/2000/svg"  viewBox="0 0 40 40" width="80px" height="80px"><path fill="none" stroke="#4788c7" stroke-linecap="round" stroke-miterlimit="10" d="M20,13c0,0,2.799-10.5,7.5-10.5"/><path fill="#4788c7" d="M38,8c0,1.077,0,2.071,0,3c-0.311,7.904-1.843,11-6,11c2.271,1.026,3,2.469,3,5 c0,4.259-4.433,10-7.929,10c-3.321,0-7.071-5.021-7.103-7.736V16.902C20,12.518,29.563,4,34.4,4c0.913,0,1.813,0.154,2.52,0.759 C37.627,5.363,38,6.727,38,8z"/><path fill="#dff0fe" d="M27,35.5c-2.867,0-7.5-4.375-7.5-6.5v-7.475l0.475-0.024c0,0,0.65-0.033,1.663-0.033 c2.025,0,5.825,0.138,8.524,1.06C32.377,23.283,33.5,24.452,33.5,26C33.5,30.393,30.661,35.5,27,35.5z"/><path fill="#4788c7" d="M21.638,21.967c2.094,0,5.759,0.143,8.362,1.033c1.721,0.588,3,1.5,3,3c0,4.268-2.731,9-6,9 c-2.58,0-7-4.094-7-6v-7C20,22,20.64,21.967,21.638,21.967 M21.638,20.967c-1.011,0-1.661,0.032-1.688,0.034L19,21.049V22v7 c0,2.617,5.009,7,8,7c4.006,0,7-5.28,7-10c0-1.785-1.237-3.113-3.677-3.946C27.555,21.109,23.693,20.967,21.638,20.967 L21.638,20.967z"/><path fill="#dff0fe" d="M19.5,21.5v-5.127l0.061-0.112C20.765,14.054,27.664,5.5,32.634,5.5c1.012,0,1.925,0.26,2.64,0.753 C36.042,6.782,36.5,7.809,36.5,9c0,8.528-1.748,12.5-5.5,12.5H19.5z"/><path fill="#4788c7" d="M32.634,6c0.854,0,1.695,0.209,2.356,0.664C35.651,7.12,36,8.041,36,9c0,9.664-2.281,12-5,12 c-3.43,0-11,0-11,0v-4.5C21.359,14.009,28.11,6,32.634,6 M32.634,5c-5.162,0-12.112,8.454-13.512,11.021L19,16.245V16.5V21v1h1h11 c5.378,0,6-7.419,6-13c0-1.356-0.539-2.537-1.443-3.159C34.759,5.291,33.748,5,32.634,5L32.634,5z"/><path fill="#4788c7" d="M2,8c0,1.077,0,2.071,0,3c0.311,7.904,1.843,11,6,11c-2.271,1.026-3,2.469-3,5 c0,4.259,4.433,10,7.929,10c3.321,0,7.071-5.021,7.103-7.736V16.902C20,12.518,10.438,4,5.6,4C4.687,4,3.787,4.154,3.08,4.759 C2.373,5.363,2,6.727,2,8z"/><g><path fill="#dff0fe" d="M13,35.5c-3.661,0-6.5-5.107-6.5-9.5c0-1.548,1.123-2.717,3.338-3.473 c2.699-0.922,6.499-1.06,8.524-1.06c1.013,0,1.663,0.033,1.663,0.033l0.475,0.024V29C20.5,31.125,15.867,35.5,13,35.5z"/><path fill="#4788c7" d="M18.362,21.967C19.36,21.967,20,22,20,22v7c0,1.906-4.42,6-7,6c-3.269,0-6-4.732-6-9 c0-1.5,1.279-2.412,3-3C12.604,22.111,16.269,21.968,18.362,21.967 M18.363,20.967L18.363,20.967 c-2.511,0-6.057,0.188-8.686,1.086C7.237,22.887,6,24.215,6,26c0,4.72,2.994,10,7,10c2.991,0,8-4.383,8-7v-7v-0.95l-0.949-0.048 C20.024,21,19.374,20.967,18.363,20.967L18.363,20.967z"/><g><path fill="#dff0fe" d="M9,21.5c-3.752,0-5.5-3.972-5.5-12.5c0-1.191,0.458-2.218,1.226-2.747 C5.441,5.76,6.354,5.5,7.366,5.5c4.97,0,11.869,8.554,13.073,10.761l0.061,0.112V21.5H9z"/><path fill="#4788c7" d="M7.366,6C11.89,6,18.641,14.009,20,16.5V21c0,0-7.57,0-11,0c-2.719,0-5-2.336-5-12 c0-0.959,0.349-1.88,1.01-2.336C5.671,6.209,6.513,6,7.366,6 M7.366,5C6.252,5,5.241,5.291,4.443,5.841C3.539,6.463,3,7.644,3,9 c0,5.581,0.622,13,6,13h11h1v-1v-4.5v-0.255l-0.122-0.224C19.478,13.454,12.529,5,7.366,5L7.366,5z"/></g></g><path fill="none" stroke="#4788c7" stroke-linecap="round" stroke-miterlimit="10" d="M20,13c0,0-2.799-10.5-7.5-10.5"/><g><path fill="#98ccfd" d="M20,35.5c-0.708,0-1.5-1.497-1.5-3.5V14c0-2.003,0.792-3.5,1.5-3.5s1.5,1.497,1.5,3.5v18 C21.5,34.003,20.708,35.5,20,35.5z"/><path fill="#4788c7" d="M20,11c0.249,0,1,1.064,1,3v18c0,1.936-0.751,3-1,3s-1-1.064-1-3V14C19,12.064,19.751,11,20,11 M20,10c-1.105,0-2,1.791-2,4v18c0,2.209,0.895,4,2,4s2-1.791,2-4V14C22,11.791,21.105,10,20,10L20,10z"/></g></svg>