<svg xmlns="http://www.w3.org/2000/svg"  viewBox="0 0 40 40" width="80px" height="80px"><path fill="#fff" d="M6,36.5c-1.378,0-2.5-1.121-2.5-2.5V6c0-1.379,1.122-2.5,2.5-2.5h28c1.378,0,2.5,1.121,2.5,2.5v28 c0,1.379-1.122,2.5-2.5,2.5H6z"/><path fill="#4788c7" d="M34,4c1.103,0,2,0.897,2,2v28c0,1.103-0.897,2-2,2H6c-1.103,0-2-0.897-2-2V6c0-1.103,0.897-2,2-2 H34 M34,3H6C4.343,3,3,4.343,3,6v28c0,1.657,1.343,3,3,3h28c1.657,0,3-1.343,3-3V6C37,4.343,35.657,3,34,3L34,3z"/><path fill="#98ccfd" d="M14 13.5A6.5 6.5 0 1 0 14 26.5A6.5 6.5 0 1 0 14 13.5Z"/><path fill="#4788c7" d="M14,14c3.308,0,6,2.692,6,6s-2.692,6-6,6s-6-2.692-6-6S10.692,14,14,14 M14,13 c-3.866,0-7,3.134-7,7s3.134,7,7,7s7-3.134,7-7S17.866,13,14,13L14,13z"/><path fill="#dff0fe" d="M14.5,19.5v-5.981c3.187,0.244,5.737,2.795,5.981,5.981H14.5z"/><path fill="#4788c7" d="M15 14.083c2.509.423 4.494 2.408 4.917 4.917H15V14.083M14 13v7h7C21 16.134 17.866 13 14 13L14 13zM32.5 15h-9c-.275 0-.5-.225-.5-.5v0c0-.275.225-.5.5-.5h9c.275 0 .5.225.5.5v0C33 14.775 32.775 15 32.5 15zM32.5 19h-9c-.275 0-.5-.225-.5-.5l0 0c0-.275.225-.5.5-.5h9c.275 0 .5.225.5.5l0 0C33 18.775 32.775 19 32.5 19zM32.5 23h-9c-.275 0-.5-.225-.5-.5l0 0c0-.275.225-.5.5-.5h9c.275 0 .5.225.5.5l0 0C33 22.775 32.775 23 32.5 23zM28.5 27h-5c-.275 0-.5-.225-.5-.5l0 0c0-.275.225-.5.5-.5h5c.275 0 .5.225.5.5l0 0C29 26.775 28.775 27 28.5 27z"/></svg>