<svg xmlns="http://www.w3.org/2000/svg"  viewBox="0 0 40 40" width="80px" height="80px"><path fill="#fff" d="M2.5,2.5h35v35h-35V2.5z"/><path fill="#b6dcfe" d="M2.5,34h35v3.5h-35V34z"/><path fill="#4788c7" d="M38,38H2V2h36V38z M3,37h34V3H3V37z"/><rect width="35" height="5" x="2.5" y="2.5" fill="#b6dcfe"/><path fill="#4788c7" d="M38,8H2V2h36V8z M3,7h34V3H3V7z"/><path fill="#98ccfd" d="M20.393,12.564l1.487,2.395c0.259,0.418,0.77,0.604,1.237,0.45l2.678-0.879l-0.401,2.79	c-0.07,0.487,0.202,0.958,0.658,1.14l2.617,1.048l-2.1,1.88c-0.366,0.328-0.461,0.864-0.229,1.297l1.331,2.485l-2.817,0.09	c-0.491,0.016-0.908,0.365-1.009,0.846l-0.578,2.759l-2.216-1.742c-0.386-0.304-0.93-0.304-1.317,0l-2.216,1.742l-0.578-2.759	c-0.101-0.481-0.518-0.831-1.009-0.846l-2.817-0.09l1.331-2.485c0.232-0.433,0.138-0.969-0.229-1.297l-2.1-1.88l2.617-1.048	c0.456-0.183,0.728-0.654,0.658-1.14l-0.401-2.79l2.678,0.879c0.467,0.153,0.978-0.033,1.237-0.45L20.393,12.564z"/><path fill="#4788c7" d="M17.519,29.365c-0.058,0-0.115-0.01-0.171-0.03c-0.163-0.059-0.283-0.198-0.318-0.367l-0.577-2.759	c-0.054-0.256-0.273-0.44-0.535-0.449L13.1,25.67c-0.173-0.005-0.331-0.1-0.417-0.25c-0.087-0.15-0.09-0.333-0.008-0.486	l1.331-2.485c0.123-0.23,0.073-0.514-0.121-0.688l-2.101-1.88c-0.129-0.115-0.189-0.289-0.159-0.459s0.146-0.313,0.307-0.377	l2.616-1.048c0.242-0.097,0.387-0.346,0.349-0.604l-0.4-2.791c-0.024-0.171,0.041-0.343,0.174-0.454	c0.132-0.112,0.312-0.146,0.478-0.092l2.679,0.879c0.247,0.081,0.519-0.017,0.656-0.239l1.486-2.395c0.182-0.294,0.668-0.294,0.85,0	l1.486,2.395c0.138,0.222,0.405,0.321,0.656,0.239l2.679-0.879c0.165-0.054,0.346-0.02,0.478,0.092	c0.133,0.111,0.198,0.283,0.174,0.454l-0.401,2.79c-0.037,0.259,0.106,0.507,0.35,0.604l2.616,1.048	c0.161,0.064,0.276,0.207,0.307,0.377s-0.03,0.344-0.159,0.459l-2.101,1.88c-0.194,0.174-0.244,0.458-0.121,0.688l1.331,2.485	c0.082,0.153,0.079,0.336-0.008,0.486c-0.086,0.15-0.244,0.244-0.417,0.25l-2.817,0.09c-0.262,0.009-0.481,0.193-0.535,0.449	l-0.578,2.759c-0.035,0.169-0.155,0.308-0.318,0.367c-0.163,0.059-0.345,0.03-0.479-0.077l-2.216-1.742	c-0.207-0.162-0.493-0.162-0.698,0l-2.218,1.742C17.738,29.329,17.629,29.365,17.519,29.365z M13.937,24.696l2.012,0.064	c0.725,0.023,1.334,0.534,1.482,1.243l0.412,1.971l1.584-1.244c0.569-0.449,1.364-0.448,1.934,0l1.583,1.244l0.413-1.971	c0.148-0.709,0.758-1.22,1.482-1.243l2.012-0.064l-0.95-1.774c-0.343-0.639-0.204-1.422,0.336-1.906l1.5-1.343l-1.868-0.749	c-0.673-0.269-1.071-0.958-0.969-1.675l0.287-1.993l-1.913,0.628c-0.688,0.226-1.437-0.046-1.818-0.662l-1.062-1.71l-1.062,1.71	c-0.384,0.616-1.13,0.887-1.818,0.662l-1.913-0.628l0.286,1.993c0.104,0.716-0.294,1.406-0.968,1.675l-1.868,0.749l1.5,1.343	c0.54,0.482,0.678,1.266,0.337,1.905L13.937,24.696z"/><circle cx="20.393" cy="20.857" r="3.769" fill="#dff0fe"/></svg>