<svg xmlns="http://www.w3.org/2000/svg"  viewBox="0 0 40 40" width="80px" height="80px"><path fill="#fff" d="M13.5,38.5v-5H12c-2.481,0-4.5-2.019-4.5-4.5v-5.141l-2.512-0.932 c-0.197-0.073-0.349-0.22-0.428-0.413c-0.08-0.194-0.074-0.406,0.015-0.596L7.5,15.705v-0.111c0-3.502,0.904-6.11,2.687-7.751 l0.376-0.346l-0.354-0.369C9.469,6.357,8.94,5.583,8.663,5.14C9.93,4.276,14.53,1.5,21.268,1.5C28.982,1.5,35.5,7.867,35.5,15.403 c0,5.646-2.612,8.415-4.917,10.856c-1.352,1.433-2.628,2.785-3.067,4.505L27.5,30.826V38.5H13.5z"/><path fill="#4788c7" d="M21.268,2C28.711,2,35,8.138,35,15.403c0,5.448-2.54,8.139-4.781,10.514 c-1.397,1.481-2.717,2.879-3.188,4.724L27,30.763v0.126V38H14v-4v-1h-1h-1c-2.206,0-4-1.794-4-4v-4.793v-0.696l-0.652-0.242 l-2.185-0.81c-0.082-0.03-0.121-0.09-0.139-0.134s-0.032-0.114,0.005-0.193l2.877-6.112L8,15.817v-0.224 c0-3.356,0.85-5.84,2.526-7.383l0.752-0.692L10.57,6.783c-0.518-0.54-0.928-1.082-1.215-1.499C10.99,4.255,15.259,2,21.268,2 M21.268,1C13.043,1,8,5,8,5s0.657,1.234,1.849,2.475C8.132,9.055,7,11.635,7,15.594l-2.877,6.112 c-0.309,0.657,0.01,1.439,0.691,1.691L7,24.207V29c0,2.761,2.239,5,5,5h1v5h15v-8.111c1.105-4.326,8-6.228,8-15.486 C36,7.449,29.223,1,21.268,1L21.268,1z"/><g><path fill="#98ccfd" d="M18.548,23.841c-0.073-0.203-0.28-0.922-0.28-1.756c0-2.916,4.013-4.213,4.013-6.565 c0-2.044-2.383-2.154-2.757-2.154c-1.212,0-2.366,0.541-3.463,1.622v-2.817C17.393,11.39,18.775,11,20.206,11 c3.955,0,4.817,2.557,4.817,3.988c0,3.792-4.305,4.749-4.305,7.183c0,0.762,0.313,1.476,0.402,1.671H18.548z M19.938,29 c-0.79,0-1.744-0.566-1.744-1.622c0-1.163,1.125-1.634,1.744-1.634c1.168,0,1.732,0.953,1.732,1.634 C21.67,28.424,20.654,29,19.938,29z"/></g></svg>