<svg xmlns="http://www.w3.org/2000/svg"  viewBox="0 0 40 40" width="80px" height="80px"><path fill="#98ccfd" d="M1.517,26.5c0.258-3.903,3.516-7,7.483-7h6c3.968,0,7.226,3.097,7.483,7H1.517z"/><path fill="#4788c7" d="M15,20c3.52,0,6.442,2.612,6.929,6H2.071C2.558,22.612,5.48,20,9,20H15 M15,19H9 c-4.418,0-8,3.582-8,8h22C23,22.582,19.418,19,15,19L15,19z"/><path fill="#dff0fe" d="M12,21.745c-2.668,0-3.381-1.462-3.5-1.765V16.5h7v3.48C15.38,20.288,14.667,21.745,12,21.745z"/><path fill="#4788c7" d="M15,17v2.873c-0.167,0.34-0.852,1.373-3,1.373c-2.166,0-2.844-1.049-3-1.368V17H15 M16,16H8v4.064 c0,0,0.628,2.181,4,2.181s4-2.181,4-2.181V16L16,16z"/><path fill="#dff0fe" d="M12,18.5c-0.399,0-0.78-0.182-1.044-0.498l-0.105-0.126l-0.159-0.039 C8.224,17.232,6.5,15.037,6.5,12.5V7.243c0-1.301,1.059-2.359,2.359-2.359h6.281c1.301,0,2.359,1.059,2.359,2.359V12.5 c0,2.537-1.724,4.732-4.191,5.337l-0.159,0.039l-0.105,0.126C12.78,18.318,12.399,18.5,12,18.5z"/><path fill="#4788c7" d="M15.141,5.384c1.025,0,1.859,0.834,1.859,1.86V12.5c0,2.307-1.567,4.302-3.81,4.85l-0.32,0.078 l-0.211,0.253C12.561,17.801,12.343,18,12,18s-0.561-0.199-0.66-0.318l-0.211-0.253l-0.32-0.078C8.567,16.802,7,14.807,7,12.5 V7.243c0-1.025,0.834-1.86,1.859-1.86H15.141 M15.141,4.384H8.859C7.28,4.384,6,5.664,6,7.243V12.5 c0,2.821,1.949,5.18,4.572,5.822C10.914,18.733,11.423,19,12,19s1.086-0.267,1.428-0.678C16.051,17.68,18,15.321,18,12.5V7.243 C18,5.664,16.72,4.384,15.141,4.384L15.141,4.384z"/><path fill="#98ccfd" d="M18.154,18.73c-1.377,0-2.799-1.02-3.483-1.588c0.688-0.646,1.829-2.093,1.829-4.565v-1.64 c0-1.808-0.946-3.521-0.986-3.594l-0.33-0.591l-0.469,0.49c-0.015,0.016-1.553,1.595-4.52,2.27C8.437,9.911,7.5,11.5,7.5,12.494 c0,2.521,1.024,3.942,1.635,4.566c-0.595,0.58-1.897,1.67-3.288,1.67c-1.26,0-2.388-0.614-3.009-1.033 c0.707-0.588,1.806-1.767,1.806-3.412c0-0.69-0.031-1.218-0.065-1.778C4.54,11.875,4.5,11.221,4.5,10.23 c0-5.731,3.579-8.73,7.115-8.73c2.851,0,3.766,1.99,3.774,2.01l0.132,0.298h0.325c3.02,0,3.653,3.074,3.653,5.653 c0,1.044-0.083,1.926-0.162,2.779c-0.075,0.797-0.146,1.55-0.146,2.375c0,1.4,1.041,2.198,1.951,2.571 C20.575,17.804,19.5,18.73,18.154,18.73z"/><path fill="#4788c7" d="M11.616,2c2.477,0,3.288,1.653,3.316,1.712l0.263,0.595h0.651C17.939,4.308,19,6.042,19,9.461 c0,1.02-0.082,1.89-0.16,2.732c-0.076,0.809-0.147,1.572-0.147,2.421c0,1.319,0.763,2.182,1.604,2.698 c-0.535,0.461-1.283,0.917-2.142,0.917c-0.947,0-2.002-0.598-2.745-1.142C16.136,16.251,17,14.79,17,12.577v-1.64 c0-1.936-1.007-3.76-1.05-3.837l-0.66-1.169l-0.935,0.966c-0.014,0.015-1.469,1.491-4.27,2.128C8.072,9.482,7,11.334,7,12.495 c0,2.258,0.787,3.711,1.44,4.528c-0.66,0.565-1.644,1.208-2.594,1.208c-0.828,0-1.605-0.306-2.184-0.619 c0.708-0.726,1.481-1.856,1.481-3.326c0-0.709-0.032-1.243-0.066-1.809C5.039,11.852,5,11.206,5,10.231C5,4.827,8.328,2,11.616,2 M11.616,1C7.921,1,4,4.146,4,10.231c0,1.887,0.143,2.601,0.143,4.055c0,2.12-2.143,3.407-2.143,3.407s1.734,1.538,3.846,1.538 c2.149,0,4.009-2.201,4.009-2.201S8,15.783,8,12.495c0-0.71,0.748-2.141,2.306-2.495c3.17-0.721,4.771-2.411,4.771-2.411 S16,9.239,16,10.937c0,0.803,0,0.321,0,1.64c0,3.226-2.101,4.549-2.101,4.549s2.121,2.104,4.255,2.104 c2.312,0,3.846-2.308,3.846-2.308s-2.308-0.412-2.308-2.308c0-1.685,0.308-3.117,0.308-5.154c0-4.431-1.784-6.154-4.154-6.154 C15.846,3.308,14.825,1,11.616,1L11.616,1z"/><path fill="#dff0fe" d="M9.517,32.5c0.258-3.903,3.516-7,7.483-7h6c3.968,0,7.226,3.097,7.483,7H9.517z"/><path fill="#4788c7" d="M23,26c3.52,0,6.442,2.612,6.929,6H10.071c0.487-3.388,3.408-6,6.929-6H23 M23,25h-6 c-4.418,0-8,3.582-8,8h22C31,28.582,27.418,25,23,25L23,25z"/><path fill="#fff" d="M20,27.745c-2.668,0-3.381-1.462-3.5-1.765V22.5h7v3.48C23.38,26.288,22.667,27.745,20,27.745z"/><path fill="#4788c7" d="M23,23v2.873c-0.167,0.34-0.852,1.373-3,1.373c-2.166,0-2.844-1.049-3-1.368V23H23 M24,22h-8v4.064 c0,0,0.628,2.181,4,2.181s4-2.181,4-2.181V22L24,22z"/><g><path fill="#fff" d="M20,24.5c-0.399,0-0.78-0.182-1.044-0.498l-0.105-0.126l-0.159-0.039 c-2.468-0.604-4.191-2.8-4.191-5.337v-5.257c0-1.301,1.059-2.359,2.359-2.359h6.281c1.301,0,2.359,1.059,2.359,2.359V18.5 c0,2.537-1.724,4.732-4.191,5.337l-0.159,0.039l-0.105,0.126C20.78,24.318,20.399,24.5,20,24.5z"/><path fill="#4788c7" d="M23.141,11.384c1.025,0,1.859,0.834,1.859,1.86V18.5c0,2.307-1.567,4.302-3.81,4.85l-0.32,0.078 l-0.211,0.253C20.561,23.801,20.343,24,20,24s-0.561-0.199-0.66-0.318l-0.211-0.253l-0.32-0.078C16.567,22.802,15,20.807,15,18.5 v-5.257c0-1.025,0.834-1.86,1.859-1.86H23.141 M23.141,10.384h-6.281c-1.579,0-2.859,1.28-2.859,2.86V18.5 c0,2.821,1.949,5.18,4.572,5.822C18.914,24.733,19.423,25,20,25s1.086-0.267,1.428-0.678C24.051,23.68,26,21.321,26,18.5v-5.257 C26,11.664,24.72,10.384,23.141,10.384L23.141,10.384z"/></g><g><path fill="#b6dcfe" d="M26.154,24.73c-1.377,0-2.799-1.02-3.483-1.588c0.688-0.646,1.829-2.093,1.829-4.565v-1.64 c0-1.808-0.946-3.521-0.986-3.594l-0.33-0.591l-0.469,0.49c-0.015,0.016-1.553,1.595-4.52,2.27 C16.437,15.911,15.5,17.5,15.5,18.494c0,2.521,1.024,3.942,1.635,4.566c-0.595,0.58-1.897,1.67-3.288,1.67 c-1.26,0-2.388-0.614-3.009-1.033c0.707-0.588,1.806-1.767,1.806-3.412c0-0.69-0.031-1.218-0.065-1.778 C12.54,17.875,12.5,17.221,12.5,16.23c0-5.731,3.579-8.73,7.115-8.73c2.851,0,3.766,1.99,3.774,2.01l0.132,0.298h0.325 c3.02,0,3.653,3.074,3.653,5.653c0,1.044-0.083,1.926-0.162,2.779c-0.075,0.797-0.146,1.55-0.146,2.375 c0,1.4,1.041,2.198,1.951,2.571C28.575,23.804,27.5,24.73,26.154,24.73z"/><path fill="#4788c7" d="M19.616,8c2.477,0,3.288,1.653,3.316,1.712l0.263,0.595h0.651c2.093,0,3.154,1.734,3.154,5.154 c0,1.02-0.082,1.89-0.16,2.732c-0.076,0.809-0.147,1.572-0.147,2.421c0,1.319,0.763,2.182,1.604,2.698 c-0.535,0.461-1.283,0.917-2.142,0.917c-0.947,0-2.002-0.598-2.745-1.142C24.136,22.251,25,20.79,25,18.577v-1.64 c0-1.936-1.007-3.76-1.05-3.837l-0.66-1.169l-0.935,0.966c-0.014,0.015-1.469,1.491-4.27,2.128C16.072,15.482,15,17.334,15,18.495 c0,2.258,0.787,3.711,1.44,4.528c-0.66,0.565-1.644,1.208-2.594,1.208c-0.828,0-1.605-0.306-2.184-0.619 c0.708-0.726,1.481-1.856,1.481-3.326c0-0.709-0.032-1.243-0.066-1.809C13.039,17.852,13,17.206,13,16.231 C13,10.827,16.328,8,19.616,8 M19.616,7C15.921,7,12,10.146,12,16.231c0,1.887,0.143,2.601,0.143,4.055 c0,2.12-2.143,3.407-2.143,3.407s1.734,1.538,3.846,1.538c2.149,0,4.009-2.201,4.009-2.201S16,21.783,16,18.495 c0-0.71,0.748-2.141,2.306-2.495c3.17-0.721,4.771-2.411,4.771-2.411S24,15.239,24,16.937c0,0.803,0,0.321,0,1.64 c0,3.226-2.101,4.549-2.101,4.549s2.121,2.104,4.255,2.104c2.312,0,3.846-2.308,3.846-2.308s-2.308-0.412-2.308-2.308 c0-1.685,0.308-3.117,0.308-5.154c0-4.431-1.784-6.154-4.154-6.154C23.846,9.308,22.825,7,19.616,7L19.616,7z"/></g><g><path fill="#98ccfd" d="M31,39.5c-4.687,0-8.5-3.813-8.5-8.5s3.813-8.5,8.5-8.5s8.5,3.813,8.5,8.5S35.687,39.5,31,39.5z"/><path fill="#4788c7" d="M31,23c4.411,0,8,3.589,8,8s-3.589,8-8,8s-8-3.589-8-8S26.589,23,31,23 M31,22 c-4.971,0-9,4.029-9,9s4.029,9,9,9s9-4.029,9-9S35.971,22,31,22L31,22z"/></g><path fill="none" stroke="#fff" stroke-miterlimit="10" stroke-width="2" d="M31 36L31 26M26 31L36 31"/></svg>