<svg xmlns="http://www.w3.org/2000/svg"  viewBox="0 0 40 40" width="80px" height="80px"><path fill="#b6dcfe" d="M1.5 35.5L1.5 4.5 11.793 4.5 14.793 7.5 38.5 7.5 38.5 35.5z"/><path fill="#4788c7" d="M11.586,5l2.707,2.707L14.586,8H15h23v27H2V5H11.586 M12,4H1v32h38V7H15L12,4L12,4z"/><g><path fill="#dff0fe" d="M12.5 35.5L12.5 15.5 20.793 15.5 23.793 18.5 38.5 18.5 38.5 35.5z"/><path fill="#4788c7" d="M20.586,16l2.707,2.707L23.586,19H24h14v16H13V16H20.586 M21,15h-9v21h27V18H24L21,15L21,15z"/></g></svg>