<svg xmlns="http://www.w3.org/2000/svg"  viewBox="0 0 40 40" width="40px" height="40px"><path fill="#98ccfd" d="M8.5,22.5v8.383L19.988,38.5L31.5,30.909V22.5H8.5z"/><path fill="#4788c7" d="M19.988,39c-0.096,0-0.192-0.028-0.276-0.083L8.224,31.3C8.084,31.208,8,31.051,8,30.883V22.5 C8,22.224,8.224,22,8.5,22h23c0.276,0,0.5,0.224,0.5,0.5v8.409c0,0.168-0.084,0.325-0.225,0.417l-11.512,7.591 C20.18,38.973,20.083,39,19.988,39z M9,30.615L19.989,37.9L31,30.64V23H9V30.615z"/><g><path fill="#98ccfd" d="M38.65,9.464L27.643,2.5L20,8.778l11.424,6.65L38.65,9.464z M1.35,21.556l11.328,6.639L20,22.578 L9.15,15.673L1.35,21.556z M12.678,2.5L1.35,9.801l7.8,5.873L20,8.778L12.678,2.5z M20,22.578l7.469,5.618l11.181-6.639 l-7.226-6.129L20,22.578z"/><path fill="#4788c7" d="M12.678,28.696c-0.087,0-0.174-0.022-0.253-0.069l-11.328-6.64 c-0.144-0.084-0.236-0.235-0.246-0.402c-0.01-0.167,0.064-0.327,0.198-0.428l7.271-5.483L1.049,10.2 c-0.13-0.098-0.205-0.254-0.199-0.417C0.856,9.619,0.941,9.469,1.079,9.38l11.328-7.3c0.186-0.119,0.428-0.104,0.596,0.041 l7.004,6.004l7.319-6.011c0.167-0.138,0.403-0.152,0.584-0.036l11.007,6.964c0.136,0.085,0.222,0.231,0.232,0.391 c0.01,0.16-0.057,0.315-0.181,0.417l-6.765,5.583l6.77,5.742c0.124,0.104,0.188,0.262,0.175,0.423 c-0.013,0.161-0.104,0.306-0.243,0.388l-11.181,6.64c-0.175,0.103-0.394,0.091-0.556-0.03l-7.166-5.389l-7.021,5.386 C12.893,28.661,12.786,28.696,12.678,28.696z M20.882,22.616l6.62,4.979l10.291-6.111l-6.413-5.438L20.882,22.616z M2.25,21.504 l10.391,6.09l6.489-4.978l-9.955-6.335L2.25,21.504z M10.082,15.674l9.921,6.313l10.455-6.543L20.011,9.363L10.082,15.674z M2.223,9.832l6.951,5.233l9.988-6.348l-6.527-5.596L2.223,9.832z M20.873,8.708l10.501,6.113L37.8,9.518L27.682,3.116 L20.873,8.708z"/></g></svg>