<svg xmlns="http://www.w3.org/2000/svg"  viewBox="0 0 40 40" width="80px" height="80px"><path fill="#fff" d="M1.5,37.5V15.521L17.981,4.132c0.596-0.412,1.294-0.63,2.019-0.63s1.423,0.218,2.019,0.63	L38.5,15.521V37.5H1.5z"/><path fill="#4788c7" d="M20,4.002c0.622,0,1.222,0.187,1.734,0.541L38,15.782V37H2V15.782L18.266,4.543	C18.778,4.189,19.378,4.002,20,4.002 M20,3.002c-0.805,0-1.61,0.239-2.302,0.718L1,15.258V38h38V15.258L22.302,3.72	C21.61,3.242,20.805,3.002,20,3.002L20,3.002z"/><path fill="#98ccfd" d="M25,25H15L2,15.782L18.266,4.543C18.778,4.189,19.378,4.002,20,4.002s1.222,0.187,1.734,0.541	L38,15.782L25,25z"/><rect width="25" height="19.5" x="7.5" y="6.5" fill="#fff" stroke="#4788c7" stroke-miterlimit="10"/><path fill="#dff0fe" d="M2,15.782V37h36V15.782l-13.213,8.707l-9.447,0.128L2,15.782z"/><path fill="#4788c7" d="M24.681,24h-9.362L2.876,15.177L2,15.782L15,25h10l13-9.218l-0.876-0.605L24.681,24z"/><path fill="#4788c7" d="M27.5,13h-15c-0.276,0-0.5-0.224-0.5-0.5l0,0c0-0.276,0.224-0.5,0.5-0.5h15	c0.276,0,0.5,0.224,0.5,0.5l0,0C28,12.776,27.776,13,27.5,13z"/><path fill="#4788c7" d="M23.5,16h-11c-0.276,0-0.5-0.224-0.5-0.5l0,0c0-0.276,0.224-0.5,0.5-0.5h11	c0.276,0,0.5,0.224,0.5,0.5l0,0C24,15.776,23.776,16,23.5,16z"/><path fill="#4788c7" d="M27.5,19h-15c-0.276,0-0.5-0.224-0.5-0.5l0,0c0-0.276,0.224-0.5,0.5-0.5h15	c0.276,0,0.5,0.224,0.5,0.5l0,0C28,18.776,27.776,19,27.5,19z"/></svg>