<svg xmlns="http://www.w3.org/2000/svg"  viewBox="0 0 40 40" width="80px" height="80px"><path fill="#fff" d="M5.5 2.5H34.5V30.577H5.5z"/><path fill="#4788c7" d="M34,3v27.077H6V3H34 M35,2H5v29.077h30V2L35,2z"/><path fill="#b6dcfe" d="M7.538,37.5c-2.108,0-4.893-0.738-5.032-7h34.988c-0.14,6.262-2.924,7-5.032,7H7.538z"/><path fill="#4788c7" d="M36.977 31c-.25 5.292-2.522 6-4.516 6H7.538c-1.994 0-4.266-.708-4.516-6H36.977M38 30H2c0 6.635 2.775 8 5.538 8 0 0 22.145 0 24.923 0C35.24 38 38 36.67 38 30L38 30zM28.5 12h-13c-.276 0-.5-.224-.5-.5v0c0-.276.224-.5.5-.5h13c.276 0 .5.224.5.5v0C29 11.776 28.776 12 28.5 12zM11.5 10.5A1 1 0 1 0 11.5 12.5 1 1 0 1 0 11.5 10.5zM28.5 18h-13c-.276 0-.5-.224-.5-.5l0 0c0-.276.224-.5.5-.5h13c.276 0 .5.224.5.5l0 0C29 17.776 28.776 18 28.5 18zM11.5 16.5A1 1 0 1 0 11.5 18.5 1 1 0 1 0 11.5 16.5zM28.5 24h-13c-.276 0-.5-.224-.5-.5l0 0c0-.276.224-.5.5-.5h13c.276 0 .5.224.5.5l0 0C29 23.776 28.776 24 28.5 24zM11.5 22.5A1 1 0 1 0 11.5 24.5 1 1 0 1 0 11.5 22.5z"/></svg>