<svg xmlns="http://www.w3.org/2000/svg"  viewBox="0 0 40 40" width="80px" height="80px"><path fill="#dff0fe" d="M29.5 23.5L19.5 23.5 19.5 16.5 29.5 16.5 29.5 12.123 38.252 20 29.5 27.877z"/><path fill="#4788c7" d="M30,13.245L37.505,20L30,26.755V24v-1h-1h-9v-6h9h1v-1V13.245 M29,11v5H19v8h10v5l10-9L29,11L29,11z"/><path fill="#dff0fe" d="M7.5 16.5H10.5V23.5H7.5z"/><path fill="#4788c7" d="M10,17v6H8v-6H10 M11,16H7v8h4V16L11,16z"/><g><path fill="#dff0fe" d="M13.5 16.5H16.5V23.5H13.5z"/><path fill="#4788c7" d="M16,17v6h-2v-6H16 M17,16h-4v8h4V16L17,16z"/></g><g><path fill="#dff0fe" d="M1.5 16.5H4.5V23.5H1.5z"/><path fill="#4788c7" d="M4,17v6H2v-6H4 M5,16H1v8h4V16L5,16z"/></g></svg>