<svg xmlns="http://www.w3.org/2000/svg"  viewBox="0 0 40 40" width="80px" height="80px"><path fill="#4788c7" d="M36 21H3c-.552 0-1-.448-1-1v0c0-.552.448-1 1-1h33c.552 0 1 .448 1 1v0C37 20.552 36.552 21 36 21zM9 11L9 4 6 4 6 11 2 11 7.5 17 13 11zM21 11L21 4 18 4 18 11 14 11 19.5 17 25 11z"/><path fill="#dff0fe" d="M21.087 30.5L24.5 30.5 24.5 23.5 27.5 23.5 27.5 30.5 30.913 30.5 26 36.232z"/><path fill="#4788c7" d="M27,24v6v1h1h1.826L26,35.463L22.174,31H24h1v-1v-6H27 M28,23h-4v7h-4l6,7l6-7h-4V23L28,23z"/><path fill="#dff0fe" d="M8.087 30.5L11.5 30.5 11.5 23.5 14.5 23.5 14.5 30.5 17.913 30.5 13 36.232z"/><path fill="#4788c7" d="M14,24v6v1h1h1.826L13,35.463L9.174,31H11h1v-1v-6H14 M15,23h-4v7H7l6,7l6-7h-4V23L15,23z"/><g><path fill="#4788c7" d="M33 11L33 4 30 4 30 11 26 11 31.5 17 37 11z"/></g></svg>