<svg xmlns="http://www.w3.org/2000/svg"  viewBox="0 0 40 40" width="80px" height="80px"><path fill="#4788c7" d="M4.286,34.7c-0.128,0-0.256-0.049-0.354-0.146c-0.195-0.195-0.195-0.512,0-0.707l6.7-6.7 C10.727,27.053,10.854,27,10.986,27h17.027c0.133,0,0.26,0.053,0.354,0.146l6.658,6.658c0.195,0.195,0.195,0.512,0,0.707 s-0.512,0.195-0.707,0L27.807,28H11.193L4.64,34.554C4.542,34.651,4.414,34.7,4.286,34.7z"/><path fill="#4788c7" d="M34.228,25H3.471c-0.276,0-0.5-0.224-0.5-0.5s0.224-0.5,0.5-0.5h30.757c0.276,0,0.5,0.224,0.5,0.5 S34.504,25,34.228,25z"/><path fill="#4788c7" d="M28.014,22H10.986c-0.133,0-0.26-0.053-0.354-0.146l-6.7-6.7c-0.195-0.195-0.195-0.512,0-0.707 s0.512-0.195,0.707,0L11.193,21h16.613l6.512-6.512c0.195-0.195,0.512-0.195,0.707,0s0.195,0.512,0,0.707l-6.658,6.658 C28.273,21.947,28.146,22,28.014,22z"/><circle cx="4.5" cy="34.5" r="2" fill="#98ccfd"/><path fill="#4788c7" d="M4.5,37C3.121,37,2,35.879,2,34.5S3.121,32,4.5,32S7,33.121,7,34.5S5.879,37,4.5,37z M4.5,33 C3.673,33,3,33.673,3,34.5S3.673,36,4.5,36S6,35.327,6,34.5S5.327,33,4.5,33z"/><circle cx="34.5" cy="34.5" r="2" fill="#98ccfd"/><path fill="#4788c7" d="M34.5,37c-1.379,0-2.5-1.121-2.5-2.5s1.121-2.5,2.5-2.5s2.5,1.121,2.5,2.5S35.879,37,34.5,37z M34.5,33c-0.827,0-1.5,0.673-1.5,1.5s0.673,1.5,1.5,1.5s1.5-0.673,1.5-1.5S35.327,33,34.5,33z"/><circle cx="4.5" cy="24.5" r="2" fill="#98ccfd"/><path fill="#4788c7" d="M4.5,27C3.121,27,2,25.879,2,24.5S3.121,22,4.5,22S7,23.121,7,24.5S5.879,27,4.5,27z M4.5,23 C3.673,23,3,23.673,3,24.5S3.673,26,4.5,26S6,25.327,6,24.5S5.327,23,4.5,23z"/><circle cx="4.5" cy="14.5" r="2" fill="#98ccfd"/><path fill="#4788c7" d="M4.5,17C3.121,17,2,15.879,2,14.5S3.121,12,4.5,12S7,13.121,7,14.5S5.879,17,4.5,17z M4.5,13 C3.673,13,3,13.673,3,14.5S3.673,16,4.5,16S6,15.327,6,14.5S5.327,13,4.5,13z"/><circle cx="34.5" cy="14.5" r="2" fill="#98ccfd"/><path fill="#4788c7" d="M34.5,17c-1.379,0-2.5-1.121-2.5-2.5s1.121-2.5,2.5-2.5s2.5,1.121,2.5,2.5S35.879,17,34.5,17z M34.5,13c-0.827,0-1.5,0.673-1.5,1.5s0.673,1.5,1.5,1.5s1.5-0.673,1.5-1.5S35.327,13,34.5,13z"/><circle cx="34.5" cy="24.5" r="2" fill="#98ccfd"/><path fill="#4788c7" d="M34.5,27c-1.379,0-2.5-1.121-2.5-2.5s1.121-2.5,2.5-2.5s2.5,1.121,2.5,2.5S35.879,27,34.5,27z M34.5,23c-0.827,0-1.5,0.673-1.5,1.5s0.673,1.5,1.5,1.5s1.5-0.673,1.5-1.5S35.327,23,34.5,23z"/><rect width="11" height="1" x="14" y="21" fill="#b6dcfe"/><path fill="#4788c7" d="M13.957,22h-1.082c-0.276,0-0.5-0.224-0.5-0.5s0.224-0.5,0.5-0.5h1.082c0.276,0,0.5,0.224,0.5,0.5 S14.233,22,13.957,22z"/><path fill="#4788c7" d="M26.162,22H25.08c-0.276,0-0.5-0.224-0.5-0.5s0.224-0.5,0.5-0.5h1.082c0.276,0,0.5,0.224,0.5,0.5 S26.438,22,26.162,22z"/><rect width="11" height="1" x="14" y="24" fill="#b6dcfe"/><path fill="#4788c7" d="M13.957,25h-1.082c-0.276,0-0.5-0.224-0.5-0.5s0.224-0.5,0.5-0.5h1.082c0.276,0,0.5,0.224,0.5,0.5 S14.233,25,13.957,25z"/><path fill="#4788c7" d="M26.162,25H25.08c-0.276,0-0.5-0.224-0.5-0.5s0.224-0.5,0.5-0.5h1.082c0.276,0,0.5,0.224,0.5,0.5 S26.438,25,26.162,25z"/><g><rect width="11" height="1" x="14" y="26.996" fill="#b6dcfe"/></g><g><path fill="#4788c7" d="M13.957,27.996h-1.082c-0.276,0-0.5-0.224-0.5-0.5s0.224-0.5,0.5-0.5h1.082 c0.276,0,0.5,0.224,0.5,0.5S14.233,27.996,13.957,27.996z"/></g><g><path fill="#4788c7" d="M26.162,27.996H25.08c-0.276,0-0.5-0.224-0.5-0.5s0.224-0.5,0.5-0.5h1.082 c0.276,0,0.5,0.224,0.5,0.5S26.438,27.996,26.162,27.996z"/></g><path fill="#dff0fe" d="M18.268,35.5L16.5,32.849V17.5H15c-1.93,0-3.5-1.57-3.5-3.5V8c0-1.93,1.57-3.5,3.5-3.5h9	c1.93,0,3.5,1.57,3.5,3.5v6c0,1.93-1.57,3.5-3.5,3.5h-1.5v4.293l-1,1v1.414l1,1v1.586l-1,1v1.414l1,1v2.642L20.732,35.5H18.268z M16,7.5c-0.827,0-1.5,0.673-1.5,1.5v1c0,0.827,0.673,1.5,1.5,1.5h7c0.827,0,1.5-0.673,1.5-1.5V9c0-0.827-0.673-1.5-1.5-1.5H16z"/><path fill="#4788c7" d="M24,5c1.654,0,3,1.346,3,3v6c0,1.654-1.346,3-3,3h-1h-1v1v3.586l-0.707,0.707L21,22.586V23v1v0.414	l0.293,0.293L22,25.414v1.172l-0.707,0.707L21,27.586V28v1v0.414l0.293,0.293L22,30.414v2.283L20.465,35h-1.93L17,32.697V18v-1h-1	h-1c-1.654,0-3-1.346-3-3V8c0-1.654,1.346-3,3-3H24 M16,12h7c1.103,0,2-0.897,2-2V9c0-1.103-0.897-2-2-2h-7c-1.103,0-2,0.897-2,2v1	C14,11.103,14.897,12,16,12 M24,4h-9c-2.209,0-4,1.791-4,4v6c0,2.209,1.791,4,4,4h1v15l2,3h3l2-3v-3l-1-1v-1l1-1v-2l-1-1v-1l1-1v-4	h1c2.209,0,4-1.791,4-4V8C28,5.791,26.209,4,24,4L24,4z M16,11c-0.552,0-1-0.448-1-1V9c0-0.552,0.448-1,1-1h7c0.552,0,1,0.448,1,1v1	c0,0.552-0.448,1-1,1H16L16,11z"/><path fill="#98ccfd" d="M19,35V17h-1v17.197L18.535,35H19z"/></svg>