<svg xmlns="http://www.w3.org/2000/svg"  viewBox="0 0 40 40" width="80px" height="80px"><path fill="#fff" d="M2.5 2.5H37.5V37.5H2.5z"/><path fill="#4788c7" d="M37,3v34H3V3H37 M38,2H2v36h36V2L38,2z"/><path fill="#b6dcfe" d="M2.5 2.5H37.5V7.5H2.5z"/><path fill="#4788c7" d="M37,3v4H3V3H37 M38,2H2v6h36V2L38,2z"/><path fill="#b6dcfe" d="M13 14H15V16H13zM21 14H23V16H21zM25 14H27V16H25zM29 14H31V16H29zM9 18H11V20H9zM13 18H15V20H13zM21 18H23V20H21zM25 18H27V20H25zM29 18H31V20H29zM9 26H11V28H9zM13 26H15V28H13zM21 26H23V28H21zM17 14H19V16H17zM17 18H19V20H17zM9 22H11V24H9zM13 22H15V24H13zM21 22H23V24H21zM25 22H27V24H25zM29 22H31V24H29zM17 22H19V24H17zM17 26H19V28H17zM25 26H27V28H25zM3 34H37V37H3z"/></svg>