<svg xmlns="http://www.w3.org/2000/svg"  viewBox="0 0 40 40" width="80px" height="80px"><path fill="#dff0fe" d="M4,33.5c-0.827,0-1.5-0.673-1.5-1.5V8c0-0.827,0.673-1.5,1.5-1.5h32c0.827,0,1.5,0.673,1.5,1.5v24 c0,0.827-0.673,1.5-1.5,1.5H4z"/><path fill="#4788c7" d="M36,7c0.551,0,1,0.449,1,1v24c0,0.551-0.449,1-1,1H4c-0.551,0-1-0.449-1-1V8c0-0.551,0.449-1,1-1 H36 M36,6H4C2.895,6,2,6.895,2,8v24c0,1.105,0.895,2,2,2h32c1.105,0,2-0.895,2-2V8C38,6.895,37.105,6,36,6L36,6z"/><path fill="#4788c7" d="M16.938 24.286c-.247.117-.728.208-1.313.208-2.249 0-3.315-1.833-3.315-4.329 0-3.302 1.833-4.589 3.536-4.589.598 0 1.014.117 1.183.234l-.285 1.43c-.195-.091-.416-.169-.793-.169-.963 0-1.834.832-1.834 3.003 0 2.093.794 2.912 1.834 2.912.285 0 .61-.065.818-.13L16.938 24.286zM18.005 22.673c.351.195.962.338 1.442.338.793 0 1.196-.416 1.196-.988 0-.637-.39-.949-1.131-1.43-1.196-.728-1.651-1.651-1.651-2.444 0-1.404.937-2.574 2.756-2.574.586 0 1.132.156 1.379.312l-.273 1.469c-.247-.156-.624-.299-1.105-.299-.728 0-1.078.442-1.078.91 0 .52.26.793 1.195 1.365 1.17.702 1.586 1.586 1.586 2.509 0 1.599-1.183 2.652-2.886 2.652-.702 0-1.378-.182-1.677-.351L18.005 22.673zM23.451 22.673c.352.195.962.338 1.443.338.793 0 1.196-.416 1.196-.988 0-.637-.391-.949-1.132-1.43-1.195-.728-1.65-1.651-1.65-2.444 0-1.404.936-2.574 2.756-2.574.585 0 1.131.156 1.378.312l-.272 1.469c-.247-.156-.624-.299-1.105-.299-.729 0-1.079.442-1.079.91 0 .52.26.793 1.196 1.365 1.17.702 1.586 1.586 1.586 2.509 0 1.599-1.184 2.652-2.886 2.652-.702 0-1.379-.182-1.678-.351L23.451 22.673z"/></svg>