<svg xmlns="http://www.w3.org/2000/svg"  viewBox="0 0 40 40" width="80px" height="80px"><path fill="#98ccfd" d="M3,33.5c-0.827,0-1.5-0.673-1.5-1.5V8c0-0.827,0.673-1.5,1.5-1.5h34c0.827,0,1.5,0.673,1.5,1.5v24 c0,0.827-0.673,1.5-1.5,1.5H3z"/><path fill="#4788c7" d="M37,7c0.551,0,1,0.449,1,1v24c0,0.551-0.449,1-1,1H3c-0.551,0-1-0.449-1-1V8c0-0.551,0.449-1,1-1 H37 M37,6H3C1.895,6,1,6.895,1,8v24c0,1.105,0.895,2,2,2h34c1.105,0,2-0.895,2-2V8C39,6.895,38.105,6,37,6L37,6z"/><path fill="#fff" d="M19 15.192C19.547 15.074 20.286 15 21.024 15c1.153 0 2.133.163 2.768.768.591.517.857 1.344.857 2.186 0 1.079-.324 1.846-.841 2.393-.62.665-1.61.96-2.423.96-.132 0-.251 0-.384-.015V25h-2V15.192zM21 19.727c.103.015.207.015.325.015.975 0 1.404-.695 1.404-1.625 0-.872-.355-1.551-1.256-1.551-.176 0-.354.029-.473.074V19.727zM26 15h2v10h-2V15zM15.952 25H18l-2.113-10h-2.532L11 25h2.048l.436-2h2.047L15.952 25zM14.532 16.839h.048c.097.653.242 1.662.355 2.27L15.256 21h-1.475l.365-1.89C14.258 18.531 14.419 17.507 14.532 16.839z"/></svg>