<svg xmlns="http://www.w3.org/2000/svg"  viewBox="0 0 40 40" width="80px" height="80px"><path fill="#98ccfd" d="M28.5 1.5H38.5V11.5H28.5z"/><path fill="#4788c7" d="M38,2v9h-9V2H38 M39,1H28v11h11V1L39,1z"/><path fill="#fff" d="M36 3A1 1 0 1 0 36 5 1 1 0 1 0 36 3zM2.5 1.5H12.5V11.5H2.5z"/><path fill="#4788c7" d="M12,2v9H3V2H12 M13,1H2v11h11V1L13,1z"/><path fill="#b6dcfe" d="M2.5 27.5H12.5V37.5H2.5z"/><path fill="#4788c7" d="M12,28v9H3v-9H12 M13,27H2v11h11V27L13,27z"/><path fill="#dff0fe" d="M2.5 14.5H12.5V24.5H2.5z"/><path fill="#4788c7" d="M12,15v9H3v-9H12 M13,14H2v11h11V14L13,14z"/><path fill="#98ccfd" d="M5.025 17.025H9.975000000000001V21.974999999999998H5.025z" transform="rotate(-45.001 7.5 19.5)"/><path fill="#98ccfd" d="M5.025 17.025H9.975000000000001V21.974999999999998H5.025zM9.363 6.432L7.5 8.161 10.062 11 12 11 12 8.886zM10 3A1 1 0 1 0 10 5 1 1 0 1 0 10 3z"/><path fill="#b6dcfe" d="M10.617 11L3 11 3 8.75 6 5.75z"/><path fill="#fff" d="M15.5 14.5H25.5V24.5H15.5z"/><path fill="#4788c7" d="M25,15v9h-9v-9H25 M26,14H15v11h11V14L26,14z"/><path fill="#98ccfd" d="M22.363 19.432L20.5 21.161 23.062 24 25 24 25 21.886zM23 16A1 1 0 1 0 23 18 1 1 0 1 0 23 16z"/><path fill="#b6dcfe" d="M23.617 24L16 24 16 21.75 19 18.75z"/><path fill="#fff" d="M7.5 32.5l-1.02-1.699C6.005 30.008 6.576 29 7.5 29h0c.924 0 1.495 1.008 1.02 1.801L7.5 32.5zM7.5 32.5l1.02 1.699C8.995 34.992 8.424 36 7.5 36h0c-.924 0-1.495-1.008-1.02-1.801L7.5 32.5z"/><path fill="#fff" d="M7.5 32.5l-1.981.033c-.924.016-1.512-.983-1.05-1.783l0 0c.462-.8 1.621-.791 2.069.017L7.5 32.5zM7.5 32.5l1.981-.033c.924-.016 1.512.983 1.05 1.783h0c-.462.8-1.621.791-2.069-.017L7.5 32.5z"/><path fill="#fff" d="M7.5 32.5l-.962 1.733C6.09 35.041 4.931 35.05 4.469 34.25h0c-.462-.8.126-1.799 1.05-1.783L7.5 32.5zM7.5 32.5l.962-1.733c.449-.808 1.607-.818 2.069-.017l0 0c.462.8-.126 1.799-1.05 1.783L7.5 32.5z"/><path fill="#b6dcfe" d="M7.5 31A1.5 1.5 0 1 0 7.5 34 1.5 1.5 0 1 0 7.5 31zM28.5 27.5H38.5V37.5H28.5z"/><path fill="#4788c7" d="M38,28v9h-9v-9H38 M39,27H28v11h11V27L39,27z"/><path fill="#fff" d="M33.5 32.5l-1.02-1.699C32.005 30.008 32.576 29 33.5 29h0c.924 0 1.495 1.008 1.02 1.801L33.5 32.5zM33.5 32.5l1.02 1.699C34.995 34.992 34.424 36 33.5 36h0c-.924 0-1.495-1.008-1.02-1.801L33.5 32.5z"/><path fill="#fff" d="M33.5 32.5l-1.981.033c-.924.016-1.512-.983-1.05-1.783l0 0c.462-.8 1.621-.791 2.069.017L33.5 32.5zM33.5 32.5l1.981-.033c.924-.016 1.512.983 1.05 1.783h0c-.462.8-1.621.791-2.069-.017L33.5 32.5z"/><path fill="#fff" d="M33.5 32.5l-.962 1.733c-.449.808-1.607.818-2.069.017h0c-.462-.8.126-1.799 1.05-1.783L33.5 32.5zM33.5 32.5l.962-1.733c.449-.808 1.607-.818 2.069-.017l0 0c.462.8-.126 1.799-1.05 1.783L33.5 32.5z"/><path fill="#b6dcfe" d="M33.5 31A1.5 1.5 0 1 0 33.5 34A1.5 1.5 0 1 0 33.5 31Z"/><path fill="#fff" d="M7.5 18A1.5 1.5 0 1 0 7.5 21A1.5 1.5 0 1 0 7.5 18Z"/><path fill="#dff0fe" d="M28.5 14.5H38.5V24.5H28.5z"/><path fill="#4788c7" d="M38,15v9h-9v-9H38 M39,14H28v11h11V14L39,14z"/><path fill="#98ccfd" d="M31.025 17.025H35.975V21.974999999999998H31.025z" transform="rotate(-45.001 33.5 19.5)"/><path fill="#98ccfd" d="M31.025 17.025H35.975V21.974999999999998H31.025z"/><path fill="#fff" d="M33.5 18A1.5 1.5 0 1 0 33.5 21A1.5 1.5 0 1 0 33.5 18Z"/><path fill="#dff0fe" d="M15.5 1.5H25.5V11.5H15.5z"/><path fill="#4788c7" d="M25,2v9h-9V2H25 M26,1H15v11h11V1L26,1z"/><path fill="#98ccfd" d="M18.025 4.025H22.974999999999998V8.975000000000001H18.025z" transform="rotate(-45.001 20.5 6.5)"/><path fill="#98ccfd" d="M18.025 4.025H22.974999999999998V8.975000000000001H18.025z"/><path fill="#fff" d="M20.5 5A1.5 1.5 0 1 0 20.5 8 1.5 1.5 0 1 0 20.5 5zM36 8A1 1 0 1 0 36 10 1 1 0 1 0 36 8zM31.5 7A1.5 1.5 0 1 0 31.5 10 1.5 1.5 0 1 0 31.5 7z"/><path fill="#fff" d="M32.5 6A1.5 1.5 0 1 0 32.5 9A1.5 1.5 0 1 0 32.5 6Z"/><path fill="#fff" d="M34.5 7A1.5 1.5 0 1 0 34.5 10A1.5 1.5 0 1 0 34.5 7Z"/><path fill="#fff" d="M31.5 8H34.5V10H31.5z"/><path fill="#fff" d="M34.5 9H36V10H34.5z" transform="rotate(-180 35.25 9.5)"/><g><path fill="#98ccfd" d="M15.5 27.5H25.5V37.5H15.5z"/><path fill="#4788c7" d="M25,28v9h-9v-9H25 M26,27H15v11h11V27L26,27z"/></g><path fill="#fff" d="M23 29A1 1 0 1 0 23 31 1 1 0 1 0 23 29zM23 34A1 1 0 1 0 23 36 1 1 0 1 0 23 34zM18.5 33A1.5 1.5 0 1 0 18.5 36 1.5 1.5 0 1 0 18.5 33z"/><path fill="#fff" d="M19.5 32A1.5 1.5 0 1 0 19.5 35A1.5 1.5 0 1 0 19.5 32Z"/><path fill="#fff" d="M21.5 33A1.5 1.5 0 1 0 21.5 36A1.5 1.5 0 1 0 21.5 33Z"/><path fill="#fff" d="M18.5 34H21.5V36H18.5z"/><path fill="#fff" d="M21.5 35H23V36H21.5z" transform="rotate(-180 22.25 35.5)"/></svg>