<svg xmlns="http://www.w3.org/2000/svg"  viewBox="0 0 40 40" width="80px" height="80px"><path fill="#98ccfd" d="M2.5 30.658L2.5 7.38 20 2.519 37.5 7.38 37.5 30.658 20 37.463z"/><path fill="#4788c7" d="M20,3.038L37,7.76v22.556l-17,6.611L3,30.316V7.76L20,3.038 M20,2L2,7v24l18,7l18-7V7L20,2L20,2z"/><path fill="#b6dcfe" d="M2.5 7.62L2.5 7.38 20 2.519 37.5 7.38 37.5 7.62 20 12.481z"/><path fill="#4788c7" d="M20,3.038L36.064,7.5L20,11.962L3.936,7.5L20,3.038 M20,2L2,7v1l18,5l18-5V7L20,2L20,2z"/><path fill="#98ccfd" d="M20.5 12.38L37.5 7.658 37.5 30.658 20.5 37.269z"/><path fill="#4788c7" d="M37,8.316v22l-16,6.222V12.76L37,8.316 M38,7l-18,5v26l18-7V7L38,7z"/><path fill="#fff" d="M16.408 31.227l-2.739-.923-1.008-3.471L9.03 25.646 8.25 28.466l-2.413-.803 3.715-12.818 2.957.781L16.408 31.227zM12.036 24.225l-1.176-5.15c-.087-.386-.149-.836-.185-1.351l-.061-.017c-.025.416-.088.818-.189 1.204l-1.161 4.457L12.036 24.225zM25.41 31.018V15.831l4.166-1.298c1.238-.386 2.178-.379 2.83.014.646.39.968 1.123.968 2.203 0 .782-.195 1.534-.588 2.256-.394.726-.9 1.313-1.519 1.761v.041c.776-.143 1.391.023 1.849.496.455.471.682 1.159.682 2.067 0 1.326-.35 2.512-1.053 3.564-.709 1.062-1.687 1.842-2.943 2.34L25.41 31.018zM28.011 17.505v3.548l1.12-.387c.521-.18.929-.488 1.225-.923.296-.434.443-.941.443-1.523 0-1.082-.607-1.425-1.833-1.026L28.011 17.505zM28.011 23.558v3.945l1.378-.527c.581-.222 1.034-.574 1.36-1.055.325-.479.487-1.025.487-1.64 0-.587-.159-.99-.479-1.209-.321-.22-.771-.226-1.352-.016L28.011 23.558zM19.52 10.459c-1.103-.149-2.278-.44-3.528-.872-1.629-.563-2.493-1.157-2.59-1.782s.55-1.189 1.942-1.692c1.482-.536 3.209-.789 5.18-.76 1.971.029 3.794.333 5.467.911 1.037.358 1.797.702 2.279 1.03l-2.01.727c-.34-.38-.965-.727-1.873-1.04-.997-.345-2.076-.524-3.235-.538s-2.207.149-3.141.487c-.896.324-1.321.682-1.276 1.074s.557.757 1.535 1.095c.933.322 1.985.546 3.157.67L19.52 10.459z"/></svg>