<svg xmlns="http://www.w3.org/2000/svg"  viewBox="0 0 40 40" width="80px" height="80px"><path fill="#dff0fe" d="M17.537 38.5L18.966 18.5 21.034 18.5 22.463 38.5z"/><path fill="#4788c7" d="M20.569,19l1.357,19h-3.852l1.357-19H20.569 M21.5,18h-3L17,39h6L21.5,18L21.5,18z"/><path fill="none" stroke="#4788c7" stroke-linecap="round" stroke-miterlimit="10" d="M13.269,37.237 C6.38,34.545,1.5,27.843,1.5,20C1.5,9.783,9.783,1.5,20,1.5S38.5,9.783,38.5,20c0,7.845-4.883,14.55-11.776,17.24"/><path fill="none" stroke="#4788c7" stroke-linecap="round" stroke-miterlimit="10" d="M13.565,31.813 C9.357,29.527,6.5,25.068,6.5,19.942c0-7.456,6.044-13.5,13.5-13.5s13.5,6.044,13.5,13.5c0,5.083-2.81,9.511-6.961,11.813"/><path fill="none" stroke="#4788c7" stroke-linecap="round" stroke-miterlimit="10" d="M13.441,25.407 C12.228,23.937,11.5,22.054,11.5,20c0-4.694,3.806-8.5,8.5-8.5s8.5,3.806,8.5,8.5c0,2.043-0.721,3.917-1.921,5.383"/><g><path fill="#98ccfd" d="M20 16.5A3.5 3.5 0 1 0 20 23.5A3.5 3.5 0 1 0 20 16.5Z"/><path fill="#4788c7" d="M20,17c1.654,0,3,1.346,3,3s-1.346,3-3,3s-3-1.346-3-3S18.346,17,20,17 M20,16 c-2.209,0-4,1.791-4,4s1.791,4,4,4s4-1.791,4-4S22.209,16,20,16L20,16z"/></g></svg>