<svg xmlns="http://www.w3.org/2000/svg"  viewBox="0 0 40 40" width="80px" height="80px"><path fill="#b6dcfe" d="M1.5 35.5L1.5 4.5 11.793 4.5 14.793 7.5 38.5 7.5 38.5 35.5z"/><path fill="#4788c7" d="M11.586,5l2.707,2.707L14.586,8H15h23v27H2V5H11.586 M12,4H1v32h38V7H15L12,4L12,4z"/><path fill="#dff0fe" d="M1.5 35.5L1.5 9.5 12.151 9.5 15.151 7.5 38.5 7.5 38.5 35.5z"/><path fill="#4788c7" d="M38,8v27H2V10h10h0.303l0.252-0.168L15.303,8H38 M39,7H15l-3,2H1v27h38V7L39,7z"/><path fill="#fff" d="M20,31.5c-1.93,0-3.5-1.57-3.5-3.5c0-0.548,0.354-2.489,0.973-5.325 c0.151-0.692,0.753-1.175,1.465-1.175h2.125c0.711,0,1.314,0.483,1.465,1.175C23.146,25.511,23.5,27.452,23.5,28 C23.5,29.93,21.93,31.5,20,31.5z"/><path fill="#4788c7" d="M21.063,22c0.474,0,0.876,0.321,0.976,0.782C22.931,26.874,23,27.81,23,28c0,1.654-1.346,3-3,3 s-3-1.346-3-3c0-0.19,0.069-1.126,0.961-5.218c0.1-0.46,0.502-0.782,0.976-0.782H21.063 M21.063,21h-2.125 c-0.941,0-1.753,0.65-1.953,1.569C16.589,24.381,16,27.216,16,28c0,2.209,1.791,4,4,4s4-1.791,4-4 c0-0.784-0.589-3.619-0.984-5.431C22.816,21.65,22.004,21,21.063,21L21.063,21z"/><path fill="#4788c7" d="M20 26.5A1.5 1.5 0 1 0 20 29.5 1.5 1.5 0 1 0 20 26.5zM22.5 20L20 20 19 19 22.5 19z"/><path fill="#4788c7" d="M22.5 19A.5.5 0 1 0 22.5 20 .5.5 0 1 0 22.5 19zM17.5 21L20 21 21 20 17.5 20z"/><path fill="#4788c7" d="M17.5 20A.5.5 0 1 0 17.5 21 .5.5 0 1 0 17.5 20zM22.5 18L20 18 19 17 22.5 17z"/><path fill="#4788c7" d="M22.5 17A.5.5 0 1 0 22.5 18 .5.5 0 1 0 22.5 17zM17.5 19L20 19 21 18 17.5 18z"/><path fill="#4788c7" d="M17.5 18A.5.5 0 1 0 17.5 19 .5.5 0 1 0 17.5 18zM22.5 16L20 16 19 15 22.5 15z"/><path fill="#4788c7" d="M22.5 15A.5.5 0 1 0 22.5 16 .5.5 0 1 0 22.5 15zM17.5 17L20 17 21 16 17.5 16z"/><path fill="#4788c7" d="M17.5 16A.5.5 0 1 0 17.5 17 .5.5 0 1 0 17.5 16zM22.5 14L20 14 19 13 22.5 13z"/><path fill="#4788c7" d="M22.5 13A.5.5 0 1 0 22.5 14 .5.5 0 1 0 22.5 13zM17.5 15L20 15 21 14 17.5 14z"/><path fill="#4788c7" d="M17.5 14A.5.5 0 1 0 17.5 15 .5.5 0 1 0 17.5 14zM22.5 12L20 12 19 11 22.5 11z"/><path fill="#4788c7" d="M22.5 11A.5.5 0 1 0 22.5 12 .5.5 0 1 0 22.5 11zM17.5 13L20 13 21 12 17.5 12z"/><path fill="#4788c7" d="M17.5 12A.5.5 0 1 0 17.5 13 .5.5 0 1 0 17.5 12zM22.5 10L20 10 19 9 22.5 9z"/><path fill="#4788c7" d="M22.5 9A.5.5 0 1 0 22.5 10 .5.5 0 1 0 22.5 9zM17.5 11L20 11 21 10 17.5 10z"/><g><path fill="#4788c7" d="M17.5 10A0.5 0.5 0 1 0 17.5 11A0.5 0.5 0 1 0 17.5 10Z"/></g><g><path fill="#4788c7" d="M17.5 9L20 9 21 8 17.5 8z"/></g><g><path fill="#4788c7" d="M17.5 8A0.5 0.5 0 1 0 17.5 9A0.5 0.5 0 1 0 17.5 8Z"/></g></svg>