<svg xmlns="http://www.w3.org/2000/svg"  viewBox="0 0 40 40" width="80px" height="80px"><path fill="#4788c7" d="M31,9v22H9V9H31 M32,8H8v24h24V8L32,8z"/><path fill="#98ccfd" d="M2.5 2.5H14.5V14.5H2.5z"/><path fill="#4788c7" d="M14,3v11H3V3H14 M15,2H2v13h13V2L15,2z"/><path fill="#dff0fe" d="M25.5 2.5H37.5V14.5H25.5z"/><path fill="#4788c7" d="M37,3v11H26V3H37 M38,2H25v13h13V2L38,2z"/><g><path fill="#dff0fe" d="M2.5 25.5H14.5V37.5H2.5z"/><path fill="#4788c7" d="M14,26v11H3V26H14 M15,25H2v13h13V25L15,25z"/></g><g><path fill="#dff0fe" d="M25.5 25.5H37.5V37.5H25.5z"/><path fill="#4788c7" d="M37,26v11H26V26H37 M38,25H25v13h13V25L38,25z"/></g></svg>