<svg xmlns="http://www.w3.org/2000/svg"  viewBox="0 0 40 40" width="80px" height="80px"><path fill="#98ccfd" d="M20 16.499A3.5 3.5 0 1 0 20 23.499A3.5 3.5 0 1 0 20 16.499Z"/><path fill="#4788c7" d="M20,17c1.654,0,3,1.345,3,2.998C23,21.653,21.654,23,20,23s-3-1.347-3-3.002 C17,18.345,18.346,17,20,17 M20,16c-2.2,0-4,1.799-4,3.998S17.8,24,20,24s4-1.803,4-4.002S22.2,16,20,16L20,16z"/><path fill="#dff0fe" d="M36 18.5A1.5 1.5 0 1 0 36 21.5A1.5 1.5 0 1 0 36 18.5Z"/><path fill="#4788c7" d="M36,19c0.551,0,1,0.449,1,1s-0.449,1-1,1s-1-0.449-1-1S35.449,19,36,19 M36,18 c-1.105,0-2,0.897-2,2c0,1.107,0.895,2,2,2c1.105,0,2-0.893,2-2C38,18.897,37.105,18,36,18L36,18z"/><path fill="#dff0fe" d="M4 18.5A1.5 1.5 0 1 0 4 21.5A1.5 1.5 0 1 0 4 18.5Z"/><path fill="#4788c7" d="M4,19c0.551,0,1,0.449,1,1s-0.449,1-1,1s-1-0.449-1-1S3.449,19,4,19 M4,18c-1.105,0-2,0.897-2,2 c0,1.107,0.895,2,2,2s2-0.893,2-2C6,18.897,5.105,18,4,18L4,18z"/><path fill="#98ccfd" d="M20 9.5A1.5 1.5 0 1 0 20 12.5A1.5 1.5 0 1 0 20 9.5Z"/><path fill="#4788c7" d="M20,10c0.551,0,1,0.449,1,1s-0.449,1-1,1s-1-0.449-1-1S19.449,10,20,10 M20,9c-1.105,0-2,0.895-2,2 s0.895,2,2,2s2-0.895,2-2S21.105,9,20,9L20,9z"/><g><path fill="#98ccfd" d="M29 18.5A1.5 1.5 0 1 0 29 21.5A1.5 1.5 0 1 0 29 18.5Z"/><path fill="#4788c7" d="M29,19c0.551,0,1,0.449,1,1s-0.449,1-1,1s-1-0.449-1-1S28.449,19,29,19 M29,18c-1.105,0-2,0.897-2,2 c0,1.107,0.895,2,2,2c1.105,0,2-0.893,2-2C31,18.897,30.105,18,29,18L29,18z"/></g><g><path fill="#98ccfd" d="M11 18.5A1.5 1.5 0 1 0 11 21.5A1.5 1.5 0 1 0 11 18.5Z"/><path fill="#4788c7" d="M11,19c0.551,0,1,0.449,1,1s-0.449,1-1,1s-1-0.449-1-1S10.449,19,11,19 M11,18c-1.105,0-2,0.897-2,2 c0,1.107,0.895,2,2,2s2-0.893,2-2C13,18.897,12.105,18,11,18L11,18z"/></g><g><path fill="#98ccfd" d="M20 27.5A1.5 1.5 0 1 0 20 30.5A1.5 1.5 0 1 0 20 27.5Z"/><path fill="#4788c7" d="M20,28c0.551,0,1,0.449,1,1s-0.449,1-1,1s-1-0.449-1-1S19.449,28,20,28 M20,27c-1.105,0-2,0.895-2,2 s0.895,2,2,2s2-0.895,2-2S21.105,27,20,27L20,27z"/></g></svg>