<svg xmlns="http://www.w3.org/2000/svg"  viewBox="0 0 40 40" width="80px" height="80px"><path fill="#b6dcfe" d="M8.5 2.5H31.5V37.5H8.5z"/><path fill="#4788c7" d="M31,3v34H9V3H31 M32,2H8v36h24V2L32,2z"/><path fill="#98ccfd" d="M20 3H25V37H20z"/><path fill="#dff0fe" d="M17.854 39.5L8.5 37.592 8.5 2.409 17.954 0.49 20.5 0.499 20.5 39.5z"/><path fill="#4788c7" d="M20,1v38h-2.046L9,37.183V2.817L17.954,1H20 M21,0h-3.146L8,2v36l9.854,2H21V0L21,0z"/><path fill="#fff" d="M18 1H20V39H18z"/><path fill="#4788c7" d="M16.5 19A0.5 1 0 1 0 16.5 21A0.5 1 0 1 0 16.5 19Z"/><g><path fill="none" stroke="#4788c7" stroke-linecap="round" stroke-miterlimit="10" d="M36.773 27.501c2.302-4.742 2.304-10.256-.005-15M3.232 12.501c-2.309 4.744-2.308 10.258-.005 15"/></g><g><path fill="none" stroke="#4788c7" stroke-linecap="round" stroke-miterlimit="10" d="M34.053 26.501c1.929-4.11 1.93-8.888-.004-13M5.951 13.501c-1.935 4.112-1.933 8.89-.004 13"/></g></svg>