<svg xmlns="http://www.w3.org/2000/svg"  viewBox="0 0 40 40" width="80px" height="80px"><path fill="#fff" d="M8.5 1.5H31.5V19.5H8.5z"/><path fill="#4788c7" d="M31,2v17H9V2H31 M32,1H8v19h24V1L32,1z"/><path fill="#4788c7" d="M1 19H39V20H1z"/><path fill="#dff0fe" d="M8,38.5c-1.93,0-3.5-1.57-3.5-3.5V15.5h10.039c0.358,2.202,3.095,2.999,5.461,2.999 c2.541,0,5.104-0.932,5.458-2.999H35.5V35c0,1.93-1.57,3.5-3.5,3.5H8z"/><path fill="#4788c7" d="M35,16v19c0,1.654-1.346,3-3,3H8c-1.654,0-3-1.346-3-3V16h9.146 c0.637,2.063,3.255,2.999,5.854,2.999s5.218-0.936,5.854-2.999H35 M36,15H25c0,2.219-2.829,2.999-5,2.999S15,17.25,15,15H4v20 c0,2.209,1.791,4,4,4h24c2.209,0,4-1.791,4-4V15L36,15z"/><path fill="#98ccfd" d="M8,35.5c-0.275,0-0.5-0.224-0.5-0.5v-9.5h25V35c0,0.276-0.225,0.5-0.5,0.5H8z"/><path fill="#4788c7" d="M32,26v9H8v-9H32 M33,25H7v10c0,0.552,0.448,1,1,1h24c0.552,0,1-0.448,1-1V25L33,25z"/><path fill="#98ccfd" d="M20,21.499c-4.631,0-8.441-1.401-9.5-1.83v-0.333c1.252-0.524,4-1.847,4-3.336v-0.5h0.039 c0.482,2.964,5.248,3,5.461,3s4.979-0.036,5.461-3H25.5V16c0,1.489,2.748,2.812,4,3.336v0.333 C28.441,20.098,24.631,21.499,20,21.499z"/><path fill="#4788c7" d="M25.317,17.034c0.635,1.041,2.103,1.896,3.274,2.447c-1.555,0.558-4.782,1.518-8.592,1.518 c-3.795,0-7.031-0.961-8.59-1.519c1.171-0.551,2.638-1.405,3.273-2.446C15.873,18.542,18.356,19,20,19 S24.127,18.542,25.317,17.034 M26,15h-1c0,3-5,3-5,3s-5,0-5-3h-1c0,0.006,0,1,0,1c0,1.42-4,3-4,3v1c0,0,4.376,1.999,10,1.999 S30,20,30,20v-1c0,0-4-1.58-4-3V15L26,15z"/><path fill="#fff" d="M15 33H25V34H15zM12 33H13V34H12zM9 33H10V34H9zM9 30H10V31H9zM9 27H10V28H9zM12 30H13V31H12zM12 27H13V28H12zM15 30H16V31H15zM15 27H16V28H15zM18 30H19V31H18zM18 27H19V28H18zM21 30H22V31H21zM21 27H22V28H21zM24 30H25V31H24zM24 27H25V28H24zM27 30H28V31H27zM27 27H28V28H27zM30 30H31V31H30zM27 33H28V34H27zM30 33H31V34H30zM30 27H31V28H30z"/><path fill="#4788c7" d="M2 21.996L2 21.996c-.55 0-1-.45-1-1v-3c0-.55.45-1 1-1h0c.55 0 1 .45 1 1v3C3 21.546 2.55 21.996 2 21.996zM38 21.996L38 21.996c-.55 0-1-.45-1-1v-3c0-.55.45-1 1-1l0 0c.55 0 1 .45 1 1v3C39 21.546 38.55 21.996 38 21.996z"/></svg>