<svg xmlns="http://www.w3.org/2000/svg"  viewBox="0 0 40 40" width="40px" height="40px"><path fill="#dff0fe" d="M13.833,3.5h12.333L38.5,25l-12.029,0.235l-0.304-0.402L13.833,3.5z"/><path fill="#98ccfd" d="M7.557,35.5L13.779,25H38.5l-6.167,10.5H7.557z"/><path fill="#b6dcfe" d="M1.5,24.944L7.557,35.5L20,14.167L13.833,3.5L1.5,24.944z"/><path fill="#4788c7" d="M32.333,36H7.557c-0.179,0-0.344-0.096-0.433-0.25l-6.057-10.5c-0.089-0.154-0.089-0.345,0-0.499 L13.4,3.251C13.489,3.096,13.654,3,13.833,3h12.333c0.179,0,0.345,0.096,0.434,0.251l12.333,21.5 c0.089,0.156,0.088,0.348-0.002,0.502l-6.167,10.5C32.675,35.906,32.511,36,32.333,36z M7.845,35h24.202l5.875-10.003L25.877,4 H14.123L2.077,24.999L7.845,35z"/><path fill="#4788c7" d="M7.529,35.617c-0.085,0-0.171-0.021-0.25-0.067c-0.239-0.139-0.32-0.445-0.181-0.684L18.509,15.22 c0.139-0.24,0.444-0.32,0.683-0.182c0.239,0.139,0.32,0.445,0.181,0.684L7.961,35.368C7.869,35.528,7.701,35.617,7.529,35.617z"/><path fill="#4788c7" d="M38,26H15.647c-0.276,0-0.5-0.224-0.5-0.5s0.224-0.5,0.5-0.5H38c0.276,0,0.5,0.224,0.5,0.5 S38.276,26,38,26z"/><path fill="#4788c7" d="M25.942,23.971c-0.172,0-0.34-0.089-0.433-0.249L14.097,4.074c-0.139-0.238-0.058-0.545,0.181-0.684 c0.238-0.139,0.544-0.059,0.683,0.182L26.374,23.22c0.139,0.238,0.058,0.545-0.181,0.684 C26.113,23.949,26.027,23.971,25.942,23.971z"/></svg>