<svg xmlns="http://www.w3.org/2000/svg"  viewBox="0 0 40 40" width="80px" height="80px"><path fill="#98ccfd" d="M20,38.5C9.799,38.5,1.5,30.201,1.5,20S9.799,1.5,20,1.5S38.5,9.799,38.5,20S30.201,38.5,20,38.5z"/><path fill="#4788c7" d="M20,2c9.925,0,18,8.075,18,18s-8.075,18-18,18S2,29.925,2,20S10.075,2,20,2 M20,1 C9.507,1,1,9.507,1,20s8.507,19,19,19s19-8.507,19-19S30.493,1,20,1L20,1z"/><path fill="#fff" d="M25,17H15c-1.657,0-3,1.343-3,3v7h16v-7C28,18.343,26.657,17,25,17z"/><path fill="none" stroke="#fff" stroke-miterlimit="10" stroke-width="2" d="M20,24L20,24c-2.2,0-4-1.8-4-4v-4c0-2.2,1.8-4,4-4 h0c2.2,0,4,1.8,4,4v4C24,22.2,22.2,24,20,24z"/></svg>