<svg xmlns="http://www.w3.org/2000/svg"  viewBox="0 0 40 40" width="80px" height="80px"><path fill="#dff0fe" d="M17.5 38.5L17.5 24.315 5.195 31.371 2.708 27.033 14.974 20 2.708 12.967 5.195 8.629 17.5 15.685 17.5 1.5 22.5 1.5 22.5 15.685 34.805 8.629 37.292 12.967 25.026 20 37.292 27.033 34.805 31.371 22.5 24.315 22.5 38.5z"/><path fill="#4788c7" d="M22,2v12.822v1.726l1.497-0.859L34.62,9.312l1.99,3.47l-11.076,6.351L24.021,20l1.513,0.868 l11.076,6.351l-1.99,3.47l-11.123-6.378L22,23.452v1.726V38h-4V25.178v-1.726l-1.497,0.859L5.38,30.688l-1.99-3.47l11.076-6.351 L15.979,20l-1.513-0.868L3.39,12.782l1.99-3.47l11.123,6.378L18,16.548v-1.726V2H22 M23,1h-6v13.822L5.01,7.947l-2.985,5.205 L13.969,20L2.025,26.848l2.985,5.205L17,25.178V39h6V25.178l11.99,6.875l2.985-5.205L26.031,20l11.944-6.848L34.99,7.947L23,14.822 V1L23,1z"/></svg>