<svg xmlns="http://www.w3.org/2000/svg"  viewBox="0 0 40 40" width="80px" height="80px"><path fill="#dff0fe" d="M2.5 2.5H37.5V37.5H2.5z"/><path fill="#4788c7" d="M37,3v34H3V3H37 M38,2H2v36h36V2L38,2z"/><path fill="#98ccfd" d="M15.5 30.5L15.5 28.5 12.5 28.5 12.5 25.5 9.5 25.5 9.5 11.5 31.5 11.5 31.5 25.5 28.5 25.5 28.5 28.5 25.5 28.5 25.5 30.5z"/><path fill="#4788c7" d="M31,12v13h-2h-1v1v2h-2h-1v1v1h-9v-1v-1h-1h-2v-2v-1h-1h-2V12H31 M32,11H9v15h3v3h3v2h11v-2h3v-3h3 V11L32,11z"/><path fill="#fff" d="M14.5 18L14.5 18c-.275 0-.5-.225-.5-.5v-3c0-.275.225-.5.5-.5h0c.275 0 .5.225.5.5v3C15 17.775 14.775 18 14.5 18zM16.5 18L16.5 18c-.275 0-.5-.225-.5-.5v-3c0-.275.225-.5.5-.5l0 0c.275 0 .5.225.5.5v3C17 17.775 16.775 18 16.5 18zM18.5 18L18.5 18c-.275 0-.5-.225-.5-.5v-3c0-.275.225-.5.5-.5l0 0c.275 0 .5.225.5.5v3C19 17.775 18.775 18 18.5 18zM22.5 18L22.5 18c-.275 0-.5-.225-.5-.5v-3c0-.275.225-.5.5-.5l0 0c.275 0 .5.225.5.5v3C23 17.775 22.775 18 22.5 18zM24.5 18L24.5 18c-.275 0-.5-.225-.5-.5v-3c0-.275.225-.5.5-.5l0 0c.275 0 .5.225.5.5v3C25 17.775 24.775 18 24.5 18zM26.5 18L26.5 18c-.275 0-.5-.225-.5-.5v-3c0-.275.225-.5.5-.5l0 0c.275 0 .5.225.5.5v3C27 17.775 26.775 18 26.5 18z"/></svg>