<svg xmlns="http://www.w3.org/2000/svg"  viewBox="0 0 40 40" width="80px" height="80px"><path fill="#b6dcfe" d="M31.438,13.266c-0.832,0-1.304,0.528-1.785,1.216l-0.466,0.667v-0.735 c0-1.422-1.317-2.956-2.729-2.956c-0.832,0-1.759,0.671-2.24,1.359l-0.466,0.667v-0.219c0-1.422-1.09-2.766-2.503-2.766 s-2.621,1.344-2.621,2.766l-0.025-9.916l-0.466-0.667c-0.481-0.688-1.264-1.099-2.096-1.099c-1.413,0-2.536,1.495-2.536,2.917 v21.203v0.486l-5.339-5.373c-1.121-1.128-2.945-1.128-4.066,0c-0.543,0.547-0.842,1.273-0.842,2.046 c0,0.773,0.299,1.499,0.842,2.046l10.94,11.009c1.004,1.02,2.343,1.583,3.767,1.583h2.146h5.105c4.379,0,8.567-3.554,8.567-7.961 V15.875C34.625,14.453,32.851,13.266,31.438,13.266z"/><path fill="#4788c7" d="M26.058,38h-7.251c-1.56,0-3.024-0.615-4.124-1.732L3.745,25.26 c-0.637-0.641-0.988-1.493-0.988-2.398s0.351-1.757,0.988-2.398c1.273-1.281,3.502-1.281,4.775,0l4.485,4.514V4.5 c0-1.616,1.247-3.417,3.036-3.417c1.688,0,3.062,1.381,3.062,3.078c0,1.176,0.01,4.477,0.018,6.763 C19.688,10.358,20.445,10,21.25,10c1.283,0,2.41,0.93,2.829,2.191c0.574-0.643,1.473-1.232,2.38-1.232 c1.426,0,2.829,1.311,3.157,2.807c0.631-0.601,1.571-1.016,2.384-1.016c1.694,0,3.125,1.431,3.125,3.125v13.664 C35.125,34.046,30.888,38,26.058,38z M6.133,20.47c-0.635,0-1.231,0.248-1.679,0.699c-0.449,0.452-0.697,1.054-0.697,1.693 s0.248,1.241,0.697,1.693l10.939,11.009C16.305,36.491,17.517,37,18.807,37h7.251c4.297,0,8.067-3.486,8.067-7.461V15.875 c0-1.132-0.993-2.125-2.125-2.125c-0.664,0-1.551,0.466-1.937,1.018l-1.375,1.971v-2.325c0-1.193-1.146-2.456-2.229-2.456 c-0.645,0-1.437,0.583-1.831,1.146l-1.375,1.971v-1.81c0-1.207-0.936-2.266-2.002-2.266c-1.11,0-2.121,1.08-2.121,2.266l-1,0.002 c0,0-0.025-7.236-0.025-9.106c0-1.146-0.925-2.078-2.062-2.078c-1.146,0-2.036,1.299-2.036,2.417v22.902l-6.194-6.233 C7.364,20.718,6.768,20.47,6.133,20.47z"/><path fill="#4788c7" d="M23.252 13.523H24.252V17.131999999999998H23.252zM18.129 12.524H19.129V17.131999999999998H18.129zM28.688 15.188H29.688V17.251H28.688z"/><path fill="#4788c7" d="M19.5 -4.042H20.5V44.041H19.5z" transform="rotate(-45.001 20 20)"/></svg>