<svg xmlns="http://www.w3.org/2000/svg"  viewBox="0 0 40 40" width="80px" height="80px"><path fill="#dff0fe" d="M0.5,33.5v-27h2.403c0.246,0,0.453,0.176,0.493,0.418L3.66,8.5h32.68l0.264-1.582 c0.04-0.242,0.248-0.418,0.493-0.418H39.5v27H0.5z"/><path fill="#4788c7" d="M2.903,7l0.194,1.164L3.236,9h0.847h31.833h0.847l0.139-0.836L37.097,7H39v1v5.5V33H1V13.5V8V7 H2.903 M40,6h-2.903c-0.489,0-0.906,0.353-0.986,0.836L35.917,8H4.083L3.889,6.836C3.809,6.353,3.392,6,2.903,6H0v2v5.5V34h40 V13.5V8V6L40,6z"/><path fill="#b6dcfe" d="M4 12H36V30H4z"/><path fill="#98ccfd" stroke="#4788c7" stroke-linecap="round" stroke-miterlimit="10" d="M35.5 29.5L35.5 12.5M31.5 29.5L31.5 12.5M27.5 29.5L27.5 12.5M23.5 29.5L23.5 12.5M16.5 29.5L16.5 12.5M12.5 29.5L12.5 12.5M8.5 29.5L8.5 12.5M4.5 29.5L4.5 12.5"/></svg>