<svg xmlns="http://www.w3.org/2000/svg"  viewBox="0 0 40 40" width="80px" height="80px"><path fill="#dff0fe" d="M20,38.5c-7.859,0-14.5-2.748-14.5-6V7h29v25.5C34.5,35.752,27.859,38.5,20,38.5z"/><path fill="#4788c7" d="M34,7.5v25c0,2.601-5.75,5.5-14,5.5S6,35.101,6,32.5v-25H34 M35,6.5H5c0,1.29,0,24.71,0,26 c0,3.59,6.716,6.5,15,6.5s15-2.91,15-6.5C35,31.21,35,7.79,35,6.5L35,6.5z"/><path fill="#dff0fe" d="M20,11.5c-8.674,0-14.5-2.585-14.5-5s5.826-5,14.5-5s14.5,2.585,14.5,5S28.674,11.5,20,11.5z"/><path fill="#4788c7" d="M20,2c8.674,0,14,2.621,14,4.5S28.674,11,20,11S6,8.379,6,6.5S11.326,2,20,2 M20,1 C11.716,1,5,3.462,5,6.5S11.716,12,20,12s15-2.462,15-5.5S28.284,1,20,1L20,1z"/><path fill="#dff0fe" stroke="#4788c7" stroke-miterlimit="10" d="M34.5 15.183c0 2.936-6.492 5.317-14.5 5.317S5.5 18.12 5.5 15.183M5.5 23.217c0 3.47 6.492 6.283 14.5 6.283s14.5-2.813 14.5-6.283"/><g><path fill="#98ccfd" d="M31.999,39.468c-1.104-0.43-7.363-3.36-7.497-14.532L32,22.525l7.498,2.41 C39.364,36.079,33.104,39.033,31.999,39.468z"/><path fill="#4788c7" d="M32,23.05l6.991,2.247c-0.249,10.018-5.619,13.023-6.992,13.629 c-1.382-0.604-6.742-3.592-6.99-13.629L32,23.05 M32,22l-8,2.571C24,37.428,32,40,32,40s8-2.607,8-15.429L32,22L32,22z"/></g><path fill="#dff0fe" d="M31.994,36.648c-1.502-0.984-4.361-3.656-4.904-9.919L32,25.151l4.91,1.578 C36.369,32.981,33.526,35.649,31.994,36.648z"/></svg>