<svg xmlns="http://www.w3.org/2000/svg"  viewBox="0 0 40 40" width="80px" height="80px"><path fill="#dff0fe" d="M6.537,32.5l-0.191-0.008C3.067,32.409,0.5,29.776,0.5,26.5c0-2.462,1.479-4.646,3.767-5.566 l0.367-0.147l-0.06-0.391C4.523,20.059,4.5,19.774,4.5,19.5c0-3.309,2.691-6,6-6c0.517,0,1.045,0.072,1.571,0.215l0.504,0.137 l0.114-0.509C13.467,9.903,16.473,7.5,20,7.5c2.698,0,5.2,1.464,6.53,3.82l0.166,0.293l0.334-0.043 c0.318-0.042,0.64-0.07,0.97-0.07c3.792,0,6.99,2.837,7.441,6.601l0.029,0.251l0.22,0.125c2.35,1.333,3.81,3.832,3.81,6.524 c0,4.136-3.364,7.5-7.5,7.5H6.537z"/><path fill="#4788c7" d="M20,8c2.517,0,4.853,1.366,6.095,3.566l0.331,0.586l0.668-0.086C27.443,12.021,27.73,12,28,12 c3.538,0,6.524,2.648,6.944,6.16l0.06,0.502l0.44,0.249C37.637,20.154,39,22.488,39,25c0,3.86-3.14,7-7,7H6.677l-0.319-0.008 C3.354,31.916,1,29.503,1,26.5c0-2.256,1.355-4.259,3.453-5.102l0.734-0.295l-0.117-0.782C5.022,20.008,5,19.747,5,19.5 c0-3.033,2.467-5.5,5.5-5.5c0.471,0,0.956,0.067,1.441,0.198l1.007,0.273l0.23-1.018C13.903,10.242,16.708,8,20,8 M20,7 c-3.81,0-6.992,2.666-7.798,6.233C11.659,13.086,11.09,13,10.5,13C6.91,13,4,15.91,4,19.5c0,0.331,0.033,0.653,0.08,0.97 C1.69,21.431,0,23.766,0,26.5c0,3.534,2.821,6.402,6.333,6.492V33H32c4.418,0,8-3.582,8-8c0-2.986-1.639-5.585-4.063-6.959 C35.462,14.076,32.093,11,28,11c-0.351,0-0.695,0.03-1.034,0.074C25.593,8.644,22.99,7,20,7L20,7z"/><path fill="none" stroke="#4788c7" stroke-linecap="round" stroke-miterlimit="10" stroke-width="2" d="M14 23L18 27 27 18"/></svg>