<svg xmlns="http://www.w3.org/2000/svg"  viewBox="0 0 40 40" width="80px" height="80px"><path fill="#dff0fe" d="M4,27.5c-1.379,0-2.5-1.122-2.5-2.5V4c0-1.378,1.121-2.5,2.5-2.5h32c1.379,0,2.5,1.122,2.5,2.5v21 c0,1.378-1.121,2.5-2.5,2.5H4z"/><path fill="#4788c7" d="M36,2c1.103,0,2,0.897,2,2v21c0,1.103-0.897,2-2,2H4c-1.103,0-2-0.897-2-2V4c0-1.103,0.897-2,2-2 H36 M36,1H4C2.343,1,1,2.343,1,4v21c0,1.657,1.343,3,3,3h32c1.657,0,3-1.343,3-3V4C39,2.343,37.657,1,36,1L36,1z"/><path fill="#dff0fe" d="M4,38.5c-1.379,0-2.5-1.122-2.5-2.5v-6c0-1.378,1.121-2.5,2.5-2.5h32c1.379,0,2.5,1.122,2.5,2.5v6 c0,1.378-1.121,2.5-2.5,2.5H4z"/><path fill="#4788c7" d="M36,28c1.103,0,2,0.897,2,2v6c0,1.103-0.897,2-2,2H4c-1.103,0-2-0.897-2-2v-6c0-1.103,0.897-2,2-2 H36 M36,27H4c-1.657,0-3,1.343-3,3v6c0,1.657,1.343,3,3,3h32c1.657,0,3-1.343,3-3v-6C39,28.343,37.657,27,36,27L36,27z"/><path fill="#b6dcfe" d="M5.5 5.5H34.5V23.5H5.5z"/><path fill="#4788c7" d="M34 6v17H6V6H34M35 5H5v19h30V5L35 5zM20.5 33h-15C5.224 33 5 32.776 5 32.5l0 0C5 32.224 5.224 32 5.5 32h15c.276 0 .5.224.5.5l0 0C21 32.776 20.776 33 20.5 33z"/><path fill="#4788c7" d="M15,32.667c0,0-0.63,1.333-2.5,1.333S10,32.667,10,32.667L12.442,32L15,32.667z"/><g><path fill="#98ccfd" d="M33 31.5A1.5 1.5 0 1 0 33 34.5A1.5 1.5 0 1 0 33 31.5Z"/><path fill="#4788c7" d="M33,32c0.551,0,1,0.449,1,1s-0.449,1-1,1s-1-0.449-1-1S32.449,32,33,32 M33,31 c-1.105,0-2,0.895-2,2c0,1.105,0.895,2,2,2c1.105,0,2-0.895,2-2C35,31.895,34.105,31,33,31L33,31z"/></g></svg>