<svg xmlns="http://www.w3.org/2000/svg"  viewBox="0 0 40 40" width="80px" height="80px"><path fill="#dff0fe" d="M28.249,35.5l-2.061-7H13.812l-2.061,7H5.702l10.721-31h7.405l10.475,31H28.249z M15.283,23.5 h9.434L20.51,9.213h-1.022L15.283,23.5z"/><path fill="#4788c7" d="M23.47,5l10.137,30h-4.984l-1.849-6.282L26.562,28h-0.748H14.185h-0.748l-0.211,0.718L11.377,35 H6.404L16.779,5H23.47 M14.615,24h1.337h8.097h1.337l-0.378-1.282L21.096,9.43l-0.211-0.718h-0.748h-0.274h-0.748L18.903,9.43 l-3.911,13.287L14.615,24 M24.187,4h-8.12L5,36h7.125l2.06-7h11.629l2.061,7H35L24.187,4L24.187,4z M15.951,23l3.911-13.287h0.274 L24.048,23H15.951L15.951,23z"/></svg>