<?xml version="1.0" encoding="UTF-8" standalone="no"?>
<!DOCTYPE svg PUBLIC "-//W3C//DTD SVG 1.1//EN" "http://www.w3.org/Graphics/SVG/1.1/DTD/svg11.dtd">
<svg width="100%" height="100%" viewBox="0 0 320 200" version="1.1" xmlns="http://www.w3.org/2000/svg" xmlns:xlink="http://www.w3.org/1999/xlink" xml:space="preserve" xmlns:serif="http://www.serif.com/" style="fill-rule:evenodd;clip-rule:evenodd;stroke-linejoin:round;stroke-miterlimit:2;">
    <rect x="0" y="0" width="320" height="200" style="fill:url(#_Linear1);"/>
    <g transform="matrix(1,0,0,1,112,52)">
        <path d="M48,84C28.204,84 12,67.796 12,48C12,28.204 28.204,12 48,12C67.796,12 84,28.204 84,48C84,67.796 67.796,84 48,84ZM48,18C31.398,18 18,31.398 18,48C18,64.602 31.398,78 48,78C64.602,78 78,64.602 78,48C78,31.398 64.602,18 48,18Z" style="fill:rgb(255,111,0);fill-rule:nonzero;"/>
    </g>
    <g transform="matrix(1,0,0,1,112,52)">
        <path d="M84.88,17.32C84.28,16.6 83.68,15.92 83.04,15.24L78.8,19.48C79.44,20.16 80.04,20.86 80.62,21.58C86.48,28.8 90,38 90,48C90,58 86.48,67.2 80.62,74.42C80.04,75.14 79.44,75.84 78.8,76.52L83.04,80.76C83.68,80.08 84.28,79.4 84.88,78.68C91.82,70.36 96,59.66 96,48C96,36.34 91.82,25.64 84.88,17.32ZM6,48C6,38 9.52,28.8 15.38,21.58C15.96,20.86 16.56,20.16 17.2,19.48L12.96,15.24C12.32,15.92 11.72,16.6 11.12,17.32C4.18,25.64 0,36.34 0,48C0,59.66 4.18,70.36 11.12,78.68C11.72,79.4 12.32,80.08 12.96,80.76L17.2,76.52C16.56,75.84 15.96,75.14 15.38,74.42C9.52,67.2 6,58 6,48Z" style="fill:rgb(230,81,0);fill-rule:nonzero;"/>
    </g>
    <g transform="matrix(1,0,0,1,112,52)">
        <rect x="44" y="26" width="8" height="30" style="fill:rgb(230,81,0);"/>
    </g>
    <g transform="matrix(1,0,0,1,112,52)">
        <rect x="44" y="62" width="8" height="8" style="fill:rgb(230,81,0);"/>
    </g>
    <defs>
        <linearGradient id="_Linear1" x1="0" y1="0" x2="1" y2="0" gradientUnits="userSpaceOnUse" gradientTransform="matrix(320,0,0,200,0,100)"><stop offset="0" style="stop-color:rgb(189,0,0);stop-opacity:1"/><stop offset="1" style="stop-color:rgb(125,13,0);stop-opacity:1"/></linearGradient>
    </defs>
</svg>
