<svg version="1.1" xmlns="http://www.w3.org/2000/svg" xmlns:xlink="http://www.w3.org/1999/xlink" x="0px" y="0px"
	 width="64px" height="64px" viewBox="0 0 64 64" enable-background="new 0 0 64 64" xml:space="preserve">
<path d="M32,19c13.089,0,27-3.154,27-9S45.089,1,32,1S5,4.154,5,10S18.911,19,32,19z"/>
<path d="M32,41c13.089,0,27-3.154,27-9V14.436c-1.481,1.493-3.963,2.968-8.022,4.174C45.864,20.128,38.946,21,32,21
	s-13.864-0.872-18.978-2.391C8.963,17.403,6.481,15.929,5,14.436V32C5,37.846,18.911,41,32,41z"/>
<path d="M32,63c13.089,0,27-3.154,27-9V36.436c-1.481,1.493-3.963,2.968-8.022,4.174C45.864,42.128,38.946,43,32,43
	s-13.864-0.872-18.978-2.391C8.963,39.403,6.481,37.929,5,36.436V54C5,59.846,18.911,63,32,63z"/>
</svg>
