<svg xmlns="http://www.w3.org/2000/svg" width="80" height="105" viewBox="0 0 80 105">
    <g fill-rule="evenodd">
        <g id="death-star" fill="#000000" fill-opacity="0.05">
            <path d="M20 10a5 5 0 0 1 10 0v50a5 5 0 0 1-10 0V10zm15 35a5 5 0 0 1 10 0v50a5 5 0 0 1-10 0V45zM20 75a5 5 0 0 1 10 0v20a5 5 0 0 1-10 0V75zm30-65a5 5 0 0 1 10 0v50a5 5 0 0 1-10 0V10zm0 65a5 5 0 0 1 10 0v20a5 5 0 0 1-10 0V75zM35 10a5 5 0 0 1 10 0v20a5 5 0 0 1-10 0V10zM5 45a5 5 0 0 1 10 0v50a5 5 0 0 1-10 0V45zm0-35a5 5 0 0 1 10 0v20a5 5 0 0 1-10 0V10zm60 35a5 5 0 0 1 10 0v50a5 5 0 0 1-10 0V45zm0-35a5 5 0 0 1 10 0v20a5 5 0 0 1-10 0V10z" />
        </g>
    </g>
</svg>
