<?xml version="1.0" encoding="UTF-8" standalone="no"?>
<!DOCTYPE svg PUBLIC "-//W3C//DTD SVG 1.1//EN" "http://www.w3.org/Graphics/SVG/1.1/DTD/svg11.dtd">
<svg width="100%" height="100%" viewBox="0 0 1500 1000" version="1.1" xmlns="http://www.w3.org/2000/svg" xmlns:xlink="http://www.w3.org/1999/xlink" xml:space="preserve" style="fill-rule:evenodd;clip-rule:evenodd;stroke-linejoin:round;stroke-miterlimit:1.41421;">
    <path d="M1500,543c0,0 -135.753,54.677 -252.197,101.577c-106.023,42.702 -223.596,47.2 -332.571,12.724c-56.088,-17.745 -118.404,-37.46 -173.999,-55.048c-103.773,-32.831 -216.376,-22.709 -312.631,28.103c0,0 0,0.001 0,0.001c-94.821,50.055 -206.441,57.476 -307.053,20.415c-63.317,-23.322 -121.549,-44.772 -121.549,-44.772l0,417l1500,0l0,-480Z" style="fill:#2d2d2d;fill-opacity:0.282609;"/>
    <path d="M1510,580c0,0 -144.155,47.882 -252.311,83.806c-74.651,24.796 -156.199,17.958 -225.679,-18.923c0,0 0,0 0,0c-62.207,-33.021 -133.629,-44.415 -203.023,-32.389c-98.381,17.051 -244.859,42.438 -352.664,61.121c-92.259,15.99 -187.076,8.079 -275.41,-22.977c-93.342,-32.818 -200.913,-70.638 -200.913,-70.638l0,466l1500,0l10,-466Z" style="fill:#2d2d2d;fill-opacity:0.550725;"/>
    <path d="M1500,650c0,0 -143.367,28.581 -239.425,47.731c-56.087,11.181 -113.694,12.508 -170.237,3.922c-74.75,-11.351 -183.318,-27.838 -261.719,-39.743c-65.252,-9.909 -131.707,-8.759 -196.577,3.4c-49.655,9.308 -109.704,20.564 -158.992,29.803c-63.125,11.833 -127.839,12.479 -191.188,1.911c-111.875,-18.665 -281.862,-47.024 -281.862,-47.024l0,430l1500,0l0,-430Z" style="fill:#2d2d2d;"/>
</svg>
