<svg width="2183" height="1455" viewBox="0 0 2183 1455" fill="none" xmlns="http://www.w3.org/2000/svg">
<path d="M1594.02 779.052C1594.02 1097.41 1335.94 1355.49 1017.58 1355.49C699.224 1355.49 441.144 1097.41 441.144 779.052C441.144 460.695 699.224 202.615 1017.58 202.615C1335.94 202.615 1594.02 460.695 1594.02 779.052Z" fill="#76ADFF"/>
<path fill-rule="evenodd" clip-rule="evenodd" d="M659.026 827.196H1484.73C1493.09 827.196 1499.92 834.026 1499.92 842.398V1148.48C1499.92 1156.84 1493.09 1163.67 1484.73 1163.67H659.026C650.754 1163.67 643.925 1156.84 643.925 1148.48V842.398C643.925 834.026 650.754 827.196 659.026 827.196Z" fill="#424857"/>
<path fill-rule="evenodd" clip-rule="evenodd" d="M763.199 860.192H818.797V915.791H763.199V860.192ZM833.9 860.192H889.5V915.791H833.9V860.192ZM904.697 860.192H960.296V915.791H904.697V860.192ZM975.395 860.192H1030.99V915.791H975.395V860.192ZM1046.19 860.192H1101.79V915.791H1046.19V860.192ZM1116.89 860.192H1172.49V915.791H1116.89V860.192ZM1187.69 860.192H1243.29V915.791H1187.69V860.192ZM1258.39 860.192H1313.99V915.791H1258.39V860.192ZM1329.19 860.192H1384.78V915.791H1329.19V860.192ZM1399.88 860.192H1455.48V915.791H1399.88V860.192ZM692.404 931.084H748.002V986.684H692.404V931.084ZM763.199 931.084H818.797V986.684H763.199V931.084ZM833.9 931.084H889.5V986.684H833.9V931.084ZM904.697 931.084H960.296V986.684H904.697V931.084ZM975.395 931.084H1030.99V986.684H975.395V931.084ZM1046.19 931.084H1101.79V986.684H1046.19V931.084ZM1116.89 931.084H1172.49V986.684H1116.89V931.084ZM1187.69 931.084H1243.29V986.684H1187.69V931.084ZM1258.39 931.084H1384.78V986.684H1258.39V931.084ZM1399.88 931.084H1455.48V986.684H1399.88V931.084ZM692.404 1003.03H748.002V1058.63H692.404V1003.03ZM763.199 1003.03H818.797V1058.63H763.199V1003.03ZM833.9 1003.03H889.5V1058.63H833.9V1003.03ZM904.697 1003.03H960.296V1058.63H904.697V1003.03ZM975.395 1003.03H1030.99V1058.63H975.395V1003.03ZM1046.19 1003.03H1101.79V1058.63H1046.19V1003.03ZM1116.89 1003.03H1172.49V1058.63H1116.89V1003.03ZM1187.69 1003.03H1313.99V1058.63H1187.69V1003.03ZM1329.19 1003.03H1384.78V1058.63H1329.19V1003.03ZM1399.88 1003.03H1455.48V1058.63H1399.88V1003.03ZM692.404 1072.97H748.002V1128.56H692.404V1072.97ZM763.199 1072.97H818.797V1128.56H763.199V1072.97ZM833.9 1072.97H1243.29V1128.56H833.9V1072.97ZM1258.39 1072.97H1313.99V1128.56H1258.39V1072.97ZM1329.19 1072.97H1384.78V1128.56H1329.19V1072.97ZM1399.88 1072.97H1455.48V1128.56H1399.88V1072.97ZM692.404 860.192H748.002V915.791H692.404V860.192" fill="#BABBBC"/>
<path fill-rule="evenodd" clip-rule="evenodd" d="M936.73 799.883H1181.73C1188.07 799.883 1193.46 796.709 1193.65 792.859L1194.13 781.51H1052.35H1042.06H924.418L924.896 792.859C924.994 796.709 930.382 799.883 936.73 799.883Z" fill="#424857"/>
<path fill-rule="evenodd" clip-rule="evenodd" d="M933.843 786.607H1184.61C1190.86 786.607 1195.09 783.816 1194.04 780.545L1170.76 704.17C1169.7 700.899 1163.83 698.209 1157.58 698.209H1095.16H1023.3H960.872C954.716 698.209 948.752 700.899 947.79 704.17L924.418 780.545C923.455 783.816 927.687 786.607 933.843 786.607Z" fill="#323943"/>
<path fill-rule="evenodd" clip-rule="evenodd" d="M654.41 306.136H1464.04C1484.06 306.136 1497.81 319.41 1494.54 335.761L1419.22 713.114C1415.95 729.469 1396.91 742.743 1376.8 742.743H1175.19H943.367H741.654C721.648 742.743 702.604 729.469 699.331 713.114L623.918 335.761C620.647 319.41 634.403 306.136 654.41 306.136" fill="#424857"/>
<path fill-rule="evenodd" clip-rule="evenodd" d="M691.828 343.071H1426.72C1438.07 343.071 1445.86 353.46 1444.04 366.253L1401.14 660.499C1399.31 673.195 1388.44 683.587 1377.09 683.587H1262.33H1130.45H1102.75H1015.7H987.999H856.12H741.461C730.015 683.587 719.145 673.195 717.317 660.499L674.417 366.253C672.591 353.46 680.381 343.071 691.828 343.071" fill="#E8E8E8"/>
<path fill-rule="evenodd" clip-rule="evenodd" d="M997.616 710.231H1120.84C1125.74 710.231 1127.96 714.174 1125.84 719.078C1123.72 723.986 1117.95 727.929 1113.05 727.929H1094.19H1024.26H1005.41C1000.5 727.929 994.826 723.986 992.614 719.078C990.498 714.174 992.71 710.231 997.616 710.231Z" fill="#BABBBC"/>
<path fill-rule="evenodd" clip-rule="evenodd" d="M630.072 315.178L657.584 284.686C925.379 284.686 1193.17 284.686 1460.87 284.686L1488.38 315.178C1146.71 324.894 971.838 324.894 630.072 315.178" fill="#323943"/>
<path fill-rule="evenodd" clip-rule="evenodd" d="M1706.9 534.497C1826.46 534.497 1924 436.959 1924 317.298C1924 197.739 1826.46 100.192 1706.9 100.192C1587.24 100.192 1489.7 197.739 1489.7 317.298C1489.7 436.959 1587.24 534.497 1706.9 534.497Z" fill="#6ACEDF"/>
<path fill-rule="evenodd" clip-rule="evenodd" d="M1519.61 207.349C1527.98 193.22 1537.89 180.044 1549.05 168.212H1632.54C1643.32 168.212 1652.17 176.952 1652.17 187.73C1652.17 198.507 1643.32 207.349 1632.54 207.349H1519.61ZM1504.13 395.312C1495.18 372.035 1490.08 346.737 1489.79 320.38H1559.92C1568.48 320.38 1575.41 327.306 1575.41 335.867C1575.41 338.174 1574.93 340.291 1574.06 342.311H1614.07C1628.6 342.311 1640.53 354.239 1640.53 368.763V368.86C1640.53 383.385 1628.6 395.312 1614.07 395.312H1504.13ZM1903.23 224.574C1916.59 252.757 1924 284.212 1924 317.301C1924 320.861 1923.9 324.419 1923.71 327.882C1917.56 330.383 1910.82 331.729 1903.8 331.729H1758.74C1729.21 331.729 1705.16 307.682 1705.16 278.153C1705.16 248.718 1729.21 224.574 1758.74 224.574H1903.23ZM1920.34 357.125C1916.69 377.037 1910.25 395.889 1901.59 413.491H1728.73C1713.25 413.491 1700.55 400.797 1700.55 385.308C1700.55 369.822 1713.25 357.125 1728.73 357.125H1920.34Z" fill="#79CE72"/>
<path fill-rule="evenodd" clip-rule="evenodd" d="M1537.7 213.124C1541.55 213.124 1545.2 213.99 1548.57 215.531C1551.36 214.183 1554.63 213.319 1558.09 213.124C1557.52 211.298 1557.23 209.47 1557.23 207.447C1557.23 196.193 1567.33 187.063 1579.73 187.063C1592.24 187.063 1602.34 196.193 1602.34 207.447C1602.34 211.682 1600.99 215.531 1598.59 218.8C1605.8 220.821 1611 226.496 1611 233.131C1611 236.018 1610.03 238.712 1608.3 241.021C1618.4 242.944 1624.94 246.023 1624.94 249.39C1624.94 255.256 1605.42 259.971 1581.27 259.971C1571.27 259.971 1562.13 259.2 1554.73 257.853C1550.21 261.893 1544.24 264.395 1537.7 264.395C1523.46 264.395 1512.02 252.853 1512.02 238.712C1512.02 224.571 1523.46 213.124 1537.7 213.124V213.124ZM1846.57 151.075C1858.79 161.477 1869.94 173.107 1879.66 185.806H1782.79C1780.29 188.305 1776.92 189.851 1773.18 189.851C1771.63 189.851 1770.19 189.649 1768.85 189.172C1768.94 189.36 1768.94 189.562 1768.94 189.75C1768.94 202.55 1758.56 212.933 1745.76 212.933C1732.97 212.933 1722.58 202.55 1722.58 189.75C1722.58 185.618 1723.73 181.761 1725.56 178.394H1714.21C1705.07 178.394 1697.66 170.896 1697.66 161.852C1697.66 157.143 1699.68 152.809 1702.86 149.833C1705.55 142.71 1712.38 137.711 1720.46 137.711C1726.62 137.711 1732.1 140.688 1735.56 145.311H1747.87C1750.86 138.968 1757.3 134.634 1764.8 134.634C1772.3 134.634 1778.75 138.968 1781.73 145.311H1795.11C1800.1 145.311 1804.63 147.521 1807.61 151.075H1846.57ZM1806.65 369.53C1819.35 369.53 1830.12 361.547 1834.35 350.388C1839.35 345.675 1842.53 338.942 1842.53 331.439C1842.53 317.106 1830.79 305.468 1816.55 305.468H1798.57C1801.55 300.081 1803.28 294.021 1803.28 287.481C1803.28 267.28 1786.93 250.927 1766.82 250.927C1746.62 250.927 1730.27 267.28 1730.27 287.481C1730.27 287.769 1730.27 288.058 1730.37 288.44C1728.25 287.672 1725.94 287.288 1723.63 287.288C1712.96 287.288 1704.11 295.176 1702.47 305.468H1689.01C1674.67 305.468 1663.03 317.106 1663.03 331.439C1663.03 345.771 1674.67 357.508 1689.01 357.508H1710.07C1714.78 367.511 1724.98 374.34 1736.72 374.34C1748.55 374.34 1758.74 367.511 1763.46 357.508H1782.89C1788.28 364.816 1796.93 369.53 1806.65 369.53Z" fill="white"/>
<path fill-rule="evenodd" clip-rule="evenodd" d="M1632.09 922.622C1673.16 922.622 1706.74 956.192 1706.74 997.267V1082.1C1706.74 1123.18 1673.16 1156.75 1632.09 1156.75C1591.02 1156.75 1557.45 1123.18 1557.45 1082.1V997.267C1557.45 956.192 1591.02 922.622 1632.09 922.622Z" fill="#E8E8E8"/>
<path fill-rule="evenodd" clip-rule="evenodd" d="M1627.57 1041.41L1557.45 1029.1V997.265C1557.45 957.732 1588.61 925.12 1627.57 922.809V1041.41Z" fill="#D2D3D4"/>
<path fill-rule="evenodd" clip-rule="evenodd" d="M1636.61 1041.41L1706.74 1029.1V997.265C1706.74 957.732 1675.56 925.12 1636.61 922.809V1041.41Z" fill="#D2D3D4"/>
<path fill-rule="evenodd" clip-rule="evenodd" d="M1632.09 960.809C1637.08 960.809 1641.13 964.849 1641.13 969.849V995.05C1641.13 999.959 1637.08 1004.1 1632.09 1004.1C1627.09 1004.1 1623.04 999.959 1623.04 995.05V969.849C1623.04 964.849 1627.09 960.809 1632.09 960.809Z" fill="#A3A6A7"/>
<path fill-rule="evenodd" clip-rule="evenodd" d="M811.006 1264.38C811.392 1264.86 811.679 1265.35 812.067 1265.73H921.049V1152.42C924.03 1152.03 926.723 1150.88 928.937 1149.15C951.926 1130.68 975.012 1112.21 998.097 1093.74C1014.64 1080.56 1012.72 1065.65 988.191 1064.98C969.529 1067.58 952.119 1075.75 934.901 1084.6V1078.06V1049.11V943.59C934.901 935.03 927.782 928.007 919.22 928.007C910.659 928.007 903.542 935.03 903.542 943.59V1049.11H898.252V923.194C898.252 914.541 891.229 907.519 882.574 907.519C874.013 907.519 866.99 914.541 866.99 923.194V1049.11H861.699V952.052C861.699 943.493 854.58 936.47 846.019 936.47C837.46 936.47 830.341 943.493 830.341 952.052V1049.11H825.05V991.586C825.05 982.932 818.029 975.909 809.372 975.909C800.811 975.909 793.788 982.932 793.788 991.586V1049.11V1136.84C793.788 1144.24 804.177 1151.84 811.006 1153.48V1264.38" fill="#FCD4A5"/>
<path fill-rule="evenodd" clip-rule="evenodd" d="M823.895 985.626C821.588 979.95 815.912 975.91 809.372 975.91C802.83 975.91 797.155 980.045 794.847 985.915C796.001 996.112 802.06 1003.81 809.372 1003.81C816.682 1003.81 822.743 995.914 823.895 985.626ZM860.159 945.415C857.658 940.128 852.272 936.471 846.018 936.471C839.095 936.471 833.13 940.992 831.11 947.341C832.554 957.057 838.42 964.367 845.54 964.367C853.042 964.367 859.295 956.092 860.159 945.415ZM896.713 916.461C894.211 911.175 888.825 907.519 882.574 907.519C875.551 907.519 869.589 912.232 867.663 918.678C869.009 928.488 874.974 935.895 882.093 935.895C889.69 935.895 896.038 927.334 896.713 916.461V916.461ZM933.842 938.105C931.63 932.144 925.858 928.008 919.22 928.008C912.778 928.008 907.099 931.951 904.792 937.624C905.852 948.015 911.91 955.998 919.317 955.998C926.627 955.998 932.689 948.205 933.842 938.105ZM1008.29 1080.66C1007.04 1084.8 1003.58 1089.41 998.097 1093.74L982.803 1105.96C982.514 1104.61 982.322 1103.07 982.322 1101.53C982.322 1089.9 992.517 1080.47 1005.12 1080.47C1006.18 1080.47 1007.24 1080.56 1008.29 1080.66" fill="#FDEAD3"/>
<path fill-rule="evenodd" clip-rule="evenodd" d="M809.565 1197.05H922.59C926.918 1197.05 930.574 1200.71 930.574 1205.03V1213.88H801.583V1205.03C801.583 1200.71 805.141 1197.05 809.565 1197.05Z" fill="white"/>
<path fill-rule="evenodd" clip-rule="evenodd" d="M797.831 1213.88H934.229C939.902 1213.88 944.424 1218.4 944.424 1224.08V1333.06C944.424 1338.64 939.902 1343.26 934.229 1343.26H797.831C792.25 1343.26 787.729 1338.64 787.729 1333.06V1224.08C787.729 1218.4 792.25 1213.88 797.831 1213.88Z" fill="#014798"/>
<path fill-rule="evenodd" clip-rule="evenodd" d="M1375.55 1264.38C1375.16 1264.86 1374.88 1265.35 1374.49 1265.73H1265.41V1152.42C1262.53 1152.03 1259.83 1150.88 1257.62 1149.15C1234.53 1130.68 1211.54 1112.21 1188.46 1093.74C1171.92 1080.56 1173.84 1065.65 1198.37 1064.98C1217.03 1067.58 1234.44 1075.75 1251.66 1084.6V1078.06V1049.11V943.59C1251.66 935.03 1258.77 928.007 1267.34 928.007C1275.89 928.007 1283.02 935.03 1283.02 943.59V1049.11H1288.3V923.194C1288.3 914.541 1295.33 907.519 1303.89 907.519C1312.54 907.519 1319.57 914.541 1319.57 923.194V1049.11H1324.86V952.052C1324.86 943.493 1331.98 936.47 1340.54 936.47C1349.1 936.47 1356.21 943.493 1356.21 952.052V1049.11H1361.51V991.586C1361.51 982.932 1368.53 975.909 1377.09 975.909C1385.75 975.909 1392.77 982.932 1392.77 991.586V1049.11V1136.84C1392.77 1144.24 1382.38 1151.84 1375.55 1153.48V1264.38" fill="#FCD4A5"/>
<path fill-rule="evenodd" clip-rule="evenodd" d="M1362.66 985.626C1364.97 979.95 1370.65 975.91 1377.09 975.91C1383.73 975.91 1389.4 980.045 1391.71 985.915C1390.56 996.112 1384.5 1003.81 1377.19 1003.81C1369.88 1003.81 1363.81 995.914 1362.66 985.626ZM1326.4 945.415C1328.9 940.128 1334.29 936.471 1340.54 936.471C1347.46 936.471 1353.43 940.992 1355.45 947.341C1354 957.057 1348.14 964.367 1341.02 964.367C1333.52 964.367 1327.26 956.092 1326.4 945.415V945.415ZM1289.85 916.461C1292.35 911.175 1297.73 907.519 1303.89 907.519C1311.01 907.519 1316.97 912.232 1318.9 918.678C1317.54 928.488 1311.59 935.895 1304.47 935.895C1296.87 935.895 1290.52 927.334 1289.85 916.461V916.461ZM1252.72 938.105C1254.93 932.144 1260.7 928.008 1267.34 928.008C1273.78 928.008 1279.36 931.951 1281.77 937.624C1280.71 948.015 1274.65 955.998 1267.24 955.998C1259.93 955.998 1253.87 948.205 1252.72 938.105V938.105ZM1178.27 1080.66C1179.51 1084.8 1182.98 1089.41 1188.46 1093.74L1203.76 1105.96C1204.04 1104.61 1204.24 1103.07 1204.24 1101.53C1204.24 1089.9 1194.04 1080.47 1181.44 1080.47C1180.38 1080.47 1179.32 1080.56 1178.27 1080.66" fill="#FDEAD3"/>
<path fill-rule="evenodd" clip-rule="evenodd" d="M1376.99 1197.05H1263.97C1259.64 1197.05 1255.99 1200.71 1255.99 1205.03V1213.88H1384.98V1205.03C1384.98 1200.71 1381.42 1197.05 1376.99 1197.05Z" fill="white"/>
<path fill-rule="evenodd" clip-rule="evenodd" d="M1388.73 1213.88H1252.33C1246.66 1213.88 1242.13 1218.4 1242.13 1224.08V1333.06C1242.13 1338.64 1246.66 1343.26 1252.33 1343.26H1388.73C1394.31 1343.26 1398.83 1338.64 1398.83 1333.06V1224.08C1398.83 1218.4 1394.31 1213.88 1388.73 1213.88Z" fill="#014798"/>
<path d="M1697.11 379.529C1700.19 384.241 1698.85 390.591 1694.04 393.574C1689.33 396.651 1683.07 395.207 1679.99 390.494L1679.52 389.822L1677.87 387.225L1676.15 384.627L1674.42 382.029L1672.68 379.433L1670.85 376.931L1669.13 374.335L1668.93 374.143C1665.66 369.622 1666.63 363.273 1671.14 359.907C1675.76 356.636 1682.1 357.599 1685.38 362.215L1685.67 362.503L1687.49 365.197L1689.43 367.889L1691.25 370.585L1693.08 373.276L1694.9 376.066L1696.64 378.76L1697.11 379.529ZM1733.67 454.75C1735.5 460.042 1732.71 465.909 1727.42 467.735C1722.12 469.563 1716.34 466.773 1714.44 461.483L1714.05 460.233L1713.08 457.443L1712.02 454.655L1710.97 451.865L1709.91 449.072L1708.85 446.284L1707.69 443.495L1707.5 443.015C1705.29 437.82 1707.69 431.856 1712.89 429.644C1718.09 427.528 1724.04 429.933 1726.25 435.127L1726.54 435.705L1727.71 438.687L1728.85 441.668L1730.01 444.649L1731.17 447.632L1732.22 450.613L1733.28 453.596L1733.67 454.75ZM1750.41 536.898C1750.79 542.476 1746.65 547.383 1740.98 547.86C1735.4 548.247 1730.49 544.108 1730.11 538.435L1729.91 536.129L1729.72 533.146L1729.43 530.164L1729.14 527.182L1728.77 524.199L1728.38 521.218L1728.09 518.813C1727.32 513.233 1731.17 508.136 1736.74 507.366C1742.32 506.596 1747.52 510.444 1748.29 516.023L1748.58 518.619L1748.97 521.795L1749.34 524.97L1749.63 528.141L1749.92 531.412L1750.21 534.588L1750.41 536.898ZM1745.31 620.679C1744.26 626.16 1738.87 629.818 1733.38 628.758C1727.8 627.702 1724.25 622.314 1725.3 616.83V616.448L1725.88 613.561L1726.36 610.578L1726.93 607.696L1727.32 604.712L1727.8 601.73L1728.19 598.844L1728.38 597.402C1729.06 591.821 1734.16 587.878 1739.73 588.55C1745.31 589.223 1749.25 594.32 1748.58 599.9L1748.39 601.44L1747.9 604.612L1747.52 607.788L1746.94 610.869L1746.47 614.041L1745.89 617.216L1745.31 620.295V620.679ZM1719.72 700.324C1717.41 705.42 1711.45 707.73 1706.35 705.42C1701.16 703.114 1698.85 697.053 1701.16 691.957L1701.35 691.568L1702.6 688.783L1703.85 685.896L1705.1 683.105L1706.26 680.221L1707.42 677.336L1708.56 674.45L1708.85 673.776C1710.77 668.483 1716.65 665.793 1721.93 667.811C1727.22 669.829 1729.82 675.702 1727.9 680.99L1727.51 681.857L1726.25 684.935L1725.11 687.917L1723.86 690.898L1722.6 693.975L1721.26 696.957L1719.91 699.94L1719.72 700.324ZM1678.17 772.37C1675 776.986 1668.64 778.14 1664.03 774.871C1659.41 771.697 1658.25 765.349 1661.52 760.732L1663.35 758.039L1665.27 755.344L1667.11 752.654L1668.93 749.957L1670.76 747.169L1672.5 744.473L1672.58 744.282C1675.66 739.474 1681.92 738.128 1686.73 741.11C1691.44 744.09 1692.88 750.44 1689.8 755.152L1689.62 755.538L1687.78 758.323L1685.86 761.21L1683.94 764.003L1682.02 766.889L1680.08 769.676L1678.17 772.37ZM1624.88 835.955C1620.94 839.993 1614.49 840.09 1610.45 836.242C1606.4 832.298 1606.31 825.852 1610.26 821.813L1611.21 820.853L1613.71 818.254L1616.12 815.751L1618.52 813.157L1620.83 810.654L1623.25 808.056L1623.91 807.29C1627.67 803.054 1634.11 802.767 1638.34 806.52C1642.48 810.271 1642.87 816.716 1639.11 820.853L1638.24 821.813L1635.84 824.508L1633.35 827.103L1630.85 829.701L1628.33 832.394L1625.83 834.993L1624.88 835.955ZM1563.31 891.261C1558.89 894.725 1552.54 893.955 1548.98 889.627C1545.52 885.205 1546.19 878.757 1550.62 875.296L1551.97 874.238L1554.95 871.927L1557.83 869.523L1560.72 867.215L1563.51 864.811L1566.2 862.597C1570.53 858.94 1576.97 859.516 1580.53 863.849C1584.19 868.176 1583.61 874.526 1579.28 878.181L1576.59 880.488L1573.61 882.893L1570.63 885.397L1567.64 887.798L1564.66 890.203L1563.31 891.261ZM1495.79 938.681C1491.08 941.667 1484.82 940.32 1481.75 935.511C1478.76 930.795 1480.21 924.449 1485.02 921.467L1486.07 920.794L1489.44 918.679L1492.71 916.559L1495.98 914.444L1499.25 912.328L1501.85 910.6C1506.56 907.52 1512.91 908.769 1515.99 913.384C1519.07 918.099 1517.82 924.449 1513.1 927.526L1510.5 929.354L1507.14 931.473L1503.77 933.682L1500.31 935.895L1496.94 938.009L1495.79 938.681ZM1424.03 979.085C1419.03 981.583 1412.87 979.566 1410.37 974.566C1407.77 969.56 1409.79 963.404 1414.89 960.906L1415.57 960.52L1419.22 958.691L1422.88 956.77L1426.53 954.939L1430.19 953.019L1432.69 951.667C1437.69 948.976 1443.85 950.903 1446.54 955.805C1449.14 960.809 1447.31 966.962 1442.31 969.659L1439.71 971.006L1435.96 972.929L1432.21 974.95L1428.45 976.873L1424.7 978.699L1424.03 979.085ZM1349 1012.84C1343.71 1014.97 1337.84 1012.37 1335.73 1007.17C1333.61 1001.98 1336.21 996.014 1341.4 993.897L1342.17 993.611L1346.21 991.973L1350.16 990.339L1354.2 988.701L1358.14 987.065L1359.97 986.301C1365.16 984.086 1371.13 986.492 1373.34 991.587C1375.55 996.784 1373.15 1002.75 1368.05 1004.96L1366.03 1005.82L1361.99 1007.56L1357.95 1009.19L1353.81 1010.83L1349.77 1012.56L1349 1012.84ZM1271.57 1040.36C1266.18 1042.09 1260.41 1039.1 1258.78 1033.72C1257.05 1028.33 1260.02 1022.66 1265.41 1020.93L1267.53 1020.25L1271.86 1018.91L1276.09 1017.56L1280.32 1016.21L1284.55 1014.77C1289.94 1012.94 1295.71 1015.83 1297.45 1021.12C1299.27 1026.51 1296.39 1032.28 1291.09 1034.01L1291 1034.1L1286.67 1035.55L1282.34 1036.89L1278.01 1038.34L1273.69 1039.68L1271.57 1040.36ZM1192.21 1062C1186.82 1063.35 1181.35 1059.98 1180 1054.5C1178.74 1049.01 1182.11 1043.53 1187.59 1042.18L1188.46 1041.99L1192.98 1040.94L1197.41 1039.88L1201.93 1038.72L1206.35 1037.66L1207.12 1037.47C1212.6 1036.03 1218.19 1039.3 1219.53 1044.78C1220.97 1050.17 1217.7 1055.75 1212.22 1057.19L1211.35 1057.38L1206.83 1058.54L1202.31 1059.6L1197.7 1060.75L1193.18 1061.81L1192.21 1062ZM1111.7 1078.06C1106.12 1078.93 1100.93 1075.18 1099.96 1069.6C1099.1 1064.12 1102.85 1058.82 1108.43 1057.96L1110.16 1057.67L1114.78 1056.9L1119.49 1056.03L1124.21 1055.27L1128.34 1054.5C1133.82 1053.53 1139.12 1057.19 1140.17 1062.67C1141.14 1068.26 1137.48 1073.54 1131.9 1074.5L1127.77 1075.28L1122.96 1076.14L1118.24 1076.91L1113.43 1077.78L1111.7 1078.06ZM1030.23 1088.45C1024.65 1089.03 1019.65 1084.89 1019.16 1079.32C1018.59 1073.74 1022.72 1068.73 1028.31 1068.26L1028.69 1068.16L1033.59 1067.67L1038.41 1067.19L1043.31 1066.71L1048.12 1066.14H1048.41C1053.98 1065.46 1058.99 1069.5 1059.66 1075.08C1060.33 1080.66 1056.3 1085.76 1050.72 1086.34L1050.33 1086.44L1045.43 1086.91L1040.52 1087.49L1035.61 1087.97L1030.61 1088.45H1030.23ZM948.368 1093.55C942.695 1093.65 937.982 1089.32 937.79 1083.65C937.693 1078.06 942.117 1073.35 947.695 1073.16L951.064 1073.06L955.874 1072.87L960.682 1072.78L965.491 1072.58L967.895 1072.39C973.474 1072.2 978.284 1076.52 978.574 1082.1C978.765 1087.78 974.437 1092.49 968.859 1092.78L966.356 1092.88L961.452 1093.07L956.545 1093.27L951.736 1093.45L948.368 1093.55ZM866.224 1093.07C860.547 1092.78 856.219 1088.07 856.411 1082.49C856.603 1076.81 861.316 1072.48 866.992 1072.68L870.551 1072.78L875.169 1072.97L879.882 1073.16L884.596 1073.26L887.191 1073.35C892.77 1073.44 897.195 1078.06 897.1 1083.74C897.005 1089.32 892.386 1093.84 886.711 1093.65H884.02L879.306 1093.45L874.495 1093.36L869.782 1093.17L866.224 1093.07ZM784.268 1086.82C778.69 1086.14 774.65 1081.14 775.323 1075.57C775.899 1069.98 780.902 1065.94 786.48 1066.52L787.924 1066.71L792.445 1067.19L796.966 1067.67L801.486 1068.16L806.007 1068.54L806.583 1068.64C812.164 1069.12 816.3 1074.12 815.819 1079.7C815.242 1085.28 810.337 1089.41 804.759 1088.93L804.084 1088.84L799.468 1088.36L794.849 1087.88L790.328 1087.4L785.712 1086.91L784.268 1086.82ZM702.988 1074.5C697.505 1073.44 693.85 1068.16 694.908 1062.58C695.965 1057.09 701.256 1053.44 706.74 1054.5L708.855 1054.88L713.086 1055.65L717.416 1056.42L721.744 1057.19L726.074 1057.96L726.554 1058.06C732.133 1059.02 735.885 1064.21 734.924 1069.79C734.058 1075.37 728.766 1079.03 723.283 1078.16L722.611 1078.06L718.185 1077.3L713.858 1076.52L709.433 1075.66L705.009 1074.89L702.988 1074.5ZM622.86 1055.75C617.474 1054.31 614.299 1048.63 615.839 1043.24C617.282 1037.86 622.86 1034.68 628.343 1036.13L629.594 1036.51L633.633 1037.57L637.674 1038.72L641.81 1039.78L645.85 1040.84L647.774 1041.32C653.257 1042.66 656.528 1048.25 655.18 1053.73C653.736 1059.11 648.254 1062.48 642.771 1061.04L640.753 1060.56L636.617 1059.5L632.384 1058.34L628.247 1057.29L624.113 1056.13L622.86 1055.75ZM564.282 1037.66C558.991 1035.65 556.298 1029.78 558.316 1024.58C560.241 1019.29 566.109 1016.6 571.4 1018.62L567.357 1017.08L571.109 1018.52L574.863 1019.87L578.71 1021.31L582.462 1022.66H582.557C587.848 1024.48 590.733 1030.35 588.808 1035.65C586.981 1040.94 581.209 1043.72 575.919 1041.89L575.728 1041.8L571.785 1040.46L567.938 1039.01L571.785 1040.46L567.938 1039.01L564.282 1037.66" fill="white"/>
<path fill-rule="evenodd" clip-rule="evenodd" d="M259.74 801.994L434.229 850.765L608.622 899.439L514.741 986.875L420.764 1074.31L340.252 938.104L259.74 801.994Z" fill="white"/>
<path fill-rule="evenodd" clip-rule="evenodd" d="M259.74 801.995L395.755 886.453L531.768 971.006L521.956 1021.89L497.621 1002.84L378.726 902.418L259.74 801.995" fill="#D2D3D4"/>
<path fill-rule="evenodd" clip-rule="evenodd" d="M391.424 141.463H1106.5C1116.41 141.463 1124.49 149.64 1124.49 159.536V566.429C1124.49 576.335 1116.41 584.417 1106.5 584.417H391.424C381.519 584.417 373.436 576.335 373.436 566.429V159.536C373.436 149.64 381.519 141.463 391.424 141.463" fill="white"/>
<path fill-rule="evenodd" clip-rule="evenodd" d="M389.212 141.462H1108.72C1117.37 141.462 1124.49 148.57 1124.49 157.325V206.003C1124.49 206.773 1123.92 207.348 1123.24 207.348H373.436V157.325C373.436 148.57 380.555 141.462 389.212 141.462Z" fill="#313945"/>
<path fill-rule="evenodd" clip-rule="evenodd" d="M410.565 188.109C418.164 188.109 424.322 181.666 424.322 173.677C424.322 165.702 418.164 159.244 410.565 159.244C402.968 159.244 396.715 165.702 396.715 173.677C396.715 181.666 402.968 188.109 410.565 188.109Z" fill="#F36447"/>
<path fill-rule="evenodd" clip-rule="evenodd" d="M449.14 188.109C456.739 188.109 462.895 181.666 462.895 173.677C462.895 165.702 456.739 159.244 449.14 159.244C441.539 159.244 435.288 165.702 435.288 173.677C435.288 181.666 441.539 188.109 449.14 188.109Z" fill="#81D5DC"/>
<path fill-rule="evenodd" clip-rule="evenodd" d="M487.614 188.109C495.214 188.109 501.466 181.666 501.466 173.677C501.466 165.702 495.214 159.244 487.614 159.244C480.015 159.244 473.859 165.702 473.859 173.677C473.859 181.666 480.015 188.109 487.614 188.109Z" fill="#FBDA5E"/>
<path fill-rule="evenodd" clip-rule="evenodd" d="M522.341 188.875H1103.14V161.556H522.341V188.875Z" fill="white"/>
<path d="M999.158 237.068C1023.59 237.068 1045.72 246.976 1061.68 262.945C1077.75 279.008 1087.65 301.036 1087.65 325.47C1087.65 349.9 1077.75 372.026 1061.68 387.991C1045.72 403.959 1023.59 413.867 999.158 413.867C974.822 413.867 952.698 403.959 936.731 387.991C920.666 372.026 910.758 349.9 910.758 325.47C910.758 301.036 920.666 279.008 936.731 262.945C952.698 246.976 974.822 237.068 999.158 237.068Z" fill="#BFE9E9"/>
<path d="M970.01 311.04H941.055V339.994H970.01V311.04ZM1003.77 311.04H974.914V339.994H1003.77V311.04ZM970.01 277.179H941.055V306.134H970.01V277.179ZM1003.77 277.179H974.914V306.134H1003.77V277.179ZM974.914 373.756H1003.77V344.897H974.914V373.756ZM941.055 373.756H970.01V344.897H941.055V373.756ZM907.197 344.897V373.756H936.15V344.897H907.197ZM907.197 311.04V339.994H936.15V311.04H907.197ZM907.197 277.179V306.134H936.15V277.179H907.197ZM941.055 243.226V272.276H970.01V243.226C965.296 242.456 960.389 241.975 955.485 241.975C950.58 241.975 945.769 242.456 941.055 243.226ZM907.197 257.365V272.276H936.15V244.282C925.569 246.784 915.758 251.305 907.197 257.365V257.365ZM891.133 272.276H902.291V261.117C900.271 262.848 898.348 264.58 896.424 266.408C894.597 268.33 892.865 270.255 891.133 272.276V272.276ZM874.299 306.134H902.291V277.179H887.383C881.321 285.742 876.802 295.552 874.299 306.134ZM873.242 339.994H902.291V311.04H873.242C872.472 315.753 871.991 320.562 871.991 325.47C871.991 330.373 872.472 335.28 873.242 339.994ZM887.383 373.756H902.291V344.897H874.299C876.802 355.383 881.321 365.195 887.383 373.756ZM902.291 389.82V378.661H891.133C892.865 380.681 894.597 382.703 896.424 384.528C898.348 386.357 900.271 388.185 902.291 389.82ZM936.15 406.748V378.661H907.197V393.572C915.758 399.726 925.569 404.248 936.15 406.748ZM970.01 407.71V378.661H941.055V407.71C945.769 408.577 950.58 408.961 955.485 408.961C960.389 408.961 965.296 408.577 970.01 407.71ZM1003.77 393.572V378.661H974.914V406.748C985.4 404.248 995.211 399.726 1003.77 393.572ZM1019.84 378.661H1008.68V389.82C1010.7 388.185 1012.72 386.357 1014.54 384.528C1016.37 382.703 1018.2 380.681 1019.84 378.661ZM1036.76 344.897H1008.68V373.756H1023.59C1029.74 365.195 1034.26 355.383 1036.76 344.897ZM1037.73 311.04H1008.68V339.994H1037.73C1038.59 335.28 1038.98 330.373 1038.98 325.47C1038.98 320.562 1038.59 315.753 1037.73 311.04ZM1023.59 277.179H1008.68V306.134H1036.76C1034.26 295.552 1029.74 285.742 1023.59 277.179ZM1008.68 261.117V272.276H1019.84C1018.2 270.255 1016.37 268.33 1014.54 266.408C1012.72 264.58 1010.7 262.848 1008.68 261.117V261.117ZM974.914 244.282V272.276H1003.77V257.365C995.211 251.305 985.4 246.784 974.914 244.282V244.282ZM955.485 237.068C979.916 237.068 1002.04 246.976 1018.01 262.945C1033.98 279.008 1043.88 301.036 1043.88 325.47C1043.88 349.9 1033.98 372.026 1018.01 387.991C1002.04 403.959 979.916 413.867 955.485 413.867C931.05 413.867 909.026 403.959 892.961 387.991C876.994 372.026 867.086 349.9 867.086 325.47C867.086 301.036 876.994 279.008 892.961 262.945C909.026 246.976 931.05 237.068 955.485 237.068Z" fill="#014898"/>
<path fill-rule="evenodd" clip-rule="evenodd" d="M431.248 456.191H818.991V444.937H431.248V456.191Z" fill="#7A7C81"/>
<path fill-rule="evenodd" clip-rule="evenodd" d="M678.362 487.262H818.993V475.911H678.362V487.262" fill="#7A7C81"/>
<path fill-rule="evenodd" clip-rule="evenodd" d="M672.396 518.234H818.991V506.98H672.396V518.234Z" fill="#7A7C81"/>
<path fill-rule="evenodd" clip-rule="evenodd" d="M431.248 549.305H818.991V537.955H431.248V549.305Z" fill="#7A7C81"/>
<path fill-rule="evenodd" clip-rule="evenodd" d="M431.248 487.262H649.504V475.911H431.248V487.262Z" fill="#7A7C81"/>
<path fill-rule="evenodd" clip-rule="evenodd" d="M431.248 518.234H504.448V506.98H431.248V518.234Z" fill="#7A7C81"/>
<path fill-rule="evenodd" clip-rule="evenodd" d="M536.768 518.234H639.597V506.98H536.768V518.234Z" fill="#7A7C81"/>
<path fill-rule="evenodd" clip-rule="evenodd" d="M925.999 543.873H1429.36V439.122H925.999V543.873" fill="#FCC530"/>
<path fill-rule="evenodd" clip-rule="evenodd" d="M1372.23 469.423C1365.21 472.98 1362.41 481.639 1365.98 488.562C1369.63 495.584 1378.19 498.375 1385.22 494.815C1392.14 491.255 1395.02 482.696 1391.37 475.673C1387.81 468.652 1379.25 465.863 1372.23 469.423V469.423ZM1368.67 462.399C1357.7 467.883 1353.38 481.252 1358.95 492.218C1363.86 501.933 1374.92 506.454 1385.02 503.473L1396.09 525.309L1403.39 521.652L1392.24 499.721C1400.6 493.372 1403.39 481.83 1398.49 472.114C1392.91 461.149 1379.54 456.819 1368.67 462.399" fill="white"/>
<path fill-rule="evenodd" clip-rule="evenodd" d="M1251.12 519.345C1253.34 519.345 1254.68 518.286 1254.68 515.785C1254.68 513.283 1253.34 512.13 1251.12 512.13C1248.91 512.13 1247.56 513.283 1247.56 515.785C1247.56 518.286 1248.91 519.345 1251.12 519.345ZM1230.54 519.345C1232.75 519.345 1234.1 518.286 1234.1 515.785C1234.1 513.283 1232.75 512.13 1230.54 512.13C1228.42 512.13 1227.08 513.283 1227.08 515.785C1227.08 518.286 1228.42 519.345 1230.54 519.345ZM1210.05 519.345C1212.26 519.345 1213.61 518.286 1213.61 515.785C1213.61 513.283 1212.26 512.13 1210.05 512.13C1207.93 512.13 1206.59 513.283 1206.59 515.785C1206.59 518.286 1207.93 519.345 1210.05 519.345ZM1169.65 488.082C1173.59 488.082 1175.8 489.238 1177.92 491.256C1178.5 491.834 1179.08 491.929 1179.46 491.929C1180.71 491.929 1181.67 490.873 1181.67 489.717C1181.67 489.045 1181.39 488.563 1181.1 488.275C1178.79 485.198 1174.75 483.466 1169.65 483.466C1163.21 483.466 1158.11 486.351 1158.11 492.604C1158.11 505.014 1177.92 501.838 1177.92 509.63C1177.92 513.572 1174.27 515.015 1169.94 515.015C1165.7 515.015 1162.72 513.669 1160.32 511.36C1159.74 510.687 1159.17 510.593 1158.68 510.593C1157.43 510.593 1156.47 511.552 1156.47 512.804C1156.47 513.283 1156.66 513.669 1157.05 514.247C1158.97 516.651 1163.78 519.634 1169.94 519.634C1177.15 519.634 1182.83 516.555 1182.83 509.63C1182.83 497.605 1162.92 500.492 1162.92 492.604C1162.92 489.141 1166.28 488.082 1169.65 488.082V488.082ZM1146.66 476.732C1148.49 476.732 1149.54 475.673 1149.54 473.847C1149.54 471.634 1148.49 470.768 1146.66 470.768C1144.83 470.768 1143.77 471.634 1143.77 473.847C1143.77 475.673 1144.83 476.732 1146.66 476.732ZM1149.07 486.254C1149.07 484.908 1148.01 483.852 1146.66 483.852C1145.31 483.852 1144.25 484.908 1144.25 486.254V516.938C1144.25 518.286 1145.31 519.345 1146.66 519.345C1148.01 519.345 1149.07 518.286 1149.07 516.938V486.254ZM1107.13 484.427H1104.14C1102.89 484.427 1101.93 485.39 1101.93 486.64C1101.93 487.986 1102.89 488.949 1104.14 488.949H1107.13V509.82C1107.13 515.304 1110.4 519.345 1116.36 519.345C1117.61 519.345 1118.67 518.382 1118.67 517.035C1118.67 515.785 1117.61 514.823 1116.36 514.823C1113.76 514.823 1111.94 513.093 1111.94 509.82V488.949H1116.84C1118.19 488.949 1119.15 487.986 1119.15 486.64C1119.15 485.39 1118.19 484.427 1116.84 484.427H1111.94V476.445C1111.94 475.192 1110.88 474.038 1109.53 474.038C1108.28 474.038 1107.13 475.192 1107.13 476.445V484.427ZM1081.15 515.304C1075.19 515.304 1072.5 512.804 1072.5 508.956C1072.5 504.531 1075.87 502.51 1080.87 502.51H1091.45V505.686C1091.45 512.13 1086.44 515.304 1081.15 515.304ZM1082.6 487.89C1088.08 487.89 1091.45 491.065 1091.45 496.259V498.28H1080.87C1072.69 498.28 1067.59 502.223 1067.59 508.956C1067.59 515.882 1072.69 519.729 1080.68 519.729C1085.2 519.729 1089.62 517.805 1091.45 514.247V517.035C1091.45 518.286 1092.5 519.345 1093.85 519.345C1095.1 519.345 1096.16 518.286 1096.16 517.035V496.259C1096.16 488.466 1091.35 483.368 1082.6 483.368C1076.25 483.368 1072.11 485.965 1070 489.333C1069.8 489.717 1069.61 490.103 1069.61 490.585C1069.61 491.834 1070.57 492.796 1071.82 492.796C1072.5 492.796 1073.07 492.604 1073.75 491.737C1076.15 489.141 1078.56 487.89 1082.6 487.89ZM1046.91 483.368C1042.01 483.368 1038.35 485.775 1036.91 488.661V467.307C1036.91 465.959 1035.85 464.9 1034.5 464.9C1033.16 464.9 1032.1 465.959 1032.1 467.307V516.938C1032.1 518.286 1033.16 519.345 1034.5 519.345C1035.85 519.345 1036.91 518.286 1036.91 516.938V498.28C1036.91 492.218 1039.51 487.698 1046.91 487.698C1054.32 487.698 1056.05 491.737 1056.05 497.701V516.938C1056.05 518.286 1057.11 519.345 1058.45 519.345C1059.8 519.345 1060.86 518.286 1060.86 516.938V496.74C1060.86 490.294 1058.55 483.368 1046.91 483.368V483.368ZM1007.09 517.422C1007.38 518.575 1008.43 519.345 1009.59 519.345C1010.74 519.345 1011.8 518.575 1012.09 517.422L1025.46 470.768C1025.56 470.479 1025.65 470.095 1025.65 469.806C1025.65 468.363 1024.5 467.21 1023.06 467.21C1021.61 467.21 1020.75 468.268 1020.55 469.134L1009.49 508.186L998.719 469.134C998.433 467.98 997.371 467.21 996.218 467.21C995.064 467.21 994.006 467.98 993.717 469.134L982.944 508.186L971.882 469.134C971.69 468.268 970.825 467.21 969.383 467.21C967.939 467.21 966.785 468.363 966.785 469.806C966.785 470.095 966.88 470.479 966.976 470.768L980.347 517.422C980.635 518.575 981.693 519.345 982.847 519.345C984.1 519.345 985.061 518.575 985.35 517.422L996.218 478.944L1007.09 517.422" fill="white"/>
<path fill-rule="evenodd" clip-rule="evenodd" d="M431.248 417.14H818.991V240.725H431.248V417.14Z" fill="#014898"/>
<path fill-rule="evenodd" clip-rule="evenodd" d="M682.115 296.614V353.652H690.291V296.614H682.115ZM667.493 353.652H675.862L656.72 322.584L675.188 296.614H666.917L647.487 324.122V296.614H639.31V353.652H647.487V334.511L651.718 328.838L667.493 353.652ZM622.764 296.614V353.652H630.941V296.614H622.764ZM588.426 314.889L595.447 353.652H606.22L616.225 296.614H609.108L600.834 345.189L592.753 296.709H584.674L576.594 345.189L567.938 296.614H560.049L570.053 353.652H581.209L588.426 314.889" fill="white"/>
</svg>
