<?xml version="1.0" encoding="UTF-8" standalone="no"?><!DOCTYPE svg PUBLIC "-//W3C//DTD SVG 1.1//EN" "http://www.w3.org/Graphics/SVG/1.1/DTD/svg11.dtd"><svg width="100%" height="100%" viewBox="0 0 256 256" version="1.1" xmlns="http://www.w3.org/2000/svg" xmlns:xlink="http://www.w3.org/1999/xlink" xml:space="preserve" xmlns:serif="http://www.serif.com/" style="fill-rule:evenodd;clip-rule:evenodd;stroke-linejoin:round;stroke-miterlimit:2;"><g><path d="M183.621,234.868l-121.118,0c-0.702,0.005 -1.355,-0.369 -1.707,-0.977l-30.834,-53.447l-14.674,-25.407l-11.762,-20.351l-3.258,-5.632c-0.17,-0.292 -0.259,-0.617 -0.266,-0.944c-0.015,-0.365 0.07,-0.733 0.256,-1.061l29.724,-51.494l30.835,-53.446c0.351,-0.608 1.003,-0.982 1.706,-0.977l121.098,0c0.722,0.012 1.387,0.403 1.747,1.028l29.684,51.443c0.351,0.608 1.004,0.981 1.706,0.976l36.981,0l0.041,0c1.218,0 2.22,1.002 2.22,2.22c0,0.003 0,0.007 0,0.01l0,102.495c0,1.217 -1.002,2.219 -2.22,2.22l-37.002,0c-0.702,-0.005 -1.355,0.368 -1.706,0.976l-29.724,51.391c-0.37,0.599 -1.022,0.968 -1.727,0.977Zm-20.464,-35.707c0.606,0 1.169,-0.311 1.49,-0.822l40.147,-69.532c0.162,-0.27 0.247,-0.579 0.247,-0.894c0.004,-0.315 -0.078,-0.624 -0.237,-0.895l-10.498,-18.17l-0.002,0.004l-29.677,-51.335c-0.322,-0.512 -0.886,-0.823 -1.491,-0.822l-18.5,0c-0.294,0.004 -0.582,0.076 -0.843,0.209l-0.051,0.027c-0.253,0.139 -0.47,0.332 -0.638,0.566l-9.25,16.085c-0.324,0.548 -0.324,1.231 0,1.778l29.807,51.669c0.16,0.267 0.245,0.572 0.246,0.884l0.031,0c0,0.315 -0.085,0.624 -0.247,0.894l-29.806,51.72c-0.271,0.518 -0.271,1.137 0,1.655l9.25,16.105l0,0.052c0.145,0.226 0.337,0.419 0.561,0.567l0.046,0.029c0.274,0.151 0.601,0.222 0.914,0.226l18.501,0Zm-60.779,-0.255c0.224,-0.148 0.415,-0.341 0.561,-0.567l0,-0.052l9.25,-16.105c0.271,-0.518 0.271,-1.137 0,-1.655l-29.807,-51.72c-0.161,-0.27 -0.247,-0.579 -0.246,-0.894l0.031,0c0.001,-0.312 0.086,-0.617 0.246,-0.884l29.807,-51.669c0.324,-0.547 0.324,-1.23 0,-1.778l-9.25,-16.085c-0.168,-0.234 -0.386,-0.427 -0.638,-0.566l-0.051,-0.027c-0.261,-0.133 -0.549,-0.205 -0.843,-0.209l-18.501,0c-0.604,-0.001 -1.168,0.31 -1.49,0.822l-29.677,51.335l-0.002,-0.004l-10.498,18.17c-0.159,0.271 -0.241,0.58 -0.237,0.895c0,0.315 0.085,0.624 0.247,0.894l40.147,69.532c0.321,0.511 0.885,0.823 1.49,0.822l18.501,0c0.313,-0.004 0.64,-0.075 0.914,-0.226l0.046,-0.029Z" style="fill:#4d4d4d;fill-rule:nonzero;"/></g></svg>