<?xml version="1.0" encoding="UTF-8" standalone="no"?><!DOCTYPE svg PUBLIC "-//W3C//DTD SVG 1.1//EN" "http://www.w3.org/Graphics/SVG/1.1/DTD/svg11.dtd"><svg width="100%" height="100%" viewBox="0 0 2500 2305" version="1.1" xmlns="http://www.w3.org/2000/svg" xmlns:xlink="http://www.w3.org/1999/xlink" xml:space="preserve" xmlns:serif="http://www.serif.com/" style="fill-rule:evenodd;clip-rule:evenodd;stroke-linejoin:round;stroke-miterlimit:1.41421;"><path d="M1250.72,2305.57l-1209.86,-879.014c-33.288,-24.189 -47.306,-67.341 -34.589,-106.475l139.78,-430.219l-0.005,-0.005l0.01,-0.01l-0.005,0.015l1104.67,1415.7l-0.006,-0.017l-1104.65,-1415.68l-0.007,0l0.002,-0.007l-0.002,-0.003l0.003,0l277.047,-852.676c14.249,-43.867 76.319,-43.877 90.577,0l277.037,852.676l0.004,0l0.003,0.01l920.003,0l0.003,-0.01l0.004,0l277.047,-852.676c14.258,-43.877 76.328,-43.867 90.576,0l277.048,852.676l0.003,0l-0.002,0.003l0.002,0.007l-0.007,0l-1104.66,1415.68l-0.013,0.038l1104.68,-1415.72l0,-0.01l139.785,430.234c12.715,39.136 -1.308,82.289 -34.599,106.475l-1209.86,879.023l-0.009,0l-0.003,-0.009Z" style="fill:#fff;fill-rule:nonzero;"/></svg>