<?xml version="1.0" encoding="UTF-8" standalone="no"?>
<svg width="210px" height="194px" viewBox="0 0 210 194" version="1.1" xmlns="http://www.w3.org/2000/svg" xmlns:xlink="http://www.w3.org/1999/xlink" xmlns:sketch="http://www.bohemiancoding.com/sketch/ns">
    <!-- Generator: Sketch 3.3.2 (12043) - http://www.bohemiancoding.com/sketch -->
    <title>Group</title>
    <desc>Created with Sketch.</desc>
    <defs></defs>
    <g id="Page-1" stroke="none" stroke-width="1" fill="none" fill-rule="evenodd" sketch:type="MSPage">
        <g id="Fill-1-+-Group-24" sketch:type="MSLayerGroup">
            <g id="Group-24" sketch:type="MSShapeGroup">
                <g id="Group">
                    <path d="M105.0614,193.655 L105.0614,193.655 L143.7014,74.734 L66.4214,74.734 L105.0614,193.655 L105.0614,193.655 Z" id="Fill-4" fill="#E24329"></path>
                    <path id="Fill-6" fill="#FC6D26"></path>
                    <path d="M105.0614,193.6548 L66.4214,74.7338 L12.2684,74.7338 L105.0614,193.6548 Z" id="Fill-8" fill="#FC6D26"></path>
                    <path id="Fill-10" fill="#FC6D26"></path>
                    <path d="M12.2685,74.7341 L12.2685,74.7341 L0.5265,110.8731 C-0.5445,114.1691 0.6285,117.7801 3.4325,119.8171 L105.0615,193.6551 L12.2685,74.7341 Z" id="Fill-12" fill="#FCA326"></path>
                    <path id="Fill-14" fill="#FC6D26"></path>
                    <path d="M12.2685,74.7342 L66.4215,74.7342 L43.1485,3.1092 C41.9515,-0.5768 36.7375,-0.5758 35.5405,3.1092 L12.2685,74.7342 Z" id="Fill-16" fill="#E24329"></path>
                    <path d="M105.0614,193.6548 L143.7014,74.7338 L197.8544,74.7338 L105.0614,193.6548 Z" id="Fill-18" fill="#FC6D26"></path>
                    <path d="M197.8544,74.7341 L197.8544,74.7341 L209.5964,110.8731 C210.6674,114.1691 209.4944,117.7801 206.6904,119.8171 L105.0614,193.6551 L197.8544,74.7341 Z" id="Fill-20" fill="#FCA326"></path>
                    <path d="M197.8544,74.7342 L143.7014,74.7342 L166.9744,3.1092 C168.1714,-0.5768 173.3854,-0.5758 174.5824,3.1092 L197.8544,74.7342 Z" id="Fill-22" fill="#E24329"></path>
                </g>
            </g>
        </g>
    </g>
</svg>