<svg version="1.1" xmlns="http://www.w3.org/2000/svg" xmlns:xlink="http://www.w3.org/1999/xlink" x="0px" y="0px"
	 width="48px" height="48px" viewBox="0 0 48 48" enable-background="new 0 0 48 48" xml:space="preserve">
<path fill="#458BC4" d="M44.804,30.404l-20-27C24.615,3.15,24.308,3.023,24,3.023V46c0.2,0,0.401-0.061,0.573-0.181l20-14
	c0.222-0.155,0.37-0.393,0.414-0.659C45.03,30.895,44.964,30.622,44.804,30.404z"/>
<path fill="#43A6DD" d="M23.196,3.405l-20,27c-0.16,0.218-0.227,0.49-0.184,0.756c0.044,0.267,0.192,0.504,0.414,0.659l20,14
	C23.599,45.939,23.8,46,24,46V3.023C23.692,3.023,23.385,3.15,23.196,3.405z"/>
</svg>
