<svg width="100%" height="100%" viewBox="0 0 159 158" version="1.1" xmlns="http://www.w3.org/2000/svg" xmlns:xlink="http://www.w3.org/1999/xlink" xml:space="preserve" style="fill-rule:evenodd;clip-rule:evenodd;stroke-linejoin:round;stroke-miterlimit:1.41421;">
  <path fill="#51b5d7" d="M87.477,3.864c-4.583,-4.583 -12.024,-4.583 -16.608,0l-66.432,66.432c-4.583,4.583 -4.583,12.025 0,16.608l67.352,67.352c4.583,4.583 12.025,4.583 16.608,0l66.432,-66.432c4.583,-4.583 4.583,-12.025 0,-16.608l-67.352,-67.352Zm-14.477,44.282c-3.497,-2.176 -5.826,-6.054 -5.826,-10.472c0,-6.803 5.523,-12.326 12.326,-12.326c6.803,0 12.326,5.523 12.326,12.326c0,4.418 -2.329,8.296 -5.826,10.472l0,61.157c0.415,0.214 0.818,0.447 1.208,0.699l24.89,-24.89c-0.909,-1.718 -1.424,-3.676 -1.424,-5.753c0,-6.803 5.523,-12.326 12.326,-12.326c6.803,0 12.326,5.523 12.326,12.326c0,6.803 -5.523,12.326 -12.326,12.326c-1.493,0 -2.924,-0.266 -4.249,-0.753l-25.952,25.951c0.606,1.58 0.938,3.295 0.938,5.088c0,7.857 -6.38,14.236 -14.237,14.236c-7.857,0 -14.237,-6.379 -14.237,-14.236c0,-1.804 0.337,-3.531 0.95,-5.119l-26.466,-26.466c-1.182,0.377 -2.441,0.581 -3.747,0.581c-6.803,0 -12.326,-5.523 -12.326,-12.326c0,-6.803 5.523,-12.326 12.326,-12.326c6.803,0 12.326,5.523 12.326,12.326c0,2.254 -0.606,4.368 -1.665,6.187l25.157,25.157c0.382,-0.245 0.776,-0.473 1.182,-0.682l0,-61.157Z" />
  <path fill="#97cbe1" d="M91.745,39.094l28.297,28.297c-4.527,1.116 -8.072,4.737 -9.079,9.306l-24.963,-24.963l0,-3.588c3.116,-1.939 5.306,-5.231 5.745,-9.052Zm-24.49,0c0.439,3.821 2.629,7.113 5.745,9.052l0,3.588l-24.846,24.846c-0.785,-4.655 -4.183,-8.427 -8.632,-9.753l27.733,-27.733Z" />
  <circle fill="#97cbe1" cx="35.84" cy="78.701" r="6.701" />
  <circle fill="#97cbe1" cx="123.16" cy="79.778" r="6.701" />
  <circle fill="#97cbe1" cx="79.299" cy="37.243" r="6.701" />
  <circle fill="#97cbe1" cx="79.633" cy="122.201" r="8.201" />
</svg>
