<?xml version="1.0" encoding="UTF-8" standalone="no"?><!DOCTYPE svg PUBLIC "-//W3C//DTD SVG 1.1//EN" "http://www.w3.org/Graphics/SVG/1.1/DTD/svg11.dtd"><svg width="100%" height="100%" viewBox="0 0 71 74" version="1.1" xmlns="http://www.w3.org/2000/svg" xmlns:xlink="http://www.w3.org/1999/xlink" xml:space="preserve" xmlns:serif="http://www.serif.com/" style="fill-rule:evenodd;clip-rule:evenodd;stroke-linejoin:round;stroke-miterlimit:2;"><path id="path0" d="M17.853,0.124c-0.103,0.067 -1.003,0.38 -1.999,0.696c-10.672,3.376 -16.206,11.122 -15.837,22.164c0.321,9.583 4.693,16.927 11.683,19.623c2.1,0.809 0.956,0.764 19.409,0.766c14.486,0.002 16.916,0.028 17.532,0.188c2.81,0.732 4.406,2.841 4.707,6.22c0.441,4.964 -1.581,8.399 -5.726,9.727l-1.171,0.375l-17.33,0.124c-9.532,0.067 -19.177,0.136 -21.435,0.152l-4.105,0.028l-0.239,0.295c-0.228,0.282 -0.238,0.579 -0.238,6.532l0,6.236l26.374,0c17.135,0 26.375,-0.043 26.375,-0.123c0,-0.067 0.24,-0.242 0.531,-0.39c8.882,-4.471 13.65,-12.414 13.648,-22.737c-0.001,-9.581 -4.31,-16.351 -12.241,-19.233l-1.25,-0.453l-17.688,-0.063c-16.589,-0.06 -17.722,-0.077 -18.246,-0.286c-2.673,-1.067 -4.032,-3.356 -4.21,-7.09c-0.223,-4.676 1.706,-7.536 6.183,-9.166l1.086,-0.396l21,-0.032l21,-0.031l0.219,-0.264c0.329,-0.397 0.336,-11.475 0.007,-12.392l-0.213,-0.594l-23.819,0.002c-15.145,0.001 -23.888,0.046 -24.007,0.123" style="fill:#d0021b;"/></svg>