<?xml version="1.0" encoding="UTF-8" standalone="no"?>
<!DOCTYPE svg PUBLIC "-//W3C//DTD SVG 1.1//EN" "http://www.w3.org/Graphics/SVG/1.1/DTD/svg11.dtd">
<svg width="100%" height="100%" viewBox="0 0 60 74" version="1.1" xmlns="http://www.w3.org/2000/svg" xmlns:xlink="http://www.w3.org/1999/xlink" xml:space="preserve" xmlns:serif="http://www.serif.com/" style="fill-rule:evenodd;clip-rule:evenodd;stroke-linejoin:round;stroke-miterlimit:1.41421;">
    <path d="M21.292,54.324c0.332,0.67 0.402,0.971 0.786,1.564c2.846,4.39 6.612,6.586 11.297,6.586c3.749,0 6.942,-1.476 9.58,-4.426c2.637,-2.95 4.13,-6.473 4.477,-10.568l11.87,1.301c-0.764,7.115 -3.514,12.972 -8.252,17.571c-4.737,4.599 -10.959,6.898 -18.664,6.898c-6.49,0 -11.757,-1.631 -15.8,-4.894c-2.868,-2.313 -5.268,-5.211 -7.201,-8.694c3.018,-1.229 7.139,-2.71 11.907,-5.338Zm-14.486,-0.403c-1.897,-5.277 -2.845,-11.051 -2.845,-17.322c0,-10.829 2.568,-19.636 7.705,-26.421c5.137,-6.785 12.199,-10.178 21.189,-10.178c7.045,0 12.911,2.169 17.596,6.508c4.686,4.338 7.636,10.551 8.851,18.638l-10.262,3.552c-2.187,-10.725 -8.619,-18.39 -16.081,-18.39c-4.79,0 -8.512,2.23 -11.167,6.69c-2.655,4.46 -3.983,10.924 -3.983,19.393c0,3.518 0.114,6.087 0.59,8.9c-5.15,2.938 -8.825,6.276 -11.593,8.63Z" style="fill:#fff;fill-rule:nonzero;"/>
    <path d="M0,61.855c0,-0.579 14.243,-12.318 30.088,-21.125c13.64,-7.581 29.214,-12.496 29.214,-11.997c0,0.474 -11.713,8.753 -24.578,15.996c-16.362,9.21 -34.724,17.729 -34.724,17.126Z" style="fill:#fff;"/>
</svg>
