<?xml version="1.0" encoding="UTF-8" standalone="no"?>
<svg
   width="32"
   height="26"
   viewBox="0 0 32 26"
   fill="none"
   version="1.1"
   id="svg10"
   sodipodi:docname="Idigital-isotipo-blue.svg"
   inkscape:version="1.2.1 (9c6d41e410, 2022-07-14, custom)"
   xmlns:inkscape="http://www.inkscape.org/namespaces/inkscape"
   xmlns:sodipodi="http://sodipodi.sourceforge.net/DTD/sodipodi-0.dtd"
   xmlns="http://www.w3.org/2000/svg"
   xmlns:svg="http://www.w3.org/2000/svg">
  <defs
     id="defs14" />
  <sodipodi:namedview
     id="namedview12"
     pagecolor="#ffffff"
     bordercolor="#666666"
     borderopacity="1.0"
     inkscape:showpageshadow="2"
     inkscape:pageopacity="0.0"
     inkscape:pagecheckerboard="0"
     inkscape:deskcolor="#d1d1d1"
     showgrid="false"
     inkscape:zoom="4.0336539"
     inkscape:cx="0.99165673"
     inkscape:cy="27.146603"
     inkscape:window-width="1920"
     inkscape:window-height="1020"
     inkscape:window-x="0"
     inkscape:window-y="32"
     inkscape:window-maximized="1"
     inkscape:current-layer="svg10" />
  <path
     d="M0 3C0 1.34315 1.34314 0 3 0H4.13854C5.7954 0 7.13854 1.34315 7.13854 3V11.0609C7.13854 11.062 7.13771 11.0628 7.13667 11.0628C7.13564 11.0628 7.1348 11.0637 7.1348 11.0647V12.398C7.1348 13.1354 6.53703 13.7332 5.79963 13.7332H3C1.34315 13.7332 0 12.39 0 10.7332V3Z"
     fill="#F8F8F8"
     id="path2"
     style="fill:#0159c0;fill-opacity:1" />
  <path
     d="M0 22.8368C0 21.1799 1.34315 19.8368 3 19.8368H4.24805C5.90491 19.8368 7.24805 21.1799 7.24805 22.8368V22.9404C7.24805 24.5972 5.9049 25.9404 4.24805 25.9404H3C1.34315 25.9404 0 24.5972 0 22.9404V22.8368Z"
     fill="#F8F8F8"
     id="path4"
     style="fill:#0159c0;fill-opacity:1" />
  <path
     d="M19.5063 8.5833C19.6531 8.329 20.0204 8.329 20.1672 8.5833L22.81 13.161C22.9568 13.4153 22.7735 13.7332 22.4795 13.7332H21.0982C20.9495 15.1244 20.571 16.2876 19.7179 17.1247C18.6599 18.1628 17.1631 18.4012 15.6592 18.4989L15.6159 18.5017H0.762953C0.341615 18.5017 0 18.1601 0 17.7387V16.5943C0 16.1729 0.341615 15.8314 0.762953 15.8314H15.5288C16.9854 15.7332 17.5542 15.5068 17.8478 15.2186C18.0564 15.0138 18.2799 14.6214 18.407 13.7332H17.194C16.9001 13.7332 16.7168 13.4153 16.8636 13.161L19.5063 8.5833Z"
     fill="#FCC530"
     id="path6" />
  <path
     d="M11.7739 26C10.1171 26 8.77393 24.6569 8.77393 23V22.769C8.77393 21.1122 10.1171 19.769 11.7739 19.769H15.9047C15.9069 19.769 15.9087 19.7708 15.9087 19.7731C15.9087 19.7753 15.9106 19.7772 15.9128 19.7772H18.7698C20.5937 19.7772 22.0243 19.1453 23.0614 17.8817C24.1105 16.6181 24.635 14.9789 24.635 12.9642C24.635 10.9257 24.1105 9.29253 23.0614 8.06465C22.0124 6.83677 20.5818 6.22283 18.7698 6.22283C17.1897 6.22283 15.9087 7.50378 15.9087 9.08391V10.7331C15.9087 12.39 14.5656 13.7331 12.9087 13.7331H11.7739C10.1171 13.7331 8.77393 12.39 8.77393 10.7331V3C8.77393 1.34315 10.1171 0 11.7739 0H18.7698C20.8679 0 22.7574 0.339752 24.4383 1.01926C26.1311 1.68684 27.508 2.61669 28.569 3.8088C29.6419 4.989 30.4585 6.35993 31.0188 7.9216C31.591 9.47134 31.8771 11.1522 31.8771 12.9642C31.8771 16.8982 30.679 20.0573 28.2829 22.4415C25.8986 24.8138 22.7276 26 18.7698 26H11.7739Z"
     fill="#F8F8F8"
     id="path8"
     style="fill:#0159c0;fill-opacity:1" />
</svg>
