<svg width="32" height="32" viewBox="0 0 32 32" fill="none" xmlns="http://www.w3.org/2000/svg">
<path d="M8 23.9999C8.08487 24 8.17235 24 8.26255 24H16M8 23.9999C6.68231 23.9989 5.99112 23.9824 5.45573 23.7096C4.95396 23.454 4.54631 23.045 4.29065 22.5432C4 21.9728 4 21.2271 4 19.7336V12.2669C4 10.7735 4 10.0262 4.29065 9.45573C4.54631 8.95396 4.95396 8.54631 5.45573 8.29065C6.02616 8 6.77345 8 8.26693 8H23.7336C25.2271 8 25.9728 8 26.5432 8.29065C27.045 8.54631 27.454 8.95396 27.7096 9.45573C28 10.0256 28 10.772 28 12.2625V19.7375C28 21.228 28 21.9733 27.7096 22.5432C27.454 23.045 27.045 23.454 26.5432 23.7096C25.9733 24 25.228 24 23.7375 24H16M8 23.9999C8.00005 22.5272 9.79089 21.3333 12 21.3333C14.2091 21.3333 16 22.5272 16 24M8 23.9999C8 24 8 23.9999 8 23.9999ZM24 18.6667H18.6667M24 14.6667H20M12 17.3333C10.5272 17.3333 9.33333 16.1394 9.33333 14.6667C9.33333 13.1939 10.5272 12 12 12C13.4728 12 14.6667 13.1939 14.6667 14.6667C14.6667 16.1394 13.4728 17.3333 12 17.3333Z" stroke="#171A22" stroke-width="1.8" stroke-linecap="round" stroke-linejoin="round"/>
</svg>
