<?xml version="1.0" encoding="UTF-8"?>
<svg xmlns="http://www.w3.org/2000/svg" xmlns:xlink="http://www.w3.org/1999/xlink" width="80pt" height="80pt" viewBox="0 0 80 80" version="1.1">
<g id="surface1">
<path style=" stroke:none;fill-rule:nonzero;fill:#98CCFD;fill-opacity:1;" d="M 6 67 C 4.347656 67 3 65.652344 3 64 L 3 16 C 3 14.347656 4.347656 13 6 13 L 74 13 C 75.652344 13 77 14.347656 77 16 L 77 64 C 77 65.652344 75.652344 67 74 67 Z "/>
<path style=" stroke:none;fill-rule:nonzero;fill:#4788C7;fill-opacity:1;" d="M 74 14 C 75.101563 14 76 14.898438 76 16 L 76 64 C 76 65.101563 75.101563 66 74 66 L 6 66 C 4.898438 66 4 65.101563 4 64 L 4 16 C 4 14.898438 4.898438 14 6 14 L 74 14 M 74 12 L 6 12 C 3.789063 12 2 13.789063 2 16 L 2 64 C 2 66.210938 3.789063 68 6 68 L 74 68 C 76.210938 68 78 66.210938 78 64 L 78 16 C 78 13.789063 76.210938 12 74 12 Z "/>
<path style=" stroke:none;fill-rule:nonzero;fill:#FFFFFF;fill-opacity:1;" d="M 38 30.382813 C 39.09375 30.148438 40.570313 30 42.046875 30 C 44.355469 30 46.3125 30.324219 47.585938 31.535156 C 48.765625 32.570313 49.296875 34.222656 49.296875 35.90625 C 49.296875 38.066406 48.648438 39.601563 47.617188 40.695313 C 46.375 42.023438 44.394531 42.613281 42.769531 42.613281 C 42.507813 42.613281 42.269531 42.613281 42.003906 42.585938 L 42.003906 50 L 38.003906 50 L 38.003906 30.382813 Z M 42 39.453125 C 42.207031 39.484375 42.414063 39.484375 42.648438 39.484375 C 44.601563 39.484375 45.457031 38.09375 45.457031 36.234375 C 45.457031 34.488281 44.746094 33.132813 42.945313 33.132813 C 42.59375 33.132813 42.238281 33.191406 42 33.28125 Z "/>
<path style=" stroke:none;fill-rule:nonzero;fill:#FFFFFF;fill-opacity:1;" d="M 52 30 L 56 30 L 56 50 L 52 50 Z "/>
<path style=" stroke:none;fill-rule:nonzero;fill:#FFFFFF;fill-opacity:1;" d="M 31.902344 50 L 36 50 L 31.773438 30 L 26.710938 30 L 22 50 L 26.097656 50 L 26.96875 46 L 31.0625 46 Z M 29.0625 33.679688 L 29.160156 33.679688 C 29.355469 34.984375 29.644531 37.003906 29.871094 38.21875 L 30.511719 42 L 27.5625 42 L 28.292969 38.21875 C 28.515625 37.0625 28.839844 35.015625 29.0625 33.679688 Z "/>
</g>
</svg>
