<?xml version="1.0" encoding="UTF-8"?>
<svg xmlns="http://www.w3.org/2000/svg" xmlns:xlink="http://www.w3.org/1999/xlink" width="80pt" height="80pt" viewBox="0 0 80 80" version="1.1">
<g id="surface1">
<path style=" stroke:none;fill-rule:nonzero;fill:#98CCFD;fill-opacity:1;" d="M 5.265625 65 C 2.914063 65 1 63.085938 1 60.734375 L 1 19.265625 C 1 16.914063 2.914063 15 5.265625 15 L 74.730469 15 C 77.085938 15 78.996094 16.914063 78.996094 19.265625 L 78.996094 60.730469 C 78.996094 63.085938 77.085938 64.996094 74.730469 64.996094 L 5.265625 64.996094 Z "/>
<path style=" stroke:none;fill-rule:nonzero;fill:#4788C7;fill-opacity:1;" d="M 74.734375 16 C 76.535156 16 78 17.464844 78 19.265625 L 78 60.734375 C 78 62.535156 76.535156 64 74.734375 64 L 5.265625 64 C 3.464844 64 2 62.535156 2 60.734375 L 2 19.265625 C 2 17.464844 3.464844 16 5.265625 16 L 74.734375 16 M 74.734375 14 L 5.265625 14 C 2.371094 14 0 16.371094 0 19.265625 L 0 60.734375 C 0 63.628906 2.371094 66 5.265625 66 L 74.734375 66 C 77.628906 66 80 63.628906 80 60.734375 L 80 19.265625 C 80 16.371094 77.628906 14 74.734375 14 Z "/>
<path style=" stroke:none;fill-rule:nonzero;fill:#FFFFFF;fill-opacity:1;" d="M 34 26 L 26 37.199219 L 18 26 L 10 26 L 10 54 L 18 54 L 18 36.222656 L 26 47.335938 L 34 35.886719 L 34 54 L 42 54 L 42 26 Z "/>
<path style=" stroke:none;fill-rule:nonzero;fill:#FFFFFF;fill-opacity:1;" d="M 64 40 L 64 26 L 56 26 L 56 40 L 48.5 40 L 60 54 L 72 40 Z "/>
</g>
</svg>
