<svg xmlns="http://www.w3.org/2000/svg"  viewBox="0 0 40 40" width="80px" height="80px"><path fill="#fff" d="M1.5 4.5H38.5V35.5H1.5z"/><path fill="#4788c7" d="M38,5v30H2V5H38 M39,4H1v32h38V4L39,4z"/><path fill="#98ccfd" d="M2 5H38V10H2z"/><path fill="#4788c7" d="M29 16H10c-.552 0-1-.448-1-1v0c0-.552.448-1 1-1h19c.552 0 1 .448 1 1v0C30 15.552 29.552 16 29 16zM11.5 22h-2C9.224 22 9 21.776 9 21.5l0 0C9 21.224 9.224 21 9.5 21h2c.276 0 .5.224.5.5l0 0C12 21.776 11.776 22 11.5 22zM29.5 22h-15c-.276 0-.5-.224-.5-.5l0 0c0-.276.224-.5.5-.5h15c.276 0 .5.224.5.5l0 0C30 21.776 29.776 22 29.5 22zM11.5 26h-2C9.224 26 9 25.776 9 25.5l0 0C9 25.224 9.224 25 9.5 25h2c.276 0 .5.224.5.5l0 0C12 25.776 11.776 26 11.5 26zM29.5 26h-15c-.276 0-.5-.224-.5-.5l0 0c0-.276.224-.5.5-.5h15c.276 0 .5.224.5.5l0 0C30 25.776 29.776 26 29.5 26zM11.5 30h-2C9.224 30 9 29.776 9 29.5l0 0C9 29.224 9.224 29 9.5 29h2c.276 0 .5.224.5.5l0 0C12 29.776 11.776 30 11.5 30zM29.5 30h-15c-.276 0-.5-.224-.5-.5l0 0c0-.276.224-.5.5-.5h15c.276 0 .5.224.5.5l0 0C30 29.776 29.776 30 29.5 30z"/></svg>