<?xml version="1.0" encoding="UTF-8"?>
<svg xmlns="http://www.w3.org/2000/svg" xmlns:xlink="http://www.w3.org/1999/xlink" width="80pt" height="80pt" viewBox="0 0 80 80" version="1.1">
<g id="surface1">
<path style=" stroke:none;fill-rule:nonzero;fill:#DFF0FE;fill-opacity:1;" d="M 8 67 C 6.347656 67 5 65.652344 5 64 L 5 16 C 5 14.347656 6.347656 13 8 13 L 72 13 C 73.652344 13 75 14.347656 75 16 L 75 64 C 75 65.652344 73.652344 67 72 67 Z "/>
<path style=" stroke:none;fill-rule:nonzero;fill:#4788C7;fill-opacity:1;" d="M 72 14 C 73.101563 14 74 14.898438 74 16 L 74 64 C 74 65.101563 73.101563 66 72 66 L 8 66 C 6.898438 66 6 65.101563 6 64 L 6 16 C 6 14.898438 6.898438 14 8 14 L 72 14 M 72 12 L 8 12 C 5.789063 12 4 13.789063 4 16 L 4 64 C 4 66.210938 5.789063 68 8 68 L 72 68 C 74.210938 68 76 66.210938 76 64 L 76 16 C 76 13.789063 74.210938 12 72 12 Z "/>
<path style=" stroke:none;fill-rule:nonzero;fill:#4788C7;fill-opacity:1;" d="M 19.839844 31.601563 L 19.839844 38.621094 L 23.402344 38.621094 L 23.402344 31.601563 L 26.808594 31.601563 L 26.808594 49.125 L 23.402344 49.125 L 23.402344 41.792969 L 19.839844 41.792969 L 19.839844 49.125 L 16.433594 49.125 L 16.433594 31.601563 Z "/>
<path style=" stroke:none;fill-rule:nonzero;fill:#4788C7;fill-opacity:1;" d="M 32.375 34.746094 L 29.28125 34.746094 L 29.28125 31.601563 L 38.902344 31.601563 L 38.902344 34.746094 L 35.78125 34.746094 L 35.78125 49.125 L 32.375 49.125 Z "/>
<path style=" stroke:none;fill-rule:nonzero;fill:#4788C7;fill-opacity:1;" d="M 52.054688 42.988281 C 51.953125 41.324219 51.847656 39.0625 51.875 37.191406 L 51.820313 37.191406 C 51.511719 39.0625 51.042969 41.222656 50.703125 42.570313 L 49.171875 48.839844 L 46.777344 48.839844 L 45.320313 42.675781 C 44.984375 41.273438 44.515625 39.089844 44.230469 37.191406 L 44.179688 37.191406 C 44.125 39.089844 43.996094 41.300781 43.917969 43.042969 L 43.605469 49.125 L 40.695313 49.125 L 41.941406 31.601563 L 45.554688 31.601563 L 46.960938 37.945313 C 47.429688 40.152344 47.871094 42.105469 48.183594 44.078125 L 48.261719 44.078125 C 48.519531 42.128906 48.910156 40.152344 49.351563 37.945313 L 50.757813 31.601563 L 54.34375 31.601563 L 55.410156 49.125 L 52.367188 49.125 Z "/>
<path style=" stroke:none;fill-rule:nonzero;fill:#4788C7;fill-opacity:1;" d="M 58.554688 31.601563 L 61.960938 31.601563 L 61.960938 46.238281 L 66.433594 46.238281 L 66.433594 49.125 L 58.554688 49.125 Z "/>
</g>
</svg>
