<?xml version="1.0" encoding="UTF-8" standalone="no"?>
<!DOCTYPE svg PUBLIC "-//W3C//DTD SVG 1.1//EN" "http://www.w3.org/Graphics/SVG/1.1/DTD/svg11.dtd">
<svg width="100%" height="100%" viewBox="0 0 246 259" version="1.1" xmlns="http://www.w3.org/2000/svg" xmlns:xlink="http://www.w3.org/1999/xlink" xml:space="preserve" xmlns:serif="http://www.serif.com/" style="fill-rule:evenodd;clip-rule:evenodd;stroke-linejoin:round;stroke-miterlimit:1.41421;">
    <path d="M154.021,78.296c3.231,0.046 6.069,2.935 6.009,6.114c-0.051,2.737 -3.055,5.443 -5.991,5.398c-3.003,-0.045 -5.993,-2.911 -5.951,-5.707c0.05,-3.346 2.612,-5.853 5.933,-5.805m-0.157,-7.113c1.234,-0.867 3.118,-1.492 4.524,-1.218c1.108,0.216 2.648,1.656 1.528,3.561c-0.093,0.157 0.045,0.441 0.051,0.667c0.019,0.729 0.108,1.476 -0.035,2.174c-0.028,0.135 -1.291,0.296 -1.448,0.07c-0.419,-0.599 -0.545,-1.403 -0.876,-2.389c-0.676,-0.03 -1.594,0.015 -2.48,-0.132c-1.467,-0.246 -2.335,-1.98 -1.264,-2.733m7.077,17.304c2.212,-2.931 3.039,-6.286 3.023,-9.901c-0.023,-4.088 -1.15,-7.787 -4.003,-10.804c-3.309,-3.498 -8.613,-3.579 -11.868,-0.254c-5.198,5.31 -5.384,16.06 -0.374,21.563c3.97,4.36 9.67,4.101 13.222,-0.604" style="fill:#930e0b;fill-rule:nonzero;"/>
    <path d="M96.297,79.115c3.483,-0.038 6.222,2.474 6.267,5.747c0.042,2.962 -3.052,6.043 -6.12,6.097c-3.015,0.053 -6.272,-3.001 -6.317,-5.922c-0.048,-3.178 2.772,-5.884 6.17,-5.922m3.65,-7.793c1.37,0.008 2.369,0.383 2.393,1.966c0.029,1.978 -0.984,2.808 -3.491,2.759c-1.345,-0.178 -3.147,0.036 -3.316,-2.164c-0.12,-1.571 1.742,-2.577 4.414,-2.561m4.363,6.633c-0.784,0.644 -1.268,1.351 -1.726,1.334c-0.492,-0.017 -0.961,-0.713 -1.439,-1.113c0.444,-0.509 0.809,-1.257 1.36,-1.438c0.347,-0.113 0.972,0.625 1.805,1.217m-3.442,13.875c4.086,-2.901 5.371,-7.191 5.49,-11.962c0.106,-4.032 -1.007,-7.644 -3.612,-10.754c-2.786,-3.326 -7.82,-3.836 -11.18,-1.139c-6.449,5.176 -6.848,17.482 -0.748,23.092c2.956,2.718 6.76,3.1 10.05,0.763" style="fill:#930e0b;fill-rule:nonzero;"/>
    <path d="M124.913,101.864c-0.585,0.354 -1.655,0.58 -2.159,0.281c-2.713,-1.608 -2.909,-1.639 -4.843,0.731c-0.168,0.208 -0.318,0.43 -0.505,0.684c-0.715,-1.703 -0.257,-2.978 1.529,-3.833c3.44,-1.645 7.011,-1.738 10.216,-0.879c-1.371,0.995 -2.741,2.11 -4.238,3.016m0.195,-6.529c-2.589,0.792 -5.298,1.322 -7.737,2.441c-3.177,1.457 -4.872,6.819 -0.087,9.237c2.253,1.138 4.57,2.15 6.876,3.177c0.36,0.16 0.89,0.248 1.224,0.102c3.081,-1.345 6.32,-2.453 9.142,-4.221c2.675,-1.676 2.538,-4.617 0.178,-6.812c-2.661,-2.475 -5.849,-3.546 -9.596,-3.924" style="fill:#930e0b;fill-rule:nonzero;"/>
    <path d="M158.71,184.499c0.714,-0.06 1.425,-0.125 2.135,-0.201c-0.71,0.076 -1.421,0.141 -2.135,0.201" style="fill:#930e0b;fill-rule:nonzero;"/>
    <path d="M46.205,156.831c-1.396,0.347 -2.791,0.699 -4.189,1.041c1.398,-0.342 2.793,-0.694 4.189,-1.041" style="fill:#930e0b;fill-rule:nonzero;"/>
    <path d="M38.686,158.871c0.222,-0.124 0.444,-0.248 0.666,-0.371c-0.209,-0.038 -0.418,-0.075 -0.627,-0.112c-0.927,0.113 -1.854,0.226 -2.78,0.34c0.926,-0.114 1.853,-0.227 2.78,-0.34c-0.013,0.161 -0.027,0.322 -0.039,0.483" style="fill:#930e0b;fill-rule:nonzero;"/>
    <path d="M183.146,76.662c-0.168,-0.21 -0.336,-0.42 -0.504,-0.63c0.476,-0.384 0.898,-0.885 1.437,-1.133c3.38,-1.554 6.94,-2.784 10.153,-4.623c7.611,-4.353 13.208,-10.884 18.21,-17.924c4.95,-6.967 9.081,-14.4 12.101,-22.426c2.632,-6.993 6.89,-13.052 11.203,-19.055c0.921,-1.282 1.285,-2.435 0.798,-3.887c-7.788,3.178 -15.731,6.027 -23.327,9.612c-11.602,5.476 -22.405,12.364 -32.655,20.092c-0.551,0.417 -1.19,1.223 -1.137,1.785c0.05,0.521 0.92,1.05 1.528,1.409c0.78,0.46 1.678,0.715 2.485,1.135c0.547,0.284 1.025,0.701 1.54,1.063c-2.977,3.581 -8.581,3.74 -11.503,0.414c-3.144,-3.58 -6.297,-7.153 -9.452,-10.723c-1.96,-2.22 -1.996,-3.096 0.011,-5.19c0.718,-0.75 1.571,-1.402 2.45,-1.962c14.997,-9.554 31.708,-14.343 49.008,-17.34c6.086,-1.055 12.28,-1.484 18.426,-2.198c0.463,-0.019 0.927,-0.038 1.39,-0.057c0.672,-0.041 1.343,-0.082 2.013,-0.123c0.149,-0.013 0.298,-0.027 0.447,-0.04c0.279,-0.019 0.558,-0.037 0.838,-0.056c0.779,-0.061 1.557,-0.124 2.557,-0.202c0.333,-0.027 0.691,-0.055 1.081,-0.087c-3.106,5.193 -6.109,9.91 -8.809,14.795c-4.459,8.066 -8.605,16.305 -13.097,24.352c-5.154,9.234 -11.728,17.382 -19.832,24.208c-5.085,4.283 -11.177,6.662 -17.36,8.791m4.662,-35.475c-1.194,-1.165 -2.594,-2.118 -4.161,-3.373c1.023,-0.823 1.977,-1.678 3.017,-2.412c1.342,-0.946 2.696,-1.868 4.057,-2.78c0.225,-0.151 0.45,-0.302 0.675,-0.452c0.262,-0.174 0.523,-0.351 0.785,-0.524c1.332,-0.877 2.675,-1.733 4.025,-2.578c0.605,-0.379 1.211,-0.758 1.82,-1.131c0.713,-0.437 1.431,-0.865 2.149,-1.293c0.027,-0.017 0.055,-0.033 0.083,-0.05c0.359,-0.214 0.718,-0.43 1.078,-0.643c0.918,-0.54 1.841,-1.072 2.767,-1.599c0.077,-0.043 0.153,-0.086 0.23,-0.129c0.18,-0.102 0.36,-0.201 0.54,-0.303c0.001,0 0.001,0 0.002,0c1.752,-0.987 3.517,-1.95 5.296,-2.888c0,-0.001 0.001,-0.001 0.001,-0.001c6.718,-3.54 13.617,-6.744 20.714,-9.581c0.252,-0.101 0.549,-0.092 0.824,-0.134c0.138,-0.018 0.276,-0.035 0.414,-0.053c-0.079,0.075 -0.158,0.152 -0.237,0.228l0.001,0c-1.01,1.599 -2.151,3.13 -3.003,4.808c-3.02,5.942 -6,11.905 -8.886,17.914c-5.28,10.997 -11.713,21.139 -20.808,29.343c-0.538,0.488 -1.086,0.969 -1.644,1.442c-3.891,3.292 -10.806,6.703 -15.105,7.526c-1.742,-7.767 -3.484,-15.536 -5.175,-23.075c3.167,-1.512 6.658,-3.105 10.077,-4.841c1.863,-0.946 1.989,-1.934 0.464,-3.421m-1.388,51.01c-0.669,1.146 -1.977,2.382 -1.877,3.492c0.104,1.159 1.566,2.195 2.527,3.401c-4.128,1.097 -8.162,2.148 -12.182,3.244c-3.25,0.887 -6.484,1.828 -9.726,2.745c-0.891,0.477 -1.782,0.952 -2.674,1.428c-11.078,4.896 -22.157,9.793 -33.235,14.688c-0.509,0.15 -1.018,0.299 -1.528,0.447c-0.196,0.058 -0.392,0.115 -0.588,0.173c-0.546,0.089 -1.18,0.363 -1.695,0.385c-0.171,0.007 -0.329,-0.014 -0.466,-0.078c-5.579,-2.643 -11.023,-5.584 -16.661,-8.09c-13.854,-6.158 -28.181,-10.948 -43.005,-14.203c-0.183,-0.04 -0.354,-0.138 -0.741,-0.294c1.104,-0.846 2.108,-1.578 3.071,-2.361c1.936,-1.577 1.848,-2.314 -0.366,-3.439c-0.37,-0.188 -0.733,-0.39 -1.244,-0.664c5.322,-6.867 4.474,-15.328 6.445,-23.295c2.072,0.552 3.003,2.238 3.597,4.098c0.855,2.678 1.416,5.453 2.321,8.111c0.555,1.629 1.272,3.129 2.18,4.469c1.513,2.233 3.553,4.023 6.244,5.23l0,0c-0.748,-0.854 -1.398,-1.761 -1.929,-2.718c-0.885,-1.597 -1.438,-3.336 -1.561,-5.214c-0.277,-4.226 -1.013,-8.538 1.54,-12.459c5.181,-7.956 17.605,-8.128 22.313,-1.087c0.153,0.23 0.558,0.292 0.845,0.432c-1.699,-11.091 -13.046,-13.145 -20.663,-9.092c-3.041,1.617 -5.962,3.474 -9.063,4.956c-1.632,0.78 -3.538,0.99 -5.772,1.575c0.484,-3.192 0.895,-6.23 1.571,-9.112c0.338,-1.442 0.742,-2.844 1.254,-4.208c0.128,-0.341 0.263,-0.679 0.404,-1.015c0.427,-1.008 0.92,-1.994 1.497,-2.957c0.506,-1.514 1.113,-2.964 1.855,-4.359c1.238,-2.324 2.853,-4.492 5.016,-6.537c0,2.067 -0.037,3.756 0.02,5.442c0.02,0.621 0.264,1.233 0.406,1.848c0.759,-0.089 1.519,-0.177 2.278,-0.266c0.731,-2.004 1.825,-3.647 3.202,-5.004c1.376,-1.356 3.034,-2.425 4.894,-3.282c0.939,3.95 1.866,7.85 2.794,11.75c2.978,5.106 6.669,9.527 12.041,12.264c1.491,0.759 3.081,1.334 4.65,1.929c1.523,0.577 2.388,0.069 2.617,-1.617c0.226,-1.677 0.627,-3.283 1.177,-4.828c0.916,-2.574 2.247,-4.978 3.883,-7.25c0.128,-0.145 0.257,-0.288 0.386,-0.432l0.024,-0.023c0.135,-0.144 0.271,-0.287 0.407,-0.43c0.095,-0.051 0.172,-0.122 0.233,-0.211c1.137,-1.66 2.274,-3.32 3.412,-4.979c6.804,-7.077 15.2,-11.419 24.464,-14.292c3.029,-0.938 5.813,-0.635 8.358,1.347c1.764,1.373 3.55,2.719 5.325,4.078c0.593,0.734 1.184,1.467 1.776,2.201c0.096,0.119 0.192,0.237 0.288,0.357c0.095,0.085 0.195,0.167 0.296,0.249c0.145,0.119 0.292,0.237 0.437,0.357c0.243,0.204 0.474,0.416 0.659,0.663c5.907,7.842 8.959,16.776 10.211,27.121c-2.25,-0.52 -4.353,-0.694 -6.175,-1.502c-2.749,-1.22 -5.354,-2.798 -7.926,-4.375c-5.317,-3.258 -12.48,-3.343 -16.911,0.002c-0.854,0.646 -1.593,1.356 -2.228,2.124c-0.502,0.606 -0.922,1.256 -1.302,1.928c-1.066,1.886 -1.698,4.009 -2.004,6.299l0.001,-0.001c0.718,-1.377 1.548,-2.547 2.485,-3.523c0.394,-0.41 0.811,-0.778 1.242,-1.12c0.139,-0.109 0.278,-0.217 0.421,-0.321c0.392,-0.283 0.798,-0.539 1.218,-0.77c0.362,-0.2 0.731,-0.388 1.114,-0.549c0.893,-0.377 1.84,-0.652 2.838,-0.828c1.331,-0.236 2.753,-0.296 4.259,-0.194c5.232,0.357 11.885,5.016 11.932,11.829c0.03,4.308 0.297,8.61 -2.152,12.48c-0.492,0.776 -0.866,1.627 -1.294,2.444c5.697,-3.362 8.359,-8.672 9.63,-14.905c0.266,-1.303 0.67,-2.59 1.144,-3.834c0.675,-1.772 1.793,-3.157 3.93,-3.682c2.342,8.109 1.264,17.316 7.836,23.814m17.139,6.919c1.704,-0.208 3.498,0.164 5.229,0.419c0.532,0.079 1.255,0.558 1.441,1.032c1.593,4.04 3.083,8.121 4.718,12.496c-1.466,0 -2.511,0.03 -3.554,-0.004c-22.474,-0.739 -44.562,1.574 -66.013,8.589c-5.478,1.792 -10.836,3.961 -16.198,6.085c-1.817,0.719 -3.418,0.773 -5.276,0.113c-12.196,-4.323 -24.363,-8.693 -37.14,-11.171c-16.274,-3.155 -32.655,-4.069 -49.171,-3.326c-0.694,0.031 -1.39,0.004 -2.552,0.004c2.162,-4.465 4.151,-8.701 6.309,-12.85c0.254,-0.488 1.465,-0.75 2.19,-0.678c5.03,0.497 10.045,1.146 15.072,1.68c11.289,1.2 21.962,4.795 32.581,8.511c11.093,3.882 21.946,8.379 32.227,14.125c2.032,1.136 3.775,1.041 5.757,0.03c12.417,-6.339 25.177,-11.898 38.271,-16.69c11.692,-4.279 23.781,-6.86 36.109,-8.365m18.406,17.186c1.427,0.105 2.309,0.718 2.501,2.283c0.274,2.227 0.791,4.425 1.034,6.654c0.084,0.774 -0.134,1.738 -0.565,2.381c-1.948,2.913 -3.909,5.83 -6.085,8.573c-1.784,2.25 -4.306,3.281 -7.215,3.364c-2.74,0.078 -5.478,0.26 -8.217,0.38c-4.607,0.202 -7.581,4.805 -5.685,9.093c0.559,1.267 0.414,2.126 -0.089,3.272c-1.059,2.409 -1.165,4.839 0.043,7.325c0.292,0.601 -0.018,1.742 -0.431,2.394c-0.636,1.003 -1.208,2.002 -1.563,3.017c-0.591,1.694 -0.579,3.434 0.744,5.321c0.535,0.524 1.071,1.047 1.606,1.572c1.375,0.453 2.75,0.907 4.532,1.496c-4.04,8.864 -8.049,17.662 -12.222,26.818c-1.832,-2.115 -3.732,-4.061 -5.721,-5.842c-3.315,-2.968 -6.879,-5.477 -10.791,-7.541c-0.404,-0.336 -0.808,-0.67 -1.212,-1.005c-0.42,-0.347 -0.84,-0.695 -1.26,-1.042l-0.001,-0.001l0.001,0.001l-0.001,0c-1.189,-0.393 -2.403,-0.723 -3.563,-1.189c-10.406,-4.176 -21.238,-5.836 -32.341,-5.113c-0.323,-18.406 0.152,-45.639 0.29,-50.456c4.833,-1.813 9.671,-3.614 14.596,-5.129c10.626,-3.269 21.508,-5.632 32.626,-6.252c10.736,-0.599 21.505,-0.629 32.262,-0.824c2.238,-0.041 4.485,0.285 6.727,0.45m1.621,27.038c-0.213,0.871 -0.587,1.751 -1.112,2.611c-0.394,0.645 -0.873,1.278 -1.432,1.887c-0.187,0.204 -0.383,0.405 -0.587,0.602c-0.433,0.399 -0.867,0.798 -1.3,1.198c-0.78,0.257 -1.583,0.792 -2.336,0.728c-5.003,-0.423 -9.997,-0.949 -14.988,-1.496c-1.776,-0.195 -2.055,-1.432 -1.727,-2.92c0.059,-0.268 0.1,-0.552 0.144,-0.834c0.029,-0.188 0.06,-0.376 0.098,-0.557c0.038,-0.183 0.083,-0.358 0.141,-0.523c0.058,-0.165 0.129,-0.32 0.221,-0.457c0.045,-0.069 0.095,-0.134 0.151,-0.194c0.335,-0.361 0.87,-0.554 1.769,-0.437c0.422,-0.119 0.844,-0.237 1.266,-0.355c0.049,-0.014 0.097,-0.028 0.145,-0.041c0.064,0.459 0.177,0.864 0.32,1.239c-0.143,-0.375 -0.256,-0.78 -0.319,-1.239c1.4,-0.041 2.801,-0.09 4.201,-0.133c1.4,-0.044 2.801,-0.083 4.202,-0.106c3.925,-0.064 7.327,-1.574 10.409,-3.867c0.942,1.443 1.159,3.152 0.734,4.894m-6.207,11.533c-0.122,1.701 -0.51,3.291 -1.883,4.608c-0.19,0.033 -0.381,0.068 -0.571,0.102c-0.265,-0.009 -0.529,-0.018 -0.794,-0.027c-1.389,0.122 -2.779,0.339 -4.167,0.418c-0.462,0.026 -0.924,0.038 -1.386,0.025c-1.812,-0.05 -3.618,-0.461 -5.418,-0.762c-3.549,-0.596 -4.633,-2.517 -3.123,-5.791c0.481,-1.042 0.96,-3.532 2.732,-0.788c0.019,0.031 0.503,-0.239 0.77,-0.369c1.445,0.079 2.891,0.148 4.335,0.238c3.126,0.195 6.251,0.401 9.564,0.615c-0.007,0.585 -0.019,1.164 -0.059,1.731m-5.486,12.879c-0.183,0.376 -0.435,0.729 -0.78,1.051c-0.231,0.215 -0.503,0.416 -0.826,0.601c-0.224,0.126 -0.446,0.252 -0.67,0.378c-0.511,0.289 -1.024,0.577 -1.536,0.867c-0.541,-0.019 -1.084,-0.023 -1.627,-0.025c-1.631,-0.004 -3.266,0.018 -4.85,-0.256c-3.427,-0.595 -4.441,-3.086 -2.557,-6c0.284,-0.441 0.489,-0.993 0.75,-1.493c0.153,-0.292 0.327,-0.565 0.543,-0.788c0.132,-0.136 0.282,-0.253 0.453,-0.344c0.074,-0.039 0.153,-0.073 0.237,-0.102c0.309,-0.108 0.681,-0.145 1.149,-0.069c0.448,0.248 0.897,0.497 1.345,0.745c-0.274,1.017 -0.49,1.852 -0.623,2.542c0.133,-0.69 0.349,-1.525 0.623,-2.542c0.693,-0.033 1.386,-0.066 2.078,-0.099c0.159,0.014 0.318,0.029 0.476,0.044c2.074,0.244 4.147,0.489 6.457,0.762c-0.207,1.648 0.03,3.346 -0.642,4.728m-16.85,49.26c-0.997,-1.055 -1.718,-1.981 -2.602,-2.709c-0.828,-0.682 -1.829,-1.155 -2.892,-1.565c6.201,7.815 10.455,16.4 11.814,26.543c-0.617,-0.166 -1.032,-0.2 -1.369,-0.381c-8.189,-4.389 -16.979,-4.184 -25.788,-3.159c-17.085,1.986 -33.409,6.957 -49.608,12.584c-14.909,5.179 -30.269,8.256 -46.208,7.424c-8.292,-0.433 -16.481,-1.254 -23.637,-6.013c-7.849,-5.22 -13.533,-12.028 -15.306,-21.583c-0.226,-1.22 -0.45,-2.441 -0.675,-3.661c0.058,-1.205 0.117,-2.41 0.176,-3.614c-0.876,-5.322 0.385,-10.376 2.179,-15.285c1.941,-5.309 5.284,-9.749 9.381,-13.614c0.752,-0.71 1.632,-1.286 2.705,-2.12c1.845,4.067 3.596,7.925 5.519,12.161c-2.568,-0.491 -4.448,-1.283 -5.512,-3.815c0.123,3.684 3.756,7.067 7.739,6.78c3.664,-0.264 7.501,-0.823 10.851,-2.231c9.347,-3.931 18.265,-8.74 26.224,-15.139c0.265,-0.213 0.549,-0.402 1.209,-0.883c-0.203,1.111 -0.426,1.816 -0.438,2.523c-0.017,1.048 0.116,2.098 0.185,3.147c1.018,-0.244 2.117,-0.319 3.038,-0.762c3.168,-1.526 6.182,-3.4 9.419,-4.751c7.965,-3.325 16.08,-5.241 24.336,-5.726c2.752,-0.162 5.52,-0.165 8.303,-0.008c0.928,0.052 1.857,0.122 2.788,0.21c2.793,0.262 5.601,0.685 8.424,1.269c0.996,0.298 1.992,0.597 2.987,0.895c0.853,0.257 1.707,0.513 2.56,0.769c8.124,1.95 16.444,6.808 22.848,12.838c0.801,0.754 1.571,1.526 2.307,2.313c0.737,0.787 1.439,1.589 2.103,2.403c0.333,0.406 0.655,0.817 0.968,1.228c1.249,1.649 2.338,3.337 3.233,5.037c1.566,2.976 2.538,5.99 2.739,8.895m-63.244,-38.183c-3.644,0.394 -7.231,1.015 -10.745,1.898c0.211,-20.673 -0.111,-46.662 -0.4,-51.193c1.122,0.407 2.243,0.813 3.365,1.213c2.056,0.734 3.814,0.246 5.692,-0.441c0.827,-0.303 1.653,-0.609 2.478,-0.916c-0.276,5.337 -0.569,29.536 -0.39,49.439m-83.668,-6.399c0.574,-0.367 1.123,-0.718 1.66,-1.062c0.537,-0.343 1.062,-0.679 1.587,-1.014c0.066,0.05 0.139,0.1 0.214,0.149c-0.075,-0.049 -0.148,-0.099 -0.214,-0.149c0.688,-0.563 1.377,-1.126 2.065,-1.689c0.317,-1.505 0.239,-2.947 -0.025,-4.39c-0.159,-0.866 -0.386,-1.732 -0.635,-2.614c-0.507,-1.796 0.016,-3.857 -0.159,-5.777c-0.166,-1.823 -0.169,-7.116 0.209,-8.976c0.182,-0.891 0.246,-1.806 0.357,-2.711c0.273,-2.233 -0.612,-3.268 -2.889,-3.406c-3.924,-0.237 -7.847,-0.505 -11.772,-0.721c-3.78,-0.208 -6.604,-2.117 -9.008,-4.869c-2.124,-2.433 -4.354,-4.775 -6.409,-7.265c-0.471,-0.57 -0.702,-1.642 -0.541,-2.373c0.436,-1.984 1.192,-3.895 1.726,-5.862c0.551,-2.03 1.757,-3.07 3.903,-3.098c10.961,-0.137 21.95,-0.863 32.873,-0.298c9.565,0.495 19.107,2.136 28.566,3.799c9.452,1.663 18.472,4.865 27.463,8.138c0.128,3.865 0.682,34.656 0.247,53.444l0.215,0.013c-4.788,1.467 -9.428,3.447 -13.874,6.045c-0.529,0.309 -1.124,0.507 -1.774,0.795c-0.075,-1.377 -0.028,-2.625 -0.255,-3.822c-0.129,-0.674 -0.581,-1.569 -1.125,-1.797c-0.462,-0.193 -1.411,0.27 -1.895,0.714c-5.957,5.476 -13.083,9.146 -20.052,13.056c-0.536,0.302 -1.197,0.383 -1.8,0.564c-0.568,0.325 -1.135,0.648 -1.703,0.97c-0.014,0.008 -0.029,0.017 -0.044,0.025c-0.907,0.694 -1.854,1.276 -2.834,1.763c-2.937,1.463 -6.163,2.077 -9.477,2.339c-0.55,0.044 -1.429,-0.931 -1.749,-1.623c-2.765,-5.987 -5.425,-12.023 -8.14,-18.034c-1.552,-3.439 -3.147,-6.858 -4.711,-10.264m-1.351,-2.493c-0.073,0.014 -0.147,0.029 -0.222,0.041c-1.655,0.274 -3.447,0.035 -4.621,-0.792c-0.372,-0.6 -0.743,-1.199 -1.114,-1.798c-0.176,-1.222 -0.35,-2.444 -0.548,-3.824l6.444,0c0.062,-0.01 0.123,-0.021 0.186,-0.032c0.774,-0.135 1.548,-0.27 2.322,-0.405c0.351,-0.046 0.703,-0.094 1.055,-0.14c0.086,1.54 0.708,3.322 0.145,4.57c-0.144,0.321 -0.348,0.615 -0.598,0.877c-0.251,0.263 -0.548,0.497 -0.88,0.699c-0.166,0.101 -0.34,0.194 -0.522,0.28c-0.505,0.238 -1.066,0.411 -1.647,0.524m-9.156,-9.759c-0.607,-0.07 -1.121,-0.946 -1.678,-1.45c-1.981,-1.192 -1.575,-3.18 -1.839,-4.936c4.749,-0.415 9.324,-0.814 13.899,-1.213c2.217,1.615 2.444,4.037 2.022,6.342c-0.15,0.82 -1.857,1.901 -2.868,1.915c-3.177,0.043 -6.369,-0.292 -9.536,-0.658m-7.038,-9.727c-0.19,-0.005 -0.379,-0.078 -0.568,-0.169c-0.188,-0.092 -0.376,-0.201 -0.564,-0.279c-0.594,-0.525 -1.189,-1.05 -1.783,-1.575c-0.41,-0.814 -0.805,-1.63 -1.115,-2.459c-0.682,-1.822 -0.954,-3.704 -0.08,-5.752c0.137,-0.322 0.263,-0.653 0.443,-0.95c0.102,-0.166 0.306,-0.271 0.511,-0.445c6.434,4.705 13.943,4.357 21.342,4.534c0.67,-0.075 1.316,-0.125 1.574,0.242c0.051,0.073 0.087,0.163 0.105,0.273c0.018,0.109 0.017,0.239 -0.006,0.391c-0.021,0.153 -0.065,0.328 -0.133,0.529c-0.038,0.519 -0.079,0.978 -0.128,1.385c-0.049,0.406 -0.107,0.76 -0.179,1.072c-0.435,1.869 -1.413,2.188 -4.379,2.864c-5.018,1.145 -10.024,0.487 -15.04,0.339m31.614,-105.483c3.036,2.379 6.135,4.692 9.341,6.831c1.187,0.792 1.548,1.302 1.187,2.799c-1.394,5.772 -2.546,11.601 -3.902,17.936c-2.347,-1.186 -5.076,-2.245 -7.458,-3.825c-0.717,-0.476 -1.419,-0.967 -2.114,-1.465c-0.196,-0.141 -0.391,-0.283 -0.586,-0.427c-0.097,-0.071 -0.196,-0.141 -0.293,-0.213c-0.108,-0.079 -0.217,-0.156 -0.325,-0.236c-0.329,-0.247 -0.651,-0.501 -0.976,-0.753c-0.167,-0.129 -0.335,-0.256 -0.5,-0.386c-0.351,-0.277 -0.696,-0.56 -1.041,-0.843c-0.237,-0.194 -0.476,-0.385 -0.71,-0.581c-0.053,-0.045 -0.105,-0.091 -0.158,-0.135c-0.197,-0.168 -0.389,-0.339 -0.585,-0.507c-0.42,-0.363 -0.836,-0.73 -1.248,-1.102c-0.143,-0.129 -0.291,-0.253 -0.434,-0.383c-0.246,-0.225 -0.487,-0.458 -0.731,-0.687c-0.55,-0.519 -1.091,-1.048 -1.626,-1.583c-3.888,-3.884 -7.365,-8.171 -10.441,-12.816c-5.356,-8.088 -10.301,-16.447 -15.522,-24.627c-2.412,-3.778 -5.05,-7.411 -7.586,-11.109c0.067,-0.235 0.134,-0.472 0.201,-0.708c4.354,1.678 8.983,2.87 12.996,5.148c5.699,3.235 11.012,7.157 16.43,10.878c0.2,0.138 0.399,0.277 0.6,0.414c0.882,0.602 1.758,1.214 2.637,1.82c0.008,0.005 0.015,0.01 0.022,0.015c4.844,3.333 9.665,6.7 14.497,10.05c0.677,0.47 1.362,0.929 2.387,1.627c-1.432,0.62 -2.514,1.064 -3.574,1.554c-1.865,0.864 -2.115,2.039 -0.488,3.314m-4.376,26.367c-14.823,-10.41 -25.682,-24.173 -34.332,-39.937c-5.02,-9.148 -11.377,-17.391 -18.764,-24.81c-0.765,-0.768 -1.225,-1.839 -1.827,-2.769c-0.021,-1.635 1.272,-1.218 2.064,-1.147c3.426,0.308 6.834,0.805 10.258,1.133c12.676,1.216 25.262,2.969 37.549,6.421c8.958,2.517 17.618,5.84 25.601,10.664c2.349,1.419 4.27,3.546 6.387,5.349c0.095,0.867 0.191,1.735 0.287,2.603c-0.324,3.553 -1.847,6.609 -4.013,9.356c-1.523,1.931 -3.115,3.816 -4.774,5.631c-3.517,3.845 -6.995,3.809 -11.302,-0.219c1.491,-0.61 2.914,-1.117 4.261,-1.777c0.571,-0.281 1.329,-0.853 1.371,-1.347c0.045,-0.502 -0.577,-1.237 -1.098,-1.586c-1.6,-1.071 -3.213,-2.122 -4.831,-3.167c-1.618,-1.044 -3.24,-2.082 -4.859,-3.127c-0.55,-0.303 -1.101,-0.605 -1.652,-0.908c0.779,-1.874 1.564,-3.745 2.345,-5.618c-0.781,1.873 -1.566,3.744 -2.345,5.618c-2.513,-1.847 -5.035,-3.683 -7.552,-5.525c-2.517,-1.843 -5.028,-3.692 -7.523,-5.565c-7.885,-5.918 -16.378,-10.566 -26.098,-12.668c-0.634,-0.137 -1.29,-0.174 -1.951,-0.183c-0.662,-0.01 -1.33,0.008 -1.988,-0.022c-0.721,0.437 -0.981,0.885 -0.979,1.34c0.001,0.196 0.05,0.392 0.132,0.59c0.163,0.396 0.458,0.796 0.758,1.199c2.48,3.319 5.159,6.513 7.39,9.992c5.272,8.223 10.203,16.666 15.511,24.866c6.36,9.823 14.085,18.44 23.888,24.977c2.43,1.62 5.26,2.633 7.864,4.005c0.537,0.282 0.887,0.918 1.084,1.653c-4.141,-0.767 -7.583,-2.718 -10.862,-5.022m29.075,-31.587c0.329,-1.346 0.619,-2.537 0.909,-3.729c0.198,-1.266 0.395,-2.532 0.593,-3.798c0.003,-0.022 0.007,-0.045 0.011,-0.068c0.189,-0.152 0.378,-0.304 0.567,-0.457l-0.05,0.006c0.183,-0.726 0.35,-1.456 0.526,-2.183c0.176,-0.727 0.361,-1.453 0.575,-2.168c1.56,-5.189 3.988,-9.917 7.761,-13.854c1.229,-1.281 1.551,-2.414 0.72,-4.113c-0.813,-1.667 -1.17,-3.557 -1.857,-5.77c1.654,0.254 2.853,0.483 4.061,0.615c7.337,0.803 14.683,1.531 22.014,2.388c6.239,0.73 11.583,3.759 16.848,6.902c4.222,2.519 4.198,2.559 5.035,-2.299c0.034,-0.202 0.126,-0.393 0.288,-0.877c0.865,1.005 1.656,2.043 2.394,3.104c2.213,3.182 3.948,6.569 5.791,9.886c0.338,0.963 0.675,1.925 1.012,2.888c-0.559,0.421 -1.06,1.062 -1.687,1.23c-12.052,3.216 -22.563,8.943 -30.55,18.747c-3.69,4.53 -6.15,9.696 -7.358,15.713c-3.112,-1.022 -5.724,-2.604 -8.015,-4.684c-5.433,-4.931 -8.021,-11.214 -8.606,-18.433c-0.374,-4.612 -0.591,-4.743 -4.55,-2.314c-2.183,1.339 -4.228,2.904 -6.774,4.671c0.119,-0.488 0.233,-0.954 0.342,-1.403m102.09,39.295c3.491,-2.596 7.373,-4.674 10.812,-7.33c9.248,-7.143 16.623,-15.998 22.369,-26.126c7.528,-13.272 14.025,-27.124 22.472,-39.885c1.559,-2.356 0.65,-3.822 -2.227,-3.58c-9.039,0.762 -18.133,1.238 -27.08,2.63c-14.08,2.191 -27.778,5.949 -40.645,12.31c-3.027,1.496 -6.031,3.114 -9.206,4.212c-5.215,1.803 -10.072,1.474 -13.192,-4.562c-1.892,-3.658 -4.554,-6.925 -6.948,-10.312c-0.387,-0.548 -1.187,-0.802 -1.796,-1.192c-0.39,0.673 -0.974,1.304 -1.129,2.027c-0.3,1.397 -0.357,2.846 -0.54,4.507c-0.786,-0.41 -1.291,-0.629 -1.752,-0.92c-7.109,-4.469 -14.811,-6.94 -23.223,-7.603c-6.786,-0.534 -13.529,-1.631 -20.28,-2.556c-1.816,-0.249 -2.443,0.727 -2.25,2.143c0.318,2.349 0.979,4.65 1.436,6.983c0.121,0.616 0.276,1.435 -0.013,1.891c-2.691,4.243 -5.475,8.427 -8.32,12.762c0.33,0.123 0.092,0.1 -0.051,-0.029c-8.013,-7.255 -17.78,-11.221 -27.774,-14.71c-17.792,-6.212 -36.453,-7.562 -54.973,-9.669c-2.081,-0.237 -3.524,0.759 -4.352,2.637c-0.816,1.85 -0.001,3.221 1.317,4.494c8.262,7.98 15.084,17.082 20.573,27.141c6.536,11.976 14.633,22.75 24.898,31.701c5.168,4.507 11.064,8.184 16.677,12.17c1.688,1.199 2.948,2.553 3.213,4.699c0.395,3.182 -0.744,5.823 -2.865,8.057c-2.207,2.323 -2.252,2.374 0.316,4.189c0.225,0.159 0.416,0.367 0.624,0.554c-2.764,2.733 -4.131,3.223 -7.648,2.875c-4.69,-0.465 -9.387,-0.871 -14.075,-1.352c-2.266,-0.232 -3.749,0.663 -4.696,2.728c-1.289,2.814 -3.018,5.47 -3.966,8.386c-1.308,4.024 -3.49,6.166 -7.926,5.83c-2.172,-0.165 -3.732,1.146 -4.429,3.245c-0.932,2.801 -1.934,5.594 -2.594,8.463c-0.249,1.083 0.087,2.536 0.662,3.527c1.23,2.119 2.847,4.011 4.175,6.079c0.341,0.531 0.497,1.531 0.226,2.044c-2.069,3.913 -1.605,7.64 0.202,11.528c0.99,2.131 2.205,3.618 4.584,3.745c1.666,0.089 1.949,0.915 2.082,2.407c0.26,2.943 1.022,5.928 4.12,7.066c1.805,0.663 2.083,1.65 2.156,3.231c0.134,2.881 0.948,5.794 3.876,6.703c3.384,1.051 4.728,3.326 5.742,6.323c3.119,9.216 3.969,6.977 -2.271,15.017c-4.77,6.147 -8.087,12.854 -8.932,20.639c-0.955,8.789 -0.241,17.352 4.528,25.07c7.857,12.713 19.744,18.12 34.309,19.012c17.449,1.068 34.267,-1.864 50.612,-7.585c13.237,-4.634 26.605,-8.665 40.404,-11.184c8.127,-1.482 16.361,-2.591 24.535,-0.949c3.917,0.786 7.564,2.902 11.353,4.363c0.599,0.232 1.398,0.411 1.93,0.191c0.366,-0.152 0.672,-1.076 0.588,-1.584c-0.751,-4.505 -1.238,-9.097 -2.491,-13.466c-2.287,-7.974 -5.107,-15.794 -7.541,-23.728c-0.395,-1.286 -0.355,-3.009 0.179,-4.225c3.194,-7.271 6.635,-14.434 9.895,-21.678c0.978,-2.173 2.424,-3.833 4.512,-4.818c4.123,-1.943 5.855,-5.234 5.927,-9.638c0.008,-0.528 0.32,-1.348 0.718,-1.526c3.046,-1.362 3.855,-4.156 3.997,-6.948c0.124,-2.415 1.08,-3.871 2.768,-5.442c3.817,-3.549 4.968,-9.335 2.707,-12.87c-0.745,-1.164 -0.685,-1.997 -0.064,-3.046c2.43,-4.099 3.56,-8.252 2.421,-13.207c-1.518,-6.599 -1.181,-6.676 -7.861,-7.422c-0.14,-0.016 -0.282,-0.06 -0.419,-0.047c-1.257,0.118 -1.835,-0.482 -2.247,-1.672c-1.333,-3.851 -2.871,-7.633 -4.196,-11.488c-0.674,-1.96 -1.897,-2.913 -3.902,-3.338c-5.21,-1.106 -10.264,0.031 -15.259,1.108c-2.947,0.635 -4.651,-0.486 -6.336,-2.615c0.611,-0.682 1.172,-1.296 1.72,-1.923c1.406,-1.61 1.335,-2.069 -0.476,-3.152c-3.04,-1.818 -3.955,-4.038 -2.593,-7.318c0.619,-1.491 1.633,-3.048 2.903,-3.992" style="fill:#930e0b;fill-rule:nonzero;"/>
    <path d="M150.35,122.928c-4.926,1.515 -9.762,3.317 -14.596,5.129c-0.138,4.818 -0.614,32.05 -0.29,50.455c11.103,-0.722 21.935,0.938 32.341,5.114c1.16,0.466 2.374,0.796 3.563,1.189l0,0l0,-0.001c5.701,-0.024 11.403,-0.054 17.105,-0.075c4.009,-0.015 4.583,-0.297 5.663,-4.152c0.942,-3.36 1.547,-6.816 2.3,-10.228c-1.323,-1.887 -1.334,-3.627 -0.743,-5.321c0.355,-1.015 0.926,-2.014 1.562,-3.017c0.414,-0.652 0.723,-1.793 0.432,-2.394c-1.208,-2.486 -1.102,-4.915 -0.043,-7.324c0.503,-1.146 0.649,-2.006 0.088,-3.273c-1.895,-4.287 1.08,-8.891 5.685,-9.093c2.74,-0.12 5.478,-0.302 8.218,-0.38c2.909,-0.083 5.432,-1.114 7.216,-3.364c2.175,-2.742 4.136,-5.66 6.085,-8.573c0.429,-0.643 0.648,-1.608 0.564,-2.38c-0.243,-2.229 -0.759,-4.428 -1.034,-6.654c-0.193,-1.566 -1.075,-2.178 -2.501,-2.283c-2.243,-0.165 -4.489,-0.492 -6.728,-0.451c-10.756,0.195 -21.525,0.226 -32.262,0.824c-11.117,0.62 -21.999,2.984 -32.625,6.252" style="fill:#c7616c;fill-rule:nonzero;"/>
    <path d="M129.711,130.306c-1.878,0.688 -3.636,1.175 -5.692,0.441c-1.122,-0.4 -2.244,-0.805 -3.364,-1.213c0.289,4.531 0.61,30.52 0.399,51.192c3.514,-0.882 7.101,-1.503 10.745,-1.896c-0.179,-19.905 0.114,-44.103 0.391,-49.44c-0.826,0.308 -1.652,0.613 -2.479,0.916" style="fill:#c7616c;fill-rule:nonzero;"/>
    <path d="M55.629,174.791c0.736,2.038 1.522,4.051 2.485,5.975c2.059,4.11 4.578,8.037 7.291,11.755c2.355,3.228 6.269,3.758 9.949,4.447c0.479,0.09 0.956,0.189 1.435,0.287c0.603,-0.182 1.263,-0.263 1.8,-0.564c6.969,-3.911 14.095,-7.581 20.052,-13.056c0.484,-0.445 1.433,-0.908 1.895,-0.715c0.544,0.228 0.997,1.123 1.125,1.798c0.227,1.195 0.179,2.443 0.255,3.821c0.649,-0.288 1.244,-0.486 1.774,-0.796c4.446,-2.597 9.086,-4.577 13.874,-6.043l-0.215,-0.014c0.435,-18.788 -0.119,-49.579 -0.247,-53.444c-8.99,-3.272 -18.011,-6.476 -27.464,-8.138c-9.459,-1.664 -19.001,-3.304 -28.566,-3.799c-10.923,-0.565 -21.912,0.16 -32.872,0.298c-2.146,0.027 -3.352,1.068 -3.904,3.099c-0.534,1.965 -1.289,3.877 -1.726,5.862c-0.16,0.73 0.072,1.802 0.543,2.372c2.054,2.489 4.284,4.832 6.408,7.265c2.403,2.752 5.228,4.661 9.008,4.869c3.925,0.215 7.848,0.483 11.772,0.722c2.277,0.138 3.163,1.172 2.889,3.405c-0.11,0.906 -0.176,1.821 -0.356,2.712c-0.378,1.859 -0.376,7.152 -0.21,8.974c0.175,1.922 -0.348,3.983 0.159,5.778c0.249,0.881 0.476,1.748 0.635,2.615c0.265,1.443 0.342,2.884 0.025,4.389c0.764,2.024 1.45,4.087 2.186,6.126" style="fill:#c7616c;fill-rule:nonzero;"/>
    <path d="M189.07,203.081c-0.312,-0.413 -0.635,-0.822 -0.967,-1.229c-0.664,-0.814 -1.367,-1.615 -2.103,-2.403c-0.737,-0.787 -1.507,-1.559 -2.307,-2.313c-6.404,-6.031 -14.724,-10.888 -22.848,-12.838c-0.71,0.076 -1.422,0.141 -2.135,0.201c-0.713,0.06 -1.427,0.116 -2.14,0.174c-0.951,0.078 -1.901,0.159 -2.847,0.262c-0.947,0.102 -1.888,0.224 -2.822,0.383c-0.466,0.08 -0.931,0.169 -1.394,0.269c-5.706,1.231 -11.306,2.95 -16.914,4.799c3.98,1.76 8.026,2.945 11.39,6.004c-12.149,2.869 -22.446,8.315 -29.501,18.951c4.034,0.227 8.068,0.34 12.077,0.712c3.96,0.366 7.719,1.4 11.07,4.695c-2.452,0.782 -4.467,1.311 -6.399,2.058c-7.457,2.886 -14.904,5.8 -22.323,8.784c-5.729,2.305 -11.301,5.049 -17.137,7.027c-9.13,3.095 -18.476,3.537 -28.029,1.622c-9.011,-1.806 -16.265,-6.275 -22.344,-12.957c-0.86,-0.944 -1.75,-1.86 -2.626,-2.79c0.226,1.22 0.45,2.441 0.676,3.661c1.772,9.554 7.456,16.363 15.305,21.583c7.157,4.759 15.346,5.581 23.638,6.013c15.94,0.832 31.299,-2.244 46.208,-7.424c16.199,-5.627 32.523,-10.598 49.607,-12.585c8.81,-1.024 17.601,-1.228 25.788,3.161c0.338,0.18 0.753,0.214 1.369,0.38c-1.359,-10.143 -5.612,-18.728 -11.813,-26.543c1.063,0.411 2.064,0.883 2.891,1.565c0.885,0.728 1.607,1.654 2.603,2.71c-0.201,-2.907 -1.173,-5.919 -2.739,-8.895c-0.894,-1.701 -1.983,-3.389 -3.234,-5.037" style="fill:#fffab6;fill-rule:nonzero;"/>
    <path d="M134.526,106.071c-2.822,1.768 -6.062,2.876 -9.141,4.221c-0.335,0.147 -0.865,0.058 -1.224,-0.102c-2.307,-1.026 -4.624,-2.04 -6.876,-3.177c-4.786,-2.418 -3.091,-7.779 0.086,-9.237c2.438,-1.119 5.148,-1.649 7.737,-2.441c3.747,0.377 6.935,1.448 9.596,3.923c2.36,2.196 2.497,5.137 -0.178,6.813m40.128,-34.005c-0.474,1.243 -0.878,2.531 -1.144,3.833c-1.271,6.232 -3.933,11.542 -9.63,14.905c-2.403,1.175 -4.702,2.701 -7.232,3.447c-4.58,1.352 -10.592,-1.346 -13.104,-5.455c-2.202,-3.602 -3.594,-7.432 -2.949,-11.729c0.289,-1.921 0.807,-3.807 1.221,-5.709c0.306,-2.29 0.938,-4.414 2.004,-6.3c0.38,-0.672 0.8,-1.322 1.302,-1.927c0.635,-0.768 1.374,-1.479 2.228,-2.124c4.431,-3.347 11.594,-3.261 16.911,-0.003c2.572,1.577 5.177,3.155 7.926,4.375c1.822,0.808 3.925,0.981 6.175,1.503c-1.252,-10.346 -4.304,-19.281 -10.211,-27.123c-0.185,-0.246 -0.416,-0.458 -0.659,-0.661c-0.145,-0.121 -0.292,-0.239 -0.437,-0.359c-0.101,-0.081 -0.201,-0.163 -0.296,-0.249c-0.137,-0.023 -0.275,-0.041 -0.415,-0.057c-0.417,-0.051 -0.837,-0.091 -1.221,-0.233c-7.365,-2.725 -14.645,-1.472 -21.846,0.605c-7.501,2.163 -14.024,6.221 -20.141,10.974c-0.061,0.09 -0.138,0.159 -0.233,0.211c-0.136,0.143 -0.272,0.287 -0.407,0.43l-0.024,0.022c-0.129,0.144 -0.258,0.288 -0.386,0.432c-1.636,2.273 -2.967,4.677 -3.883,7.251c-0.55,1.545 -0.951,3.151 -1.177,4.827c-0.229,1.686 -1.094,2.196 -2.617,1.618c-1.569,-0.595 -3.159,-1.169 -4.65,-1.929c-5.372,-2.737 -9.063,-7.158 -12.041,-12.263c-0.565,-0.671 -1.173,-1.312 -1.687,-2.02c-1.936,-2.671 -3.979,-3.314 -7.067,-2.185c-0.707,0.258 -1.424,0.494 -2.136,0.74c-0.759,0.088 -1.519,0.178 -2.278,0.266c-3.224,-0.4 -4.932,2.268 -7.297,3.606c-0.577,0.964 -1.07,1.949 -1.497,2.957c-0.141,0.336 -0.276,0.675 -0.404,1.015c-0.512,1.364 -0.916,2.766 -1.254,4.208c-0.676,2.883 -1.087,5.921 -1.571,9.113c2.234,-0.586 4.14,-0.796 5.772,-1.576c3.101,-1.483 6.022,-3.339 9.063,-4.957c7.617,-4.052 18.964,-1.998 20.663,9.093c2.309,7.308 2.364,14.429 -2.824,20.573c-3.073,3.641 -7.321,5.185 -12.147,4.012c-2.363,-0.575 -4.794,-1.244 -6.237,-3.538l0,-0.001c-2.691,-1.207 -4.731,-2.997 -6.244,-5.23c-0.908,-1.341 -1.625,-2.84 -2.18,-4.469c-0.905,-2.659 -1.466,-5.433 -2.321,-8.111c-0.594,-1.859 -1.525,-3.546 -3.597,-4.097c-1.971,7.965 -1.123,16.427 -6.445,23.295c0.511,0.273 0.874,0.475 1.244,0.663c2.214,1.125 2.302,1.862 0.366,3.438c-0.963,0.784 -1.967,1.516 -3.071,2.361c0.387,0.156 0.558,0.255 0.741,0.296c14.824,3.255 29.151,8.044 43.005,14.202c5.638,2.506 11.082,5.447 16.661,8.089c0.137,0.066 0.295,0.087 0.466,0.079c0.515,-0.022 1.149,-0.296 1.695,-0.385c0.079,-1.14 0.104,-2.292 0.167,-3.436c0.063,-1.145 0.163,-2.28 0.395,-3.389c0.275,-1.31 1.127,-2.763 2.166,-3.588c1.567,-1.244 3.572,-1.919 5.302,-2.979c1.465,-0.899 2.782,-2.036 4.21,-2.999c0.613,-0.412 1.348,-0.935 2.019,-0.924c7.923,0.14 15.845,0.371 23.766,0.579c3.242,-0.916 6.476,-1.858 9.726,-2.745c4.02,-1.096 8.054,-2.147 12.182,-3.244c-0.961,-1.206 -2.423,-2.242 -2.527,-3.401c-0.1,-1.109 1.208,-2.347 1.877,-3.492c-6.572,-6.498 -5.494,-15.706 -7.836,-23.814c-2.137,0.526 -3.255,1.91 -3.93,3.683" style="fill:#fde98e;fill-rule:nonzero;"/>
    <path d="M80.017,217.759c3.733,-2.148 6.66,-4.987 8.63,-8.916c2.749,-5.486 7.435,-8.028 13.521,-8.011c2.133,0.006 4.264,0.137 6.396,0.211c0.102,0.248 0.204,0.496 0.306,0.745c-1.702,1.897 -3.273,3.937 -5.135,5.664c-3.95,3.665 -7.851,7.437 -12.159,10.645c-3.081,2.294 -6.928,3.007 -10.858,2.096c-0.477,-0.111 -0.954,-0.234 -1.419,-0.387c-0.248,-0.083 -0.471,-0.243 -1.2,-0.634c0.854,-0.635 1.35,-1.086 1.918,-1.413m-29.929,15.243c5.067,3.619 10.8,5.228 16.816,6.289c11.404,2.01 22.082,-0.506 32.429,-5.03c11.207,-4.9 22.25,-10.195 34.028,-13.668c0.254,-0.075 0.483,-0.233 1.261,-0.619c-7.593,-3.659 -15.335,-2.942 -23.557,-3.159c4.016,-5.311 7.876,-10.142 12.947,-13.42c5.012,-3.239 10.734,-5.378 16.237,-8.044c-1.811,-0.757 -3.931,-1.687 -6.086,-2.528c-1.243,-0.485 -2.56,-0.776 -3.806,-1.253c-0.514,-0.198 -0.929,-0.654 -1.389,-0.993c0.476,-0.356 0.902,-0.883 1.436,-1.041c6.537,-1.924 13.083,-3.813 19.638,-5.667c1.731,-0.489 3.504,-0.828 5.256,-1.235c-2.823,-0.583 -5.631,-1.006 -8.424,-1.27c-0.931,-0.087 -1.86,-0.157 -2.788,-0.209c-2.783,-0.157 -5.551,-0.154 -8.303,0.008c-8.256,0.486 -16.371,2.401 -24.336,5.727c-3.237,1.35 -6.251,3.223 -9.419,4.749c-0.921,0.444 -2.02,0.519 -3.038,0.763c-0.069,-1.049 -0.203,-2.099 -0.185,-3.148c0.012,-0.707 0.235,-1.41 0.438,-2.522c-0.66,0.481 -0.944,0.67 -1.209,0.883c-7.959,6.399 -16.877,11.209 -26.224,15.139c-3.35,1.408 -7.187,1.967 -10.851,2.231c-3.983,0.287 -7.616,-3.095 -7.739,-6.78c1.064,2.532 2.944,3.323 5.512,3.815c-1.923,-4.236 -3.674,-8.094 -5.52,-12.16c-1.072,0.833 -1.952,1.409 -2.704,2.119c-4.097,3.866 -7.44,8.305 -9.381,13.614c-1.794,4.909 -3.055,9.963 -2.18,15.285c2.676,4.995 6.557,8.849 11.141,12.124" style="fill:#fde98e;fill-rule:nonzero;"/>
    <path d="M129.179,124.171c-1.983,1.012 -3.725,1.107 -5.757,-0.03c-10.281,-5.746 -21.134,-10.243 -32.228,-14.125c-10.618,-3.716 -21.291,-7.311 -32.58,-8.511c-5.028,-0.534 -10.042,-1.183 -15.072,-1.68c-0.725,-0.072 -1.936,0.19 -2.19,0.679c-2.159,4.148 -4.147,8.385 -6.309,12.849c1.162,0 1.858,0.027 2.552,-0.004c16.516,-0.743 32.897,0.171 49.171,3.326c12.777,2.478 24.944,6.848 37.14,11.172c1.858,0.659 3.459,0.606 5.276,-0.114c5.362,-2.124 10.72,-4.293 16.198,-6.084c21.451,-7.015 43.539,-9.328 66.013,-8.59c1.043,0.034 2.087,0.004 3.554,0.004c-1.635,-4.375 -3.125,-8.456 -4.718,-12.496c-0.186,-0.473 -0.909,-0.953 -1.441,-1.032c-1.731,-0.255 -3.525,-0.627 -5.229,-0.418c-12.328,1.504 -24.417,4.086 -36.109,8.365c-13.094,4.791 -25.854,10.35 -38.271,16.689" style="fill:#dfd5dc;fill-rule:nonzero;"/>
    <path d="M204.874,23.92c-0.18,0.102 -0.362,0.201 -0.541,0.303c0.154,-0.087 0.31,-0.171 0.465,-0.258c0.025,-0.015 0.05,-0.03 0.076,-0.045" style="fill:#fcb9c4;fill-rule:nonzero;"/>
    <path d="M213.536,24.449l-10.473,9.684c0,0 3.717,-1.914 9.572,-1.914c0,0 -4.617,6.643 -10.022,8.895l3.716,2.14l-2.927,2.027l3.828,1.576l-11.148,5.067c0,0 3.717,1.689 8.896,0.676c0,0 -1.915,5.179 -6.643,7.994c-3.29,1.958 0.065,1.792 2.414,1.509c-0.512,0.49 -1.031,0.974 -1.558,1.453c9.095,-8.204 15.529,-18.346 20.809,-29.343c2.884,-6.008 5.865,-11.972 8.884,-17.914c0.853,-1.678 1.995,-3.209 3.003,-4.808c0.079,-0.077 0.158,-0.152 0.237,-0.228c-0.138,0.017 -0.276,0.035 -0.414,0.053c-0.276,0.042 -0.571,0.033 -0.823,0.134c-7.098,2.837 -13.997,6.042 -20.714,9.581l-5.195,6.233l8.558,-2.815Z" style="fill:#fcb9c4;fill-rule:nonzero;"/>
    <path d="M201.336,25.952c0.919,-0.54 1.84,-1.074 2.767,-1.6c-0.926,0.527 -1.849,1.059 -2.767,1.6" style="fill:#fcb9c4;fill-rule:nonzero;"/>
    <path d="M210.171,21.032c-1.779,0.937 -3.545,1.9 -5.297,2.887l-0.001,0.003c1.753,-0.986 3.518,-1.952 5.298,-2.89" style="fill:#fcb9c4;fill-rule:nonzero;"/>
    <path d="M192.181,31.646c-0.262,0.173 -0.523,0.35 -0.785,0.524c0.017,-0.012 0.034,-0.022 0.051,-0.033c0.245,-0.163 0.488,-0.329 0.734,-0.491" style="fill:#fcb9c4;fill-rule:nonzero;"/>
    <path d="M196.205,29.068c0.606,-0.378 1.212,-0.759 1.821,-1.131c-0.609,0.373 -1.215,0.752 -1.821,1.131" style="fill:#fcb9c4;fill-rule:nonzero;"/>
    <path d="M100.164,25.338c1.355,-0.366 2.703,-0.776 4.076,-1.053c1.786,-0.36 2.161,0.083 1.697,1.868c-1.831,7.054 0.273,13.293 3.98,19.197c0.103,0.163 0.312,0.26 0.745,0.607c8.567,-12.34 19.969,-20.302 35.109,-22.188c-0.463,-3.832 -0.455,-3.851 3.144,-2.356c1.412,0.587 2.781,1.277 4.17,1.92c-1.843,-3.317 -3.578,-6.704 -5.791,-9.886c-0.738,-1.061 -1.529,-2.099 -2.394,-3.104c-0.162,0.484 -0.254,0.676 -0.288,0.877c-0.837,4.858 -0.813,4.818 -5.035,2.298c-5.265,-3.141 -10.609,-6.171 -16.848,-6.9c-7.331,-0.858 -14.677,-1.586 -22.014,-2.389c-1.208,-0.132 -2.407,-0.362 -4.061,-0.615c0.687,2.212 1.044,4.103 1.857,5.77c0.831,1.699 0.509,2.832 -0.72,4.113c-3.773,3.938 -6.201,8.665 -7.761,13.854c-0.214,0.716 -0.399,1.44 -0.575,2.168c-0.176,0.727 -0.343,1.457 -0.526,2.182c2.142,-1.675 4.32,-3.291 6.699,-4.548c1.427,-0.756 2.927,-1.382 4.536,-1.815" style="fill:#fde98d;fill-rule:nonzero;"/>
    <path d="M88.93,31.701l-0.001,0l0.001,0.001l0,-0.001Z" style="fill:#fde98d;"/>
    <path d="M52.379,61.647c-0.238,-0.219 -0.477,-0.435 -0.712,-0.656c0.244,0.23 0.485,0.461 0.732,0.688c-0.003,-0.002 -0.006,-0.005 -0.008,-0.007l-0.012,-0.025Z" style="fill:#fcb9c4;fill-rule:nonzero;"/>
    <path d="M55.533,64.386c-0.237,-0.194 -0.476,-0.384 -0.71,-0.581c0.234,0.196 0.473,0.387 0.71,0.581" style="fill:#fcb9c4;fill-rule:nonzero;"/>
    <path d="M44.672,49.109l5.855,0c-6.606,-3.303 -8.408,-7.957 -8.408,-7.957l4.054,-0.15l-3.603,-3.153l4.354,-0.901c-4.955,-2.852 -7.657,-7.056 -7.657,-7.056l8.408,0.601l-7.808,-5.856l6.252,1.537c-5.419,-3.721 -10.731,-7.643 -16.43,-10.878c-4.013,-2.278 -8.642,-3.47 -12.996,-5.148c-0.067,0.236 -0.134,0.473 -0.2,0.708c2.535,3.699 5.173,7.331 7.585,11.109c5.221,8.18 10.166,16.539 15.522,24.628c3.076,4.644 6.554,8.931 10.441,12.815c-0.398,-0.399 -0.796,-0.799 -1.186,-1.207c-3.067,-4.724 -4.183,-9.092 -4.183,-9.092" style="fill:#fcb9c4;fill-rule:nonzero;"/>
    <path d="M58.375,66.604c-0.107,-0.079 -0.218,-0.156 -0.324,-0.236c0.106,0.08 0.217,0.157 0.324,0.236" style="fill:#fcb9c4;fill-rule:nonzero;"/>
    <path d="M238.606,4.805c-0.279,0.019 -0.559,0.038 -0.839,0.056c-0.148,0.013 -0.297,0.027 -0.446,0.04c-0.67,0.041 -1.342,0.082 -2.012,0.123c-0.464,0.019 -0.928,0.038 -1.391,0.057c-6.145,0.714 -12.34,1.143 -18.426,2.198c-17.299,2.997 -34.011,7.786 -49.008,17.34c-0.879,0.56 -1.732,1.213 -2.451,1.962c-2.006,2.094 -1.97,2.97 -0.009,5.19c3.154,3.571 6.307,7.143 9.452,10.723c2.921,3.326 8.524,3.167 11.503,-0.414c-0.516,-0.362 -0.994,-0.779 -1.541,-1.063c-0.807,-0.42 -1.705,-0.675 -2.485,-1.135c-0.607,-0.359 -1.479,-0.888 -1.527,-1.408c-0.054,-0.563 0.585,-1.369 1.136,-1.786c10.249,-7.728 21.054,-14.616 32.655,-20.092c7.596,-3.585 15.539,-6.434 23.327,-9.612c1.245,-0.591 2.49,-1.183 3.648,-1.733c-0.426,-0.12 -1.006,-0.282 -1.586,-0.446" style="fill:#fce88d;fill-rule:nonzero;"/>
    <path d="M97.881,38.793c0.585,7.22 3.173,13.503 8.605,18.435c2.292,2.079 4.903,3.661 8.016,4.683c1.207,-6.017 3.667,-11.182 7.359,-15.714c7.986,-9.803 18.497,-15.53 30.549,-18.747c0.627,-0.167 1.128,-0.808 1.687,-1.229c-2.104,-1.322 -4.209,-2.645 -6.988,-4.391c1.275,3.589 -0.597,3.434 -2.467,3.607c-6.071,0.564 -11.486,3.036 -16.743,5.958c-6.746,3.75 -11.699,9.331 -16.099,15.507c-1.243,1.745 -1.632,1.656 -2.814,-0.123c-3.357,-5.05 -5.103,-10.594 -5.175,-16.644c-0.016,-1.362 0.278,-2.728 0.466,-4.434c-6.15,1.535 -11.555,3.568 -15.182,8.754c-0.387,0.552 -0.856,1.044 -1.287,1.565c-0.29,1.191 -0.581,2.382 -0.909,3.728c-0.109,0.449 -0.223,0.914 -0.342,1.403c2.545,-1.767 4.59,-3.332 6.774,-4.671c3.96,-2.429 4.176,-2.298 4.55,2.313" style="fill:#fffab6;fill-rule:nonzero;"/>
    <path d="M15.026,7.757c0.661,0.01 1.317,0.046 1.951,0.183c9.72,2.102 18.214,6.75 26.098,12.669c2.494,1.872 5.006,3.721 7.523,5.563c2.517,1.843 5.039,3.679 7.553,5.526c0.778,-1.874 1.563,-3.745 2.343,-5.618c0.781,-1.873 1.558,-3.747 2.322,-5.626c1.008,-2.475 1.77,-2.927 4.352,-2.096c5.711,1.838 11.21,4.148 16.21,7.535c0.369,0.25 0.917,0.237 1.382,0.345c-2.117,-1.802 -4.038,-3.929 -6.386,-5.349c-7.983,-4.823 -16.644,-8.145 -25.602,-10.662c-12.287,-3.453 -24.873,-5.205 -37.548,-6.421c-3.425,-0.329 -6.834,-0.826 -10.259,-1.134c-0.792,-0.071 -2.085,-0.488 -2.064,1.147c3.38,1.305 6.758,2.611 10.138,3.917c0.657,0.028 1.325,0.011 1.987,0.021" style="fill:#fbe68c;fill-rule:nonzero;"/>
    <path d="M64.577,20.273c-1.702,4.065 -3.211,8.211 -4.774,12.333c1.617,1.045 3.24,2.082 4.857,3.127c1.619,1.045 3.232,2.096 4.832,3.167c0.52,0.349 1.143,1.083 1.099,1.585c-0.044,0.495 -0.801,1.067 -1.372,1.347c-1.347,0.661 -2.77,1.169 -4.261,1.778c4.307,4.028 7.785,4.065 11.302,0.219c1.66,-1.815 3.251,-3.699 4.774,-5.631c2.166,-2.748 3.689,-5.803 4.013,-9.357c-5.471,-4.199 -11.615,-7.062 -18.19,-9.016c-0.686,-0.204 -2.107,0.035 -2.28,0.448" style="fill:#fffab6;fill-rule:nonzero;"/>
    <path d="M63.741,240.239c9.554,1.915 18.899,1.474 28.029,-1.622c5.836,-1.978 11.408,-4.722 17.138,-7.027c7.419,-2.984 14.865,-5.898 22.323,-8.783c1.931,-0.748 3.946,-1.278 6.399,-2.058c-3.351,-3.297 -7.11,-4.329 -11.071,-4.696c-4.009,-0.372 -8.042,-0.485 -12.077,-0.712c7.055,-10.636 17.352,-16.081 29.502,-18.951c-3.366,-3.059 -7.41,-4.244 -11.391,-6.004c5.607,-1.849 11.208,-3.568 16.914,-4.8c0.463,-0.099 0.927,-0.188 1.395,-0.267c0.933,-0.159 1.875,-0.282 2.82,-0.384c0.947,-0.102 1.897,-0.184 2.848,-0.262c0.713,-0.058 1.427,-0.114 2.141,-0.174c0.712,-0.06 1.425,-0.125 2.134,-0.201c-0.853,-0.256 -1.707,-0.512 -2.56,-0.768c-0.996,-0.299 -1.991,-0.598 -2.987,-0.896c-1.753,0.408 -3.526,0.746 -5.255,1.236c-6.557,1.853 -13.103,3.742 -19.638,5.667c-0.535,0.156 -0.961,0.684 -1.437,1.04c0.46,0.338 0.874,0.796 1.389,0.993c1.246,0.477 2.563,0.769 3.805,1.253c2.156,0.841 4.276,1.771 6.087,2.528c-5.503,2.666 -11.226,4.805 -16.237,8.044c-5.071,3.278 -8.93,8.109 -12.947,13.421c8.222,0.216 15.963,-0.501 23.556,3.158c-0.777,0.385 -1.006,0.544 -1.26,0.619c-11.778,3.473 -22.821,8.768 -34.028,13.668c-10.347,4.524 -21.025,7.04 -32.429,5.03c-6.016,-1.061 -11.75,-2.671 -16.817,-6.29c-4.584,-3.273 -8.463,-7.128 -11.139,-12.123c-0.06,1.205 -0.118,2.409 -0.177,3.614c0.876,0.929 1.767,1.846 2.626,2.791c6.079,6.681 13.333,11.15 22.344,12.956" style="fill:#e8be74;fill-rule:nonzero;"/>
    <path d="M67.603,74.704c-2.605,-1.372 -5.436,-2.385 -7.866,-4.005c-9.801,-6.537 -17.527,-15.154 -23.887,-24.977c-5.309,-8.199 -10.238,-16.643 -15.512,-24.866c-2.231,-3.479 -4.909,-6.673 -7.389,-9.992c-0.3,-0.402 -0.594,-0.803 -0.759,-1.199c-0.081,-0.198 -0.13,-0.394 -0.131,-0.589c-0.002,-0.456 0.258,-0.904 0.98,-1.341c-3.38,-1.305 -6.759,-2.61 -10.138,-3.916c0.602,0.93 1.063,2.001 1.827,2.769c7.387,7.419 13.744,15.662 18.763,24.81c8.651,15.764 19.51,29.527 34.333,39.937c3.279,2.304 6.721,4.255 10.862,5.022c-0.197,-0.735 -0.547,-1.371 -1.083,-1.653" style="fill:#e5a86e;fill-rule:nonzero;"/>
    <path d="M148.093,67.528c3.255,-3.325 8.559,-3.244 11.868,0.254c2.854,3.018 3.98,6.716 4.003,10.803c0.016,3.616 -0.81,6.971 -3.023,9.902c-3.552,4.705 -9.252,4.964 -13.222,0.604c-5.01,-5.503 -4.824,-16.254 0.374,-21.563m-4.549,21.268c2.512,4.109 8.524,6.807 13.105,5.455c2.529,-0.745 4.828,-2.272 7.231,-3.447c0.428,-0.816 0.802,-1.668 1.293,-2.444c2.45,-3.87 2.184,-8.172 2.154,-12.48c-0.048,-6.813 -6.7,-11.473 -11.933,-11.828c-1.506,-0.103 -2.928,-0.042 -4.259,0.193c-0.998,0.177 -1.946,0.451 -2.838,0.828c-0.383,0.162 -0.752,0.349 -1.115,0.549c-0.419,0.231 -0.825,0.487 -1.217,0.771c-0.142,0.102 -0.283,0.21 -0.421,0.321c-0.431,0.342 -0.848,0.709 -1.242,1.119c-0.936,0.975 -1.767,2.146 -2.485,3.524l-0.001,0.001c-0.414,1.902 -0.932,3.789 -1.22,5.709c-0.647,4.297 0.746,8.127 2.948,11.729" style="fill:#f8f1ed;fill-rule:nonzero;"/>
    <path d="M91.566,67.975c3.36,-2.697 8.394,-2.187 11.18,1.139c2.605,3.11 3.718,6.722 3.612,10.754c-0.119,4.771 -1.404,9.06 -5.49,11.962c-3.29,2.337 -7.094,1.955 -10.05,-0.763c-6.1,-5.61 -5.701,-17.916 0.748,-23.092m1.488,27.247c4.826,1.174 9.074,-0.37 12.147,-4.011c5.188,-6.144 5.133,-13.266 2.824,-20.573c-0.287,-0.14 -0.692,-0.202 -0.845,-0.432c-4.707,-7.041 -17.132,-6.869 -22.313,1.087c-2.553,3.921 -1.817,8.233 -1.54,12.459c0.123,1.879 0.676,3.617 1.561,5.214c0.531,0.958 1.181,1.864 1.929,2.719c1.443,2.294 3.874,2.963 6.237,3.537" style="fill:#f8f1ed;fill-rule:nonzero;"/>
    <path d="M190.86,186.023c-4.982,-0.011 -9.965,-0.03 -14.945,0.043c-0.695,0.011 -1.383,0.518 -2.074,0.795c3.913,2.065 7.476,4.574 10.791,7.542c1.99,1.781 3.889,3.728 5.722,5.843c4.172,-9.156 8.181,-17.955 12.221,-26.819c-1.783,-0.589 -3.158,-1.042 -4.532,-1.496c-1.137,3.802 -2.28,7.601 -3.41,11.405c-0.561,1.888 -1.855,2.692 -3.773,2.687" style="fill:#955996;fill-rule:nonzero;"/>
    <path d="M142.556,105.746c-0.704,-0.01 -1.495,0.299 -2.109,0.68c-2.116,1.313 -4.158,2.746 -6.258,4.087c-0.826,0.528 -1.726,0.942 -2.6,1.392c-1.883,0.972 -2.799,2.397 -2.505,4.613c0.204,1.54 0.123,3.117 0.169,4.678c11.079,-4.896 22.157,-9.792 33.234,-14.689c-0.246,-0.113 -0.49,-0.32 -0.739,-0.327c-6.397,-0.168 -12.794,-0.338 -19.192,-0.434" style="fill:#fffab6;fill-rule:nonzero;"/>
    <path d="M220.338,43.663c4.492,-8.047 8.638,-16.286 13.097,-24.352c2.7,-4.885 5.703,-9.602 8.809,-14.794c-0.391,0.03 -0.748,0.059 -1.081,0.085c-1,0.08 -1.779,0.141 -2.557,0.203c0.58,0.163 1.16,0.327 1.586,0.447c-1.158,0.549 -2.403,1.14 -3.648,1.731c0.487,1.453 0.122,2.606 -0.799,3.888c-4.312,6.003 -8.57,12.063 -11.202,19.056c-3.021,8.025 -7.15,15.458 -12.101,22.425c-5.002,7.04 -10.599,13.572 -18.21,17.925c-3.214,1.838 -6.773,3.068 -10.153,4.622c-0.539,0.247 -0.961,0.749 -1.437,1.133c0.168,0.21 0.336,0.42 0.504,0.63c6.183,-2.129 12.275,-4.507 17.36,-8.791c8.104,-6.826 14.678,-14.975 19.832,-24.208" style="fill:#e5a86e;fill-rule:nonzero;"/>
    <path d="M60.982,200.729c0.32,0.691 1.199,1.666 1.75,1.623c3.313,-0.263 6.539,-0.877 9.477,-2.339c0.979,-0.488 1.926,-1.07 2.833,-1.764c-5.94,-0.423 -10.38,-3.215 -13.541,-8.274c-3.616,-5.787 -6.818,-11.735 -8.572,-18.388c-0.017,-0.064 -0.045,-0.125 -0.084,-0.183c-0.076,-0.117 -0.19,-0.224 -0.325,-0.325c-0.271,-0.202 -0.626,-0.382 -0.928,-0.577c-0.075,-0.048 -0.147,-0.097 -0.214,-0.148c-0.525,0.336 -1.049,0.671 -1.587,1.015c-0.537,0.342 -1.086,0.694 -1.66,1.062c1.565,3.405 3.159,6.825 4.711,10.263c2.715,6.011 5.375,12.047 8.14,18.035" style="fill:#955996;fill-rule:nonzero;"/>
    <path d="M104.277,25.701c-0.188,1.706 -0.482,3.072 -0.466,4.435c0.073,6.049 1.818,11.593 5.175,16.643c1.182,1.778 1.571,1.868 2.814,0.124c4.4,-6.176 9.353,-11.758 16.099,-15.508c5.257,-2.922 10.672,-5.394 16.743,-5.957c1.87,-0.174 3.742,-0.019 2.467,-3.608c2.779,1.746 4.884,3.069 6.988,4.391c-0.337,-0.962 -0.674,-1.925 -1.012,-2.888c-1.389,-0.643 -2.758,-1.333 -4.17,-1.92c-3.599,-1.494 -3.607,-1.476 -3.144,2.357c-15.141,1.885 -26.542,9.847 -35.109,22.187c-0.432,-0.346 -0.642,-0.443 -0.745,-0.607c-3.707,-5.904 -5.811,-12.142 -3.98,-19.197c0.464,-1.785 0.09,-2.228 -1.697,-1.868c-1.374,0.278 -2.721,0.688 -4.076,1.053c-1.61,0.434 -3.11,1.06 -4.537,1.814c-2.379,1.259 -4.555,2.874 -6.697,4.55l0.048,-0.005c-0.189,0.152 -0.377,0.304 -0.566,0.456c-0.004,0.023 -0.007,0.046 -0.011,0.069c-0.197,1.266 -0.395,2.532 -0.593,3.798c0.431,-0.521 0.9,-1.014 1.287,-1.565c3.627,-5.185 9.032,-7.219 15.182,-8.754" style="fill:#e8be74;fill-rule:nonzero;"/>
    <path d="M147.449,36.307c5.423,-0.896 10.902,-1.938 16.376,-0.11c0.235,0.078 0.577,-0.169 0.871,-0.264c-1.776,-1.358 -3.561,-2.705 -5.326,-4.078c-2.545,-1.982 -5.33,-2.285 -8.357,-1.346c-9.264,2.872 -17.661,7.214 -24.465,14.291c0.449,-0.056 0.993,0.033 1.332,-0.19c6.027,-3.949 12.41,-7.119 19.569,-8.303" style="fill:#e7af72;fill-rule:nonzero;"/>
    <path d="M30.654,148.155c0.997,-0.082 1.994,-0.159 2.988,-0.251c1.988,-0.184 3.963,-0.425 5.892,-0.868c3.193,-0.732 6.167,-2.417 9.238,-3.68c-7.399,-0.176 -14.909,0.172 -21.342,-4.534c-0.206,0.174 -0.408,0.279 -0.51,0.446c-0.181,0.296 -0.306,0.628 -0.444,0.949c-0.874,2.048 -0.602,3.93 0.08,5.753c0.31,0.828 0.705,1.644 1.115,2.458c0.991,-0.107 1.986,-0.192 2.983,-0.273" style="fill:#fbe68c;fill-rule:nonzero;"/>
    <path d="M212.443,142.313c-1.401,0.023 -2.802,0.062 -4.202,0.106c-1.401,0.043 -2.801,0.092 -4.201,0.133c0.063,0.459 0.176,0.864 0.319,1.239c0.119,0.309 0.254,0.6 0.427,0.852c0.64,0.932 1.657,1.482 3.07,1.671c3.535,0.471 7.06,1.015 10.584,1.563c0.684,0.107 1.344,0.371 2.015,0.563c0.205,-0.197 0.4,-0.398 0.586,-0.602c0.56,-0.609 1.039,-1.242 1.433,-1.887c0.525,-0.86 0.898,-1.74 1.111,-2.611c0.426,-1.742 0.208,-3.451 -0.732,-4.894c-3.083,2.293 -6.485,3.803 -10.41,3.867" style="fill:#fbe68c;fill-rule:nonzero;"/>
    <path d="M203.539,152.289c1.315,4.77 5.089,6.072 9.377,6.682c0.425,0.061 0.811,0.383 1.215,0.584c0.265,0.009 0.53,0.018 0.794,0.028c0.19,-0.034 0.381,-0.068 0.571,-0.102c1.373,-1.317 1.761,-2.906 1.883,-4.607c0.04,-0.567 0.051,-1.147 0.06,-1.733c-3.314,-0.213 -6.439,-0.419 -9.565,-0.614c-1.445,-0.09 -2.89,-0.159 -4.335,-0.238" style="fill:#fbe68c;fill-rule:nonzero;"/>
    <path d="M165.123,38.2c0.384,0.142 0.804,0.182 1.221,0.232c0.139,0.018 0.278,0.036 0.415,0.058c-0.096,-0.118 -0.192,-0.237 -0.288,-0.356c-0.592,-0.734 -1.183,-1.467 -1.776,-2.201c-0.292,0.096 -0.636,0.342 -0.87,0.264c-5.473,-1.829 -10.953,-0.786 -16.375,0.111c-7.161,1.183 -13.543,4.353 -19.569,8.302c-0.34,0.223 -0.885,0.134 -1.333,0.19c-1.138,1.66 -2.275,3.319 -3.412,4.979c6.117,-4.753 12.64,-8.811 20.141,-10.974c7.201,-2.077 14.481,-3.331 21.846,-0.605" style="fill:#e8be74;fill-rule:nonzero;"/>
    <path d="M139.377,105.424c-1.428,0.963 -2.745,2.1 -4.21,2.998c-1.73,1.061 -3.735,1.736 -5.302,2.98c-1.039,0.825 -1.892,2.278 -2.166,3.588c-0.232,1.108 -0.332,2.245 -0.395,3.388c-0.063,1.144 -0.088,2.296 -0.167,3.437c0.195,-0.058 0.392,-0.115 0.588,-0.173c0.51,-0.149 1.019,-0.297 1.528,-0.447c-0.046,-1.56 0.035,-3.138 -0.169,-4.677c-0.294,-2.216 0.623,-3.641 2.505,-4.612c0.873,-0.452 1.774,-0.866 2.601,-1.393c2.099,-1.341 4.14,-2.774 6.257,-4.087c0.614,-0.381 1.405,-0.69 2.109,-0.68c6.398,0.096 12.795,0.266 19.192,0.434c0.249,0.006 0.493,0.213 0.74,0.327c0.892,-0.476 1.783,-0.951 2.674,-1.428c-7.921,-0.207 -15.843,-0.439 -23.766,-0.579c-0.671,-0.012 -1.406,0.512 -2.019,0.924" style="fill:#e8be74;fill-rule:nonzero;"/>
    <path d="M39.352,158.5c0.888,-0.209 1.778,-0.411 2.664,-0.628c1.397,-0.342 2.793,-0.694 4.189,-1.041c0.448,-0.494 0.896,-0.989 1.344,-1.483c-0.101,-0.314 -0.201,-0.628 -0.302,-0.942c0.253,-0.609 0.507,-1.218 0.759,-1.827c-4.575,0.399 -9.15,0.798 -13.899,1.213c0.264,1.756 -0.142,3.744 1.839,4.936c0.926,-0.114 1.852,-0.227 2.778,-0.34c0.21,0.037 0.419,0.074 0.628,0.112" style="fill:#fbe68c;fill-rule:nonzero;"/>
    <path d="M52.845,171.404c0.038,0.058 0.067,0.119 0.083,0.183c1.755,6.653 4.956,12.601 8.573,18.388c3.161,5.06 7.601,7.85 13.542,8.274c0.014,-0.008 0.028,-0.016 0.043,-0.025c0.567,-0.322 1.136,-0.645 1.703,-0.969c-0.479,-0.097 -0.956,-0.197 -1.436,-0.287c-3.678,-0.689 -7.593,-1.219 -9.948,-4.446c-2.712,-3.719 -5.232,-7.646 -7.29,-11.755c-0.964,-1.925 -1.75,-3.938 -2.486,-5.976c-0.736,-2.038 -1.422,-4.101 -2.186,-6.126c-0.689,0.564 -1.377,1.126 -2.065,1.689c0.067,0.051 0.139,0.1 0.215,0.149c0.301,0.193 0.656,0.373 0.927,0.576c0.135,0.101 0.249,0.208 0.325,0.325" style="fill:#801a3c;fill-rule:nonzero;"/>
    <path d="M205.603,162.218c-0.693,0.033 -1.386,0.066 -2.079,0.099c-0.273,1.017 -0.489,1.852 -0.623,2.542c-0.133,0.69 -0.184,1.235 -0.127,1.674c0.039,0.292 0.126,0.538 0.267,0.747c0.568,0.835 2.025,1.091 4.851,1.483c0.813,0.112 1.597,0.423 2.394,0.641c0.324,-0.185 0.597,-0.386 0.827,-0.601c0.346,-0.322 0.597,-0.675 0.78,-1.051c0.671,-1.382 0.435,-3.08 0.643,-4.728c-2.311,-0.273 -4.384,-0.518 -6.458,-0.762c-0.158,-0.015 -0.317,-0.03 -0.475,-0.044" style="fill:#fbe68c;fill-rule:nonzero;"/>
    <path d="M67.168,18.358c-2.583,-0.831 -3.344,-0.379 -4.351,2.096c-0.765,1.879 -1.542,3.754 -2.322,5.626c-0.781,1.873 -1.566,3.744 -2.345,5.618c0.551,0.303 1.102,0.606 1.652,0.908c1.564,-4.123 3.074,-8.268 4.775,-12.333c0.173,-0.412 1.594,-0.652 2.281,-0.448c6.574,1.954 12.718,4.817 18.189,9.017c-0.096,-0.868 -0.192,-1.736 -0.287,-2.603c-0.465,-0.11 -1.013,-0.096 -1.383,-0.347c-4.999,-3.387 -10.498,-5.695 -16.209,-7.534" style="fill:#e8be74;fill-rule:nonzero;"/>
    <path d="M203.539,152.289c-0.267,0.13 -0.75,0.399 -0.77,0.369c-1.772,-2.743 -2.251,-0.254 -2.732,0.788c-1.51,3.274 -0.426,5.196 3.123,5.791c1.801,0.302 3.606,0.711 5.419,0.762c0.461,0.012 0.923,0.001 1.385,-0.025c1.388,-0.08 2.779,-0.296 4.167,-0.419c-0.404,-0.201 -0.79,-0.523 -1.215,-0.584c-4.288,-0.61 -8.062,-1.912 -9.377,-6.682" style="fill:#e5a86e;fill-rule:nonzero;"/>
    <path d="M188.473,184.739c-5.702,0.021 -11.403,0.05 -17.105,0.076c0.42,0.348 0.84,0.695 1.26,1.043c0.405,0.334 0.809,0.669 1.213,1.003c0.692,-0.277 1.379,-0.785 2.074,-0.795c4.981,-0.072 9.963,-0.054 14.945,-0.043c1.918,0.004 3.212,-0.8 3.773,-2.687c1.13,-3.804 2.273,-7.604 3.41,-11.406c-0.535,-0.523 -1.07,-1.047 -1.607,-1.572c-0.753,3.414 -1.358,6.868 -2.3,10.229c-1.08,3.855 -1.654,4.137 -5.663,4.152" style="fill:#801a3c;fill-rule:nonzero;"/>
    <path d="M207.294,147.592c-2.68,-0.391 -4.239,-1.962 -4.666,-4.645c-0.899,-0.116 -1.434,0.077 -1.769,0.438c-0.056,0.06 -0.106,0.125 -0.151,0.194c-0.092,0.138 -0.163,0.292 -0.221,0.457c-0.058,0.165 -0.103,0.341 -0.141,0.522c-0.038,0.182 -0.069,0.369 -0.098,0.558c-0.044,0.282 -0.085,0.566 -0.144,0.834c-0.328,1.488 -0.049,2.726 1.727,2.92c4.991,0.547 9.985,1.073 14.988,1.496c0.752,0.063 1.556,-0.471 2.336,-0.729c-1.879,-0.42 -3.745,-0.919 -5.64,-1.242c-2.06,-0.35 -4.152,-0.501 -6.221,-0.803" style="fill:#e7af72;fill-rule:nonzero;"/>
    <path d="M45.626,150.113c2.966,-0.677 3.944,-0.996 4.379,-2.865c0.072,-0.312 0.13,-0.666 0.179,-1.073c0.049,-0.406 0.09,-0.865 0.129,-1.384c-0.806,0.238 -1.712,0.315 -2.401,0.741c-5.242,3.24 -11.12,3.46 -17.003,3.752c-0.248,0.013 -0.49,0.13 -0.732,0.275c-0.241,0.146 -0.481,0.32 -0.723,0.444c0.188,0.078 0.376,0.188 0.564,0.278c0.189,0.092 0.378,0.165 0.568,0.171c5.016,0.147 10.022,0.805 15.04,-0.339" style="fill:#e7af72;fill-rule:nonzero;"/>
    <path d="M96.031,48.358c0.514,0.709 1.122,1.349 1.687,2.02c-0.928,-3.901 -1.855,-7.801 -2.795,-11.75c-1.859,0.855 -3.517,1.926 -4.894,3.282c-1.376,1.356 -2.471,3 -3.201,5.003c0.712,-0.246 1.428,-0.482 2.136,-0.74c3.088,-1.129 5.131,-0.486 7.067,2.185" style="fill:#e5a86e;fill-rule:nonzero;"/>
    <path d="M50.028,158.921c0.422,-2.305 0.195,-4.727 -2.022,-6.342c-0.252,0.609 -0.506,1.218 -0.759,1.827c0.101,0.314 0.201,0.628 0.302,0.942c-0.448,0.495 -0.896,0.989 -1.343,1.483l-0.001,0c-1.396,0.347 -2.792,0.699 -4.189,1.04c-0.886,0.217 -1.776,0.42 -2.664,0.629c-0.222,0.124 -0.444,0.247 -0.667,0.371c0.014,-0.161 0.027,-0.322 0.039,-0.483c-0.926,0.113 -1.852,0.226 -2.778,0.339c0.557,0.505 1.071,1.381 1.678,1.451c3.167,0.366 6.359,0.702 9.536,0.658c1.011,-0.014 2.718,-1.095 2.868,-1.915" style="fill:#e5a86e;fill-rule:nonzero;"/>
    <path d="M30.909,149.284c5.882,-0.292 11.761,-0.512 17.003,-3.752c0.689,-0.426 1.595,-0.503 2.4,-0.74c0.068,-0.202 0.111,-0.378 0.133,-0.53c0.023,-0.152 0.023,-0.282 0.006,-0.391c-0.018,-0.11 -0.054,-0.2 -0.106,-0.273c-0.258,-0.366 -0.903,-0.317 -1.572,-0.242c-3.072,1.263 -6.046,2.948 -9.239,3.68c-1.929,0.443 -3.904,0.684 -5.893,0.868c-0.993,0.092 -1.991,0.169 -2.988,0.251c-0.996,0.081 -1.992,0.166 -2.982,0.273c0.594,0.525 1.188,1.05 1.782,1.575c0.243,-0.125 0.483,-0.298 0.724,-0.444c0.242,-0.145 0.484,-0.263 0.732,-0.275" style="fill:#e8be74;fill-rule:nonzero;"/>
    <path d="M84.55,47.179c-0.142,-0.616 -0.386,-1.228 -0.406,-1.847c-0.057,-1.686 -0.021,-3.376 -0.021,-5.442c-2.162,2.044 -3.777,4.212 -5.015,6.536c-0.743,1.395 -1.349,2.846 -1.855,4.359c2.364,-1.338 4.073,-4.006 7.297,-3.606" style="fill:#e5a86e;fill-rule:nonzero;"/>
    <path d="M201.835,163.395c0.117,-0.607 0.229,-1.215 0.343,-1.824c-0.467,-0.075 -0.839,-0.038 -1.149,0.07c-0.083,0.029 -0.162,0.063 -0.236,0.102c-0.172,0.092 -0.321,0.208 -0.453,0.344c-0.217,0.224 -0.391,0.495 -0.543,0.788c-0.26,0.5 -0.466,1.053 -0.751,1.493c-1.883,2.915 -0.869,5.405 2.559,5.999c1.583,0.275 3.218,0.253 4.849,0.258c0.543,0.001 1.086,0.005 1.627,0.024c-0.425,-0.232 -0.833,-0.627 -1.277,-0.67c-4.874,-0.478 -5.887,-1.799 -4.969,-6.584" style="fill:#e5a86e;fill-rule:nonzero;"/>
    <path d="M207.857,146.314c-1.414,-0.189 -2.432,-0.739 -3.071,-1.671c-0.173,-0.252 -0.309,-0.543 -0.427,-0.852c-0.143,-0.375 -0.256,-0.78 -0.32,-1.239c-0.048,0.013 -0.096,0.027 -0.145,0.041c-0.422,0.118 -0.844,0.236 -1.266,0.355c0.427,2.682 1.986,4.252 4.666,4.644c2.069,0.303 4.161,0.453 6.221,0.804c1.895,0.322 3.761,0.821 5.64,1.242c0.433,-0.399 0.867,-0.799 1.3,-1.198c-0.671,-0.192 -1.331,-0.456 -2.015,-0.563c-3.523,-0.548 -7.048,-1.092 -10.583,-1.563" style="fill:#e8be74;fill-rule:nonzero;"/>
    <path d="M48.949,169.133c0.331,-0.202 0.629,-0.436 0.88,-0.698c0.25,-0.263 0.454,-0.556 0.599,-0.878c0.562,-1.248 -0.06,-3.03 -0.146,-4.569c-0.352,0.046 -0.704,0.093 -1.056,0.139c0.06,1.683 -0.242,2.859 -1.012,3.666c-0.096,0.101 -0.2,0.196 -0.311,0.286c-0.222,0.178 -0.474,0.336 -0.759,0.473c-0.71,0.343 -1.62,0.562 -2.755,0.69c-0.842,0.095 -1.636,0.617 -2.452,0.944c1.175,0.828 2.966,1.066 4.622,0.792c0.074,-0.012 0.147,-0.027 0.222,-0.041c0.58,-0.113 1.141,-0.286 1.646,-0.523c0.181,-0.086 0.356,-0.18 0.522,-0.281" style="fill:#e5a86e;fill-rule:nonzero;"/>
    <path d="M47.633,165.047c0.783,-1.043 0.213,-1.491 -0.914,-1.482l-6.444,0c0.198,1.379 0.373,2.601 0.548,3.823c1.656,-0.272 3.342,-0.431 4.953,-0.867c0.708,-0.192 1.391,-0.854 1.857,-1.474" style="fill:#fbe68c;fill-rule:nonzero;"/>
    <path d="M203.041,167.28c-0.142,-0.209 -0.228,-0.454 -0.267,-0.746c-0.057,-0.44 -0.007,-0.985 0.127,-1.675c0.133,-0.69 0.349,-1.525 0.623,-2.542c-0.448,-0.248 -0.897,-0.497 -1.345,-0.745c-0.114,0.607 -0.228,1.215 -0.344,1.824c-0.919,4.785 0.095,6.105 4.97,6.583c0.442,0.044 0.851,0.438 1.276,0.67c0.512,-0.289 1.024,-0.578 1.536,-0.867c0.224,-0.126 0.446,-0.252 0.67,-0.378c-0.798,-0.218 -1.583,-0.528 -2.394,-0.641c-2.828,-0.392 -4.284,-0.648 -4.852,-1.483" style="fill:#e8be74;fill-rule:nonzero;"/>
    <path d="M47.144,167.552c0.285,-0.137 0.537,-0.294 0.759,-0.473c0.111,-0.09 0.215,-0.185 0.311,-0.286c0.77,-0.806 1.072,-1.983 1.012,-3.666c-0.773,0.135 -1.547,0.27 -2.321,0.405c-0.062,0.011 -0.124,0.022 -0.187,0.033c1.128,-0.009 1.698,0.439 0.915,1.482c-0.465,0.62 -1.149,1.282 -1.857,1.474c-1.611,0.437 -3.297,0.595 -4.953,0.867c0.371,0.599 0.742,1.198 1.114,1.798c0.816,-0.327 1.61,-0.848 2.452,-0.943c1.135,-0.129 2.045,-0.347 2.755,-0.691" style="fill:#e8be74;fill-rule:nonzero;"/>
    <path d="M87.479,213.419c0.894,-0.939 1.495,-2.188 2.108,-3.358c2.424,-4.63 6.036,-7.429 11.412,-7.659c1.665,-0.072 3.324,-0.269 4.985,-0.408c0.097,0.189 0.195,0.377 0.292,0.566c-1.813,1.996 -3.533,4.087 -5.463,5.963c-2.504,2.434 -5.063,4.839 -7.803,6.995c-3.261,2.567 -7.006,3.916 -11.337,3.357c2.018,-1.874 4.011,-3.57 5.806,-5.456m-6.761,6.774c3.931,0.911 7.777,0.199 10.858,-2.096c4.308,-3.209 8.209,-6.98 12.159,-10.646c1.862,-1.726 3.433,-3.765 5.136,-5.663c-0.102,-0.249 -0.205,-0.497 -0.307,-0.745c-2.132,-0.074 -4.264,-0.205 -6.395,-0.211c-6.087,-0.017 -10.773,2.525 -13.522,8.011c-1.97,3.929 -4.897,6.768 -8.63,8.916c-0.567,0.327 -1.064,0.778 -1.918,1.413c0.73,0.39 0.952,0.551 1.201,0.633c0.464,0.154 0.941,0.277 1.418,0.388" style="fill:#e8be74;fill-rule:nonzero;"/>
    <path d="M118.935,99.727c-1.787,0.855 -2.244,2.13 -1.529,3.833c0.186,-0.254 0.336,-0.476 0.506,-0.684c1.933,-2.37 2.129,-2.339 4.843,-0.731c0.503,0.299 1.573,0.073 2.157,-0.281c1.497,-0.906 2.868,-2.02 4.239,-3.016c-3.205,-0.859 -6.776,-0.766 -10.216,0.879" style="fill:#f8f1ed;fill-rule:nonzero;"/>
    <path d="M93.01,215.519c2.74,-2.157 5.299,-4.562 7.803,-6.996c1.93,-1.876 3.65,-3.968 5.463,-5.964c-0.098,-0.188 -0.195,-0.377 -0.293,-0.565c-1.661,0.139 -3.319,0.336 -4.983,0.407c-5.377,0.23 -8.988,3.029 -11.412,7.659c-0.614,1.172 -1.215,2.42 -2.109,3.359c-1.795,1.885 -3.789,3.582 -5.807,5.456c4.332,0.559 8.076,-0.79 11.338,-3.356" style="fill:#fffab6;fill-rule:nonzero;"/>
    <path d="M154.039,89.808c2.936,0.045 5.939,-2.661 5.991,-5.397c0.06,-3.18 -2.779,-6.069 -6.009,-6.115c-3.321,-0.049 -5.883,2.459 -5.933,5.806c-0.042,2.794 2.947,5.661 5.951,5.706" style="fill:#fff;fill-rule:nonzero;"/>
    <path d="M155.129,73.915c0.885,0.149 1.803,0.102 2.479,0.133c0.331,0.986 0.457,1.79 0.876,2.389c0.158,0.226 1.421,0.064 1.448,-0.07c0.143,-0.698 0.054,-1.444 0.036,-2.174c-0.006,-0.226 -0.145,-0.51 -0.052,-0.667c1.12,-1.906 -0.419,-3.346 -1.528,-3.561c-1.406,-0.274 -3.289,0.35 -4.524,1.218c-1.071,0.752 -0.203,2.486 1.265,2.732" style="fill:#dfd5dc;fill-rule:nonzero;"/>
    <path d="M96.444,90.959c3.068,-0.054 6.161,-3.135 6.12,-6.097c-0.045,-3.273 -2.784,-5.785 -6.267,-5.747c-3.398,0.038 -6.218,2.744 -6.17,5.921c0.044,2.922 3.302,5.976 6.317,5.923" style="fill:#fff;fill-rule:nonzero;"/>
    <path d="M98.849,76.047c2.506,0.048 3.52,-0.782 3.491,-2.76c-0.024,-1.582 -1.023,-1.956 -2.393,-1.965c-2.672,-0.016 -4.534,0.99 -4.414,2.562c0.169,2.199 1.97,1.984 3.316,2.163" style="fill:#dfd5dc;fill-rule:nonzero;"/>
    <path d="M101.145,78.176c0.478,0.399 0.947,1.095 1.439,1.113c0.458,0.016 0.942,-0.69 1.726,-1.334c-0.833,-0.592 -1.458,-1.331 -1.805,-1.217c-0.551,0.181 -0.916,0.929 -1.36,1.438" style="fill:#dfd5dc;fill-rule:nonzero;"/>
    <path d="M186.664,35.402c1.342,-0.946 2.696,-1.869 4.057,-2.78c-1.36,0.912 -2.715,1.834 -4.057,2.78" style="fill:#e8be74;fill-rule:nonzero;"/>
    <path d="M201.037,29.516l5.63,-1.576l-6.306,7.657c0,0 4.73,-1.464 9.008,-1.464c0,0 -7.094,5.856 -10.697,7.206l3.603,1.689l-2.251,2.928l2.589,0.789l-9.796,5.179c0,0 2.59,2.815 8.671,2.702c0,0 -4.842,6.869 -6.757,7.657c-1.436,0.592 1.948,1.501 3.725,1.917c-0.303,0.266 -0.601,0.536 -0.91,0.798c0.559,-0.473 1.107,-0.955 1.645,-1.442c0.527,-0.479 1.046,-0.963 1.558,-1.454c-2.349,0.284 -5.704,0.45 -2.414,-1.508c4.728,-2.815 6.643,-7.994 6.643,-7.994c-5.179,1.013 -8.896,-0.676 -8.896,-0.676l11.148,-5.067l-3.828,-1.576l2.927,-2.028l-3.716,-2.139c5.405,-2.252 10.022,-8.895 10.022,-8.895c-5.855,0 -9.572,1.914 -9.572,1.914l10.473,-9.684l-8.558,2.815l5.194,-6.233l0.001,0c-0.001,0.001 -0.002,0.001 -0.002,0.001c-1.78,0.938 -3.544,1.904 -5.298,2.89l-3.836,5.594Z" style="fill:#e8be74;fill-rule:nonzero;"/>
    <path d="M204.798,23.964c-0.155,0.087 -0.311,0.172 -0.465,0.26c-0.077,0.042 -0.154,0.084 -0.23,0.128c-0.927,0.526 -1.848,1.06 -2.767,1.6c-0.361,0.211 -0.719,0.428 -1.078,0.642c1.503,-0.895 3.017,-1.771 4.54,-2.63" style="fill:#e8be74;fill-rule:nonzero;"/>
    <path d="M200.175,26.644c-0.718,0.428 -1.436,0.857 -2.15,1.293c-0.609,0.373 -1.214,0.752 -1.819,1.132c-1.35,0.844 -2.693,1.701 -4.025,2.577c-0.245,0.162 -0.489,0.328 -0.734,0.491c2.87,-1.904 5.779,-3.736 8.728,-5.493" style="fill:#e8be74;fill-rule:nonzero;"/>
    <path d="M187.343,44.608c-3.418,1.736 -6.909,3.329 -10.076,4.842c1.69,7.538 3.433,15.307 5.176,23.074c4.297,-0.823 11.213,-4.234 15.103,-7.526c0.31,-0.262 0.607,-0.532 0.91,-0.797c-1.778,-0.417 -5.162,-1.326 -3.725,-1.917c1.914,-0.789 6.756,-7.657 6.756,-7.657c-6.081,0.112 -8.67,-2.703 -8.67,-2.703l9.796,-5.18l-2.59,-0.788l2.253,-2.927l-3.604,-1.689c3.604,-1.352 10.697,-7.207 10.697,-7.207c-4.279,0 -9.008,1.464 -9.008,1.464l6.306,-7.657l-5.63,1.577l3.836,-5.594l0.001,-0.003l0,0c-0.026,0.015 -0.051,0.03 -0.076,0.045c-1.523,0.858 -3.037,1.734 -4.541,2.629c-0.027,0.017 -0.054,0.034 -0.082,0.05c-2.949,1.758 -5.858,3.589 -8.728,5.493c-0.017,0.011 -0.034,0.022 -0.051,0.033c-0.226,0.15 -0.45,0.301 -0.675,0.452c-1.361,0.911 -2.715,1.834 -4.057,2.78c-1.041,0.734 -1.995,1.59 -3.018,2.412c1.568,1.255 2.967,2.209 4.161,3.373c1.526,1.487 1.4,2.475 -0.464,3.421" style="fill:#fffab6;fill-rule:nonzero;"/>
    <path d="M54.08,63.163c-0.42,-0.363 -0.836,-0.73 -1.248,-1.102c0.411,0.372 0.828,0.739 1.248,1.102" style="fill:#e8be74;fill-rule:nonzero;"/>
    <path d="M61.368,68.709c-0.717,-0.476 -1.419,-0.967 -2.114,-1.465c0.695,0.498 1.397,0.989 2.114,1.465" style="fill:#e8be74;fill-rule:nonzero;"/>
    <path d="M54.665,63.669c0.053,0.045 0.105,0.091 0.158,0.136c0.234,0.197 0.474,0.387 0.709,0.581c0.346,0.283 0.691,0.566 1.042,0.843c-0.646,-0.51 -1.283,-1.03 -1.909,-1.56" style="fill:#e8be74;fill-rule:nonzero;"/>
    <path d="M47.449,51.248l6.419,-1.238l-9.347,-7.657l4.842,-0.563l-2.927,-3.378l3.603,-0.788l-7.207,-6.306l8.333,0l-3.941,-3.266l2.132,0.356c-0.879,-0.605 -1.755,-1.218 -2.637,-1.82c-0.201,-0.137 -0.4,-0.276 -0.6,-0.414l-6.252,-1.537l7.807,5.855l-8.407,-0.601c0,0 2.702,4.204 7.656,7.057l-4.353,0.901l3.603,3.153l-4.053,0.15c0,0 1.801,4.654 8.407,7.957l-5.855,0c0,0 1.116,4.368 4.183,9.093c0.39,0.407 0.787,0.807 1.186,1.206c0.535,0.535 1.076,1.064 1.626,1.583c0.235,0.221 0.475,0.437 0.712,0.655l-4.93,-10.398Z" style="fill:#e8be74;fill-rule:nonzero;"/>
    <path d="M49.378,28.423c4.844,3.333 9.665,6.7 14.497,10.05c-4.832,-3.35 -9.653,-6.717 -14.497,-10.05" style="fill:#e8be74;fill-rule:nonzero;"/>
    <path d="M57.074,65.616c0.325,0.252 0.647,0.505 0.976,0.752c0.108,0.08 0.217,0.157 0.325,0.236c0.097,0.072 0.196,0.143 0.293,0.214c-0.537,-0.394 -1.069,-0.795 -1.594,-1.202" style="fill:#e8be74;fill-rule:nonzero;"/>
    <path d="M62.689,41.655c1.059,-0.491 2.142,-0.934 3.573,-1.555c-1.025,-0.698 -1.71,-1.157 -2.387,-1.627c-4.832,-3.349 -9.652,-6.717 -14.497,-10.05c-0.007,-0.004 -0.015,-0.01 -0.021,-0.015l-0.001,0l-2.132,-0.355l3.941,3.265l-8.333,0l7.207,6.306l-3.604,0.788l2.928,3.378l-4.842,0.563l9.346,7.657l-6.418,1.239l4.93,10.398l0.012,0.025c0.002,0.002 0.005,0.005 0.008,0.007c0.141,0.13 0.29,0.253 0.433,0.382c0.412,0.372 0.827,0.739 1.248,1.101c0.195,0.169 0.388,0.341 0.585,0.507c0.627,0.531 1.263,1.05 1.909,1.56c0.165,0.131 0.334,0.258 0.5,0.387c0.525,0.407 1.056,0.808 1.595,1.202c0.195,0.142 0.389,0.286 0.585,0.427c0.696,0.498 1.397,0.989 2.114,1.464c2.383,1.581 5.111,2.64 7.458,3.825c1.355,-6.335 2.509,-12.164 3.901,-17.936c0.362,-1.498 0.001,-2.006 -1.185,-2.798c-3.207,-2.141 -6.306,-4.452 -9.342,-6.831c-1.627,-1.275 -1.377,-2.451 0.489,-3.314" style="fill:#fffab6;fill-rule:nonzero;"/>
</svg>
