<svg xmlns="http://www.w3.org/2000/svg" fill-rule="evenodd" stroke-linejoin="round" stroke-miterlimit="1.41" clip-rule="evenodd" viewBox="0 0 246 259">
  <path fill="#930e0b" fill-rule="nonzero" d="M154.02 78.3a6.24 6.24 0 0 1 6.01 6.11c-.05 2.74-3.06 5.44-6 5.4-3-.05-5.98-2.91-5.94-5.7a5.76 5.76 0 0 1 5.93-5.81m-.16-7.12c1.24-.86 3.12-1.49 4.53-1.21 1.1.21 2.65 1.65 1.53 3.56-.1.15.04.44.05.66.02.73.1 1.48-.04 2.18-.03.13-1.29.3-1.45.07-.42-.6-.54-1.4-.87-2.4-.68-.02-1.6.02-2.48-.12-1.47-.25-2.34-1.98-1.27-2.74m7.08 17.3c2.21-2.92 3.04-6.28 3.02-9.9-.02-4.08-1.15-7.78-4-10.8a8.17 8.17 0 0 0-11.87-.25c-5.2 5.3-5.38 16.06-.37 21.56 3.97 4.36 9.67 4.1 13.22-.6M96.3 79.11c3.48-.03 6.22 2.48 6.26 5.75.05 2.96-3.05 6.04-6.12 6.1-3.01.05-6.27-3-6.31-5.92-.05-3.18 2.77-5.89 6.17-5.93m3.65-7.79c1.37.01 2.37.38 2.39 1.97.03 1.98-.98 2.8-3.5 2.76-1.34-.18-3.14.03-3.3-2.17-.13-1.57 1.73-2.57 4.4-2.56m4.37 6.63c-.78.65-1.27 1.36-1.73 1.34-.49-.02-.96-.71-1.44-1.11.45-.51.81-1.26 1.36-1.44.35-.12.98.62 1.81 1.21m-3.44 13.88c4.08-2.9 5.37-7.2 5.49-11.96.1-4.03-1-7.65-3.61-10.76a8.1 8.1 0 0 0-11.18-1.14c-6.45 5.18-6.85 17.49-.75 23.1 2.95 2.71 6.76 3.1 10.05.76M124.91 101.86c-.58.36-1.65.58-2.16.29-2.7-1.61-2.9-1.64-4.84.73-.17.2-.32.43-.5.68-.72-1.7-.26-2.98 1.52-3.83a14.61 14.61 0 0 1 10.22-.88c-1.37 1-2.74 2.1-4.24 3.01m.2-6.52c-2.6.79-5.3 1.32-7.74 2.44-3.18 1.45-4.87 6.82-.09 9.23 2.26 1.14 4.57 2.15 6.88 3.18.36.16.89.25 1.22.1 3.08-1.34 6.32-2.45 9.15-4.22 2.67-1.67 2.53-4.62.17-6.81-2.66-2.48-5.85-3.55-9.6-3.92M46.2 156.83l-4.18 1.04 4.18-1.04M38.69 158.87l.66-.37-.63-.11-2.78.34 2.78-.34-.03.48"/>
  <path fill="#930e0b" fill-rule="nonzero" d="M183.15 76.66l-.5-.63c.47-.38.89-.88 1.43-1.13 3.38-1.55 6.94-2.78 10.15-4.62 7.61-4.36 13.21-10.89 18.21-17.93a98.74 98.74 0 0 0 12.1-22.42c2.64-7 6.9-13.06 11.2-19.06.93-1.28 1.3-2.43.8-3.89-7.78 3.18-15.73 6.03-23.32 9.62-11.6 5.47-22.4 12.36-32.66 20.09-.55.42-1.19 1.22-1.13 1.78.05.52.92 1.05 1.52 1.41.78.46 1.68.72 2.49 1.14.55.28 1.02.7 1.54 1.06-2.98 3.58-8.58 3.74-11.5.41l-9.46-10.72c-1.96-2.22-2-3.1.01-5.19.72-.75 1.58-1.4 2.45-1.96 15-9.55 31.71-14.34 49.01-17.34 6.09-1.06 12.28-1.48 18.43-2.2l1.39-.06 2.01-.12.45-.04.84-.05 2.55-.2 1.08-.1c-3.1 5.2-6.1 9.92-8.8 14.8-4.46 8.07-8.61 16.3-13.1 24.35a86.44 86.44 0 0 1-19.83 24.21c-5.09 4.28-11.18 6.66-17.36 8.8m4.66-35.48c-1.2-1.17-2.6-2.12-4.16-3.38 1.02-.82 1.97-1.67 3.01-2.4 1.35-.95 2.7-1.88 4.06-2.79l.68-.45.78-.52a207.77 207.77 0 0 1 8-5l.08-.06 1.08-.64c.91-.54 1.84-1.07 2.76-1.6l.23-.13.54-.3a217.95 217.95 0 0 1 26.01-12.47c.26-.1.55-.1.83-.13l.41-.06-.23.23c-1.01 1.6-2.15 3.13-3 4.8-3.03 5.95-6 11.91-8.9 17.92-5.27 11-11.7 21.14-20.8 29.35L197.55 65c-3.9 3.29-10.8 6.7-15.1 7.52-1.75-7.76-3.5-15.53-5.18-23.07 3.16-1.51 6.65-3.1 10.07-4.84 1.87-.95 2-1.94.47-3.42m-1.39 51c-.67 1.15-1.98 2.39-1.88 3.5.1 1.16 1.57 2.2 2.53 3.4-4.13 1.1-8.16 2.15-12.18 3.24-3.25.9-6.49 1.83-9.73 2.75l-2.67 1.43-33.24 14.68-1.53.45-.58.17c-.55.1-1.18.37-1.7.39a1 1 0 0 1-.46-.08c-5.58-2.64-11.03-5.58-16.67-8.09a223.96 223.96 0 0 0-43-14.2c-.18-.04-.35-.14-.74-.3 1.1-.84 2.1-1.57 3.07-2.36 1.94-1.57 1.85-2.31-.37-3.44-.37-.18-.73-.39-1.24-.66 5.32-6.87 4.47-15.33 6.44-23.3 2.08.56 3 2.24 3.6 4.1.86 2.68 1.42 5.46 2.32 8.11a18.64 18.64 0 0 0 2.18 4.47 14.61 14.61 0 0 0 6.25 5.23 15.7 15.7 0 0 1-1.93-2.71 12.33 12.33 0 0 1-1.56-5.22c-.28-4.22-1.02-8.54 1.54-12.46 5.18-7.95 17.6-8.13 22.31-1.08.15.23.56.29.84.43-1.7-11.1-13.04-13.15-20.66-9.1-3.04 1.62-5.96 3.48-9.06 4.96-1.63.78-3.54 1-5.77 1.58.48-3.2.9-6.23 1.57-9.12a34.03 34.03 0 0 1 1.66-5.22c.42-1 .92-2 1.5-2.96.5-1.5 1.1-2.96 1.85-4.35a25.19 25.19 0 0 1 5.01-6.54c0 2.07-.03 3.75.02 5.44.02.62.27 1.23.41 1.85l2.28-.27c.73-2 1.82-3.64 3.2-5a17.05 17.05 0 0 1 4.9-3.28l2.79 11.75c2.98 5.1 6.67 9.52 12.04 12.26 1.49.76 3.08 1.33 4.65 1.93 1.52.58 2.39.07 2.62-1.62.22-1.67.62-3.28 1.17-4.83a29.15 29.15 0 0 1 3.89-7.25l.38-.43.03-.02.4-.43c.1-.05.17-.12.24-.21l3.4-4.98c6.81-7.08 15.2-11.42 24.47-14.3 3.03-.93 5.81-.63 8.36 1.35 1.76 1.38 3.55 2.72 5.32 4.08l1.78 2.2.29.36.3.25.43.36c.24.2.48.41.66.66 5.9 7.84 8.96 16.78 10.21 27.12-2.25-.52-4.35-.7-6.17-1.5a68.7 68.7 0 0 1-7.93-4.38c-5.32-3.25-12.48-3.34-16.91 0a13.23 13.23 0 0 0-3.53 4.06c-1.07 1.88-1.7 4-2 6.3a15.17 15.17 0 0 1 2.48-3.53 12.4 12.4 0 0 1 6.83-3.59c1.34-.23 2.76-.3 4.26-.19 5.24.36 11.89 5.02 11.94 11.83.03 4.3.3 8.61-2.16 12.48-.49.78-.86 1.63-1.29 2.44 5.7-3.36 8.36-8.67 9.63-14.9.27-1.3.67-2.6 1.14-3.84.68-1.77 1.8-3.15 3.93-3.68 2.35 8.11 1.27 17.32 7.84 23.82m17.14 6.92c1.7-.21 3.5.16 5.23.41.53.08 1.25.56 1.44 1.04 1.6 4.04 3.08 8.12 4.72 12.5-1.47 0-2.51.02-3.56-.01-22.47-.74-44.56 1.57-66.01 8.59-5.48 1.79-10.84 3.96-16.2 6.08a6.99 6.99 0 0 1-5.27.12c-12.2-4.33-24.37-8.7-37.14-11.18-16.28-3.15-32.66-4.06-49.17-3.32-.7.03-1.4 0-2.56 0 2.17-4.46 4.15-8.7 6.31-12.85.26-.49 1.47-.75 2.2-.68 5.02.5 10.04 1.15 15.06 1.68 11.3 1.2 21.97 4.8 32.59 8.52 11.09 3.88 21.94 8.37 32.22 14.12 2.03 1.14 3.78 1.04 5.76.03a344.42 344.42 0 0 1 38.27-16.69c11.7-4.28 23.78-6.86 36.1-8.36m18.42 17.18c1.42.1 2.3.72 2.5 2.28.27 2.23.79 4.43 1.03 6.66.08.77-.13 1.74-.56 2.38-1.95 2.91-3.91 5.83-6.09 8.57-1.78 2.25-4.3 3.28-7.21 3.37-2.74.07-5.48.26-8.22.38-4.6.2-7.58 4.8-5.69 9.09.56 1.27.42 2.13-.09 3.27a8.32 8.32 0 0 0 .05 7.33c.29.6-.02 1.74-.43 2.4-.64 1-1.21 2-1.57 3-.59 1.7-.58 3.44.75 5.33l1.6 1.57 4.54 1.5-12.23 26.81a64.5 64.5 0 0 0-5.72-5.84 53.55 53.55 0 0 0-10.79-7.54l-1.21-1-1.26-1.05c-1.2-.39-2.4-.72-3.56-1.18a73.15 73.15 0 0 0-32.35-5.12c-.32-18.4.16-45.64.3-50.45 4.83-1.82 9.67-3.62 14.59-5.13 10.63-3.27 21.5-5.63 32.63-6.25 10.73-.6 21.5-.63 32.26-.83 2.24-.04 4.48.29 6.73.45m1.62 27.04a9.26 9.26 0 0 1-1.12 2.61 12.23 12.23 0 0 1-2.01 2.49l-1.3 1.2c-.78.25-1.59.79-2.34.73-5-.43-10-.95-14.99-1.5-1.77-.2-2.05-1.43-1.73-2.92.06-.27.1-.55.15-.83a10.58 10.58 0 0 1 .24-1.08 2.01 2.01 0 0 1 .37-.65c.33-.37.87-.56 1.77-.44l1.26-.36.15-.04 4.2-.13c1.4-.04 2.8-.08 4.2-.1 3.93-.07 7.33-1.58 10.41-3.87a6.1 6.1 0 0 1 .74 4.89m-6.21 11.53c-.12 1.7-.51 3.3-1.88 4.61l-.57.1-.8-.02c-1.39.12-2.78.34-4.17.41-.46.03-.92.04-1.38.03-1.81-.05-3.62-.46-5.42-.76-3.55-.6-4.63-2.52-3.12-5.8.48-1.04.96-3.53 2.73-.78.02.03.5-.24.77-.37 1.44.08 2.89.15 4.33.24l9.57.61c0 .59-.02 1.17-.06 1.73m-5.49 12.88c-.18.38-.43.73-.78 1.05-.23.22-.5.42-.82.6l-.67.38c-.51.3-1.03.58-1.54.87-.54-.02-1.08-.02-1.63-.03-1.63 0-3.26.02-4.85-.25-3.42-.6-4.44-3.09-2.55-6 .28-.44.49-1 .75-1.5.15-.29.32-.56.54-.78a1.83 1.83 0 0 1 .69-.45c.3-.1.68-.14 1.15-.07l1.34.75 2.08-.1.48.04c2.07.25 4.15.5 6.46.76-.21 1.65.03 3.35-.65 4.73m-16.85 49.26c-1-1.05-1.71-1.98-2.6-2.7a10.33 10.33 0 0 0-2.9-1.57c6.21 7.81 10.46 16.4 11.82 26.54-.61-.16-1.03-.2-1.37-.38-8.18-4.39-16.97-4.18-25.78-3.16-17.09 1.99-33.41 6.96-49.61 12.59-14.91 5.17-30.27 8.25-46.21 7.42-8.3-.43-16.48-1.25-23.64-6.01-7.85-5.22-13.53-12.03-15.3-21.59l-.68-3.66.18-3.61c-.88-5.32.38-10.38 2.18-15.29 1.94-5.3 5.28-9.75 9.38-13.61.75-.71 1.63-1.29 2.7-2.12l5.52 12.16c-2.57-.5-4.45-1.28-5.51-3.81.12 3.68 3.76 7.06 7.74 6.78 3.66-.27 7.5-.83 10.85-2.24 9.35-3.93 18.27-8.74 26.22-15.13.27-.22.55-.4 1.21-.89-.2 1.11-.42 1.82-.43 2.53-.02 1.04.11 2.1.18 3.14 1.02-.24 2.12-.32 3.04-.76 3.17-1.53 6.18-3.4 9.42-4.75a74.11 74.11 0 0 1 24.33-5.73 72.09 72.09 0 0 1 11.1.2c2.79.27 5.6.69 8.42 1.27l2.99.9 2.56.77c8.12 1.95 16.44 6.8 22.84 12.84a51.33 51.33 0 0 1 5.38 5.94 36.74 36.74 0 0 1 3.23 5.04 22.7 22.7 0 0 1 2.74 8.9m-63.24-38.2c-3.64.4-7.23 1.02-10.75 1.9.22-20.67-.1-46.65-.4-51.19l3.37 1.22c2.06.73 3.81.24 5.7-.44l2.47-.92c-.28 5.34-.57 29.54-.4 49.44m-83.66-6.4l1.66-1.06 1.59-1.02 2.06-1.68c.32-1.51.24-2.95-.02-4.4-.16-.86-.39-1.73-.64-2.6-.5-1.8.02-3.87-.16-5.79-.16-1.82-.16-7.11.21-8.97.19-.9.25-1.8.36-2.71.27-2.24-.61-3.27-2.89-3.4-3.92-.25-7.85-.51-11.77-.73-3.78-.2-6.6-2.12-9-4.87-2.13-2.43-4.36-4.77-6.42-7.26a3.15 3.15 0 0 1-.54-2.38c.44-1.98 1.2-3.9 1.73-5.86.55-2.03 1.75-3.07 3.9-3.1 10.96-.13 21.95-.86 32.87-.3 9.57.5 19.11 2.14 28.57 3.8 9.45 1.67 18.47 4.87 27.46 8.14.13 3.87.68 34.66.25 53.45h.21a65.28 65.28 0 0 0-13.87 6.05c-.53.31-1.12.51-1.77.8-.08-1.38-.03-2.63-.26-3.82-.13-.68-.58-1.57-1.12-1.8-.47-.2-1.41.27-1.9.71-5.96 5.48-13.08 9.15-20.05 13.06-.54.3-1.2.38-1.8.56l-1.7.97-.05.03c-.9.7-1.85 1.28-2.83 1.76-2.94 1.47-6.16 2.08-9.48 2.34-.55.05-1.43-.93-1.75-1.62-2.76-5.99-5.42-12.02-8.14-18.04-1.55-3.43-3.14-6.85-4.7-10.26m-1.36-2.5l-.22.05c-1.66.27-3.45.03-4.62-.8l-1.12-1.8-.54-3.82h6.44l.19-.03 2.32-.4 1.05-.14c.09 1.54.71 3.32.15 4.57-.15.32-.35.61-.6.87a4.3 4.3 0 0 1-1.4.98c-.5.24-1.07.41-1.65.53m-9.16-9.76c-.6-.07-1.12-.95-1.67-1.45-1.98-1.2-1.58-3.18-1.84-4.94l13.9-1.21c2.21 1.61 2.44 4.04 2.02 6.34-.15.82-1.86 1.9-2.87 1.92a74.6 74.6 0 0 1-9.54-.66m-7.03-9.73c-.2 0-.38-.08-.57-.17-.19-.09-.38-.2-.57-.28l-1.78-1.57a25 25 0 0 1-1.11-2.46c-.69-1.82-.96-3.7-.08-5.75.13-.32.26-.66.44-.95.1-.17.3-.27.51-.45 6.43 4.7 13.94 4.36 21.34 4.54.67-.08 1.32-.13 1.58.24.05.07.08.16.1.27.02.11.02.24 0 .4-.03.15-.07.32-.14.52-.04.52-.08.98-.13 1.39-.04.4-.1.76-.17 1.07-.44 1.87-1.42 2.19-4.38 2.86-5.02 1.15-10.03.49-15.04.34M62.2 44.97c3.04 2.38 6.14 4.69 9.34 6.83 1.19.8 1.55 1.3 1.19 2.8-1.4 5.77-2.55 11.6-3.9 17.93-2.35-1.18-5.08-2.24-7.46-3.82a72.04 72.04 0 0 1-2.7-1.9l-.3-.2-.32-.24-.98-.75-.5-.4-1.04-.83-.7-.58-.16-.14-.59-.5-1.25-1.1-.43-.4-.73-.68A82.25 82.25 0 0 1 39.6 46.6c-5.36-8.09-10.3-16.44-15.52-24.62-2.41-3.78-5.05-7.42-7.59-11.11l.2-.71c4.36 1.68 8.99 2.87 13 5.15 5.7 3.23 11.01 7.15 16.43 10.87l.6.42 2.64 1.82.02.01c4.84 3.34 9.66 6.7 14.5 10.05l2.38 1.63c-1.43.62-2.51 1.06-3.57 1.55-1.87.87-2.12 2.04-.49 3.32m-4.38 26.37C43 60.93 32.14 47.16 23.5 31.4A110.6 110.6 0 0 0 4.73 6.59C3.96 5.82 3.5 4.75 2.9 3.82 2.88 2.18 4.17 2.6 4.97 2.67c3.42.31 6.83.8 10.25 1.14C27.9 5.02 40.5 6.77 52.77 10.23c8.96 2.51 17.62 5.84 25.6 10.66 2.35 1.42 4.27 3.55 6.39 5.35l.29 2.6c-.33 3.56-1.85 6.61-4.02 9.36a101.66 101.66 0 0 1-4.77 5.63c-3.52 3.84-7 3.8-11.3-.22 1.49-.61 2.91-1.12 4.26-1.78.57-.28 1.33-.85 1.37-1.34.05-.5-.58-1.24-1.1-1.59-1.6-1.07-3.21-2.12-4.83-3.17l-4.86-3.12-1.65-.91 2.35-5.62-2.35 5.62-7.55-5.53a784.6 784.6 0 0 1-7.52-5.56c-7.89-5.92-16.38-10.57-26.1-12.67a9.87 9.87 0 0 0-1.95-.18c-.67-.01-1.33 0-2-.02-.71.43-.97.88-.97 1.34 0 .2.05.39.13.59.16.4.46.8.76 1.2 2.48 3.31 5.16 6.5 7.39 9.99 5.27 8.22 10.2 16.66 15.51 24.86 6.36 9.83 14.09 18.44 23.89 24.98 2.43 1.62 5.26 2.63 7.86 4 .54.29.89.92 1.09 1.66-4.14-.77-7.59-2.72-10.87-5.02m29.08-31.6l.9-3.72.6-3.8.01-.07.57-.45h-.05l.53-2.18c.17-.73.36-1.45.57-2.17 1.56-5.19 3.99-9.92 7.76-13.85 1.23-1.28 1.55-2.42.72-4.12-.81-1.66-1.17-3.55-1.86-5.77 1.66.26 2.86.49 4.07.62 7.33.8 14.68 1.53 22 2.39 6.25.73 11.6 3.76 16.86 6.9 4.22 2.52 4.2 2.56 5.03-2.3.04-.2.13-.4.29-.88.87 1 1.66 2.05 2.4 3.1 2.2 3.19 3.94 6.58 5.79 9.9l1 2.88c-.55.42-1.05 1.06-1.68 1.23-12.05 3.22-22.56 8.94-30.55 18.75a35.4 35.4 0 0 0-7.36 15.71 21.88 21.88 0 0 1-8.01-4.68c-5.44-4.93-8.02-11.22-8.6-18.44-.38-4.6-.6-4.74-4.56-2.31-2.18 1.34-4.23 2.9-6.77 4.67l.34-1.4m102.09 39.3c3.49-2.6 7.37-4.68 10.81-7.34a86.55 86.55 0 0 0 22.37-26.12c7.53-13.27 14.03-27.13 22.47-39.89 1.56-2.35.65-3.82-2.22-3.58-9.04.76-18.14 1.24-27.08 2.63-14.08 2.2-27.78 5.95-40.65 12.31-3.03 1.5-6.03 3.12-9.2 4.21-5.22 1.8-10.08 1.48-13.2-4.56-1.89-3.66-4.55-6.92-6.95-10.31-.38-.55-1.18-.8-1.8-1.2-.38.68-.97 1.31-1.12 2.04-.3 1.4-.36 2.84-.54 4.5-.79-.4-1.3-.63-1.75-.92a50.24 50.24 0 0 0-23.23-7.6c-6.78-.53-13.52-1.63-20.28-2.56-1.81-.25-2.44.73-2.25 2.15.32 2.35.98 4.65 1.44 6.98.12.62.28 1.43-.01 1.89-2.7 4.24-5.48 8.43-8.32 12.76.33.13.09.1-.05-.03-8.02-7.25-17.78-11.22-27.78-14.7C41.86 3.48 23.2 2.13 4.68.02 2.6-.2 1.16.8.33 2.67c-.82 1.85 0 3.22 1.31 4.5A112.2 112.2 0 0 1 22.22 34.3c6.53 11.97 14.63 22.75 24.9 31.7 5.16 4.5 11.06 8.18 16.67 12.17 1.69 1.2 2.95 2.55 3.22 4.7.39 3.18-.75 5.82-2.87 8.05-2.2 2.33-2.25 2.38.32 4.2.22.15.41.36.62.55-2.76 2.73-4.13 3.22-7.65 2.87-4.69-.46-9.38-.87-14.07-1.35-2.27-.23-3.75.66-4.7 2.73-1.29 2.81-3.02 5.47-3.96 8.38-1.31 4.03-3.5 6.17-7.93 5.83-2.17-.16-3.73 1.15-4.43 3.25-.93 2.8-1.93 5.6-2.6 8.46a5.35 5.35 0 0 0 .67 3.53c1.23 2.12 2.85 4 4.17 6.08.34.53.5 1.53.23 2.04-2.07 3.91-1.6 7.64.2 11.53 1 2.13 2.2 3.62 4.59 3.74 1.66.1 1.94.92 2.08 2.41.26 2.94 1.02 5.93 4.12 7.07 1.8.66 2.08 1.65 2.15 3.23.14 2.88.95 5.8 3.88 6.7 3.38 1.05 4.73 3.33 5.74 6.32 3.12 9.22 3.97 6.98-2.27 15.02-4.77 6.15-8.09 12.86-8.93 20.64-.96 8.79-.24 17.35 4.53 25.07 7.85 12.71 19.74 18.12 34.3 19.01 17.45 1.07 34.27-1.86 50.62-7.58 13.23-4.64 26.6-8.67 40.4-11.19 8.13-1.48 16.36-2.59 24.54-.95 3.91.79 7.56 2.9 11.35 4.37.6.23 1.4.4 1.93.19.37-.15.67-1.08.59-1.59-.75-4.5-1.24-9.1-2.5-13.46-2.28-7.98-5.1-15.8-7.53-23.73-.4-1.29-.36-3 .17-4.22 3.2-7.28 6.64-14.44 9.9-21.68a9.26 9.26 0 0 1 4.51-4.82c4.12-1.94 5.86-5.23 5.93-9.64 0-.53.32-1.35.72-1.52 3.04-1.37 3.85-4.16 4-6.95.12-2.42 1.07-3.87 2.76-5.44 3.82-3.55 4.97-9.34 2.7-12.87-.74-1.17-.68-2-.06-3.05 2.43-4.1 3.56-8.25 2.43-13.2-1.52-6.6-1.19-6.68-7.87-7.43-.14-.02-.28-.06-.41-.05-1.26.12-1.84-.48-2.25-1.67-1.33-3.85-2.87-7.63-4.2-11.49-.67-1.96-1.9-2.91-3.9-3.33-5.21-1.11-10.26.03-15.26 1.1-2.95.64-4.65-.48-6.33-2.61l1.72-1.92c1.4-1.61 1.33-2.07-.48-3.16-3.04-1.81-3.96-4.03-2.6-7.31a9.73 9.73 0 0 1 2.9-4"/>
  <path fill="#c7616c" fill-rule="nonzero" d="M150.35 122.93a256.84 256.84 0 0 0-14.6 5.13c-.13 4.81-.61 32.05-.29 50.45 11.1-.72 21.94.94 32.34 5.12 1.16.46 2.38.8 3.57 1.19l17.1-.08c4.01-.02 4.59-.3 5.67-4.15.94-3.36 1.54-6.82 2.3-10.23a5.48 5.48 0 0 1-.75-5.32c.36-1.02.93-2.02 1.57-3.02.4-.65.72-1.8.43-2.4a8.31 8.31 0 0 1-.05-7.32c.5-1.14.65-2 .1-3.27a6.43 6.43 0 0 1 5.68-9.1c2.74-.11 5.48-.3 8.22-.37 2.9-.09 5.43-1.12 7.21-3.37a130.1 130.1 0 0 0 6.09-8.57c.43-.64.64-1.6.56-2.38-.24-2.23-.76-4.43-1.03-6.65-.2-1.57-1.08-2.18-2.5-2.29-2.25-.16-4.5-.49-6.73-.45-10.76.2-21.53.23-32.27.83-11.11.62-22 2.98-32.62 6.25M129.71 130.3c-1.88.7-3.63 1.18-5.7.45-1.11-.4-2.23-.8-3.35-1.22.28 4.54.6 30.52.4 51.2a78.8 78.8 0 0 1 10.74-1.9c-.18-19.9.11-44.1.39-49.44l-2.48.92M55.63 174.8a55.14 55.14 0 0 0 2.48 5.97 83.8 83.8 0 0 0 7.3 11.75c2.35 3.23 6.26 3.76 9.94 4.45l1.44.28c.6-.18 1.26-.26 1.8-.56 6.97-3.91 14.1-7.58 20.05-13.05.48-.45 1.43-.91 1.9-.72.54.23 1 1.12 1.12 1.8.23 1.2.18 2.44.26 3.82.64-.29 1.24-.49 1.77-.8a65.27 65.27 0 0 1 13.87-6.04l-.21-.01c.43-18.8-.12-49.58-.25-53.45-8.99-3.27-18-6.47-27.46-8.14-9.46-1.66-19-3.3-28.57-3.8-10.92-.56-21.91.16-32.87.3-2.15.03-3.35 1.07-3.9 3.1-.54 1.97-1.3 3.88-1.73 5.86-.16.73.07 1.8.54 2.38 2.06 2.48 4.29 4.83 6.41 7.26 2.4 2.75 5.23 4.66 9 4.87 3.93.21 7.86.48 11.78.72 2.28.14 3.16 1.17 2.89 3.4-.11.91-.18 1.83-.36 2.72-.37 1.86-.37 7.15-.2 8.97.17 1.92-.35 3.99.15 5.78.25.88.48 1.75.64 2.62.26 1.44.34 2.88.02 4.38.77 2.03 1.45 4.1 2.19 6.13"/>
  <path fill="#fffab6" fill-rule="nonzero" d="M189.07 203.08a41.96 41.96 0 0 0-3.07-3.63 52.4 52.4 0 0 0-2.3-2.31c-6.41-6.03-14.73-10.9-22.86-12.84l-2.13.2-2.14.17c-.95.08-1.9.16-2.85.27a46.44 46.44 0 0 0-4.21.65c-5.7 1.23-11.3 2.95-16.92 4.8 3.98 1.76 8.03 2.94 11.4 6-12.16 2.87-22.45 8.32-29.5 18.95 4.03.23 8.06.34 12.07.71 3.96.37 7.72 1.4 11.07 4.7-2.45.78-4.47 1.3-6.4 2.06-7.46 2.88-14.9 5.8-22.32 8.78-5.73 2.3-11.3 5.05-17.14 7.03a53.22 53.22 0 0 1-28.03 1.62c-9.01-1.8-16.26-6.28-22.34-12.96-.86-.94-1.75-1.86-2.63-2.79l.68 3.66c1.77 9.56 7.45 16.37 15.3 21.59 7.16 4.75 15.35 5.58 23.64 6 15.94.84 31.3-2.24 46.2-7.42 16.2-5.62 32.53-10.6 49.61-12.58 8.81-1.02 17.6-1.23 25.8 3.16.33.18.75.21 1.36.38-1.36-10.14-5.61-18.73-11.81-26.54 1.06.4 2.06.88 2.89 1.56.88.73 1.6 1.66 2.6 2.71a22.7 22.7 0 0 0-2.74-8.9c-.89-1.7-1.98-3.38-3.23-5.03"/>
  <path fill="#fde98e" fill-rule="nonzero" d="M134.53 106.07c-2.83 1.77-6.07 2.88-9.14 4.22-.34.15-.87.06-1.23-.1-2.3-1.03-4.62-2.04-6.87-3.18-4.8-2.42-3.1-7.78.08-9.23 2.44-1.12 5.15-1.65 7.74-2.45 3.74.38 6.93 1.45 9.6 3.93 2.35 2.2 2.5 5.13-.18 6.81m40.12-34a24.71 24.71 0 0 0-1.14 3.83c-1.27 6.23-3.93 11.54-9.63 14.9-2.4 1.18-4.7 2.7-7.23 3.45-4.58 1.35-10.6-1.34-13.1-5.45-2.2-3.6-3.6-7.44-2.96-11.73.3-1.92.81-3.81 1.23-5.71.3-2.3.93-4.42 2-6.3a13.03 13.03 0 0 1 3.53-4.05c4.43-3.35 11.6-3.26 16.91 0a68.7 68.7 0 0 0 7.93 4.37c1.82.8 3.92.98 6.17 1.5-1.25-10.34-4.3-19.28-10.2-27.12a4.08 4.08 0 0 0-.67-.66l-.44-.36-.3-.25a7.97 7.97 0 0 0-.4-.06c-.42-.05-.84-.09-1.23-.23-7.36-2.73-14.64-1.47-21.84.6-7.5 2.17-14.03 6.23-20.14 10.98a.66.66 0 0 1-.24.21l-.4.43-.03.02-.38.43a29.18 29.18 0 0 0-3.89 7.25 23.86 23.86 0 0 0-1.17 4.83c-.23 1.69-1.1 2.2-2.62 1.62-1.57-.6-3.16-1.17-4.65-1.93-5.37-2.74-9.06-7.16-12.04-12.26-.57-.67-1.18-1.31-1.69-2.02-1.94-2.67-3.98-3.32-7.07-2.19-.7.26-1.42.5-2.13.74l-2.28.27c-3.22-.4-4.93 2.27-7.3 3.6a23.85 23.85 0 0 0-1.9 3.98 34.03 34.03 0 0 0-1.25 4.2c-.68 2.89-1.09 5.93-1.57 9.12 2.23-.59 4.14-.8 5.77-1.58 3.1-1.48 6.02-3.34 9.06-4.96 7.62-4.05 18.97-2 20.66 9.1 2.31 7.3 2.37 14.43-2.82 20.57-3.07 3.64-7.32 5.19-12.15 4.01-2.36-.57-4.79-1.24-6.23-3.54-2.7-1.2-4.73-3-6.25-5.23a18.66 18.66 0 0 1-2.18-4.47c-.9-2.65-1.46-5.43-2.32-8.1-.6-1.87-1.52-3.55-3.6-4.1-1.97 7.96-1.12 16.42-6.44 23.3.51.26.87.47 1.24.65 2.22 1.13 2.3 1.87.37 3.44-.96.79-1.97 1.52-3.07 2.36.39.16.56.26.74.3a223.95 223.95 0 0 1 43 14.2c5.64 2.5 11.09 5.45 16.67 8.1.13.06.3.08.46.07.46-.02 3.34-.84 3.84-.95.05 0 30.06-13.3 33.17-14.64a109.5 109.5 0 0 1 12.44-4.28c4.02-1.1 8.05-2.14 12.18-3.24-.96-1.2-2.42-2.24-2.53-3.4-.1-1.11 1.21-2.35 1.88-3.5-6.57-6.5-5.5-15.7-7.84-23.8-2.13.52-3.25 1.9-3.93 3.68M80.02 217.76a20.95 20.95 0 0 0 8.63-8.92c2.75-5.48 7.43-8.03 13.52-8 2.13 0 4.26.13 6.4.2l.3.75c-1.7 1.9-3.27 3.94-5.14 5.66-3.95 3.67-7.85 7.44-12.15 10.65-3.09 2.3-6.93 3-10.86 2.1-.48-.12-.96-.24-1.42-.4-.25-.08-.47-.24-1.2-.63.85-.63 1.35-1.08 1.92-1.41M50.09 233c5.06 3.62 10.8 5.23 16.81 6.3 11.4 2 22.09-.52 32.43-5.04 11.21-4.9 22.25-10.2 34.03-13.67.25-.07.48-.23 1.26-.62-7.6-3.66-15.33-2.94-23.56-3.16 4.02-5.3 7.88-10.14 12.95-13.42 5.01-3.23 10.74-5.37 16.24-8.04-1.81-.76-3.93-1.69-6.09-2.53-1.24-.48-2.56-.77-3.8-1.25-.52-.2-.93-.65-1.4-1 .48-.35.91-.88 1.44-1.03 6.54-1.93 13.09-3.82 19.64-5.67 1.73-.49 3.5-.83 5.26-1.24a77.85 77.85 0 0 0-11.21-1.47 72.09 72.09 0 0 0-8.3 0 74.11 74.11 0 0 0-24.34 5.73c-3.24 1.35-6.25 3.22-9.42 4.75-.92.44-2.02.52-3.04.76-.07-1.05-.2-2.1-.19-3.15.02-.7.24-1.4.44-2.52-.66.48-.94.67-1.2.89-7.97 6.4-16.88 11.2-26.23 15.13-3.35 1.41-7.19 1.97-10.85 2.24-3.98.28-7.62-3.1-7.74-6.78 1.06 2.53 2.94 3.32 5.51 3.81l-5.52-12.16c-1.07.83-1.95 1.4-2.7 2.12-4.1 3.87-7.44 8.3-9.38 13.61-1.8 4.91-3.06 9.97-2.18 15.29 2.67 5 6.55 8.85 11.14 12.12"/>
  <path fill="#dfd5dc" fill-rule="nonzero" d="M129.18 124.17c-1.98 1.01-3.73 1.1-5.76-.03-10.28-5.74-21.13-10.24-32.23-14.12-10.61-3.72-21.29-7.31-32.58-8.51-5.02-.54-10.04-1.19-15.07-1.68-.72-.08-1.93.19-2.19.67-2.16 4.15-4.15 8.39-6.3 12.85 1.15 0 1.85.03 2.54 0 16.52-.74 32.9.17 49.18 3.33 12.77 2.47 24.94 6.84 37.14 11.17 1.85.66 3.45.6 5.27-.12 5.36-2.12 10.72-4.29 16.2-6.08 21.45-7.02 43.54-9.33 66.01-8.6 1.05.04 2.09.01 3.56.01-1.64-4.37-3.13-8.45-4.72-12.5-.19-.47-.91-.95-1.44-1.03-1.73-.25-3.53-.62-5.23-.41-12.33 1.5-24.42 4.08-36.11 8.36a344.23 344.23 0 0 0-38.27 16.7"/>
  <path fill="#fcb9c4" fill-rule="nonzero" d="M204.87 23.92l-.54.3.47-.25.07-.05"/>
  <path fill="#ffe9a5" fill-rule="nonzero" d="M213.54 24.45l-10.48 9.68s3.72-1.91 9.57-1.91c0 0-4.61 6.64-10.02 8.9l3.72 2.13-2.93 2.03 3.83 1.58-11.15 5.06s3.72 1.7 8.9.68c0 0-1.92 5.18-6.64 8-3.3 1.95.06 1.79 2.4 1.5-.5.5-1.02.98-1.55 1.46 9.1-8.2 15.53-18.35 20.81-29.35 2.88-6 5.87-11.97 8.88-17.91.86-1.68 2-3.21 3-4.8l.24-.24-.41.06c-.28.04-.57.03-.82.13-7.1 2.84-14 6.04-20.72 9.58l-5.2 6.23 8.57-2.81z"/>
  <path fill="#fcb9c4" fill-rule="nonzero" d="M210.17 21.03a220.47 220.47 0 0 1 0 0M192.18 31.65l-.78.52.05-.03.73-.5M196.2 29.07l1.83-1.13-1.82 1.13"/>
  <path fill="#fde98d" fill-rule="nonzero" d="M100.16 25.34c1.36-.37 2.7-.78 4.08-1.05 1.79-.36 2.16.08 1.7 1.86-1.83 7.06.27 13.3 3.98 19.2.1.16.3.26.74.6 8.57-12.33 19.97-20.3 35.11-22.18-.46-3.83-.45-3.85 3.15-2.36 1.4.59 2.78 1.28 4.17 1.92-1.85-3.31-3.58-6.7-5.8-9.88a38.03 38.03 0 0 0-2.39-3.1c-.16.48-.25.67-.29.87-.84 4.86-.81 4.82-5.03 2.3-5.27-3.14-10.61-6.17-16.85-6.9-7.33-.86-14.68-1.59-22.02-2.4-1.2-.12-2.4-.35-4.06-.6.7 2.2 1.05 4.1 1.86 5.76.83 1.7.51 2.84-.72 4.12-3.77 3.94-6.2 8.66-7.76 13.85-.21.72-.4 1.44-.57 2.17l-.53 2.18a45.72 45.72 0 0 1 6.7-4.55 21.72 21.72 0 0 1 4.53-1.81"/>
  <path fill="#fde98d" d="M88.93 31.7z"/>
  <path fill="#fcb9c4" fill-rule="nonzero" d="M52.38 61.65l-.71-.66.73.69-.02-.03zM55.53 64.39l-.7-.59.7.59"/>
  <path fill="#ffe9a5" fill-rule="nonzero" d="M44.67 49.1h5.86c-6.6-3.3-8.41-7.95-8.41-7.95l4.05-.15-3.6-3.15 4.35-.9a24.37 24.37 0 0 1-7.65-7.06l8.4.6-7.8-5.85 6.25 1.53c-5.42-3.72-10.73-7.64-16.43-10.87-4.01-2.28-8.64-3.47-13-5.15l-.2.7c2.54 3.7 5.18 7.34 7.59 11.12C29.3 30.14 34.24 38.5 39.6 46.59a82.35 82.35 0 0 0 9.26 11.61c-3.07-4.72-4.19-9.1-4.19-9.1"/>
  <path fill="#fcb9c4" fill-rule="nonzero" d="M58.38 66.6l-.33-.23.33.23"/>
  <path fill="#fce88d" fill-rule="nonzero" d="M238.6 4.8l-.83.06-.45.04-2.01.12-1.4.06c-6.14.72-12.33 1.14-18.42 2.2-17.3 3-34 7.78-49 17.34-.89.56-1.74 1.21-2.46 1.96-2 2.1-1.97 2.97 0 5.2l9.45 10.71c2.92 3.33 8.52 3.17 11.5-.41-.52-.36-1-.78-1.54-1.06-.8-.42-1.7-.68-2.49-1.14-.6-.36-1.48-.89-1.52-1.4-.06-.57.58-1.38 1.13-1.8 10.25-7.72 21.06-14.6 32.66-20.08 7.6-3.59 15.54-6.44 23.32-9.62l3.65-1.73-1.58-.45"/>
  <path fill="#fffab6" fill-rule="nonzero" d="M97.88 38.8c.59 7.21 3.17 13.5 8.6 18.43a21.9 21.9 0 0 0 8.02 4.68 35.38 35.38 0 0 1 7.36-15.71c7.99-9.8 18.5-15.53 30.55-18.75.63-.17 1.13-.8 1.69-1.23l-7-4.39c1.28 3.59-.59 3.43-2.46 3.6-6.07.57-11.48 3.04-16.74 5.96-6.75 3.75-11.7 9.34-16.1 15.51-1.24 1.75-1.63 1.66-2.81-.12a30.14 30.14 0 0 1-5.18-16.65c-.02-1.36.28-2.72.47-4.43-6.15 1.54-11.56 3.57-15.19 8.75-.38.56-.85 1.05-1.28 1.57l-.91 3.73-.34 1.4c2.54-1.77 4.59-3.33 6.77-4.67 3.96-2.43 4.18-2.3 4.55 2.31"/>
  <path fill="#e8be74" fill-rule="nonzero" d="M63.74 240.24c9.55 1.91 18.9 1.47 28.03-1.62 5.84-1.98 11.4-4.73 17.14-7.03 7.42-2.98 14.86-5.9 22.32-8.78 1.93-.75 3.95-1.28 6.4-2.06-3.35-3.3-7.11-4.33-11.07-4.7-4.01-.37-8.04-.48-12.08-.7 7.06-10.64 17.35-16.09 29.5-18.96-3.36-3.06-7.4-4.24-11.39-6 5.61-1.85 11.21-3.57 16.92-4.8.46-.1.92-.2 1.4-.27.93-.16 1.87-.28 2.81-.38l2.85-.27 2.14-.17 2.14-.2-2.56-.77-3-.9c-1.74.41-3.52.75-5.25 1.24-6.55 1.85-13.1 3.74-19.63 5.67-.54.15-.97.68-1.44 1.04.46.34.87.8 1.39.99 1.24.48 2.56.77 3.8 1.25 2.16.84 4.28 1.77 6.09 2.53-5.5 2.67-11.23 4.8-16.24 8.05-5.07 3.27-8.93 8.1-12.95 13.42 8.23.21 15.97-.5 23.56 3.15-.78.39-1 .55-1.26.62-11.78 3.48-22.82 8.77-34.03 13.67C89 238.8 78.31 241.3 66.9 239.3c-6.01-1.06-11.75-2.67-16.81-6.29-4.59-3.27-8.47-7.13-11.14-12.12l-.18 3.61c.88.93 1.77 1.85 2.63 2.8 6.08 6.67 13.33 11.14 22.34 12.95"/>
  <path fill="#e5a86e" fill-rule="nonzero" d="M67.6 74.7c-2.6-1.37-5.43-2.38-7.86-4-9.8-6.54-17.53-15.16-23.89-24.98-5.3-8.2-10.24-16.64-15.51-24.86-2.23-3.48-4.91-6.68-7.4-10-.3-.4-.59-.8-.75-1.2-.08-.2-.13-.39-.13-.58 0-.46.26-.9.98-1.35L2.9 3.82c.6.93 1.06 2 1.83 2.77a110.57 110.57 0 0 1 18.76 24.8C32.14 47.17 43 60.93 57.82 71.34c3.28 2.3 6.72 4.26 10.87 5.03-.2-.74-.55-1.37-1.09-1.66"/>
  <path fill="#f8f1ed" fill-rule="nonzero" d="M148.1 67.53a8.17 8.17 0 0 1 11.86.25c2.85 3.02 3.98 6.72 4 10.8.02 3.62-.8 6.98-3.02 9.9-3.55 4.71-9.25 4.97-13.22.61-5.01-5.5-4.83-16.25.37-21.56m-4.55 21.27c2.52 4.1 8.53 6.8 13.1 5.45 2.54-.74 4.84-2.27 7.24-3.45.43-.81.8-1.66 1.3-2.44 2.44-3.87 2.18-8.17 2.15-12.48-.05-6.81-6.7-11.47-11.94-11.83-1.5-.1-2.92-.04-4.26.2a13.18 13.18 0 0 0-3.95 1.37 11.7 11.7 0 0 0-2.88 2.21c-.93.98-1.77 2.15-2.48 3.53-.42 1.9-.94 3.79-1.22 5.7-.65 4.3.74 8.13 2.94 11.74M91.57 67.97a8.1 8.1 0 0 1 11.18 1.14 15.52 15.52 0 0 1 3.6 10.76c-.11 4.77-1.4 9.06-5.48 11.96-3.3 2.34-7.1 1.96-10.05-.76-6.1-5.61-5.7-17.92.75-23.1m1.48 27.25c4.83 1.18 9.08-.37 12.15-4 5.19-6.15 5.13-13.28 2.83-20.58-.3-.14-.7-.2-.85-.43-4.7-7.04-17.13-6.87-22.31 1.08-2.56 3.92-1.82 8.24-1.54 12.46.12 1.88.67 3.62 1.56 5.22a15.7 15.7 0 0 0 1.93 2.72c1.44 2.29 3.87 2.96 6.23 3.53"/>
  <path fill="#955996" fill-rule="nonzero" d="M190.86 186.02c-4.98 0-9.96-.03-14.95.05-.69 0-1.38.51-2.07.8a53.56 53.56 0 0 1 10.8 7.53 64.52 64.52 0 0 1 5.71 5.85l12.23-26.82-4.54-1.5c-1.13 3.8-2.28 7.6-3.4 11.4-.57 1.9-1.86 2.7-3.78 2.7"/>
  <path fill="#e5a86e" fill-rule="nonzero" d="M220.34 43.66c4.49-8.04 8.64-16.28 13.1-24.35 2.7-4.88 5.7-9.6 8.8-14.8l-1.08.1-2.55.2 1.58.44-3.65 1.73c.5 1.46.13 2.6-.8 3.9-4.3 6-8.56 12.05-11.2 19.05a98.75 98.75 0 0 1-12.1 22.42c-5 7.04-10.6 13.57-18.2 17.93-3.22 1.83-6.78 3.06-10.16 4.62-.54.25-.96.75-1.44 1.13l.5.63c6.19-2.13 12.28-4.5 17.37-8.79a86.45 86.45 0 0 0 19.83-24.2"/>
  <path fill="#955996" fill-rule="nonzero" d="M60.98 200.73c.32.69 1.2 1.67 1.75 1.62 3.32-.26 6.54-.87 9.48-2.34.98-.48 1.93-1.07 2.83-1.76-5.94-.42-10.38-3.22-13.54-8.28-3.61-5.78-6.82-11.73-8.57-18.38a.6.6 0 0 0-.08-.19 1.33 1.33 0 0 0-.33-.32c-.27-.2-.63-.38-.93-.58l-.21-.15-1.59 1.02-1.66 1.06c1.57 3.4 3.16 6.83 4.71 10.26 2.72 6.02 5.38 12.05 8.14 18.04"/>
  <path fill="#e8be74" fill-rule="nonzero" d="M104.28 25.7c-.2 1.7-.49 3.07-.47 4.44A30.14 30.14 0 0 0 109 46.78c1.18 1.78 1.57 1.87 2.81.12 4.4-6.17 9.35-11.75 16.1-15.5 5.26-2.93 10.67-5.4 16.74-5.96 1.87-.18 3.74-.02 2.47-3.61l6.99 4.4-1.01-2.9c-1.4-.64-2.76-1.33-4.17-1.92-3.6-1.5-3.61-1.47-3.15 2.36-15.14 1.88-26.54 9.85-35.1 22.19-.44-.35-.65-.45-.75-.61-3.71-5.9-5.81-12.14-3.98-19.2.46-1.78.09-2.23-1.7-1.87-1.37.28-2.72.7-4.08 1.06a21.87 21.87 0 0 0-4.53 1.81 45.8 45.8 0 0 0-6.7 4.55h.05l-.57.45v.07l-.6 3.8c.43-.52.9-1.01 1.29-1.56 3.62-5.19 9.03-7.22 15.18-8.76"/>
  <path fill="#e7af72" fill-rule="nonzero" d="M147.45 36.3c5.42-.89 10.9-1.93 16.38-.1.23.07.57-.17.87-.27-1.78-1.35-3.56-2.7-5.33-4.08-2.54-1.98-5.33-2.28-8.36-1.34-9.26 2.87-17.66 7.21-24.46 14.29.45-.06 1 .03 1.33-.19 6.03-3.95 12.41-7.12 19.57-8.3"/>
  <path fill="#fbe68c" fill-rule="nonzero" d="M30.65 148.16c1-.09 2-.16 3-.26a44.7 44.7 0 0 0 5.88-.86c3.2-.74 6.17-2.42 9.24-3.68-7.4-.18-14.9.17-21.34-4.54-.2.18-.4.28-.51.45-.18.3-.3.63-.44.95-.88 2.05-.6 3.93.08 5.75.3.83.7 1.64 1.11 2.46 1-.1 1.99-.2 2.98-.27M212.44 142.31l-4.2.1-4.2.14a5.56 5.56 0 0 0 .75 2.1c.64.92 1.65 1.47 3.07 1.66 3.53.47 7.06 1.02 10.58 1.57.68.1 1.34.37 2.02.56a12.72 12.72 0 0 0 2.01-2.49c.53-.86.9-1.74 1.11-2.61.43-1.74.21-3.45-.73-4.9-3.08 2.3-6.48 3.8-10.4 3.87M203.54 152.29c1.31 4.77 5.09 6.07 9.38 6.68.42.06.8.38 1.21.58l.8.03.57-.1c1.37-1.32 1.76-2.9 1.88-4.6.04-.57.05-1.15.06-1.74l-9.57-.61c-1.44-.1-2.89-.16-4.33-.24"/>
  <path fill="#e8be74" fill-rule="nonzero" d="M165.12 38.2c.39.14.8.18 1.22.23l.42.06-.29-.36-1.78-2.2c-.29.1-.63.35-.87.27-5.47-1.83-10.95-.79-16.37.1-7.16 1.2-13.54 4.36-19.57 8.31-.34.22-.88.13-1.33.19l-3.41 4.98c6.11-4.75 12.64-8.81 20.14-10.98 7.2-2.07 14.48-3.33 21.84-.6"/>
  <path fill="#fbe68c" fill-rule="nonzero" d="M39.35 158.5l2.67-.63 4.18-1.04 1.35-1.48-.3-.94.76-1.83-13.9 1.21c.26 1.76-.15 3.75 1.84 4.94l2.77-.34.63.11"/>
  <path fill="#801a3c" fill-rule="nonzero" d="M52.84 171.4a.6.6 0 0 1 .09.19c1.75 6.65 4.95 12.6 8.57 18.38 3.16 5.06 7.6 7.85 13.54 8.28.02 0 .03-.02.05-.03l1.7-.97c-.48-.1-.96-.2-1.44-.28-3.67-.7-7.59-1.22-9.94-4.45a83.9 83.9 0 0 1-7.3-11.75 55.04 55.04 0 0 1-2.48-5.98c-.74-2.04-1.42-4.1-2.19-6.12l-2.06 1.68.21.15c.3.2.66.38.93.58.14.1.25.2.33.32"/>
  <path fill="#fbe68c" fill-rule="nonzero" d="M205.6 162.22l-2.08.1a39.55 39.55 0 0 0-.62 2.54 5.47 5.47 0 0 0-.13 1.67c.04.3.13.54.27.75.57.83 2.03 1.1 4.85 1.48.82.12 1.6.43 2.4.64.32-.18.6-.38.82-.6.35-.32.6-.67.78-1.05.67-1.38.44-3.08.65-4.73l-6.46-.76-.48-.04M58.15 31.7l-7.55-5.53c-2.52-1.84-5.03-3.69-7.53-5.56-7.88-5.92-16.37-10.57-26.1-12.67a9.95 9.95 0 0 0-1.94-.18c-.67-.01-1.33 0-2-.02L2.9 3.82C2.88 2.18 4.17 2.6 4.97 2.67c3.42.31 6.83.8 10.25 1.14C27.9 5.02 40.5 6.77 52.77 10.23c8.96 2.51 17.62 5.84 25.6 10.66 2.35 1.42 4.27 3.55 6.39 5.35-.04-.01-.04-.01 0 0l.29 2.6c-.33 3.56-1.85 6.61-4.02 9.36a100.87 100.87 0 0 1-4.77 5.63c-3.52 3.85-7 3.8-11.3-.22 1.49-.6 2.91-1.12 4.26-1.78.57-.28 1.33-.85 1.37-1.34.04-.5-.58-1.24-1.1-1.59a345.96 345.96 0 0 0-7.87-5.12c-.6-.4-3.47-2.08-3.47-2.08z"/>
  <path fill="#e5a86e" fill-rule="nonzero" d="M203.54 152.29c-.27.13-.75.4-.77.37-1.77-2.75-2.25-.26-2.73.79-1.51 3.27-.43 5.2 3.12 5.79 1.8.3 3.6.7 5.42.76.46.01.92 0 1.38-.03 1.4-.08 2.78-.3 4.17-.42-.4-.2-.79-.52-1.21-.58-4.3-.6-8.07-1.91-9.38-6.68"/>
  <path fill="#801a3c" fill-rule="nonzero" d="M188.47 184.74l-17.1.07 1.26 1.05 1.21 1c.7-.28 1.38-.78 2.08-.8 4.98-.07 9.96-.05 14.94-.04 1.92 0 3.21-.8 3.77-2.68l3.41-11.41-1.6-1.57c-.76 3.41-1.36 6.87-2.3 10.23-1.08 3.85-1.66 4.13-5.67 4.15"/>
  <path fill="#e7af72" fill-rule="nonzero" d="M207.3 147.6c-2.69-.4-4.25-1.97-4.67-4.65-.9-.12-1.44.07-1.77.44l-.15.19c-.1.14-.17.3-.22.46-.06.16-.1.34-.14.52l-.1.56c-.05.28-.09.56-.15.83-.32 1.49-.05 2.73 1.73 2.92 5 .55 9.99 1.07 14.99 1.5.75.06 1.55-.48 2.33-.73-1.87-.42-3.74-.92-5.64-1.25-2.05-.35-4.15-.5-6.22-.8M45.63 150.11c2.96-.67 3.94-1 4.37-2.86.08-.31.13-.67.18-1.08.05-.4.1-.86.13-1.38-.8.24-1.7.32-2.4.74-5.24 3.24-11.12 3.46-17 3.75-.25.02-.5.13-.73.28-.24.15-.48.32-.73.44.2.08.38.2.57.28.19.1.38.17.57.17 5.01.15 10.02.8 15.04-.34"/>
  <path fill="#e5a86e" fill-rule="nonzero" d="M96.03 48.36c.52.7 1.12 1.35 1.69 2.02l-2.8-11.75a17.03 17.03 0 0 0-4.9 3.28c-1.37 1.36-2.46 3-3.2 5 .72-.24 1.44-.48 2.14-.74 3.1-1.13 5.14-.48 7.07 2.19M50.03 158.92c.42-2.3.2-4.73-2.02-6.34l-.76 1.83.3.94-1.34 1.48-4.2 1.04c-.88.22-1.77.42-2.66.63l-.66.37.03-.48-2.77.34c.55.5 1.07 1.38 1.67 1.45 3.17.36 6.36.7 9.54.66 1.01-.02 2.72-1.1 2.87-1.92"/>
  <path fill="#e8be74" fill-rule="nonzero" d="M30.9 149.28c5.9-.29 11.77-.5 17.01-3.75.7-.42 1.6-.5 2.4-.74.07-.2.11-.38.13-.53a1.3 1.3 0 0 0 .01-.39.64.64 0 0 0-.1-.27c-.26-.37-.9-.32-1.58-.24-3.07 1.26-6.04 2.94-9.24 3.68-1.93.44-3.9.68-5.89.86-1 .1-1.99.17-2.99.25-1 .09-1.99.17-2.98.28l1.78 1.57c.25-.12.49-.3.73-.44.24-.15.48-.26.73-.28"/>
  <path fill="#e5a86e" fill-rule="nonzero" d="M84.55 47.18c-.14-.62-.39-1.23-.4-1.85-.06-1.68-.03-3.37-.03-5.44a25.18 25.18 0 0 0-5.01 6.54 28.36 28.36 0 0 0-1.86 4.36c2.37-1.34 4.08-4.01 7.3-3.61M201.84 163.4l.34-1.83a2.31 2.31 0 0 0-1.39.17c-.17.1-.32.21-.45.35-.22.22-.4.5-.54.78-.26.5-.47 1.06-.75 1.5-1.89 2.91-.87 5.4 2.55 6 1.59.27 3.22.25 4.85.25.55 0 1.09.01 1.63.03-.42-.23-.83-.63-1.28-.67-4.87-.48-5.88-1.8-4.97-6.58"/>
  <path fill="#e8be74" fill-rule="nonzero" d="M207.86 146.31c-1.42-.19-2.44-.74-3.07-1.67a5.61 5.61 0 0 1-.75-2.1 598.49 598.49 0 0 0-1.41.4c.43 2.69 1.98 4.26 4.66 4.65 2.07.3 4.17.45 6.23.8 1.89.33 3.76.83 5.64 1.25l1.3-1.2c-.68-.2-1.34-.46-2.02-.56-3.52-.55-7.05-1.1-10.58-1.57"/>
  <path fill="#e5a86e" fill-rule="nonzero" d="M48.95 169.13c.33-.2.63-.43.88-.7.25-.26.45-.55.6-.87.56-1.25-.06-3.03-.15-4.57l-1.05.14c.06 1.68-.25 2.86-1.02 3.66a3.26 3.26 0 0 1-1.07.76 8.6 8.6 0 0 1-2.75.7c-.84.09-1.64.6-2.45.94 1.17.82 2.96 1.06 4.62.79l.22-.04a7.08 7.08 0 0 0 2.17-.8"/>
  <path fill="#fbe68c" fill-rule="nonzero" d="M47.63 165.05c.79-1.05.22-1.5-.91-1.49h-6.44l.54 3.83c1.66-.27 3.35-.43 4.96-.87.7-.2 1.39-.85 1.85-1.47"/>
  <path fill="#e8be74" fill-rule="nonzero" d="M203.04 167.28a1.7 1.7 0 0 1-.27-.75c-.05-.44 0-.98.13-1.67.13-.7.35-1.53.62-2.54l-1.34-.75-.35 1.83c-.91 4.78.1 6.1 4.97 6.58.45.04.86.44 1.28.67l1.54-.87.67-.38c-.8-.21-1.59-.52-2.4-.64-2.82-.39-4.28-.64-4.85-1.48M47.14 167.55a3.88 3.88 0 0 0 1.07-.76c.77-.8 1.08-1.98 1.02-3.66l-2.32.4-.2.03c1.14 0 1.7.44.92 1.49a3.94 3.94 0 0 1-1.85 1.47c-1.61.44-3.3.6-4.96.87l1.12 1.8c.81-.33 1.6-.85 2.45-.95a8.6 8.6 0 0 0 2.75-.69M87.48 213.42c.9-.94 1.5-2.19 2.1-3.36 2.43-4.63 6.04-7.43 11.42-7.66 1.66-.07 3.32-.27 4.98-.4l.3.56c-1.82 2-3.54 4.09-5.47 5.96-2.5 2.44-5.06 4.84-7.8 7-3.26 2.57-7 3.91-11.34 3.36 2.02-1.88 4.01-3.57 5.8-5.46m-6.75 6.77c3.93.91 7.78.2 10.86-2.1 4.3-3.2 8.2-6.97 12.16-10.64 1.86-1.72 3.43-3.76 5.13-5.66l-.3-.75c-2.14-.07-4.27-.2-6.4-.2-6.09-.03-10.77 2.52-13.52 8a20.95 20.95 0 0 1-8.63 8.92c-.57.33-1.07.78-1.92 1.41.73.4.95.55 1.2.64.46.15.94.27 1.42.38"/>
  <path fill="#f8f1ed" fill-rule="nonzero" d="M118.94 99.73c-1.8.85-2.25 2.13-1.53 3.83.18-.25.33-.48.5-.68 1.94-2.37 2.13-2.34 4.85-.73.5.3 1.57.07 2.15-.29 1.5-.9 2.87-2.02 4.24-3.01-3.2-.86-6.77-.77-10.21.88"/>
  <path fill="#fffab6" fill-rule="nonzero" d="M93.01 215.52a100.7 100.7 0 0 0 7.8-7c1.93-1.87 3.65-3.97 5.47-5.96l-.3-.57c-1.66.14-3.32.34-4.98.41-5.38.23-8.99 3.03-11.41 7.66-.62 1.17-1.22 2.42-2.11 3.36-1.8 1.88-3.79 3.58-5.8 5.46 4.32.55 8.07-.8 11.33-3.36"/>
  <path fill="#fff" fill-rule="nonzero" d="M154.04 89.8c2.93.05 5.94-2.65 5.99-5.39a6.24 6.24 0 0 0-6-6.11 5.76 5.76 0 0 0-5.94 5.8c-.04 2.8 2.94 5.66 5.95 5.7"/>
  <path fill="#dfd5dc" fill-rule="nonzero" d="M155.13 73.92c.88.14 1.8.1 2.48.13.33.98.45 1.79.87 2.39.16.22 1.43.06 1.45-.07.15-.7.06-1.45.04-2.18 0-.22-.15-.5-.05-.66 1.12-1.91-.42-3.35-1.53-3.57-1.4-.27-3.3.36-4.53 1.22-1.07.76-.2 2.49 1.27 2.74"/>
  <path fill="#fff" fill-rule="nonzero" d="M96.44 90.96c3.07-.05 6.17-3.14 6.12-6.1-.04-3.27-2.78-5.78-6.26-5.74-3.4.03-6.22 2.74-6.17 5.92.04 2.92 3.3 5.97 6.31 5.92"/>
  <path fill="#dfd5dc" fill-rule="nonzero" d="M98.85 76.05c2.5.04 3.52-.79 3.49-2.76-.02-1.59-1.02-1.96-2.4-1.97-2.66-.01-4.53 1-4.4 2.56.16 2.2 1.96 1.99 3.3 2.17M101.14 78.18c.48.4.95 1.1 1.44 1.1.46.03.95-.68 1.73-1.32-.83-.6-1.46-1.34-1.8-1.22-.56.18-.92.93-1.37 1.44"/>
  <path fill="#e8be74" fill-rule="nonzero" d="M201.04 29.52l5.63-1.58-6.3 7.66s4.72-1.47 9-1.47c0 0-7.1 5.86-10.7 7.2l3.6 1.7-2.25 2.93 2.6.78-9.8 5.18s2.59 2.82 8.67 2.7c0 0-4.84 6.88-6.76 7.66-1.43.6 1.95 1.5 3.73 1.92l-.91.8a65.46 65.46 0 0 0 3.2-2.9c-2.35.29-5.7.45-2.42-1.5 4.73-2.82 6.65-8 6.65-8a15.84 15.84 0 0 1-8.9-.68l11.15-5.06-3.83-1.58 2.93-2.03-3.72-2.14c5.4-2.25 10.02-8.9 10.02-8.9-5.85 0-9.57 1.92-9.57 1.92l10.48-9.68-8.56 2.81 5.2-6.23c-1.79.94-3.55 1.9-5.3 2.9l-3.84 5.59zM204.8 23.96a10.34 10.34 0 0 0-.7.39c-.92.53-1.85 1.06-2.76 1.6l-1.08.64c1.5-.9 3.02-1.77 4.54-2.63M200.18 26.64a235.29 235.29 0 0 0-3.97 2.43c-1.35.84-2.7 1.7-4.03 2.58l-.73.49c2.87-1.9 5.78-3.74 8.73-5.5"/>
  <path fill="#fffab6" fill-rule="nonzero" d="M187.34 44.6c-3.42 1.74-6.9 3.34-10.07 4.85l5.17 23.07c4.3-.82 11.22-4.23 15.1-7.52.32-.26.61-.53.92-.8-1.78-.42-5.17-1.32-3.73-1.92 1.92-.78 6.76-7.65 6.76-7.65-6.08.1-8.67-2.7-8.67-2.7l9.8-5.19-2.6-.78 2.26-2.93-3.6-1.69c3.6-1.35 10.69-7.2 10.69-7.2-4.28 0-9 1.46-9 1.46l6.3-7.66-5.63 1.58 3.83-5.6-.07.05c-1.52.85-3.04 1.73-4.54 2.62l-.08.05a214.05 214.05 0 0 0-8.73 5.5c-.02 0-.04.02-.05.03l-.68.45c-1.36.91-2.71 1.84-4.06 2.78-1.04.74-2 1.6-3.01 2.41 1.56 1.26 2.96 2.21 4.16 3.38 1.52 1.48 1.4 2.47-.47 3.42"/>
  <path fill="#e8be74" fill-rule="nonzero" d="M54.66 63.67l.16.13.71.59 1.04.84a72 72 0 0 1-1.9-1.56M47.45 51.25L53.87 50l-9.35-7.66 4.84-.56-2.92-3.38 3.6-.79-7.2-6.3h8.32l-3.94-3.27 2.14.36-2.64-1.82-.6-.42-6.25-1.53 7.8 5.85-8.4-.6s2.7 4.2 7.65 7.06l-4.35.9 3.6 3.15-4.05.15s1.8 4.66 8.4 7.96h-5.85s1.12 4.37 4.18 9.1a79.3 79.3 0 0 0 2.82 2.78l.7.66-4.92-10.4zM49.38 28.42c4.84 3.34 9.66 6.7 14.5 10.05-4.84-3.35-9.66-6.71-14.5-10.05M57.07 65.62l.98.75.33.23.29.22-1.6-1.2"/>
  <path fill="#fffab6" fill-rule="nonzero" d="M62.69 41.66c1.06-.5 2.14-.94 3.57-1.56l-2.39-1.63c-4.83-3.35-9.65-6.71-14.5-10.05l-.01-.01-2.14-.36 3.95 3.27h-8.34l7.2 6.3-3.6.8 2.93 3.37-4.84.56 9.35 7.66-6.42 1.24 4.93 10.4.01.02.44.4 1.25 1.1.59.5c.62.53 1.26 1.05 1.9 1.56l.5.39 1.6 1.2.58.42c.7.5 1.4 1 2.12 1.47 2.38 1.58 5.1 2.64 7.46 3.82 1.35-6.33 2.5-12.16 3.9-17.93.36-1.5 0-2-1.19-2.8a152.4 152.4 0 0 1-9.34-6.83c-1.63-1.28-1.38-2.45.49-3.32"/>
</svg>
