<?xml version="1.0" encoding="UTF-8"?>
<svg xmlns="http://www.w3.org/2000/svg" xmlns:xlink="http://www.w3.org/1999/xlink" width="80pt" height="80pt" viewBox="0 0 80 80" version="1.1">
<defs>
<linearGradient id="linear0" gradientUnits="userSpaceOnUse" x1="32" y1="25" x2="32" y2="55" spreadMethod="reflect" gradientTransform="matrix(1.25,0,0,1.25,0,0)">
<stop offset="0" style="stop-color:#6DC7FF;stop-opacity:1;"/>
<stop offset="1" style="stop-color:#E6ABFF;stop-opacity:1;"/>
</linearGradient>
<linearGradient id="linear1" gradientUnits="userSpaceOnUse" x1="32" y1="2" x2="32" y2="62.5129" spreadMethod="reflect" gradientTransform="matrix(1.25,0,0,1.25,0,0)">
<stop offset="0" style="stop-color:#1A6DFF;stop-opacity:1;"/>
<stop offset="1" style="stop-color:#C822FF;stop-opacity:1;"/>
</linearGradient>
</defs>
<g id="surface1">
<path style=" stroke:none;fill-rule:nonzero;fill:url(#linear0);" d="M 40 31.25 C 29.660156 31.25 21.25 39.660156 21.25 50 C 21.25 60.339844 29.660156 68.75 40 68.75 C 50.339844 68.75 58.75 60.339844 58.75 50 C 58.75 39.660156 50.339844 31.25 40 31.25 Z M 42.5 53.222656 L 42.5 57.5 C 42.5 58.882813 41.382813 60 40 60 C 38.617188 60 37.5 58.882813 37.5 57.5 L 37.5 53.222656 C 35.296875 52.257813 33.75 50.0625 33.75 47.5 C 33.75 44.046875 36.546875 41.25 40 41.25 C 43.453125 41.25 46.25 44.046875 46.25 47.5 C 46.25 50.0625 44.703125 52.257813 42.5 53.222656 Z "/>
<path style=" stroke:none;fill-rule:nonzero;fill:url(#linear1);" d="M 53.75 27.679688 L 53.75 22.5 C 53.75 21.121094 52.628906 20 51.25 20 L 46.25 20 C 44.871094 20 43.75 21.121094 43.75 22.5 L 43.75 24.050781 C 42.519531 23.871094 41.277344 23.75 40 23.75 C 38.722656 23.75 37.480469 23.871094 36.25 24.050781 L 36.25 22.5 C 36.25 21.121094 35.128906 20 33.75 20 L 32.5 20 L 32.5 13.75 C 32.5 9.613281 35.863281 6.25 40 6.25 C 44.136719 6.25 47.5 9.613281 47.5 13.75 L 47.5 15 L 50 15 L 50 13.75 C 50 8.234375 45.515625 3.75 40 3.75 C 34.484375 3.75 30 8.234375 30 13.75 L 30 20 L 28.75 20 C 27.371094 20 26.25 21.121094 26.25 22.5 L 26.25 27.679688 C 18.765625 32.3125 13.75 40.570313 13.75 50 C 13.75 64.476563 25.523438 76.25 40 76.25 C 54.476563 76.25 66.25 64.476563 66.25 50 C 66.25 40.570313 61.234375 32.3125 53.75 27.679688 Z M 46.25 24.535156 L 46.25 22.5 L 51.25 22.5 L 51.25 26.320313 C 50.457031 25.941406 49.644531 25.601563 48.8125 25.304688 C 48.808594 25.300781 48.808594 25.300781 48.804688 25.300781 C 47.972656 25.003906 47.121094 24.746094 46.25 24.535156 Z M 28.75 22.5 L 33.75 22.5 L 33.75 24.535156 C 32.878906 24.746094 32.027344 25.003906 31.195313 25.300781 C 31.191406 25.304688 31.191406 25.304688 31.1875 25.304688 C 30.355469 25.605469 29.542969 25.941406 28.75 26.320313 Z M 40 73.75 C 26.902344 73.75 16.25 63.097656 16.25 50 C 16.25 36.902344 26.902344 26.25 40 26.25 C 53.097656 26.25 63.75 36.902344 63.75 50 C 63.75 63.097656 53.097656 73.75 40 73.75 Z "/>
</g>
</svg>
