<?xml version="1.0" encoding="UTF-8"?>
<svg xmlns="http://www.w3.org/2000/svg" xmlns:xlink="http://www.w3.org/1999/xlink" width="80pt" height="80pt" viewBox="0 0 80 80" version="1.1">
<defs>
<linearGradient id="linear0" gradientUnits="userSpaceOnUse" x1="49" y1="21.9609" x2="49" y2="29.6619" spreadMethod="reflect" gradientTransform="matrix(1.25,0,0,1.25,0,0)">
<stop offset="0" style="stop-color:#6DC7FF;stop-opacity:1;"/>
<stop offset="1" style="stop-color:#E6ABFF;stop-opacity:1;"/>
</linearGradient>
<linearGradient id="linear1" gradientUnits="userSpaceOnUse" x1="40" y1="12" x2="40" y2="19.8003" spreadMethod="reflect" gradientTransform="matrix(1.25,0,0,1.25,0,0)">
<stop offset="0" style="stop-color:#6DC7FF;stop-opacity:1;"/>
<stop offset="1" style="stop-color:#E6ABFF;stop-opacity:1;"/>
</linearGradient>
<linearGradient id="linear2" gradientUnits="userSpaceOnUse" x1="26" y1="11.0438" x2="26" y2="18.9416" spreadMethod="reflect" gradientTransform="matrix(1.25,0,0,1.25,0,0)">
<stop offset="0" style="stop-color:#6DC7FF;stop-opacity:1;"/>
<stop offset="1" style="stop-color:#E6ABFF;stop-opacity:1;"/>
</linearGradient>
<linearGradient id="linear3" gradientUnits="userSpaceOnUse" x1="16" y1="21.1089" x2="16" y2="28.9559" spreadMethod="reflect" gradientTransform="matrix(1.25,0,0,1.25,0,0)">
<stop offset="0" style="stop-color:#6DC7FF;stop-opacity:1;"/>
<stop offset="1" style="stop-color:#E6ABFF;stop-opacity:1;"/>
</linearGradient>
<linearGradient id="linear4" gradientUnits="userSpaceOnUse" x1="16" y1="33.9501" x2="16" y2="41.8509" spreadMethod="reflect" gradientTransform="matrix(1.25,0,0,1.25,0,0)">
<stop offset="0" style="stop-color:#6DC7FF;stop-opacity:1;"/>
<stop offset="1" style="stop-color:#E6ABFF;stop-opacity:1;"/>
</linearGradient>
<linearGradient id="linear5" gradientUnits="userSpaceOnUse" x1="31.9997" y1="4.625" x2="31.9997" y2="59.3701" spreadMethod="reflect" gradientTransform="matrix(1.25,0,0,1.25,0,0)">
<stop offset="0" style="stop-color:#1A6DFF;stop-opacity:1;"/>
<stop offset="1" style="stop-color:#C822FF;stop-opacity:1;"/>
</linearGradient>
</defs>
<g id="surface1">
<path style=" stroke:none;fill-rule:nonzero;fill:url(#linear0);" d="M 66.25 32.5 C 66.25 35.265625 64.015625 37.5 61.25 37.5 C 58.488281 37.5 56.25 35.265625 56.25 32.5 C 56.25 29.738281 58.488281 27.5 61.25 27.5 C 64.015625 27.5 66.25 29.738281 66.25 32.5 Z "/>
<path style=" stroke:none;fill-rule:nonzero;fill:url(#linear1);" d="M 55 20 C 55 22.765625 52.765625 25 50 25 C 47.238281 25 45 22.765625 45 20 C 45 17.238281 47.238281 15 50 15 C 52.765625 15 55 17.238281 55 20 Z "/>
<path style=" stroke:none;fill-rule:nonzero;fill:url(#linear2);" d="M 37.5 18.75 C 37.5 21.515625 35.265625 23.75 32.5 23.75 C 29.738281 23.75 27.5 21.515625 27.5 18.75 C 27.5 15.988281 29.738281 13.75 32.5 13.75 C 35.265625 13.75 37.5 15.988281 37.5 18.75 Z "/>
<path style=" stroke:none;fill-rule:nonzero;fill:url(#linear3);" d="M 25 31.25 C 25 34.015625 22.765625 36.25 20 36.25 C 17.238281 36.25 15 34.015625 15 31.25 C 15 28.488281 17.238281 26.25 20 26.25 C 22.765625 26.25 25 28.488281 25 31.25 Z "/>
<path style=" stroke:none;fill-rule:nonzero;fill:url(#linear4);" d="M 25 47.5 C 25 50.265625 22.765625 52.5 20 52.5 C 17.238281 52.5 15 50.265625 15 47.5 C 15 44.738281 17.238281 42.5 20 42.5 C 22.765625 42.5 25 44.738281 25 47.5 Z "/>
<path style=" stroke:none;fill-rule:nonzero;fill:url(#linear5);" d="M 37.5 51.25 C 33.363281 51.25 30 54.613281 30 58.75 C 30 62.886719 33.363281 66.25 37.5 66.25 C 41.636719 66.25 45 62.886719 45 58.75 C 45 54.613281 41.636719 51.25 37.5 51.25 Z M 37.5 63.75 C 34.742188 63.75 32.5 61.507813 32.5 58.75 C 32.5 55.992188 34.742188 53.75 37.5 53.75 C 40.257813 53.75 42.5 55.992188 42.5 58.75 C 42.5 61.507813 40.257813 63.75 37.5 63.75 Z M 63.109375 15.402344 C 56.25 8.957031 47.28125 5.726563 37.847656 6.320313 C 20.921875 7.367188 7.367188 20.921875 6.320313 37.847656 C 5.734375 47.28125 8.957031 56.25 15.402344 63.109375 C 21.757813 69.875 30.722656 73.75 40 73.75 C 46.894531 73.75 52.5 68.144531 52.5 61.25 L 52.5 58.75 C 52.5 53.238281 56.988281 48.75 62.5 48.75 L 65 48.75 C 69.824219 48.75 73.75 44.824219 73.75 40 C 73.75 30.722656 69.875 21.757813 63.109375 15.402344 Z M 65 46.25 L 62.5 46.25 C 55.605469 46.25 50 51.855469 50 58.75 L 50 61.25 C 50 66.761719 45.511719 71.25 40 71.25 C 31.285156 71.25 23.199219 67.75 17.222656 61.398438 C 11.261719 55.050781 8.273438 46.738281 8.8125 38.003906 C 9.785156 22.335938 22.335938 9.785156 38.003906 8.8125 C 38.675781 8.769531 39.351563 8.75 40.023438 8.75 C 48.011719 8.75 55.539063 11.71875 61.398438 17.222656 C 67.75 23.199219 71.25 31.285156 71.25 40 C 71.25 43.449219 68.449219 46.25 65 46.25 Z "/>
</g>
</svg>
