<?xml version="1.0" encoding="UTF-8"?>
<svg xmlns="http://www.w3.org/2000/svg" xmlns:xlink="http://www.w3.org/1999/xlink" width="80pt" height="80pt" viewBox="0 0 80 80" version="1.1">
<defs>
<linearGradient id="linear0" gradientUnits="userSpaceOnUse" x1="32" y1="4.3333" x2="32" y2="58.4938" spreadMethod="reflect" gradientTransform="matrix(1.25,0,0,1.25,0,0)">
<stop offset="0" style="stop-color:#1A6DFF;stop-opacity:1;"/>
<stop offset="1" style="stop-color:#C822FF;stop-opacity:1;"/>
</linearGradient>
<linearGradient id="linear1" gradientUnits="userSpaceOnUse" x1="32" y1="26.4167" x2="32" y2="37.6694" spreadMethod="reflect" gradientTransform="matrix(1.25,0,0,1.25,0,0)">
<stop offset="0" style="stop-color:#6DC7FF;stop-opacity:1;"/>
<stop offset="1" style="stop-color:#E6ABFF;stop-opacity:1;"/>
</linearGradient>
<linearGradient id="linear2" gradientUnits="userSpaceOnUse" x1="32" y1="4.3333" x2="32" y2="58.4938" spreadMethod="reflect" gradientTransform="matrix(1.25,0,0,1.25,0,0)">
<stop offset="0" style="stop-color:#1A6DFF;stop-opacity:1;"/>
<stop offset="1" style="stop-color:#C822FF;stop-opacity:1;"/>
</linearGradient>
<linearGradient id="linear3" gradientUnits="userSpaceOnUse" x1="32" y1="4.3333" x2="32" y2="58.4938" spreadMethod="reflect" gradientTransform="matrix(1.25,0,0,1.25,0,0)">
<stop offset="0" style="stop-color:#1A6DFF;stop-opacity:1;"/>
<stop offset="1" style="stop-color:#C822FF;stop-opacity:1;"/>
</linearGradient>
<linearGradient id="linear4" gradientUnits="userSpaceOnUse" x1="46" y1="4.3333" x2="46" y2="58.4938" spreadMethod="reflect" gradientTransform="matrix(1.25,0,0,1.25,0,0)">
<stop offset="0" style="stop-color:#1A6DFF;stop-opacity:1;"/>
<stop offset="1" style="stop-color:#C822FF;stop-opacity:1;"/>
</linearGradient>
<linearGradient id="linear5" gradientUnits="userSpaceOnUse" x1="46" y1="4.3333" x2="46" y2="58.4938" spreadMethod="reflect" gradientTransform="matrix(1.25,0,0,1.25,0,0)">
<stop offset="0" style="stop-color:#1A6DFF;stop-opacity:1;"/>
<stop offset="1" style="stop-color:#C822FF;stop-opacity:1;"/>
</linearGradient>
</defs>
<g id="surface1">
<path style=" stroke:none;fill-rule:nonzero;fill:url(#linear0);" d="M 41.253906 72.5 L 38.746094 72.5 C 35.992188 72.5 33.75 70.257813 33.75 67.503906 L 33.75 66.054688 C 33.75 64.988281 33.035156 64.03125 31.972656 63.667969 C 30.949219 63.320313 29.933594 62.898438 28.953125 62.414063 C 27.945313 61.917969 26.753906 62.085938 26 62.839844 L 24.972656 63.867188 C 23.023438 65.816406 19.855469 65.816406 17.90625 63.867188 L 16.132813 62.09375 C 14.183594 60.144531 14.183594 56.976563 16.132813 55.03125 L 17.160156 54 C 17.917969 53.246094 18.085938 52.058594 17.585938 51.046875 C 17.105469 50.070313 16.679688 49.050781 16.332031 48.027344 C 15.96875 46.964844 15.011719 46.25 13.945313 46.25 L 12.496094 46.25 C 9.742188 46.25 7.5 44.007813 7.5 41.253906 L 7.5 38.746094 C 7.5 35.992188 9.742188 33.75 12.496094 33.75 L 13.945313 33.75 C 15.011719 33.75 15.96875 33.035156 16.332031 31.972656 C 16.679688 30.949219 17.101563 29.933594 17.585938 28.953125 C 18.085938 27.941406 17.914063 26.753906 17.160156 26 L 16.132813 24.972656 C 14.183594 23.023438 14.183594 19.855469 16.132813 17.90625 L 17.90625 16.132813 C 19.855469 14.183594 23.019531 14.183594 24.96875 16.132813 L 26 17.164063 C 26.753906 17.917969 27.945313 18.089844 28.953125 17.589844 C 29.921875 17.109375 30.9375 16.691406 31.96875 16.339844 C 33.035156 15.980469 33.75 15.019531 33.75 13.953125 L 33.75 13.75 C 33.75 10.304688 36.554688 7.5 40 7.5 L 40 10 C 37.933594 10 36.25 11.683594 36.25 13.75 L 36.25 13.953125 C 36.25 16.089844 34.855469 18.003906 32.773438 18.707031 C 31.84375 19.023438 30.929688 19.402344 30.058594 19.828125 C 28.085938 20.800781 25.742188 20.441406 24.234375 18.929688 L 23.203125 17.898438 C 22.230469 16.921875 20.648438 16.925781 19.675781 17.898438 L 17.898438 19.671875 C 16.925781 20.644531 16.925781 22.230469 17.898438 23.203125 L 18.929688 24.230469 C 20.441406 25.742188 20.804688 28.085938 19.828125 30.058594 C 19.390625 30.941406 19.015625 31.855469 18.699219 32.777344 C 17.992188 34.855469 16.082031 36.25 13.945313 36.25 L 12.496094 36.25 C 11.121094 36.25 10 37.371094 10 38.746094 L 10 41.253906 C 10 42.628906 11.121094 43.75 12.496094 43.75 L 13.945313 43.75 C 16.082031 43.75 17.992188 45.144531 18.699219 47.222656 C 19.011719 48.140625 19.390625 49.054688 19.828125 49.9375 C 20.800781 51.910156 20.441406 54.253906 18.925781 55.769531 L 17.898438 56.796875 C 16.925781 57.769531 16.925781 59.351563 17.898438 60.324219 L 19.671875 62.101563 C 20.648438 63.074219 22.230469 63.070313 23.203125 62.101563 L 24.230469 61.070313 C 25.742188 59.558594 28.089844 59.195313 30.058594 60.171875 C 30.941406 60.609375 31.855469 60.984375 32.777344 61.300781 C 34.855469 62.007813 36.25 63.917969 36.25 66.054688 L 36.25 67.503906 C 36.25 68.878906 37.371094 70 38.746094 70 L 41.253906 70 C 42.628906 70 43.75 68.878906 43.75 67.503906 L 43.75 66.054688 C 43.75 63.917969 45.144531 62.007813 47.222656 61.300781 C 48.140625 60.988281 49.054688 60.609375 49.9375 60.171875 C 51.910156 59.195313 54.253906 59.554688 55.769531 61.074219 L 56.796875 62.101563 C 57.769531 63.078125 59.351563 63.074219 60.324219 62.101563 L 62.101563 60.328125 C 63.074219 59.355469 63.074219 57.769531 62.101563 56.796875 L 61.003906 55.703125 C 59.523438 54.21875 59.171875 51.933594 60.136719 50.015625 C 60.585938 49.113281 60.980469 48.171875 61.304688 47.222656 C 62.015625 45.144531 63.925781 43.75 66.0625 43.75 L 66.25 43.75 C 68.316406 43.75 70 42.066406 70 40 L 72.5 40 C 72.5 43.445313 69.699219 46.25 66.25 46.25 L 66.0625 46.25 C 64.996094 46.25 64.035156 46.964844 63.671875 48.03125 C 63.3125 49.085938 62.875 50.132813 62.371094 51.132813 C 61.894531 52.089844 62.054688 53.214844 62.773438 53.933594 L 63.867188 55.027344 C 65.816406 56.976563 65.816406 60.144531 63.867188 62.09375 L 62.09375 63.867188 C 60.144531 65.816406 56.980469 65.816406 55.03125 63.867188 L 54 62.839844 C 53.246094 62.082031 52.0625 61.917969 51.046875 62.414063 C 50.066406 62.894531 49.050781 63.320313 48.027344 63.667969 C 46.964844 64.03125 46.25 64.988281 46.25 66.054688 L 46.25 67.503906 C 46.25 70.257813 44.007813 72.5 41.253906 72.5 Z "/>
<path style=" stroke:none;fill-rule:nonzero;fill:url(#linear1);" d="M 46.25 40 C 46.25 43.453125 43.453125 46.25 40 46.25 C 36.546875 46.25 33.75 43.453125 33.75 40 C 33.75 36.546875 36.546875 33.75 40 33.75 C 43.453125 33.75 46.25 36.546875 46.25 40 Z "/>
<path style=" stroke:none;fill-rule:nonzero;fill:url(#linear2);" d="M 40 60 C 28.972656 60 20 51.027344 20 40 C 20 28.972656 28.972656 20 40 20 L 40 22.5 C 30.351563 22.5 22.5 30.351563 22.5 40 C 22.5 49.648438 30.351563 57.5 40 57.5 C 49.648438 57.5 57.5 49.648438 57.5 40 L 60 40 C 60 51.027344 51.027344 60 40 60 Z "/>
<path style=" stroke:none;fill-rule:nonzero;fill:url(#linear3);" d="M 40 53.75 C 32.417969 53.75 26.25 47.582031 26.25 40 C 26.25 32.417969 32.417969 26.25 40 26.25 L 40 28.75 C 33.796875 28.75 28.75 33.796875 28.75 40 C 28.75 46.203125 33.796875 51.25 40 51.25 C 46.203125 51.25 51.25 46.203125 51.25 40 L 53.75 40 C 53.75 47.582031 47.582031 53.75 40 53.75 Z "/>
<path style=" stroke:none;fill-rule:nonzero;fill:url(#linear4);" d="M 57.5 37.5 C 55.433594 37.5 53.75 35.816406 53.75 33.75 L 53.75 33.09375 C 53.359375 32.960938 53.03125 32.820313 52.710938 32.671875 L 52.195313 33.109375 C 50.785156 34.523438 48.3125 34.523438 46.894531 33.109375 C 46.1875 32.398438 45.796875 31.457031 45.796875 30.457031 C 45.796875 29.453125 46.1875 28.511719 46.894531 27.804688 L 47.355469 27.34375 C 47.179688 26.96875 47.042969 26.640625 46.921875 26.300781 L 46.25 26.25 C 44.183594 26.25 42.5 24.566406 42.5 22.5 C 42.5 20.433594 44.183594 18.75 46.25 18.75 L 46.90625 18.75 C 47.039063 18.359375 47.179688 18.03125 47.328125 17.710938 L 46.890625 17.195313 C 46.183594 16.488281 45.792969 15.546875 45.792969 14.546875 C 45.792969 13.542969 46.183594 12.601563 46.890625 11.894531 C 48.308594 10.476563 50.78125 10.480469 52.195313 11.894531 L 52.65625 12.355469 C 53.03125 12.179688 53.359375 12.042969 53.699219 11.921875 L 53.75 11.25 C 53.75 9.183594 55.433594 7.5 57.5 7.5 C 59.566406 7.5 61.25 9.183594 61.25 11.25 L 61.25 11.90625 C 61.640625 12.039063 61.96875 12.179688 62.289063 12.328125 L 62.804688 11.890625 C 64.214844 10.476563 66.691406 10.476563 68.105469 11.890625 C 68.8125 12.601563 69.203125 13.542969 69.203125 14.542969 C 69.203125 15.546875 68.8125 16.488281 68.105469 17.195313 L 67.644531 17.65625 C 67.820313 18.03125 67.957031 18.359375 68.078125 18.699219 L 68.75 18.75 C 70.816406 18.75 72.5 20.433594 72.5 22.5 C 72.5 24.566406 70.816406 26.25 68.75 26.25 L 68.09375 26.25 C 67.960938 26.640625 67.820313 26.96875 67.671875 27.289063 L 68.109375 27.804688 C 68.816406 28.511719 69.207031 29.453125 69.207031 30.453125 C 69.207031 31.457031 68.816406 32.398438 68.109375 33.105469 C 66.691406 34.523438 64.21875 34.519531 62.804688 33.105469 L 62.34375 32.644531 C 61.96875 32.820313 61.640625 32.957031 61.300781 33.078125 L 61.25 33.75 C 61.25 35.816406 59.566406 37.5 57.5 37.5 Z M 52.644531 30.152344 C 53.023438 30.152344 53.40625 30.234375 53.773438 30.40625 C 54.023438 30.527344 54.277344 30.628906 54.535156 30.722656 C 55.578125 31.097656 56.25 32.027344 56.25 33.09375 L 56.25 33.75 C 56.25 34.441406 56.808594 35 57.5 35 C 58.1875 35 58.75 34.441406 58.75 33.75 L 58.75 33.09375 C 58.75 32.027344 59.417969 31.097656 60.457031 30.726563 C 60.722656 30.628906 60.976563 30.527344 61.222656 30.410156 C 62.21875 29.9375 63.355469 30.121094 64.109375 30.875 L 64.570313 31.339844 C 65.042969 31.8125 65.863281 31.8125 66.335938 31.339844 C 66.574219 31.101563 66.703125 30.789063 66.703125 30.453125 C 66.703125 30.121094 66.574219 29.808594 66.335938 29.574219 L 65.875 29.109375 C 65.121094 28.355469 64.9375 27.222656 65.40625 26.222656 C 65.523438 25.976563 65.628906 25.722656 65.722656 25.460938 C 66.097656 24.421875 67.027344 23.75 68.09375 23.75 L 68.75 23.75 C 69.441406 23.75 70 23.191406 70 22.5 C 70 21.808594 69.441406 21.25 68.75 21.25 L 68.09375 21.25 C 67.027344 21.25 66.097656 20.578125 65.726563 19.542969 C 65.628906 19.277344 65.527344 19.023438 65.410156 18.777344 C 64.9375 17.777344 65.121094 16.644531 65.875 15.890625 L 66.339844 15.429688 C 66.574219 15.191406 66.703125 14.878906 66.703125 14.546875 C 66.703125 14.210938 66.574219 13.898438 66.339844 13.660156 C 65.863281 13.1875 65.042969 13.1875 64.574219 13.660156 L 64.109375 14.125 C 63.355469 14.878906 62.222656 15.0625 61.222656 14.59375 C 60.976563 14.472656 60.722656 14.371094 60.460938 14.277344 C 59.421875 13.902344 58.75 12.972656 58.75 11.90625 L 58.75 11.25 C 58.75 10.558594 58.191406 10 57.5 10 C 56.808594 10 56.25 10.558594 56.25 11.25 L 56.25 11.90625 C 56.25 12.972656 55.578125 13.902344 54.542969 14.273438 C 54.277344 14.371094 54.023438 14.472656 53.777344 14.589844 C 52.78125 15.0625 51.644531 14.878906 50.890625 14.125 L 50.429688 13.660156 C 49.957031 13.1875 49.136719 13.191406 48.660156 13.660156 C 48.425781 13.898438 48.296875 14.210938 48.296875 14.546875 C 48.296875 14.878906 48.425781 15.191406 48.660156 15.425781 L 49.125 15.890625 C 49.878906 16.644531 50.0625 17.777344 49.59375 18.777344 C 49.472656 19.023438 49.371094 19.277344 49.277344 19.539063 C 48.902344 20.578125 47.972656 21.25 46.90625 21.25 L 46.25 21.25 C 45.558594 21.25 45 21.808594 45 22.5 C 45 23.191406 45.558594 23.75 46.25 23.75 L 46.90625 23.75 C 47.972656 23.75 48.902344 24.421875 49.273438 25.457031 C 49.371094 25.722656 49.472656 25.976563 49.589844 26.222656 C 50.0625 27.222656 49.878906 28.355469 49.125 29.109375 L 48.660156 29.570313 C 48.425781 29.808594 48.296875 30.121094 48.296875 30.453125 C 48.296875 30.789063 48.425781 31.101563 48.660156 31.339844 C 49.136719 31.808594 49.957031 31.8125 50.425781 31.339844 L 50.890625 30.875 C 51.367188 30.398438 51.996094 30.152344 52.644531 30.152344 Z "/>
<path style=" stroke:none;fill-rule:nonzero;fill:url(#linear5);" d="M 57.5 27.5 C 54.742188 27.5 52.5 25.257813 52.5 22.5 C 52.5 19.742188 54.742188 17.5 57.5 17.5 C 60.257813 17.5 62.5 19.742188 62.5 22.5 C 62.5 25.257813 60.257813 27.5 57.5 27.5 Z M 57.5 20 C 56.121094 20 55 21.121094 55 22.5 C 55 23.878906 56.121094 25 57.5 25 C 58.878906 25 60 23.878906 60 22.5 C 60 21.121094 58.878906 20 57.5 20 Z "/>
</g>
</svg>
