<svg fill="#000000" xmlns="http://www.w3.org/2000/svg" viewBox="0 0 80 80" width="80px" height="80px"><path d="M 30.929688 14 C 22.714844 14 16.21875 22.375 16.21875 22.375 L 15.449219 23.335938 L 16.546875 23.890625 C 16.546875 23.890625 16.78125 23.976563 17.167969 24.558594 C 17.554688 25.140625 18 26.171875 18 28 C 18 30.347656 18.550781 32.59375 18.855469 33.65625 C 18.335938 34.113281 18 34.761719 18 35.5 C 18 36.089844 18.167969 36.546875 18.300781 37.003906 C 18.371094 37.230469 18.4375 37.445313 18.480469 37.597656 C 18.519531 37.753906 18.527344 37.914063 18.527344 37.75 C 18.527344 39.007813 19.597656 40 20.839844 40 L 21.09375 40 C 21.25 43.167969 22.730469 45.976563 25 47.875 L 25 50.246094 C 23.714844 50.625 20.917969 51.511719 18.082031 52.820313 C 16.160156 53.707031 14.214844 54.78125 12.695313 56.074219 C 11.175781 57.367188 10 58.945313 10 60.832031 L 10 66 L 54 66 L 54 60.832031 C 54 58.945313 52.824219 57.367188 51.304688 56.074219 C 49.785156 54.78125 47.839844 53.707031 45.917969 52.820313 C 43.082031 51.511719 40.285156 50.625 39 50.246094 L 39 47.875 C 41.269531 45.976563 42.75 43.167969 42.90625 40 L 43.160156 40 C 44.402344 40 45.472656 39.007813 45.472656 37.75 C 45.472656 37.914063 45.480469 37.753906 45.519531 37.597656 C 45.5625 37.445313 45.628906 37.230469 45.695313 37.003906 C 45.832031 36.546875 45.996094 36.09375 46 35.5 C 46 34.734375 45.632813 34.0625 45.082031 33.609375 C 45.246094 32.757813 46 28.761719 46 26 C 46 22.945313 44.777344 20.640625 43.167969 19.167969 C 41.703125 17.824219 39.988281 17.207031 38.457031 17.09375 C 38.253906 16.804688 37.996094 16.339844 37.011719 15.671875 C 35.753906 14.816406 33.765625 14 30.929688 14 Z M 30.929688 16 C 33.386719 16 34.9375 16.683594 35.890625 17.328125 C 36.839844 17.972656 37.140625 18.511719 37.140625 18.511719 L 37.429688 19 L 38 19 C 39.019531 19 40.585938 19.511719 41.816406 20.640625 C 43.046875 21.773438 44 23.464844 44 26 C 44 28.25 43.34375 31.949219 43.148438 33.03125 C 43.078125 33.054688 43.042969 33.082031 43 33.109375 L 43 30.832031 C 43 27.949219 41.867188 25.957031 40.722656 24.753906 C 39.582031 23.550781 38.363281 23.066406 38.363281 23.066406 L 37.730469 22.820313 L 37.265625 23.320313 C 37.265625 23.320313 36.714844 23.933594 35.425781 24.617188 C 34.140625 25.300781 32.1875 26 29.5 26 C 28 26 26 26.4375 24.242188 27.574219 C 22.546875 28.667969 21.132813 30.542969 21.035156 33.113281 C 20.976563 33.078125 20.90625 33.042969 20.761719 33.019531 C 20.484375 32.019531 20 29.996094 20 28 C 20 25.839844 19.445313 24.371094 18.832031 23.453125 C 18.640625 23.164063 18.597656 23.226563 18.40625 23.035156 C 19.28125 22.027344 24.660156 16 30.929688 16 Z M 38.003906 25.203125 C 38.253906 25.320313 38.613281 25.4375 39.277344 26.132813 C 40.132813 27.03125 41 28.457031 41 30.832031 L 41 36.527344 L 42.515625 35.609375 C 42.820313 35.425781 43.132813 35.242188 43.371094 35.113281 C 43.421875 35.085938 43.445313 35.078125 43.488281 35.054688 C 43.777344 35.097656 44 35.265625 44 35.5 C 44 35.511719 43.90625 36.007813 43.777344 36.4375 C 43.714844 36.652344 43.648438 36.867188 43.59375 37.074219 C 43.535156 37.277344 43.472656 37.410156 43.472656 37.75 C 43.472656 37.871094 43.371094 38 43.160156 38 L 41 38 L 41 39.472656 C 41 43.910156 37.800781 47.574219 33.589844 48.324219 L 33.304688 48.375 L 33.09375 48.570313 C 32.792969 48.839844 32.421875 49 32 49 C 31.578125 49 31.207031 48.839844 30.90625 48.570313 L 30.695313 48.375 L 30.410156 48.324219 C 26.199219 47.574219 23 43.914063 23 39.472656 L 23 38 L 20.839844 38 C 20.628906 38 20.527344 37.871094 20.527344 37.75 C 20.527344 37.410156 20.464844 37.277344 20.40625 37.074219 C 20.351563 36.867188 20.285156 36.652344 20.21875 36.4375 C 20.09375 36.007813 20 35.511719 20 35.5 C 20 35.269531 20.222656 35.097656 20.511719 35.054688 C 20.554688 35.078125 20.582031 35.085938 20.632813 35.113281 C 20.867188 35.242188 21.179688 35.425781 21.484375 35.609375 L 23 36.523438 L 23 33.375 C 23 31.355469 23.976563 30.121094 25.328125 29.25 C 26.679688 28.382813 28.425781 28 29.5 28 C 32.539063 28 34.832031 27.199219 36.367188 26.382813 C 37.429688 25.816406 37.660156 25.519531 38.003906 25.203125 Z M 49 32 L 49 34 L 70 34 L 70 32 Z M 27.621094 35.167969 C 26.792969 35.167969 26.121094 35.832031 26.121094 36.65625 C 26.117188 37.476563 26.789063 38.140625 27.621094 38.140625 C 28.449219 38.140625 29.121094 37.476563 29.121094 36.65625 C 29.117188 35.832031 28.445313 35.167969 27.621094 35.167969 Z M 36.621094 35.167969 C 35.792969 35.167969 35.121094 35.832031 35.121094 36.65625 C 35.117188 37.476563 35.789063 38.140625 36.621094 38.140625 C 37.449219 38.140625 38.121094 37.476563 38.121094 36.65625 C 38.117188 35.832031 37.445313 35.167969 36.621094 35.167969 Z M 48 40 L 48 42 L 70 42 L 70 40 Z M 45 48 L 45 50 L 70 50 L 70 48 Z M 27 49.199219 C 27.871094 49.648438 28.804688 49.992188 29.796875 50.195313 C 30.40625 50.671875 31.15625 51 32 51 C 32.84375 51 33.59375 50.671875 34.203125 50.195313 C 35.195313 49.992188 36.128906 49.648438 37 49.199219 L 37 52.648438 C 36.851563 52.90625 35.597656 55 32 55 C 28.402344 55 27.148438 52.90625 27 52.648438 Z M 25 52.34375 L 25 53.265625 L 25.128906 53.496094 C 25.128906 53.496094 27.246094 57 32 57 C 36.753906 57 38.871094 53.496094 38.871094 53.496094 L 39 53.265625 L 39 52.34375 C 40.375 52.765625 42.683594 53.53125 45.082031 54.636719 C 46.910156 55.480469 48.714844 56.5 50.007813 57.597656 C 51.300781 58.695313 52 59.800781 52 60.832031 L 52 64 L 12 64 L 12 60.832031 C 12 59.800781 12.699219 58.695313 13.992188 57.597656 C 15.285156 56.5 17.089844 55.480469 18.917969 54.636719 C 21.316406 53.53125 23.625 52.765625 25 52.34375 Z M 16 60 C 15.449219 60 15 60.449219 15 61 C 15 61.550781 15.449219 62 16 62 C 16.550781 62 17 61.550781 17 61 C 17 60.449219 16.550781 60 16 60 Z M 20 60 C 19.449219 60 19 60.449219 19 61 C 19 61.550781 19.449219 62 20 62 C 20.550781 62 21 61.550781 21 61 C 21 60.449219 20.550781 60 20 60 Z M 24 60 C 23.449219 60 23 60.449219 23 61 C 23 61.550781 23.449219 62 24 62 C 24.550781 62 25 61.550781 25 61 C 25 60.449219 24.550781 60 24 60 Z M 28 60 C 27.449219 60 27 60.449219 27 61 C 27 61.550781 27.449219 62 28 62 C 28.550781 62 29 61.550781 29 61 C 29 60.449219 28.550781 60 28 60 Z M 32 60 C 31.449219 60 31 60.449219 31 61 C 31 61.550781 31.449219 62 32 62 C 32.550781 62 33 61.550781 33 61 C 33 60.449219 32.550781 60 32 60 Z M 36 60 C 35.449219 60 35 60.449219 35 61 C 35 61.550781 35.449219 62 36 62 C 36.550781 62 37 61.550781 37 61 C 37 60.449219 36.550781 60 36 60 Z M 40 60 C 39.449219 60 39 60.449219 39 61 C 39 61.550781 39.449219 62 40 62 C 40.550781 62 41 61.550781 41 61 C 41 60.449219 40.550781 60 40 60 Z M 44 60 C 43.449219 60 43 60.449219 43 61 C 43 61.550781 43.449219 62 44 62 C 44.550781 62 45 61.550781 45 61 C 45 60.449219 44.550781 60 44 60 Z M 48 60 C 47.449219 60 47 60.449219 47 61 C 47 61.550781 47.449219 62 48 62 C 48.550781 62 49 61.550781 49 61 C 49 60.449219 48.550781 60 48 60 Z"/></svg>