<?xml version="1.0" encoding="UTF-8"?>
<svg xmlns="http://www.w3.org/2000/svg" xmlns:xlink="http://www.w3.org/1999/xlink" width="128pt" height="128pt" viewBox="0 0 128 128" version="1.1">
<g id="surface1">
<path style=" stroke:none;fill-rule:nonzero;fill:#FFFFFF;fill-opacity:1;" d="M 40.800781 32.5 C 40.800781 27.085938 36.5 22.699219 31.199219 22.699219 C 25.898438 22.699219 21.601563 27.085938 21.601563 32.5 C 21.601563 37.914063 25.898438 42.300781 31.199219 42.300781 C 36.5 42.300781 40.800781 37.914063 40.800781 32.5 Z "/>
<path style=" stroke:none;fill-rule:nonzero;fill:#FFFFFF;fill-opacity:1;" d="M 73.601563 32.5 C 73.601563 27.085938 69.300781 22.699219 64 22.699219 C 58.699219 22.699219 54.398438 27.085938 54.398438 32.5 C 54.398438 37.914063 58.699219 42.300781 64 42.300781 C 69.300781 42.300781 73.601563 37.914063 73.601563 32.5 Z "/>
<path style=" stroke:none;fill-rule:nonzero;fill:#FFFFFF;fill-opacity:1;" d="M 40.800781 95.5 C 40.800781 90.085938 36.5 85.699219 31.199219 85.699219 C 25.898438 85.699219 21.601563 90.085938 21.601563 95.5 C 21.601563 100.914063 25.898438 105.300781 31.199219 105.300781 C 36.5 105.300781 40.800781 100.914063 40.800781 95.5 Z "/>
<path style=" stroke:none;fill-rule:nonzero;fill:#FFFFFF;fill-opacity:1;" d="M 73.601563 95.5 C 73.601563 90.085938 69.300781 85.699219 64 85.699219 C 58.699219 85.699219 54.398438 90.085938 54.398438 95.5 C 54.398438 100.914063 58.699219 105.300781 64 105.300781 C 69.300781 105.300781 73.601563 100.914063 73.601563 95.5 Z "/>
<path style=" stroke:none;fill-rule:nonzero;fill:#FFFFFF;fill-opacity:1;" d="M 106.398438 32.5 C 106.398438 27.085938 102.101563 22.699219 96.800781 22.699219 C 91.5 22.699219 87.199219 27.085938 87.199219 32.5 C 87.199219 37.914063 91.5 42.300781 96.800781 42.300781 C 102.101563 42.300781 106.398438 37.914063 106.398438 32.5 Z "/>
<path style=" stroke:none;fill-rule:nonzero;fill:#454B54;fill-opacity:1;" d="M 31.199219 45.300781 C 24.199219 45.300781 18.601563 39.601563 18.601563 32.5 C 18.601563 25.398438 24.300781 19.699219 31.199219 19.699219 C 38.101563 19.699219 43.800781 25.398438 43.800781 32.5 C 43.898438 39.5 38.199219 45.300781 31.199219 45.300781 Z M 31.199219 25.699219 C 27.5 25.699219 24.601563 28.699219 24.601563 32.5 C 24.601563 36.199219 27.601563 39.300781 31.199219 39.300781 C 34.800781 39.300781 37.800781 36.300781 37.800781 32.5 C 37.898438 28.699219 34.898438 25.699219 31.199219 25.699219 Z "/>
<path style=" stroke:none;fill-rule:nonzero;fill:#454B54;fill-opacity:1;" d="M 64 45.300781 C 57 45.300781 51.398438 39.601563 51.398438 32.5 C 51.398438 25.398438 57.101563 19.699219 64 19.699219 C 71 19.699219 76.601563 25.398438 76.601563 32.5 C 76.601563 39.5 71 45.300781 64 45.300781 Z M 64 25.699219 C 60.300781 25.699219 57.398438 28.699219 57.398438 32.5 C 57.398438 36.199219 60.398438 39.300781 64 39.300781 C 67.699219 39.300781 70.601563 36.300781 70.601563 32.5 C 70.601563 28.699219 67.699219 25.699219 64 25.699219 Z "/>
<path style=" stroke:none;fill-rule:nonzero;fill:#454B54;fill-opacity:1;" d="M 31.199219 108.300781 C 24.199219 108.300781 18.601563 102.601563 18.601563 95.5 C 18.601563 88.398438 24.300781 82.699219 31.199219 82.699219 C 38.101563 82.699219 43.800781 88.398438 43.800781 95.5 C 43.898438 102.601563 38.199219 108.300781 31.199219 108.300781 Z M 31.199219 88.699219 C 27.5 88.699219 24.601563 91.699219 24.601563 95.5 C 24.601563 99.199219 27.601563 102.300781 31.199219 102.300781 C 34.800781 102.300781 37.800781 99.300781 37.800781 95.5 C 37.898438 91.800781 34.898438 88.699219 31.199219 88.699219 Z "/>
<path style=" stroke:none;fill-rule:nonzero;fill:#454B54;fill-opacity:1;" d="M 64 108.300781 C 57 108.300781 51.398438 102.601563 51.398438 95.5 C 51.398438 88.398438 57.101563 82.699219 64 82.699219 C 71 82.699219 76.601563 88.398438 76.601563 95.5 C 76.601563 102.601563 71 108.300781 64 108.300781 Z M 64 88.699219 C 60.300781 88.699219 57.398438 91.699219 57.398438 95.5 C 57.398438 99.199219 60.398438 102.300781 64 102.300781 C 67.699219 102.300781 70.601563 99.300781 70.601563 95.5 C 70.601563 91.800781 67.699219 88.699219 64 88.699219 Z "/>
<path style=" stroke:none;fill-rule:nonzero;fill:#454B54;fill-opacity:1;" d="M 96.800781 45.300781 C 89.800781 45.300781 84.199219 39.601563 84.199219 32.5 C 84.199219 25.398438 89.898438 19.699219 96.800781 19.699219 C 103.800781 19.699219 109.398438 25.398438 109.398438 32.5 C 109.398438 39.5 103.800781 45.300781 96.800781 45.300781 Z M 96.800781 25.699219 C 93.101563 25.699219 90.199219 28.699219 90.199219 32.5 C 90.199219 36.199219 93.199219 39.300781 96.800781 39.300781 C 100.5 39.300781 103.398438 36.300781 103.398438 32.5 C 103.398438 28.699219 100.5 25.699219 96.800781 25.699219 Z "/>
<path style=" stroke:none;fill-rule:nonzero;fill:#454B54;fill-opacity:1;" d="M 31.199219 88.699219 C 29.5 88.699219 28.199219 87.398438 28.199219 85.699219 L 28.199219 42.300781 C 28.199219 40.601563 29.5 39.300781 31.199219 39.300781 C 32.898438 39.300781 34.199219 40.601563 34.199219 42.300781 L 34.199219 85.800781 C 34.199219 87.398438 32.898438 88.699219 31.199219 88.699219 Z "/>
<path style=" stroke:none;fill-rule:nonzero;fill:#454B54;fill-opacity:1;" d="M 64 88.699219 C 62.300781 88.699219 61 87.398438 61 85.699219 L 61 42.300781 C 61 40.601563 62.300781 39.300781 64 39.300781 C 65.699219 39.300781 67 40.601563 67 42.300781 L 67 85.800781 C 67 87.398438 65.699219 88.699219 64 88.699219 Z "/>
<path style=" stroke:none;fill-rule:nonzero;fill:#454B54;fill-opacity:1;" d="M 96.800781 67 L 31.199219 67 C 29.5 67 28.199219 65.699219 28.199219 64 C 28.199219 62.300781 29.5 61 31.199219 61 L 93.800781 61 L 93.800781 42.300781 C 93.800781 40.601563 95.101563 39.300781 96.800781 39.300781 C 98.5 39.300781 99.800781 40.601563 99.800781 42.300781 L 99.800781 64 C 99.800781 65.699219 98.398438 67 96.800781 67 Z "/>
</g>
</svg>
