<?xml version="1.0" encoding="UTF-8"?>
<svg xmlns="http://www.w3.org/2000/svg" xmlns:xlink="http://www.w3.org/1999/xlink" width="80pt" height="80pt" viewBox="0 0 80 80" version="1.1">
<defs>
<linearGradient id="linear0" gradientUnits="userSpaceOnUse" x1="32.3372" y1="16.5001" x2="31.6419" y2="46.3969" spreadMethod="reflect" gradientTransform="matrix(1.25,0,0,1.25,0,0)">
<stop offset="0" style="stop-color:#6DC7FF;stop-opacity:1;"/>
<stop offset="1" style="stop-color:#E6ABFF;stop-opacity:1;"/>
</linearGradient>
<linearGradient id="linear1" gradientUnits="userSpaceOnUse" x1="32" y1="3.75" x2="32" y2="59.5" spreadMethod="reflect" gradientTransform="matrix(1.25,0,0,1.25,0,0)">
<stop offset="0" style="stop-color:#1A6DFF;stop-opacity:1;"/>
<stop offset="1" style="stop-color:#C822FF;stop-opacity:1;"/>
</linearGradient>
<linearGradient id="linear2" gradientUnits="userSpaceOnUse" x1="32" y1="13.9167" x2="32" y2="48.2578" spreadMethod="reflect" gradientTransform="matrix(1.25,0,0,1.25,0,0)">
<stop offset="0" style="stop-color:#6DC7FF;stop-opacity:1;"/>
<stop offset="1" style="stop-color:#E6ABFF;stop-opacity:1;"/>
</linearGradient>
<linearGradient id="linear3" gradientUnits="userSpaceOnUse" x1="32" y1="19.1667" x2="32" y2="43.6197" spreadMethod="reflect" gradientTransform="matrix(1.25,0,0,1.25,0,0)">
<stop offset="0" style="stop-color:#1A6DFF;stop-opacity:1;"/>
<stop offset="1" style="stop-color:#C822FF;stop-opacity:1;"/>
</linearGradient>
</defs>
<g id="surface1">
<path style=" stroke:none;fill-rule:evenodd;fill:url(#linear0);" d="M 46.25 38.75 C 46.25 42.203125 43.453125 45 40 45 C 36.546875 45 33.75 42.203125 33.75 38.75 C 33.75 35.296875 36.546875 32.5 40 32.5 C 43.453125 32.5 46.25 35.296875 46.25 38.75 Z "/>
<path style=" stroke:none;fill-rule:nonzero;fill:url(#linear1);" d="M 39.929688 72.5 C 39.304688 72.5 38.675781 72.484375 38.046875 72.453125 C 35.980469 72.320313 34.320313 70.8125 33.988281 68.78125 C 33.792969 67.550781 33.550781 66.070313 33.351563 64.90625 C 33.238281 64.195313 32.746094 63.625 32.070313 63.414063 C 30.707031 62.976563 29.398438 62.429688 28.171875 61.789063 C 27.539063 61.457031 26.785156 61.511719 26.207031 61.929688 C 25.246094 62.625 24.019531 63.507813 23 64.234375 C 21.34375 65.425781 19.109375 65.320313 17.566406 63.96875 C 16.613281 63.117188 15.675781 62.1875 14.785156 61.199219 C 13.417969 59.644531 13.308594 57.402344 14.511719 55.738281 C 15.242188 54.726563 16.121094 53.507813 16.800781 52.546875 C 17.226563 51.960938 17.277344 51.210938 16.949219 50.582031 C 16.296875 49.304688 15.757813 47.996094 15.34375 46.675781 C 15.128906 45.996094 14.558594 45.5 13.855469 45.386719 L 13.589844 45.34375 C 12.464844 45.164063 11.101563 44.941406 9.957031 44.746094 C 7.941406 44.421875 6.4375 42.765625 6.304688 40.71875 C 6.230469 39.441406 6.230469 38.125 6.296875 36.796875 C 6.429688 34.726563 7.9375 33.066406 9.964844 32.738281 C 11.195313 32.539063 12.679688 32.300781 13.84375 32.101563 C 14.554688 31.984375 15.121094 31.496094 15.335938 30.816406 C 15.773438 29.453125 16.320313 28.144531 16.960938 26.921875 C 17.292969 26.289063 17.238281 25.535156 16.820313 24.953125 C 16.125 23.992188 15.242188 22.765625 14.515625 21.746094 C 13.320313 20.09375 13.425781 17.855469 14.78125 16.316406 C 15.632813 15.359375 16.558594 14.425781 17.546875 13.535156 C 19.105469 12.167969 21.34375 12.058594 23.011719 13.261719 C 24.019531 13.988281 25.238281 14.871094 26.203125 15.550781 C 26.789063 15.972656 27.535156 16.03125 28.167969 15.699219 C 29.441406 15.046875 30.753906 14.503906 32.074219 14.09375 C 32.753906 13.878906 33.246094 13.308594 33.359375 12.601563 L 33.402344 12.339844 C 33.585938 11.214844 33.808594 9.851563 34 8.707031 C 34.328125 6.691406 35.984375 5.1875 38.027344 5.054688 C 39.304688 4.980469 40.625 4.976563 41.953125 5.046875 C 44.019531 5.175781 45.679688 6.6875 46.011719 8.714844 C 46.207031 9.945313 46.449219 11.425781 46.648438 12.589844 C 46.761719 13.300781 47.253906 13.871094 47.929688 14.082031 C 49.292969 14.519531 50.601563 15.066406 51.828125 15.707031 C 52.460938 16.039063 53.214844 15.984375 53.792969 15.566406 C 54.753906 14.871094 55.980469 13.988281 57 13.261719 C 58.65625 12.066406 60.890625 12.171875 62.433594 13.527344 C 63.386719 14.378906 64.324219 15.308594 65.214844 16.296875 C 66.582031 17.851563 66.691406 20.09375 65.488281 21.757813 C 64.757813 22.769531 63.878906 23.988281 63.199219 24.949219 C 62.773438 25.535156 62.722656 26.285156 63.050781 26.914063 C 63.703125 28.191406 64.242188 29.5 64.65625 30.820313 C 64.871094 31.5 65.441406 31.996094 66.144531 32.109375 L 66.410156 32.152344 C 67.535156 32.332031 68.898438 32.554688 70.042969 32.75 C 72.058594 33.074219 73.5625 34.730469 73.695313 36.777344 C 73.769531 38.054688 73.769531 39.371094 73.703125 40.703125 C 73.570313 42.769531 72.0625 44.429688 70.035156 44.757813 C 68.804688 44.957031 67.320313 45.195313 66.15625 45.394531 C 65.445313 45.511719 64.878906 46 64.664063 46.679688 C 64.226563 48.042969 63.679688 49.351563 63.039063 50.578125 C 62.707031 51.207031 62.761719 51.960938 63.179688 52.542969 C 63.875 53.503906 64.757813 54.730469 65.484375 55.75 C 66.679688 57.402344 66.574219 59.640625 65.21875 61.179688 C 64.367188 62.136719 63.441406 63.070313 62.453125 63.960938 C 60.894531 65.328125 58.65625 65.4375 56.988281 64.234375 C 55.980469 63.507813 54.761719 62.625 53.796875 61.945313 C 53.210938 61.523438 52.464844 61.46875 51.832031 61.796875 C 50.558594 62.453125 49.246094 62.992188 47.925781 63.402344 C 47.246094 63.617188 46.753906 64.1875 46.640625 64.894531 L 46.597656 65.15625 C 46.414063 66.28125 46.191406 67.644531 46 68.789063 C 45.671875 70.804688 44.015625 72.308594 41.972656 72.441406 C 41.300781 72.480469 40.617188 72.5 39.929688 72.5 Z M 27.300781 59.074219 C 27.992188 59.074219 28.6875 59.238281 29.332031 59.574219 C 30.429688 60.148438 31.609375 60.640625 32.828125 61.03125 C 34.40625 61.527344 35.554688 62.855469 35.820313 64.496094 C 36.019531 65.652344 36.261719 67.148438 36.460938 68.382813 C 36.601563 69.253906 37.3125 69.898438 38.191406 69.957031 C 39.414063 70.019531 40.640625 70.015625 41.820313 69.945313 C 42.683594 69.890625 43.394531 69.246094 43.535156 68.382813 C 43.726563 67.234375 43.949219 65.878906 44.128906 64.757813 L 44.171875 64.496094 C 44.4375 62.851563 45.589844 61.519531 47.179688 61.019531 C 48.363281 60.648438 49.542969 60.164063 50.683594 59.578125 C 52.148438 58.816406 53.902344 58.941406 55.253906 59.914063 C 56.210938 60.589844 57.4375 61.476563 58.453125 62.210938 C 59.167969 62.722656 60.128906 62.679688 60.789063 62.097656 C 61.699219 61.277344 62.5625 60.40625 63.347656 59.523438 C 63.921875 58.871094 63.96875 57.917969 63.453125 57.207031 C 62.726563 56.183594 61.847656 54.964844 61.15625 54.007813 C 60.179688 52.65625 60.054688 50.898438 60.828125 49.421875 C 61.402344 48.320313 61.890625 47.144531 62.285156 45.925781 C 62.78125 44.347656 64.109375 43.199219 65.75 42.929688 C 66.90625 42.734375 68.398438 42.492188 69.636719 42.292969 C 70.503906 42.152344 71.152344 41.441406 71.207031 40.5625 C 71.269531 39.339844 71.265625 38.113281 71.199219 36.933594 C 71.144531 36.066406 70.5 35.359375 69.636719 35.21875 C 68.488281 35.023438 67.128906 34.804688 66.011719 34.625 L 65.746094 34.582031 C 64.105469 34.316406 62.769531 33.164063 62.273438 31.570313 C 61.902344 30.386719 61.417969 29.207031 60.832031 28.066406 C 60.066406 26.601563 60.191406 24.847656 61.167969 23.5 C 61.84375 22.542969 62.730469 21.316406 63.460938 20.296875 C 63.976563 19.585938 63.929688 18.625 63.351563 17.964844 C 62.527344 17.054688 61.660156 16.191406 60.777344 15.40625 C 60.125 14.832031 59.171875 14.785156 58.460938 15.296875 C 57.4375 16.027344 56.214844 16.90625 55.261719 17.597656 C 53.90625 18.570313 52.148438 18.699219 50.671875 17.925781 C 49.574219 17.351563 48.398438 16.859375 47.175781 16.46875 C 45.601563 15.972656 44.449219 14.644531 44.183594 13.003906 C 43.984375 11.847656 43.742188 10.351563 43.546875 9.117188 C 43.40625 8.246094 42.691406 7.601563 41.816406 7.542969 C 40.589844 7.484375 39.363281 7.484375 38.1875 7.554688 C 37.320313 7.609375 36.609375 8.253906 36.472656 9.117188 C 36.277344 10.265625 36.058594 11.621094 35.875 12.742188 L 35.832031 13.003906 C 35.566406 14.648438 34.414063 15.980469 32.824219 16.480469 C 31.640625 16.851563 30.460938 17.335938 29.320313 17.921875 C 27.855469 18.6875 26.101563 18.558594 24.753906 17.585938 C 23.792969 16.910156 22.566406 16.023438 21.550781 15.289063 C 20.835938 14.773438 19.878906 14.820313 19.214844 15.402344 C 18.308594 16.222656 17.441406 17.09375 16.65625 17.976563 C 16.082031 18.628906 16.039063 19.582031 16.550781 20.292969 C 17.277344 21.316406 18.160156 22.535156 18.851563 23.492188 C 19.824219 24.84375 19.953125 26.601563 19.179688 28.078125 C 18.605469 29.179688 18.113281 30.355469 17.71875 31.574219 C 17.226563 33.152344 15.898438 34.300781 14.257813 34.570313 C 13.097656 34.765625 11.605469 35.007813 10.367188 35.207031 C 9.5 35.347656 8.851563 36.058594 8.796875 36.9375 C 8.734375 38.160156 8.738281 39.386719 8.804688 40.566406 C 8.859375 41.433594 9.503906 42.140625 10.371094 42.28125 C 11.515625 42.476563 12.875 42.695313 13.992188 42.875 L 14.257813 42.917969 C 15.902344 43.183594 17.234375 44.335938 17.734375 45.929688 C 18.101563 47.113281 18.585938 48.292969 19.171875 49.433594 C 19.9375 50.898438 19.8125 52.652344 18.839844 54 C 18.160156 54.957031 17.277344 56.183594 16.542969 57.203125 C 16.027344 57.914063 16.074219 58.875 16.65625 59.535156 C 17.476563 60.445313 18.34375 61.308594 19.226563 62.09375 C 19.878906 62.667969 20.835938 62.714844 21.546875 62.203125 C 22.566406 61.472656 23.789063 60.59375 24.746094 59.902344 C 25.507813 59.351563 26.402344 59.074219 27.300781 59.074219 Z "/>
<path style=" stroke:none;fill-rule:nonzero;fill:url(#linear2);" d="M 40 60 C 28.28125 60 18.75 50.46875 18.75 38.75 C 18.75 27.03125 28.28125 17.5 40 17.5 C 51.71875 17.5 61.25 27.03125 61.25 38.75 C 61.25 50.46875 51.71875 60 40 60 Z M 40 20 C 29.660156 20 21.25 28.410156 21.25 38.75 C 21.25 49.089844 29.660156 57.5 40 57.5 C 50.339844 57.5 58.75 49.089844 58.75 38.75 C 58.75 28.410156 50.339844 20 40 20 Z "/>
<path style=" stroke:none;fill-rule:nonzero;fill:url(#linear3);" d="M 40 53.75 C 31.730469 53.75 25 47.019531 25 38.75 C 25 30.480469 31.730469 23.75 40 23.75 C 48.269531 23.75 55 30.480469 55 38.75 C 55 47.019531 48.269531 53.75 40 53.75 Z M 40 26.25 C 33.109375 26.25 27.5 31.859375 27.5 38.75 C 27.5 45.640625 33.109375 51.25 40 51.25 C 46.890625 51.25 52.5 45.640625 52.5 38.75 C 52.5 31.859375 46.890625 26.25 40 26.25 Z "/>
</g>
</svg>
