<?xml version="1.0" encoding="UTF-8"?>
<svg xmlns="http://www.w3.org/2000/svg" xmlns:xlink="http://www.w3.org/1999/xlink" viewBox="0 0 24 24" version="1.1" width="24px" height="24px">
  <path style="fill:#ffffff;" d="M 13 1 L 13 4 L 16 4 L 16 1 Z M 5 5 L 5 8 L 8 8 L 8 5 Z M 9 5 L 9 8 L 12 8 L 12 5 Z M 13 5 L 13 8 L 16 8 L 16 5 Z M 18.3125 7.84375 C 17.9375 7.878906 17.289063 8.507813 17 9.03125 C 16.269531 10.339844 16.828125 11.988281 16.96875 12.34375 C 16.644531 12.761719 15 13 15 13 L 0.96875 13 C 0.148438 13.027344 0 14.246094 0 14.53125 C -0.0351563 19.5 3.710938 21.988281 7.96875 22 C 14.132813 22.019531 17.871094 19.5625 20.03125 16 L 23 16 C 22.492188 15.871094 21.820313 15.660156 22 15 C 21.800781 15.292969 21.09375 15.582031 20.25 15.625 C 20.335938 15.476563 20.421875 15.339844 20.5 15.1875 C 21.824219 15.109375 22.585938 14.488281 23.15625 13.9375 C 23.808594 13.308594 23.960938 12.953125 24 12.59375 C 24.0625 12.050781 22.617188 11.113281 20.84375 10.90625 C 20.675781 9.261719 18.871094 7.789063 18.3125 7.84375 Z M 1 9 L 1 12 L 4 12 L 4 9 Z M 5 9 L 5 12 L 8 12 L 8 9 Z M 9 9 L 9 12 L 12 12 L 12 9 Z M 13 9 L 13 12 L 16 12 L 16 9 Z M 18.4375 9.9375 C 18.726563 10.261719 19.3125 10.992188 19.4375 11.65625 C 19.519531 12.089844 20.121094 12.429688 20.5625 12.46875 C 21.25 12.53125 21.671875 12.664063 22.0625 12.78125 C 21.933594 13.027344 21.054688 13.550781 19.78125 13.5 C 19.441406 13.484375 19.128906 13.6875 19 14 C 18.921875 14.199219 18.632813 14.632813 18.21875 15.15625 C 18.132813 15.105469 18.050781 15.058594 17.96875 15 C 17.515625 15.425781 15.355469 16.308594 13.96875 15 C 13.1875 15.917969 10.75 15.917969 9.96875 15 C 9.714844 15.703125 6.59375 15.902344 5.96875 15 C 5.792969 15.8125 2.992188 16.199219 1.96875 15 L 1.96875 15.5 C 1.949219 15.328125 1.945313 15.15625 1.96875 15 C 1.96875 15 4.289063 15 5.96875 15 C 7.648438 15 8.082031 15 9.96875 15 C 11.855469 15 13.339844 15.003906 13.96875 15 C 14.132813 15 14.984375 15 15 15 C 17.03125 14.875 18.011719 13.761719 18.34375 13.5 C 18.597656 13.300781 18.851563 12.785156 18.625 12.40625 C 18.609375 12.378906 18.003906 10.660156 18.4375 9.9375 Z M 2.0625 16 L 17.46875 16 C 15.738281 17.8125 12.570313 20.101563 7.96875 20 C 6.574219 19.96875 5.101563 19.753906 4.09375 18.96875 C 5.792969 18.910156 7.28125 18.59375 7.28125 18.59375 C 7.714844 18.511719 7.988281 18.089844 7.90625 17.65625 C 7.824219 17.222656 7.402344 16.917969 6.96875 17 C 6.933594 17.007813 4.667969 17.5625 2.59375 17.3125 C 2.476563 17.097656 2.21875 16.570313 2.0625 16 Z M 8.4375 17 C 8.179688 17 7.96875 17.210938 7.96875 17.46875 C 7.96875 17.726563 8.179688 17.9375 8.4375 17.9375 C 8.695313 17.9375 8.90625 17.726563 8.90625 17.46875 C 8.90625 17.40625 8.898438 17.367188 8.875 17.3125 C 8.84375 17.371094 8.757813 17.40625 8.6875 17.40625 C 8.582031 17.40625 8.53125 17.292969 8.53125 17.1875 C 8.53125 17.117188 8.535156 17.09375 8.59375 17.0625 C 8.542969 17.042969 8.496094 17 8.4375 17 Z "/>
</svg>
