<?xml version="1.0" encoding="UTF-8"?>
<svg xmlns="http://www.w3.org/2000/svg" xmlns:xlink="http://www.w3.org/1999/xlink" width="80pt" height="80pt" viewBox="0 0 80 80" version="1.1">
<defs>
<linearGradient id="linear0" gradientUnits="userSpaceOnUse" x1="24.4999" y1="4.1666" x2="24.4999" y2="59.312" spreadMethod="reflect" gradientTransform="matrix(1.25,0,0,1.25,0,0)">
<stop offset="0" style="stop-color:#1A6DFF;stop-opacity:1;"/>
<stop offset="1" style="stop-color:#C822FF;stop-opacity:1;"/>
</linearGradient>
<linearGradient id="linear1" gradientUnits="userSpaceOnUse" x1="12.5009" y1="4.1666" x2="12.5009" y2="59.3119" spreadMethod="reflect" gradientTransform="matrix(1.25,0,0,1.25,0,0)">
<stop offset="0" style="stop-color:#1A6DFF;stop-opacity:1;"/>
<stop offset="1" style="stop-color:#C822FF;stop-opacity:1;"/>
</linearGradient>
<linearGradient id="linear2" gradientUnits="userSpaceOnUse" x1="39.4999" y1="4.1667" x2="39.4999" y2="59.3119" spreadMethod="reflect" gradientTransform="matrix(1.25,0,0,1.25,0,0)">
<stop offset="0" style="stop-color:#1A6DFF;stop-opacity:1;"/>
<stop offset="1" style="stop-color:#C822FF;stop-opacity:1;"/>
</linearGradient>
<linearGradient id="linear3" gradientUnits="userSpaceOnUse" x1="51.4989" y1="4.1667" x2="51.4989" y2="59.3119" spreadMethod="reflect" gradientTransform="matrix(1.25,0,0,1.25,0,0)">
<stop offset="0" style="stop-color:#1A6DFF;stop-opacity:1;"/>
<stop offset="1" style="stop-color:#C822FF;stop-opacity:1;"/>
</linearGradient>
<linearGradient id="linear4" gradientUnits="userSpaceOnUse" x1="32" y1="4.1667" x2="32" y2="59.3119" spreadMethod="reflect" gradientTransform="matrix(1.25,0,0,1.25,0,0)">
<stop offset="0" style="stop-color:#1A6DFF;stop-opacity:1;"/>
<stop offset="1" style="stop-color:#C822FF;stop-opacity:1;"/>
</linearGradient>
<linearGradient id="linear5" gradientUnits="userSpaceOnUse" x1="32" y1="27.8333" x2="32" y2="35.8333" spreadMethod="reflect" gradientTransform="matrix(1.25,0,0,1.25,0,0)">
<stop offset="0" style="stop-color:#6DC7FF;stop-opacity:1;"/>
<stop offset="1" style="stop-color:#E6ABFF;stop-opacity:1;"/>
</linearGradient>
</defs>
<g id="surface1">
<path style=" stroke:none;fill-rule:nonzero;fill:url(#linear0);" d="M 16.25 20 C 16.25 17.933594 17.929688 16.25 20 16.25 L 32.5 16.25 L 32.5 21.300781 C 32.5 22.171875 32.953125 22.957031 33.714844 23.402344 C 34.109375 23.632813 34.550781 23.746094 34.992188 23.746094 C 35.421875 23.746094 35.847656 23.640625 36.230469 23.425781 L 45.625 18.160156 C 46.796875 17.5 47.5 16.320313 47.5 15 C 47.5 13.679688 46.796875 12.5 45.625 11.839844 L 36.230469 6.574219 C 35.449219 6.136719 34.484375 6.144531 33.714844 6.597656 C 32.953125 7.042969 32.5 7.828125 32.5 8.699219 L 32.5 13.75 L 20 13.75 C 16.554688 13.75 13.75 16.554688 13.75 20 L 13.75 25 L 16.25 25 Z M 35.007813 8.753906 L 44.402344 14.019531 C 44.941406 14.324219 45 14.804688 45 15 C 45 15.195313 44.941406 15.675781 44.402344 15.980469 L 35 21.300781 Z "/>
<path style=" stroke:none;fill-rule:nonzero;fill:url(#linear1);" d="M 16.25 60 L 16.25 47.5 L 21.300781 47.5 C 22.171875 47.5 22.957031 47.046875 23.402344 46.285156 C 23.855469 45.511719 23.863281 44.546875 23.425781 43.765625 L 18.160156 34.375 C 17.5 33.203125 16.320313 32.5 15 32.5 C 13.679688 32.5 12.5 33.203125 11.839844 34.375 L 6.574219 43.769531 C 6.136719 44.546875 6.144531 45.515625 6.597656 46.285156 C 7.042969 47.046875 7.828125 47.5 8.695313 47.5 L 13.75 47.5 L 13.75 60 C 13.75 63.445313 16.554688 66.25 20 66.25 L 25 66.25 L 25 63.75 L 20 63.75 C 17.929688 63.75 16.25 62.066406 16.25 60 Z M 14.019531 35.597656 C 14.324219 35.058594 14.804688 35 15 35 C 15.195313 35 15.675781 35.058594 15.980469 35.597656 L 21.300781 45 L 8.753906 44.992188 Z "/>
<path style=" stroke:none;fill-rule:nonzero;fill:url(#linear2);" d="M 63.75 60 C 63.75 62.066406 62.066406 63.75 60 63.75 L 47.5 63.75 L 47.5 58.699219 C 47.5 57.828125 47.046875 57.042969 46.285156 56.597656 C 45.511719 56.144531 44.546875 56.136719 43.765625 56.574219 L 34.375 61.839844 C 33.199219 62.5 32.5 63.679688 32.5 65 C 32.5 66.320313 33.203125 67.5 34.375 68.160156 L 43.769531 73.425781 C 44.152344 73.640625 44.578125 73.746094 45.007813 73.746094 C 45.449219 73.746094 45.890625 73.632813 46.285156 73.402344 C 47.046875 72.957031 47.5 72.171875 47.5 71.300781 L 47.5 66.25 L 60 66.25 C 63.445313 66.25 66.25 63.445313 66.25 60 L 66.25 55 L 63.75 55 Z M 44.992188 71.246094 L 35.597656 65.980469 C 35.058594 65.675781 35 65.195313 35 65 C 35 64.804688 35.058594 64.324219 35.597656 64.019531 L 45 58.699219 Z "/>
<path style=" stroke:none;fill-rule:nonzero;fill:url(#linear3);" d="M 73.402344 33.714844 C 72.957031 32.953125 72.171875 32.5 71.300781 32.5 L 66.25 32.5 L 66.25 20 C 66.25 16.554688 63.445313 13.75 60 13.75 L 55 13.75 L 55 16.25 L 60 16.25 C 62.066406 16.25 63.75 17.933594 63.75 20 L 63.75 32.5 L 58.695313 32.5 C 57.828125 32.5 57.042969 32.953125 56.597656 33.714844 C 56.144531 34.484375 56.136719 35.453125 56.574219 36.234375 L 61.839844 45.625 C 62.5 46.796875 63.679688 47.5 65 47.5 C 66.320313 47.5 67.5 46.796875 68.160156 45.625 L 73.425781 36.230469 C 73.863281 35.453125 73.855469 34.488281 73.402344 33.714844 Z M 65.980469 44.402344 C 65.675781 44.941406 65.195313 45 65 45 C 64.804688 45 64.324219 44.941406 64.019531 44.402344 L 58.695313 35 L 71.246094 35.007813 Z "/>
<path style=" stroke:none;fill-rule:nonzero;fill:url(#linear4);" d="M 48.75 35 C 48.75 32.929688 47.070313 31.25 45 31.25 L 35 31.25 C 32.929688 31.25 31.25 32.929688 31.25 35 L 31.25 45 C 31.25 47.070313 32.929688 48.75 35 48.75 L 45 48.75 C 47.070313 48.75 48.75 47.070313 48.75 45 Z M 46.25 45 C 46.25 45.691406 45.691406 46.25 45 46.25 L 35 46.25 C 34.308594 46.25 33.75 45.691406 33.75 45 L 33.75 35 C 33.75 34.308594 34.308594 33.75 35 33.75 L 45 33.75 C 45.691406 33.75 46.25 34.308594 46.25 35 Z "/>
<path style=" stroke:none;fill-rule:nonzero;fill:url(#linear5);" d="M 43.75 42.5 C 43.75 43.191406 43.191406 43.75 42.5 43.75 L 37.5 43.75 C 36.808594 43.75 36.25 43.191406 36.25 42.5 L 36.25 37.5 C 36.25 36.808594 36.808594 36.25 37.5 36.25 L 42.5 36.25 C 43.191406 36.25 43.75 36.808594 43.75 37.5 Z "/>
</g>
</svg>
