<?xml version="1.0" encoding="UTF-8" standalone="no"?>
<!DOCTYPE svg PUBLIC "-//W3C//DTD SVG 1.1//EN" "http://www.w3.org/Graphics/SVG/1.1/DTD/svg11.dtd">
<svg width="100%" height="100%" viewBox="0 0 128 128" version="1.1" xmlns="http://www.w3.org/2000/svg" xmlns:xlink="http://www.w3.org/1999/xlink" xml:space="preserve" xmlns:serif="http://www.serif.com/" style="fill-rule:evenodd;clip-rule:evenodd;stroke-linejoin:round;stroke-miterlimit:1.41421;">
    <g>
        <g>
            <path d="M64,116c-0.5,0 -1,-0.1 -1.5,-0.4c-26,-15.4 -41.5,-42.6 -41.5,-72.7l0,-15.1c0,-1.3 0.8,-2.4 2,-2.8l40,-14.8c0.7,-0.2 1.4,-0.2 2.1,0l39.9,14.8c1.2,0.4 2,1.6 2,2.8l0,15.1c0,7.8 -1.1,15.6 -3.2,23.1c-0.4,1.6 -2.1,2.5 -3.7,2.1c-1.6,-0.4 -2.5,-2.1 -2.1,-3.7c2,-6.9 2.9,-14.1 2.9,-21.4l0,-13l-36.9,-13.8l-37,13.7l0,13c0,28 14.4,53.2 38.5,67.5c1.4,0.8 1.9,2.7 1.1,4.1c-0.6,1 -1.6,1.5 -2.6,1.5Z" style="fill:#fff;fill-rule:nonzero;"/>
            <path d="M64,116c-1,0 -2,-0.5 -2.6,-1.5c-0.8,-1.4 -0.4,-3.3 1.1,-4.1c3.2,-1.9 6.3,-4 9.2,-6.3c1.3,-1 3.2,-0.8 4.2,0.5c1,1.3 0.8,3.2 -0.5,4.2c-3.1,2.5 -6.4,4.8 -9.9,6.8c-0.5,0.3 -1,0.4 -1.5,0.4Z" style="fill:#fff;fill-rule:nonzero;"/>
            <path d="M64,101.6c-0.6,0 -1.3,-0.2 -1.8,-0.6c-15.9,-11.7 -26,-29 -28.6,-48.5c-0.2,-1.6 0.9,-3.1 2.6,-3.4c1.6,-0.2 3.1,0.9 3.4,2.6c2.3,17.1 10.9,32.3 24.4,43c15.9,-12.6 25,-31.4 25,-51.9l0,-4.6l-25,-9.2l-27,10c-1.6,0.6 -3.3,-0.2 -3.9,-1.8c-0.6,-1.6 0.2,-3.3 1.8,-3.9l28.1,-10.3c0.7,-0.2 1.4,-0.2 2.1,0l28,10.4c1.2,0.4 2,1.6 2,2.8l0,6.7c0,23.2 -10.6,44.4 -29.2,58.1c-0.6,0.4 -1.3,0.6 -1.9,0.6Z" style="fill:#d0d4d8;fill-rule:nonzero;"/>
        </g>
        <path d="M64,25.8l0,72.8c17.7,-13.1 28,-33.4 28,-55.7l0,-6.7l-28,-10.4Z" style="fill:#d0d4d8;fill-rule:nonzero;"/>
        <path d="M89.857,82.858c7.805,-7.805 20.478,-7.805 28.284,0c7.805,7.805 7.805,20.479 0,28.284c-7.806,7.805 -20.479,7.805 -28.284,0c-7.806,-7.805 -7.806,-20.479 0,-28.284Z" style="fill:#ff5576;"/>
        <path d="M110.9,100l-14,0c-1.7,0 -3,-1.3 -3,-3c0,-1.7 1.3,-3 3,-3l14,0c1.7,0 3,1.3 3,3c0,1.7 -1.3,3 -3,3Z" style="fill:#fff;fill-rule:nonzero;"/>
    </g>
</svg>
