<?xml version="1.0" encoding="iso-8859-1"?>
<!-- Generator: Adobe Illustrator 20.1.0, SVG Export Plug-In . SVG Version: 6.00 Build 0)  -->
<svg xmlns="http://www.w3.org/2000/svg" xmlns:xlink="http://www.w3.org/1999/xlink" version="1.1" id="&#1057;&#1083;&#1086;&#1081;_1" x="0px" y="0px" viewBox="0 0 64 64" style="enable-background:new 0 0 64 64;" xml:space="preserve" width="80px" height="80px">
<linearGradient id="SVGID_1__44790" gradientUnits="userSpaceOnUse" x1="42" y1="46.5" x2="42" y2="51.6387" spreadMethod="reflect">
	<stop offset="0" style="stop-color:#6DC7FF"/>
	<stop offset="1" style="stop-color:#E6ABFF"/>
</linearGradient>
<path style="fill:url(#SVGID_1__44790);" d="M46,50c0,0.552-0.448,1-1,1h-6c-0.552,0-1-0.448-1-1v-2c0-0.552,0.448-1,1-1h6  c0.552,0,1,0.448,1,1V50z"/>
<linearGradient id="SVGID_2__44790" gradientUnits="userSpaceOnUse" x1="32.4541" y1="7.869" x2="31.7041" y2="55.369" spreadMethod="reflect">
	<stop offset="0" style="stop-color:#1A6DFF"/>
	<stop offset="1" style="stop-color:#C822FF"/>
</linearGradient>
<path style="fill:url(#SVGID_2__44790);" d="M55.363,23.621C55.771,22.804,56,21.919,56,21c0-3.309-2.691-6-6-6  c-0.746,0-1.47,0.156-2.157,0.427C47.11,11.767,43.873,9,40,9c-3.719,0-6.845,2.555-7.737,6H16.236  c-2.344,0-4.401,1.664-4.892,3.955L6.022,43.79l-0.015,2.136C6.007,45.951,6,45.975,6,46v6c0,1.654,1.346,3,3,3h38  c1.654,0,3-1.346,3-3v-4v-2v-2l-2.515-11H53c2.757,0,5-2.243,5-5C58,26.102,56.925,24.468,55.363,23.621z M48,52  c0,0.552-0.448,1-1,1H9c-0.552,0-1-0.448-1-1v-5v-1c0-0.552,0.448-1,1-1h38c0.552,0,1,0.448,1,1v2V52z M47.769,43.112  C47.522,43.046,47.267,43,47,43H9c-0.275,0-0.535,0.049-0.788,0.118L8.666,41H26v-2H9.094l0.429-2H21v-2H9.951l0.428-2H19v-2h-8.191  l0.428-2H17v-2h-5.334l1.634-7.626C13.595,17.999,14.83,17,16.236,17H32v2.08c-3.386,0.488-6,3.401-6,6.92c0,3.859,3.141,7,7,7  h12.435L47.769,43.112z M53,31H33c-2.757,0-5-2.243-5-5s2.243-5,5.001-5H36v-2h-2v-2c0-3.309,2.691-6,6-6s6,2.691,6,6v2h2v-1.434  C48.615,17.201,49.296,17,50,17c2.206,0,4,1.794,4,4c0,0.721-0.21,1.416-0.594,2.041C53.27,23.03,53.139,23,53,23h-2v2h2  c1.654,0,3,1.346,3,3S54.654,31,53,31z"/>
<linearGradient id="SVGID_3__44790" gradientUnits="userSpaceOnUse" x1="12.6544" y1="7.5564" x2="11.9044" y2="55.0564" spreadMethod="reflect">
	<stop offset="0" style="stop-color:#1A6DFF"/>
	<stop offset="1" style="stop-color:#C822FF"/>
</linearGradient>
<circle style="fill:url(#SVGID_3__44790);" cx="12" cy="49" r="2"/>
<linearGradient id="SVGID_4__44790" gradientUnits="userSpaceOnUse" x1="18.6529" y1="7.6511" x2="17.9029" y2="55.1511" spreadMethod="reflect">
	<stop offset="0" style="stop-color:#1A6DFF"/>
	<stop offset="1" style="stop-color:#C822FF"/>
</linearGradient>
<circle style="fill:url(#SVGID_4__44790);" cx="18" cy="49" r="2"/>
<linearGradient id="SVGID_5__44790" gradientUnits="userSpaceOnUse" x1="24.6514" y1="7.7458" x2="23.9014" y2="55.2458" spreadMethod="reflect">
	<stop offset="0" style="stop-color:#1A6DFF"/>
	<stop offset="1" style="stop-color:#C822FF"/>
</linearGradient>
<circle style="fill:url(#SVGID_5__44790);" cx="24" cy="49" r="2"/>
</svg>
