<?xml version="1.0" encoding="UTF-8"?>
<svg xmlns="http://www.w3.org/2000/svg" xmlns:xlink="http://www.w3.org/1999/xlink" width="80pt" height="80pt" viewBox="0 0 80 80" version="1.1">
<defs>
<linearGradient id="linear0" gradientUnits="userSpaceOnUse" x1="32" y1="807.0833" x2="32" y2="772.7422" spreadMethod="reflect" gradientTransform="matrix(1.25,0,0,-1.25,0,1027.5)">
<stop offset="0" style="stop-color:#6DC7FF;stop-opacity:1;"/>
<stop offset="1" style="stop-color:#E6ABFF;stop-opacity:1;"/>
</linearGradient>
<linearGradient id="linear1" gradientUnits="userSpaceOnUse" x1="32" y1="4.75" x2="32" y2="60.5" spreadMethod="reflect" gradientTransform="matrix(1.25,0,0,1.25,0,0)">
<stop offset="0" style="stop-color:#1A6DFF;stop-opacity:1;"/>
<stop offset="1" style="stop-color:#C822FF;stop-opacity:1;"/>
</linearGradient>
</defs>
<g id="surface1">
<path style=" stroke:none;fill-rule:nonzero;fill:url(#linear0);" d="M 40 61.25 C 28.28125 61.25 18.75 51.71875 18.75 40 C 18.75 28.28125 28.28125 18.75 40 18.75 C 51.71875 18.75 61.25 28.28125 61.25 40 C 61.25 51.71875 51.71875 61.25 40 61.25 Z M 40 21.25 C 29.660156 21.25 21.25 29.660156 21.25 40 C 21.25 50.339844 29.660156 58.75 40 58.75 C 50.339844 58.75 58.75 50.339844 58.75 40 C 58.75 29.660156 50.339844 21.25 40 21.25 Z "/>
<path style=" stroke:none;fill-rule:nonzero;fill:url(#linear1);" d="M 32.007813 32.5 L 30.492188 32.5 C 29.21875 32.5 28.148438 33.457031 28.007813 34.71875 L 26.25 47.5 L 28.769531 47.5 L 29.289063 43.75 L 33.214844 43.75 L 33.734375 47.5 L 36.25 47.5 L 34.488281 34.71875 C 34.351563 33.457031 33.28125 32.5 32.007813 32.5 Z M 29.632813 41.25 L 30.492188 35 L 32.007813 35 L 32.867188 41.25 Z M 73.695313 38.027344 C 73.5625 35.980469 72.058594 34.324219 70.042969 34 C 68.898438 33.804688 67.535156 33.582031 66.410156 33.402344 L 66.144531 33.359375 C 65.441406 33.246094 64.871094 32.75 64.65625 32.070313 C 64.242188 30.75 63.703125 29.441406 63.050781 28.164063 C 62.722656 27.535156 62.773438 26.785156 63.199219 26.199219 C 63.878906 25.238281 64.757813 24.019531 65.488281 23.007813 C 66.691406 21.34375 66.582031 19.101563 65.214844 17.546875 C 64.324219 16.558594 63.386719 15.628906 62.433594 14.777344 C 60.890625 13.421875 58.65625 13.316406 57 14.511719 C 55.980469 15.238281 54.753906 16.121094 53.792969 16.816406 C 53.214844 17.234375 52.460938 17.289063 51.828125 16.957031 C 50.601563 16.316406 49.292969 15.769531 47.929688 15.332031 C 47.253906 15.121094 46.761719 14.550781 46.648438 13.839844 C 46.449219 12.675781 46.207031 11.195313 46.011719 9.964844 C 45.679688 7.9375 44.019531 6.425781 41.953125 6.296875 C 40.625 6.226563 39.304688 6.230469 38.027344 6.304688 C 35.984375 6.4375 34.328125 7.941406 34 9.957031 C 33.808594 11.101563 33.585938 12.464844 33.402344 13.589844 L 33.359375 13.851563 C 33.246094 14.558594 32.753906 15.128906 32.074219 15.34375 C 30.753906 15.753906 29.441406 16.296875 28.167969 16.949219 C 27.535156 17.28125 26.789063 17.222656 26.203125 16.800781 C 25.238281 16.121094 24.019531 15.238281 23.011719 14.511719 C 21.34375 13.308594 19.105469 13.417969 17.546875 14.785156 C 16.558594 15.675781 15.632813 16.609375 14.78125 17.566406 C 13.425781 19.105469 13.320313 21.34375 14.515625 22.996094 C 15.242188 24.015625 16.125 25.242188 16.820313 26.203125 C 17.238281 26.785156 17.292969 27.539063 16.960938 28.171875 C 16.320313 29.394531 15.773438 30.703125 15.335938 32.066406 C 15.121094 32.746094 14.554688 33.234375 13.84375 33.351563 C 12.679688 33.550781 11.195313 33.789063 9.964844 33.988281 C 7.9375 34.316406 6.429688 35.976563 6.296875 38.046875 C 6.230469 39.375 6.230469 40.691406 6.304688 41.96875 C 6.4375 44.015625 7.941406 45.671875 9.957031 45.996094 C 11.101563 46.191406 12.464844 46.414063 13.589844 46.59375 L 13.855469 46.636719 C 14.558594 46.75 15.128906 47.246094 15.34375 47.925781 C 15.757813 49.246094 16.296875 50.554688 16.949219 51.832031 C 17.277344 52.460938 17.226563 53.210938 16.800781 53.796875 C 16.121094 54.757813 15.242188 55.976563 14.511719 56.988281 C 13.308594 58.652344 13.417969 60.894531 14.785156 62.449219 C 15.675781 63.4375 16.613281 64.367188 17.566406 65.21875 C 19.109375 66.570313 21.34375 66.675781 23 65.484375 C 24.019531 64.757813 25.246094 63.875 26.207031 63.179688 C 26.785156 62.761719 27.539063 62.707031 28.171875 63.039063 C 29.398438 63.679688 30.707031 64.226563 32.070313 64.664063 C 32.746094 64.875 33.238281 65.445313 33.351563 66.15625 C 33.550781 67.320313 33.792969 68.800781 33.988281 70.03125 C 34.320313 72.0625 35.980469 73.570313 38.046875 73.703125 C 38.675781 73.734375 39.304688 73.75 39.929688 73.75 C 40.617188 73.75 41.300781 73.730469 41.972656 73.691406 C 44.015625 73.558594 45.671875 72.054688 46 70.039063 C 46.191406 68.894531 46.414063 67.53125 46.597656 66.40625 L 46.640625 66.144531 C 46.753906 65.4375 47.246094 64.867188 47.925781 64.652344 C 49.246094 64.242188 50.558594 63.703125 51.832031 63.046875 C 52.464844 62.71875 53.210938 62.773438 53.796875 63.195313 C 54.761719 63.875 55.980469 64.757813 56.988281 65.484375 C 58.65625 66.6875 60.894531 66.578125 62.453125 65.210938 C 63.441406 64.320313 64.367188 63.386719 65.21875 62.429688 C 66.574219 60.890625 66.679688 58.652344 65.484375 57 C 64.757813 55.980469 63.875 54.753906 63.179688 53.792969 C 62.761719 53.210938 62.707031 52.457031 63.039063 51.828125 C 63.679688 50.601563 64.226563 49.292969 64.664063 47.929688 C 64.878906 47.25 65.445313 46.761719 66.15625 46.644531 C 67.320313 46.445313 68.804688 46.207031 70.035156 46.007813 C 72.0625 45.679688 73.570313 44.019531 73.703125 41.953125 C 73.769531 40.621094 73.769531 39.304688 73.695313 38.027344 Z M 71.207031 41.8125 C 71.152344 42.691406 70.503906 43.402344 69.636719 43.542969 C 68.398438 43.742188 66.90625 43.984375 65.75 44.179688 C 64.109375 44.449219 62.78125 45.597656 62.285156 47.175781 C 61.890625 48.394531 61.402344 49.570313 60.828125 50.671875 C 60.054688 52.148438 60.179688 53.90625 61.15625 55.257813 C 61.847656 56.214844 62.726563 57.433594 63.453125 58.457031 C 63.96875 59.167969 63.921875 60.121094 63.347656 60.773438 C 62.5625 61.65625 61.699219 62.527344 60.789063 63.347656 C 60.128906 63.929688 59.167969 63.972656 58.453125 63.460938 C 57.4375 62.726563 56.210938 61.839844 55.253906 61.164063 C 53.902344 60.191406 52.148438 60.066406 50.683594 60.828125 C 49.542969 61.414063 48.363281 61.898438 47.179688 62.269531 C 45.589844 62.769531 44.4375 64.101563 44.171875 65.746094 L 44.128906 66.007813 C 43.949219 67.128906 43.726563 68.484375 43.535156 69.632813 C 43.394531 70.496094 42.683594 71.140625 41.820313 71.195313 C 40.640625 71.265625 39.414063 71.269531 38.191406 71.207031 C 37.3125 71.148438 36.601563 70.503906 36.460938 69.632813 C 36.261719 68.398438 36.019531 66.902344 35.820313 65.746094 C 35.554688 64.105469 34.40625 62.777344 32.828125 62.28125 C 31.609375 61.890625 30.429688 61.398438 29.332031 60.824219 C 28.6875 60.488281 27.992188 60.324219 27.300781 60.324219 C 26.402344 60.324219 25.507813 60.601563 24.746094 61.152344 C 23.789063 61.84375 22.566406 62.722656 21.546875 63.453125 C 20.835938 63.964844 19.878906 63.917969 19.226563 63.34375 C 18.34375 62.558594 17.476563 61.695313 16.65625 60.785156 C 16.074219 60.125 16.027344 59.164063 16.542969 58.453125 C 17.277344 57.433594 18.160156 56.207031 18.839844 55.25 C 19.8125 53.902344 19.9375 52.148438 19.171875 50.683594 C 18.585938 49.542969 18.101563 48.363281 17.734375 47.179688 C 17.234375 45.585938 15.902344 44.433594 14.257813 44.167969 L 13.992188 44.125 C 12.875 43.945313 11.515625 43.726563 10.371094 43.53125 C 9.503906 43.390625 8.859375 42.683594 8.804688 41.816406 C 8.738281 40.636719 8.734375 39.410156 8.796875 38.1875 C 8.851563 37.308594 9.5 36.597656 10.367188 36.457031 C 11.605469 36.257813 13.097656 36.015625 14.257813 35.820313 C 15.898438 35.550781 17.226563 34.402344 17.71875 32.824219 C 18.113281 31.605469 18.605469 30.429688 19.179688 29.328125 C 19.953125 27.851563 19.824219 26.09375 18.851563 24.742188 C 18.160156 23.785156 17.277344 22.566406 16.550781 21.542969 C 16.039063 20.832031 16.082031 19.878906 16.65625 19.226563 C 17.441406 18.34375 18.308594 17.472656 19.214844 16.652344 C 19.878906 16.070313 20.835938 16.023438 21.550781 16.539063 C 22.566406 17.273438 23.792969 18.160156 24.753906 18.835938 C 26.101563 19.808594 27.855469 19.9375 29.320313 19.171875 C 30.460938 18.585938 31.640625 18.101563 32.824219 17.730469 C 34.414063 17.230469 35.566406 15.898438 35.832031 14.253906 L 35.875 13.992188 C 36.058594 12.871094 36.277344 11.515625 36.472656 10.367188 C 36.609375 9.503906 37.320313 8.859375 38.1875 8.804688 C 39.363281 8.734375 40.589844 8.734375 41.816406 8.792969 C 42.691406 8.851563 43.40625 9.496094 43.546875 10.367188 C 43.742188 11.601563 43.984375 13.097656 44.183594 14.253906 C 44.449219 15.894531 45.601563 17.222656 47.175781 17.71875 C 48.398438 18.109375 49.574219 18.601563 50.671875 19.175781 C 52.148438 19.949219 53.90625 19.820313 55.261719 18.847656 C 56.214844 18.15625 57.4375 17.277344 58.460938 16.546875 C 59.171875 16.035156 60.125 16.082031 60.777344 16.65625 C 61.660156 17.441406 62.527344 18.304688 63.351563 19.214844 C 63.929688 19.875 63.976563 20.835938 63.460938 21.546875 C 62.730469 22.566406 61.84375 23.792969 61.167969 24.75 C 60.191406 26.097656 60.066406 27.851563 60.832031 29.316406 C 61.417969 30.457031 61.902344 31.636719 62.273438 32.820313 C 62.769531 34.414063 64.105469 35.566406 65.746094 35.832031 L 66.011719 35.875 C 67.128906 36.054688 68.488281 36.273438 69.636719 36.46875 C 70.5 36.609375 71.144531 37.316406 71.199219 38.183594 C 71.265625 39.363281 71.269531 40.589844 71.207031 41.8125 Z M 45 32.5 L 38.75 32.5 L 38.75 47.5 L 41.25 47.5 L 41.25 42.5 L 45 42.5 C 47.070313 42.5 48.75 40.820313 48.75 38.75 L 48.75 36.25 C 48.75 34.179688 47.070313 32.5 45 32.5 Z M 46.25 38.75 C 46.25 39.4375 45.6875 40 45 40 L 41.25 40 L 41.25 35 L 45 35 C 45.6875 35 46.25 35.5625 46.25 36.25 Z M 51.25 47.5 L 53.75 47.5 L 53.75 32.5 L 51.25 32.5 Z "/>
</g>
</svg>
