<?xml version="1.0"?>
<svg xmlns="http://www.w3.org/2000/svg" xmlns:xlink="http://www.w3.org/1999/xlink" version="1.1" viewBox="0 0 192 192" width="104px" height="104px"><g fill="none" fill-rule="nonzero" stroke="none" stroke-width="1" stroke-linecap="butt" stroke-linejoin="miter" stroke-miterlimit="10" stroke-dasharray="" stroke-dashoffset="0" font-family="none" font-weight="none" font-size="none" text-anchor="none" style="mix-blend-mode: normal"><path d="M0,192v-192h192v192z" fill="none"/><g fill="#ffffff"><g id="surface1"><path d="M73.84615,1.38462c-40.03846,0 -72.46154,32.42308 -72.46154,72.46154c0,40.03846 32.42308,72.46154 72.46154,72.46154c16.90385,0 32.45192,-5.97116 44.76923,-15.69231l6.46154,6.46154c-2.71153,5.10577 -1.75961,11.625 2.53846,15.92308l33.92308,34.15385c5.27885,5.27885 13.875,5.27885 19.15385,0l6.46154,-6.46154c5.27885,-5.27885 5.27885,-13.875 0,-19.15385l-34.15385,-33.92308c-4.32692,-4.32692 -10.81731,-5.07692 -15.92308,-2.30769l-6.46154,-6.46154c9.77885,-12.34615 15.69231,-28.00962 15.69231,-45c0,-40.03846 -32.42308,-72.46154 -72.46154,-72.46154zM73.84615,14.76923c32.625,0 59.07692,26.45192 59.07692,59.07692c0,32.625 -26.45192,59.07692 -59.07692,59.07692c-32.625,0 -59.07692,-26.45192 -59.07692,-59.07692c0,-32.625 26.45192,-59.07692 59.07692,-59.07692zM36.46154,55.15385c-3.80769,6.17308 -6,13.44231 -6,21.23077c0,22.35577 18.02884,40.38462 40.38462,40.38462c8.625,0 16.73077,-2.79808 23.30769,-7.38462c-1.75961,0.20192 -3.72115,0.23077 -5.53846,0.23077c-28.90384,0 -52.15385,-23.25 -52.15385,-52.15385c0,-0.77885 -0.02884,-1.52884 0,-2.30769z"/></g></g></g></svg>
