<?xml version="1.0" encoding="UTF-8"?>
<svg xmlns="http://www.w3.org/2000/svg" xmlns:xlink="http://www.w3.org/1999/xlink" width="80pt" height="80pt" viewBox="0 0 80 80" version="1.1">
<defs>
<linearGradient id="linear0" gradientUnits="userSpaceOnUse" x1="32" y1="7.625" x2="32" y2="15.0011" spreadMethod="reflect" gradientTransform="matrix(1.25,0,0,1.25,0,0)">
<stop offset="0" style="stop-color:#6DC7FF;stop-opacity:1;"/>
<stop offset="1" style="stop-color:#E6ABFF;stop-opacity:1;"/>
</linearGradient>
<linearGradient id="linear1" gradientUnits="userSpaceOnUse" x1="32" y1="5.6667" x2="32" y2="59.3592" spreadMethod="reflect" gradientTransform="matrix(1.25,0,0,1.25,0,0)">
<stop offset="0" style="stop-color:#1A6DFF;stop-opacity:1;"/>
<stop offset="1" style="stop-color:#C822FF;stop-opacity:1;"/>
</linearGradient>
<linearGradient id="linear2" gradientUnits="userSpaceOnUse" x1="32" y1="5.6667" x2="32" y2="59.3592" spreadMethod="reflect" gradientTransform="matrix(1.25,0,0,1.25,0,0)">
<stop offset="0" style="stop-color:#1A6DFF;stop-opacity:1;"/>
<stop offset="1" style="stop-color:#C822FF;stop-opacity:1;"/>
</linearGradient>
<linearGradient id="linear3" gradientUnits="userSpaceOnUse" x1="25.0004" y1="5.6667" x2="25.0004" y2="59.3592" spreadMethod="reflect" gradientTransform="matrix(1.25,0,0,1.25,0,0)">
<stop offset="0" style="stop-color:#1A6DFF;stop-opacity:1;"/>
<stop offset="1" style="stop-color:#C822FF;stop-opacity:1;"/>
</linearGradient>
<linearGradient id="linear4" gradientUnits="userSpaceOnUse" x1="18" y1="5.6667" x2="18" y2="59.3592" spreadMethod="reflect" gradientTransform="matrix(1.25,0,0,1.25,0,0)">
<stop offset="0" style="stop-color:#1A6DFF;stop-opacity:1;"/>
<stop offset="1" style="stop-color:#C822FF;stop-opacity:1;"/>
</linearGradient>
<linearGradient id="linear5" gradientUnits="userSpaceOnUse" x1="18" y1="5.6667" x2="18" y2="59.3592" spreadMethod="reflect" gradientTransform="matrix(1.25,0,0,1.25,0,0)">
<stop offset="0" style="stop-color:#1A6DFF;stop-opacity:1;"/>
<stop offset="1" style="stop-color:#C822FF;stop-opacity:1;"/>
</linearGradient>
<linearGradient id="linear6" gradientUnits="userSpaceOnUse" x1="17" y1="5.6667" x2="17" y2="59.3592" spreadMethod="reflect" gradientTransform="matrix(1.25,0,0,1.25,0,0)">
<stop offset="0" style="stop-color:#1A6DFF;stop-opacity:1;"/>
<stop offset="1" style="stop-color:#C822FF;stop-opacity:1;"/>
</linearGradient>
<linearGradient id="linear7" gradientUnits="userSpaceOnUse" x1="46" y1="5.6667" x2="46" y2="59.3592" spreadMethod="reflect" gradientTransform="matrix(1.25,0,0,1.25,0,0)">
<stop offset="0" style="stop-color:#1A6DFF;stop-opacity:1;"/>
<stop offset="1" style="stop-color:#C822FF;stop-opacity:1;"/>
</linearGradient>
<linearGradient id="linear8" gradientUnits="userSpaceOnUse" x1="46" y1="5.6667" x2="46" y2="59.3592" spreadMethod="reflect" gradientTransform="matrix(1.25,0,0,1.25,0,0)">
<stop offset="0" style="stop-color:#1A6DFF;stop-opacity:1;"/>
<stop offset="1" style="stop-color:#C822FF;stop-opacity:1;"/>
</linearGradient>
<linearGradient id="linear9" gradientUnits="userSpaceOnUse" x1="47" y1="5.6667" x2="47" y2="59.3592" spreadMethod="reflect" gradientTransform="matrix(1.25,0,0,1.25,0,0)">
<stop offset="0" style="stop-color:#1A6DFF;stop-opacity:1;"/>
<stop offset="1" style="stop-color:#C822FF;stop-opacity:1;"/>
</linearGradient>
<linearGradient id="linear10" gradientUnits="userSpaceOnUse" x1="15" y1="5.6667" x2="15" y2="59.3592" spreadMethod="reflect" gradientTransform="matrix(1.25,0,0,1.25,0,0)">
<stop offset="0" style="stop-color:#1A6DFF;stop-opacity:1;"/>
<stop offset="1" style="stop-color:#C822FF;stop-opacity:1;"/>
</linearGradient>
<linearGradient id="linear11" gradientUnits="userSpaceOnUse" x1="22" y1="5.6667" x2="22" y2="59.3592" spreadMethod="reflect" gradientTransform="matrix(1.25,0,0,1.25,0,0)">
<stop offset="0" style="stop-color:#1A6DFF;stop-opacity:1;"/>
<stop offset="1" style="stop-color:#C822FF;stop-opacity:1;"/>
</linearGradient>
</defs>
<g id="surface1">
<path style=" stroke:none;fill-rule:nonzero;fill:url(#linear0);" d="M 10 10 L 70 10 L 70 17.5 L 10 17.5 Z "/>
<path style=" stroke:none;fill-rule:nonzero;fill:url(#linear1);" d="M 66.25 7.5 L 13.75 7.5 C 10.304688 7.5 7.5 10.304688 7.5 13.75 L 7.5 63.75 C 7.5 65.816406 9.183594 67.5 11.25 67.5 L 36.25 67.5 L 36.25 65 L 11.25 65 C 10.558594 65 10 64.441406 10 63.75 L 10 62.269531 C 10.390625 62.410156 10.808594 62.5 11.25 62.5 L 36.25 62.5 L 36.25 60 L 11.25 60 C 10.558594 60 10 59.441406 10 58.75 L 10 20 L 70 20 L 70 58.75 C 70 59.441406 69.441406 60 68.75 60 L 43.75 60 L 43.75 62.5 L 68.75 62.5 C 69.191406 62.5 69.609375 62.410156 70 62.269531 L 70 63.75 C 70 64.441406 69.441406 65 68.75 65 L 43.75 65 L 43.75 67.5 L 68.75 67.5 C 70.816406 67.5 72.5 65.816406 72.5 63.75 L 72.5 13.75 C 72.5 10.304688 69.695313 7.5 66.25 7.5 Z M 10 17.5 L 10 13.75 C 10 11.683594 11.683594 10 13.75 10 L 66.25 10 C 68.316406 10 70 11.683594 70 13.75 L 70 17.5 Z "/>
<path style=" stroke:none;fill-rule:nonzero;fill:url(#linear2);" d="M 65 35 L 65 25 C 65 23.621094 63.878906 22.5 62.5 22.5 L 17.5 22.5 C 16.121094 22.5 15 23.621094 15 25 L 15 35 C 15 36.378906 16.121094 37.5 17.5 37.5 L 62.5 37.5 C 63.878906 37.5 65 36.378906 65 35 Z M 62.503906 35 L 52.5 35 L 52.5 25 L 62.5 25 Z M 50 35 L 30 35 L 30 25 L 50 25 Z M 17.5 25 L 27.5 25 L 27.5 35 L 17.5 35 Z "/>
<path style=" stroke:none;fill-rule:nonzero;fill:url(#linear3);" d="M 45.589844 55 C 46.289063 55 46.929688 54.636719 47.265625 54.054688 C 47.582031 53.503906 47.578125 52.847656 47.257813 52.300781 L 42.269531 43.75 C 41.820313 42.980469 40.949219 42.5 40 42.5 C 39.050781 42.5 38.179688 42.980469 37.730469 43.75 L 32.742188 52.300781 C 32.421875 52.847656 32.417969 53.503906 32.734375 54.054688 C 33.070313 54.636719 33.710938 55 34.410156 55 L 38.75 55 L 38.75 68.75 C 38.75 69.441406 38.191406 70 37.5 70 L 15 70 L 15 72.5 L 37.5 72.5 C 39.566406 72.5 41.25 70.816406 41.25 68.75 L 41.25 55 Z M 39.875 45.027344 C 39.921875 44.988281 40.074219 44.988281 40.109375 45.007813 L 44.480469 52.5 L 35.519531 52.5 Z "/>
<path style=" stroke:none;fill-rule:nonzero;fill:url(#linear4);" d="M 15 42.5 L 30 42.5 L 30 45 L 15 45 Z "/>
<path style=" stroke:none;fill-rule:nonzero;fill:url(#linear5);" d="M 15 47.5 L 30 47.5 L 30 50 L 15 50 Z "/>
<path style=" stroke:none;fill-rule:nonzero;fill:url(#linear6);" d="M 15 52.5 L 27.5 52.5 L 27.5 55 L 15 55 Z "/>
<path style=" stroke:none;fill-rule:nonzero;fill:url(#linear7);" d="M 50 42.5 L 65 42.5 L 65 45 L 50 45 Z "/>
<path style=" stroke:none;fill-rule:nonzero;fill:url(#linear8);" d="M 50 47.5 L 65 47.5 L 65 50 L 50 50 Z "/>
<path style=" stroke:none;fill-rule:nonzero;fill:url(#linear9);" d="M 52.5 52.5 L 65 52.5 L 65 55 L 52.5 55 Z "/>
<path style=" stroke:none;fill-rule:nonzero;fill:url(#linear10);" d="M 15 12.5 L 22.5 12.5 L 22.5 15 L 15 15 Z "/>
<path style=" stroke:none;fill-rule:nonzero;fill:url(#linear11);" d="M 25 12.5 L 30 12.5 L 30 15 L 25 15 Z "/>
</g>
</svg>
