<?xml version="1.0"?>
<svg xmlns="http://www.w3.org/2000/svg" xmlns:xlink="http://www.w3.org/1999/xlink" version="1.1" viewBox="0 0 192 192" width="24px" height="24px"><g fill="none" fill-rule="nonzero" stroke="none" stroke-width="1" stroke-linecap="butt" stroke-linejoin="miter" stroke-miterlimit="10" stroke-dasharray="" stroke-dashoffset="0" font-family="none" font-weight="none" font-size="none" text-anchor="none" style="mix-blend-mode: normal"><path d="M0,192v-192h192v192z" fill="none"/><g fill="#ffffff"><g id="surface1"><path d="M96,0c-15.21875,0 -24.6875,3.65625 -25.5,4l-22.5,7.25c-10.40625,3.1875 -19.09375,9.4375 -25.5,18.25l-22.5,42.5l27.25,16.75l12.75,-24v119.25c0,4.40625 25.0625,8 56,8c30.9375,0 56,-3.59375 56,-8v-119.25l12.75,24l27.25,-16.75l-22.5,-42.5c-6.40625,-8.8125 -15.15625,-15.0625 -24.75,-18.25l-22.25,-7.25c-0.1875,0 -1.03125,1.3125 -2,2.75l1.25,-2.5c0,0 -9.84375,-4.25 -25.75,-4.25zM96,8c11.40625,0 18.4375,2.25 21,3.25c-4.46875,5.75 -11.40625,12.75 -21,12.75c-9.40625,0 -16.40625,-7.0625 -20.75,-12.75c2.875,-1.0625 9.875,-3.25 20.75,-3.25z"/></g></g></g></svg>
