<svg xmlns="http://www.w3.org/2000/svg" viewBox="0 0 48 48" width="96px" height="96px"><path fill="#d7dfe2" d="M6,43V33h37c0.552,0,1,0.448,1,1v8c0,0.552-0.448,1-1,1H6z"/><path fill="#b0bec5" d="M33.162 33L29.228 33 12.289 43 16.223 43z"/><path fill="#8c9eff" d="M36,43V33h7c0.552,0,1,0.448,1,1v8c0,0.552-0.448,1-1,1H36z"/><path fill="#5c6bc0" d="M25 34H35V42H25z" transform="rotate(90 30 38)"/><path fill="#3f51b5" d="M26 37.228L33.162 33 29.228 33 26 34.906z"/><path fill="#303f9f" d="M15 34H25V42H15z" transform="rotate(90 20 38)"/><path fill="#283593" d="M24 36.086L16 40.809 16 43 16.223 43 24 38.409z"/><path fill="#d7dfe2" d="M41.861,24.381l-4.067-6.889c-0.281-0.476-0.894-0.633-1.37-0.353L6,35.1v3.284L8.725,43h3.564 l29.219-17.25C41.984,25.47,42.142,24.856,41.861,24.381z"/><path fill="#b0bec5" d="M28.875 21.596L25.325 23.691 14.892 41.464 18.441 39.368z"/><path fill="#81c784" d="M35.48,29.309l-5.084-8.611l6.028-3.559c0.476-0.281,1.089-0.123,1.37,0.353l4.067,6.889 c0.281,0.476,0.123,1.089-0.353,1.37L35.48,29.309z"/><path fill="#43a047" d="M22.772 24.054H32.772V32.054H22.772z" transform="rotate(59.443 27.773 28.055)"/><path fill="#2e7d32" d="M14.16 29.137H24.16V37.137H14.16z" transform="rotate(59.443 19.161 33.139)"/><path fill="#2e7d32" d="M14.16 29.137H24.16V37.137H14.16z" transform="rotate(59.443 19.161 33.139)"/><path fill="#d7dfe2" d="M31.506,11.188l-6.899-4.05c-0.476-0.28-1.089-0.12-1.369,0.356L6,36.858v3.421L10.636,43h3.354 l17.872-30.443C32.142,12.08,31.982,11.468,31.506,11.188z"/><path fill="#1b5e20" d="M21.787 29.719L17.155 37.609 18.258 39.477 18.441 39.368 22.95 31.688z"/><path fill="#388e3c" d="M28.74 21.826L28.674 21.714 25.325 23.691 22.945 27.746 24.108 29.716z"/><path fill="#ffd740" d="M28.318,18.593l-8.624-5.063l3.544-6.037c0.28-0.476,0.892-0.636,1.369-0.356l6.899,4.05 c0.476,0.28,0.636,0.892,0.356,1.369L28.318,18.593z"/><path fill="#ffc400" d="M15.969 17.236H25.969V25.236H15.969z" transform="rotate(30.416 20.968 21.235)"/><path fill="#ff9800" d="M10.906 25.86H20.906V33.86H10.906z" transform="rotate(30.416 15.905 29.858)"/><path fill="#d7dfe2" d="M16,43H6V6c0-0.552,0.448-1,1-1h8c0.552,0,1,0.448,1,1V43z"/><path fill="#ff8a80" d="M16,13H6V6c0-0.552,0.448-1,1-1h8c0.552,0,1,0.448,1,1V13z"/><path fill="#ff5252" d="M6 15H16V23H6z"/><path fill="#d50000" d="M6 25H16V33H6z"/><path fill="#455a64" d="M11 37A1 1 0 1 0 11 39A1 1 0 1 0 11 37Z"/><path fill="#90a4ae" d="M16 35.652L16 40.809 18.258 39.477z"/><path fill="#b0bec5" d="M16 34.553L16 39.576 18.193 35.841zM16 22.957L16 25.277 18 26.451 18 24.132z"/><path fill="#ffab00" d="M16 22.957L18 24.132 18 16.417 16 19.824z"/><path fill="#f57c00" d="M16 34.553L18 35.727 18 26.451 16 25.277z"/></svg>