<?xml version="1.0" encoding="UTF-8"?>
<svg xmlns="http://www.w3.org/2000/svg" xmlns:xlink="http://www.w3.org/1999/xlink" width="80pt" height="80pt" viewBox="0 0 80 80" version="1.1">
<defs>
<linearGradient id="linear0" gradientUnits="userSpaceOnUse" x1="32" y1="21.125" x2="32" y2="47.125" spreadMethod="reflect" gradientTransform="matrix(1.25,0,0,1.25,0,0)">
<stop offset="0" style="stop-color:#6DC7FF;stop-opacity:1;"/>
<stop offset="1" style="stop-color:#E6ABFF;stop-opacity:1;"/>
</linearGradient>
<linearGradient id="linear1" gradientUnits="userSpaceOnUse" x1="12" y1="12.8333" x2="12" y2="15.3753" spreadMethod="reflect" gradientTransform="matrix(1.25,0,0,1.25,0,0)">
<stop offset="0" style="stop-color:#6DC7FF;stop-opacity:1;"/>
<stop offset="1" style="stop-color:#E6ABFF;stop-opacity:1;"/>
</linearGradient>
<linearGradient id="linear2" gradientUnits="userSpaceOnUse" x1="18" y1="12.8333" x2="18" y2="15.3753" spreadMethod="reflect" gradientTransform="matrix(1.25,0,0,1.25,0,0)">
<stop offset="0" style="stop-color:#6DC7FF;stop-opacity:1;"/>
<stop offset="1" style="stop-color:#E6ABFF;stop-opacity:1;"/>
</linearGradient>
<linearGradient id="linear3" gradientUnits="userSpaceOnUse" x1="24" y1="12.8333" x2="24" y2="15.3753" spreadMethod="reflect" gradientTransform="matrix(1.25,0,0,1.25,0,0)">
<stop offset="0" style="stop-color:#6DC7FF;stop-opacity:1;"/>
<stop offset="1" style="stop-color:#E6ABFF;stop-opacity:1;"/>
</linearGradient>
<linearGradient id="linear4" gradientUnits="userSpaceOnUse" x1="32" y1="8.75" x2="32" y2="55.5002" spreadMethod="reflect" gradientTransform="matrix(1.25,0,0,1.25,0,0)">
<stop offset="0" style="stop-color:#1A6DFF;stop-opacity:1;"/>
<stop offset="1" style="stop-color:#C822FF;stop-opacity:1;"/>
</linearGradient>
<linearGradient id="linear5" gradientUnits="userSpaceOnUse" x1="32" y1="8.75" x2="32" y2="55.5002" spreadMethod="reflect" gradientTransform="matrix(1.25,0,0,1.25,0,0)">
<stop offset="0" style="stop-color:#1A6DFF;stop-opacity:1;"/>
<stop offset="1" style="stop-color:#C822FF;stop-opacity:1;"/>
</linearGradient>
<linearGradient id="linear6" gradientUnits="userSpaceOnUse" x1="24.9392" y1="8.75" x2="24.9392" y2="55.5002" spreadMethod="reflect" gradientTransform="matrix(1.25,0,0,1.25,0,0)">
<stop offset="0" style="stop-color:#1A6DFF;stop-opacity:1;"/>
<stop offset="1" style="stop-color:#C822FF;stop-opacity:1;"/>
</linearGradient>
<linearGradient id="linear7" gradientUnits="userSpaceOnUse" x1="37" y1="8.75" x2="37" y2="55.5002" spreadMethod="reflect" gradientTransform="matrix(1.25,0,0,1.25,0,0)">
<stop offset="0" style="stop-color:#1A6DFF;stop-opacity:1;"/>
<stop offset="1" style="stop-color:#C822FF;stop-opacity:1;"/>
</linearGradient>
</defs>
<g id="surface1">
<path style=" stroke:none;fill-rule:nonzero;fill:url(#linear0);" d="M 65 58.75 L 15 58.75 C 13.621094 58.75 12.5 57.628906 12.5 56.25 L 12.5 28.75 C 12.5 27.371094 13.621094 26.25 15 26.25 L 65 26.25 C 66.378906 26.25 67.5 27.371094 67.5 28.75 L 67.5 56.25 C 67.5 57.628906 66.378906 58.75 65 58.75 Z M 15 28.75 L 15 56.25 L 65 56.25 L 65 28.75 Z "/>
<path style=" stroke:none;fill-rule:nonzero;fill:url(#linear1);" d="M 12.5 16.25 L 17.5 16.25 L 17.5 18.75 L 12.5 18.75 Z "/>
<path style=" stroke:none;fill-rule:nonzero;fill:url(#linear2);" d="M 20 16.25 L 25 16.25 L 25 18.75 L 20 18.75 Z "/>
<path style=" stroke:none;fill-rule:nonzero;fill:url(#linear3);" d="M 27.5 16.25 L 32.5 16.25 L 32.5 18.75 L 27.5 18.75 Z "/>
<path style=" stroke:none;fill-rule:nonzero;fill:url(#linear4);" d="M 68.75 11.25 L 11.25 11.25 C 9.183594 11.25 7.5 12.933594 7.5 15 L 7.5 60 C 7.5 62.066406 9.183594 63.75 11.25 63.75 L 68.75 63.75 C 70.816406 63.75 72.5 62.066406 72.5 60 L 72.5 15 C 72.5 12.933594 70.816406 11.25 68.75 11.25 Z M 70 15 L 70 21.25 L 62.5 21.25 L 62.5 13.75 L 68.75 13.75 C 69.441406 13.75 70 14.308594 70 15 Z M 11.25 13.75 L 60 13.75 L 60 21.25 L 10 21.25 L 10 15 C 10 14.308594 10.558594 13.75 11.25 13.75 Z M 68.75 61.25 L 11.25 61.25 C 10.558594 61.25 10 60.691406 10 60 L 10 23.75 L 70 23.75 L 70 60 C 70 60.691406 69.441406 61.25 68.75 61.25 Z "/>
<path style=" stroke:none;fill-rule:nonzero;fill:url(#linear5);" d="M 10 66.25 L 70 66.25 L 70 68.75 L 10 68.75 Z "/>
<path style=" stroke:none;fill-rule:nonzero;fill:url(#linear6);" d="M 28.382813 34.117188 L 26.617188 35.882813 L 33.234375 42.5 L 26.617188 49.117188 L 28.382813 50.882813 L 35 44.265625 C 35.976563 43.292969 35.976563 41.707031 35 40.734375 Z "/>
<path style=" stroke:none;fill-rule:nonzero;fill:url(#linear7);" d="M 40 47.5 L 52.5 47.5 L 52.5 50 L 40 50 Z "/>
</g>
</svg>
