<?xml version="1.0" encoding="UTF-8"?>
<svg xmlns="http://www.w3.org/2000/svg" xmlns:xlink="http://www.w3.org/1999/xlink" width="80pt" height="80pt" viewBox="0 0 80 80" version="1.1">
<defs>
<linearGradient id="linear0" gradientUnits="userSpaceOnUse" x1="17" y1="28" x2="17" y2="36.4861" spreadMethod="reflect" gradientTransform="matrix(1.25,0,0,1.25,0,0)">
<stop offset="0" style="stop-color:#6DC7FF;stop-opacity:1;"/>
<stop offset="1" style="stop-color:#E6ABFF;stop-opacity:1;"/>
</linearGradient>
<linearGradient id="linear1" gradientUnits="userSpaceOnUse" x1="32" y1="7.5" x2="32" y2="57.5" spreadMethod="reflect" gradientTransform="matrix(1.25,0,0,1.25,0,0)">
<stop offset="0" style="stop-color:#1A6DFF;stop-opacity:1;"/>
<stop offset="1" style="stop-color:#C822FF;stop-opacity:1;"/>
</linearGradient>
<linearGradient id="linear2" gradientUnits="userSpaceOnUse" x1="48" y1="7.5" x2="48" y2="57.5336" spreadMethod="reflect" gradientTransform="matrix(1.25,0,0,1.25,0,0)">
<stop offset="0" style="stop-color:#1A6DFF;stop-opacity:1;"/>
<stop offset="1" style="stop-color:#C822FF;stop-opacity:1;"/>
</linearGradient>
<linearGradient id="linear3" gradientUnits="userSpaceOnUse" x1="16" y1="7.5" x2="16" y2="57.5336" spreadMethod="reflect" gradientTransform="matrix(1.25,0,0,1.25,0,0)">
<stop offset="0" style="stop-color:#1A6DFF;stop-opacity:1;"/>
<stop offset="1" style="stop-color:#C822FF;stop-opacity:1;"/>
</linearGradient>
<linearGradient id="linear4" gradientUnits="userSpaceOnUse" x1="29" y1="7.5" x2="29" y2="57.5336" spreadMethod="reflect" gradientTransform="matrix(1.25,0,0,1.25,0,0)">
<stop offset="0" style="stop-color:#1A6DFF;stop-opacity:1;"/>
<stop offset="1" style="stop-color:#C822FF;stop-opacity:1;"/>
</linearGradient>
<linearGradient id="linear5" gradientUnits="userSpaceOnUse" x1="37" y1="7.5" x2="37" y2="57.5336" spreadMethod="reflect" gradientTransform="matrix(1.25,0,0,1.25,0,0)">
<stop offset="0" style="stop-color:#1A6DFF;stop-opacity:1;"/>
<stop offset="1" style="stop-color:#C822FF;stop-opacity:1;"/>
</linearGradient>
<linearGradient id="linear6" gradientUnits="userSpaceOnUse" x1="35" y1="7.5" x2="35" y2="57.5336" spreadMethod="reflect" gradientTransform="matrix(1.25,0,0,1.25,0,0)">
<stop offset="0" style="stop-color:#1A6DFF;stop-opacity:1;"/>
<stop offset="1" style="stop-color:#C822FF;stop-opacity:1;"/>
</linearGradient>
<linearGradient id="linear7" gradientUnits="userSpaceOnUse" x1="32" y1="7.5" x2="32" y2="57.5336" spreadMethod="reflect" gradientTransform="matrix(1.25,0,0,1.25,0,0)">
<stop offset="0" style="stop-color:#1A6DFF;stop-opacity:1;"/>
<stop offset="1" style="stop-color:#C822FF;stop-opacity:1;"/>
</linearGradient>
<linearGradient id="linear8" gradientUnits="userSpaceOnUse" x1="14" y1="7.5" x2="14" y2="57.5336" spreadMethod="reflect" gradientTransform="matrix(1.25,0,0,1.25,0,0)">
<stop offset="0" style="stop-color:#1A6DFF;stop-opacity:1;"/>
<stop offset="1" style="stop-color:#C822FF;stop-opacity:1;"/>
</linearGradient>
</defs>
<g id="surface1">
<path style=" stroke:none;fill-rule:nonzero;fill:url(#linear0);" d="M 17.5 35 L 25 35 L 25 45 L 17.5 45 Z "/>
<path style=" stroke:none;fill-rule:nonzero;fill:url(#linear1);" d="M 66.25 8.75 L 53.75 8.75 C 50.304688 8.75 47.5 11.554688 47.5 15 L 47.5 20 L 38.917969 20 C 38.480469 20 38.066406 19.765625 37.84375 19.390625 L 35.550781 15.574219 C 34.878906 14.449219 33.644531 13.75 32.332031 13.75 L 11.257813 13.75 C 9.183594 13.75 7.5 15.433594 7.5 17.507813 L 7.5 62.5 C 7.5 64.566406 9.183594 66.25 11.25 66.25 L 11.25 68.75 C 11.25 70.128906 12.371094 71.25 13.75 71.25 L 61.25 71.25 C 62.628906 71.25 63.75 70.128906 63.75 68.75 L 63.75 66.25 C 65.816406 66.25 67.5 64.566406 67.5 62.5 L 67.5 33.625 C 70.347656 33.042969 72.5 30.519531 72.5 27.5 L 72.5 15 C 72.5 11.554688 69.695313 8.75 66.25 8.75 Z M 33.410156 16.859375 L 35.292969 20 L 28.917969 20 C 28.480469 20 28.066406 19.765625 27.839844 19.390625 L 25.957031 16.25 L 32.332031 16.25 C 32.769531 16.25 33.183594 16.484375 33.410156 16.859375 Z M 10 17.507813 C 10 16.8125 10.5625 16.25 11.257813 16.25 L 22.332031 16.25 C 22.769531 16.25 23.183594 16.484375 23.40625 16.859375 L 25.699219 20.675781 C 26.371094 21.800781 27.605469 22.5 28.917969 22.5 L 47.5 22.5 L 47.5 27.5 L 10 27.5 Z M 61.25 68.75 L 13.75 68.75 L 13.75 66.25 L 61.25 66.25 Z M 63.75 63.75 L 58.75 63.75 L 58.75 61.25 L 56.25 61.25 L 56.25 63.75 L 48.75 63.75 L 48.75 61.25 L 46.25 61.25 L 46.25 63.75 L 38.75 63.75 L 38.75 61.25 L 36.25 61.25 L 36.25 63.75 L 28.75 63.75 L 28.75 61.25 L 26.25 61.25 L 26.25 63.75 L 18.75 63.75 L 18.75 61.25 L 16.25 61.25 L 16.25 63.75 L 11.25 63.75 C 10.558594 63.75 10 63.191406 10 62.5 L 10 30 L 48.03125 30 C 48.996094 32.203125 51.195313 33.75 53.75 33.75 L 65 33.75 L 65 62.5 C 65 63.191406 64.441406 63.75 63.75 63.75 Z M 70 27.5 C 70 29.566406 68.316406 31.25 66.25 31.25 L 53.75 31.25 C 51.683594 31.25 50 29.566406 50 27.5 L 50 15 C 50 12.933594 51.683594 11.25 53.75 11.25 L 66.25 11.25 C 68.316406 11.25 70 12.933594 70 15 Z "/>
<path style=" stroke:none;fill-rule:nonzero;fill:url(#linear2);" d="M 64.417969 15.0625 L 60 19.484375 L 55.582031 15.0625 L 53.8125 16.832031 L 58.234375 21.25 L 53.8125 25.667969 L 55.582031 27.4375 L 60 23.015625 L 64.417969 27.4375 L 66.1875 25.667969 L 61.765625 21.25 L 66.1875 16.832031 Z "/>
<path style=" stroke:none;fill-rule:nonzero;fill:url(#linear3);" d="M 12.5 50 L 27.5 50 L 27.5 32.5 L 12.5 32.5 Z M 15 35 L 25 35 L 25 47.5 L 15 47.5 Z "/>
<path style=" stroke:none;fill-rule:nonzero;fill:url(#linear4);" d="M 30 32.5 L 42.5 32.5 L 42.5 35 L 30 35 Z "/>
<path style=" stroke:none;fill-rule:nonzero;fill:url(#linear5);" d="M 30 37.5 L 62.5 37.5 L 62.5 40 L 30 40 Z "/>
<path style=" stroke:none;fill-rule:nonzero;fill:url(#linear6);" d="M 30 42.5 L 57.5 42.5 L 57.5 45 L 30 45 Z "/>
<path style=" stroke:none;fill-rule:nonzero;fill:url(#linear7);" d="M 30 47.5 L 50 47.5 L 50 50 L 30 50 Z "/>
<path style=" stroke:none;fill-rule:nonzero;fill:url(#linear8);" d="M 13.75 20 L 21.25 20 L 21.25 22.5 L 13.75 22.5 Z "/>
</g>
</svg>
