<svg xmlns="http://www.w3.org/2000/svg" viewBox="0 0 64 64" width="96px" height="96px"><linearGradient id="r6aF76sThYJjByxe12PMJa" x1="26.5" x2="26.5" y1="16.5" y2="26.237" gradientUnits="userSpaceOnUse"><stop offset="0" stop-color="#6dc7ff"/><stop offset="1" stop-color="#e6abff"/></linearGradient><path fill="url(#r6aF76sThYJjByxe12PMJa)" d="M32.832,25H20.168C19.523,25,19,24.477,19,23.832v-5.665C19,17.523,19.523,17,20.168,17	h12.665C33.477,17,34,17.523,34,18.168v5.665C34,24.477,33.477,25,32.832,25z"/><linearGradient id="r6aF76sThYJjByxe12PMJb" x1="32" x2="32" y1="9.553" y2="54.562" gradientUnits="userSpaceOnUse"><stop offset="0" stop-color="#1a6dff"/><stop offset="1" stop-color="#c822ff"/></linearGradient><path fill="url(#r6aF76sThYJjByxe12PMJb)" d="M49,9H15c-2.758,0-5,2.242-5,4.996v28C10,44.754,12.242,47,15,47h15c0.551,0,1,0.445,1,0.996 v4.102c0,1.133,0.656,2.137,1.719,2.617c0.422,0.191,0.863,0.289,1.301,0.289c0.719,0,1.426-0.258,1.996-0.754l8.074-7.008 C44.273,47.086,44.508,47,44.746,47H49c2.758,0,5-2.246,5-5.004v-28C54,11.242,51.758,9,49,9z M52,41.996 C52,43.652,50.652,45,49,45h-4.254c-0.723,0-1.422,0.262-1.969,0.734l-8.074,7.008c-0.383,0.328-0.848,0.293-1.156,0.152 C33.383,52.82,33,52.594,33,52.098v-4.102C33,46.344,31.652,45,30,45H15c-1.652,0-3-1.348-3-3.004v-28C12,12.344,13.348,11,15,11 h34c1.652,0,3,1.344,3,2.996V41.996z"/><linearGradient id="r6aF76sThYJjByxe12PMJc" x1="32" x2="32" y1="9.553" y2="54.562" gradientUnits="userSpaceOnUse"><stop offset="0" stop-color="#1a6dff"/><stop offset="1" stop-color="#c822ff"/></linearGradient><rect width="26" height="2" x="19" y="29" fill="url(#r6aF76sThYJjByxe12PMJc)"/><linearGradient id="r6aF76sThYJjByxe12PMJd" x1="28.5" x2="28.5" y1="9.553" y2="54.562" gradientUnits="userSpaceOnUse"><stop offset="0" stop-color="#1a6dff"/><stop offset="1" stop-color="#c822ff"/></linearGradient><rect width="19" height="2" x="19" y="33" fill="url(#r6aF76sThYJjByxe12PMJd)"/><linearGradient id="r6aF76sThYJjByxe12PMJe" x1="32" x2="32" y1="9.553" y2="54.562" gradientUnits="userSpaceOnUse"><stop offset="0" stop-color="#1a6dff"/><stop offset="1" stop-color="#c822ff"/></linearGradient><rect width="26" height="2" x="19" y="37" fill="url(#r6aF76sThYJjByxe12PMJe)"/></svg>