<?xml version="1.0" encoding="iso-8859-1"?>
<!-- Generator: Adobe Illustrator 20.1.0, SVG Export Plug-In . SVG Version: 6.00 Build 0)  -->
<svg xmlns="http://www.w3.org/2000/svg" xmlns:xlink="http://www.w3.org/1999/xlink" version="1.1" id="&#1057;&#1083;&#1086;&#1081;_1" x="0px" y="0px" viewBox="0 0 64 64" style="enable-background:new 0 0 64 64;" xml:space="preserve" width="96px" height="96px">
<linearGradient id="SVGID_1__48266" gradientUnits="userSpaceOnUse" x1="32" y1="5.3331" x2="32" y2="59.1757" spreadMethod="reflect">
	<stop offset="0" style="stop-color:#1A6DFF"/>
	<stop offset="1" style="stop-color:#C822FF"/>
</linearGradient>
<path style="fill:url(#SVGID_1__48266);" d="M57.402,30.556l-2.959-2.959c-0.796-0.795-2.09-0.795-2.886,0l-2.96,2.96  C48.463,30.691,48.361,31,48.272,31h-7.137c-0.128,0-0.323-0.704-0.594-1.005l-2.404-2.671L42.46,23H47v-2h-4v-4h-2v4.632  l-4.203,4.203l-2.569-2.854C33.893,22.609,33,22.361,33,22.208v-6.48c0-0.089,0.309-0.192,0.443-0.326l2.96-2.96  c0.793-0.795,0.793-2.09-0.001-2.886l-2.959-2.959c-0.796-0.795-2.09-0.795-2.886,0l-2.96,2.96c-0.793,0.795-0.793,2.09,0.001,2.886  l2.959,2.959C30.691,15.536,31,15.639,31,15.728v6.48c0,0.152-0.893,0.401-1.228,0.772l-2.525,2.806L23,21.539V17h-2v4h-4v2h4.632  l4.275,4.275l-2.448,2.72C23.188,30.296,22.993,31,22.865,31h-7.137c-0.089,0-0.192-0.309-0.325-0.443l-2.959-2.959  c-0.796-0.795-2.09-0.795-2.886,0l-2.96,2.96c-0.793,0.795-0.793,2.09,0.001,2.886l2.959,2.959c0.398,0.397,0.92,0.597,1.443,0.597  s1.045-0.199,1.443-0.597l2.96-2.96C15.537,33.308,15.639,33,15.728,33h7.137c0.128,0,0.323,0.703,0.594,1.005l1.955,2.173L20.63,41  H16v2h4v4h2v-4.541l4.755-4.792l3.017,3.353C30.108,41.392,31,41.657,31,41.823v6.45c0,0.088-0.309,0.191-0.443,0.325l-2.96,2.96  c-0.793,0.795-0.793,2.09,0.001,2.886l2.959,2.959c0.398,0.397,0.92,0.597,1.443,0.597s1.045-0.199,1.443-0.597l2.96-2.96  c0.793-0.795,0.793-2.09-0.001-2.886l-2.959-2.959C33.309,48.464,33,48.361,33,48.272v-6.45c0-0.166,0.892-0.43,1.228-0.803  l3.024-3.36L42,42.371V47h2v-4h4v-2h-4.541l-4.867-4.83l1.949-2.165C40.812,33.704,41.007,33,41.135,33h7.137  c0.089,0,0.192,0.309,0.325,0.443l2.959,2.959c0.398,0.397,0.92,0.597,1.443,0.597s1.045-0.199,1.443-0.597l2.96-2.96  C58.197,32.647,58.197,31.352,57.402,30.556z M29.012,10.97l3.017-2.959l2.958,2.958c0.017,0.017,0.017,0.043,0,0.06l-3.017,2.959  L29.012,10.97z M10.971,34.988L8.012,31.97l3.017-2.959l2.958,2.958c0.017,0.017,0.017,0.043,0,0.06L10.971,34.988z M34.987,52.969  c0.017,0.017,0.017,0.043,0,0.06l-3.017,2.959l-2.959-3.018l3.017-2.959L34.987,52.969z M39.054,32.667l-6.313,7.015  c-0.383,0.426-1.101,0.426-1.483,0l-6.313-7.015c-0.342-0.38-0.342-0.954,0-1.334l6.313-7.015c0.191-0.213,0.455-0.329,0.742-0.329  s0.55,0.116,0.742,0.329l6.313,7.015C39.396,31.713,39.396,32.287,39.054,32.667z M52.971,34.988l-2.959-3.018l3.017-2.959  l2.958,2.958c0.017,0.017,0.017,0.043,0,0.06L52.971,34.988z"/>
<linearGradient id="SVGID_2__48266" gradientUnits="userSpaceOnUse" x1="32" y1="25.9998" x2="32" y2="38.5098" spreadMethod="reflect">
	<stop offset="0" style="stop-color:#6DC7FF"/>
	<stop offset="1" style="stop-color:#E6ABFF"/>
</linearGradient>
<path style="fill:url(#SVGID_2__48266);" d="M36.627,32.781l-3.746,4.162c-0.471,0.523-1.291,0.523-1.762,0l-3.746-4.162  c-0.406-0.451-0.406-1.135,0-1.586l3.746-4.162c0.471-0.523,1.291-0.523,1.762,0l3.746,4.162  C37.033,31.646,37.033,32.33,36.627,32.781z"/>
</svg>
