<?xml version="1.0" encoding="utf-8"?>
<!-- Generator: Adobe Illustrator 21.1.0, SVG Export Plug-In . SVG Version: 6.00 Build 0)  -->
<svg xmlns="http://www.w3.org/2000/svg" xmlns:xlink="http://www.w3.org/1999/xlink" version="1.1" id="Layer_1" x="0px" y="0px" viewBox="0 0 128 128" style="enable-background:new 0 0 128 128;" xml:space="preserve" width="64px" height="64px">

<g>
	<g>
	</g>
</g>
<g>
	<path d="M86,9H32c-5.5,0-10,4.5-10,10v90c0,5.5,4.5,10,10,10h64c5.5,0,10-4.5,10-10V29C106,18,97,9,86,9z" style="fill:#FFFFFF;"/>
</g>
<g>
	<path d="M55,62H42c-1.7,0-3-1.3-3-3s1.3-3,3-3h13c1.7,0,3,1.3,3,3S56.7,62,55,62z" style="fill:#E9EEF4;"/>
</g>
<g>
	<path d="M65,62c-0.2,0-0.4,0-0.6-0.1c-0.2,0-0.4-0.1-0.6-0.2c-0.2-0.1-0.3-0.2-0.5-0.3c-0.2-0.1-0.3-0.2-0.4-0.4   c-0.1-0.1-0.3-0.3-0.4-0.5c-0.1-0.2-0.2-0.3-0.3-0.5c-0.1-0.2-0.1-0.4-0.2-0.6c0-0.2-0.1-0.4-0.1-0.6c0-0.8,0.3-1.6,0.9-2.1   c0.1-0.1,0.3-0.3,0.4-0.4c0.2-0.1,0.3-0.2,0.5-0.3c0.2-0.1,0.4-0.1,0.6-0.2c1-0.2,2,0.1,2.7,0.8c0.6,0.6,0.9,1.3,0.9,2.1   c0,0.2,0,0.4-0.1,0.6c0,0.2-0.1,0.4-0.2,0.6s-0.2,0.4-0.3,0.5c-0.1,0.2-0.2,0.3-0.4,0.5C66.6,61.7,65.8,62,65,62z" style="fill:#FF5576;"/>
</g>
<g>
	<path d="M86,77H65c-1.7,0-3-1.3-3-3s1.3-3,3-3h21c1.7,0,3,1.3,3,3S87.7,77,86,77z" style="fill:#E9EEF4;"/>
</g>
<g>
	<path d="M86,62H75c-1.7,0-3-1.3-3-3s1.3-3,3-3h11c1.7,0,3,1.3,3,3S87.7,62,86,62z" style="fill:#E9EEF4;"/>
</g>
<g>
	<path d="M45,77h-3c-1.7,0-3-1.3-3-3s1.3-3,3-3h3c1.7,0,3,1.3,3,3S46.7,77,45,77z" style="fill:#E9EEF4;"/>
</g>
<g>
	<path d="M76.2,92h-34c-1.7,0-3-1.3-3-3s1.3-3,3-3h34c1.7,0,3,1.3,3,3S77.9,92,76.2,92z" style="fill:#E9EEF4;"/>
</g>
<g>
	<path d="M55,77c-0.8,0-1.6-0.3-2.1-0.9c-0.1-0.1-0.3-0.3-0.4-0.4c-0.1-0.2-0.2-0.3-0.3-0.5c-0.1-0.2-0.1-0.4-0.2-0.6   c0-0.2-0.1-0.4-0.1-0.6c0-0.8,0.3-1.6,0.9-2.1c0.7-0.7,1.7-1,2.7-0.8c0.2,0,0.4,0.1,0.6,0.2c0.2,0.1,0.4,0.2,0.5,0.3   c0.2,0.1,0.3,0.2,0.4,0.4c0.6,0.6,0.9,1.3,0.9,2.1s-0.3,1.6-0.9,2.1c-0.1,0.1-0.3,0.3-0.4,0.4c-0.2,0.1-0.3,0.2-0.5,0.3   c-0.2,0.1-0.4,0.1-0.6,0.2C55.4,77,55.2,77,55,77z" style="fill:#FF5576;"/>
</g>
<g>
	<path d="M86,92c-0.8,0-1.6-0.3-2.1-0.9c-0.1-0.1-0.3-0.3-0.4-0.5c-0.1-0.2-0.2-0.3-0.3-0.5c-0.1-0.2-0.1-0.4-0.2-0.6   c0-0.2-0.1-0.4-0.1-0.6c0-0.8,0.3-1.6,0.9-2.1c0.7-0.7,1.7-1,2.7-0.8c0.2,0,0.4,0.1,0.6,0.2c0.2,0.1,0.4,0.2,0.5,0.3   c0.2,0.1,0.3,0.2,0.5,0.4c0.6,0.6,0.9,1.3,0.9,2.1c0,0.2,0,0.4-0.1,0.6c0,0.2-0.1,0.4-0.2,0.6s-0.2,0.4-0.3,0.5   c-0.1,0.2-0.2,0.3-0.4,0.5c-0.1,0.1-0.3,0.3-0.5,0.4c-0.2,0.1-0.3,0.2-0.5,0.3c-0.2,0.1-0.4,0.1-0.6,0.2C86.4,92,86.2,92,86,92z" style="fill:#FF5576;"/>
</g>
<g>
	<path d="M106,29H96c-5.5,0-10-4.5-10-10V9h0C97,9,106,18,106,29L106,29z" style="fill:#FFFFFF;"/>
</g>
<path d="M96,32h9.6c0.1,0,0.2,0,0.4,0c0,0,0,0,0,0c1.2,0,2.3-0.8,2.8-1.8c0.2-0.4,0.3-0.8,0.3-1.2c0-0.1,0-0.3,0-0.4  c-0.1-6-2.5-11.6-6.7-15.9C97.9,8.4,92.2,6,86,6c0,0,0,0,0,0H32c-7.2,0-13,5.8-13,13v90c0,7.3,5.9,13,11,13h63.8c8.7,0,15-5.5,15-13  l0.1-67c0-1.7-1.3-3-3-3c0,0,0,0,0,0c-1.7,0-3,1.3-3,3l-0.1,67c0,4.2-3.6,7-9,7H30c-1.7,0-5-3-5-7V19c0-3.9,3.1-7,7-7h51v7  C83,26.2,88.8,32,96,32z M102.7,26H96c-3.9,0-7-3.1-7-7v-6.7c3.4,0.6,6.5,2.2,9,4.7C100.5,19.5,102.1,22.6,102.7,26z" style="fill:#444B54;"/>
</svg>
