<?xml version="1.0" encoding="UTF-8"?>
<svg xmlns="http://www.w3.org/2000/svg" xmlns:xlink="http://www.w3.org/1999/xlink" width="80pt" height="80pt" viewBox="0 0 80 80" version="1.1">
<defs>
<linearGradient id="linear0" gradientUnits="userSpaceOnUse" x1="32" y1="4.6686" x2="32" y2="58.1697" spreadMethod="reflect" gradientTransform="matrix(1.25,0,0,1.25,0,0)">
<stop offset="0" style="stop-color:#1A6DFF;stop-opacity:1;"/>
<stop offset="1" style="stop-color:#C822FF;stop-opacity:1;"/>
</linearGradient>
<linearGradient id="linear1" gradientUnits="userSpaceOnUse" x1="32" y1="16.3353" x2="32" y2="47.0024" spreadMethod="reflect" gradientTransform="matrix(1.25,0,0,1.25,0,0)">
<stop offset="0" style="stop-color:#6DC7FF;stop-opacity:1;"/>
<stop offset="1" style="stop-color:#E6ABFF;stop-opacity:1;"/>
</linearGradient>
</defs>
<g id="surface1">
<path style=" stroke:none;fill-rule:nonzero;fill:url(#linear0);" d="M 67.371094 72.496094 C 66.796875 72.496094 66.214844 72.367188 65.667969 72.097656 L 41.71875 60.269531 C 40.628906 59.730469 39.375 59.730469 38.28125 60.269531 L 14.332031 72.097656 C 12.867188 72.820313 11.15625 72.550781 9.976563 71.410156 C 8.75 70.226563 8.410156 68.453125 9.113281 66.886719 L 34.097656 11.375 C 35.171875 8.984375 37.433594 7.503906 40.003906 7.503906 C 42.570313 7.503906 44.832031 8.984375 45.910156 11.375 L 70.890625 66.886719 C 71.59375 68.453125 71.253906 70.226563 70.027344 71.410156 C 69.285156 72.125 68.335938 72.496094 67.371094 72.496094 Z M 66.773438 69.855469 C 67.546875 70.242188 68.128906 69.765625 68.289063 69.613281 C 68.652344 69.261719 68.929688 68.628906 68.605469 67.914063 L 43.625 12.398438 C 42.949219 10.898438 41.59375 10.003906 40 10.003906 C 38.40625 10.003906 37.050781 10.898438 36.375 12.398438 L 11.394531 67.910156 C 11.070313 68.628906 11.347656 69.261719 11.710938 69.609375 C 11.871094 69.765625 12.453125 70.238281 13.226563 69.855469 L 37.171875 58.027344 C 38.972656 57.140625 41.03125 57.140625 42.828125 58.027344 Z "/>
<path style=" stroke:none;fill-rule:nonzero;fill:url(#linear1);" d="M 55.734375 58.585938 L 41.363281 51.488281 C 40.5 51.0625 39.5 51.0625 38.636719 51.488281 L 24.265625 58.585938 C 22.933594 59.246094 21.53125 57.824219 22.152344 56.441406 L 37.140625 23.132813 C 38.269531 20.625 41.734375 20.625 42.859375 23.132813 L 57.847656 56.441406 C 58.46875 57.824219 57.066406 59.246094 55.734375 58.585938 Z "/>
</g>
</svg>
