<svg xmlns="http://www.w3.org/2000/svg" viewBox="0 0 48 48" width="96px" height="96px"><path fill="#616161" d="M28.667,29H8.333C7.045,29,6,27.955,6,26.667V6.333C6,5.045,7.045,4,8.333,4h20.333C29.955,4,31,5.045,31,6.333v20.333C31,27.955,29.955,29,28.667,29z"/><path fill="#424242" d="M25,29V13c-2.2,0-4,1.8-4,4v12H25z"/><path fill="#e0e0e0" d="M13 12h-3c-.55 0-1-.45-1-1V8c0-.55.45-1 1-1h3c.55 0 1 .45 1 1v3C14 11.55 13.55 12 13 12zM20 12h-3c-.55 0-1-.45-1-1V8c0-.55.45-1 1-1h3c.55 0 1 .45 1 1v3C21 11.55 20.55 12 20 12zM27 12h-3c-.55 0-1-.45-1-1V8c0-.55.45-1 1-1h3c.55 0 1 .45 1 1v3C28 11.55 27.55 12 27 12zM13 19h-3c-.55 0-1-.45-1-1v-3c0-.55.45-1 1-1h3c.55 0 1 .45 1 1v3C14 18.55 13.55 19 13 19zM20 19h-3c-.55 0-1-.45-1-1v-3c0-.55.45-1 1-1h3c.55 0 1 .45 1 1v3C21 18.55 20.55 19 20 19zM13 26h-3c-.55 0-1-.45-1-1v-3c0-.55.45-1 1-1h3c.55 0 1 .45 1 1v3C14 25.55 13.55 26 13 26zM20 26h-3c-.55 0-1-.45-1-1v-3c0-.55.45-1 1-1h3c.55 0 1 .45 1 1v3C21 25.55 20.55 26 20 26z"/><path fill="#ffcc80" d="M37,28v-2H26l-3,2c0,0-2.268,1.422-3.286,2.67c-0.906,1.021-1.021,2.303,0,3.666C19.714,34.336,24,44,29,44h7.128c3.743,0,6.862-3.035,6.862-6.775c0,0,0.01-4.811,0.01-9.225H37z"/><path fill="#ffcc80" d="M23 31.75c0 1.336 1.127 2.43 2.5 2.43 1.378 0 2.5-1.094 2.5-2.43l-.01-16.324c0-1.332-1.112-2.426-2.49-2.426-1.373 0-2.5 1.094-2.5 2.426V31.75zM28 33.93c0 1.336 1.127 2.43 2.5 2.43 1.378 0 2.5-1.094 2.5-2.43v-8.324c0-1.332-1.122-2.426-2.5-2.426-1.373 0-2.5 1.094-2.5 2.426V33.93zM33 33.93c0 1.336 1.127 2.43 2.5 2.43 1.378 0 2.5-1.094 2.5-2.43v-8.324c0-1.332-1.122-2.426-2.5-2.426-1.373 0-2.5 1.094-2.5 2.426V33.93z"/><path fill="#ffcc80" d="M37.99,34.93c0,1.336,1.127,2.43,2.5,2.43c1.378,0,2.5-1.094,2.5-2.43v-8.324c0-1.332-1.122-2.426-2.5-2.426c-1.373,0-2.5,1.094-2.5,2.426V34.93z"/><path fill="#ffebee" d="M24,15.578c0.01-0.781,0.685-1.408,1.516-1.398c0.827,0.008,1.492,0.65,1.484,1.428C26.988,16.391,23.991,16.359,24,15.578"/><path fill="#f2a25a" d="M20.976,29.463C21.963,28.654,23,28,23,28v6.18L20.976,29.463z"/></svg>