<?xml version="1.0" encoding="UTF-8"?>
<svg xmlns="http://www.w3.org/2000/svg" xmlns:xlink="http://www.w3.org/1999/xlink" width="80pt" height="80pt" viewBox="0 0 80 80" version="1.1">
<defs>
<linearGradient id="linear0" gradientUnits="userSpaceOnUse" x1="19" y1="41.625" x2="19" y2="48.5182" spreadMethod="reflect" gradientTransform="matrix(1.25,0,0,1.25,0,0)">
<stop offset="0" style="stop-color:#6DC7FF;stop-opacity:1;"/>
<stop offset="1" style="stop-color:#E6ABFF;stop-opacity:1;"/>
</linearGradient>
<linearGradient id="linear1" gradientUnits="userSpaceOnUse" x1="45" y1="15.625" x2="45" y2="22.6261" spreadMethod="reflect" gradientTransform="matrix(1.25,0,0,1.25,0,0)">
<stop offset="0" style="stop-color:#6DC7FF;stop-opacity:1;"/>
<stop offset="1" style="stop-color:#E6ABFF;stop-opacity:1;"/>
</linearGradient>
<linearGradient id="linear2" gradientUnits="userSpaceOnUse" x1="19" y1="8" x2="19" y2="57.2906" spreadMethod="reflect" gradientTransform="matrix(1.25,0,0,1.25,0,0)">
<stop offset="0" style="stop-color:#1A6DFF;stop-opacity:1;"/>
<stop offset="1" style="stop-color:#C822FF;stop-opacity:1;"/>
</linearGradient>
<linearGradient id="linear3" gradientUnits="userSpaceOnUse" x1="19" y1="8" x2="19" y2="57.2906" spreadMethod="reflect" gradientTransform="matrix(1.25,0,0,1.25,0,0)">
<stop offset="0" style="stop-color:#1A6DFF;stop-opacity:1;"/>
<stop offset="1" style="stop-color:#C822FF;stop-opacity:1;"/>
</linearGradient>
<linearGradient id="linear4" gradientUnits="userSpaceOnUse" x1="45" y1="8" x2="45" y2="57.2906" spreadMethod="reflect" gradientTransform="matrix(1.25,0,0,1.25,0,0)">
<stop offset="0" style="stop-color:#1A6DFF;stop-opacity:1;"/>
<stop offset="1" style="stop-color:#C822FF;stop-opacity:1;"/>
</linearGradient>
<linearGradient id="linear5" gradientUnits="userSpaceOnUse" x1="45" y1="8" x2="45" y2="57.2906" spreadMethod="reflect" gradientTransform="matrix(1.25,0,0,1.25,0,0)">
<stop offset="0" style="stop-color:#1A6DFF;stop-opacity:1;"/>
<stop offset="1" style="stop-color:#C822FF;stop-opacity:1;"/>
</linearGradient>
<linearGradient id="linear6" gradientUnits="userSpaceOnUse" x1="45" y1="8" x2="45" y2="57.2906" spreadMethod="reflect" gradientTransform="matrix(1.25,0,0,1.25,0,0)">
<stop offset="0" style="stop-color:#1A6DFF;stop-opacity:1;"/>
<stop offset="1" style="stop-color:#C822FF;stop-opacity:1;"/>
</linearGradient>
<linearGradient id="linear7" gradientUnits="userSpaceOnUse" x1="45" y1="8" x2="45" y2="57.2906" spreadMethod="reflect" gradientTransform="matrix(1.25,0,0,1.25,0,0)">
<stop offset="0" style="stop-color:#1A6DFF;stop-opacity:1;"/>
<stop offset="1" style="stop-color:#C822FF;stop-opacity:1;"/>
</linearGradient>
<linearGradient id="linear8" gradientUnits="userSpaceOnUse" x1="19" y1="8" x2="19" y2="57.2906" spreadMethod="reflect" gradientTransform="matrix(1.25,0,0,1.25,0,0)">
<stop offset="0" style="stop-color:#1A6DFF;stop-opacity:1;"/>
<stop offset="1" style="stop-color:#C822FF;stop-opacity:1;"/>
</linearGradient>
<linearGradient id="linear9" gradientUnits="userSpaceOnUse" x1="19" y1="8" x2="19" y2="57.2906" spreadMethod="reflect" gradientTransform="matrix(1.25,0,0,1.25,0,0)">
<stop offset="0" style="stop-color:#1A6DFF;stop-opacity:1;"/>
<stop offset="1" style="stop-color:#C822FF;stop-opacity:1;"/>
</linearGradient>
</defs>
<g id="surface1">
<path style=" stroke:none;fill-rule:nonzero;fill:url(#linear0);" d="M 27.5 56.25 C 27.5 58.320313 25.820313 60 23.75 60 C 21.679688 60 20 58.320313 20 56.25 C 20 54.179688 21.679688 52.5 23.75 52.5 C 25.820313 52.5 27.5 54.179688 27.5 56.25 Z "/>
<path style=" stroke:none;fill-rule:nonzero;fill:url(#linear1);" d="M 60 26.25 C 60 26.941406 59.441406 27.5 58.75 27.5 L 53.75 27.5 C 53.058594 27.5 52.5 26.941406 52.5 26.25 L 52.5 21.25 C 52.5 20.558594 53.058594 20 53.75 20 L 58.75 20 C 59.441406 20 60 20.558594 60 21.25 Z "/>
<path style=" stroke:none;fill-rule:nonzero;fill:url(#linear2);" d="M 33.75 10 L 13.75 10 C 11.683594 10 10 11.683594 10 13.75 L 10 33.75 C 10 35.816406 11.683594 37.5 13.75 37.5 L 33.75 37.5 C 35.816406 37.5 37.5 35.816406 37.5 33.75 L 37.5 13.75 C 37.5 11.683594 35.816406 10 33.75 10 Z M 35 33.75 C 35 34.441406 34.4375 35 33.75 35 L 13.75 35 C 13.0625 35 12.5 34.441406 12.5 33.75 L 12.5 13.75 C 12.5 13.058594 13.0625 12.5 13.75 12.5 L 33.75 12.5 C 34.4375 12.5 35 13.058594 35 13.75 Z "/>
<path style=" stroke:none;fill-rule:nonzero;fill:url(#linear3);" d="M 33.75 42.5 L 13.75 42.5 C 11.683594 42.5 10 44.183594 10 46.25 L 10 66.25 C 10 68.316406 11.683594 70 13.75 70 L 33.75 70 C 35.816406 70 37.5 68.316406 37.5 66.25 L 37.5 46.25 C 37.5 44.183594 35.816406 42.5 33.75 42.5 Z M 35 66.25 C 35 66.941406 34.4375 67.5 33.75 67.5 L 13.75 67.5 C 13.0625 67.5 12.5 66.941406 12.5 66.25 L 12.5 46.25 C 12.5 45.558594 13.0625 45 13.75 45 L 33.75 45 C 34.4375 45 35 45.558594 35 46.25 Z "/>
<path style=" stroke:none;fill-rule:nonzero;fill:url(#linear4);" d="M 66.25 10 L 46.25 10 C 44.183594 10 42.5 11.683594 42.5 13.75 L 42.5 33.75 C 42.5 35.816406 44.183594 37.5 46.25 37.5 L 66.25 37.5 C 68.316406 37.5 70 35.816406 70 33.75 L 70 13.75 C 70 11.683594 68.316406 10 66.25 10 Z M 67.5 33.75 C 67.5 34.441406 66.9375 35 66.25 35 L 46.25 35 C 45.5625 35 45 34.441406 45 33.75 L 45 13.75 C 45 13.058594 45.5625 12.5 46.25 12.5 L 66.25 12.5 C 66.9375 12.5 67.5 13.058594 67.5 13.75 Z "/>
<path style=" stroke:none;fill-rule:nonzero;fill:url(#linear5);" d="M 66.25 42.5 L 46.25 42.5 C 44.183594 42.5 42.5 44.183594 42.5 46.25 L 42.5 66.25 C 42.5 68.316406 44.183594 70 46.25 70 L 66.25 70 C 68.316406 70 70 68.316406 70 66.25 L 70 46.25 C 70 44.183594 68.316406 42.5 66.25 42.5 Z M 67.5 66.25 C 67.5 66.941406 66.9375 67.5 66.25 67.5 L 46.25 67.5 C 45.5625 67.5 45 66.941406 45 66.25 L 45 46.25 C 45 45.558594 45.5625 45 46.25 45 L 66.25 45 C 66.9375 45 67.5 45.558594 67.5 46.25 Z "/>
<path style=" stroke:none;fill-rule:nonzero;fill:url(#linear6);" d="M 62.5 15 L 50 15 C 48.621094 15 47.5 16.121094 47.5 17.5 L 47.5 30 C 47.5 31.378906 48.621094 32.5 50 32.5 L 62.5 32.5 C 63.878906 32.5 65 31.378906 65 30 L 65 17.5 C 65 16.121094 63.878906 15 62.5 15 Z M 62.5 30 L 50 30 L 50 17.5 L 62.5 17.5 Z "/>
<path style=" stroke:none;fill-rule:nonzero;fill:url(#linear7);" d="M 62.5 47.5 L 50 47.5 C 48.621094 47.5 47.5 48.621094 47.5 50 L 47.5 62.5 C 47.5 63.878906 48.621094 65 50 65 L 62.5 65 C 63.878906 65 65 63.878906 65 62.5 L 65 50 C 65 48.621094 63.878906 47.5 62.5 47.5 Z M 62.5 50 L 62.5 52.5 L 50 52.5 L 50 50 Z M 50 62.5 L 50 55 L 62.5 55 L 62.5 62.5 Z "/>
<path style=" stroke:none;fill-rule:nonzero;fill:url(#linear8);" d="M 30 47.5 L 17.5 47.5 C 16.121094 47.5 15 48.621094 15 50 L 15 62.5 C 15 63.878906 16.121094 65 17.5 65 L 30 65 C 31.378906 65 32.5 63.878906 32.5 62.5 L 32.5 50 C 32.5 48.621094 31.378906 47.5 30 47.5 Z M 30 62.5 L 17.5 62.5 L 17.5 50 L 30 50 Z "/>
<path style=" stroke:none;fill-rule:nonzero;fill:url(#linear9);" d="M 30 15 L 17.5 15 C 16.121094 15 15 16.121094 15 17.5 L 15 30 C 15 31.378906 16.121094 32.5 17.5 32.5 L 30 32.5 C 31.378906 32.5 32.5 31.378906 32.5 30 L 32.5 17.5 C 32.5 16.121094 31.378906 15 30 15 Z M 30 17.5 L 30 20 L 17.5 20 L 17.5 17.5 Z M 30 22.5 L 30 25 L 17.5 25 L 17.5 22.5 Z M 17.5 30 L 17.5 27.5 L 30 27.5 L 30 30 Z "/>
</g>
</svg>
