<svg xmlns="http://www.w3.org/2000/svg" viewBox="0 0 128 128" width="64px" height="64px"><path fill="#FFF" d="M51.8,90.9L51.8,90.9C54.5,87.3,56,82.8,56,78c0-12.2-9.8-22-22-22s-22,9.8-22,22c0,4.8,1.5,9.3,4.2,12.9l0,0h0c0.1,0.2,0.2,0.3,0.3,0.5L34,115l17.5-23.7C51.6,91.2,51.7,91.1,51.8,90.9L51.8,90.9z"/><path fill="#454B54" d="M34,118L34,118c-1,0-1.8-0.5-2.4-1.2L14.1,93.1c-0.1-0.1-0.2-0.3-0.4-0.5C10.6,88.4,9,83.3,9,78c0-13.8,11.2-25,25-25s25,11.2,25,25c0,5.3-1.6,10.3-4.7,14.5c0,0-0.1,0.1-0.1,0.1l-0.3,0.4l-17.5,23.7C35.8,117.5,35,118,34,118z M34,59c-10.5,0-19,8.5-19,19c0,4,1.2,7.9,3.6,11.1c0.1,0.1,0.2,0.3,0.3,0.4L34,110l15.3-20.8c0,0,0,0,0-0.1C51.8,85.9,53,82,53,78C53,67.5,44.5,59,34,59z"/><path fill="#AA8F9D" d="M84.3,35C82.8,33,82,30.5,82,28c0-6.6,5.4-12,12-12s12,5.4,12,12c0,2.5-0.8,5-2.3,7L94,48.2L84.3,35z"/><path fill="#454B54" d="M94 51.2c-1 0-1.8-.5-2.4-1.2l-9.7-13.2C80 34.2 79 31.2 79 28c0-8.3 6.7-15 15-15s15 6.7 15 15c0 3.2-1 6.2-2.8 8.8L96.4 50C95.8 50.7 95 51.2 94 51.2zM94 19c-5 0-9 4-9 9 0 1.9.6 3.7 1.7 5.3l7.3 9.9 7.3-9.9c1.1-1.5 1.7-3.3 1.7-5.2C103 23 99 19 94 19zM108 118h-1c-1.7 0-3-1.3-3-3 0 0 0 0 0-.1-.6-1.2-.4-2.7.6-3.6 1.2-1.1 3.1-1 4.2.2l1.4 1.5c.8.9 1 2.1.5 3.2C110.3 117.3 109.2 118 108 118zM95 118h-3c-1.7 0-3-1.3-3-3s1.3-3 3-3h3c1.7 0 3 1.3 3 3S96.7 118 95 118zM80 118h-3c-1.7 0-3-1.3-3-3s1.3-3 3-3h3c1.7 0 3 1.3 3 3S81.7 118 80 118zM65 118h-3c-1.7 0-3-1.3-3-3s1.3-3 3-3h3c1.7 0 3 1.3 3 3S66.7 118 65 118zM50 118h-3c-1.7 0-3-1.3-3-3s1.3-3 3-3h3c1.7 0 3 1.3 3 3S51.7 118 50 118zM98.5 107.7c-.8 0-1.6-.3-2.2-1l-2-2.2c-1.1-1.2-1-3.1.2-4.2 1.2-1.1 3.1-1 4.2.2l2 2.2c1.1 1.2 1 3.1-.2 4.2C100 107.4 99.2 107.7 98.5 107.7zM88.4 96.7c-.8 0-1.6-.3-2.2-1l-2-2.2c-1.1-1.2-1-3.1.2-4.2 1.2-1.1 3.1-1 4.2.2l2 2.2c1.1 1.2 1 3.1-.2 4.2C89.8 96.4 89.1 96.7 88.4 96.7zM78.2 85.6c-.8 0-1.6-.3-2.2-1l-2-2.2c-1.1-1.2-1-3.1.2-4.2 1.2-1.1 3.1-1 4.2.2l2 2.2c1.1 1.2 1 3.1-.2 4.2C79.7 85.4 78.9 85.6 78.2 85.6zM77.7 74.1c-.6 0-1.3-.2-1.8-.6-1.3-1-1.6-2.9-.6-4.2l1.8-2.4c1-1.3 2.9-1.6 4.2-.6 1.3 1 1.6 2.9.6 4.2l-1.8 2.4C79.5 73.7 78.6 74.1 77.7 74.1zM86.7 62.1c-.6 0-1.3-.2-1.8-.6-1.3-1-1.6-2.9-.6-4.2l1.8-2.4c1-1.3 2.9-1.6 4.2-.6 1.3 1 1.6 2.9.6 4.2l-1.8 2.4C88.5 61.7 87.6 62.1 86.7 62.1z"/><g><path fill="#F48884" d="M34 68A10 10 0 1 0 34 88A10 10 0 1 0 34 68Z"/></g></svg>