<?xml version="1.0" encoding="UTF-8"?>
<svg xmlns="http://www.w3.org/2000/svg" xmlns:xlink="http://www.w3.org/1999/xlink" width="80pt" height="80pt" viewBox="0 0 80 80" version="1.1">
<defs>
<linearGradient id="linear0" gradientUnits="userSpaceOnUse" x1="47" y1="40.1667" x2="47" y2="47.5019" spreadMethod="reflect" gradientTransform="matrix(1.25,0,0,1.25,0,0)">
<stop offset="0" style="stop-color:#6DC7FF;stop-opacity:1;"/>
<stop offset="1" style="stop-color:#E6ABFF;stop-opacity:1;"/>
</linearGradient>
<linearGradient id="linear1" gradientUnits="userSpaceOnUse" x1="27" y1="8.375" x2="27" y2="53.7502" spreadMethod="reflect" gradientTransform="matrix(1.25,0,0,1.25,0,0)">
<stop offset="0" style="stop-color:#1A6DFF;stop-opacity:1;"/>
<stop offset="1" style="stop-color:#C822FF;stop-opacity:1;"/>
</linearGradient>
<linearGradient id="linear2" gradientUnits="userSpaceOnUse" x1="47" y1="8.375" x2="47" y2="53.7502" spreadMethod="reflect" gradientTransform="matrix(1.25,0,0,1.25,0,0)">
<stop offset="0" style="stop-color:#1A6DFF;stop-opacity:1;"/>
<stop offset="1" style="stop-color:#C822FF;stop-opacity:1;"/>
</linearGradient>
<linearGradient id="linear3" gradientUnits="userSpaceOnUse" x1="47" y1="8.375" x2="47" y2="53.7502" spreadMethod="reflect" gradientTransform="matrix(1.25,0,0,1.25,0,0)">
<stop offset="0" style="stop-color:#1A6DFF;stop-opacity:1;"/>
<stop offset="1" style="stop-color:#C822FF;stop-opacity:1;"/>
</linearGradient>
<linearGradient id="linear4" gradientUnits="userSpaceOnUse" x1="27" y1="8.375" x2="27" y2="53.7502" spreadMethod="reflect" gradientTransform="matrix(1.25,0,0,1.25,0,0)">
<stop offset="0" style="stop-color:#1A6DFF;stop-opacity:1;"/>
<stop offset="1" style="stop-color:#C822FF;stop-opacity:1;"/>
</linearGradient>
<linearGradient id="linear5" gradientUnits="userSpaceOnUse" x1="27" y1="8.375" x2="27" y2="53.7502" spreadMethod="reflect" gradientTransform="matrix(1.25,0,0,1.25,0,0)">
<stop offset="0" style="stop-color:#1A6DFF;stop-opacity:1;"/>
<stop offset="1" style="stop-color:#C822FF;stop-opacity:1;"/>
</linearGradient>
<linearGradient id="linear6" gradientUnits="userSpaceOnUse" x1="23.5" y1="8.375" x2="23.5" y2="53.7502" spreadMethod="reflect" gradientTransform="matrix(1.25,0,0,1.25,0,0)">
<stop offset="0" style="stop-color:#1A6DFF;stop-opacity:1;"/>
<stop offset="1" style="stop-color:#C822FF;stop-opacity:1;"/>
</linearGradient>
</defs>
<g id="surface1">
<path style=" stroke:none;fill-rule:nonzero;fill:url(#linear0);" d="M 62.5 55 C 62.5 57.070313 60.820313 58.75 58.75 58.75 C 56.679688 58.75 55 57.070313 55 55 C 55 52.929688 56.679688 51.25 58.75 51.25 C 60.820313 51.25 62.5 52.929688 62.5 55 Z "/>
<path style=" stroke:none;fill-rule:nonzero;fill:url(#linear1);" d="M 10 52.5 L 10 15 C 10 14.308594 10.5625 13.75 11.25 13.75 L 56.25 13.75 C 56.9375 13.75 57.5 14.308594 57.5 15 L 57.5 38.75 L 60 38.75 L 60 15 C 60 12.933594 58.316406 11.25 56.25 11.25 L 11.25 11.25 C 9.183594 11.25 7.5 12.933594 7.5 15 L 7.5 57.5 C 7.5 59.566406 9.183594 61.25 11.25 61.25 L 42.5 61.25 L 42.5 58.75 L 11.25 58.75 C 10.5625 58.75 10 58.191406 10 57.5 L 10 56.019531 C 10.390625 56.160156 10.808594 56.25 11.25 56.25 L 42.5 56.25 L 42.5 53.75 L 11.25 53.75 C 10.5625 53.75 10 53.191406 10 52.5 Z "/>
<path style=" stroke:none;fill-rule:nonzero;fill:url(#linear2);" d="M 70 51.25 L 69.394531 51.25 C 69.253906 50.8125 69.09375 50.457031 68.921875 50.132813 L 69.359375 49.695313 C 70.332031 48.722656 70.332031 47.132813 69.359375 46.160156 L 67.589844 44.390625 C 66.644531 43.449219 65 43.449219 64.054688 44.390625 L 63.59375 44.855469 C 63.234375 44.683594 62.871094 44.53125 62.5 44.402344 L 62.5 43.75 C 62.5 42.371094 61.378906 41.25 60 41.25 L 57.5 41.25 C 56.121094 41.25 55 42.371094 55 43.75 L 55 44.402344 C 54.628906 44.53125 54.265625 44.683594 53.90625 44.855469 L 53.445313 44.390625 C 52.5 43.449219 50.851563 43.449219 49.910156 44.390625 L 48.140625 46.160156 C 47.167969 47.132813 47.167969 48.722656 48.140625 49.695313 L 48.578125 50.132813 C 48.40625 50.457031 48.246094 50.8125 48.105469 51.25 L 47.5 51.25 C 46.121094 51.25 45 52.371094 45 53.75 L 45 56.25 C 45 57.628906 46.121094 58.75 47.5 58.75 L 48.105469 58.75 C 48.246094 59.1875 48.40625 59.542969 48.578125 59.867188 L 48.140625 60.304688 C 47.671875 60.777344 47.410156 61.40625 47.410156 62.074219 C 47.410156 62.742188 47.671875 63.367188 48.140625 63.839844 L 49.910156 65.609375 C 50.882813 66.578125 52.46875 66.582031 53.445313 65.609375 L 53.90625 65.144531 C 54.261719 65.316406 54.628906 65.464844 55 65.597656 L 55 66.25 C 55 67.628906 56.121094 68.75 57.5 68.75 L 60 68.75 C 61.378906 68.75 62.5 67.628906 62.5 66.25 L 62.5 65.597656 C 62.871094 65.464844 63.234375 65.3125 63.589844 65.144531 L 64.054688 65.609375 C 65.027344 66.578125 66.613281 66.582031 67.585938 65.609375 L 69.355469 63.839844 C 70.332031 62.863281 70.332031 61.277344 69.355469 60.304688 L 68.921875 59.867188 C 69.09375 59.542969 69.253906 59.1875 69.394531 58.75 L 70 58.75 C 71.378906 58.75 72.5 57.628906 72.5 56.25 L 72.5 53.75 C 72.5 52.371094 71.378906 51.25 70 51.25 Z M 70 56.25 L 67.386719 56.25 L 67.195313 57.265625 C 67.015625 58.195313 66.785156 58.589844 66.398438 59.238281 L 65.789063 60.269531 L 67.589844 62.070313 L 65.820313 63.835938 L 64.019531 62.039063 L 63.1875 62.53125 C 62.484375 62.945313 61.730469 63.257813 60.9375 63.460938 L 60 63.703125 L 60 66.25 L 57.5 66.25 L 57.5 63.703125 L 56.5625 63.460938 C 55.769531 63.257813 55.015625 62.945313 54.3125 62.53125 L 53.480469 62.039063 L 51.679688 63.839844 L 49.910156 62.070313 L 51.710938 60.269531 L 51.101563 59.242188 C 50.714844 58.589844 50.480469 58.199219 50.304688 57.269531 L 50.113281 56.25 L 47.5 56.25 L 47.5 53.75 L 50.113281 53.75 L 50.304688 52.734375 C 50.484375 51.800781 50.71875 51.40625 51.105469 50.757813 L 51.710938 49.730469 L 49.910156 47.929688 L 51.679688 46.164063 L 53.480469 47.960938 L 54.3125 47.46875 C 55.015625 47.054688 55.769531 46.742188 56.5625 46.539063 L 57.5 46.296875 L 57.5 43.75 L 60 43.75 L 60 46.296875 L 60.9375 46.539063 C 61.730469 46.742188 62.484375 47.054688 63.1875 47.46875 L 64.019531 47.960938 L 65.820313 46.160156 L 67.585938 47.929688 L 65.789063 49.730469 L 66.394531 50.753906 C 66.78125 51.40625 67.015625 51.800781 67.191406 52.730469 L 67.386719 53.75 L 70 53.75 Z "/>
<path style=" stroke:none;fill-rule:nonzero;fill:url(#linear3);" d="M 58.75 50 C 55.992188 50 53.75 52.242188 53.75 55 C 53.75 57.757813 55.992188 60 58.75 60 C 61.507813 60 63.75 57.757813 63.75 55 C 63.75 52.242188 61.507813 50 58.75 50 Z M 58.75 57.5 C 57.371094 57.5 56.25 56.378906 56.25 55 C 56.25 53.621094 57.371094 52.5 58.75 52.5 C 60.128906 52.5 61.25 53.621094 61.25 55 C 61.25 56.378906 60.128906 57.5 58.75 57.5 Z "/>
<path style=" stroke:none;fill-rule:nonzero;fill:url(#linear4);" d="M 55 22.5 L 26.074219 22.5 C 25.515625 20.351563 23.574219 18.75 21.25 18.75 C 18.925781 18.75 16.984375 20.351563 16.425781 22.5 L 12.5 22.5 L 12.5 25 L 16.425781 25 C 16.984375 27.148438 18.925781 28.75 21.25 28.75 C 23.574219 28.75 25.515625 27.148438 26.074219 25 L 55 25 Z M 21.25 26.25 C 19.871094 26.25 18.75 25.128906 18.75 23.75 C 18.75 22.371094 19.871094 21.25 21.25 21.25 C 22.628906 21.25 23.75 22.371094 23.75 23.75 C 23.75 25.128906 22.628906 26.25 21.25 26.25 Z "/>
<path style=" stroke:none;fill-rule:nonzero;fill:url(#linear5);" d="M 51.074219 35 L 55 35 L 55 32.5 L 51.074219 32.5 C 50.515625 30.351563 48.574219 28.75 46.25 28.75 C 43.925781 28.75 41.984375 30.351563 41.425781 32.5 L 12.5 32.5 L 12.5 35 L 41.425781 35 C 41.984375 37.148438 43.925781 38.75 46.25 38.75 C 48.574219 38.75 50.515625 37.148438 51.074219 35 Z M 43.75 33.75 C 43.75 32.371094 44.871094 31.25 46.25 31.25 C 47.628906 31.25 48.75 32.371094 48.75 33.75 C 48.75 35.128906 47.628906 36.25 46.25 36.25 C 44.871094 36.25 43.75 35.128906 43.75 33.75 Z "/>
<path style=" stroke:none;fill-rule:nonzero;fill:url(#linear6);" d="M 32.5 38.75 C 30.175781 38.75 28.234375 40.351563 27.675781 42.5 L 12.5 42.5 L 12.5 45 L 27.675781 45 C 28.234375 47.148438 30.175781 48.75 32.5 48.75 C 34.824219 48.75 36.765625 47.148438 37.324219 45 L 46.25 45 L 46.25 42.5 L 37.324219 42.5 C 36.765625 40.351563 34.824219 38.75 32.5 38.75 Z M 32.5 46.25 C 31.121094 46.25 30 45.128906 30 43.75 C 30 42.371094 31.121094 41.25 32.5 41.25 C 33.878906 41.25 35 42.371094 35 43.75 C 35 45.128906 33.878906 46.25 32.5 46.25 Z "/>
</g>
</svg>
