<?xml version="1.0"?>
<svg xmlns="http://www.w3.org/2000/svg" xmlns:xlink="http://www.w3.org/1999/xlink" version="1.1" viewBox="0 0 192 192" width="26px" height="26px"><g fill="none" fill-rule="nonzero" stroke="none" stroke-width="1" stroke-linecap="butt" stroke-linejoin="miter" stroke-miterlimit="10" stroke-dasharray="" stroke-dashoffset="0" font-family="none" font-weight="none" font-size="none" text-anchor="none" style="mix-blend-mode: normal"><path d="M0,192v-192h192v192z" fill="none"/><g fill="#ffffff"><g id="surface1"><path d="M34.84615,0.46154l-33.46154,153.23077h44.30769l10.84615,-50.76923h31.61538c30.23077,0 55.32693,-18.63461 62.07692,-50.30769c7.67308,-35.85577 -18.05769,-52.15385 -40.15385,-52.15385zM72.23077,31.61538h21.69231c10.81731,0 18.17308,9.375 15,21c-2.71153,11.65385 -14.10577,21 -25.38462,21h-20.76923zM166.38462,40.61538c-0.02884,4.61538 -0.46154,9.57692 -1.61538,15c-3,14.10577 -9.05769,26.45192 -17.53846,36.23077c-3.57692,10.52884 -14.19231,18.69231 -24.69231,18.69231h-0.46154c-10.18269,4.64423 -21.54808,7.15385 -33.92308,7.15385h-19.61538l-8.30769,39l-2.53846,11.76923h-12.23077l-4.84615,22.15385h44.07692l10.84615,-50.76923h31.61538c30.23077,0 55.52884,-18.63461 62.30769,-50.30769c5.68269,-26.625 -7.125,-42.51923 -23.07692,-48.92308z"/></g></g></g></svg>
