<?xml version="1.0" encoding="UTF-8"?>
<svg xmlns="http://www.w3.org/2000/svg" xmlns:xlink="http://www.w3.org/1999/xlink" width="80pt" height="80pt" viewBox="0 0 80 80" version="1.1">
<defs>
<linearGradient id="linear0" gradientUnits="userSpaceOnUse" x1="36" y1="-126.1334" x2="36" y2="-130.1422" spreadMethod="reflect" gradientTransform="matrix(1.25,0,0,-1.25,0,-127.5)">
<stop offset="0" style="stop-color:#6DC7FF;stop-opacity:1;"/>
<stop offset="1" style="stop-color:#E6ABFF;stop-opacity:1;"/>
</linearGradient>
<linearGradient id="linear1" gradientUnits="userSpaceOnUse" x1="28" y1="-126.1334" x2="28" y2="-130.1422" spreadMethod="reflect" gradientTransform="matrix(1.25,0,0,-1.25,0,-127.5)">
<stop offset="0" style="stop-color:#6DC7FF;stop-opacity:1;"/>
<stop offset="1" style="stop-color:#E6ABFF;stop-opacity:1;"/>
</linearGradient>
<linearGradient id="linear2" gradientUnits="userSpaceOnUse" x1="49.5" y1="-129.625" x2="49.5" y2="-133.502" spreadMethod="reflect" gradientTransform="matrix(1.25,0,0,-1.25,0,-127.5)">
<stop offset="0" style="stop-color:#6DC7FF;stop-opacity:1;"/>
<stop offset="1" style="stop-color:#E6ABFF;stop-opacity:1;"/>
</linearGradient>
<linearGradient id="linear3" gradientUnits="userSpaceOnUse" x1="49.5" y1="-129.625" x2="49.5" y2="-133.502" spreadMethod="reflect" gradientTransform="matrix(-1.25,0,0,-1.25,80,-127.5)">
<stop offset="0" style="stop-color:#6DC7FF;stop-opacity:1;"/>
<stop offset="1" style="stop-color:#E6ABFF;stop-opacity:1;"/>
</linearGradient>
<linearGradient id="linear4" gradientUnits="userSpaceOnUse" x1="32" y1="11" x2="32" y2="53" spreadMethod="reflect" gradientTransform="matrix(1.25,0,0,1.25,0,0)">
<stop offset="0" style="stop-color:#1A6DFF;stop-opacity:1;"/>
<stop offset="1" style="stop-color:#C822FF;stop-opacity:1;"/>
</linearGradient>
</defs>
<g id="surface1">
<path style=" stroke:none;fill-rule:nonzero;fill:url(#linear0);" d="M 47.5 32.5 C 47.5 33.878906 46.378906 35 45 35 C 43.621094 35 42.5 33.878906 42.5 32.5 C 42.5 31.121094 43.621094 30 45 30 C 46.378906 30 47.5 31.121094 47.5 32.5 Z "/>
<path style=" stroke:none;fill-rule:nonzero;fill:url(#linear1);" d="M 37.5 32.5 C 37.5 33.878906 36.378906 35 35 35 C 33.621094 35 32.5 33.878906 32.5 32.5 C 32.5 31.121094 33.621094 30 35 30 C 36.378906 30 37.5 31.121094 37.5 32.5 Z "/>
<path style=" stroke:none;fill-rule:nonzero;fill:url(#linear2);" d="M 63.75 36.875 C 63.75 37.910156 62.910156 38.75 61.875 38.75 C 60.839844 38.75 60 37.910156 60 36.875 C 60 35.839844 60.839844 35 61.875 35 C 62.910156 35 63.75 35.839844 63.75 36.875 Z "/>
<path style=" stroke:none;fill-rule:nonzero;fill:url(#linear3);" d="M 20 36.875 C 20 37.910156 19.160156 38.75 18.125 38.75 C 17.089844 38.75 16.25 37.910156 16.25 36.875 C 16.25 35.839844 17.089844 35 18.125 35 C 19.160156 35 20 35.839844 20 36.875 Z "/>
<path style=" stroke:none;fill-rule:nonzero;fill:url(#linear4);" d="M 67.5 46.578125 C 68.691406 45.042969 69.507813 43.214844 69.832031 41.214844 C 69.890625 41.222656 69.941406 41.25 70 41.25 C 72.757813 41.25 75 39.007813 75 36.25 C 75 33.492188 72.757813 31.25 70 31.25 C 69.988281 31.25 69.980469 31.257813 69.96875 31.257813 C 69.644531 24.996094 64.464844 20 58.125 20 C 56.09375 20 54.121094 20.539063 52.363281 21.519531 C 50.132813 16.929688 45.4375 13.75 40 13.75 C 34.5625 13.75 29.867188 16.929688 27.636719 21.519531 C 25.878906 20.539063 23.90625 20 21.875 20 C 15.535156 20 10.355469 24.996094 10.03125 31.257813 C 10.019531 31.257813 10.011719 31.25 10 31.25 C 7.242188 31.25 5 33.492188 5 36.25 C 5 39.007813 7.242188 41.25 10 41.25 C 10.058594 41.25 10.109375 41.222656 10.167969 41.214844 C 10.492188 43.214844 11.308594 45.042969 12.5 46.578125 C 7.015625 50.574219 3.75 56.941406 3.75 63.75 L 3.75 66.25 L 76.25 66.25 L 76.25 63.75 C 76.25 56.941406 72.984375 50.574219 67.5 46.578125 Z M 72.5 36.25 C 72.5 37.628906 71.378906 38.75 70 38.75 L 70 33.75 C 71.378906 33.75 72.5 34.871094 72.5 36.25 Z M 58.125 22.5 C 63.296875 22.5 67.5 26.703125 67.5 31.875 L 67.5 39.3125 C 67.5 44.484375 63.296875 48.6875 58.125 48.6875 L 58.125 48.910156 C 56.621094 46.453125 54.609375 44.296875 52.183594 42.597656 C 52.816406 41.390625 53.269531 40.082031 53.519531 38.703125 C 53.597656 38.71875 53.667969 38.75 53.75 38.75 C 56.507813 38.75 58.75 36.507813 58.75 33.75 C 58.75 30.992188 56.507813 28.75 53.75 28.75 L 53.75 27.5 C 53.75 26.242188 53.566406 25.03125 53.25 23.875 C 54.714844 22.980469 56.394531 22.5 58.125 22.5 Z M 53.75 35 C 54.441406 35 55 34.441406 55 33.75 C 55 33.058594 54.441406 32.5 53.75 32.5 L 53.75 31.25 C 55.128906 31.25 56.25 32.371094 56.25 33.75 C 56.25 35.128906 55.128906 36.25 53.75 36.25 Z M 28.75 27.5 C 28.75 21.296875 33.796875 16.25 40 16.25 C 46.203125 16.25 51.25 21.296875 51.25 27.5 L 51.25 36.25 C 51.25 42.453125 46.203125 47.5 40 47.5 C 33.796875 47.5 28.75 42.453125 28.75 36.25 Z M 26.25 32.5 C 25.558594 32.5 25 33.058594 25 33.75 C 25 34.441406 25.558594 35 26.25 35 L 26.25 36.25 C 24.871094 36.25 23.75 35.128906 23.75 33.75 C 23.75 32.371094 24.871094 31.25 26.25 31.25 Z M 7.5 36.25 C 7.5 34.871094 8.621094 33.75 10 33.75 L 10 38.75 C 8.621094 38.75 7.5 37.628906 7.5 36.25 Z M 12.5 31.875 C 12.5 26.703125 16.703125 22.5 21.875 22.5 C 23.605469 22.5 25.285156 22.980469 26.75 23.875 C 26.433594 25.03125 26.25 26.242188 26.25 27.5 L 26.25 28.75 C 23.492188 28.75 21.25 30.992188 21.25 33.75 C 21.25 36.507813 23.492188 38.75 26.25 38.75 C 26.332031 38.75 26.402344 38.71875 26.480469 38.703125 C 26.730469 40.082031 27.183594 41.390625 27.816406 42.597656 C 25.390625 44.296875 23.378906 46.453125 21.875 48.910156 L 21.875 48.6875 C 16.703125 48.6875 12.5 44.484375 12.5 39.3125 Z M 6.25 63.75 C 6.25 57.628906 9.234375 51.914063 14.242188 48.398438 C 16.027344 49.894531 18.25 50.886719 20.695313 51.128906 C 19.429688 53.871094 18.75 56.890625 18.75 60 L 18.75 63.75 Z M 37.5 63.75 C 37.5 62.371094 38.621094 61.25 40 61.25 C 41.378906 61.25 42.5 62.371094 42.5 63.75 Z M 58.75 63.75 L 45 63.75 C 45 60.992188 42.757813 58.75 40 58.75 C 37.242188 58.75 35 60.992188 35 63.75 L 21.25 63.75 L 21.25 60 C 21.25 53.910156 24.207031 48.21875 29.171875 44.699219 C 31.691406 47.917969 35.605469 50 40 50 C 44.394531 50 48.308594 47.917969 50.828125 44.699219 C 55.792969 48.21875 58.75 53.910156 58.75 60 Z M 61.25 63.75 L 61.25 60 C 61.25 56.890625 60.570313 53.871094 59.308594 51.128906 C 61.75 50.886719 63.976563 49.894531 65.757813 48.398438 C 70.765625 51.914063 73.75 57.628906 73.75 63.75 Z M 51.371094 47.859375 L 53.121094 49.640625 C 49.597656 53.097656 44.9375 55 40 55 C 35.0625 55 30.402344 53.097656 26.878906 49.640625 L 28.628906 47.859375 C 31.683594 50.851563 35.722656 52.5 40 52.5 C 44.277344 52.5 48.316406 50.851563 51.371094 47.859375 Z M 34.789063 24.046875 L 32.707031 22.660156 C 34.335938 20.210938 37.0625 18.75 40 18.75 C 43.113281 18.75 46.015625 20.425781 47.578125 23.125 L 45.414063 24.375 C 44.296875 22.449219 42.222656 21.25 40 21.25 C 37.902344 21.25 35.953125 22.296875 34.789063 24.046875 Z "/>
</g>
</svg>
