<svg xmlns="http://www.w3.org/2000/svg" viewBox="0 0 64 64" width="96px" height="96px"><linearGradient id="eNrllKi~A~aex2Cvsji~Ia" x1="40.012" x2="40.012" y1="19.127" y2="27.441" gradientUnits="userSpaceOnUse" spreadMethod="reflect"><stop offset="0" stop-color="#6dc7ff"/><stop offset="1" stop-color="#e6abff"/></linearGradient><path fill="url(#eNrllKi~A~aex2Cvsji~Ia)" d="M40.012 19.822A3.414 3.414 0 1 0 40.012 26.650000000000002A3.414 3.414 0 1 0 40.012 19.822Z"/><linearGradient id="eNrllKi~A~aex2Cvsji~Ib" x1="23.444" x2="23.444" y1="3.001" y2="60.671" gradientUnits="userSpaceOnUse" spreadMethod="reflect"><stop offset="0" stop-color="#1a6dff"/><stop offset="1" stop-color="#c822ff"/></linearGradient><path fill="url(#eNrllKi~A~aex2Cvsji~Ib)" d="M29.351 22.98L16.537 30.377 17.538 32.11 30.351 24.712z"/><linearGradient id="eNrllKi~A~aex2Cvsji~Ic" x1="25.721" x2="25.721" y1="3.001" y2="60.671" gradientUnits="userSpaceOnUse" spreadMethod="reflect"><stop offset="0" stop-color="#1a6dff"/><stop offset="1" stop-color="#c822ff"/></linearGradient><path fill="url(#eNrllKi~A~aex2Cvsji~Ic)" d="M31.627 26.922L18.814 34.32 19.814 36.053 32.627 28.655z"/><linearGradient id="eNrllKi~A~aex2Cvsji~Id" x1="27.996" x2="27.996" y1="3.001" y2="60.671" gradientUnits="userSpaceOnUse" spreadMethod="reflect"><stop offset="0" stop-color="#1a6dff"/><stop offset="1" stop-color="#c822ff"/></linearGradient><path fill="url(#eNrllKi~A~aex2Cvsji~Id)" d="M21.089 38.263L22.09 39.995 34.903 32.597 33.903 30.865z"/><linearGradient id="eNrllKi~A~aex2Cvsji~Ie" x1="32" x2="32" y1="3.001" y2="60.671" gradientUnits="userSpaceOnUse" spreadMethod="reflect"><stop offset="0" stop-color="#1a6dff"/><stop offset="1" stop-color="#c822ff"/></linearGradient><path fill="url(#eNrllKi~A~aex2Cvsji~Ie)" d="M56.648,13.631c-1.35-2.337-3.529-4.01-6.136-4.708c-2.607-0.699-5.33-0.34-7.667,1.01 c-0.867,0.501-1.636,1.116-2.299,1.815l-2.599-0.831c-1.482-0.474-3.113-0.301-4.468,0.48L9.597,25.185 c-1.564,0.904-2.102,2.911-1.199,4.476l0.638,1.105L7.64,31.572c-0.758,0.438-1.3,1.145-1.526,1.989 c-0.227,0.846-0.11,1.729,0.327,2.486l10.243,17.741c0.606,1.05,1.71,1.638,2.843,1.638c0.556,0,1.118-0.142,1.633-0.438 L45.041,41.2c1.352-0.781,2.318-2.104,2.663-3.702l0.515-3.65c0.706-0.734,1.21-1.652,1.43-2.664l0.58-2.667 c0.95-0.225,1.862-0.587,2.721-1.082C57.775,24.648,59.434,18.455,56.648,13.631z M45.737,37.145 c-0.214,0.977-0.832,1.823-1.696,2.322L20.159,53.256c-0.608,0.355-1.391,0.144-1.743-0.467L8.173,35.048 c-0.171-0.295-0.216-0.64-0.128-0.969c0.088-0.329,0.3-0.605,0.595-0.774l1.396-0.806l8.605,14.904 c0.438,0.758,1.144,1.3,1.989,1.526c0.282,0.076,0.568,0.113,0.853,0.113c0.568,0,1.129-0.149,1.633-0.44L45.982,35.4L45.737,37.145 z M47.693,30.759c-0.212,0.976-0.83,1.821-1.695,2.321L22.116,46.869c-0.297,0.171-0.641,0.215-0.968,0.128 c-0.329-0.088-0.605-0.299-0.774-0.595L10.13,28.661c-0.352-0.609-0.142-1.392,0.467-1.743L34.479,13.13 c0.546-0.315,1.161-0.477,1.779-0.477c0.363,0,0.728,0.056,1.079,0.168l1.921,0.614c-1.072,1.761-1.595,3.836-1.44,5.972 c-0.004,0.002-0.009,0.003-0.013,0.006c-1.022,0.589-1.752,1.541-2.058,2.68c-0.305,1.139-0.148,2.329,0.441,3.35 c0.816,1.414,2.303,2.206,3.83,2.206c0.748,0,1.507-0.189,2.2-0.59c1.022-0.59,1.751-1.541,2.057-2.681 c0.305-1.139,0.148-2.329-0.441-3.35c-0.59-1.022-1.541-1.751-2.68-2.057c-0.447-0.119-0.9-0.146-1.349-0.126 c-0.037-1.732,0.466-3.397,1.426-4.78l8.329,2.663c0.632,0.201,1.002,0.843,0.86,1.491L47.693,30.759z M40.008,20.82 c0.21,0,0.421,0.027,0.629,0.083c0.622,0.167,1.143,0.566,1.465,1.125c0.323,0.559,0.408,1.209,0.242,1.832 c-0.167,0.623-0.566,1.144-1.125,1.466c-1.151,0.666-2.633,0.269-3.298-0.884c-0.323-0.559-0.408-1.209-0.242-1.832 c0.167-0.622,0.567-1.143,1.126-1.465C39.177,20.931,39.59,20.82,40.008,20.82z M55.726,20.78c-0.561,2.092-1.901,3.84-3.777,4.922 c-0.397,0.23-0.811,0.417-1.233,0.574l1.66-7.63c0.361-1.662-0.588-3.306-2.207-3.822l-7.437-2.378 c0.346-0.286,0.713-0.552,1.112-0.782c1.875-1.084,4.061-1.369,6.15-0.811c2.092,0.561,3.839,1.901,4.921,3.777 C55.999,16.506,56.286,18.689,55.726,20.78z"/></svg>