<svg xmlns="http://www.w3.org/2000/svg" viewBox="0 0 128 128" width="256" height="256"><path fill="#f7f7fb" d="M43.5,28L16.9,45.4c-5,2.3-2.3,9.1,0,14.1l17.9,17.9l62.2,23l17-47L43.5,28 M35.3,59.5 c-3.9-1.4-5.9-5.7-4.5-9.6c1.4-3.9,5.7-5.9,9.6-4.5s5.9,5.7,4.5,9.6C43.5,58.9,39.2,61,35.3,59.5"/><path fill="#dfdfe3" d="M30.353,52.448c0-0.846,0.144-1.706,0.446-2.548c1.098-3.057,3.977-4.946,7.048-4.946 c0.847,0,1.709,0.144,2.552,0.446l0,0c3.065,1.1,4.957,3.993,4.946,7.074C45.349,53.317,45.206,54.17,44.9,55l0,0 c-1.091,3.04-3.945,4.986-6.997,4.986c-0.864,0-1.743-0.156-2.603-0.486C32.242,58.402,30.352,55.521,30.353,52.448 M43.5,28 L16.9,45.4c-2.078,0.956-2.826,2.689-2.825,4.746c0,2.894,1.481,6.431,2.825,9.354l17.9,17.9l21.635,8H102.4l11.6-32L43.5,28"/><path fill="#454b54" d="M97,103.5c-0.4,0-0.7-0.1-1-0.2l-62.2-23c-0.4-0.2-0.8-0.4-1.1-0.7L14.8,61.7 c-0.6-0.6-0.9-1.3-0.9-2.1V45.4c0-1,0.5-2,1.4-2.5l26.6-17.5c0.8-0.5,1.8-0.6,2.7-0.3l70.5,25.5c0.7,0.3,1.4,0.8,1.7,1.5 s0.4,1.5,0.1,2.3l-17,47c-0.3,0.8-0.8,1.4-1.6,1.7C97.9,103.4,97.4,103.5,97,103.5z M36.5,74.9l58.7,21.7l15-41.4l-66.3-24L19.9,47 v11.3L36.5,74.9z"/><path fill="#6ec7b0" d="M34.8,27.5L16.9,45.4c-3.9,3.9-3.9,10.2,0,14.1l17.9,17.9h75v-50h-75V27.5z M37.8,60 c-4.1,0-7.5-3.4-7.5-7.5s3.4-7.5,7.5-7.5s7.5,3.4,7.5,7.5S42,60,37.8,60z"/><path fill="#454b54" d="M109.8,80.5h-75c-0.8,0-1.6-0.3-2.1-0.9L14.8,61.7C12.3,59.2,11,56,11,52.5s1.4-6.7,3.8-9.2 l17.9-17.9c0.6-0.6,1.3-0.9,2.1-0.9h75c1.7,0,3,1.3,3,3v50C112.8,79.2,111.5,80.5,109.8,80.5z M36.1,74.5h70.8v-44H36.1L19,47.5 c-1.3,1.3-2,3.1-2,5s0.7,3.6,2,4.9L36.1,74.5z"/><path fill="#fff" d="M89.8 50.5h-25c-1.7 0-3-1.3-3-3s1.3-3 3-3h25c1.7 0 3 1.3 3 3S91.5 50.5 89.8 50.5zM89.8 60.5h-25c-1.7 0-3-1.3-3-3s1.3-3 3-3h25c1.7 0 3 1.3 3 3S91.5 60.5 89.8 60.5z"/><path fill="#454b54" d="M7.8,85.5c-0.8,0-1.5-0.3-2.1-0.9c-1.2-1.2-1.2-3.1,0-4.2l9.1-9.1c1.2-1.2,3.1-1.2,4.2,0 c1.2,1.2,1.2,3.1,0,4.2l-9.1,9.1C9.4,85.2,8.6,85.5,7.8,85.5z"/></svg>