<?xml version="1.0" encoding="UTF-8"?>
<svg xmlns="http://www.w3.org/2000/svg" xmlns:xlink="http://www.w3.org/1999/xlink" viewBox="0 0 24 24" version="1.1" width="24px" height="24px">
  <path style="fill:#ffffff;" d="M 10.4375 2 C 6.140625 2 3 4.824219 3 11 C 3 14.410156 4.773438 20.515625 2 22 L 4.3125 22 C 5.203125 20.640625 5.09375 18.6875 5.09375 18.6875 C 5.09375 18.6875 4.03125 17.234375 4.03125 16.46875 C 4.03125 15.0625 5.15625 14.3125 5.15625 14.3125 C 5.15625 14.3125 4.09375 13.304688 4.09375 11.5625 C 4.09375 10.054688 5.296875 9.375 5.90625 9.375 C 8.144531 9.375 8.25 12 8.25 12 L 10.375 12 C 10.375 12 10.238281 9.125 12.96875 9.125 C 13.890625 9.125 15.46875 9.933594 15.46875 12.0625 C 15.46875 13.261719 15.09375 14 15.09375 14 C 15.09375 14 16.46875 14.734375 16.46875 16.03125 C 16.46875 17.285156 15.53125 18.34375 15.53125 18.34375 L 17.09375 22 L 22 22 C 22 22 19 20.789063 19 11 C 19 10.253906 19.222656 2 10.4375 2 Z M 13.75 4.03125 C 14.003906 4.027344 14.289063 4.109375 14.5625 4.28125 C 15.109375 4.628906 15.386719 5.203125 15.15625 5.5625 C 14.925781 5.921875 14.296875 5.941406 13.75 5.59375 C 13.203125 5.246094 12.925781 4.671875 13.15625 4.3125 C 13.269531 4.132813 13.496094 4.035156 13.75 4.03125 Z M 6.125 11 C 5.617188 11 5.03125 11.367188 5.03125 12.46875 C 5.03125 13.453125 6.3125 14.34375 6.3125 14.34375 C 6.3125 14.34375 4.5625 15.175781 4.5625 16.5 C 4.5625 17.226563 5.316406 17.96875 6.0625 18.5625 C 6.800781 19.167969 7.738281 20.21875 9 20.21875 C 10.796875 20.21875 12.292969 18.859375 13.09375 18.375 C 13.894531 17.890625 15.5 17.109375 15.5 16 C 15.5 14.671875 13.03125 14.28125 13.03125 14.28125 C 13.03125 14.28125 14.25 13.890625 14.25 12.59375 C 14.25 11.679688 13.65625 11 12.90625 11 C 11.820313 11 11.53125 12.046875 11.53125 12.59375 C 11.53125 13.210938 11.78125 13.8125 11.78125 13.8125 C 11.78125 13.8125 10.46875 13.03125 9 13.03125 C 8.214844 13.03125 7.34375 13.5625 7.34375 13.5625 C 7.34375 13.5625 7.4375 13.128906 7.4375 12.65625 C 7.4375 12.175781 7.15625 11 6.125 11 Z M 8.28125 13.75 C 8.546875 13.703125 8.25 14.203125 7.9375 14.53125 C 7.816406 14.65625 7.40625 14.277344 7.4375 14.1875 C 7.480469 14.09375 7.878906 13.835938 8.28125 13.75 Z M 9.71875 13.75 C 9.917969 13.75 10.339844 13.851563 10.5625 13.96875 C 10.730469 14.058594 10.699219 14.539063 10.53125 14.625 C 10.3125 14.734375 9.625 13.96875 9.625 13.78125 C 9.625 13.75 9.652344 13.75 9.71875 13.75 Z M 14.5 16 C 14.5 16 11.46875 19 9 19 C 6.890625 19 5.0625 16.71875 5.0625 16.71875 C 5.0625 16.71875 7.140625 18 9 18 C 11.125 18 14.5 16 14.5 16 Z "/>
</svg>
