<?xml version="1.0" encoding="UTF-8"?>
<svg xmlns="http://www.w3.org/2000/svg" xmlns:xlink="http://www.w3.org/1999/xlink" width="80pt" height="80pt" viewBox="0 0 80 80" version="1.1">
<defs>
<linearGradient id="linear0" gradientUnits="userSpaceOnUse" x1="31.8738" y1="12.7607" x2="32.1238" y2="50.8857" spreadMethod="reflect" gradientTransform="matrix(1.25,0,0,1.25,0,0)">
<stop offset="0" style="stop-color:#1A6DFF;stop-opacity:1;"/>
<stop offset="1" style="stop-color:#C822FF;stop-opacity:1;"/>
</linearGradient>
<linearGradient id="linear1" gradientUnits="userSpaceOnUse" x1="31.8738" y1="12.7607" x2="32.1238" y2="50.8857" spreadMethod="reflect" gradientTransform="matrix(1.25,0,0,1.25,0,0)">
<stop offset="0" style="stop-color:#1A6DFF;stop-opacity:1;"/>
<stop offset="1" style="stop-color:#C822FF;stop-opacity:1;"/>
</linearGradient>
<linearGradient id="linear2" gradientUnits="userSpaceOnUse" x1="23" y1="23" x2="23" y2="42.0497" spreadMethod="reflect" gradientTransform="matrix(1.25,0,0,1.25,0,0)">
<stop offset="0" style="stop-color:#6DC7FF;stop-opacity:1;"/>
<stop offset="1" style="stop-color:#E6ABFF;stop-opacity:1;"/>
</linearGradient>
<linearGradient id="linear3" gradientUnits="userSpaceOnUse" x1="44" y1="23" x2="44" y2="42.0497" spreadMethod="reflect" gradientTransform="matrix(1.25,0,0,1.25,0,0)">
<stop offset="0" style="stop-color:#6DC7FF;stop-opacity:1;"/>
<stop offset="1" style="stop-color:#E6ABFF;stop-opacity:1;"/>
</linearGradient>
</defs>
<g id="surface1">
<path style=" stroke:none;fill-rule:nonzero;fill:url(#linear0);" d="M 72.5 63.75 L 7.5 63.75 C 5.433594 63.75 3.75 62.066406 3.75 60 L 3.75 20 C 3.75 17.933594 5.433594 16.25 7.5 16.25 L 72.5 16.25 C 74.566406 16.25 76.25 17.933594 76.25 20 L 76.25 60 C 76.25 62.066406 74.566406 63.75 72.5 63.75 Z M 7.5 18.75 C 6.8125 18.75 6.25 19.3125 6.25 20 L 6.25 60 C 6.25 60.6875 6.8125 61.25 7.5 61.25 L 72.5 61.25 C 73.1875 61.25 73.75 60.6875 73.75 60 L 73.75 20 C 73.75 19.3125 73.1875 18.75 72.5 18.75 Z "/>
<path style=" stroke:none;fill-rule:nonzero;fill:url(#linear1);" d="M 68.75 58.75 L 11.25 58.75 C 9.871094 58.75 8.75 57.628906 8.75 56.25 L 8.75 23.75 C 8.75 22.371094 9.871094 21.25 11.25 21.25 L 68.75 21.25 C 70.128906 21.25 71.25 22.371094 71.25 23.75 L 71.25 56.25 C 71.25 57.628906 70.128906 58.75 68.75 58.75 Z M 68.75 23.75 L 11.25 23.75 L 11.25 56.25 L 68.75 56.25 Z "/>
<path style=" stroke:none;fill-rule:nonzero;fill:url(#linear2);" d="M 35 28.75 L 28.75 38.75 L 22.5 28.75 L 16.25 28.75 L 16.25 51.25 L 22.5 51.25 L 22.5 38.75 L 28.75 47.5 L 35 38.75 L 35 51.25 L 41.25 51.25 L 41.25 28.75 Z "/>
<path style=" stroke:none;fill-rule:nonzero;fill:url(#linear3);" d="M 57.5 40 L 57.5 28.75 L 52.5 28.75 L 52.5 40 L 45 40 L 55 51.25 L 65 40 Z "/>
</g>
</svg>
