<svg xmlns="http://www.w3.org/2000/svg"  viewBox="0 0 48 48" width="144px" height="144px"><linearGradient id="rwH3R4FXAjAwf7QMo6soOa" x1="24.523" x2="39.672" y1="7.827" y2="22.933" gradientUnits="userSpaceOnUse"><stop offset="0" stop-color="#c26715"/><stop offset=".508" stop-color="#b85515"/><stop offset="1" stop-color="#ad3f16"/></linearGradient><path fill="url(#rwH3R4FXAjAwf7QMo6soOa)" d="M42,17H15V6h26c0.552,0,1,0.448,1,1V17z"/><linearGradient id="rwH3R4FXAjAwf7QMo6soOb" x1="7.292" x2="27.973" y1="1.98" y2="18.107" gradientUnits="userSpaceOnUse"><stop offset="0" stop-color="#eba84b"/><stop offset="1" stop-color="#d97218"/></linearGradient><path fill="url(#rwH3R4FXAjAwf7QMo6soOb)" d="M32,17H7c-0.552,0-1-0.448-1-1V7c0-0.552,0.448-1,1-1h25c0.552,0,1,0.448,1,1v9	C33,16.552,32.552,17,32,17z"/><path d="M42,14H6v2c0,0.552,0.448,1,1,1h8h17h10V14z" opacity=".05"/><path d="M42,14.5H6V16c0,0.552,0.448,1,1,1h8h17h10V14.5z" opacity=".07"/><linearGradient id="rwH3R4FXAjAwf7QMo6soOc" x1="27.534" x2="46.45" y1="492.536" y2="512.013" gradientTransform="translate(0 -474)" gradientUnits="userSpaceOnUse"><stop offset="0" stop-color="#eba600"/><stop offset="1" stop-color="#c28200"/></linearGradient><path fill="url(#rwH3R4FXAjAwf7QMo6soOc)" d="M42,42H31V15h12c0.552,0,1,0.448,1,1v24C44,41.105,43.105,42,42,42z"/><linearGradient id="rwH3R4FXAjAwf7QMo6soOd" x1="5.418" x2="31.69" y1="488.435" y2="515.487" gradientTransform="translate(0 -474)" gradientUnits="userSpaceOnUse"><stop offset="0" stop-color="#ffd869"/><stop offset="1" stop-color="#fec52b"/></linearGradient><path fill="url(#rwH3R4FXAjAwf7QMo6soOd)" d="M31,42H6c-1.105,0-2-0.895-2-2V16c0-0.552,0.448-1,1-1h28v25C33,41.105,32.105,42,31,42z"/><linearGradient id="rwH3R4FXAjAwf7QMo6soOe" x1="17.154" x2="17.154" y1="494.74" y2="463.029" gradientTransform="translate(0 -474)" gradientUnits="userSpaceOnUse"><stop offset="0" stop-color="#eba600"/><stop offset="1" stop-color="#c28200"/></linearGradient><path fill="url(#rwH3R4FXAjAwf7QMo6soOe)" d="M33,15H4.618c-0.379,0-0.725,0.214-0.894,0.553l-2.362,4.724C1.196,20.609,1.437,21,1.809,21	h27.573c0.379,0,0.725-0.214,0.894-0.553L33,15z"/><linearGradient id="rwH3R4FXAjAwf7QMo6soOf" x1="39.846" x2="39.846" y1="494.729" y2="490.572" gradientTransform="translate(0 -474)" gradientUnits="userSpaceOnUse"><stop offset="0" stop-color="#ffd869"/><stop offset="1" stop-color="#fec52b"/></linearGradient><path fill="url(#rwH3R4FXAjAwf7QMo6soOf)" d="M33,15h10.382c0.379,0,0.725,0.214,0.894,0.553l2.362,4.724	C46.804,20.609,46.563,21,46.191,21h-9.573c-0.379,0-0.725-0.214-0.894-0.553L33,15z"/></svg>