<svg xmlns="http://www.w3.org/2000/svg" viewBox="0 0 128 128" width="64" height="64"><path fill="#fff" d="M19 39L19 109 89 109 109 89 39 19z"/><path fill="#d3d8dd" d="M109,19H39v67c0,1.7,1.3,3,3,3h67V19z"/><path fill="#444b54" d="M101.1,26.9c-1.2-1.2-3.1-1.2-4.2,0L87.8,36H34c-1.7,0-3,1.3-3,3s1.3,3,3,3h52v52c0,1.7,1.3,3,3,3s3-1.3,3-3V40.2l9.1-9.1C102.3,29.9,102.3,28.1,101.1,26.9z"/><path fill="#444b54" d="M109,16H39c-0.2,0-0.4,0-0.6,0.1c-0.1,0-0.2,0.1-0.3,0.1c-0.1,0-0.2,0.1-0.3,0.1c-0.1,0-0.2,0.1-0.3,0.2c-0.1,0-0.2,0.1-0.2,0.1c-0.2,0.1-0.3,0.2-0.5,0.4l-20,20c-0.1,0.1-0.3,0.3-0.4,0.5c0,0.1-0.1,0.1-0.1,0.2c-0.1,0.1-0.1,0.2-0.2,0.3c0,0.1-0.1,0.2-0.1,0.3c0,0.1-0.1,0.2-0.1,0.3c0,0.2-0.1,0.4-0.1,0.6v70c0,1.7,1.3,3,3,3h70c0.2,0,0.4,0,0.6-0.1c0.1,0,0.2-0.1,0.3-0.1c0.1,0,0.2-0.1,0.3-0.1c0.1,0,0.2-0.1,0.3-0.2c0.1,0,0.2-0.1,0.2-0.1c0.2-0.1,0.3-0.2,0.5-0.4l20-20c0.6-0.6,0.9-1.3,0.9-2.1V19C112,17.3,110.7,16,109,16z M106,87.8L87.8,106H22V40.2L40.2,22H106V87.8z"/></svg>