<svg fill="#000000" xmlns="http://www.w3.org/2000/svg" viewBox="0 0 80 80" width="80px" height="80px"><path d="M 13 10 C 11.355469 10 10 11.355469 10 13 L 10 25 C 10 26.644531 11.355469 28 13 28 L 31 28 C 32.644531 28 34 26.644531 34 25 L 34 13 C 34 11.355469 32.644531 10 31 10 Z M 22 28 C 21.449219 28 21 28.449219 21 29 C 21 29.550781 21.449219 30 22 30 C 22.550781 30 23 29.550781 23 29 C 23 28.449219 22.550781 28 22 28 Z M 13 12 L 31 12 C 31.566406 12 32 12.433594 32 13 L 32 25 C 32 25.566406 31.566406 26 31 26 L 13 26 C 12.433594 26 12 25.566406 12 25 L 12 13 C 12 12.433594 12.433594 12 13 12 Z M 16 14 C 15.449219 14 15 14.449219 15 15 C 15 15.550781 15.449219 16 16 16 C 16.550781 16 17 15.550781 17 15 C 17 14.449219 16.550781 14 16 14 Z M 16 18 C 15.449219 18 15 18.449219 15 19 C 15 19.550781 15.449219 20 16 20 C 16.550781 20 17 19.550781 17 19 C 17 18.449219 16.550781 18 16 18 Z M 16 22 C 15.449219 22 15 22.449219 15 23 C 15 23.550781 15.449219 24 16 24 C 16.550781 24 17 23.550781 17 23 C 17 22.449219 16.550781 22 16 22 Z M 49 28 C 47.355469 28 46 29.355469 46 31 L 46 36 C 45.449219 36 45 36.449219 45 37 C 45 37.550781 45.449219 38 46 38 L 46 43 C 46 44.644531 47.355469 46 49 46 L 67 46 C 68.644531 46 70 44.644531 70 43 L 70 31 C 70 29.355469 68.644531 28 67 28 Z M 49 30 L 67 30 C 67.566406 30 68 30.433594 68 31 L 68 43 C 68 43.566406 67.566406 44 67 44 L 49 44 C 48.433594 44 48 43.566406 48 43 L 48 31 C 48 30.433594 48.433594 30 49 30 Z M 22 32 C 21.449219 32 21 32.449219 21 33 C 21 33.550781 21.449219 34 22 34 C 22.550781 34 23 33.550781 23 33 C 23 32.449219 22.550781 32 22 32 Z M 52 32 C 51.449219 32 51 32.449219 51 33 C 51 33.550781 51.449219 34 52 34 C 52.550781 34 53 33.550781 53 33 C 53 32.449219 52.550781 32 52 32 Z M 22 36 C 21.449219 36 21 36.449219 21 37 C 21 37.550781 21.449219 38 22 38 C 22.550781 38 23 37.550781 23 37 C 23 36.449219 22.550781 36 22 36 Z M 26 36 C 25.449219 36 25 36.449219 25 37 C 25 37.550781 25.449219 38 26 38 C 26.550781 38 27 37.550781 27 37 C 27 36.449219 26.550781 36 26 36 Z M 30 36 C 29.449219 36 29 36.449219 29 37 C 29 37.550781 29.449219 38 30 38 C 30.550781 38 31 37.550781 31 37 C 31 36.449219 30.550781 36 30 36 Z M 34 36 C 33.449219 36 33 36.449219 33 37 C 33 37.550781 33.449219 38 34 38 C 34.550781 38 35 37.550781 35 37 C 35 36.449219 34.550781 36 34 36 Z M 38 36 C 37.449219 36 37 36.449219 37 37 C 37 37.550781 37.449219 38 38 38 C 38.550781 38 39 37.550781 39 37 C 39 36.449219 38.550781 36 38 36 Z M 42 36 C 41.449219 36 41 36.449219 41 37 C 41 37.550781 41.449219 38 42 38 C 42.550781 38 43 37.550781 43 37 C 43 36.449219 42.550781 36 42 36 Z M 52 36 C 51.449219 36 51 36.449219 51 37 C 51 37.550781 51.449219 38 52 38 C 52.550781 38 53 37.550781 53 37 C 53 36.449219 52.550781 36 52 36 Z M 22 40 C 21.449219 40 21 40.449219 21 41 C 21 41.550781 21.449219 42 22 42 C 22.550781 42 23 41.550781 23 41 C 23 40.449219 22.550781 40 22 40 Z M 52 40 C 51.449219 40 51 40.449219 51 41 C 51 41.550781 51.449219 42 52 42 C 52.550781 42 53 41.550781 53 41 C 53 40.449219 52.550781 40 52 40 Z M 22 44 C 21.449219 44 21 44.449219 21 45 C 21 45.550781 21.449219 46 22 46 C 22.550781 46 23 45.550781 23 45 C 23 44.449219 22.550781 44 22 44 Z M 22 48 C 21.449219 48 21 48.449219 21 49 C 21 49.550781 21.449219 50 22 50 C 22.550781 50 23 49.550781 23 49 C 23 48.449219 22.550781 48 22 48 Z M 22 52 C 21.449219 52 21 52.449219 21 53 C 21 53.550781 21.449219 54 22 54 C 22.550781 54 23 53.550781 23 53 C 23 52.449219 22.550781 52 22 52 Z M 49 52 C 47.355469 52 46 53.355469 46 55 L 46 60 C 45.449219 60 45 60.449219 45 61 C 45 61.550781 45.449219 62 46 62 L 46 67 C 46 68.644531 47.355469 70 49 70 L 67 70 C 68.644531 70 70 68.644531 70 67 L 70 55 C 70 53.355469 68.644531 52 67 52 Z M 49 54 L 67 54 C 67.566406 54 68 54.433594 68 55 L 68 67 C 68 67.566406 67.566406 68 67 68 L 49 68 C 48.433594 68 48 67.566406 48 67 L 48 55 C 48 54.433594 48.433594 54 49 54 Z M 22 56 C 21.449219 56 21 56.449219 21 57 C 21 57.550781 21.449219 58 22 58 C 22.550781 58 23 57.550781 23 57 C 23 56.449219 22.550781 56 22 56 Z M 52 56 C 51.449219 56 51 56.449219 51 57 C 51 57.550781 51.449219 58 52 58 C 52.550781 58 53 57.550781 53 57 C 53 56.449219 52.550781 56 52 56 Z M 22 60 C 21.449219 60 21 60.449219 21 61 C 21 61.550781 21.449219 62 22 62 C 22.550781 62 23 61.550781 23 61 C 23 60.449219 22.550781 60 22 60 Z M 26 60 C 25.449219 60 25 60.449219 25 61 C 25 61.550781 25.449219 62 26 62 C 26.550781 62 27 61.550781 27 61 C 27 60.449219 26.550781 60 26 60 Z M 30 60 C 29.449219 60 29 60.449219 29 61 C 29 61.550781 29.449219 62 30 62 C 30.550781 62 31 61.550781 31 61 C 31 60.449219 30.550781 60 30 60 Z M 34 60 C 33.449219 60 33 60.449219 33 61 C 33 61.550781 33.449219 62 34 62 C 34.550781 62 35 61.550781 35 61 C 35 60.449219 34.550781 60 34 60 Z M 38 60 C 37.449219 60 37 60.449219 37 61 C 37 61.550781 37.449219 62 38 62 C 38.550781 62 39 61.550781 39 61 C 39 60.449219 38.550781 60 38 60 Z M 42 60 C 41.449219 60 41 60.449219 41 61 C 41 61.550781 41.449219 62 42 62 C 42.550781 62 43 61.550781 43 61 C 43 60.449219 42.550781 60 42 60 Z M 52 60 C 51.449219 60 51 60.449219 51 61 C 51 61.550781 51.449219 62 52 62 C 52.550781 62 53 61.550781 53 61 C 53 60.449219 52.550781 60 52 60 Z M 52 64 C 51.449219 64 51 64.449219 51 65 C 51 65.550781 51.449219 66 52 66 C 52.550781 66 53 65.550781 53 65 C 53 64.449219 52.550781 64 52 64 Z"/></svg>