<?xml version="1.0" encoding="UTF-8"?>
<svg xmlns="http://www.w3.org/2000/svg" xmlns:xlink="http://www.w3.org/1999/xlink" width="80pt" height="80pt" viewBox="0 0 80 80" version="1.1">
<defs>
<linearGradient id="linear0" gradientUnits="userSpaceOnUse" x1="31.7739" y1="13" x2="31.7739" y2="21.6286" spreadMethod="reflect" gradientTransform="matrix(1.25,0,0,1.25,0,0)">
<stop offset="0" style="stop-color:#6DC7FF;stop-opacity:1;"/>
<stop offset="1" style="stop-color:#E6ABFF;stop-opacity:1;"/>
</linearGradient>
<linearGradient id="linear1" gradientUnits="userSpaceOnUse" x1="22.5815" y1="21.5" x2="22.5815" y2="31.6443" spreadMethod="reflect" gradientTransform="matrix(1.25,0,0,1.25,0,0)">
<stop offset="0" style="stop-color:#6DC7FF;stop-opacity:1;"/>
<stop offset="1" style="stop-color:#E6ABFF;stop-opacity:1;"/>
</linearGradient>
<linearGradient id="linear2" gradientUnits="userSpaceOnUse" x1="30.0061" y1="5" x2="30.0061" y2="58.4592" spreadMethod="reflect" gradientTransform="matrix(1.25,0,0,1.25,0,0)">
<stop offset="0" style="stop-color:#1A6DFF;stop-opacity:1;"/>
<stop offset="1" style="stop-color:#C822FF;stop-opacity:1;"/>
</linearGradient>
<linearGradient id="linear3" gradientUnits="userSpaceOnUse" x1="33.3681" y1="5" x2="33.3681" y2="58.4592" spreadMethod="reflect" gradientTransform="matrix(1.25,0,0,1.25,0,0)">
<stop offset="0" style="stop-color:#1A6DFF;stop-opacity:1;"/>
<stop offset="1" style="stop-color:#C822FF;stop-opacity:1;"/>
</linearGradient>
</defs>
<g id="surface1">
<path style=" stroke:none;fill-rule:nonzero;fill:url(#linear0);" d="M 45.460938 17.992188 L 37.507813 25.945313 L 33.972656 22.410156 C 33.972656 22.410156 38.390625 17.992188 45.460938 17.992188 Z "/>
<path style=" stroke:none;fill-rule:nonzero;fill:url(#linear1);" d="M 24.25 39.203125 L 32.203125 31.25 L 28.667969 27.714844 C 28.667969 27.714844 24.25 32.132813 24.25 39.203125 Z "/>
<path style=" stroke:none;fill-rule:nonzero;fill:url(#linear2);" d="M 37.507813 55 C 43.851563 55 49.816406 52.527344 54.300781 48.042969 C 58.789063 43.558594 61.257813 37.59375 61.257813 31.25 C 61.257813 24.90625 58.785156 18.941406 54.300781 14.457031 C 49.816406 9.96875 43.851563 7.5 37.507813 7.5 C 31.164063 7.5 25.199219 9.972656 20.714844 14.457031 C 16.226563 18.941406 13.757813 24.90625 13.757813 31.25 C 13.757813 37.59375 16.230469 43.558594 20.714844 48.042969 C 25.199219 52.53125 31.164063 55 37.507813 55 Z M 28.695313 24.207031 L 35.738281 31.25 L 22.277344 44.714844 C 21.085938 38.21875 23.675781 29.816406 28.695313 24.207031 Z M 46.3125 38.289063 L 39.273438 31.25 L 52.738281 17.785156 C 53.921875 24.28125 51.332031 32.679688 46.3125 38.289063 Z M 44.546875 40.054688 C 38.933594 45.078125 30.539063 47.667969 24.042969 46.480469 L 37.507813 33.015625 Z M 37.507813 29.484375 L 30.464844 22.4375 C 36.074219 17.417969 44.476563 14.824219 50.972656 16.015625 Z M 26.238281 49.25 C 26.613281 49.269531 26.988281 49.289063 27.367188 49.289063 C 33.882813 49.289063 41.128906 46.539063 46.320313 41.832031 L 51.605469 47.113281 C 47.714844 50.582031 42.765625 52.5 37.507813 52.5 C 33.457031 52.5 29.585938 51.355469 26.238281 49.25 Z M 53.375 45.347656 L 48.082031 40.058594 C 53.0625 34.5625 55.851563 26.78125 55.511719 19.988281 C 57.613281 23.332031 58.757813 27.199219 58.757813 31.25 C 58.757813 36.507813 56.839844 41.457031 53.375 45.347656 Z M 48.765625 13.246094 C 41.972656 12.90625 34.191406 15.691406 28.695313 20.671875 L 23.410156 15.382813 C 27.300781 11.917969 32.25 10 37.507813 10 C 41.554688 10 45.421875 11.144531 48.765625 13.246094 Z M 21.640625 17.152344 L 26.925781 22.4375 C 21.949219 27.929688 19.160156 35.714844 19.5 42.507813 C 17.398438 39.164063 16.257813 35.296875 16.257813 31.25 C 16.257813 25.992188 18.171875 21.042969 21.640625 17.152344 Z "/>
<path style=" stroke:none;fill-rule:nonzero;fill:url(#linear3);" d="M 41.105469 59.734375 C 47.226563 58.964844 53.148438 56.265625 57.835938 51.578125 C 69.042969 40.371094 69.046875 22.128906 57.835938 10.921875 L 56.070313 12.6875 C 66.304688 22.921875 66.304688 39.578125 56.070313 49.8125 C 45.832031 60.046875 29.179688 60.046875 18.945313 49.8125 L 17.175781 51.578125 C 21.863281 56.265625 27.78125 58.964844 33.902344 59.734375 C 34.226563 60.917969 35 61.859375 36.25 62.269531 L 36.25 66.25 L 33.777344 66.25 C 31.703125 66.25 30.019531 67.929688 30.011719 70 L 23.75 70 L 23.75 72.5 L 51.25 72.5 L 51.25 70 L 45.007813 70 C 44.996094 67.929688 43.3125 66.25 41.238281 66.25 L 38.75 66.25 L 38.75 62.269531 C 40 61.859375 40.78125 60.917969 41.105469 59.734375 Z M 42.503906 70 L 32.511719 70 C 32.523438 69.308594 33.082031 68.75 33.777344 68.75 L 41.238281 68.75 C 41.929688 68.75 42.492188 69.308594 42.503906 70 Z "/>
</g>
</svg>
