<?xml version="1.0" encoding="UTF-8"?>
<svg xmlns="http://www.w3.org/2000/svg" xmlns:xlink="http://www.w3.org/1999/xlink" width="80pt" height="80pt" viewBox="0 0 80 80" version="1.1">
<defs>
<linearGradient id="linear0" gradientUnits="userSpaceOnUse" x1="32" y1="9.8333" x2="32" y2="54.7159" spreadMethod="reflect" gradientTransform="matrix(1.25,0,0,1.25,0,0)">
<stop offset="0" style="stop-color:#1A6DFF;stop-opacity:1;"/>
<stop offset="1" style="stop-color:#C822FF;stop-opacity:1;"/>
</linearGradient>
<linearGradient id="linear1" gradientUnits="userSpaceOnUse" x1="50.5" y1="33.6667" x2="50.5" y2="44.2733" spreadMethod="reflect" gradientTransform="matrix(1.25,0,0,1.25,0,0)">
<stop offset="0" style="stop-color:#6DC7FF;stop-opacity:1;"/>
<stop offset="1" style="stop-color:#E6ABFF;stop-opacity:1;"/>
</linearGradient>
<linearGradient id="linear2" gradientUnits="userSpaceOnUse" x1="14.5" y1="12.8333" x2="14.5" y2="24.8899" spreadMethod="reflect" gradientTransform="matrix(1.25,0,0,1.25,0,0)">
<stop offset="0" style="stop-color:#6DC7FF;stop-opacity:1;"/>
<stop offset="1" style="stop-color:#E6ABFF;stop-opacity:1;"/>
</linearGradient>
</defs>
<g id="surface1">
<path style=" stroke:none;fill-rule:nonzero;fill:url(#linear0);" d="M 38.75 67.5 C 32.21875 67.5 7.5 51.015625 7.5 28.75 C 7.5 19.789063 14.789063 12.5 23.75 12.5 C 30.496094 12.5 36.296875 16.632813 38.75 22.5 C 41.203125 16.632813 47.003906 12.5 53.75 12.5 C 62.710938 12.5 70 19.789063 70 28.75 C 70 32.632813 69.234375 36.570313 67.722656 40.453125 L 66.75 42.484375 L 65.550781 41.679688 C 63.90625 40.582031 61.988281 40 60 40 C 54.484375 40 50 44.484375 50 50 C 50 55.515625 54.484375 60 60 60 C 65.515625 60 70 55.515625 70 50 L 72.5 50 C 72.5 56.890625 66.890625 62.5 60 62.5 C 57.300781 62.5 54.796875 61.640625 52.75 60.179688 C 47.378906 64.578125 41.8125 67.5 38.75 67.5 Z M 23.75 15 C 16.167969 15 10 21.167969 10 28.75 C 10 49.148438 32.929688 65 38.75 65 C 40.765625 65 45.605469 62.730469 50.847656 58.503906 C 48.769531 56.273438 47.5 53.28125 47.5 50 C 47.5 43.109375 53.109375 37.5 60 37.5 C 61.984375 37.5 63.914063 37.964844 65.660156 38.851563 C 66.871094 35.535156 67.5 32.113281 67.5 28.75 C 67.5 21.167969 61.332031 15 53.75 15 C 46.167969 15 40 21.167969 40 28.75 L 37.5 28.75 C 37.5 21.167969 31.332031 15 23.75 15 Z "/>
<path style=" stroke:none;fill-rule:nonzero;fill:url(#linear1);" d="M 60 54.480469 C 59.359375 54.480469 58.71875 54.234375 58.234375 53.75 L 55.367188 50.882813 L 57.136719 49.117188 L 60 51.980469 L 69.117188 42.867188 L 70.886719 44.632813 L 61.769531 53.75 C 61.28125 54.234375 60.640625 54.480469 60 54.480469 Z "/>
<path style=" stroke:none;fill-rule:nonzero;fill:url(#linear2);" d="M 23.75 17.5 C 17.535156 17.5 12.5 22.535156 12.5 28.75 L 23.75 28.75 Z "/>
</g>
</svg>
