<?xml version="1.0" encoding="UTF-8"?>
<svg xmlns="http://www.w3.org/2000/svg" xmlns:xlink="http://www.w3.org/1999/xlink" width="80pt" height="80pt" viewBox="0 0 80 80" version="1.1">
<defs>
<linearGradient id="linear0" gradientUnits="userSpaceOnUse" x1="29" y1="24.1667" x2="29" y2="29.1778" spreadMethod="reflect" gradientTransform="matrix(1.25,0,0,1.25,0,0)">
<stop offset="0" style="stop-color:#6DC7FF;stop-opacity:1;"/>
<stop offset="1" style="stop-color:#E6ABFF;stop-opacity:1;"/>
</linearGradient>
<linearGradient id="linear1" gradientUnits="userSpaceOnUse" x1="21" y1="24.1667" x2="21" y2="29.1778" spreadMethod="reflect" gradientTransform="matrix(1.25,0,0,1.25,0,0)">
<stop offset="0" style="stop-color:#6DC7FF;stop-opacity:1;"/>
<stop offset="1" style="stop-color:#E6ABFF;stop-opacity:1;"/>
</linearGradient>
<linearGradient id="linear2" gradientUnits="userSpaceOnUse" x1="45" y1="27.5" x2="45" y2="32.6694" spreadMethod="reflect" gradientTransform="matrix(1.25,0,0,1.25,0,0)">
<stop offset="0" style="stop-color:#6DC7FF;stop-opacity:1;"/>
<stop offset="1" style="stop-color:#E6ABFF;stop-opacity:1;"/>
</linearGradient>
<linearGradient id="linear3" gradientUnits="userSpaceOnUse" x1="32" y1="8.1667" x2="32" y2="55.463" spreadMethod="reflect" gradientTransform="matrix(1.25,0,0,1.25,0,0)">
<stop offset="0" style="stop-color:#1A6DFF;stop-opacity:1;"/>
<stop offset="1" style="stop-color:#C822FF;stop-opacity:1;"/>
</linearGradient>
<linearGradient id="linear4" gradientUnits="userSpaceOnUse" x1="21.3853" y1="8.1667" x2="21.3853" y2="55.463" spreadMethod="reflect" gradientTransform="matrix(1.25,0,0,1.25,0,0)">
<stop offset="0" style="stop-color:#1A6DFF;stop-opacity:1;"/>
<stop offset="1" style="stop-color:#C822FF;stop-opacity:1;"/>
</linearGradient>
</defs>
<g id="surface1">
<path style=" stroke:none;fill-rule:nonzero;fill:url(#linear0);" d="M 39.375 33.125 C 39.375 34.851563 37.976563 36.25 36.25 36.25 C 34.523438 36.25 33.125 34.851563 33.125 33.125 C 33.125 31.398438 34.523438 30 36.25 30 C 37.976563 30 39.375 31.398438 39.375 33.125 Z "/>
<path style=" stroke:none;fill-rule:nonzero;fill:url(#linear1);" d="M 29.375 33.125 C 29.375 34.851563 27.976563 36.25 26.25 36.25 C 24.523438 36.25 23.125 34.851563 23.125 33.125 C 23.125 31.398438 24.523438 30 26.25 30 C 27.976563 30 29.375 31.398438 29.375 33.125 Z "/>
<path style=" stroke:none;fill-rule:nonzero;fill:url(#linear2);" d="M 58.75 37.5 C 58.75 38.878906 57.628906 40 56.25 40 C 54.871094 40 53.75 38.878906 53.75 37.5 C 53.75 36.121094 54.871094 35 56.25 35 C 57.628906 35 58.75 36.121094 58.75 37.5 Z "/>
<path style=" stroke:none;fill-rule:nonzero;fill:url(#linear3);" d="M 62.917969 47.242188 C 63.601563 46.144531 64.132813 44.949219 64.484375 43.675781 C 67.582031 43.304688 70 40.695313 70 37.5 C 70 34.460938 67.820313 31.929688 64.941406 31.371094 C 64.363281 24.316406 58.449219 18.75 51.25 18.75 C 49.070313 18.75 46.933594 19.292969 45.003906 20.28125 C 42.691406 14.972656 37.398438 11.25 31.25 11.25 C 22.980469 11.25 16.25 17.980469 16.25 26.25 L 16.25 27.5 C 12.804688 27.5 10 30.304688 10 33.75 C 10 37.195313 12.804688 40 16.25 40 L 16.742188 40 C 17.097656 41.359375 17.632813 42.648438 18.328125 43.832031 C 11.621094 48.191406 7.5 55.710938 7.5 63.75 L 7.5 68.75 L 72.5 68.75 L 72.5 65 C 72.5 57.816406 68.863281 51.152344 62.917969 47.242188 Z M 67.5 37.5 C 67.5 39.144531 66.425781 40.535156 64.949219 41.035156 C 64.972656 40.691406 65 40.351563 65 40 L 65 33.980469 C 66.453125 34.496094 67.5 35.871094 67.5 37.5 Z M 51.25 21.25 C 57.453125 21.25 62.5 26.296875 62.5 32.5 L 62.5 40 C 62.5 46.148438 57.539063 51.152344 51.410156 51.242188 C 49.589844 48.304688 47.136719 45.757813 44.171875 43.828125 C 44.867188 42.644531 45.402344 41.359375 45.757813 40 L 46.25 40 C 49.695313 40 52.5 37.195313 52.5 33.75 C 52.5 30.304688 49.695313 27.5 46.25 27.5 L 46.25 26.25 C 46.25 25.015625 46.082031 23.820313 45.800781 22.667969 C 47.460938 21.746094 49.335938 21.25 51.25 21.25 Z M 46.25 36.25 L 46.25 35 C 46.941406 35 47.5 34.441406 47.5 33.75 C 47.5 33.058594 46.941406 32.5 46.25 32.5 L 46.25 30 C 48.316406 30 50 31.683594 50 33.75 C 50 35.816406 48.316406 37.5 46.25 37.5 Z M 18.75 26.25 C 18.75 19.359375 24.359375 13.75 31.25 13.75 C 38.140625 13.75 43.75 19.359375 43.75 26.25 L 43.75 36.25 C 43.75 43.140625 38.140625 48.75 31.25 48.75 C 24.359375 48.75 18.75 43.140625 18.75 36.25 Z M 16.25 37.5 C 14.183594 37.5 12.5 35.816406 12.5 33.75 C 12.5 31.683594 14.183594 30 16.25 30 L 16.25 32.5 C 15.558594 32.5 15 33.058594 15 33.75 C 15 34.441406 15.558594 35 16.25 35 Z M 31.25 51.25 C 35.859375 51.25 39.984375 49.160156 42.734375 45.878906 C 43.4375 46.332031 44.109375 46.824219 44.742188 47.351563 C 41.40625 51.414063 36.542969 53.75 31.25 53.75 C 25.957031 53.75 21.09375 51.414063 17.757813 47.351563 C 18.394531 46.824219 19.0625 46.332031 19.765625 45.878906 C 22.519531 49.160156 26.640625 51.25 31.25 51.25 Z M 29.097656 66.25 C 29.53125 65.507813 30.328125 65 31.25 65 C 32.171875 65 32.96875 65.507813 33.402344 66.25 Z M 52.5 66.25 L 36.074219 66.25 C 35.515625 64.101563 33.574219 62.5 31.25 62.5 C 28.925781 62.5 26.984375 64.101563 26.425781 66.25 L 10 66.25 L 10 63.75 C 10 58.214844 12.1875 52.960938 15.925781 49.050781 C 19.738281 53.621094 25.25 56.25 31.25 56.25 C 37.25 56.25 42.761719 53.621094 46.574219 49.050781 C 50.3125 52.960938 52.5 58.214844 52.5 63.75 Z M 70 66.25 L 55 66.25 L 55 63.75 C 55 60.210938 54.195313 56.78125 52.730469 53.667969 C 56.15625 53.296875 59.203125 51.65625 61.40625 49.234375 C 66.734375 52.675781 70 58.605469 70 65 Z "/>
<path style=" stroke:none;fill-rule:nonzero;fill:url(#linear4);" d="M 31.25 18.75 L 31.25 16.25 C 27.410156 16.25 23.859375 18.492188 22.214844 21.964844 L 24.472656 23.035156 C 25.707031 20.433594 28.367188 18.75 31.25 18.75 Z "/>
</g>
</svg>
