<?xml version="1.0" encoding="iso-8859-1"?>
<!-- Generator: Adobe Illustrator 22.1.0, SVG Export Plug-In . SVG Version: 6.00 Build 0)  -->
<svg xmlns="http://www.w3.org/2000/svg" xmlns:xlink="http://www.w3.org/1999/xlink" version="1.1" id="Layer_1" x="0px" y="0px" viewBox="0 0 128 128" style="enable-background:new 0 0 128 128;" xml:space="preserve" width="128px" height="128px">
<path style="fill:#FFFFFF;" d="M64,14c-27.6,0-50,22.4-50,50s22.4,50,50,50s50-22.4,50-50S91.6,14,64,14z M64,89  c-13.8,0-25-11.2-25-25s11.2-25,25-25s25,11.2,25,25S77.8,89,64,89z"/>
<g>
	<path style="fill:#FF5576;" d="M14,64c0,6.5,1.2,12.7,3.5,18.4l22.7-10.6C39.4,69.3,39,66.7,39,64c0-9,4.7-16.8,11.8-21.2L40.2,20   C24.6,28.5,14,45,14,64z"/>
</g>
<g>
	<path style="fill:#FF5576;" d="M64,14c-6.5,0-12.7,1.2-18.4,3.5l10.6,22.7c2.4-0.8,5.1-1.2,7.8-1.2c9,0,16.8,4.7,21.2,11.8   L108,40.2C99.5,24.6,83,14,64,14z"/>
</g>
<path style="fill:#C3DBEA;" d="M55,37.5L52.4,32c-1.9,0.7-3.7,1.6-5.4,2.6l2.5,5.5C51.2,39,53,38.2,55,37.5z"/>
<g>
	<path style="fill:#FF5576;" d="M64,89c-9,0-16.8-4.7-21.2-11.8L20,87.8c8.5,15.6,25,26.2,44,26.2c6.5,0,12.7-1.2,18.4-3.5   L71.8,87.8C69.3,88.6,66.7,89,64,89z"/>
</g>
<g>
	<path style="fill:#FF5576;" d="M114,64c0-6.5-1.2-12.7-3.5-18.4L87.8,56.2c0.8,2.4,1.2,5.1,1.2,7.8c0,9-4.7,16.8-11.8,21.2   L87.8,108C103.4,99.5,114,83,114,64z"/>
</g>
<path style="fill:#C3DBEA;" d="M81.1,107.8c1.9-0.7,3.7-1.6,5.4-2.5L84,99.8c-1.7,1-3.6,1.8-5.4,2.5L81.1,107.8z"/>
<path style="fill:#FFFFFF;" d="M21.5,55.7c-0.3,0-0.5,0-0.8-0.1c-1.6-0.4-2.6-2.1-2.1-3.7c2.5-9.5,7.9-17.9,15.6-24.2  c1.3-1.1,3.2-0.9,4.2,0.4c1.1,1.3,0.9,3.2-0.4,4.2c-6.7,5.5-11.4,12.8-13.6,21.1C24,54.8,22.8,55.7,21.5,55.7z"/>
<path style="fill:#FFFFFF;" d="M20,67c-0.8,0-1.6-0.3-2.1-0.9c-0.1-0.1-0.3-0.3-0.4-0.4c-0.1-0.2-0.2-0.3-0.3-0.5  c-0.1-0.2-0.1-0.4-0.2-0.6c0-0.2-0.1-0.4-0.1-0.6c0-0.8,0.3-1.6,0.9-2.1c1.1-1.1,3.1-1.1,4.2,0c0.6,0.6,0.9,1.3,0.9,2.1  c0,0.8-0.3,1.6-0.9,2.1C21.6,66.7,20.8,67,20,67z"/>
<path style="fill:#DB3E64;" d="M33,67c-1.7,0-3-1.3-3-3c0-18.7,15.3-34,34-34c1.7,0,3,1.3,3,3s-1.3,3-3,3c-2.7,0-5.3,2.6-7.8,4.2  c0,0-1.4-1.4-2.9-0.7c-0.9,0.4-1.9,2.9-2.5,3.2l-2.9,1.5C39.8,49.1,36,53.9,36,64C36,65.7,34.7,67,33,67z"/>
<path style="fill:#FF5576;" d="M56.2,40.2L52.4,32c-1.9,0.7-3.7,1.5-5.4,2.6l3.8,8.2C52.5,41.7,54.3,40.9,56.2,40.2z"/>
<path style="fill:#DB3E64;" d="M64,111c-1.7,0-3-1.3-3-3s1.3-3,3-3c22.6,0,41-18.4,41-41c0-1.7,1.3-3,3-3s3,1.3,3,3  c0,16.2-8.2,30.5-20.7,39c-1.2,0.8-1.2,4.3-2.4,5c-0.7,0.4-2.7-1.1-3.5-0.8c-1.1,0.5-0.9,2.9-2,3.3c-1.3,0.5-3.8-1.8-5.2-1.4  C73,110.3,68.6,111,64,111z"/>
<path style="fill:#FF5576;" d="M82.4,110.5c1.9-0.7,3.7-1.6,5.4-2.5L84,99.8c-1.7,1-3.6,1.8-5.4,2.5L82.4,110.5z"/>
<path style="fill:#444B54;" d="M111,64c0,16.8-8.9,31.6-22.2,39.9c-1.3,0.8-1.8,2.4-1.1,3.8l0,0c0.8,1.6,2.8,2.2,4.3,1.3  c15-9.4,25-26,25-45c0-5.7-0.9-11.3-2.6-16.4c-0.6-1.7-2.5-2.6-4.1-1.8l0,0c-1.4,0.6-2,2.2-1.6,3.7C110.2,54,111,58.9,111,64z"/>
<path style="fill:#444B54;" d="M64,111c-16.8,0-31.6-8.9-39.9-22.2c-0.8-1.3-2.4-1.8-3.8-1.1l0,0c-1.6,0.8-2.2,2.8-1.3,4.3  c9.4,15,26,25,45,25c5.7,0,11.3-0.9,16.4-2.6c1.7-0.6,2.6-2.5,1.8-4.1l0,0c-0.6-1.4-2.2-2-3.7-1.6C74,110.2,69.1,111,64,111z"/>
<path style="fill:#444B54;" d="M42,64c0-6.9,3.2-13,8.1-17.1c1.1-0.9,1.5-2.4,0.9-3.6l0,0c-0.8-1.8-3.1-2.3-4.6-1.1  C40.1,47.3,36,55.2,36,64c0,1.9,0.2,3.7,0.5,5.5c0.4,1.9,2.5,2.9,4.2,2.1l0,0c1.2-0.6,1.9-1.9,1.7-3.2C42.1,66.9,42,65.5,42,64z"/>
<path style="fill:#444B54;" d="M64,42c6.9,0,13,3.2,17.1,8.1c0.9,1.1,2.4,1.5,3.6,0.9l0,0c1.8-0.8,2.3-3.1,1.1-4.6  C80.7,40.1,72.8,36,64,36c-1.9,0-3.7,0.2-5.5,0.5c-1.9,0.4-2.9,2.5-2.1,4.2l0,0c0.6,1.2,1.9,1.9,3.2,1.7C61.1,42.1,62.5,42,64,42z"/>
<path style="fill:#444B54;" d="M64,86c-6.9,0-13-3.2-17.1-8.1c-0.9-1.1-2.4-1.5-3.6-0.9l0,0c-1.8,0.8-2.3,3.1-1.1,4.6  C47.3,87.9,55.2,92,64,92c1.9,0,3.7-0.2,5.5-0.5c1.9-0.4,2.9-2.5,2.1-4.2l0,0c-0.6-1.2-1.9-1.9-3.2-1.7C66.9,85.9,65.5,86,64,86z"/>
<path style="fill:#444B54;" d="M86,64c0,6.9-3.2,13-8.1,17.1c-1.1,0.9-1.5,2.4-0.9,3.6l0,0c0.8,1.8,3.1,2.3,4.6,1.1  C87.9,80.7,92,72.8,92,64c0-1.9-0.2-3.7-0.5-5.5c-0.4-1.9-2.5-2.9-4.2-2.1l0,0c-1.2,0.6-1.9,1.9-1.7,3.2C85.9,61.1,86,62.5,86,64z"/>
<path style="fill:#444B54;" d="M17,64c0-16.8,8.9-31.6,22.2-39.9c1.3-0.8,1.8-2.4,1.1-3.8l0,0c-0.8-1.6-2.8-2.2-4.3-1.3  c-15,9.4-25,26-25,45c0,5.7,0.9,11.3,2.6,16.4c0.6,1.7,2.5,2.6,4.1,1.8l0,0c1.4-0.6,2-2.2,1.6-3.7C17.8,74,17,69.1,17,64z"/>
<path style="fill:#444B54;" d="M64,17c16.8,0,31.6,8.9,39.9,22.2c0.8,1.3,2.4,1.8,3.8,1.1l0,0c1.6-0.8,2.2-2.8,1.3-4.3  c-9.4-15-26-25-45-25c-5.7,0-11.3,0.9-16.4,2.6c-1.7,0.6-2.6,2.5-1.8,4.1l0,0c0.6,1.4,2.2,2,3.7,1.6C54,17.8,58.9,17,64,17z"/>
</svg>
