<?xml version="1.0" encoding="UTF-8"?>
<svg xmlns="http://www.w3.org/2000/svg" xmlns:xlink="http://www.w3.org/1999/xlink" width="80pt" height="80pt" viewBox="0 0 80 80" version="1.1">
<defs>
<linearGradient id="linear0" gradientUnits="userSpaceOnUse" x1="36.5" y1="29.1667" x2="36.5" y2="34.6692" spreadMethod="reflect" gradientTransform="matrix(1.25,0,0,1.25,0,0)">
<stop offset="0" style="stop-color:#6DC7FF;stop-opacity:1;"/>
<stop offset="1" style="stop-color:#E6ABFF;stop-opacity:1;"/>
</linearGradient>
<linearGradient id="linear1" gradientUnits="userSpaceOnUse" x1="27.5" y1="29.1667" x2="27.5" y2="34.6692" spreadMethod="reflect" gradientTransform="matrix(1.25,0,0,1.25,0,0)">
<stop offset="0" style="stop-color:#6DC7FF;stop-opacity:1;"/>
<stop offset="1" style="stop-color:#E6ABFF;stop-opacity:1;"/>
</linearGradient>
<linearGradient id="linear2" gradientUnits="userSpaceOnUse" x1="32" y1="36.8333" x2="32" y2="41.3341" spreadMethod="reflect" gradientTransform="matrix(1.25,0,0,1.25,0,0)">
<stop offset="0" style="stop-color:#6DC7FF;stop-opacity:1;"/>
<stop offset="1" style="stop-color:#E6ABFF;stop-opacity:1;"/>
</linearGradient>
<linearGradient id="linear3" gradientUnits="userSpaceOnUse" x1="32" y1="4.5" x2="32" y2="59.0464" spreadMethod="reflect" gradientTransform="matrix(1.25,0,0,1.25,0,0)">
<stop offset="0" style="stop-color:#1A6DFF;stop-opacity:1;"/>
<stop offset="1" style="stop-color:#C822FF;stop-opacity:1;"/>
</linearGradient>
</defs>
<g id="surface1">
<path style=" stroke:none;fill-rule:nonzero;fill:url(#linear0);" d="M 48.75 40 C 48.75 41.726563 47.351563 43.125 45.625 43.125 C 43.898438 43.125 42.5 41.726563 42.5 40 C 42.5 38.273438 43.898438 36.875 45.625 36.875 C 47.351563 36.875 48.75 38.273438 48.75 40 Z "/>
<path style=" stroke:none;fill-rule:nonzero;fill:url(#linear1);" d="M 37.5 40 C 37.5 41.726563 36.101563 43.125 34.375 43.125 C 32.648438 43.125 31.25 41.726563 31.25 40 C 31.25 38.273438 32.648438 36.875 34.375 36.875 C 36.101563 36.875 37.5 38.273438 37.5 40 Z "/>
<path style=" stroke:none;fill-rule:nonzero;fill:url(#linear2);" d="M 35 46.25 C 35 49.011719 37.238281 51.25 40 51.25 C 42.761719 51.25 45 49.011719 45 46.25 Z "/>
<path style=" stroke:none;fill-rule:nonzero;fill:url(#linear3);" d="M 40 7.5 C 22.078125 7.5 7.5 22.078125 7.5 40 C 7.5 57.921875 22.078125 72.5 40 72.5 C 57.921875 72.5 72.5 57.921875 72.5 40 C 72.5 22.078125 57.921875 7.5 40 7.5 Z M 40 10 C 56.542969 10 70 23.457031 70 40 C 70 47.265625 67.402344 53.933594 63.089844 59.132813 C 60.46875 55.597656 57.089844 52.726563 53.183594 50.710938 C 54.402344 49.019531 55.296875 47.089844 55.796875 45 L 56.25 45 C 59.695313 45 62.5 42.195313 62.5 38.75 C 62.5 35.304688 59.695313 32.5 56.25 32.5 L 56.1875 32.5 C 55.542969 24.125 48.539063 17.5 40 17.5 C 31.460938 17.5 24.457031 24.125 23.8125 32.5 L 23.75 32.5 C 20.304688 32.5 17.5 35.304688 17.5 38.75 C 17.5 42.195313 20.304688 45 23.75 45 L 24.203125 45 C 24.699219 47.089844 25.597656 49.019531 26.816406 50.710938 C 22.914063 52.730469 19.53125 55.597656 16.910156 59.128906 C 12.597656 53.933594 10 47.265625 10 40 C 10 23.457031 23.457031 10 40 10 Z M 28.503906 26.230469 C 28.585938 26.234375 28.667969 26.25 28.75 26.25 C 31.410156 26.25 33.574219 24.15625 33.722656 21.53125 C 34.507813 21.125 35.335938 20.796875 36.199219 20.546875 C 36.222656 20.78125 36.25 21.015625 36.25 21.25 C 36.25 25.386719 32.886719 28.75 28.75 28.75 C 28.242188 28.75 27.746094 28.695313 27.261719 28.597656 C 27.601563 27.765625 28.015625 26.972656 28.503906 26.230469 Z M 50.359375 24.734375 C 49.84375 24.910156 49.304688 25 48.75 25 C 46.179688 25 44.082031 23.046875 43.804688 20.546875 C 46.378906 21.292969 48.640625 22.765625 50.359375 24.734375 Z M 41.253906 20.0625 C 41.289063 24.171875 44.636719 27.5 48.75 27.5 C 49.835938 27.5 50.882813 27.25 51.847656 26.808594 C 52.273438 27.527344 52.628906 28.289063 52.917969 29.085938 C 51.617188 29.679688 50.203125 30 48.75 30 C 43.257813 30 38.789063 25.546875 38.753906 20.0625 C 39.164063 20.027344 39.578125 20 40 20 C 40.421875 20 40.839844 20.027344 41.253906 20.0625 Z M 26.25 33.75 C 26.25 32.808594 26.347656 31.890625 26.527344 31 C 27.25 31.167969 27.992188 31.25 28.75 31.25 C 32.640625 31.25 36.015625 29.011719 37.664063 25.753906 C 39.753906 29.757813 43.933594 32.5 48.75 32.5 C 50.417969 32.5 52.039063 32.144531 53.550781 31.511719 C 53.671875 32.242188 53.75 32.984375 53.75 33.75 L 53.75 41.25 C 53.75 48.832031 47.582031 55 40 55 C 32.417969 55 26.25 48.832031 26.25 41.25 Z M 40 57.5 C 44.507813 57.5 48.585938 55.652344 51.535156 52.679688 C 52.425781 53.117188 53.296875 53.59375 54.128906 54.125 C 50.390625 57.863281 45.332031 60 40 60 C 34.667969 60 29.613281 57.867188 25.871094 54.125 C 26.703125 53.59375 27.574219 53.117188 28.464844 52.679688 C 31.410156 55.652344 35.492188 57.5 40 57.5 Z M 56.25 35 C 58.316406 35 60 36.683594 60 38.75 C 60 40.816406 58.316406 42.5 56.25 42.5 Z M 23.75 41.25 L 23.75 42.5 C 21.683594 42.5 20 40.816406 20 38.75 C 20 36.683594 21.683594 35 23.75 35 Z M 40 70 C 31.640625 70 24.074219 66.5625 18.628906 61.027344 C 20.101563 58.964844 21.847656 57.140625 23.824219 55.589844 C 28.054688 59.984375 33.859375 62.5 40 62.5 C 46.140625 62.5 51.945313 59.984375 56.175781 55.589844 C 58.152344 57.140625 59.898438 58.964844 61.371094 61.027344 C 55.921875 66.5625 48.359375 70 40 70 Z "/>
</g>
</svg>
