<svg width="48" height="48" viewBox="0 0 48 48" fill="none" xmlns="http://www.w3.org/2000/svg">
<path d="M41.3377 22.2737C40.3684 19.0504 38.4045 16.2253 35.7968 13.8302C32.9804 11.2566 29.6343 9.30636 26.1266 7.83478C25.8446 7.71647 25.5609 7.60098 25.2755 7.48841C25.275 7.48819 25.2745 7.48801 25.274 7.48779C20.9561 12.6628 6 16.5249 6 27.3702C6 31.6126 8.68131 35.5763 12.6146 37.1676C15.0604 37.9963 17.6947 37.8422 20.0431 36.7727C22.3126 35.7392 24.0403 33.9196 25.4323 31.8907C26.9016 29.749 28.0204 27.3971 29.4165 25.2108C30.7137 23.1797 32.3717 21.1523 34.8319 20.5797C37.0621 20.0607 39.7047 20.6403 41.3377 22.2737Z" fill="#0058AB"/>
<path d="M41.4332 24.4739C40.4422 22.4927 38.3584 21.642 36.221 21.7428C34.1569 21.8401 32.6517 23.1538 31.503 24.7689C30.2032 26.5966 29.2905 28.6826 28.2292 30.6505C27.2065 32.547 26.1059 34.4052 24.6335 35.9929C23.0008 37.7536 20.9488 39.0804 18.6451 39.7775C19.7108 40.5451 21.1876 40.7173 22.461 40.7663C23.9005 40.8218 25.3558 40.6902 26.7723 40.4365C29.3595 39.9731 32.1528 39.0656 34.0654 37.177C31.0809 37.2156 28.6741 35.2086 28.46 32.1829C30.3798 34.508 33.2846 35.4036 36.1913 34.5761C38.738 33.8512 40.784 31.8376 41.6088 29.3292C42.1324 27.7368 42.184 26.006 41.4332 24.4739Z" fill="#0058AB"/>
</svg>
