<?xml version="1.0" encoding="UTF-8" standalone="no"?>
<!DOCTYPE svg PUBLIC "-//W3C//DTD SVG 1.1//EN" "http://www.w3.org/Graphics/SVG/1.1/DTD/svg11.dtd">
<svg width="100%" height="100%" viewBox="0 0 398 98" version="1.1" xmlns="http://www.w3.org/2000/svg" xmlns:xlink="http://www.w3.org/1999/xlink" xml:space="preserve" xmlns:serif="http://www.serif.com/" style="fill-rule:evenodd;clip-rule:evenodd;stroke-linejoin:round;stroke-miterlimit:2;">
    <path d="M218.013,20.338c-1.206,1.206 -1.809,2.688 -1.809,4.447c0,1.76 0.603,3.255 1.809,4.486c1.206,1.231 2.688,1.846 4.449,1.846c1.758,0 3.252,-0.615 4.484,-1.846c1.231,-1.231 1.847,-2.726 1.847,-4.486c0,-1.759 -0.616,-3.241 -1.847,-4.447c-1.232,-1.206 -2.726,-1.81 -4.484,-1.81c-1.761,0 -3.243,0.604 -4.449,1.81Zm0.339,14.661c-1.13,1.131 -1.695,2.502 -1.695,4.109l0,30.53c0,0.805 0.15,1.572 0.452,2.3c0.301,0.729 0.716,1.356 1.243,1.884c0.528,0.528 1.143,0.943 1.848,1.244c0.703,0.301 1.457,0.452 2.262,0.452c1.606,0 2.988,-0.577 4.145,-1.734c1.155,-1.155 1.734,-2.536 1.734,-4.146l0,-30.53c0,-0.803 -0.15,-1.557 -0.452,-2.261c-0.303,-0.703 -0.717,-1.32 -1.243,-1.848c-0.529,-0.527 -1.158,-0.942 -1.886,-1.243c-0.729,-0.302 -1.495,-0.452 -2.298,-0.452c-1.61,0 -2.978,0.565 -4.11,1.695Z" style="fill:url(#_Linear1);fill-rule:nonzero;"/>
    <path d="M277.263,20.338c-1.206,1.206 -1.809,2.688 -1.809,4.447c0,1.76 0.603,3.255 1.809,4.486c1.207,1.231 2.688,1.846 4.449,1.846c1.758,0 3.253,-0.615 4.484,-1.846c1.231,-1.231 1.848,-2.726 1.848,-4.486c0,-1.759 -0.617,-3.241 -1.848,-4.447c-1.231,-1.206 -2.726,-1.81 -4.484,-1.81c-1.761,0 -3.242,0.604 -4.449,1.81Zm0.34,14.661c-1.13,1.131 -1.696,2.502 -1.696,4.109l0,30.53c0,0.805 0.15,1.572 0.452,2.3c0.301,0.729 0.716,1.356 1.244,1.884c0.527,0.528 1.142,0.943 1.847,1.244c0.703,0.301 1.457,0.452 2.262,0.452c1.607,0 2.988,-0.577 4.146,-1.734c1.154,-1.155 1.734,-2.536 1.734,-4.146l0,-30.53c0,-0.803 -0.151,-1.557 -0.453,-2.261c-0.303,-0.703 -0.717,-1.32 -1.243,-1.848c-0.529,-0.527 -1.157,-0.942 -1.886,-1.243c-0.729,-0.302 -1.495,-0.452 -2.298,-0.452c-1.61,0 -2.978,0.565 -4.109,1.695Z" style="fill:url(#_Linear2);fill-rule:nonzero;"/>
    <path d="M296.485,61.384c-0.904,0.377 -1.684,0.905 -2.338,1.584c-0.652,0.678 -1.168,1.457 -1.545,2.336c-0.375,0.88 -0.565,1.822 -0.565,2.827c0,2.061 0.703,3.807 2.11,5.239c1.407,1.433 3.141,2.148 5.202,2.148c2.061,0 3.808,-0.715 5.241,-2.148c1.431,-1.432 2.147,-3.178 2.147,-5.239c0,-1.005 -0.188,-1.947 -0.565,-2.827c-0.377,-0.879 -0.904,-1.658 -1.582,-2.336c-0.679,-0.679 -1.471,-1.207 -2.376,-1.584c-0.905,-0.377 -1.859,-0.566 -2.865,-0.566c-1.005,0 -1.959,0.189 -2.864,0.566Z" style="fill:url(#_Linear3);fill-rule:nonzero;"/>
    <path d="M312.466,20.338c-1.207,1.206 -1.81,2.688 -1.81,4.447c0,1.76 0.603,3.255 1.81,4.486c1.205,1.231 2.687,1.846 4.448,1.846c1.758,0 3.252,-0.615 4.485,-1.846c1.231,-1.231 1.846,-2.726 1.846,-4.486c0,-1.759 -0.615,-3.241 -1.846,-4.447c-1.233,-1.206 -2.727,-1.81 -4.485,-1.81c-1.761,0 -3.243,0.604 -4.448,1.81Zm0.338,14.661c-1.13,1.131 -1.695,2.502 -1.695,4.109l0,36.41c0,1.406 -0.202,2.5 -0.603,3.28c-0.403,0.778 -0.894,1.432 -1.47,1.96c-0.579,0.528 -1.206,0.954 -1.884,1.281c-0.679,0.326 -1.308,0.728 -1.886,1.206c-0.577,0.477 -1.067,1.08 -1.47,1.81c-0.401,0.728 -0.603,1.721 -0.603,2.978c0,1.607 0.592,2.826 1.772,3.656c1.182,0.828 2.601,1.243 4.26,1.243c1.857,0 3.618,-0.365 5.277,-1.093c1.656,-0.729 3.101,-1.809 4.334,-3.241c1.231,-1.433 2.197,-3.242 2.902,-5.428c0.704,-2.186 1.055,-4.737 1.055,-7.652l0,-36.41c0,-0.803 -0.151,-1.557 -0.452,-2.261c-0.301,-0.703 -0.715,-1.32 -1.244,-1.848c-0.528,-0.527 -1.157,-0.942 -1.885,-1.243c-0.729,-0.302 -1.495,-0.452 -2.298,-0.452c-1.611,0 -2.979,0.565 -4.11,1.695Z" style="fill:url(#_Linear4);fill-rule:nonzero;"/>
    <path d="M143.046,19.621c-0.828,0.428 -1.508,0.969 -2.036,1.621c-0.527,0.653 -0.931,1.37 -1.206,2.149c-0.277,0.78 -0.415,1.521 -0.415,2.224c0,0.753 0.101,1.432 0.303,2.034l13.401,42.573c2.151,-5.941 4.474,-12.397 6.864,-19.098l-7.752,-27.545c-0.402,-1.406 -1.181,-2.525 -2.337,-3.355c-1.156,-0.829 -2.463,-1.244 -3.921,-1.244c-1.104,0 -2.073,0.215 -2.901,0.641Z" style="fill:url(#_Linear5);fill-rule:nonzero;"/>
    <path d="M172.22,20.149c-1.082,0.78 -1.898,1.898 -2.451,3.355l-9.8,27.666l-0.012,-0.046c-2.39,6.701 -4.713,13.157 -6.864,19.098l0.243,0.774c0.452,1.407 1.206,2.513 2.261,3.317c1.056,0.804 2.311,1.205 3.769,1.205c1.458,0 2.715,-0.388 3.77,-1.168c1.055,-0.778 1.834,-1.872 2.336,-3.279l10.631,-29.928l10.493,29.549c1.813,-6.071 3.752,-12.822 5.582,-19.679l-9.744,-27.509c-0.503,-1.457 -1.308,-2.575 -2.412,-3.355c-1.106,-0.778 -2.413,-1.169 -3.919,-1.169c-1.509,0 -2.803,0.391 -3.883,1.169Z" style="fill:url(#_Linear6);fill-rule:nonzero;"/>
    <path d="M202.335,20.224c-1.157,0.83 -1.935,1.949 -2.337,3.355l-7.764,27.591l-0.056,-0.157c-1.83,6.857 -3.769,13.608 -5.582,19.679l0.134,0.379c0.503,1.407 1.283,2.501 2.338,3.279c1.054,0.78 2.311,1.168 3.769,1.168c1.458,0 2.714,-0.401 3.769,-1.205c1.055,-0.804 1.809,-1.91 2.261,-3.317l13.645,-43.347c0.2,-0.602 0.301,-1.281 0.301,-2.034c0,-0.703 -0.139,-1.444 -0.415,-2.224c-0.276,-0.779 -0.678,-1.496 -1.206,-2.149c-0.526,-0.652 -1.204,-1.193 -2.035,-1.621c-0.829,-0.426 -1.797,-0.641 -2.901,-0.641c-1.458,0 -2.765,0.415 -3.921,1.244Z" style="fill:url(#_Linear7);fill-rule:nonzero;"/>
    <path d="M262.038,34.66l-15.683,12.589l0,10.861l14.25,15.298c0.652,0.705 1.419,1.232 2.299,1.584c0.878,0.351 1.746,0.526 2.6,0.526c0.554,0 1.157,-0.1 1.811,-0.301c0.651,-0.2 1.254,-0.528 1.809,-0.981c0.552,-0.452 1.017,-1.054 1.395,-1.809c0.375,-0.753 0.564,-1.657 0.564,-2.713c0,-0.754 -0.139,-1.508 -0.414,-2.262c-0.277,-0.753 -0.717,-1.406 -1.32,-1.959l-13.116,-12.665l13.267,-9.423c0.704,-0.502 1.206,-1.131 1.508,-1.884c0.301,-0.754 0.452,-1.533 0.452,-2.337c0,-1.056 -0.202,-1.96 -0.603,-2.715c-0.403,-0.753 -0.893,-1.368 -1.47,-1.846c-0.578,-0.477 -1.194,-0.816 -1.847,-1.018c-0.654,-0.2 -1.257,-0.301 -1.81,-0.301c-1.357,0 -2.588,0.452 -3.692,1.356Z" style="fill:url(#_Linear8);fill-rule:nonzero;"/>
    <g opacity="0.1">
        <path d="M159.969,51.17l-6.877,19.052l-1.606,-5.102l8.483,-13.95Z" style="fill-rule:nonzero;"/>
    </g>
    <g opacity="0.1">
        <path d="M192.234,51.17l-5.638,19.522l-1.808,-5.092l7.446,-14.43Z" style="fill-rule:nonzero;"/>
    </g>
    <g opacity="0.1">
        <path d="M246.433,47.174l3.604,14.88l-3.682,-3.945l0.078,-10.935Z" style="fill-rule:nonzero;"/>
    </g>
    <path d="M236.444,20.677c-1.13,1.131 -1.696,2.501 -1.696,4.108l0,44.853c0,0.805 0.151,1.572 0.452,2.3c0.303,0.729 0.717,1.356 1.244,1.884c0.528,0.528 1.144,0.943 1.846,1.244c0.705,0.301 1.458,0.452 2.262,0.452c1.608,0 2.991,-0.577 4.146,-1.734c1.156,-1.155 1.735,-2.536 1.735,-4.146l0,-44.853c0,-0.803 -0.151,-1.557 -0.452,-2.261c-0.302,-0.703 -0.717,-1.319 -1.244,-1.847c-0.528,-0.528 -1.156,-0.942 -1.885,-1.245c-0.729,-0.3 -1.496,-0.452 -2.3,-0.452c-1.608,0 -2.977,0.566 -4.108,1.697Z" style="fill:url(#_Linear9);fill-rule:nonzero;"/>
    <path d="M329.615,60.253c-1.031,0.981 -1.545,2.476 -1.545,4.485c0,1.659 0.589,3.167 1.771,4.524c1.18,1.356 2.651,2.538 4.41,3.543c1.759,1.005 3.643,1.784 5.654,2.336c2.01,0.553 3.844,0.829 5.503,0.829c2.31,0 4.485,-0.3 6.521,-0.904c2.035,-0.603 3.831,-1.494 5.389,-2.676c0.582,-0.442 1.104,-0.94 1.596,-1.466c-0.772,-4.296 -3.93,-8.44 -11.441,-11.435c0.494,0.22 0.955,0.448 1.364,0.689c0.981,0.578 1.471,1.345 1.471,2.299c0,1.006 -0.479,1.721 -1.432,2.148c-0.956,0.428 -1.936,0.641 -2.94,0.641c-1.157,0 -2.225,-0.339 -3.204,-1.017c-0.981,-0.678 -1.935,-1.419 -2.865,-2.224c-0.93,-0.803 -1.898,-1.546 -2.902,-2.224c-1.006,-0.679 -2.061,-1.018 -3.166,-1.018c-1.76,0 -3.155,0.49 -4.184,1.47Z" style="fill:url(#_Linear10);fill-rule:nonzero;"/>
    <g opacity="0.1">
        <path d="M358.914,70.921c-0.772,-4.297 -3.929,-8.441 -11.441,-11.435c0.494,0.219 0.955,0.447 1.365,0.689c0.23,0.135 0.427,0.283 0.603,0.44c0,-0.001 0,-0.001 -0.001,-0.002c0.001,0.001 0.001,0.002 0.002,0.003c0.023,0.02 0.045,0.04 0.068,0.061c4.582,4.051 7.041,7.921 8.022,11.529c0.495,-0.397 0.954,-0.827 1.382,-1.285" style="fill-rule:nonzero;"/>
    </g>
    <path d="M338.322,33.831c-1.76,0.654 -3.231,1.558 -4.41,2.714c-1.182,1.157 -2.049,2.514 -2.601,4.07c-0.554,1.559 -0.829,3.268 -0.829,5.127c0,2.363 0.49,4.272 1.47,5.729c0.98,1.459 2.198,2.652 3.656,3.581c1.457,0.931 3.053,1.647 4.787,2.148c1.733,0.503 3.329,0.98 4.787,1.433c0.847,0.263 1.605,0.55 2.291,0.856c7.511,2.995 10.669,7.139 11.441,11.435c0.822,-0.88 1.532,-1.865 2.098,-2.982c0.905,-1.783 1.357,-3.882 1.357,-6.294c0,-2.513 -0.49,-4.535 -1.471,-6.069c-0.979,-1.533 -2.197,-2.751 -3.655,-3.656c-1.458,-0.904 -3.042,-1.594 -4.749,-2.073c-1.71,-0.477 -3.293,-0.929 -4.749,-1.357c-1.459,-0.426 -2.677,-0.929 -3.656,-1.507c-0.981,-0.577 -1.471,-1.445 -1.471,-2.601c0,-0.552 0.189,-0.98 0.567,-1.281c0.375,-0.302 0.839,-0.452 1.394,-0.452c0.954,0 1.771,0.188 2.449,0.564c0.679,0.378 1.368,0.78 2.073,1.207c0.703,0.428 1.47,0.828 2.3,1.205c0.829,0.378 1.847,0.567 3.052,0.567c1.407,0 2.601,-0.503 3.582,-1.509c0.947,-0.971 1.425,-2.11 1.457,-3.411l-6.08,0c-1.294,0 -2.352,-1.059 -2.352,-2.351l0,-5.323c-0.139,-0.035 -0.27,-0.075 -0.414,-0.108c-1.835,-0.427 -3.856,-0.642 -6.067,-0.642c-2.413,0 -4.499,0.327 -6.257,0.98Z" style="fill:url(#_Linear11);fill-rule:nonzero;"/>
    <path d="M364.105,34.43c0,1.136 0.929,2.065 2.065,2.065l6.222,0c1.136,0 2.065,-0.929 2.065,-2.065l0,-6.222c0,-1.136 -0.929,-2.066 -2.065,-2.066l-6.222,0c-1.136,0 -2.065,0.93 -2.065,2.066l0,6.222Z" style="fill:#3f51b5;fill-rule:nonzero;"/>
    <path d="M381.136,36.6c0,1.137 0.93,2.066 2.066,2.066l3.216,0c1.136,0 2.065,-0.929 2.065,-2.066l0,-3.216c0,-1.136 -0.929,-2.065 -2.065,-2.065l-3.216,0c-1.136,0 -2.066,0.929 -2.066,2.065l0,3.216Z" style="fill:#3f51b5;fill-rule:nonzero;"/>
    <path d="M374.457,53.131c0,1.136 0.929,2.066 2.066,2.066l4.551,0c1.137,0 2.066,-0.93 2.066,-2.066l0,-4.552c0,-1.136 -0.929,-2.065 -2.066,-2.065l-4.551,0c-1.137,0 -2.066,0.929 -2.066,2.065l0,4.552Z" style="fill:#3f51b5;fill-rule:nonzero;"/>
    <path d="M392.491,44.615c0,1.137 0.929,2.066 2.065,2.066l0.879,0c1.136,0 2.065,-0.929 2.065,-2.066l0,-0.879c0,-1.135 -0.929,-2.064 -2.065,-2.064l-0.879,0c-1.136,0 -2.065,0.929 -2.065,2.064l0,0.879Z" style="fill:#3f51b5;fill-rule:nonzero;"/>
    <path d="M65.686,50.653c0,0 20.812,0.75 30.375,9c9.562,8.25 16.125,24 13.312,37.688c-5.625,-1.313 -29.625,-5.438 -39.375,-17.438c-9.75,-12 -9.375,-20.437 -8.25,-25.5c1.125,-5.062 3.938,-3.75 3.938,-3.75" style="fill:#1c9cf3;fill-rule:nonzero;"/>
    <path d="M62.038,54.454c-0.475,2.139 -0.988,5.498 0.046,9.953c1.125,4.848 3.801,10.068 8.198,15.31c10.06,11.993 38.391,16.857 38.735,16.932c1.077,-6.234 0.35,-12.729 -2.175,-19.516c-2.494,-6.704 -6.5,-12.668 -11.279,-16.793c-9.415,-8.121 -30.26,-8.963 -30.469,-8.97l-0.215,-0.008l-0.155,-0.081c-0.002,0 -0.177,-0.067 -0.418,-0.067c-0.998,0 -1.803,1.15 -2.268,3.24Z" style="fill:url(#_Radial12);fill-rule:nonzero;"/>
    <path d="M60.248,50.653c0,0 2.625,5.438 -3.562,13.688c-6.188,8.25 -19.125,21.562 -51.375,18.75c1.125,-7.688 6.75,-15.563 12.937,-21.188c6.188,-5.625 20.063,-11.437 29.25,-11.625c9.188,-0.187 12.75,0.375 12.75,0.375" style="fill:#04bbf3;fill-rule:nonzero;"/>
    <path d="M47.661,51.007c-4.286,0.087 -10.037,1.469 -15.783,3.792c-5.597,2.262 -10.53,5.127 -13.534,7.858c-6.762,6.148 -11.115,13.417 -12.413,19.94c2.596,0.201 7.447,0.302 7.447,0.302c11.549,0 21.195,-2.117 29.11,-6.626c7.017,-3.996 11.231,-8.995 13.79,-12.407c4.909,-6.545 4.149,-11.122 3.717,-12.555c-1.08,-0.116 -3.81,-0.344 -8.669,-0.344c-1.165,0 -2.398,0.013 -3.665,0.04Z" style="fill:url(#_Linear13);fill-rule:nonzero;"/>
    <path d="M125.873,31.528c0,0 -3.75,10.875 -22.125,16.125c-18.375,5.25 -38.062,1.875 -38.062,1.875c0,0 4.687,-12.375 18.187,-18.187c13.5,-5.813 37.313,-0.563 42,0.187" style="fill:#02bef3;fill-rule:nonzero;"/>
    <path d="M83.538,32.552c-10.988,4.731 -16.174,13.887 -17.695,17.055c2.266,0.309 7.463,0.902 13.983,0.902c8.656,0 16.566,-1.006 23.51,-2.99c14.825,-4.235 20.235,-12.672 21.72,-15.505c-0.243,-0.043 -17.126,-3.378 -26.758,-3.378c-6.903,0 -10.593,2.121 -14.76,3.916Z" style="fill:url(#_Radial14);fill-rule:nonzero;"/>
    <path d="M59.915,51.278c0,0 -26.74,-1.259 -42.435,-12.71c-15.696,-11.451 -15.334,-15.226 -15.334,-15.226c0,0 17.599,-0.054 26.286,3.078c8.688,3.133 22.336,11.948 31.483,24.858" style="fill:#02bef3;fill-rule:nonzero;"/>
    <path d="M18.403,38.359c6.069,4.428 13.396,7.558 22.006,9.664c0.002,0.001 0.002,0.001 0.004,0.001c9.149,1.098 16.735,2.791 18.559,2.947c-4.016,-5.463 -9.015,-10.405 -14.381,-14.518c-5.193,-3.99 -10.674,-7.143 -15.228,-8.942c-0.845,-0.337 -1.74,-0.639 -2.662,-0.915c-8.018,-2.397 -21.465,-2.554 -23.533,-2.584c0.509,0.942 2.299,4.909 15.235,14.347Z" style="fill:url(#_Radial15);fill-rule:nonzero;"/>
    <path d="M60.107,53.87c2.377,0.304 3.66,5.62 2.862,11.865c-0.798,6.244 -3.376,11.067 -5.754,10.763c-2.377,-0.303 -3.66,-5.62 -2.862,-11.864c0.798,-6.245 3.376,-11.068 5.754,-10.764Z" style="fill:url(#_Radial16);"/>
    <g>
        <path d="M63.623,50.523c-7.957,1.497 3.291,37.119 15.337,42.529c23.156,10.401 35.993,-9.611 35.993,-16.859c0,-7.249 -31.884,-29.326 -51.33,-25.67Z" style="fill:url(#_Radial17);fill-rule:nonzero;"/>
        <path d="M52.38,60.705c-2.895,5.261 20.366,23.165 30.768,21.166c10.402,-1.999 24.271,-12.529 23.192,-18.252c-1.079,-5.724 -19.995,-21.583 -35.131,-15.913c-9.929,3.719 -15.934,7.738 -18.829,12.999Z" style="fill:url(#_Radial18);fill-rule:nonzero;"/>
        <path d="M62.304,63.032c-2.177,5.597 13.08,21.534 23.128,18.182c10.048,-3.352 22.409,-15.617 20.586,-21.148c-1.824,-5.531 -22.664,-18.761 -36.921,-11.146c-9.352,4.994 -4.616,8.515 -6.793,14.112Z" style="fill:url(#_Radial19);fill-rule:nonzero;"/>
        <path d="M60.721,60.475c-1.854,4.721 11.081,18.141 19.616,15.304c8.535,-2.837 19.043,-13.191 17.501,-17.853c-1.542,-4.662 -19.221,-15.793 -31.334,-9.357c-7.945,4.221 -3.928,7.185 -5.783,11.906Z" style="fill:url(#_Radial20);fill-rule:nonzero;"/>
    </g>
    <g>
        <path d="M63.547,59.973c-1.577,4.793 -19.173,24.596 -31.312,27.374c-12.14,2.779 -24.093,-9.922 -25.212,-15.785c-1.119,-5.862 17.202,-22.572 35.975,-24.02c12.314,-0.95 23.195,4.395 20.549,12.431" style="fill:url(#_Radial21);fill-rule:nonzero;"/>
        <path d="M63.205,57.315c-1.214,5.58 -17.369,27.784 -29.357,30.149c-11.989,2.368 -24.988,-13.673 -26.567,-20.736c-1.578,-7.063 15.545,-25.529 34.305,-25.798c12.304,-0.177 23.656,7.026 21.619,16.385" style="fill:url(#_Radial22);fill-rule:nonzero;"/>
        <path d="M54.504,60.754c-1.717,3.102 -15.803,13.833 -23.882,13.516c-8.079,-0.316 -13.708,-11.577 -13.531,-15.946c0.177,-4.369 14.255,-12.768 26.319,-10.259c7.913,1.647 13.974,7.488 11.094,12.689" style="fill:url(#_Radial23);fill-rule:nonzero;"/>
    </g>
    <path d="M36.741,55.538c-3.519,0.436 -20.482,-4.644 -24.978,-11.365c-4.497,-6.719 1.299,-17.895 4.937,-20.322c3.637,-2.426 18.71,4.018 23.777,15.251c3.323,7.368 2.164,15.705 -3.736,16.436" style="fill:url(#_Radial24);fill-rule:nonzero;"/>
    <g>
        <path d="M98.43,26.371c15.231,-2.015 28.385,2.308 29.356,9.649c0.972,7.34 -10.605,14.936 -25.836,16.951c-15.231,2.015 -28.384,-2.308 -29.356,-9.648c-0.971,-7.341 10.606,-14.936 25.836,-16.952Z" style="fill:url(#_Radial25);"/>
        <path d="M101.52,27.364c13.736,1.417 24.292,8.341 23.559,15.452c-0.734,7.111 -12.482,11.734 -26.218,10.316c-13.737,-1.417 -24.293,-8.341 -23.559,-15.452c0.734,-7.111 12.481,-11.734 26.218,-10.316Z" style="fill:url(#_Radial26);"/>
        <path d="M91.728,29.668c11.581,-1.43 21.601,2.407 22.36,8.562c0.76,6.154 -8.027,12.311 -19.608,13.74c-11.582,1.429 -21.602,-2.407 -22.361,-8.562c-0.76,-6.154 8.027,-12.311 19.609,-13.74Z" style="fill:url(#_Radial27);"/>
    </g>
    <path d="M61.347,51.035c0.022,0.368 0.979,7.845 -5.49,10.653c-5.003,2.171 -11.153,3.242 -24.791,-2.947c-13.639,-6.188 -18.378,-15.179 -18.378,-15.179c0,0 7.629,2.802 12.367,3.153c4.739,0.35 16.99,2.101 20.111,2.685c3.12,0.584 8.668,0.117 10.749,-0.35c2.08,-0.468 5.201,-1.752 5.432,1.985" style="fill:#b3c3ce;fill-rule:nonzero;"/>
    <path d="M31.065,58.366c13.639,6.189 19.79,5.118 24.792,2.948c6.468,-2.809 5.512,-10.286 5.49,-10.655c-0.232,-3.736 -3.352,-2.451 -5.432,-1.984c-2.081,0.467 -7.49,0.137 -11.979,-0.178c-5.344,-0.375 -13.969,-1.5 -18.88,-2.158c-4.71,-0.63 -12.368,-3.153 -12.368,-3.153c0,0 4.74,8.991 18.377,15.18Z" style="fill:url(#_Linear28);fill-rule:nonzero;"/>
    <path d="M57.256,44.227c0,0 -4.342,-3.433 -7.875,-7.168c-3.534,-3.736 -14.943,-14.539 -17.77,-17.467c-2.826,-2.927 -10.5,-12.923 -11.51,-17.164c-2.322,5.15 -3.836,14.539 -1.009,23.626c2.826,9.087 9.39,15.649 18.072,19.284c8.683,3.634 16.255,3.433 18.375,3.433c2.121,0 5.049,-1.414 1.717,-4.544" style="fill:#f5f6f2;fill-rule:nonzero;"/>
    <path d="M19.467,26.054c2.827,9.086 9.39,15.649 18.073,19.283c8.682,3.636 16.254,3.687 18.375,3.687c1.197,0 4.989,-0.152 5.177,-0.714c0.403,-1.211 -1.926,-2.108 -3.375,-3.469c-3.848,-3.042 -3.776,-3.358 -7.961,-7.782c-3.534,-3.736 -14.943,-14.539 -17.769,-17.467c-2.827,-2.928 -10.502,-12.923 -11.511,-17.164c-2.322,5.149 -3.837,14.539 -1.009,23.626Z" style="fill:url(#_Linear29);fill-rule:nonzero;"/>
    <path d="M105.331,7.54c-3.75,3.375 -10.395,7.863 -16.77,11.988c-6.375,4.125 -10.5,11.063 -15.375,18.375c-4.875,7.313 -9.75,10.875 -9.75,10.875c0,0 7.687,1.125 15,1.125c11.256,0 24,-9.375 28.687,-14.437c4.688,-5.063 7.838,-13.31 7.875,-21.75c0.043,-9.861 -4.519,-11.792 -4.519,-11.792c0,0 -1.398,2.241 -5.148,5.616Z" style="fill:url(#_Linear30);fill-rule:nonzero;"/>
    <path d="M105.859,6.779c-3.751,3.375 -11.298,8.624 -17.673,12.749c-6.375,4.125 -10.5,11.063 -15.375,18.375c-3.75,5.626 -8.444,8.724 -10.41,10.329c-0.59,0.482 -0.934,1.765 -0.934,1.765c6.769,0.99 8.351,-0.094 16.594,-0.094c11.255,0 24,-9.375 28.687,-14.437c4.688,-5.063 7.688,-13.313 7.875,-21.75c0.188,-8.438 -4.125,-11.813 -4.125,-11.813c0,0 -0.89,1.501 -4.639,4.876Z" style="fill:url(#_Linear31);fill-rule:nonzero;"/>
    <g>
        <path d="M44.632,31.45c8.133,5.258 12.662,12.735 10.107,16.686c-2.555,3.952 -11.232,2.89 -19.364,-2.368c-8.133,-5.259 -12.662,-12.736 -10.107,-16.687c2.555,-3.951 11.232,-2.89 19.364,2.369Z" style="fill:url(#_Radial32);"/>
        <path d="M43.849,30.894c7.726,5.84 12.066,13.139 9.684,16.29c-2.382,3.151 -10.588,0.968 -18.314,-4.871c-7.726,-5.839 -12.065,-13.139 -9.684,-16.29c2.382,-3.151 10.588,-0.968 18.314,4.871Z" style="fill:url(#_Radial33);"/>
    </g>
    <g>
        <path d="M78.741,36.006c8.038,-4.494 15.958,-5.648 17.675,-2.577c1.716,3.071 -3.415,9.212 -11.453,13.706c-8.038,4.493 -15.957,5.648 -17.674,2.577c-1.717,-3.071 3.415,-9.212 11.452,-13.706Z" style="fill:url(#_Radial34);"/>
        <path d="M81.132,32.187c7.951,-4.445 15.94,-5.31 17.83,-1.93c1.89,3.38 -3.032,9.733 -10.983,14.178c-7.951,4.445 -15.94,5.31 -17.829,1.93c-1.89,-3.38 3.031,-9.733 10.982,-14.178Z" style="fill:url(#_Radial35);"/>
        <path d="M80.126,35.267c7.501,-5.169 15.482,-6.621 17.812,-3.24c2.331,3.381 -1.867,10.323 -9.367,15.493c-7.5,5.169 -15.481,6.621 -17.812,3.24c-2.33,-3.381 1.867,-10.323 9.367,-15.493Z" style="fill:url(#_Radial36);"/>
        <path d="M89.308,27.918c2.879,-6.448 7.508,-10.659 10.333,-9.399c2.824,1.261 2.78,7.52 -0.098,13.967c-2.879,6.448 -7.509,10.659 -10.333,9.399c-2.824,-1.261 -2.78,-7.519 0.098,-13.967Z" style="fill:url(#_Radial37);"/>
    </g>
    <path d="M26.696,18.134c-0.805,5.903 0.586,11.978 3.363,15.977c2.778,4.002 10.763,11.808 18.631,12.918c5.111,0.719 10.596,0.69 10.596,0.69c0,0 -3.058,-2.97 -5.745,-8.562c-2.687,-5.591 -4.888,-10.846 -8.937,-14.358c-4.05,-3.51 -8.254,-7.302 -10.543,-10.031c-2.288,-2.728 -3.044,-4.431 -3.044,-4.431c0,0 -3.38,0.899 -4.321,7.797Z" style="fill:url(#_Linear38);fill-rule:nonzero;"/>
    <path d="M26.959,18.171c-0.7,5.916 0.585,11.978 3.363,15.978c2.778,4 10.762,11.808 18.63,12.916c5.762,0.812 6.31,1.127 11.139,1.101c0,0 -3.6,-3.381 -6.288,-8.972c-2.688,-5.591 -4.887,-10.847 -8.937,-14.358c-4.05,-3.51 -8.808,-7.923 -11.097,-10.651c-2.289,-2.728 -2.764,-3.865 -2.764,-3.865c0,0 -3.347,1.934 -4.046,7.851Z" style="fill:url(#_Linear39);fill-rule:nonzero;"/>
    <g>
        <path d="M57.708,51.938c1.06,3.068 -2.837,7.203 -8.697,9.227c-5.861,2.024 -11.479,1.176 -12.539,-1.892c-1.059,-3.069 2.838,-7.203 8.698,-9.227c5.86,-2.024 11.479,-1.176 12.538,1.892Z" style="fill:url(#_Radial40);"/>
        <path d="M55.199,53.999c0.119,2.902 -4.178,5.44 -9.592,5.663c-5.413,0.223 -9.904,-1.952 -10.024,-4.854c-0.12,-2.903 4.178,-5.44 9.591,-5.664c5.413,-0.223 9.905,1.953 10.025,4.855Z" style="fill:url(#_Radial41);"/>
        <path d="M60.024,52.648c0.852,2.014 -2.078,5.179 -6.538,7.064c-4.459,1.885 -8.771,1.781 -9.622,-0.233c-0.851,-2.014 2.079,-5.179 6.538,-7.064c4.46,-1.885 8.771,-1.78 9.622,0.233Z" style="fill:url(#_Radial42);"/>
    </g>
    <path d="M33.667,51.566c2.166,3.131 5.442,5.398 8.477,6.086c3.035,0.69 10.168,0.927 14.358,-1.941c2.722,-1.866 5.295,-4.245 5.295,-4.245c0,0 -2.723,-0.081 -6.401,-1.56c-3.679,-1.479 -6.984,-3.009 -10.407,-2.919c-3.425,0.09 -7.043,0.115 -9.299,-0.185c-2.257,-0.299 -3.348,-0.777 -3.348,-0.777c0,0 -1.205,1.882 1.325,5.541Z" style="fill:url(#_Linear43);fill-rule:nonzero;"/>
    <path d="M33.807,51.471c2.221,3.091 5.441,5.396 8.476,6.086c3.036,0.688 10.17,0.928 14.358,-1.942c3.068,-2.103 3.462,-2.19 5.729,-4.285c0,0 -3.155,-0.041 -6.835,-1.52c-3.679,-1.478 -6.982,-3.009 -10.407,-2.918c-3.424,0.091 -7.572,0.062 -9.828,-0.238c-2.256,-0.3 -2.97,-0.632 -2.97,-0.632c0,0 -0.745,2.356 1.477,5.449Z" style="fill:url(#_Linear44);fill-rule:nonzero;"/>
    <path d="M100.92,50.491c-3.373,1.42 -18.374,0.622 -23.876,0c-5.503,-0.621 -11.189,-0.525 -12.25,-0.621c-3.796,-0.342 -3.106,0.887 -3.373,4.704c-0.621,10.563 3.373,12.693 6.302,13.137c2.93,0.444 5.593,-0.976 5.593,-0.976c0,0 29.024,-13.137 31.687,-14.558c0.496,-2.724 0.376,-3.586 -0.232,-3.586c-0.7,0 -2.047,1.141 -3.851,1.9Z" style="fill:url(#_Radial45);fill-rule:nonzero;"/>
    <g>
        <path d="M73.82,53.958c4.948,3.511 7.617,8.26 5.958,10.598c-1.66,2.339 -7.024,1.386 -11.971,-2.126c-4.948,-3.511 -7.617,-8.26 -5.958,-10.599c1.66,-2.338 7.024,-1.385 11.971,2.127Z" style="fill:url(#_Radial46);"/>
        <path d="M72.54,53.958c3.799,2.696 5.535,6.783 3.876,9.121c-1.66,2.338 -6.091,2.047 -9.889,-0.649c-3.799,-2.696 -5.535,-6.783 -3.876,-9.121c1.66,-2.338 6.091,-2.047 9.889,0.649Z" style="fill:url(#_Radial47);"/>
        <path d="M76.317,54.251c3.798,2.696 5.534,6.783 3.875,9.121c-1.66,2.338 -6.091,2.048 -9.889,-0.648c-3.798,-2.696 -5.535,-6.783 -3.875,-9.122c1.659,-2.338 6.09,-2.047 9.889,0.649Z" style="fill:url(#_Radial48);"/>
    </g>
    <path d="M63.496,55.18c2.637,4.341 9.236,7.059 12.286,7.681c3.05,0.622 6.968,-0.097 10.231,-2.059c3.811,-2.292 3.487,-4.503 3.487,-4.503c0,0 -1.191,-0.015 -3.37,-0.669c-2.18,-0.657 -5.468,-2.168 -8.551,-3.66c-3.083,-1.491 -6.724,-1.457 -10.686,-1.624c-3.961,-0.167 -6.476,-1.212 -6.476,-1.212c0,0 1.366,3.228 3.079,6.046Z" style="fill:url(#_Linear49);fill-rule:nonzero;"/>
    <path d="M63.409,55.036c2.635,4.341 9.235,7.059 12.285,7.68c3.05,0.622 6.933,-0.154 10.23,-2.058c3.298,-1.903 3.588,-4.356 3.588,-4.356c0,0 -0.786,0.007 -2.965,-0.648c-2.18,-0.656 -5.972,-2.337 -9.056,-3.828c-3.083,-1.492 -6.724,-1.458 -10.686,-1.624c-3.961,-0.168 -6.854,-1.429 -6.854,-1.429c1.203,2.843 1.527,3.085 3.458,6.263Z" style="fill:url(#_Linear50);fill-rule:nonzero;"/>
    <path d="M104.029,52.622c0,0 1.219,-0.937 1.125,-2.812c-0.093,-1.875 0.375,-4.688 -9.562,-10.782c-3.281,5.907 -14.625,21.657 -19.594,25.219c-4.969,3.563 -5.765,3.442 -5.765,3.442c0,0 2.871,-0.343 5.39,-2.223c2.723,-2.032 28.406,-12.844 28.406,-12.844" style="fill:#cbd3dd;fill-rule:nonzero;"/>
    <path d="M76.373,64.435c-3.085,2.212 -4.026,2.655 -4.716,2.945c0.257,-0.077 2.189,-0.583 4.341,-1.726c3,-1.594 28.406,-12.844 28.406,-12.844c0,0 1.219,-0.938 1.125,-2.813c-0.093,-1.875 0.375,-4.687 -9.562,-10.781c-3.281,5.906 -14.625,21.657 -19.594,25.219Z" style="fill:url(#_Linear51);fill-rule:nonzero;"/>
    <path d="M60.909,53.32c-0.618,-0.001 -6.022,9.819 -3.491,21.069c0,0 3.615,-4.338 4.058,-15.247c0.183,-4.5 -0.133,-5.822 -0.567,-5.822Z" style="fill:url(#_Linear52);fill-rule:nonzero;"/>
    <path d="M46.823,22.051c1.272,-1.24 5.598,-0.248 6.615,1.116c0.995,1.333 6.118,6.458 5.875,14.213c0.788,0.033 1.832,0.17 3.031,0.17c1.036,0 1.994,-0.102 2.781,-0.152c-0.252,-7.765 4.878,-12.897 5.873,-14.231c1.017,-1.364 5.343,-2.356 6.615,-1.116c1.273,1.24 -2.035,1.116 -3.562,0.744c-4.941,1.094 -8.097,12.039 -8.769,14.594c1.152,-0.063 1.896,0.018 1.896,0.781c0,1.156 -1.619,3.021 -3.872,3.221c0.092,0.464 0.627,3.053 0.024,5.777c-0.245,1.107 -2.519,2.36 -2.519,2.36c-2.415,-7.912 -0.023,-8.682 0.01,-8.748c-1.978,-0.296 -3.057,-1.549 -3.057,-2.61c0,-0.676 0.517,-0.817 1.387,-0.796c-0.681,-2.582 -3.835,-13.487 -8.765,-14.579c-1.527,0.372 -4.835,0.496 -3.563,-0.744" style="fill:#00c6f9;fill-rule:nonzero;"/>
    <path d="M70.998,23.542c-0.995,1.335 -6.125,6.465 -5.873,14.232c-0.787,0.049 -1.746,0.151 -2.781,0.151c-1.199,0 -2.243,-0.136 -3.031,-0.17c0.243,-7.755 -4.88,-12.88 -5.874,-14.213c-1.018,-1.365 -5.344,-2.356 -6.616,-1.116c-1.272,1.24 2.036,1.116 3.563,0.744c4.93,1.092 8.084,11.997 8.765,14.579c-0.87,-0.02 -1.387,0.12 -1.387,0.796c0,1.061 0.786,2.39 2.763,2.684c-0.033,0.066 -1.658,1.243 0.284,8.674c0,0 3.102,-0.292 2.628,-6.639c-0.054,-0.733 -0.13,-1.319 -0.223,-1.783c2.252,-0.201 3.962,-1.781 3.962,-2.936c0,-0.762 -0.744,-0.843 -1.897,-0.781c0.674,-2.555 3.829,-13.5 8.77,-14.594c1.527,0.372 4.835,0.496 3.562,-0.744c-0.408,-0.398 -1.13,-0.566 -1.956,-0.566c-1.75,0 -3.968,0.755 -4.659,1.682Z" style="fill:url(#_Radial53);fill-rule:nonzero;"/>
    <path d="M50.005,10.069c-0.937,1.89 2.368,2.172 3.493,1.605c3.635,1.665 5.958,18.288 6.46,22.224c-0.641,-0.032 -1.022,0.182 -1.022,1.212c0,1.617 0.873,3.929 2.329,4.38c-0.024,0.1 -0.037,0.16 -0.037,0.16c0,0 -2.48,4.628 -0.417,14.753c0,0 2.307,-5.062 2.307,-12.099c0,-1.119 -0.096,-2.01 -0.165,-2.718c1.66,-0.306 2.92,-2.714 2.92,-4.476c0,-1.161 -0.547,-1.285 -1.397,-1.189c0.387,-4.644 1.969,-20.385 6.463,-22.247c1.125,0.567 4.286,0.354 3.348,-1.536c-0.937,-1.89 -4.255,-0.383 -5.571,1.387c-1.445,1.942 -4.932,10.629 -4.747,22.466c-0.579,0.076 -0.896,0.174 -1.658,0.174c-0.883,0 -1.653,-0.208 -2.234,-0.259c0.179,-11.822 -3.677,-19.606 -4.329,-21.665c-0.616,-1.95 -2.533,-3.102 -4.027,-3.102c-0.755,0 -1.401,0.295 -1.716,0.93Z" style="fill:url(#_Linear54);fill-rule:nonzero;"/>
    <path d="M50.005,10.437c-0.937,1.874 2.368,2.154 3.493,1.591c3.635,1.652 5.958,18.142 6.46,22.047c-0.641,-0.031 -1.022,0.181 -1.022,1.203c0,1.604 0.873,3.897 2.329,4.344c-0.024,0.099 -0.037,0.159 -0.037,0.159c0,0 -4.295,14.834 -1.47,24.548c0,0 3.708,-12.317 3.36,-21.915c-0.04,-1.109 -0.096,-1.994 -0.165,-2.697c1.66,-0.302 2.92,-2.691 2.92,-4.439c0,-1.153 -0.547,-1.275 -1.397,-1.181c0.387,-4.606 1.969,-20.221 6.463,-22.069c1.125,0.563 4.286,0.352 3.348,-1.523c-0.937,-1.875 -4.255,-0.38 -5.571,1.376c-1.445,1.926 -4.932,10.544 -4.747,22.287c-0.579,0.075 -0.896,0.173 -1.658,0.173c-0.883,0 -1.653,-0.207 -2.234,-0.257c0.179,-11.729 -3.677,-19.449 -4.329,-21.493c-0.616,-1.934 -2.533,-3.077 -4.027,-3.077c-0.754,0.001 -1.401,0.293 -1.716,0.923Z" style="fill:url(#_Linear55);fill-rule:nonzero;"/>
    <path d="M66.278,44.291c0,0 3.743,-2.96 6.791,-6.181c3.047,-3.222 12.885,-12.537 15.323,-15.063c2.438,-2.524 9.055,-11.144 9.926,-14.801c2.003,4.441 3.308,12.538 0.87,20.373c-2.437,7.836 -8.097,13.496 -15.584,16.63c-7.488,3.134 -14.018,2.96 -15.845,2.96c-1.829,0 -4.354,-1.219 -1.481,-3.918" style="fill:#f5f6f2;fill-rule:nonzero;"/>
    <path d="M88.069,23.047c-2.439,2.526 -12.276,11.841 -15.323,15.063c-3.609,3.815 -3.547,4.087 -6.865,6.711c-1.25,1.173 -3.205,2.507 -2.946,3.072c0.259,0.564 3.467,0.316 4.5,0.316c1.828,0 8.358,0.174 15.846,-2.96c7.487,-3.134 13.146,-8.794 15.584,-16.629c2.439,-7.836 1.132,-15.933 -0.871,-20.374c-0.87,3.658 -7.487,12.277 -9.925,14.801Z" style="fill:url(#_Linear56);fill-rule:nonzero;"/>
    <defs>
        <linearGradient id="_Linear1" x1="0" y1="0" x2="1" y2="0" gradientUnits="userSpaceOnUse" gradientTransform="matrix(0,56.99,-56.99,0,222.499,18.5284)"><stop offset="0" style="stop-color:#3f51b5;stop-opacity:1"/><stop offset="1" style="stop-color:#313a78;stop-opacity:1"/></linearGradient>
        <linearGradient id="_Linear2" x1="0" y1="0" x2="1" y2="0" gradientUnits="userSpaceOnUse" gradientTransform="matrix(0,56.99,-56.99,0,281.749,18.5284)"><stop offset="0" style="stop-color:#3f51b5;stop-opacity:1"/><stop offset="1" style="stop-color:#313a78;stop-opacity:1"/></linearGradient>
        <linearGradient id="_Linear3" x1="0" y1="0" x2="1" y2="0" gradientUnits="userSpaceOnUse" gradientTransform="matrix(0,-56.6692,56.6692,-0,299.387,73.7943)"><stop offset="0" style="stop-color:#2196f3;stop-opacity:1"/><stop offset="0.01" style="stop-color:#2196f3;stop-opacity:1"/><stop offset="1" style="stop-color:#00c0f3;stop-opacity:1"/></linearGradient>
        <linearGradient id="_Linear4" x1="0" y1="0" x2="1" y2="0" gradientUnits="userSpaceOnUse" gradientTransform="matrix(0,-56.6692,56.6692,-0,313.219,73.7943)"><stop offset="0" style="stop-color:#2196f3;stop-opacity:1"/><stop offset="0.01" style="stop-color:#2196f3;stop-opacity:1"/><stop offset="1" style="stop-color:#00c0f3;stop-opacity:1"/></linearGradient>
        <linearGradient id="_Linear5" x1="0" y1="0" x2="1" y2="0" gradientUnits="userSpaceOnUse" gradientTransform="matrix(17.0441,33.7943,-33.7943,17.0441,139.694,21.0801)"><stop offset="0" style="stop-color:#3f51b5;stop-opacity:1"/><stop offset="1" style="stop-color:#313a78;stop-opacity:1"/></linearGradient>
        <linearGradient id="_Linear6" x1="0" y1="0" x2="1" y2="0" gradientUnits="userSpaceOnUse" gradientTransform="matrix(23.1173,-6.36705,6.36705,23.1173,153.941,52.2409)"><stop offset="0" style="stop-color:#3f51b5;stop-opacity:1"/><stop offset="1" style="stop-color:#313a78;stop-opacity:1"/></linearGradient>
        <linearGradient id="_Linear7" x1="0" y1="0" x2="1" y2="0" gradientUnits="userSpaceOnUse" gradientTransform="matrix(11.4607,-35.1657,35.1657,11.4607,195.608,59.0142)"><stop offset="0" style="stop-color:#3f51b5;stop-opacity:1"/><stop offset="1" style="stop-color:#313a78;stop-opacity:1"/></linearGradient>
        <linearGradient id="_Linear8" x1="0" y1="0" x2="1" y2="0" gradientUnits="userSpaceOnUse" gradientTransform="matrix(-19.0116,-0.0985055,0.0985055,-19.0116,266.325,54.4147)"><stop offset="0" style="stop-color:#3f51b5;stop-opacity:1"/><stop offset="1" style="stop-color:#313a78;stop-opacity:1"/></linearGradient>
        <linearGradient id="_Linear9" x1="0" y1="0" x2="1" y2="0" gradientUnits="userSpaceOnUse" gradientTransform="matrix(7.05273,-52.9934,52.9934,7.05273,237.313,71.8385)"><stop offset="0" style="stop-color:#3f51b5;stop-opacity:1"/><stop offset="1" style="stop-color:#313a78;stop-opacity:1"/></linearGradient>
        <linearGradient id="_Linear10" x1="0" y1="0" x2="1" y2="0" gradientUnits="userSpaceOnUse" gradientTransform="matrix(-12.1464,7.83636,-7.83636,-12.1464,353.869,59.5849)"><stop offset="0" style="stop-color:#2196f3;stop-opacity:1"/><stop offset="0.01" style="stop-color:#2196f3;stop-opacity:1"/><stop offset="1" style="stop-color:#00c0f3;stop-opacity:1"/></linearGradient>
        <linearGradient id="_Linear11" x1="0" y1="0" x2="1" y2="0" gradientUnits="userSpaceOnUse" gradientTransform="matrix(-6.465,27.8191,-27.8191,-6.465,351.575,31.532)"><stop offset="0" style="stop-color:#2196f3;stop-opacity:1"/><stop offset="0.01" style="stop-color:#2196f3;stop-opacity:1"/><stop offset="1" style="stop-color:#00c0f3;stop-opacity:1"/></linearGradient>
        <radialGradient id="_Radial12" cx="0" cy="0" r="1" gradientUnits="userSpaceOnUse" gradientTransform="matrix(-66.1387,0,-0,66.1387,62.5747,49.8221)"><stop offset="0" style="stop-color:#3d4ead;stop-opacity:1"/><stop offset="1" style="stop-color:#00c0f3;stop-opacity:1"/></radialGradient>
        <linearGradient id="_Linear13" x1="0" y1="0" x2="1" y2="0" gradientUnits="userSpaceOnUse" gradientTransform="matrix(-54.7355,0,0,-32.1015,60.3147,67.0176)"><stop offset="0" style="stop-color:#3f51b4;stop-opacity:1"/><stop offset="1" style="stop-color:#00c0f3;stop-opacity:1"/></linearGradient>
        <radialGradient id="_Radial14" cx="0" cy="0" r="1" gradientUnits="userSpaceOnUse" gradientTransform="matrix(-66.1374,0,-0,66.1374,62.5749,49.8221)"><stop offset="0" style="stop-color:#3d4ead;stop-opacity:1"/><stop offset="1" style="stop-color:#00c0f3;stop-opacity:1"/></radialGradient>
        <radialGradient id="_Radial15" cx="0" cy="0" r="1" gradientUnits="userSpaceOnUse" gradientTransform="matrix(-52.6361,-107.604,-12.8428,112.241,50.7804,124.457)"><stop offset="0" style="stop-color:#0072e9;stop-opacity:1"/><stop offset="1" style="stop-color:#00fdfe;stop-opacity:1"/></radialGradient>
        <radialGradient id="_Radial16" cx="0" cy="0" r="1" gradientUnits="userSpaceOnUse" gradientTransform="matrix(4.0052,0.526563,-1.46889,11.3112,58.6611,65.1843)"><stop offset="0" style="stop-color:#153e68;stop-opacity:0.34"/><stop offset="1" style="stop-color:#153e68;stop-opacity:0.01"/></radialGradient>
        <radialGradient id="_Radial17" cx="0" cy="0" r="1" gradientUnits="userSpaceOnUse" gradientTransform="matrix(-10.3568,10.999,26.0381,24.5177,76.5301,64.2632)"><stop offset="0" style="stop-color:#00336f;stop-opacity:1"/><stop offset="1" style="stop-color:#00336f;stop-opacity:0"/></radialGradient>
        <radialGradient id="_Radial18" cx="0" cy="0" r="1" gradientUnits="userSpaceOnUse" gradientTransform="matrix(-6.51962,11.4057,24.5674,14.4231,74.7463,58.6441)"><stop offset="0" style="stop-color:#00336f;stop-opacity:0.5"/><stop offset="1" style="stop-color:#00336f;stop-opacity:0"/></radialGradient>
        <radialGradient id="_Radial19" cx="0" cy="0" r="1" gradientUnits="userSpaceOnUse" gradientTransform="matrix(-4.96046,12.1651,26.2531,11.0614,74.0442,59.2965)"><stop offset="0" style="stop-color:#00336f;stop-opacity:0.5"/><stop offset="1" style="stop-color:#00336f;stop-opacity:0"/></radialGradient>
        <radialGradient id="_Radial20" cx="0" cy="0" r="1" gradientUnits="userSpaceOnUse" gradientTransform="matrix(-4.22491,10.2622,22.277,9.29717,70.6931,57.3125)"><stop offset="0" style="stop-color:#00336f;stop-opacity:1"/><stop offset="1" style="stop-color:#00336f;stop-opacity:0"/></radialGradient>
        <radialGradient id="_Radial21" cx="0" cy="0" r="1" gradientUnits="userSpaceOnUse" gradientTransform="matrix(-9.78901,-10.0451,-28.1355,22.8978,44.6851,58.4131)"><stop offset="0" style="stop-color:#002d68;stop-opacity:1"/><stop offset="1" style="stop-color:#002d68;stop-opacity:0"/></radialGradient>
        <radialGradient id="_Radial22" cx="0" cy="0" r="1" gradientUnits="userSpaceOnUse" gradientTransform="matrix(-10.6184,-12.7117,-26.5102,25.0697,44.123,53.9971)"><stop offset="0" style="stop-color:#002d68;stop-opacity:1"/><stop offset="1" style="stop-color:#002d68;stop-opacity:0"/></radialGradient>
        <radialGradient id="_Radial23" cx="0" cy="0" r="1" gradientUnits="userSpaceOnUse" gradientTransform="matrix(-4.66402,-8.96904,-21.2029,10.9396,42.8368,56.0939)"><stop offset="0" style="stop-color:#002d68;stop-opacity:1"/><stop offset="1" style="stop-color:#002d68;stop-opacity:0"/></radialGradient>
        <radialGradient id="_Radial24" cx="0" cy="0" r="1" gradientUnits="userSpaceOnUse" gradientTransform="matrix(4.51007,-9.04744,-21.3185,-10.7126,33.6469,43.3607)"><stop offset="0" style="stop-color:#002d68;stop-opacity:1"/><stop offset="1" style="stop-color:#002d68;stop-opacity:0"/></radialGradient>
        <radialGradient id="_Radial25" cx="0" cy="0" r="1" gradientUnits="userSpaceOnUse" gradientTransform="matrix(55.5618,-7.25333,2.08197,15.9483,72.5849,43.2523)"><stop offset="0" style="stop-color:#00326d;stop-opacity:1"/><stop offset="1" style="stop-color:#003b79;stop-opacity:0"/></radialGradient>
        <radialGradient id="_Radial26" cx="0" cy="0" r="1" gradientUnits="userSpaceOnUse" gradientTransform="matrix(50.0892,5.26339,-1.61895,15.4438,75.3088,37.6118)"><stop offset="0" style="stop-color:#00326d;stop-opacity:1"/><stop offset="1" style="stop-color:#003b79;stop-opacity:0"/></radialGradient>
        <radialGradient id="_Radial27" cx="0" cy="0" r="1" gradientUnits="userSpaceOnUse" gradientTransform="matrix(42.2509,-5.13094,1.62846,13.3715,72.1116,43.3493)"><stop offset="0" style="stop-color:#00326d;stop-opacity:1"/><stop offset="1" style="stop-color:#003b79;stop-opacity:0"/></radialGradient>
        <linearGradient id="_Linear28" x1="0" y1="0" x2="1" y2="0" gradientUnits="userSpaceOnUse" gradientTransform="matrix(-48.7206,0,-0,48.7206,61.4089,53.1008)"><stop offset="0" style="stop-color:#f5f7fa;stop-opacity:1"/><stop offset="0.53" style="stop-color:#f1f4f2;stop-opacity:1"/><stop offset="1" style="stop-color:#bad7e9;stop-opacity:1"/></linearGradient>
        <linearGradient id="_Linear29" x1="0" y1="0" x2="1" y2="0" gradientUnits="userSpaceOnUse" gradientTransform="matrix(-43.2077,0,-0,43.2077,61.1382,25.6029)"><stop offset="0" style="stop-color:#fafafa;stop-opacity:1"/><stop offset="0.26" style="stop-color:#f1f6f8;stop-opacity:1"/><stop offset="0.73" style="stop-color:#dce5eb;stop-opacity:1"/><stop offset="1" style="stop-color:#bbcfda;stop-opacity:1"/></linearGradient>
        <linearGradient id="_Linear30" x1="0" y1="0" x2="1" y2="0" gradientUnits="userSpaceOnUse" gradientTransform="matrix(0,-47.9791,-47.9791,-0,89.2171,49.9033)"><stop offset="0" style="stop-color:#fdfdff;stop-opacity:1"/><stop offset="0.26" style="stop-color:#f1f2f2;stop-opacity:1"/><stop offset="0.73" style="stop-color:#bfd2e0;stop-opacity:1"/><stop offset="1" style="stop-color:#afc0cc;stop-opacity:1"/></linearGradient>
        <linearGradient id="_Linear31" x1="0" y1="0" x2="1" y2="0" gradientUnits="userSpaceOnUse" gradientTransform="matrix(0,-48.0543,-48.0543,-0,88.4231,49.9576)"><stop offset="0" style="stop-color:#f1f6f6;stop-opacity:1"/><stop offset="0.41" style="stop-color:#fdfdfd;stop-opacity:1"/><stop offset="0.55" style="stop-color:#f5f8fa;stop-opacity:1"/><stop offset="0.89" style="stop-color:#d6e1e7;stop-opacity:1"/><stop offset="0.98" style="stop-color:#c3d3dd;stop-opacity:1"/><stop offset="1" style="stop-color:#c3d3dd;stop-opacity:1"/></linearGradient>
        <radialGradient id="_Radial32" cx="0" cy="0" r="1" gradientUnits="userSpaceOnUse" gradientTransform="matrix(14.7354,9.52776,-4.62893,7.15901,40.0035,38.6087)"><stop offset="0" style="stop-color:#153e68;stop-opacity:1"/><stop offset="1" style="stop-color:#153e68;stop-opacity:0"/></radialGradient>
        <radialGradient id="_Radial33" cx="0" cy="0" r="1" gradientUnits="userSpaceOnUse" gradientTransform="matrix(13.9988,10.5803,-4.31511,5.70934,39.5341,36.6037)"><stop offset="0" style="stop-color:#153e68;stop-opacity:1"/><stop offset="1" style="stop-color:#153e68;stop-opacity:0"/></radialGradient>
        <radialGradient id="_Radial34" cx="0" cy="0" r="1" gradientUnits="userSpaceOnUse" gradientTransform="matrix(14.5634,-8.14176,3.11074,5.56427,81.8521,41.5703)"><stop offset="0" style="stop-color:#153e68;stop-opacity:1"/><stop offset="1" style="stop-color:#153e68;stop-opacity:0"/></radialGradient>
        <radialGradient id="_Radial35" cx="0" cy="0" r="1" gradientUnits="userSpaceOnUse" gradientTransform="matrix(14.4062,-8.05386,3.42371,6.12408,84.5558,38.3112)"><stop offset="0" style="stop-color:#153e68;stop-opacity:1"/><stop offset="1" style="stop-color:#153e68;stop-opacity:0"/></radialGradient>
        <radialGradient id="_Radial36" cx="0" cy="0" r="1" gradientUnits="userSpaceOnUse" gradientTransform="matrix(13.5894,-9.36638,4.22241,6.1262,84.3487,41.3934)"><stop offset="0" style="stop-color:#153e68;stop-opacity:1"/><stop offset="1" style="stop-color:#1a426b;stop-opacity:0"/></radialGradient>
        <radialGradient id="_Radial37" cx="0" cy="0" r="1" gradientUnits="userSpaceOnUse" gradientTransform="matrix(5.21516,-11.6826,5.1171,2.2843,94.4254,30.2021)"><stop offset="0" style="stop-color:#153e68;stop-opacity:1"/><stop offset="1" style="stop-color:#1b436c;stop-opacity:0"/></radialGradient>
        <linearGradient id="_Linear38" x1="0" y1="0" x2="1" y2="0" gradientUnits="userSpaceOnUse" gradientTransform="matrix(4.72457,-33.536,33.536,4.72457,41.1538,45.9665)"><stop offset="0" style="stop-color:#fdfdff;stop-opacity:1"/><stop offset="0.26" style="stop-color:#f1f2f2;stop-opacity:1"/><stop offset="0.73" style="stop-color:#bfd2e0;stop-opacity:1"/><stop offset="1" style="stop-color:#afc0cc;stop-opacity:1"/></linearGradient>
        <linearGradient id="_Linear39" x1="0" y1="0" x2="1" y2="0" gradientUnits="userSpaceOnUse" gradientTransform="matrix(-33.3203,-0.000343575,0.000343575,-33.3203,60.0913,29.2441)"><stop offset="0" style="stop-color:#fafafa;stop-opacity:1"/><stop offset="0.26" style="stop-color:#f1f6f8;stop-opacity:1"/><stop offset="0.73" style="stop-color:#dce5eb;stop-opacity:1"/><stop offset="1" style="stop-color:#bbcfda;stop-opacity:1"/></linearGradient>
        <radialGradient id="_Radial40" cx="0" cy="0" r="1" gradientUnits="userSpaceOnUse" gradientTransform="matrix(1.92018,5.55941,-10.6179,3.66735,47.0904,55.6053)"><stop offset="0" style="stop-color:#153e68;stop-opacity:1"/><stop offset="1" style="stop-color:#153e68;stop-opacity:0"/></radialGradient>
        <radialGradient id="_Radial41" cx="0" cy="0" r="1" gradientUnits="userSpaceOnUse" gradientTransform="matrix(0.21678,5.25887,-9.80783,0.404296,45.3907,54.4033)"><stop offset="0" style="stop-color:#153e68;stop-opacity:1"/><stop offset="1" style="stop-color:#153e68;stop-opacity:0"/></radialGradient>
        <radialGradient id="_Radial42" cx="0" cy="0" r="1" gradientUnits="userSpaceOnUse" gradientTransform="matrix(1.54211,3.64848,-8.0801,3.41524,51.9443,56.0636)"><stop offset="0" style="stop-color:#153e68;stop-opacity:1"/><stop offset="1" style="stop-color:#153e68;stop-opacity:0"/></radialGradient>
        <linearGradient id="_Linear43" x1="0" y1="0" x2="1" y2="0" gradientUnits="userSpaceOnUse" gradientTransform="matrix(-12.2342,-17.8556,17.8556,-12.2342,52.4894,58.4592)"><stop offset="0" style="stop-color:#fdfdff;stop-opacity:1"/><stop offset="0.26" style="stop-color:#f1f2f2;stop-opacity:1"/><stop offset="0.73" style="stop-color:#bfd2e0;stop-opacity:1"/><stop offset="1" style="stop-color:#afc0cc;stop-opacity:1"/></linearGradient>
        <linearGradient id="_Linear44" x1="0" y1="0" x2="1" y2="0" gradientUnits="userSpaceOnUse" gradientTransform="matrix(-15.7162,14.3692,-14.3692,-15.7162,54.2101,42.4051)"><stop offset="0" style="stop-color:#fafafa;stop-opacity:1"/><stop offset="0.26" style="stop-color:#f1f6f8;stop-opacity:1"/><stop offset="0.73" style="stop-color:#dce5eb;stop-opacity:1"/><stop offset="1" style="stop-color:#bbcfda;stop-opacity:1"/></linearGradient>
        <radialGradient id="_Radial45" cx="0" cy="0" r="1" gradientUnits="userSpaceOnUse" gradientTransform="matrix(-16.9591,0,-0,16.9591,83.3344,58.1937)"><stop offset="0" style="stop-color:#f9f9fa;stop-opacity:1"/><stop offset="1" style="stop-color:#f5f7f7;stop-opacity:1"/></radialGradient>
        <radialGradient id="_Radial46" cx="0" cy="0" r="1" gradientUnits="userSpaceOnUse" gradientTransform="matrix(8.96408,6.36252,-3.00685,4.23632,70.8134,58.194)"><stop offset="0" style="stop-color:#153e68;stop-opacity:1"/><stop offset="1" style="stop-color:#153e68;stop-opacity:0"/></radialGradient>
        <radialGradient id="_Radial47" cx="0" cy="0" r="1" gradientUnits="userSpaceOnUse" gradientTransform="matrix(6.8821,4.88477,-3.00685,4.23632,69.5335,58.194)"><stop offset="0" style="stop-color:#153e68;stop-opacity:1"/><stop offset="1" style="stop-color:#153e68;stop-opacity:0"/></radialGradient>
        <radialGradient id="_Radial48" cx="0" cy="0" r="1" gradientUnits="userSpaceOnUse" gradientTransform="matrix(6.8821,4.88477,-3.00685,4.23632,73.3098,58.4873)"><stop offset="0" style="stop-color:#153e68;stop-opacity:1"/><stop offset="1" style="stop-color:#153e68;stop-opacity:0"/></radialGradient>
        <linearGradient id="_Linear49" x1="0" y1="0" x2="1" y2="0" gradientUnits="userSpaceOnUse" gradientTransform="matrix(18.4986,-11.2373,-11.2373,-18.4986,66.0219,59.3376)"><stop offset="0" style="stop-color:#fdfdff;stop-opacity:1"/><stop offset="0.26" style="stop-color:#f1f2f2;stop-opacity:1"/><stop offset="0.73" style="stop-color:#bfd2e0;stop-opacity:1"/><stop offset="1" style="stop-color:#afc0cc;stop-opacity:1"/></linearGradient>
        <linearGradient id="_Linear50" x1="0" y1="0" x2="1" y2="0" gradientUnits="userSpaceOnUse" gradientTransform="matrix(8.40915,19.5646,19.5646,-8.40915,71.0611,43.9983)"><stop offset="0" style="stop-color:#fafafa;stop-opacity:1"/><stop offset="0.26" style="stop-color:#f1f6f8;stop-opacity:1"/><stop offset="0.73" style="stop-color:#dce5eb;stop-opacity:1"/><stop offset="1" style="stop-color:#bbcfda;stop-opacity:1"/></linearGradient>
        <linearGradient id="_Linear51" x1="0" y1="0" x2="1" y2="0" gradientUnits="userSpaceOnUse" gradientTransform="matrix(6.46873,14.3437,14.3437,-6.46873,82.3507,45.5017)"><stop offset="0" style="stop-color:#aebcd0;stop-opacity:1"/><stop offset="0.22" style="stop-color:#859bb9;stop-opacity:1"/><stop offset="0.53" style="stop-color:#a1b1c9;stop-opacity:1"/><stop offset="1" style="stop-color:#97a9c3;stop-opacity:1"/></linearGradient>
        <linearGradient id="_Linear52" x1="0" y1="0" x2="1" y2="0" gradientUnits="userSpaceOnUse" gradientTransform="matrix(0,-21.0692,-21.0692,0,59.0903,74.3882)"><stop offset="0" style="stop-color:#c0cbda;stop-opacity:1"/><stop offset="0.02" style="stop-color:#c0cbda;stop-opacity:1"/><stop offset="0.11" style="stop-color:#d4dbe5;stop-opacity:1"/><stop offset="0.45" style="stop-color:#f5f6f9;stop-opacity:1"/><stop offset="0.59" style="stop-color:#fdfdfd;stop-opacity:1"/><stop offset="1" style="stop-color:#fcfdfd;stop-opacity:1"/></linearGradient>
        <radialGradient id="_Radial53" cx="0" cy="0" r="1" gradientUnits="userSpaceOnUse" gradientTransform="matrix(-18.2184,0,-0,12.4951,62.2182,35.8819)"><stop offset="0" style="stop-color:#3f51b5;stop-opacity:1"/><stop offset="1" style="stop-color:#04bbf3;stop-opacity:1"/></radialGradient>
        <linearGradient id="_Linear54" x1="0" y1="0" x2="1" y2="0" gradientUnits="userSpaceOnUse" gradientTransform="matrix(0,-45.2637,-45.2637,-0,62.1493,54.4033)"><stop offset="0" style="stop-color:#afc0cc;stop-opacity:1"/><stop offset="0.24" style="stop-color:#afc0cc;stop-opacity:1"/><stop offset="0.74" style="stop-color:#f1f2f2;stop-opacity:1"/><stop offset="1" style="stop-color:#fdfdff;stop-opacity:1"/></linearGradient>
        <linearGradient id="_Linear55" x1="0" y1="0" x2="1" y2="0" gradientUnits="userSpaceOnUse" gradientTransform="matrix(0,-46.5257,-46.5257,-0,62.1493,56.0403)"><stop offset="0" style="stop-color:#fafafa;stop-opacity:1"/><stop offset="0.26" style="stop-color:#f1f6f8;stop-opacity:1"/><stop offset="0.73" style="stop-color:#dce5eb;stop-opacity:1"/><stop offset="1" style="stop-color:#bbcfda;stop-opacity:1"/></linearGradient>
        <linearGradient id="_Linear56" x1="0" y1="0" x2="1" y2="0" gradientUnits="userSpaceOnUse" gradientTransform="matrix(0,-39.9686,39.9686,-0,81.5604,48.215)"><stop offset="0" style="stop-color:#f1f6f6;stop-opacity:1"/><stop offset="0.41" style="stop-color:#fdfdfd;stop-opacity:1"/><stop offset="0.55" style="stop-color:#f5f8fa;stop-opacity:1"/><stop offset="0.89" style="stop-color:#d6e1e7;stop-opacity:1"/><stop offset="0.98" style="stop-color:#c3d3dd;stop-opacity:1"/><stop offset="1" style="stop-color:#c3d3dd;stop-opacity:1"/></linearGradient>
    </defs>
</svg>
