<?xml version="1.0" encoding="UTF-8"?>
<svg xmlns="http://www.w3.org/2000/svg" xmlns:xlink="http://www.w3.org/1999/xlink" width="80pt" height="80pt" viewBox="0 0 80 80" version="1.1">
<g id="surface1">
<path style=" stroke:none;fill-rule:nonzero;fill:#78909C;fill-opacity:1;" d="M 16.667969 73.332031 C 15.667969 73.332031 15 72.667969 15 71.667969 C 15 70.667969 15.667969 70 16.667969 70 C 17.5 70 18.332031 69.832031 18.332031 68.167969 L 18.332031 61.667969 C 18.332031 60.667969 19 60 20 60 C 21 60 21.667969 60.667969 21.667969 61.667969 L 21.667969 68.167969 C 21.667969 71.332031 19.667969 73.332031 16.667969 73.332031 Z "/>
<path style=" stroke:none;fill-rule:nonzero;fill:#CFD8DC;fill-opacity:1;" d="M 67.832031 25 C 68.167969 24 68.332031 22.832031 68.332031 21.667969 C 68.332031 16.167969 63.832031 11.667969 58.332031 11.667969 C 55.5 11.667969 53 12.832031 51.167969 14.832031 C 49.667969 10 45.167969 6.667969 40 6.667969 C 34.667969 6.667969 30.332031 10.167969 28.832031 15 C 27.332031 14 25.332031 13.332031 23.332031 13.332031 C 17.832031 13.332031 13.332031 17.832031 13.332031 23.332031 C 13.332031 23.832031 13.332031 24.5 13.5 25 Z "/>
<path style=" stroke:none;fill-rule:nonzero;fill:#32C24D;fill-opacity:1;" d="M 10 21.667969 L 70 21.667969 L 70 58.332031 L 10 58.332031 Z "/>
<path style=" stroke:none;fill-rule:nonzero;fill:#FFFFFF;fill-opacity:1;" d="M 43.332031 40 C 43.332031 41.832031 41.832031 43.332031 40 43.332031 C 38.167969 43.332031 36.667969 41.832031 36.667969 40 C 36.667969 38.167969 38.167969 36.667969 40 36.667969 C 41.832031 36.667969 43.332031 38.167969 43.332031 40 Z "/>
<path style=" stroke:none;fill-rule:nonzero;fill:#FFFFFF;fill-opacity:1;" d="M 56.667969 40 C 56.667969 41.832031 55.167969 43.332031 53.332031 43.332031 C 51.5 43.332031 50 41.832031 50 40 C 50 38.167969 51.5 36.667969 53.332031 36.667969 C 55.167969 36.667969 56.667969 38.167969 56.667969 40 Z "/>
<path style=" stroke:none;fill-rule:nonzero;fill:#FFFFFF;fill-opacity:1;" d="M 30 40 C 30 41.832031 28.5 43.332031 26.667969 43.332031 C 24.832031 43.332031 23.332031 41.832031 23.332031 40 C 23.332031 38.167969 24.832031 36.667969 26.667969 36.667969 C 28.5 36.667969 30 38.167969 30 40 Z "/>
<path style=" stroke:none;fill-rule:nonzero;fill:#546E7A;fill-opacity:1;" d="M 18.332031 58.332031 L 21.667969 58.332031 L 21.667969 61.667969 L 18.332031 61.667969 Z "/>
<path style=" stroke:none;fill-rule:nonzero;fill:#78909C;fill-opacity:1;" d="M 26.667969 73.332031 C 25.667969 73.332031 25 72.667969 25 71.667969 C 25 70.667969 25.667969 70 26.667969 70 C 27.5 70 28.332031 69.832031 28.332031 68.167969 L 28.332031 61.667969 C 28.332031 60.667969 29 60 30 60 C 31 60 31.667969 60.667969 31.667969 61.667969 L 31.667969 68.167969 C 31.667969 71.332031 29.667969 73.332031 26.667969 73.332031 Z "/>
<path style=" stroke:none;fill-rule:nonzero;fill:#546E7A;fill-opacity:1;" d="M 28.332031 58.332031 L 31.667969 58.332031 L 31.667969 61.667969 L 28.332031 61.667969 Z "/>
<path style=" stroke:none;fill-rule:nonzero;fill:#78909C;fill-opacity:1;" d="M 48.332031 73.332031 C 47.332031 73.332031 46.667969 72.667969 46.667969 71.667969 C 46.667969 70.667969 47.332031 70 48.332031 70 C 49.167969 70 50 69.832031 50 68.167969 L 50 61.667969 C 50 60.667969 50.667969 60 51.667969 60 C 52.667969 60 53.332031 60.667969 53.332031 61.667969 L 53.332031 68.167969 C 53.332031 71.332031 51.332031 73.332031 48.332031 73.332031 Z "/>
<path style=" stroke:none;fill-rule:nonzero;fill:#546E7A;fill-opacity:1;" d="M 50 58.332031 L 53.332031 58.332031 L 53.332031 61.667969 L 50 61.667969 Z "/>
<path style=" stroke:none;fill-rule:nonzero;fill:#78909C;fill-opacity:1;" d="M 58.332031 73.332031 C 57.332031 73.332031 56.667969 72.667969 56.667969 71.667969 C 56.667969 70.667969 57.332031 70 58.332031 70 C 59.167969 70 60 69.832031 60 68.167969 L 60 61.667969 C 60 60.667969 60.667969 60 61.667969 60 C 62.667969 60 63.332031 60.667969 63.332031 61.667969 L 63.332031 68.167969 C 63.332031 71.332031 61.332031 73.332031 58.332031 73.332031 Z "/>
<path style=" stroke:none;fill-rule:nonzero;fill:#546E7A;fill-opacity:1;" d="M 60 58.332031 L 63.332031 58.332031 L 63.332031 61.667969 L 60 61.667969 Z "/>
</g>
</svg>
