<?xml version="1.0" encoding="UTF-8" standalone="no"?><!DOCTYPE svg PUBLIC "-//W3C//DTD SVG 1.1//EN" "http://www.w3.org/Graphics/SVG/1.1/DTD/svg11.dtd"><svg width="100%" height="100%" viewBox="0 0 326 77" version="1.1" xmlns="http://www.w3.org/2000/svg" xmlns:xlink="http://www.w3.org/1999/xlink" xml:space="preserve" xmlns:serif="http://www.serif.com/" style="fill-rule:evenodd;clip-rule:evenodd;stroke-linecap:round;stroke-linejoin:round;stroke-miterlimit:1.5;"><path d="M325.5,7.65c0,-4.222 -3.428,-7.65 -7.65,-7.65l-310.2,0c-4.222,0 -7.65,3.428 -7.65,7.65l0,61.2c0,4.222 3.428,7.65 7.65,7.65l310.2,0c4.222,0 7.65,-3.428 7.65,-7.65l0,-61.2Z" style="fill:url(#_Linear1);stroke:#b7b7b7;stroke-width:0.75px;"/><path d="M96.758,45.53l-4.375,0c-0.632,0 -1.083,-0.141 -1.353,-0.425c-0.27,-0.283 -0.405,-0.734 -0.405,-1.352l0,-10.762c0,-0.631 0.138,-1.085 0.415,-1.362c0.277,-0.277 0.724,-0.415 1.343,-0.415l4.638,0c0.684,0 1.277,0.042 1.778,0.127c0.501,0.084 0.95,0.247 1.347,0.488c0.339,0.202 0.638,0.457 0.899,0.767c0.26,0.309 0.459,0.651 0.596,1.025c0.136,0.374 0.205,0.77 0.205,1.187c0,1.432 -0.716,2.48 -2.149,3.144c1.882,0.599 2.823,1.764 2.823,3.496c0,0.801 -0.206,1.522 -0.616,2.163c-0.41,0.642 -0.963,1.115 -1.66,1.421c-0.436,0.183 -0.937,0.311 -1.504,0.386c-0.566,0.075 -1.227,0.112 -1.982,0.112Zm-0.215,-6.357l-3.018,0l0,4.18l3.116,0c1.959,0 2.939,-0.707 2.939,-2.12c0,-0.722 -0.254,-1.246 -0.762,-1.572c-0.507,-0.325 -1.266,-0.488 -2.275,-0.488Zm-3.018,-5.781l0,3.701l2.657,0c0.722,0 1.281,-0.069 1.674,-0.205c0.394,-0.137 0.695,-0.397 0.904,-0.782c0.163,-0.273 0.244,-0.579 0.244,-0.918c0,-0.722 -0.257,-1.202 -0.772,-1.44c-0.514,-0.238 -1.298,-0.356 -2.353,-0.356l-2.354,0Z" style="fill-rule:nonzero;"/><path d="M114.463,33.45l-6.533,0l0,3.516l6.015,0c0.443,0 0.773,0.099 0.991,0.298c0.219,0.198 0.328,0.46 0.328,0.786c0,0.325 -0.108,0.591 -0.323,0.796c-0.214,0.205 -0.546,0.307 -0.996,0.307l-6.015,0l0,4.073l6.757,0c0.456,0 0.8,0.105 1.031,0.317c0.231,0.212 0.346,0.493 0.346,0.845c0,0.338 -0.115,0.613 -0.346,0.825c-0.231,0.211 -0.575,0.317 -1.031,0.317l-7.88,0c-0.632,0 -1.086,-0.14 -1.363,-0.42c-0.276,-0.28 -0.415,-0.732 -0.415,-1.357l0,-10.762c0,-0.416 0.062,-0.757 0.186,-1.02c0.124,-0.264 0.317,-0.456 0.581,-0.576c0.264,-0.121 0.6,-0.181 1.011,-0.181l7.656,0c0.462,0 0.806,0.102 1.03,0.307c0.225,0.206 0.337,0.474 0.337,0.806c0,0.339 -0.112,0.61 -0.337,0.816c-0.224,0.205 -0.568,0.307 -1.03,0.307Z" style="fill-rule:nonzero;"/><path d="M130.566,41.009c0,0.456 -0.112,0.949 -0.337,1.479c-0.224,0.531 -0.577,1.052 -1.059,1.563c-0.482,0.511 -1.097,0.926 -1.846,1.245c-0.749,0.319 -1.621,0.478 -2.617,0.478c-0.755,0 -1.442,-0.071 -2.061,-0.214c-0.618,-0.144 -1.18,-0.367 -1.684,-0.669c-0.505,-0.303 -0.969,-0.702 -1.392,-1.197c-0.377,-0.449 -0.7,-0.952 -0.967,-1.508c-0.266,-0.557 -0.467,-1.151 -0.6,-1.783c-0.134,-0.631 -0.2,-1.302 -0.2,-2.011c0,-1.153 0.167,-2.185 0.503,-3.096c0.335,-0.912 0.815,-1.691 1.44,-2.339c0.625,-0.648 1.357,-1.141 2.197,-1.479c0.84,-0.339 1.735,-0.508 2.686,-0.508c1.159,0 2.191,0.231 3.096,0.693c0.905,0.462 1.598,1.034 2.08,1.714c0.481,0.68 0.722,1.323 0.722,1.929c0,0.332 -0.117,0.625 -0.351,0.879c-0.235,0.253 -0.518,0.38 -0.85,0.38c-0.371,0 -0.649,-0.087 -0.835,-0.263c-0.185,-0.176 -0.392,-0.479 -0.62,-0.908c-0.378,-0.71 -0.822,-1.241 -1.333,-1.592c-0.511,-0.352 -1.141,-0.528 -1.89,-0.528c-1.191,0 -2.14,0.453 -2.846,1.358c-0.707,0.905 -1.06,2.191 -1.06,3.857c0,1.114 0.156,2.04 0.469,2.779c0.312,0.739 0.755,1.29 1.328,1.655c0.573,0.364 1.244,0.547 2.012,0.547c0.833,0 1.538,-0.207 2.114,-0.62c0.576,-0.414 1.011,-1.021 1.304,-1.822c0.123,-0.377 0.276,-0.685 0.459,-0.923c0.182,-0.237 0.475,-0.356 0.879,-0.356c0.345,0 0.641,0.12 0.888,0.361c0.248,0.241 0.371,0.541 0.371,0.899Z" style="fill-rule:nonzero;"/><path d="M139.473,30.97c1.484,0 2.758,0.301 3.823,0.903c1.064,0.602 1.87,1.458 2.417,2.568c0.547,1.11 0.82,2.414 0.82,3.912c0,1.106 -0.15,2.112 -0.449,3.017c-0.3,0.905 -0.749,1.69 -1.348,2.354c-0.599,0.664 -1.334,1.172 -2.207,1.523c-0.872,0.352 -1.871,0.527 -2.998,0.527c-1.12,0 -2.122,-0.18 -3.008,-0.542c-0.885,-0.361 -1.624,-0.87 -2.216,-1.528c-0.593,-0.657 -1.04,-1.448 -1.343,-2.373c-0.303,-0.924 -0.454,-1.924 -0.454,-2.998c0,-1.1 0.158,-2.109 0.473,-3.027c0.316,-0.918 0.773,-1.7 1.372,-2.344c0.599,-0.645 1.329,-1.138 2.188,-1.48c0.859,-0.341 1.836,-0.512 2.93,-0.512Zm4.121,7.363c0,-1.048 -0.17,-1.956 -0.508,-2.725c-0.339,-0.768 -0.822,-1.349 -1.45,-1.743c-0.629,-0.394 -1.35,-0.591 -2.163,-0.591c-0.58,0 -1.115,0.109 -1.607,0.328c-0.491,0.218 -0.915,0.535 -1.269,0.952c-0.355,0.416 -0.635,0.949 -0.84,1.596c-0.205,0.648 -0.308,1.376 -0.308,2.183c0,0.814 0.103,1.549 0.308,2.207c0.205,0.658 0.495,1.203 0.869,1.636c0.374,0.433 0.804,0.757 1.289,0.971c0.485,0.215 1.017,0.323 1.597,0.323c0.742,0 1.424,-0.186 2.046,-0.557c0.621,-0.371 1.116,-0.944 1.484,-1.719c0.368,-0.774 0.552,-1.728 0.552,-2.861Z" style="fill-rule:nonzero;"/><path d="M153.848,43.372l-2.295,-9.121l0,9.883c0,0.547 -0.122,0.957 -0.367,1.23c-0.244,0.274 -0.568,0.41 -0.971,0.41c-0.391,0 -0.71,-0.135 -0.957,-0.405c-0.248,-0.27 -0.371,-0.682 -0.371,-1.235l0,-11.328c0,-0.625 0.162,-1.047 0.488,-1.265c0.325,-0.218 0.765,-0.327 1.318,-0.327l0.899,0c0.54,0 0.932,0.049 1.177,0.146c0.244,0.098 0.424,0.274 0.542,0.528c0.117,0.254 0.25,0.667 0.4,1.24l2.08,7.842l2.08,-7.842c0.15,-0.573 0.283,-0.986 0.4,-1.24c0.118,-0.254 0.298,-0.43 0.542,-0.528c0.245,-0.097 0.637,-0.146 1.177,-0.146l0.899,0c0.553,0 0.992,0.109 1.318,0.327c0.326,0.218 0.488,0.64 0.488,1.265l0,11.328c0,0.547 -0.122,0.957 -0.366,1.23c-0.244,0.274 -0.571,0.41 -0.981,0.41c-0.384,0 -0.7,-0.136 -0.948,-0.41c-0.247,-0.273 -0.371,-0.683 -0.371,-1.23l0,-9.883l-2.295,9.121c-0.149,0.593 -0.271,1.027 -0.366,1.304c-0.094,0.276 -0.268,0.529 -0.522,0.757c-0.254,0.227 -0.606,0.341 -1.055,0.341c-0.339,0 -0.625,-0.073 -0.859,-0.219c-0.235,-0.147 -0.417,-0.334 -0.547,-0.562c-0.13,-0.228 -0.233,-0.48 -0.308,-0.757c-0.075,-0.276 -0.151,-0.564 -0.229,-0.864Z" style="fill-rule:nonzero;"/><path d="M175.107,33.45l-6.533,0l0,3.516l6.016,0c0.443,0 0.773,0.099 0.991,0.298c0.218,0.198 0.327,0.46 0.327,0.786c0,0.325 -0.107,0.591 -0.322,0.796c-0.215,0.205 -0.547,0.307 -0.996,0.307l-6.016,0l0,4.073l6.758,0c0.456,0 0.799,0.105 1.03,0.317c0.231,0.212 0.347,0.493 0.347,0.845c0,0.338 -0.116,0.613 -0.347,0.825c-0.231,0.211 -0.574,0.317 -1.03,0.317l-7.881,0c-0.631,0 -1.085,-0.14 -1.362,-0.42c-0.277,-0.28 -0.415,-0.732 -0.415,-1.357l0,-10.762c0,-0.416 0.062,-0.757 0.185,-1.02c0.124,-0.264 0.318,-0.456 0.581,-0.576c0.264,-0.121 0.601,-0.181 1.011,-0.181l7.656,0c0.463,0 0.806,0.102 1.031,0.307c0.224,0.206 0.337,0.474 0.337,0.806c0,0.339 -0.113,0.61 -0.337,0.816c-0.225,0.205 -0.568,0.307 -1.031,0.307Z" style="fill-rule:nonzero;"/><path d="M193.174,43.909l-0.684,-1.797l-5.82,0l-0.684,1.836c-0.267,0.716 -0.494,1.2 -0.683,1.45c-0.189,0.251 -0.498,0.376 -0.928,0.376c-0.365,0 -0.687,-0.133 -0.967,-0.4c-0.28,-0.267 -0.42,-0.57 -0.42,-0.908c0,-0.195 0.033,-0.397 0.098,-0.606c0.065,-0.208 0.172,-0.498 0.322,-0.869l3.662,-9.297c0.104,-0.267 0.23,-0.587 0.376,-0.962c0.147,-0.374 0.303,-0.685 0.469,-0.932c0.166,-0.248 0.384,-0.448 0.654,-0.601c0.27,-0.153 0.604,-0.229 1.001,-0.229c0.404,0 0.741,0.076 1.011,0.229c0.27,0.153 0.488,0.35 0.654,0.591c0.166,0.241 0.306,0.5 0.42,0.776c0.114,0.277 0.259,0.647 0.435,1.109l3.74,9.238c0.293,0.703 0.44,1.214 0.44,1.533c0,0.332 -0.139,0.637 -0.416,0.913c-0.276,0.277 -0.61,0.415 -1.001,0.415c-0.227,0 -0.423,-0.04 -0.585,-0.122c-0.163,-0.081 -0.3,-0.192 -0.411,-0.332c-0.11,-0.14 -0.229,-0.355 -0.356,-0.644c-0.127,-0.29 -0.236,-0.545 -0.327,-0.767Zm-5.742,-3.974l4.277,0l-2.158,-5.909l-2.119,5.909Z" style="fill-rule:nonzero;"/><path d="M214.277,41.233c0,0.866 -0.223,1.644 -0.669,2.334c-0.446,0.69 -1.098,1.231 -1.958,1.621c-0.859,0.391 -1.878,0.586 -3.056,0.586c-1.413,0 -2.578,-0.267 -3.496,-0.8c-0.651,-0.384 -1.18,-0.897 -1.587,-1.538c-0.407,-0.642 -0.611,-1.265 -0.611,-1.871c0,-0.351 0.122,-0.652 0.367,-0.903c0.244,-0.251 0.555,-0.376 0.932,-0.376c0.306,0 0.565,0.098 0.777,0.293c0.211,0.195 0.392,0.485 0.542,0.869c0.182,0.456 0.379,0.837 0.59,1.143c0.212,0.306 0.51,0.558 0.894,0.757c0.384,0.198 0.889,0.298 1.514,0.298c0.859,0 1.557,-0.201 2.094,-0.601c0.537,-0.4 0.806,-0.9 0.806,-1.499c0,-0.475 -0.145,-0.861 -0.435,-1.157c-0.289,-0.297 -0.664,-0.523 -1.123,-0.679c-0.459,-0.156 -1.072,-0.322 -1.84,-0.498c-1.029,-0.241 -1.89,-0.523 -2.583,-0.845c-0.694,-0.322 -1.244,-0.762 -1.651,-1.318c-0.407,-0.557 -0.61,-1.249 -0.61,-2.075c0,-0.788 0.215,-1.488 0.644,-2.1c0.43,-0.612 1.052,-1.082 1.866,-1.411c0.813,-0.329 1.77,-0.493 2.871,-0.493c0.879,0 1.639,0.109 2.28,0.327c0.641,0.218 1.173,0.508 1.597,0.869c0.423,0.361 0.732,0.741 0.927,1.138c0.196,0.397 0.293,0.784 0.293,1.162c0,0.345 -0.122,0.656 -0.366,0.932c-0.244,0.277 -0.548,0.415 -0.913,0.415c-0.332,0 -0.584,-0.083 -0.757,-0.249c-0.172,-0.166 -0.36,-0.437 -0.561,-0.815c-0.261,-0.54 -0.573,-0.962 -0.938,-1.265c-0.364,-0.302 -0.95,-0.454 -1.758,-0.454c-0.748,0 -1.352,0.165 -1.811,0.493c-0.459,0.329 -0.689,0.725 -0.689,1.187c0,0.286 0.078,0.534 0.235,0.742c0.156,0.208 0.371,0.388 0.644,0.537c0.274,0.15 0.55,0.267 0.83,0.352c0.28,0.084 0.743,0.208 1.387,0.371c0.807,0.189 1.538,0.397 2.192,0.625c0.655,0.228 1.211,0.504 1.67,0.83c0.459,0.326 0.817,0.737 1.075,1.235c0.257,0.498 0.385,1.109 0.385,1.831Z" style="fill-rule:nonzero;"/><path d="M222.295,39.954l-2.656,0l0,4.053c0,0.579 -0.137,1.019 -0.411,1.318c-0.273,0.3 -0.618,0.449 -1.035,0.449c-0.436,0 -0.787,-0.148 -1.054,-0.444c-0.267,-0.296 -0.401,-0.731 -0.401,-1.304l0,-11.035c0,-0.638 0.147,-1.094 0.44,-1.367c0.293,-0.273 0.758,-0.41 1.396,-0.41l3.721,0c1.1,0 1.947,0.085 2.539,0.254c0.586,0.163 1.092,0.433 1.519,0.81c0.426,0.378 0.75,0.84 0.971,1.387c0.222,0.547 0.332,1.162 0.332,1.846c0,1.458 -0.449,2.563 -1.347,3.315c-0.899,0.752 -2.237,1.128 -4.014,1.128Zm-0.703,-6.562l-1.953,0l0,4.375l1.953,0c0.683,0 1.255,-0.072 1.714,-0.215c0.459,-0.143 0.809,-0.378 1.049,-0.703c0.241,-0.326 0.362,-0.752 0.362,-1.28c0,-0.631 -0.186,-1.145 -0.557,-1.543c-0.417,-0.423 -1.273,-0.634 -2.568,-0.634Z" style="fill-rule:nonzero;"/><path d="M236.377,30.97c1.484,0 2.759,0.301 3.823,0.903c1.065,0.602 1.87,1.458 2.417,2.568c0.547,1.11 0.82,2.414 0.82,3.912c0,1.106 -0.149,2.112 -0.449,3.017c-0.299,0.905 -0.748,1.69 -1.347,2.354c-0.599,0.664 -1.335,1.172 -2.207,1.523c-0.873,0.352 -1.872,0.527 -2.998,0.527c-1.12,0 -2.123,-0.18 -3.008,-0.542c-0.886,-0.361 -1.625,-0.87 -2.217,-1.528c-0.593,-0.657 -1.04,-1.448 -1.343,-2.373c-0.303,-0.924 -0.454,-1.924 -0.454,-2.998c0,-1.1 0.158,-2.109 0.474,-3.027c0.315,-0.918 0.773,-1.7 1.372,-2.344c0.599,-0.645 1.328,-1.138 2.187,-1.48c0.86,-0.341 1.836,-0.512 2.93,-0.512Zm4.121,7.363c0,-1.048 -0.169,-1.956 -0.508,-2.725c-0.338,-0.768 -0.822,-1.349 -1.45,-1.743c-0.628,-0.394 -1.349,-0.591 -2.163,-0.591c-0.579,0 -1.115,0.109 -1.607,0.328c-0.491,0.218 -0.914,0.535 -1.269,0.952c-0.355,0.416 -0.635,0.949 -0.84,1.596c-0.205,0.648 -0.308,1.376 -0.308,2.183c0,0.814 0.103,1.549 0.308,2.207c0.205,0.658 0.495,1.203 0.869,1.636c0.375,0.433 0.804,0.757 1.289,0.971c0.485,0.215 1.018,0.323 1.597,0.323c0.742,0 1.424,-0.186 2.046,-0.557c0.622,-0.371 1.116,-0.944 1.484,-1.719c0.368,-0.774 0.552,-1.728 0.552,-2.861Z" style="fill-rule:nonzero;"/><path d="M249.697,32.708l5.576,8.438l0,-8.516c0,-0.554 0.119,-0.969 0.357,-1.245c0.237,-0.277 0.558,-0.415 0.962,-0.415c0.416,0 0.745,0.138 0.986,0.415c0.241,0.276 0.361,0.691 0.361,1.245l0,11.26c0,1.256 -0.52,1.884 -1.562,1.884c-0.26,0 -0.495,-0.037 -0.703,-0.112c-0.209,-0.075 -0.404,-0.194 -0.586,-0.356c-0.182,-0.163 -0.352,-0.354 -0.508,-0.572c-0.156,-0.218 -0.312,-0.441 -0.469,-0.669l-5.439,-8.339l0,8.388c0,0.547 -0.127,0.961 -0.381,1.24c-0.254,0.28 -0.579,0.42 -0.977,0.42c-0.41,0 -0.739,-0.141 -0.986,-0.424c-0.247,-0.284 -0.371,-0.695 -0.371,-1.236l0,-11.045c0,-0.468 0.052,-0.836 0.156,-1.103c0.124,-0.293 0.329,-0.532 0.615,-0.718c0.287,-0.186 0.596,-0.278 0.928,-0.278c0.261,0 0.484,0.042 0.669,0.127c0.186,0.084 0.348,0.198 0.488,0.341c0.14,0.144 0.284,0.329 0.43,0.557c0.147,0.228 0.298,0.466 0.454,0.713Z" style="fill-rule:nonzero;"/><path d="M271.992,41.233c0,0.866 -0.223,1.644 -0.669,2.334c-0.446,0.69 -1.098,1.231 -1.958,1.621c-0.859,0.391 -1.878,0.586 -3.056,0.586c-1.413,0 -2.579,-0.267 -3.497,-0.8c-0.651,-0.384 -1.18,-0.897 -1.586,-1.538c-0.407,-0.642 -0.611,-1.265 -0.611,-1.871c0,-0.351 0.122,-0.652 0.366,-0.903c0.245,-0.251 0.555,-0.376 0.933,-0.376c0.306,0 0.565,0.098 0.776,0.293c0.212,0.195 0.393,0.485 0.542,0.869c0.183,0.456 0.38,0.837 0.591,1.143c0.212,0.306 0.51,0.558 0.894,0.757c0.384,0.198 0.888,0.298 1.513,0.298c0.86,0 1.558,-0.201 2.095,-0.601c0.537,-0.4 0.806,-0.9 0.806,-1.499c0,-0.475 -0.145,-0.861 -0.435,-1.157c-0.289,-0.297 -0.664,-0.523 -1.123,-0.679c-0.459,-0.156 -1.072,-0.322 -1.841,-0.498c-1.028,-0.241 -1.889,-0.523 -2.583,-0.845c-0.693,-0.322 -1.243,-0.762 -1.65,-1.318c-0.407,-0.557 -0.61,-1.249 -0.61,-2.075c0,-0.788 0.214,-1.488 0.644,-2.1c0.43,-0.612 1.052,-1.082 1.865,-1.411c0.814,-0.329 1.771,-0.493 2.872,-0.493c0.878,0 1.639,0.109 2.28,0.327c0.641,0.218 1.173,0.508 1.596,0.869c0.424,0.361 0.733,0.741 0.928,1.138c0.196,0.397 0.293,0.784 0.293,1.162c0,0.345 -0.122,0.656 -0.366,0.932c-0.244,0.277 -0.549,0.415 -0.913,0.415c-0.332,0 -0.584,-0.083 -0.757,-0.249c-0.172,-0.166 -0.36,-0.437 -0.561,-0.815c-0.261,-0.54 -0.573,-0.962 -0.938,-1.265c-0.365,-0.302 -0.951,-0.454 -1.758,-0.454c-0.749,0 -1.352,0.165 -1.811,0.493c-0.459,0.329 -0.689,0.725 -0.689,1.187c0,0.286 0.078,0.534 0.235,0.742c0.156,0.208 0.371,0.388 0.644,0.537c0.274,0.15 0.55,0.267 0.83,0.352c0.28,0.084 0.742,0.208 1.387,0.371c0.807,0.189 1.538,0.397 2.192,0.625c0.655,0.228 1.211,0.504 1.67,0.83c0.459,0.326 0.817,0.737 1.074,1.235c0.258,0.498 0.386,1.109 0.386,1.831Z" style="fill-rule:nonzero;"/><path d="M280.752,30.97c1.484,0 2.759,0.301 3.823,0.903c1.065,0.602 1.87,1.458 2.417,2.568c0.547,1.11 0.82,2.414 0.82,3.912c0,1.106 -0.149,2.112 -0.449,3.017c-0.299,0.905 -0.748,1.69 -1.347,2.354c-0.599,0.664 -1.335,1.172 -2.207,1.523c-0.873,0.352 -1.872,0.527 -2.998,0.527c-1.12,0 -2.123,-0.18 -3.008,-0.542c-0.886,-0.361 -1.625,-0.87 -2.217,-1.528c-0.593,-0.657 -1.04,-1.448 -1.343,-2.373c-0.303,-0.924 -0.454,-1.924 -0.454,-2.998c0,-1.1 0.158,-2.109 0.474,-3.027c0.315,-0.918 0.773,-1.7 1.372,-2.344c0.599,-0.645 1.328,-1.138 2.187,-1.48c0.86,-0.341 1.836,-0.512 2.93,-0.512Zm4.121,7.363c0,-1.048 -0.169,-1.956 -0.508,-2.725c-0.338,-0.768 -0.822,-1.349 -1.45,-1.743c-0.628,-0.394 -1.349,-0.591 -2.163,-0.591c-0.579,0 -1.115,0.109 -1.607,0.328c-0.491,0.218 -0.914,0.535 -1.269,0.952c-0.355,0.416 -0.635,0.949 -0.84,1.596c-0.205,0.648 -0.308,1.376 -0.308,2.183c0,0.814 0.103,1.549 0.308,2.207c0.205,0.658 0.495,1.203 0.869,1.636c0.375,0.433 0.804,0.757 1.289,0.971c0.485,0.215 1.018,0.323 1.597,0.323c0.742,0 1.424,-0.186 2.046,-0.557c0.622,-0.371 1.116,-0.944 1.484,-1.719c0.368,-0.774 0.552,-1.728 0.552,-2.861Z" style="fill-rule:nonzero;"/><path d="M294.189,39.407l-1.015,0l0,4.6c0,0.605 -0.134,1.051 -0.401,1.338c-0.267,0.286 -0.615,0.429 -1.045,0.429c-0.462,0 -0.82,-0.149 -1.074,-0.449c-0.254,-0.299 -0.381,-0.739 -0.381,-1.318l0,-11.016c0,-0.625 0.14,-1.077 0.42,-1.357c0.28,-0.28 0.733,-0.42 1.358,-0.42l4.717,0c0.651,0 1.207,0.028 1.669,0.083c0.463,0.055 0.879,0.168 1.25,0.337c0.45,0.189 0.847,0.459 1.192,0.81c0.345,0.352 0.607,0.76 0.786,1.226c0.179,0.465 0.269,0.959 0.269,1.479c0,1.068 -0.302,1.921 -0.904,2.559c-0.602,0.638 -1.515,1.091 -2.739,1.357c0.514,0.274 1.006,0.678 1.475,1.211c0.468,0.534 0.887,1.102 1.254,1.704c0.368,0.603 0.655,1.146 0.86,1.631c0.205,0.485 0.307,0.819 0.307,1.001c0,0.189 -0.06,0.376 -0.18,0.562c-0.121,0.185 -0.285,0.332 -0.493,0.439c-0.209,0.108 -0.45,0.161 -0.723,0.161c-0.326,0 -0.599,-0.076 -0.82,-0.229c-0.222,-0.153 -0.412,-0.347 -0.572,-0.581c-0.159,-0.235 -0.376,-0.58 -0.649,-1.035l-1.162,-1.934c-0.417,-0.71 -0.79,-1.25 -1.118,-1.621c-0.329,-0.371 -0.663,-0.625 -1.001,-0.762c-0.339,-0.136 -0.765,-0.205 -1.28,-0.205Zm1.661,-6.015l-2.676,0l0,3.935l2.597,0c0.697,0 1.283,-0.06 1.758,-0.181c0.476,-0.12 0.838,-0.325 1.089,-0.615c0.251,-0.289 0.376,-0.688 0.376,-1.196c0,-0.397 -0.101,-0.747 -0.303,-1.05c-0.201,-0.303 -0.481,-0.529 -0.839,-0.679c-0.339,-0.143 -1.006,-0.214 -2.002,-0.214Z" style="fill-rule:nonzero;"/><path d="M43.775,29.607c2.832,-4.65 8.497,-4.65 11.329,-2.076c2.832,2.574 2.832,7.722 0,12.87c-1.983,3.861 -7.081,7.721 -11.329,10.295c-4.248,-2.574 -9.347,-6.434 -11.329,-10.295c-2.832,-5.148 -2.832,-10.296 0,-12.87c2.832,-2.574 8.497,-2.574 11.329,2.076Z" style="fill:#ea4aaa;"/><defs><linearGradient id="_Linear1" x1="0" y1="0" x2="1" y2="0" gradientUnits="userSpaceOnUse" gradientTransform="matrix(4.68427e-15,76.5,-76.5,4.68427e-15,171.607,2.66454e-15)"><stop offset="0" style="stop-color:#fff;stop-opacity:1"/><stop offset="1" style="stop-color:#e7e7e7;stop-opacity:1"/></linearGradient></defs></svg>