<svg xmlns="http://www.w3.org/2000/svg" style="display: none;"><symbol id="nc-check-simple" viewBox="0 0 64 64"><title>check simple</title><g><g class="nc-icon-wrapper"><polygon fill="none" stroke="currentColor" stroke-linecap="square" stroke-miterlimit="10" points="24,54 4,34 12,26 24,38 52,10 60,18 " stroke-linejoin="miter"/></g></g></symbol><symbol id="nc-world-2" viewBox="0 0 64 64"><title>world 2</title><g><g class="nc-icon-wrapper"><path data-cap="butt" data-color="color-2" fill="none" stroke-miterlimit="10" d="M9.6,12 c5.5,7.3,12.5,10,22.4,10c9.8,0,16.9-2.7,22.4-10" stroke-linejoin="miter" stroke-linecap="butt"/> <path data-cap="butt" data-color="color-2" fill="none" stroke-miterlimit="10" d="M9.6,52 c5.5-7.3,12.5-10,22.4-10c9.8,0,16.9,2.7,22.4,10" stroke-linejoin="miter" stroke-linecap="butt"/> <path data-cap="butt" data-color="color-2" fill="none" stroke-miterlimit="10" d="M32,62c10.6-5.1,16-16.6,16-30 S42.6,7.1,32,2" stroke-linejoin="miter" stroke-linecap="butt"/> <path data-cap="butt" data-color="color-2" fill="none" stroke-miterlimit="10" d="M32,62c-10.6-5.1-16-16.6-16-30 S21.4,7.1,32,2" stroke-linejoin="miter" stroke-linecap="butt"/> <polyline data-cap="butt" data-color="color-2" fill="none" stroke-miterlimit="10" points="32,62 32,59.3 32,4.7 32,2 " stroke-linejoin="miter" stroke-linecap="butt"/> <line data-cap="butt" data-color="color-2" fill="none" stroke-miterlimit="10" x1="2" y1="32" x2="62" y2="32" stroke-linejoin="miter" stroke-linecap="butt"/> <circle fill="none" stroke="currentColor" stroke-linecap="square" stroke-miterlimit="10" cx="32" cy="32" r="30" stroke-linejoin="miter"/></g></g></symbol><symbol id="nc-webpage-2" viewBox="0 0 48 48"><title>webpage 2</title><g><g class="nc-icon-wrapper"><path fill="#E6E6E6" d="M45,2H3C1.89545,2,1,2.89539,1,4v3h46V4C47,2.89539,46.10455,2,45,2z"/> <rect x="1" y="7" fill="#43A6DD" width="46" height="12"/> <path fill="#E6E6E6" d="M16,19v27h29c1.10455,0,2-0.89545,2-2V19H16z"/> <path fill="#444444" d="M1,19v25c0,1.10455,0.89545,2,2,2h13V19H1z"/> <circle fill="#E6E6E6" cx="8" cy="13" r="3"/> <path fill="#E6E6E6" d="M42,14h-4c-0.55225,0-1-0.44727-1-1s0.44775-1,1-1h4c0.55225,0,1,0.44727,1,1S42.55225,14,42,14z"/> <path fill="#E6E6E6" d="M33,14h-9c-0.55225,0-1-0.44727-1-1s0.44775-1,1-1h9c0.55225,0,1,0.44727,1,1S33.55225,14,33,14z"/> <path fill="#B3B3B3" d="M28.90455,36h-7.80911C20.49045,36,20,35.50955,20,34.90456v-9.80911C20,24.49045,20.49045,24,21.09545,24 h7.80911C29.50955,24,30,24.49045,30,25.09545v9.80911C30,35.50955,29.50955,36,28.90455,36z"/> <path fill="#B3B3B3" d="M42,26h-8c-0.55225,0-1-0.44727-1-1s0.44775-1,1-1h8c0.55225,0,1,0.44727,1,1S42.55225,26,42,26z"/> <path fill="#B3B3B3" d="M42,31h-8c-0.55225,0-1-0.44727-1-1s0.44775-1,1-1h8c0.55225,0,1,0.44727,1,1S42.55225,31,42,31z"/> <path fill="#B3B3B3" d="M42,36h-8c-0.55225,0-1-0.44727-1-1s0.44775-1,1-1h8c0.55225,0,1,0.44727,1,1S42.55225,36,42,36z"/> <path fill="#B3B3B3" d="M42,41H21c-0.55225,0-1-0.44727-1-1s0.44775-1,1-1h21c0.55225,0,1,0.44727,1,1S42.55225,41,42,41z"/></g></g></symbol><symbol id="nc-square-remove-12" viewBox="0 0 48 48"><title>square remove 12</title><g><g class="nc-icon-wrapper"><path fill="#E86C60" d="M45,1H3C1.89543,1,1,1.89543,1,3v42c0,1.10457,0.89543,2,2,2h42c1.10457,0,2-0.89543,2-2V3 C47,1.89543,46.10457,1,45,1z"/> <path fill="#FFFFFF" d="M34.29289,30.29289L28,24l6.29289-6.29289c0.39053-0.39053,0.39053-1.02369,0-1.41422l-2.58578-2.58579 c-0.39053-0.39052-1.02369-0.39052-1.41422,0L24,20l-6.29289-6.29289c-0.39053-0.39052-1.02369-0.39052-1.41422,0l-2.58579,2.58579 c-0.39052,0.39053-0.39052,1.02369,0,1.41422L20,24l-6.29289,6.29289c-0.39052,0.39053-0.39052,1.02369,0,1.41422l2.58579,2.58578 c0.39053,0.39053,1.02369,0.39053,1.41422,0L24,28l6.29289,6.29289c0.39053,0.39053,1.02369,0.39053,1.41422,0l2.58578-2.58578 C34.68342,31.31658,34.68342,30.68342,34.29289,30.29289z"/></g></g></symbol><symbol id="nc-spaceship" viewBox="0 0 48 48"><title>spaceship</title><g><g class="nc-icon-wrapper"><path fill="#B3B3B3" d="M11.95508,23.2124c-0.26562,0-0.51953-0.10547-0.70703-0.29297l-6.85547-6.85547 c-0.32227-0.32227-0.38574-0.82227-0.1543-1.21484c0.75-1.27197,1.62891-2.41504,2.6123-3.39844 c4.95605-4.95605,12.31738-6.36621,18.75195-3.59424C25.90625,7.9873,26.125,8.25928,26.18848,8.5835 c0.06348,0.32373-0.03711,0.6582-0.26953,0.89355l-13.25195,13.4375c-0.18652,0.18994-0.44238,0.29688-0.70801,0.29785 C11.95703,23.2124,11.95605,23.2124,11.95508,23.2124z"/> <path fill="#B3B3B3" d="M32.64258,43.8999c-0.25879,0-0.51465-0.1001-0.70703-0.29297l-6.91602-6.91602 c-0.18848-0.18799-0.29395-0.44336-0.29297-0.70996c0.00098-0.26611,0.10742-0.521,0.29688-0.70801l13.44922-13.30322 c0.23438-0.23145,0.56738-0.33154,0.89062-0.27148c0.32324,0.06152,0.5957,0.27832,0.72754,0.57959 c2.84473,6.46729,1.4541,13.875-3.54199,18.87158c-0.98145,0.98193-2.125,1.86035-3.39844,2.61182 C32.99219,43.85449,32.81738,43.8999,32.64258,43.8999z"/> <path fill="#E6E6E6" d="M8.04395,27.34131c-0.14941,0.37207-0.0625,0.79688,0.2207,1.08008l11.31348,11.31348 c0.19141,0.19141,0.44727,0.29297,0.70703,0.29297c0.12793,0,0.25586-0.02441,0.37891-0.07422 c0.18848-0.07733,14.57507-6.15625,21.92511-21.36444L29.36237,5.36237C14.12976,12.69263,8.11975,27.1521,8.04395,27.34131z"/> <path fill="#E86C60" d="M46.4502,1.55273c-0.20117-0.20215-0.49414-0.31104-0.76074-0.29297 c-6.34113,0.33087-11.74622,1.89819-16.32709,4.1026l13.22681,13.22681c2.21027-4.5733,3.79181-9.96222,4.15009-16.27423 C46.75586,2.03125,46.65039,1.75439,46.4502,1.55273z"/> <path fill="#76B5B5" d="M27.35547,25.64062c-1.28027,0-2.56055-0.4873-3.53516-1.46191c-1.94922-1.94922-1.94922-5.12158,0-7.0708 l0,0c1.9502-1.95117,5.12305-1.94922,7.07129,0c0.94434,0.94434,1.46484,2.19971,1.46484,3.53516 c0,1.33594-0.52051,2.59131-1.46484,3.53564C29.91699,25.15332,28.63672,25.64062,27.35547,25.64062z"/> <path fill="#EA9860" d="M5.51074,45.05273c-0.73438,0-1.31543-0.03564-1.58496-0.05566 c-0.49414-0.03662-0.88672-0.4292-0.92285-0.92334c-0.07129-0.95557-0.33398-5.81396,1.46191-7.60938l0,0l0,0 C5.40918,35.52002,6.66406,35,8,35s2.59082,0.52002,3.53516,1.46436c1.94922,1.94971,1.94922,5.12158,0,7.07129 C10.24707,44.82422,7.37988,45.05273,5.51074,45.05273z"/></g></g></symbol><symbol id="nc-settings" viewBox="0 0 48 48"><title>settings</title><g><g class="nc-icon-wrapper"><path fill="#8E8E8E" d="M21,18.69922l-6.42957-6.42957l0.86511-2.59583c0.12012-0.35938,0.02637-0.75586-0.24121-1.02344 L9.53809,2.99414c-0.39062-0.39062-1.02344-0.39062-1.41406,0L2.4668,8.65039C2.2793,8.83789,2.17383,9.0918,2.17383,9.35742 S2.2793,9.87695,2.4668,10.06445l5.65723,5.65723c0.19043,0.19043,0.44629,0.29297,0.70703,0.29297 c0.10547,0,0.21289-0.0166,0.31641-0.05176l2.59497-0.86499l6.42944,6.42944c0.39061,0.39062,0.90234,0.58594,1.41406,0.58594 S20.60938,21.91797,21,21.52734C21.78125,20.74609,21.78125,19.48047,21,18.69922z"/> <path fill="#E86C60" d="M20.73654,31.26346l12.701,12.70101c2.76142,2.76142,7.23857,2.76142,9.99999,0l0.00001-0.00001 c2.76142-2.76142,2.76142-7.23857,0-9.99999l-12.701-12.70101L20.73654,31.26346z"/> <path fill="#C9514B" d="M39.32031,40.84668c-0.25586,0-0.51172-0.09766-0.70703-0.29297L30.1543,32.0957 c-0.39062-0.39062-0.39062-1.02344,0-1.41406s1.02344-0.39062,1.41406,0l8.45898,8.45801c0.39062,0.39062,0.39062,1.02344,0,1.41406 C39.83203,40.74902,39.57617,40.84668,39.32031,40.84668z"/> <path fill="#B3B3B3" d="M45.85059,9.26562c-0.10742-0.33105-0.37891-0.58203-0.7168-0.66406 c-0.3418-0.08105-0.69531,0.01953-0.94141,0.26562l-5.24023,5.23926l-5.65723-5.65723l5.24023-5.23926 c0.24609-0.24609,0.34668-0.60254,0.26562-0.94043c-0.08203-0.33887-0.33301-0.61035-0.66406-0.71777 c-1.53906-0.49902-3.13477-0.68066-4.73633-0.54199c-6.14941,0.53223-11.06641,5.9873-10.96094,12.1582 c0.0166,0.95117,0.14551,1.89648,0.38574,2.81738L4.07617,32.53516c-1.59863,1.41211-2.51465,3.36328-2.58105,5.49414 s0.72754,4.13477,2.23535,5.64258c1.44922,1.44922,3.35742,2.23828,5.39648,2.23828c0.08203,0,0.16504-0.00098,0.24707-0.00391 c2.13086-0.06641,4.08203-0.9834,5.49316-2.58105l16.54883-18.74805c1.76855,0.46289,3.58789,0.51172,5.4209,0.14844 c4.35057-0.86621,7.93555-4.16895,9.13184-8.41309C46.62695,13.97461,46.58691,11.53809,45.85059,9.26562z M10,39 c-1.10455,0-2-0.89545-2-2c0-1.10461,0.89545-2,2-2s2,0.89539,2,2C12,38.10455,11.10455,39,10,39z"/></g></g></symbol><symbol id="nc-preferences" viewBox="0 0 48 48"><title>preferences</title><g><g class="nc-icon-wrapper"><path fill="#B3B3B3" d="M45,10H14V6h31c0.55228,0,1,0.44772,1,1v2C46,9.55229,45.55228,10,45,10z"/> <path fill="#43A6DD" d="M14,10H3c-0.55228,0-1-0.44771-1-1V7c0-0.55228,0.44772-1,1-1h11V10z"/> <path fill="#B3B3B3" d="M45,26H32v-4h13c0.55228,0,1,0.44772,1,1v2C46,25.55228,45.55228,26,45,26z"/> <path fill="#43A6DD" d="M32,26H3c-0.55228,0-1-0.44772-1-1v-2c0-0.55228,0.44772-1,1-1h29V26z"/> <path fill="#B3B3B3" d="M45,42H14v-4h31c0.55228,0,1,0.44772,1,1v2C46,41.55228,45.55228,42,45,42z"/> <path fill="#43A6DD" d="M14,42H3c-0.55228,0-1-0.44772-1-1v-2c0-0.55228,0.44772-1,1-1h11V42z"/> <path fill="#E6E6E6" d="M19,15h-8c-0.55225,0-1-0.44775-1-1V2c0-0.55225,0.44775-1,1-1h8c0.55225,0,1,0.44775,1,1v12 C20,14.55225,19.55225,15,19,15z"/> <path fill="#E6E6E6" d="M37,31h-8c-0.55225,0-1-0.44775-1-1V18c0-0.55225,0.44775-1,1-1h8c0.55225,0,1,0.44775,1,1v12 C38,30.55225,37.55225,31,37,31z"/> <path fill="#E6E6E6" d="M19,47h-8c-0.55225,0-1-0.44775-1-1V34c0-0.55225,0.44775-1,1-1h8c0.55225,0,1,0.44775,1,1v12 C20,46.55225,19.55225,47,19,47z"/> <rect x="20" y="6" fill="#898989" width="3" height="4"/> <rect x="38" y="22" fill="#898989" width="3" height="4"/> <rect x="20" y="38" fill="#898989" width="3" height="4"/></g></g></symbol><symbol id="nc-palette" viewBox="0 0 48 48"><title>palette</title><g><g class="nc-icon-wrapper"><path fill="#444444" d="M40.432,13.098c-5.528-2.646-10.562-1.053-14.606,0.227c-3.601,1.14-5.704,1.703-7.025,0.075 c-0.402-0.537-0.091-1.572,0.237-2.668c0.482-1.608,1.083-3.609-0.242-5.337c-1.709-2.243-5.522-1.924-8.023-0.212 C4.653,9.491,1,16.526,1,24c0,12.682,10.318,23,23,23c10.247,0,19.348-6.878,22.143-16.758 C46.465,28.94,49.051,17.407,40.432,13.098z M34,28c-2.209,0-4-1.791-4-4s1.791-4,4-4c2.209,0,4,1.791,4,4S36.209,28,34,28z"/> <circle fill="#E86C60" cx="10" cy="24" r="3"/> <circle fill="#EFD358" cx="15" cy="34" r="3"/> <circle fill="#43A6DD" cx="26" cy="38" r="3"/></g></g></symbol><symbol id="nc-image" viewBox="0 0 48 48"><title>image</title><g><g class="nc-icon-wrapper"><path fill="#223E49" d="M45,45H3c-1.105,0-2-0.895-2-2V5c0-1.105,0.895-2,2-2h42c1.105,0,2,0.895,2,2v38C47,44.105,46.105,45,45,45z "/> <circle fill="#EFD358" cx="21" cy="15" r="4"/> <path fill="#5A7A84" d="M41.792,35.39l-10-13c-0.378-0.492-1.207-0.492-1.585,0l-8.243,10.715l-6.184-7.73 c-0.379-0.475-1.183-0.475-1.562,0l-8,10C5.697,36.028,6.161,37,7,37h34C41.829,37,42.298,36.047,41.792,35.39z"/></g></g></symbol><symbol id="nc-home-52" viewBox="0 0 48 48"><title>home 52</title><g><g class="nc-icon-wrapper"><path fill="#C9514B" d="M8,18V7c0-0.55228,0.44771-1,1-1h4c0.55229,0,1,0.44772,1,1v6.09091L8,18z"/> <path fill="#E6E6E6" d="M24,3L7,18.11108v25.88843c0,1.10455,0.89545,2,2,2h30c1.10461,0,2-0.89545,2-2V18.11108L24,3z"/> <path fill="#E86C60" d="M45.99951,23.99951c-0.23975,0-0.48047-0.08594-0.67236-0.25977L24,4.35107L2.67285,23.73975 c-0.40918,0.37109-1.0415,0.33984-1.4126-0.06738c-0.37158-0.40918-0.3418-1.04102,0.06689-1.41309l22-20 c0.38184-0.3457,0.96387-0.3457,1.3457,0l22,20c0.40869,0.37207,0.43848,1.00391,0.06689,1.41309 C46.54248,23.88916,46.27148,23.99951,45.99951,23.99951z"/> <path fill="#A67C52" d="M28,33h-8c-0.55228,0-1,0.44772-1,1v12h10V34C29,33.44772,28.55228,33,28,33z"/> <path fill="#43A6DD" d="M28,27h-8c-0.55228,0-1-0.44772-1-1v-6c0-0.55228,0.44772-1,1-1h8c0.55228,0,1,0.44772,1,1v6 C29,26.55228,28.55228,27,28,27z"/> <path fill="#72C472" d="M14.31403,46C14.74866,45.09009,15,44.07587,15,43c0-3.86603-3.13397-7-7-7c-3.86597,0-7,3.13397-7,7 c0,1.07587,0.25134,2.09009,0.68597,3H14.31403z"/> <path fill="#72C472" d="M46.31403,46C46.74866,45.09009,47,44.07587,47,43c0-3.86603-3.13397-7-7-7c-3.86597,0-7,3.13397-7,7 c0,1.07587,0.25134,2.09009,0.68597,3H46.31403z"/></g></g></symbol><symbol id="nc-dashboard-30" viewBox="0 0 48 48"><title>dashboard 30</title><g><g class="nc-icon-wrapper"><path fill="#444444" d="M24,47C11.31738,47,1,36.68213,1,24S11.31738,1,24,1s23,10.31787,23,23S36.68262,47,24,47z"/> <path fill="#E86C60" d="M24,11c-0.55273,0-1-0.44775-1-1V8c0-0.55225,0.44727-1,1-1s1,0.44775,1,1v2C25,10.55225,24.55273,11,24,11z "/> <path fill="#E86C60" d="M40,25h-2c-0.55273,0-1-0.44775-1-1s0.44727-1,1-1h2c0.55273,0,1,0.44775,1,1S40.55273,25,40,25z"/> <path fill="#E86C60" d="M33.89941,15.10059c-0.25586,0-0.51172-0.09766-0.70703-0.29297c-0.39062-0.39062-0.39062-1.02344,0-1.41406 l1.41406-1.41406c0.39062-0.39062,1.02344-0.39062,1.41406,0s0.39062,1.02344,0,1.41406l-1.41406,1.41406 C34.41113,15.00293,34.15527,15.10059,33.89941,15.10059z"/> <path fill="#43A6DD" d="M14.10059,15.10059c0.25586,0,0.51172-0.09766,0.70703-0.29297c0.39062-0.39062,0.39062-1.02344,0-1.41406 l-1.41406-1.41406c-0.39062-0.39062-1.02344-0.39062-1.41406,0s-0.39062,1.02344,0,1.41406l1.41406,1.41406 C13.58887,15.00293,13.84473,15.10059,14.10059,15.10059z"/> <path fill="#E86C60" d="M33.89941,32.89941c-0.25586,0-0.51172,0.09766-0.70703,0.29297c-0.39062,0.39062-0.39062,1.02344,0,1.41406 l1.41406,1.41406c0.39062,0.39062,1.02344,0.39062,1.41406,0s0.39062-1.02344,0-1.41406l-1.41406-1.41406 C34.41113,32.99707,34.15527,32.89941,33.89941,32.89941z"/> <path fill="#43A6DD" d="M14.10059,32.89941c0.25586,0,0.51172,0.09766,0.70703,0.29297c0.39062,0.39062,0.39062,1.02344,0,1.41406 l-1.41406,1.41406c-0.39062,0.39062-1.02344,0.39062-1.41406,0s-0.39062-1.02344,0-1.41406l1.41406-1.41406 C13.58887,32.99707,13.84473,32.89941,14.10059,32.89941z"/> <path fill="#43A6DD" d="M10,25H8c-0.55273,0-1-0.44775-1-1s0.44727-1,1-1h2c0.55273,0,1,0.44775,1,1S10.55273,25,10,25z"/> <path fill="#FFFFFF" d="M26.12132,26.12132c-1.16963,1.16963-3.07302,1.16963-4.24264,0S17,17,17,17 s7.95169,3.70905,9.12132,4.87868S27.29095,24.95169,26.12132,26.12132z"/></g></g></symbol><symbol id="nc-cloud-download-95" viewBox="0 0 48 48"><title>cloud download 95</title><g><g class="nc-icon-wrapper"><path fill="#43A6DD" d="M38.86328,21.04102C37.89014,13.09766,31.08936,7,23,7C14.69971,7,7.84326,13.31836,7.08789,21.51074 C3.46875,22.74609,1,26.13867,1,30c0,4.96289,4.0376,9,9,9h28c4.9624,0,9-4.03711,9-9 C47,25.32812,43.42236,21.47656,38.86328,21.04102z"/> <path fill="#FFFFFF" d="M29.29297,26.29297L25,30.58594V17c0-0.55273-0.44775-1-1-1s-1,0.44727-1,1v13.58594l-4.29297-4.29297 c-0.39062-0.39062-1.02344-0.39062-1.41406,0s-0.39062,1.02344,0,1.41406l5.99933,5.99933 c0.09235,0.09253,0.20306,0.16577,0.32568,0.21655C23.74017,33.97345,23.86981,34,24,34s0.25983-0.02655,0.38202-0.07709 c0.12262-0.05078,0.23334-0.12402,0.32568-0.21655l5.99933-5.99933c0.39062-0.39062,0.39062-1.02344,0-1.41406 S29.68359,25.90234,29.29297,26.29297z"/></g></g></symbol><symbol id="nc-cloud-upload-96" viewBox="0 0 48 48"><title>cloud upload 96</title><g><g class="nc-icon-wrapper"><path fill="#43A6DD" d="M38.86328,21.04102C37.89062,13.09766,31.08887,7,23,7C14.69922,7,7.84277,13.31836,7.08789,21.51074 C3.46875,22.74609,1,26.13867,1,30c0,4.96289,4.03711,9,9,9h28c4.96289,0,9-4.03711,9-9 C47,25.3291,43.42285,21.47754,38.86328,21.04102z"/> <path fill="#FFFFFF" d="M30.70703,22.29297l-5.99872-5.99872c-0.09247-0.09277-0.20343-0.16638-0.32654-0.21729 c-0.24426-0.10095-0.51935-0.10095-0.76361,0c-0.12299,0.0509-0.23401,0.12451-0.32648,0.21729l-5.99872,5.99872 c-0.39062,0.39062-0.39062,1.02344,0,1.41406s1.02344,0.39062,1.41406,0L23,19.41406V33c0,0.55273,0.44727,1,1,1s1-0.44727,1-1 V19.41406l4.29297,4.29297C29.48828,23.90234,29.74414,24,30,24s0.51172-0.09766,0.70703-0.29297 C31.09766,23.31641,31.09766,22.68359,30.70703,22.29297z"/></g></g></symbol><symbol id="nc-code" viewBox="0 0 48 48"><title>code</title><g><g class="nc-icon-wrapper"><path fill="#335262" d="M12,34.828l-9.414-9.414c-0.781-0.781-0.781-2.047,0-2.828L12,13.172L14.829,16l-8,8l8,8L12,34.828z"/> <path fill="#335262" d="M36,34.828L33.171,32l8-8l-8-8L36,13.172l9.414,9.414c0.781,0.781,0.781,2.047,0,2.828L36,34.828z"/> <rect x="5.507" y="22" transform="matrix(0.2427 -0.9701 0.9701 0.2427 -5.1069 41.4583)" fill="#EA9860" width="36.985" height="4"/></g></g></symbol><symbol id="nc-chat-33" viewBox="0 0 48 48"><title>chat 33</title><g><g class="nc-icon-wrapper"><path fill="#BADEFC" d="M47,29c0-7.168-7.626-13-17-13s-17,5.832-17,13s7.626,13,17,13c1.119,0,2.211-0.088,3.27-0.247l8.283,4.141 C41.694,45.965,41.847,46,42,46c0.183,0,0.365-0.05,0.526-0.149C42.82,45.668,43,45.347,43,45v-7.64C45.492,35.097,47,32.182,47,29z "/> <path fill="#43A6DD" d="M22,2C10.42,2,1,9.626,1,19c0,3.603,1.381,7.038,4,9.96V39c0,0.347,0.18,0.668,0.474,0.851 C5.635,39.95,5.817,40,6,40c0.153,0,0.306-0.035,0.447-0.105l9.33-4.665C17.812,35.741,19.903,36,22,36c11.58,0,21-7.626,21-17 S33.58,2,22,2z"/></g></g></symbol><symbol id="nc-man-23" viewBox="0 0 48 48"><title>man 23</title><g><g class="nc-icon-wrapper"><rect x="18" y="24" fill-rule="evenodd" clip-rule="evenodd" fill="#EAC3A2" width="12" height="15"/> <path fill-rule="evenodd" clip-rule="evenodd" fill="#F1D9C5" d="M35,12v8c0,6.0650005-4.9349995,11-11,11s-11-4.9349995-11-11v-8 H35z"/> <path fill-rule="evenodd" clip-rule="evenodd" fill="#72C472" d="M46,44.0092545 c0-1.6619644-1.2289314-3.5469093-2.7504997-4.2125969L30,34c-1.6879997,1.25-3.7539997,2-6,2s-4.3120003-0.75-5.9820004-2 L4.753592,39.7966576C3.232825,40.4612465,2,42.3496704,2,44.0092545v2.9878159C2,47.550972,2.4498155,48,3.001672,48h41.9966583 C45.5515404,48,46,47.5621185,46,46.9970703V44.0092545z"/> <path fill-rule="evenodd" clip-rule="evenodd" fill="#444444" d="M13,11.9989014 c0-3.3131027,2.5352898-6.9043617,5.6539803-8.0181808l7.4057007-2.6448898 c0.5193291-0.1854706,1.1393986,0.0623283,1.3841782,0.551899L29,5c3.3137093,0,6,2.6930313,6,6v6c0-2.7614212-2.2385788-5-5-5H18 c-2.7614202,0-5,2.2385788-5,5V11.9989014z"/> <path fill-rule="evenodd" clip-rule="evenodd" fill="#FFFFFF" d="M24,36c-2.2459717,0-4.3120117-0.75-5.9819946-2 l-0.0055542,0.0024414l0,0l-2.4395752,1.0661011l1.9101353,4.6680298c0.2560425,0.625721,1.0463161,0.8223228,1.5656967,0.3895035 L24,36l4.9513283,4.1261063c0.519371,0.4328079,1.3096256,0.2362289,1.5656853-0.389473l1.9126129-4.673645L30,34 C28.3120117,35.25,26.2460327,36,24,36z"/></g></g></symbol><symbol id="nc-cd-reader" viewBox="0 0 48 48"><title>cd reader</title><g><g class="nc-icon-wrapper"><path data-cap="butt" data-color="color-2" fill="none" stroke-miterlimit="10" d="M41.553,24 C41.845,22.713,42,21.375,42,20c0-9.941-8.059-18-18-18S6,10.059,6,20c0,1.375,0.155,2.714,0.447,4" stroke-linejoin="miter" stroke-linecap="butt"/> <rect x="2" y="30" fill="none" stroke="currentColor" stroke-linecap="square" stroke-miterlimit="10" width="44" height="16" stroke-linejoin="miter"/> <line fill="none" stroke="currentColor" stroke-linecap="square" stroke-miterlimit="10" x1="12" y1="38" x2="36" y2="38" stroke-linejoin="miter"/> <path data-color="color-2" fill="none" stroke-linecap="square" stroke-miterlimit="10" d="M12.683,16 c1.205-3.41,3.907-6.112,7.317-7.317" stroke-linejoin="miter"/> <circle data-color="color-2" fill="none" stroke-linecap="square" stroke-miterlimit="10" cx="24" cy="20" r="4" stroke-linejoin="miter"/></g></g></symbol><symbol id="nc-check-bold" viewBox="0 0 48 48"><title>check bold</title><g><g class="nc-icon-wrapper"><polygon fill="#72C472" points="4,22 8,18 18,26 40,9 44,12 18,38 "/></g></g></symbol><symbol id="nc-circle" viewBox="0 0 64 64"><title>circle</title><g><g class="nc-icon-wrapper"><path fill="currentColor" d="M32,2C15.458,2,2,15.458,2,32c0,4.089,0.809,8.054,2.403,11.783c0.434,1.016,1.608,1.485,2.625,1.053 c1.016-0.435,1.487-1.609,1.053-2.625C6.7,38.98,6,35.545,6,32C6,17.664,17.664,6,32,6s26,11.664,26,26c0,14.337-11.664,26-26,26 c-5.899,0-11.46-1.926-16.083-5.569c-0.868-0.684-2.124-0.534-2.809,0.332c-0.684,0.867-0.535,2.125,0.333,2.809 C18.776,59.777,25.193,62,32,62c16.542,0,30-13.458,30-30S48.542,2,32,2z"/> </g></g></symbol><symbol id="nc-ms-dots" viewBox="0 0 100 100"><title>ms dots</title><g><g class="nc-icon-wrapper"><g transform="rotate(0)"><circle cx="73.801" cy="68.263" fill="#1d2830" r="3" transform="rotate(78.5525 50 50)"><animateTransform attributeName="transform" type="rotate" calcMode="spline" values="0 50 50;360 50 50" times="0;1" keySplines="0.5 0 0.5 1" repeatCount="indefinite" dur="1.5s" begin="0s"/></circle><circle cx="68.263" cy="73.801" fill="#064d69" r="3" transform="rotate(102.158 50 50)"><animateTransform attributeName="transform" type="rotate" calcMode="spline" values="0 50 50;360 50 50" times="0;1" keySplines="0.5 0 0.5 1" repeatCount="indefinite" dur="1.5s" begin="-0.062s"/></circle><circle cx="61.481" cy="77.716" fill="#7ba6b7" r="3" transform="rotate(129.155 50 50)"><animateTransform attributeName="transform" type="rotate" calcMode="spline" values="0 50 50;360 50 50" times="0;1" keySplines="0.5 0 0.5 1" repeatCount="indefinite" dur="1.5s" begin="-0.125s"/></circle><circle cx="53.916" cy="79.743" fill="#dee7e6" r="3" transform="rotate(157.852 50 50)"><animateTransform attributeName="transform" type="rotate" calcMode="spline" values="0 50 50;360 50 50" times="0;1" keySplines="0.5 0 0.5 1" repeatCount="indefinite" dur="1.5s" begin="-0.187s"/></circle><circle cx="46.084" cy="79.743" fill="#e23046" r="3" transform="rotate(185.999 50 50)"><animateTransform attributeName="transform" type="rotate" calcMode="spline" values="0 50 50;360 50 50" times="0;1" keySplines="0.5 0 0.5 1" repeatCount="indefinite" dur="1.5s" begin="-0.25s"/></circle><circle cx="38.519" cy="77.716" fill="#1d2830" r="3" transform="rotate(217.312 50 50)"><animateTransform attributeName="transform" type="rotate" calcMode="spline" values="0 50 50;360 50 50" times="0;1" keySplines="0.5 0 0.5 1" repeatCount="indefinite" dur="1.5s" begin="-0.312s"/></circle><circle cx="31.737" cy="73.801" fill="#064d69" r="3" transform="rotate(245.464 50 50)"><animateTransform attributeName="transform" type="rotate" calcMode="spline" values="0 50 50;360 50 50" times="0;1" keySplines="0.5 0 0.5 1" repeatCount="indefinite" dur="1.5s" begin="-0.375s"/></circle><circle cx="26.199" cy="68.263" fill="#7ba6b7" r="3" transform="rotate(270.556 50 50)"><animateTransform attributeName="transform" type="rotate" calcMode="spline" values="0 50 50;360 50 50" times="0;1" keySplines="0.5 0 0.5 1" repeatCount="indefinite" dur="1.5s" begin="-0.437s"/></circle><animateTransform attributeName="transform" type="rotate" calcMode="spline" values="0 50 50;0 50 50" times="0;1" keySplines="0.5 0 0.5 1" repeatCount="indefinite" dur="1.5s"/></g></g></g></symbol></svg>