<svg xmlns="http://www.w3.org/2000/svg" x="0px" y="0px" viewBox="0 0 138 138" xml:space="preserve" width="50px" height="50px">
  <path class="st2" d="M132.7,90.3h-17l-18-30.6c4-0.8,7-4.4,7-8.6V28c0-4.9-3.9-8.8-8.8-8.8h-30c-4.9,0-8.8,3.9-8.8,8.8v23.1   c0,4.3,3,7.8,6.9,8.6L46,90.4H29c-4.9,0-8.8,3.9-8.8,8.8v23.1c0,4.9,3.9,8.8,8.8,8.8h30c4.9,0,8.8-3.9,8.8-8.8V99.2   c0-4.9-3.9-8.8-8.8-8.8h-2.9L73.9,60h13.9l17.9,30.4h-3c-4.9,0-8.8,3.9-8.8,8.8v23.1c0,4.9,3.9,8.8,8.8,8.8h30   c4.9,0,8.8-3.9,8.8-8.8V99.2C141.5,94.3,137.6,90.3,132.7,90.3z"/>
</svg>
