<svg fill="#000000" xmlns="http://www.w3.org/2000/svg" viewBox="0 0 50 50" width="50px" height="50px"><path d="M 27 5 A 1 1 0 0 0 26 6 A 1 1 0 0 0 27 7 A 1 1 0 0 0 28 6 A 1 1 0 0 0 27 5 z M 23 6 A 1 1 0 0 0 22 7 A 1 1 0 0 0 23 8 A 1 1 0 0 0 24 7 A 1 1 0 0 0 23 6 z M 19 7 A 1 1 0 0 0 18 8 A 1 1 0 0 0 19 9 A 1 1 0 0 0 20 8 A 1 1 0 0 0 19 7 z M 15 8 A 1 1 0 0 0 14 9 A 1 1 0 0 0 15 10 A 1 1 0 0 0 16 9 A 1 1 0 0 0 15 8 z M 11 9 A 1 1 0 0 0 10 10 A 1 1 0 0 0 11 11 A 1 1 0 0 0 12 10 A 1 1 0 0 0 11 9 z M 28 9 A 1 1 0 0 0 27 10 A 1 1 0 0 0 28 11 A 1 1 0 0 0 29 10 A 1 1 0 0 0 28 9 z M 28 11 L 22 11 A 1.0001 1.0001 0 0 0 21 12 L 21 23 L 23 23 L 23 13 L 46 13 L 46 43 L 23 43 L 23 33 L 21 33 L 21 44 A 1.0001 1.0001 0 0 0 22 45 L 47 45 A 1.0001 1.0001 0 0 0 48 44 L 48 12 A 1.0001 1.0001 0 0 0 47 11 L 28 11 z M 7 10 A 1 1 0 0 0 6 11 A 1 1 0 0 0 7 12 A 1 1 0 0 0 8 11 A 1 1 0 0 0 7 10 z M 3 11 A 1 1 0 0 0 2 12 A 1 1 0 0 0 3 13 A 1 1 0 0 0 4 12 A 1 1 0 0 0 3 11 z M 4 15 A 1 1 0 0 0 3 16 A 1 1 0 0 0 4 17 A 1 1 0 0 0 5 16 A 1 1 0 0 0 4 15 z M 27 17 A 1.0001 1.0001 0 1 0 27 19 L 42 19 A 1.0001 1.0001 0 1 0 42 17 L 27 17 z M 5 19 A 1 1 0 0 0 4 20 A 1 1 0 0 0 5 21 A 1 1 0 0 0 6 20 A 1 1 0 0 0 5 19 z M 28.013672 21.990234 A 1.0001 1.0001 0 0 0 27.316406 23.707031 L 30.609375 27 L 15 27 A 1.0001 1.0001 0 1 0 15 29 L 30.609375 29 L 27.316406 32.292969 A 1.0001 1.0001 0 1 0 28.730469 33.707031 L 34.4375 28 L 28.730469 22.292969 A 1.0001 1.0001 0 0 0 28.013672 21.990234 z M 31.265625 22 L 33.265625 24 L 42 24 C 42.552 24 43 23.553 43 23 C 43 22.447 42.552 22 42 22 L 31.265625 22 z M 6 23 A 1 1 0 0 0 5 24 A 1 1 0 0 0 6 25 A 1 1 0 0 0 7 24 A 1 1 0 0 0 6 23 z M 7 27 A 1 1 0 0 0 6 28 A 1 1 0 0 0 7 29 A 1 1 0 0 0 8 28 A 1 1 0 0 0 7 27 z M 36.160156 27 C 36.519156 27.618 36.519156 28.382 36.160156 29 L 42 29 C 42.552 29 43 28.553 43 28 C 43 27.447 42.552 27 42 27 L 36.160156 27 z M 8 31 A 1 1 0 0 0 7 32 A 1 1 0 0 0 8 33 A 1 1 0 0 0 9 32 A 1 1 0 0 0 8 31 z M 33.265625 32 L 31.265625 34 L 42 34 C 42.552 34 43 33.553 43 33 C 43 32.447 42.552 32 42 32 L 33.265625 32 z M 9 35 A 1 1 0 0 0 8 36 A 1 1 0 0 0 9 37 A 1 1 0 0 0 10 36 A 1 1 0 0 0 9 35 z M 27 37 A 1.0001 1.0001 0 1 0 27 39 L 42 39 A 1.0001 1.0001 0 1 0 42 37 L 27 37 z M 10 39 A 1 1 0 0 0 9 40 A 1 1 0 0 0 10 41 A 1 1 0 0 0 11 40 A 1 1 0 0 0 10 39 z M 19 41 A 1 1 0 0 0 18 42 A 1 1 0 0 0 19 43 A 1 1 0 0 0 20 42 A 1 1 0 0 0 19 41 z M 15 42 A 1 1 0 0 0 14 43 A 1 1 0 0 0 15 44 A 1 1 0 0 0 16 43 A 1 1 0 0 0 15 42 z M 11 43 A 1 1 0 0 0 10 44 A 1 1 0 0 0 11 45 A 1 1 0 0 0 12 44 A 1 1 0 0 0 11 43 z"/></svg>
