<svg xmlns="http://www.w3.org/2000/svg"  viewBox="0 0 48 48" width="96px" height="96px"><path fill="#3F51B5" d="M40 45L8 45 8 3 30 3 40 13z"/><path fill="#E8EAF6" d="M38.5 14L29 14 29 4.5zM15.476 29.5V33h-2.01v-9.953h3.391c.984 0 1.77.306 2.355.916s.878 1.403.878 2.379-.29 1.745-.868 2.311S17.841 29.5 16.816 29.5H15.476zM15.476 27.825h1.381c.383 0 .679-.125.889-.376s.314-.615.314-1.094c0-.497-.107-.892-.321-1.187-.214-.293-.501-.442-.861-.447h-1.401V27.825zM25.635 30.389c0-.405-.104-.712-.312-.919-.208-.208-.584-.423-1.131-.646-.998-.378-1.716-.821-2.153-1.33-.438-.508-.656-1.108-.656-1.801 0-.839.297-1.512.892-2.02.595-.509 1.35-.763 2.266-.763.611 0 1.155.129 1.633.386.479.258.848.621 1.104 1.091s.386 1.003.386 1.6h-2.002c0-.465-.1-.819-.298-1.063-.198-.243-.484-.365-.858-.365-.351 0-.625.104-.82.311-.196.208-.294.487-.294.838 0 .273.109.521.328.742.219.221.606.449 1.162.687.971.351 1.676.781 2.116 1.292s.66 1.16.66 1.948c0 .866-.276 1.543-.828 2.03-.551.487-1.301.731-2.249.731-.643 0-1.228-.132-1.757-.396s-.942-.643-1.241-1.135-.448-1.073-.448-1.743h2.017c0 .574.112.991.335 1.251s.588.39 1.094.39C25.283 31.503 25.635 31.132 25.635 30.389zM28.99 33v-9.953h2.633c1.162 0 2.088.369 2.778 1.107s1.042 1.75 1.056 3.035v1.613c0 1.308-.345 2.335-1.035 3.079C33.731 32.628 32.78 33 31.568 33H28.99zM31 24.722v6.61h.602c.67 0 1.143-.177 1.416-.53.273-.353.416-.962.43-1.828v-1.729c0-.93-.129-1.578-.389-1.944-.26-.367-.702-.56-1.326-.578H31z"/></svg>