<svg xmlns="http://www.w3.org/2000/svg"  viewBox="0 0 48 48" width="96px" height="96px"><path fill="#3F51B5" d="M40 45L8 45 8 3 30 3 40 13z"/><path fill="#E8EAF6" d="M38.5 14L29 14 29 4.5zM17.074 23.047h2.01v6.891c0 .966-.269 1.741-.807 2.324s-1.23.875-2.078.875c-.912 0-1.62-.271-2.126-.813s-.759-1.297-.759-2.263h2.017c0 .938.29 1.408.868 1.408.583 0 .875-.542.875-1.627V23.047zM22.673 29.5V33h-2.01v-9.953h3.391c.984 0 1.77.306 2.354.916.586.61.879 1.403.879 2.379s-.289 1.745-.868 2.311S25.038 29.5 24.013 29.5H22.673zM22.673 27.825h1.381c.383 0 .679-.125.889-.376.21-.251.314-.615.314-1.094 0-.497-.106-.892-.321-1.187-.214-.293-.501-.442-.861-.447h-1.401V27.825zM35.395 31.872c-.387.419-.862.734-1.426.947-.563.211-1.179.317-1.849.317-1.144 0-2.032-.354-2.666-1.063-.634-.708-.96-1.739-.978-3.093v-1.791c0-1.372.3-2.428.898-3.169.6-.74 1.474-1.11 2.622-1.11 1.08 0 1.895.267 2.444.8.549.533.867 1.369.953 2.509h-1.955c-.055-.634-.188-1.065-.396-1.296-.209-.229-.537-.345-.984-.345-.543 0-.937.198-1.183.595s-.374 1.027-.383 1.894v1.805c0 .907.136 1.566.407 1.979.271.412.717.618 1.336.618.396 0 .718-.08.964-.239l.178-.123v-1.825H31.97v-1.518h3.425V31.872z"/></svg>