<svg xmlns="http://www.w3.org/2000/svg"  viewBox="0 0 48 48" width="96px" height="96px"><path fill="#ff9100" d="M40 45L8 45 8 3 30 3 40 13z"/><path fill="#ffe0b2" d="M38.5 14L29 14 29 4.5zM16.008 29.363H15.01V33H13v-9.953h3.206c1.008 0 1.785.262 2.335.781.549.524.823 1.266.823 2.227 0 1.32-.481 2.246-1.442 2.775l1.743 4.074V33h-2.16L16.008 29.363zM15.01 27.688h1.142c.401 0 .702-.133.902-.398.201-.266.301-.625.301-1.07 0-.998-.39-1.496-1.169-1.496H15.01V27.688zM25.496 30.963h-2.741L22.222 33h-2.126l3.11-9.953h1.839L28.176 33h-2.146L25.496 30.963zM23.192 29.289h1.859l-.93-3.549L23.192 29.289zM32.008 29.363H31.01V33H29v-9.953h3.206c1.008 0 1.785.262 2.335.781.549.524.823 1.266.823 2.227 0 1.32-.48 2.246-1.442 2.775l1.743 4.074V33h-2.16L32.008 29.363zM31.01 27.688h1.142c.401 0 .702-.133.902-.398.201-.266.301-.625.301-1.07 0-.998-.39-1.496-1.169-1.496H31.01V27.688z"/></svg>