<svg xmlns="http://www.w3.org/2000/svg"  viewBox="0 0 48 48" width="96px" height="96px"><path fill="#4DB6AC" d="M40 45L8 45 8 3 30 3 40 13z"/><path fill="#E0F2F1" d="M38.5 14L29 14 29 4.5z"/><path fill="#00695C" d="M19.932 29.685c-.05 1.135-.369 1.994-.957 2.577s-1.417.875-2.488.875c-1.125 0-1.988-.37-2.587-1.11C13.3 31.285 13 30.229 13 28.857v-1.675c0-1.367.31-2.421.93-3.162.62-.74 1.481-1.11 2.584-1.11 1.084 0 1.908.303 2.471.909s.883 1.477.96 2.611h-2.017c-.018-.702-.126-1.186-.325-1.453-.198-.266-.562-.399-1.09-.399-.538 0-.918.188-1.142.563-.223.377-.342.995-.355 1.856v1.88c0 .989.11 1.668.332 2.037s.601.554 1.138.554c.529 0 .893-.129 1.094-.386.201-.258.314-.724.342-1.398H19.932zM25.373 30.389c0-.405-.104-.712-.311-.919-.208-.208-.585-.423-1.132-.646-.998-.378-1.716-.821-2.153-1.33-.438-.508-.656-1.108-.656-1.801 0-.839.297-1.512.892-2.02.595-.509 1.35-.763 2.266-.763.611 0 1.155.129 1.634.386.479.258.847.621 1.104 1.091.257.47.386 1.003.386 1.6H25.4c0-.465-.1-.819-.297-1.063-.199-.243-.485-.365-.858-.365-.351 0-.625.104-.82.311-.196.208-.294.487-.294.838 0 .273.109.521.328.742.219.221.606.449 1.162.687.971.351 1.676.781 2.115 1.292.44.511.66 1.16.66 1.948 0 .866-.275 1.543-.827 2.03s-1.302.731-2.249.731c-.643 0-1.228-.132-1.757-.396s-.942-.643-1.241-1.135-.448-1.073-.448-1.743h2.017c0 .574.112.991.335 1.251s.588.39 1.094.39C25.021 31.503 25.373 31.132 25.373 30.389zM32.934 30.389c0-.405-.104-.712-.311-.919-.208-.208-.585-.423-1.132-.646-.998-.378-1.716-.821-2.153-1.33-.438-.508-.656-1.108-.656-1.801 0-.839.297-1.512.893-2.02.594-.509 1.35-.763 2.266-.763.611 0 1.155.129 1.634.386.479.258.847.621 1.104 1.091.257.47.386 1.003.386 1.6h-2.003c0-.465-.1-.819-.297-1.063-.199-.243-.484-.365-.858-.365-.351 0-.624.104-.82.311-.196.208-.294.487-.294.838 0 .273.109.521.328.742.219.221.605.449 1.162.687.971.351 1.676.781 2.115 1.292.44.511.66 1.16.66 1.948 0 .866-.275 1.543-.827 2.03s-1.302.731-2.249.731c-.643 0-1.229-.132-1.757-.396s-.942-.643-1.241-1.135c-.298-.492-.447-1.073-.447-1.743h2.017c0 .574.112.991.335 1.251s.588.39 1.094.39C32.582 31.503 32.934 31.132 32.934 30.389z"/></svg>