<svg xmlns="http://www.w3.org/2000/svg"  viewBox="0 0 48 48" width="96px" height="96px"><path fill="#FFC107" d="M40 45L8 45 8 3 30 3 40 13z"/><path fill="#FFF3E0" d="M38.5 14L29 14 29 4.5z"/><path fill="#C47205" d="M17.4 30.963h-2.741L14.126 33H12l3.11-9.953h1.839L20.08 33h-2.146L17.4 30.963zM15.097 29.288h1.859l-.93-3.548L15.097 29.288zM25.761 30.963H23.02L22.486 33H20.36l3.11-9.953h1.839L28.44 33h-2.146L25.761 30.963zM23.457 29.288h1.859l-.93-3.548L23.457 29.288zM35.974 29.685c-.05 1.135-.369 1.994-.957 2.577s-1.417.875-2.488.875c-1.126 0-1.988-.37-2.587-1.11-.6-.741-.899-1.797-.899-3.169v-1.675c0-1.367.31-2.421.93-3.162.62-.74 1.481-1.11 2.584-1.11 1.085 0 1.908.303 2.472.909.563.606.883 1.477.96 2.611h-2.017c-.018-.702-.127-1.186-.324-1.453-.199-.266-.563-.399-1.091-.399-.538 0-.919.188-1.142.563-.223.377-.342.995-.355 1.856v1.88c0 .989.11 1.668.332 2.037.221.369.6.554 1.138.554.528 0 .894-.129 1.094-.386.2-.258.314-.724.342-1.398H35.974z"/></svg>