<svg xmlns="http://www.w3.org/2000/svg"  viewBox="0 0 48 48" width="96px" height="96px"><path fill="#FFC107" d="M40 45L8 45 8 3 30 3 40 13z"/><path fill="#FFF3E0" d="M38.5 14L29 14 29 4.5z"/><path fill="#C47205" d="M14.425 23.047l1.88 7.198 1.873-7.198h2.625V33h-2.017v-2.693l.185-4.149L16.981 33h-1.367l-1.989-6.843.185 4.149V33H11.8v-9.953H14.425zM24.426 29.5V33h-2.01v-9.953h3.391c.984 0 1.77.306 2.355.916.585.61.878 1.403.878 2.379s-.29 1.745-.868 2.311S26.791 29.5 25.766 29.5H24.426zM24.426 27.825h1.381c.383 0 .68-.125.889-.376s.314-.615.314-1.094c0-.497-.107-.892-.321-1.187-.214-.293-.501-.442-.861-.447h-1.401V27.825zM31.952 27.142h.937c.355 0 .616-.125.783-.374.166-.25.249-.583.249-1 0-.398-.085-.709-.257-.932-.17-.222-.399-.333-.687-.333-.269 0-.489.106-.659.318-.172.212-.257.479-.257.803h-1.935c0-.52.119-.985.359-1.398.238-.412.574-.734 1.004-.967.432-.232.908-.349 1.433-.349.916 0 1.634.253 2.153.759s.779 1.198.779 2.078c0 .451-.117.869-.352 1.254-.235.386-.544.681-.927.886.47.2.819.501 1.05.902.229.401.345.875.345 1.422 0 .884-.281 1.593-.845 2.126-.563.533-1.302.8-2.218.8-.853 0-1.544-.263-2.075-.79-.53-.525-.796-1.218-.796-2.074h1.935c0 .359.094.661.28.905s.424.366.711.366c.333 0 .596-.124.79-.371.193-.247.29-.577.29-.989 0-.984-.38-1.479-1.142-1.483h-.95V27.142z"/></svg>