<svg xmlns="http://www.w3.org/2000/svg"  viewBox="0 0 48 48" width="96px" height="96px"><path fill="#FFC107" d="M40 45L8 45 8 3 30 3 40 13z"/><path fill="#FFF3E0" d="M38.5 14L29 14 29 4.5z"/><path fill="#C47205" d="M18.267 29.302l.943-6.255h1.989L19.429 33h-2.017l-1.162-5.865L15.102 33h-2.023l-1.777-9.953h2.003l.937 6.248 1.169-6.248h1.688L18.267 29.302zM26.743 30.963h-2.741L23.469 33h-2.126l3.11-9.953h1.839L29.423 33h-2.146L26.743 30.963zM24.439 29.288h1.859l-.93-3.548L24.439 29.288zM33.066 30.266l1.675-7.219h2.242L34.112 33h-2.092l-2.851-9.953h2.229L33.066 30.266z"/></svg>