<svg xmlns="http://www.w3.org/2000/svg"  viewBox="0 0 48 48" width="96px" height="96px"><path fill="#cfd95b" d="M40 45L8 45 8 3 30 3 40 13z"/><path fill="#f5f7e1" d="M38.5 14L29 14 29 4.5z"/><path fill="#696e2d" d="M13.008,23H15v6.829c0,0.956-0.267,1.727-0.799,2.304C13.667,32.709,12.981,33,12.141,33c-0.904,0-1.606-0.269-2.107-0.805c-0.501-0.538-0.752-1.285-0.752-2.244h1.999c0,0.931,0.287,1.395,0.86,1.395c0.578,0,0.867-0.537,0.867-1.612C13.008,29.734,13.008,23,13.008,23z M20.398,30.313c0-0.395-0.101-0.697-0.305-0.9c-0.202-0.202-0.571-0.412-1.106-0.629c-0.976-0.371-1.678-0.804-2.106-1.301c-0.428-0.498-0.642-1.086-0.642-1.763c0-0.819,0.29-1.478,0.872-1.975C17.694,23.248,18.433,23,19.329,23c0.597,0,1.13,0.126,1.598,0.378s0.828,0.607,1.079,1.066c0.252,0.458,0.378,0.982,0.378,1.564h-1.959c0-0.455-0.097-0.8-0.291-1.039s-0.474-0.357-0.838-0.357c-0.344,0-0.611,0.099-0.802,0.304c-0.192,0.203-0.287,0.476-0.287,0.819c0,0.267,0.107,0.508,0.321,0.724c0.214,0.216,0.592,0.441,1.136,0.671c0.949,0.343,1.639,0.765,2.068,1.263c0.431,0.5,0.646,1.134,0.646,1.906c0,0.848-0.27,1.509-0.809,1.986c-0.54,0.476-1.274,0.715-2.2,0.715c-0.628,0-1.201-0.13-1.718-0.388c-0.518-0.258-0.922-0.628-1.214-1.11C16.146,31.021,16,30.452,16,29.799h1.972c0,0.561,0.109,0.968,0.327,1.222s0.575,0.382,1.07,0.382C20.055,31.403,20.398,31.041,20.398,30.313z M38,33h-2.01l-2.939-6.527V33h-2.01v-9.953h2.01l2.946,6.535v-6.535H38V33z M30,28.875c0,1.306-0.308,2.32-0.924,3.042C28.461,32.639,27.607,33,26.513,33c-1.09,0-1.945-0.359-2.567-1.073c-0.623-0.714-0.938-1.715-0.947-3.004v-1.664c0-1.337,0.309-2.382,0.927-3.132C24.544,23.374,25.402,23,26.5,23c1.08,0,1.93,0.369,2.553,1.108c0.622,0.737,0.937,1.772,0.947,3.104V28.875z M28.033,27.244c0-0.877-0.125-1.53-0.373-1.959c-0.249-0.427-0.636-0.641-1.16-0.641c-0.52,0-0.905,0.206-1.153,0.617c-0.25,0.412-0.378,1.041-0.387,1.883v1.73c0,0.852,0.127,1.478,0.38,1.883c0.253,0.403,0.644,0.604,1.173,0.604c0.51,0,0.89-0.195,1.14-0.592c0.249-0.393,0.375-1.005,0.38-1.833V27.244z"/></svg>