<svg xmlns="http://www.w3.org/2000/svg"  viewBox="0 0 48 48" width="96px" height="96px"><path fill="#FFC107" d="M37,5H11l-5,7v28c0,1.657,1.343,3,3,3h30c1.656,0,3-1.343,3-3v-5V12L37,5z"/><path fill="#0097A7" d="M33,30c0,4.971-4.029,9-9,9c-4.971,0-9-4.029-9-9s4.029-9,9-9C28.971,21,33,25.029,33,30"/><path fill="#EEE" d="M30.631,30c0,3.664-2.969,6.632-6.631,6.632c-3.663,0-6.632-2.968-6.632-6.632c0-3.663,2.969-6.631,6.632-6.631C27.662,23.369,30.631,26.337,30.631,30"/><path d="M25 29.563L25 25 23 25 23 29.609 23 30.438 23.61 31 25.996 33.119 27.352 31.648z"/><path fill="#DB8509" d="M12.029,7l-3.571,5H18c0,3.314,2.687,6,6,6c3.313,0,6-2.686,6-6h9.542l-3.571-5H12.029z"/></svg>