<svg xmlns="http://www.w3.org/2000/svg"  viewBox="0 0 48 48" width="96px" height="96px"><path fill="none" d="M204 0H252V48H204z"/><path fill="#90CAF9" d="M244 45L212 45 212 3 234 3 244 13z"/><path fill="#E1F5FE" d="M242.5 14L233 14 233 4.5z"/><path fill="#1976D2" d="M227 26A4 4 0 1 0 227 34A4 4 0 1 0 227 26Z"/><path fill="#1976D2" d="M234 21L229 19 229 30 231 30 231 22.9 234 24z"/><path fill="#90CAF9" d="M40 45L8 45 8 3 30 3 40 13z"/><path fill="#E1F5FE" d="M38.5 14L29 14 29 4.5z"/><g><path fill="#1976D2" d="M23 26A4 4 0 1 0 23 34A4 4 0 1 0 23 26Z"/><path fill="#1976D2" d="M30 21L25 19 25 30 27 30 27 22.9 30 24z"/></g></svg>