<svg xmlns="http://www.w3.org/2000/svg"  viewBox="0 0 48 48" width="96px" height="96px"><path fill="#FF5722" d="M40 45L8 45 8 3 30 3 40 13z"/><path fill="#FBE9E7" d="M38.5 14L29 14 29 4.5z"/><path fill="#FFEBEE" d="M15.81 29.5V33H13.8v-9.953h3.391c.984 0 1.77.306 2.355.916s.878 1.403.878 2.379-.29 1.745-.868 2.311S18.175 29.5 17.149 29.5H15.81zM15.81 27.825h1.381c.383 0 .679-.125.889-.376s.314-.615.314-1.094c0-.497-.107-.892-.321-1.187-.214-.293-.501-.442-.861-.447H15.81V27.825zM21.764 33v-9.953h2.632c1.162 0 2.089.369 2.778 1.107.691.738 1.043 1.75 1.057 3.035v1.613c0 1.308-.346 2.335-1.035 3.079C26.504 32.628 25.553 33 24.341 33H21.764zM23.773 24.722v6.61h.602c.67 0 1.142-.177 1.415-.53.273-.353.417-.962.431-1.828v-1.729c0-.93-.13-1.578-.39-1.944-.26-.367-.702-.56-1.326-.578H23.773zM34.807 28.939h-3.124V33h-2.01v-9.953h5.51v1.675h-3.5v2.55h3.124V28.939z"/></svg>