<svg xmlns="http://www.w3.org/2000/svg"  viewBox="0 0 48 48" width="96px" height="96px"><path fill="#35c1f1" d="M21,23c-0.553,0-1,0.447-1,1v3c0,0.553,0.447,1,1,1s1-0.447,1-1v-3C22,23.447,21.553,23,21,23z"/><path fill="#35c1f1" d="M21,30c-0.553,0-1,0.447-1,1v12c0,0.553,0.447,1,1,1s1-0.447,1-1V31C22,30.447,21.553,30,21,30z"/><path fill="#35c1f1" d="M20.501,19.024C17.903,19.278,16,21.613,16,24.223V42c0,0.553,0.447,1,1,1s1-0.447,1-1V24.119	c0-1.451,0.977-2.784,2.402-3.061C22.317,20.686,24,22.15,24,24v18c0,0.553,0.447,1,1,1s1-0.447,1-1V24	C26,21.078,23.481,18.734,20.501,19.024z"/><path fill="#35c1f1" d="M21.252,15.003c-1.336-0.037-2.636,0.218-3.86,0.755c-0.506,0.221-0.737,0.811-0.515,1.317	c0.222,0.505,0.81,0.737,1.317,0.515c1.1-0.483,2.278-0.671,3.484-0.558C25.313,17.374,28,20.603,28,24.254V38c0,0.553,0.447,1,1,1	s1-0.447,1-1V24.345C30,19.414,26.182,15.139,21.252,15.003z"/><path fill="#35c1f1" d="M13.848,18.552C12.639,20.137,12,22.021,12,24v17c0,0.553,0.447,1,1,1s1-0.447,1-1V24	c0-1.538,0.497-3.002,1.437-4.235c0.335-0.439,0.251-1.066-0.188-1.401C14.81,18.027,14.182,18.114,13.848,18.552z"/><path fill="#35c1f1" d="M20.345,11.016C13.362,11.361,8,17.386,8,24.377V28c0,0.553,0.447,1,1,1s1-0.447,1-1v-3.677	c0-5.724,4.24-10.736,9.939-11.273C26.479,12.434,32,17.585,32,24v14.678c0,0.553,0.447,1,1,1s1-0.448,1-1V24	C34,16.615,27.809,10.648,20.345,11.016z"/><path fill="#35c1f1" d="M9,31c-0.553,0-1,0.447-1,1v5v1.678V39c0,0.552,0.448,1,1,1s1-0.448,1-1v-0.322V37v-5	C10,31.447,9.553,31,9,31z"/><path fill="#35c1f1" d="M30.958,11.458c-0.37,0.41-0.338,1.043,0.072,1.412C34.188,15.719,36,19.775,36,24v10	c0,0.553,0.447,1,1,1s1-0.447,1-1V24c0-4.79-2.052-9.388-5.63-12.614C31.96,11.016,31.328,11.048,30.958,11.458z"/><path fill="#35c1f1" d="M21,9c2.422,0,4.745,0.569,6.904,1.693c0.49,0.255,1.094,0.063,1.349-0.425	c0.255-0.491,0.064-1.094-0.425-1.349C26.38,7.646,23.747,7,21,7c-6.048,0-11.689,3.267-14.724,8.525	C6,16.004,6.164,16.615,6.643,16.891c0.157,0.091,0.329,0.134,0.499,0.134c0.345,0,0.681-0.179,0.867-0.5	C10.687,11.884,15.665,9,21,9z"/><path fill="#35c1f1" d="M5.841,18.824c-0.531-0.149-1.082,0.17-1.228,0.702C4.206,21.023,4,22.528,4,24v10	c0,0.553,0.447,1,1,1s1-0.447,1-1V24c0-1.294,0.183-2.623,0.543-3.948C6.688,19.518,6.373,18.969,5.841,18.824z"/><path fill="#35c1f1" d="M41.808,21.301c-0.07-0.548-0.565-0.927-1.119-0.865c-0.548,0.07-0.935,0.571-0.865,1.119	C39.944,22.488,40,23.265,40,24v3v2.45c0,0.552,0.448,1,1,1l0,0c0.552,0,1-0.448,1-1V27v-3C42,23.178,41.939,22.319,41.808,21.301z"/><path fill="#35c1f1" d="M5.695,11.122c-0.439-0.334-1.066-0.249-1.401,0.19C1.484,15.004,0,19.392,0,24v6	c0,0.553,0.447,1,1,1s1-0.447,1-1v-6c0-4.168,1.344-8.136,3.885-11.477C6.219,12.084,6.134,11.457,5.695,11.122z"/><path fill="#35c1f1" d="M40.22,18.432c0.521-0.179,0.799-0.749,0.619-1.271C37.919,8.691,29.946,3,21,3	C15.915,3,10.999,4.859,7.155,8.236C6.74,8.601,6.699,9.232,7.065,9.647c0.364,0.414,0.996,0.455,1.411,0.091	C11.953,6.683,16.401,5,21,5c8.093,0,15.306,5.149,17.949,12.813c0.142,0.414,0.53,0.674,0.945,0.674	C40.002,18.487,40.111,18.47,40.22,18.432z"/><path d="M28,33.41c0.5-1.09,1.18-2.09,2-2.96V38c0,0.55-0.45,1-1,1s-1-0.45-1-1	V33.41z" opacity=".05"/><path d="M32,28.78c0.62-0.41,1.29-0.75,2-1.03v8.93c0,0.55-0.45,1-1,1s-1-0.45-1-1	V28.78z" opacity=".05"/><path d="M38,27v5c0,0.55-0.45,1-1,1s-1-0.45-1-1v-4.82C36.65,27.06,37.32,27,38,27	z" opacity=".05"/><path d="M28,34.79c0.43-1.33,1.12-2.54,2-3.58V38c0,0.55-0.45,1-1,1s-1-0.45-1-1	V34.79z" opacity=".07"/><path d="M32,29.39c0.62-0.44,1.29-0.8,2-1.09v8.38c0,0.55-0.45,1-1,1s-1-0.45-1-1	V29.39z" opacity=".07"/><path d="M38,27.5V32c0,0.55-0.45,1-1,1s-1-0.45-1-1v-4.31	C36.65,27.57,37.32,27.5,38,27.5z" opacity=".07"/><path d="M42,27.75v1.7c0,0.55-0.45,1-1,1s-1-0.45-1-1v-2.27	C40.69,27.31,41.36,27.5,42,27.75z" opacity=".05"/><path d="M42,28.3v1.15c0,0.55-0.45,1-1,1s-1-0.45-1-1v-1.76	C40.69,27.83,41.37,28.03,42,28.3z" opacity=".07"/><linearGradient id="hns_QSPvAuABanH5z5S5qa" x1="33.304" x2="42.696" y1="90.831" y2="73.169" gradientTransform="matrix(1 0 0 -1 0 120)" gradientUnits="userSpaceOnUse"><stop offset="0" stop-color="#21ad64"/><stop offset="1" stop-color="#088242"/></linearGradient><circle cx="38" cy="38" r="10" fill="url(#hns_QSPvAuABanH5z5S5qa)"/><path fill="#fff" d="M38.5,43h-1c-0.276,0-0.5-0.224-0.5-0.5v-9c0-0.276,0.224-0.5,0.5-0.5h1c0.276,0,0.5,0.224,0.5,0.5v9	C39,42.776,38.776,43,38.5,43z"/><path fill="#fff" d="M33,38.5v-1c0-0.276,0.224-0.5,0.5-0.5h9c0.276,0,0.5,0.224,0.5,0.5v1c0,0.276-0.224,0.5-0.5,0.5h-9	C33.224,39,33,38.776,33,38.5z"/></svg>