<svg xmlns="http://www.w3.org/2000/svg"  viewBox="0 0 48 48" width="96px" height="96px"><linearGradient id="mSE1eGSRmh6PFhOj6Rylra" x1="13.48" x2="31.634" y1="650.407" y2="624.147" gradientTransform="matrix(1 0 0 -1 0 662)" gradientUnits="userSpaceOnUse"><stop offset="0" stop-color="#7dd8f3"/><stop offset="1" stop-color="#45b0d0"/></linearGradient><path fill="url(#mSE1eGSRmh6PFhOj6Rylra)" d="M4,38V15h40v23c0,1.1-0.9,2-2,2H6C4.9,40,4,39.1,4,38z"/><linearGradient id="mSE1eGSRmh6PFhOj6Rylrb" x1="4.614" x2="42.936" y1="654.259" y2="646.467" gradientTransform="matrix(1 0 0 -1 0 662)" gradientUnits="userSpaceOnUse"><stop offset="0" stop-color="#0077d2"/><stop offset="1" stop-color="#0b59a2"/></linearGradient><path fill="url(#mSE1eGSRmh6PFhOj6Rylrb)" d="M44,10v5H4v-5c0-1.1,0.9-2,2-2h36C43.1,8,44,8.9,44,10z"/><linearGradient id="mSE1eGSRmh6PFhOj6Rylrc" x1="16" x2="42" y1="650.5" y2="650.5" gradientTransform="matrix(1 0 0 -1 0 662)" gradientUnits="userSpaceOnUse"><stop offset="0" stop-color="#7dd8f3"/><stop offset="1" stop-color="#45b0d0"/></linearGradient><path fill="url(#mSE1eGSRmh6PFhOj6Rylrc)" d="M16.5,13h25c0.276,0,0.5-0.224,0.5-0.5v-2c0-0.276-0.224-0.5-0.5-0.5h-25	c-0.276,0-0.5,0.224-0.5,0.5v2C16,12.776,16.224,13,16.5,13z"/><linearGradient id="mSE1eGSRmh6PFhOj6Rylrd" x1="6.751" x2="8.032" y1="651.584" y2="649.731" gradientTransform="matrix(1 0 0 -1 0 662)" gradientUnits="userSpaceOnUse"><stop offset="0" stop-color="#75daff"/><stop offset="1" stop-color="#49bef1"/></linearGradient><circle cx="7.5" cy="11.5" r="1.5" fill="url(#mSE1eGSRmh6PFhOj6Rylrd)"/><linearGradient id="mSE1eGSRmh6PFhOj6Rylre" x1="11.751" x2="13.032" y1="651.584" y2="649.731" gradientTransform="matrix(1 0 0 -1 0 662)" gradientUnits="userSpaceOnUse"><stop offset="0" stop-color="#75daff"/><stop offset="1" stop-color="#49bef1"/></linearGradient><circle cx="12.5" cy="11.5" r="1.5" fill="url(#mSE1eGSRmh6PFhOj6Rylre)"/><path fill="#0d86ad" d="M40,37h-8c-0.552,0-1-0.448-1-1V19c0-0.552,0.448-1,1-1h8c0.552,0,1,0.448,1,1v17	C41,36.552,40.552,37,40,37z"/><path fill="#0d86ad" d="M27,26H8c-0.552,0-1-0.448-1-1v-6c0-0.552,0.448-1,1-1h19c0.552,0,1,0.448,1,1v6	C28,25.552,27.552,26,27,26z"/><path fill="#0d86ad" d="M27,37H8c-0.552,0-1-0.448-1-1v-6c0-0.552,0.448-1,1-1h19c0.552,0,1,0.448,1,1v6	C28,36.552,27.552,37,27,37z"/></svg>