<svg xmlns="http://www.w3.org/2000/svg"  viewBox="0 0 48 48" width="96px" height="96px"><path fill="#e3a600" d="M20.834,29.595l-6.808,13.958c-0.136,0.279-0.33,0.518-0.579,0.708l-0.91,0.702	c-0.302,0.231-0.708,0.266-1.05,0.1l-2.481-1.21c-0.342-0.167-0.564-0.509-0.568-0.889l-0.007-1.149	c-0.003-0.313,0.065-0.613,0.201-0.892l0.671-1.375c0.609,0.074,1.271-0.326,1.556-0.91s0.192-1.353-0.241-1.787l0.877-1.798	c0.609,0.074,1.271-0.326,1.556-0.91s0.192-1.353-0.241-1.787l2.63-5.393L20.834,29.595z"/><path fill="#edbe00" d="M25.59,13c-4.967-2.423-10.949-0.363-13.372,4.604s-0.363,10.949,4.604,13.372	s10.949,0.363,13.372-4.604S30.557,15.423,25.59,13z"/><path fill="#edbe00" d="M25.59,13c-0.77-0.37-1.56-0.64-2.36-0.8c-0.31-0.07-0.62-0.12-0.93-0.15	c-2.337-0.258-4.68,0.321-6.613,1.595l-1.123-0.323l-0.461,1.62c-0.75,0.756-1.39,1.646-1.883,2.657	c-2.42,4.97-0.36,10.95,4.6,13.38c1.75,0.85,3.63,1.15,5.43,0.95c0.32-0.03,0.64-0.08,0.96-0.14c2.93-0.6,5.57-2.51,6.98-5.42	C32.62,21.4,30.56,15.42,25.59,13z"/><linearGradient id="bN0gXF350I4SeGvD0XhmSa" x1="27" x2="27" y1="18.098" y2="2.759" gradientTransform="matrix(1 0 0 -1 0 50)" gradientUnits="userSpaceOnUse"><stop offset=".014" stop-color="#e5a505"/><stop offset=".063" stop-color="#e9a804"/><stop offset=".128" stop-color="#f4b102"/><stop offset=".169" stop-color="#fbb600"/><stop offset=".323" stop-color="#fdb700"/></linearGradient><path fill="url(#bN0gXF350I4SeGvD0XhmSa)" d="M30,29v15.53c0,0.31-0.07,0.61-0.21,0.89l-0.51,1.03c-0.17,0.34-0.52,0.55-0.9,0.55h-2.76	c-0.38,0-0.73-0.21-0.9-0.55l-0.51-1.03C24.07,45.14,24,44.84,24,44.53V43c0.58-0.2,1-0.85,1-1.5s-0.42-1.3-1-1.5v-2	c0.58-0.2,1-0.85,1-1.5s-0.42-1.3-1-1.5v-6H30z"/><path d="M25.59,13c-0.77-0.37-1.56-0.64-2.36-0.8c-0.31-0.07-0.62-0.12-0.93-0.15	C18.58,13.82,16,17.61,16,22c0,4.37,2.56,8.15,6.25,9.93c0.32-0.03,0.64-0.08,0.96-0.14c2.93-0.6,5.57-2.51,6.98-5.42	C32.62,21.4,30.56,15.42,25.59,13z M27,20c-1.1,0-2-0.9-2-2s0.9-2,2-2s2,0.9,2,2S28.1,20,27,20z" opacity=".05"/><path d="M25.59,13c-0.77-0.37-1.56-0.64-2.36-0.8c-3.93,1.52-6.73,5.34-6.73,9.8	c0,4.45,2.79,8.27,6.71,9.79c2.93-0.6,5.57-2.51,6.98-5.42C32.62,21.4,30.56,15.42,25.59,13z M27,20.5c-1.38,0-2.5-1.12-2.5-2.5	s1.12-2.5,2.5-2.5s2.5,1.12,2.5,2.5S28.38,20.5,27,20.5z" opacity=".07"/><linearGradient id="bN0gXF350I4SeGvD0XhmSb" x1="22.304" x2="31.696" y1="36.832" y2="19.168" gradientTransform="matrix(1 0 0 -1 0 50)" gradientUnits="userSpaceOnUse"><stop offset="0" stop-color="#fede00"/><stop offset="1" stop-color="#ffd000"/></linearGradient><path fill="url(#bN0gXF350I4SeGvD0XhmSb)" d="M27,12c-5.526,0-10,4.474-10,10s4.474,10,10,10s10-4.474,10-10S32.526,12,27,12z M27,21	c-1.656,0-3-1.344-3-3s1.344-3,3-3s3,1.344,3,3S28.656,21,27,21z"/><linearGradient id="bN0gXF350I4SeGvD0XhmSc" x1="15.816" x2="17.996" y1="63.86" y2="55.91" gradientTransform="matrix(1 0 0 -1 0 50)" gradientUnits="userSpaceOnUse"><stop offset="0" stop-color="#fcfcfc"/><stop offset=".495" stop-color="#f4f4f4"/><stop offset=".946" stop-color="#e8e8e8"/><stop offset="1" stop-color="#e8e8e8"/></linearGradient><path fill="url(#bN0gXF350I4SeGvD0XhmSc)" d="M22.5,1C17.26,1,13,5.26,13,10.5c0,1.61,0.385,3.13,1.095,4.45	c0.48-0.5,1.022-0.935,1.592-1.305C15.237,12.685,15,11.62,15,10.5C15,6.36,18.36,3,22.5,3S30,6.36,30,10.5	c0,0.65-0.08,1.29-0.25,1.89c-0.25,0.99-0.7,1.9-1.31,2.68c-0.06,0.07-0.11,0.14-0.17,0.21c-1.06,1.29-2.56,2.22-4.26,2.57	C24,17.9,24,17.95,24,18c0,0.66,0.22,1.28,0.58,1.77c2.03-0.45,3.8-1.55,5.11-3.07l0.01-0.01c0.88-1.01,1.55-2.22,1.92-3.55	C31.87,12.3,32,11.42,32,10.5C32,5.26,27.74,1,22.5,1z"/><path d="M24.5,18c0-0.09,0.01-0.19,0.01-0.28c-0.16,0.05-0.33,0.1-0.5,0.13	C24,17.9,24,17.95,24,18c0,0.1,0.01,0.2,0.02,0.3c0.05,0.55,0.25,1.05,0.56,1.47c0.18-0.04,0.36-0.08,0.53-0.14	C24.73,19.2,24.5,18.62,24.5,18z" opacity=".07"/><path d="M25,18c0-0.16,0.02-0.31,0.05-0.46c-0.17,0.08-0.36,0.14-0.54,0.18	c-0.16,0.05-0.33,0.1-0.5,0.13C24,17.9,24,17.95,24,18c0,0.1,0.01,0.2,0.02,0.3c0.05,0.55,0.25,1.05,0.56,1.47	c0.18-0.04,0.36-0.08,0.53-0.14c0.18-0.05,0.36-0.1,0.53-0.17C25.25,19.09,25,18.57,25,18z" opacity=".05"/></svg>