<svg xmlns="http://www.w3.org/2000/svg"  viewBox="0 0 48 48" width="96px" height="96px"><path fill="#107c42" d="M24,44c-0.552,0-1-0.448-1-1s0.448-1,1-1V44z"/><path fill="#185c37" d="M25,43c0,0.552-0.448,1-1,1v-2C24.552,42,25,42.448,25,43z"/><circle cx="42" cy="11" r="1" fill="#21a366"/><circle cx="6" cy="11" r="1" fill="#33c481"/><path fill="#185c37" d="M24,43l0.427,0.907c0,0,15.144-7.9,18.08-19.907H24V43z"/><path fill="#21a366" d="M43,11l-1-1c-11.122,0-11.278-6-18-6v20h18.507C42.822,22.712,43,21.378,43,20C43,16.856,43,11,43,11	z"/><path fill="#107c42" d="M24,43l-0.427,0.907c0,0-15.144-7.9-18.08-19.907H24V43z"/><path fill="#33c481" d="M5,11l1-1c11.122,0,11.278-6,18-6v20H5.493C5.178,22.712,5,21.378,5,20C5,16.856,5,11,5,11z"/><path d="M32.172,16.172L22,26.344l-5.172-5.172c-0.781-0.781-2.047-0.781-2.828,0l-1.414,1.414	c-0.781,0.781-0.781,2.047,0,2.828l8,8c0.781,0.781,2.047,0.781,2.828,0l13-13c0.781-0.781,0.781-2.047,0-2.828L35,16.172	C34.219,15.391,32.953,15.391,32.172,16.172z" opacity=".05"/><path d="M20.939,33.061l-8-8c-0.586-0.586-0.586-1.536,0-2.121l1.414-1.414c0.586-0.586,1.536-0.586,2.121,0	L22,27.051l10.525-10.525c0.586-0.586,1.536-0.586,2.121,0l1.414,1.414c0.586,0.586,0.586,1.536,0,2.121l-13,13	C22.475,33.646,21.525,33.646,20.939,33.061z" opacity=".07"/><path fill="#fff" d="M21.293,32.707l-8-8c-0.391-0.391-0.391-1.024,0-1.414l1.414-1.414c0.391-0.391,1.024-0.391,1.414,0	L22,27.758l10.879-10.879c0.391-0.391,1.024-0.391,1.414,0l1.414,1.414c0.391,0.391,0.391,1.024,0,1.414l-13,13	C22.317,33.098,21.683,33.098,21.293,32.707z"/></svg>