<svg xmlns="http://www.w3.org/2000/svg"  viewBox="0 0 48 48" width="48px" height="48px"><radialGradient id="Yp1l7K9iBwNMskNzQGNbda" cx="23.764" cy="100.187" r="13.162" gradientTransform="matrix(.9728 0 0 -.9728 .653 115.634)" gradientUnits="userSpaceOnUse"><stop offset=".376" stop-color="#261103"/><stop offset=".68" stop-color="#431d06"/><stop offset="1" stop-color="#662c09"/></radialGradient><path fill="url(#Yp1l7K9iBwNMskNzQGNbda)" d="M24,6.587c-9.615,0-12,15.526-12,15.526c0,2.764,1.284,5.186,3.972,5.827	C18.274,28.49,21.172,29,24,29s5.726-0.51,8.028-1.059C34.716,27.299,36,24.877,36,22.114C36,22.113,33.615,6.587,24,6.587z"/><linearGradient id="Yp1l7K9iBwNMskNzQGNbdb" x1="24" x2="24" y1="96.599" y2="108.435" gradientTransform="matrix(1 0 0 -1 0 118)" gradientUnits="userSpaceOnUse"><stop offset=".125" stop-color="#ffdb80"/><stop offset=".141" stop-color="#fed97c"/><stop offset=".449" stop-color="#f4bf3b"/><stop offset=".594" stop-color="#f0b421"/></linearGradient><path fill="url(#Yp1l7K9iBwNMskNzQGNbdb)" d="M24,4.866c-3.455,0-7,2.525-7,9.991c0,0.598,0,4.571,0,5.21C17,22.733,21.2,26,24,26	s7-3.266,7-5.933c0-0.639,0-4.612,0-5.21C31,7.391,27.455,4.866,24,4.866z"/><radialGradient id="Yp1l7K9iBwNMskNzQGNbdc" cx="17.431" cy="114.563" r="29.854" gradientTransform="matrix(1 0 0 -1 0 118)" gradientUnits="userSpaceOnUse"><stop offset="0" stop-color="#c26715"/><stop offset=".508" stop-color="#b85515"/><stop offset="1" stop-color="#ad3f16"/></radialGradient><path fill="url(#Yp1l7K9iBwNMskNzQGNbdc)" d="M24,3c-4.789,0-5.538,2.769-5.538,2.769C16.515,6.056,12,6.692,12,21.903	c0,3.509,2.357,4.797,3,5.172C12.6,13.816,20,18,19,8c3.735,10.904,14.39-0.335,14,18.754c1.113-0.846,3-2.545,3-4.852	C36,9.159,30.83,3,24,3z"/><linearGradient id="Yp1l7K9iBwNMskNzQGNbdd" x1="23.451" x2="26.26" y1="96.713" y2="73.8" gradientTransform="matrix(1 0 0 -1 0 118)" gradientUnits="userSpaceOnUse"><stop offset="0" stop-color="#8795a1"/><stop offset="1" stop-color="#6d7882"/></linearGradient><path fill="url(#Yp1l7K9iBwNMskNzQGNbdd)" d="M40,21H8c-1.173,0-2.094,1.005-1.992,2.173l1.652,19C7.75,43.207,8.615,44,9.652,44h28.695	c1.037,0,1.903-0.793,1.992-1.827l1.652-19C42.094,22.005,41.173,21,40,21z"/><path fill="#a3b3c2" d="M26.476,36h-4.953c-0.129,0-0.236-0.099-0.246-0.227l-0.282-3.506C20.984,32.123,21.098,32,21.242,32	h5.516c0.144,0,0.258,0.123,0.246,0.267l-0.282,3.506C26.712,35.901,26.605,36,26.476,36z"/></svg>