<svg xmlns="http://www.w3.org/2000/svg"  viewBox="0 0 48 48" width="96px" height="96px"><linearGradient id="BC9FGaQYSWC9vfPQ436~Wa" x1="3.584" x2="29.287" y1="26.5" y2="26.5" gradientUnits="userSpaceOnUse"><stop offset="0" stop-color="#a1aab3"/><stop offset="1" stop-color="#8f979e"/></linearGradient><path fill="url(#BC9FGaQYSWC9vfPQ436~Wa)" d="M29,24v-2H13v-9h-2v26c0,0.552,0.448,1,1,1h17v-2H13V24H29z"/><linearGradient id="BC9FGaQYSWC9vfPQ436~Wb" x1="5" x2="20" y1="11.5" y2="11.5" gradientUnits="userSpaceOnUse"><stop offset="0" stop-color="#eba600"/><stop offset="1" stop-color="#c28200"/></linearGradient><path fill="url(#BC9FGaQYSWC9vfPQ436~Wb)" d="M18.5,7H12l-0.707-0.707C11.105,6.105,10.851,6,10.586,6H6C5.448,6,5,6.448,5,7v8.5 C5,16.325,5.675,17,6.5,17h12c0.825,0,1.5-0.675,1.5-1.5v-7C20,7.675,19.325,7,18.5,7z"/><linearGradient id="BC9FGaQYSWC9vfPQ436~Wc" x1="11.505" x2="13.359" y1="6.814" y2="16.489" gradientUnits="userSpaceOnUse"><stop offset="0" stop-color="#ffd869"/><stop offset="1" stop-color="#fec52b"/></linearGradient><path fill="url(#BC9FGaQYSWC9vfPQ436~Wc)" d="M18.5,7L12,6.978l-0.801,0.752C11.013,7.903,10.769,8,10.514,8H6C5.448,8,5,8.448,5,9v6.5 C5,16.325,5.675,17,6.5,17h12c0.825,0,1.5-0.675,1.5-1.5v-7C20,7.7,19.3,7,18.5,7z"/><linearGradient id="BC9FGaQYSWC9vfPQ436~Wd" x1="29" x2="44" y1="22.5" y2="22.5" gradientUnits="userSpaceOnUse"><stop offset="0" stop-color="#eba600"/><stop offset="1" stop-color="#c28200"/></linearGradient><path fill="url(#BC9FGaQYSWC9vfPQ436~Wd)" d="M42.5,18H36l-0.707-0.707C35.105,17.105,34.851,17,34.586,17H30c-0.552,0-1,0.448-1,1v8.5 c0,0.825,0.675,1.5,1.5,1.5h12c0.825,0,1.5-0.675,1.5-1.5v-7C44,18.675,43.325,18,42.5,18z"/><linearGradient id="BC9FGaQYSWC9vfPQ436~We" x1="35.505" x2="37.359" y1="17.814" y2="27.489" gradientUnits="userSpaceOnUse"><stop offset="0" stop-color="#ffd869"/><stop offset="1" stop-color="#fec52b"/></linearGradient><path fill="url(#BC9FGaQYSWC9vfPQ436~We)" d="M42.5,18L36,17.978l-0.801,0.752C35.013,18.903,34.769,19,34.514,19H30c-0.552,0-1,0.448-1,1 v6.5c0,0.825,0.675,1.5,1.5,1.5h12c0.825,0,1.5-0.675,1.5-1.5v-7C44,18.7,43.3,18,42.5,18z"/><linearGradient id="BC9FGaQYSWC9vfPQ436~Wf" x1="29" x2="44" y1="38.5" y2="38.5" gradientUnits="userSpaceOnUse"><stop offset="0" stop-color="#eba600"/><stop offset="1" stop-color="#c28200"/></linearGradient><path fill="url(#BC9FGaQYSWC9vfPQ436~Wf)" d="M42.5,34H36l-0.707-0.707C35.105,33.105,34.851,33,34.586,33H30c-0.552,0-1,0.448-1,1v8.5 c0,0.825,0.675,1.5,1.5,1.5h12c0.825,0,1.5-0.675,1.5-1.5v-7C44,34.675,43.325,34,42.5,34z"/><linearGradient id="BC9FGaQYSWC9vfPQ436~Wg" x1="35.505" x2="37.359" y1="33.814" y2="43.489" gradientUnits="userSpaceOnUse"><stop offset="0" stop-color="#ffd869"/><stop offset="1" stop-color="#fec52b"/></linearGradient><path fill="url(#BC9FGaQYSWC9vfPQ436~Wg)" d="M42.5,34L36,33.978l-0.801,0.752C35.013,34.903,34.769,35,34.514,35H30c-0.552,0-1,0.448-1,1 v6.5c0,0.825,0.675,1.5,1.5,1.5h12c0.825,0,1.5-0.675,1.5-1.5v-7C44,34.7,43.3,34,42.5,34z"/></svg>