<svg xmlns="http://www.w3.org/2000/svg"  viewBox="0 0 48 48" width="96px" height="96px"><linearGradient id="k2yiUqNWn2Slk9gpK~j2Da" x1="14.104" x2="33.763" y1="42.408" y2="5.435" gradientTransform="matrix(1 0 0 -1 0 47.89)" gradientUnits="userSpaceOnUse"><stop offset="0" stop-color="#c8d3de"/><stop offset="1" stop-color="#c8d3de"/></linearGradient><path fill="url(#k2yiUqNWn2Slk9gpK~j2Da)" d="M35.7,40H12.3C9.9,40,8,38.1,8,35.7V12.3C8,9.9,9.9,8,12.3,8h23.3c2.4,0,4.3,1.9,4.3,4.3v23.3	C40,38.1,38.1,40,35.7,40z M12.3,10C11,10,10,11,10,12.3v23.3c0,1.3,1,2.3,2.3,2.3h23.3c1.3,0,2.3-1,2.3-2.3V12.3	c0-1.3-1-2.3-2.3-2.3H12.3z"/><linearGradient id="k2yiUqNWn2Slk9gpK~j2Db" x1="5.936" x2="12.063" y1="29.652" y2="18.128" gradientTransform="matrix(1 0 0 -1 0 47.89)" gradientUnits="userSpaceOnUse"><stop offset="0" stop-color="#2aa4f4"/><stop offset="1" stop-color="#007ad9"/></linearGradient><path fill="url(#k2yiUqNWn2Slk9gpK~j2Db)" d="M15,27c0,1.1-0.9,2-2,2H5c-1.1,0-2-0.9-2-2v-6c0-1.1,0.9-2,2-2h8c1.1,0,2,0.9,2,2V27z"/><linearGradient id="k2yiUqNWn2Slk9gpK~j2Dc" x1="20.936" x2="27.064" y1="44.652" y2="33.129" gradientTransform="matrix(1 0 0 -1 0 47.89)" gradientUnits="userSpaceOnUse"><stop offset="0" stop-color="#2aa4f4"/><stop offset="1" stop-color="#007ad9"/></linearGradient><path fill="url(#k2yiUqNWn2Slk9gpK~j2Dc)" d="M30,12c0,1.1-0.9,2-2,2h-8c-1.1,0-2-0.9-2-2V6c0-1.1,0.9-2,2-2h8c1.1,0,2,0.9,2,2V12z"/><linearGradient id="k2yiUqNWn2Slk9gpK~j2Dd" x1="20.936" x2="27.064" y1="14.652" y2="3.128" gradientTransform="matrix(1 0 0 -1 0 47.89)" gradientUnits="userSpaceOnUse"><stop offset="0" stop-color="#2aa4f4"/><stop offset="1" stop-color="#007ad9"/></linearGradient><path fill="url(#k2yiUqNWn2Slk9gpK~j2Dd)" d="M30,42c0,1.1-0.9,2-2,2h-8c-1.1,0-2-0.9-2-2v-6c0-1.1,0.9-2,2-2h8c1.1,0,2,0.9,2,2V42z"/><linearGradient id="k2yiUqNWn2Slk9gpK~j2De" x1="35.937" x2="42.063" y1="29.652" y2="18.128" gradientTransform="matrix(1 0 0 -1 0 47.89)" gradientUnits="userSpaceOnUse"><stop offset="0" stop-color="#2aa4f4"/><stop offset="1" stop-color="#007ad9"/></linearGradient><path fill="url(#k2yiUqNWn2Slk9gpK~j2De)" d="M45,27c0,1.1-0.9,2-2,2h-8c-1.1,0-2-0.9-2-2v-6c0-1.1,0.9-2,2-2h8c1.1,0,2,0.9,2,2V27z"/><rect width="8" height="6" x="5" y="21" fill="#50e6ff"/><rect width="8" height="6" x="20" y="6" fill="#50e6ff"/><rect width="8" height="6" x="20" y="36" fill="#50e6ff"/><rect width="8" height="6" x="35" y="21" fill="#50e6ff"/></svg>