<svg xmlns="http://www.w3.org/2000/svg"  viewBox="0 0 48 48" width="96px" height="96px"><linearGradient id="73hvxuIu2KoRU1i7qzd8qa" x1="23" x2="23" y1="548.505" y2="556.288" gradientTransform="translate(0 -541.78)" gradientUnits="userSpaceOnUse"><stop offset="0" stop-color="#eba600"/><stop offset="1" stop-color="#c28200"/></linearGradient><path fill="url(#73hvxuIu2KoRU1i7qzd8qa)" d="M22.414,10.414l-2.536-2.536C19.316,7.316,18.553,7,17.757,7H5C3.895,7,3,7.895,3,9v8l2,22h38	V13l-18.569-2h-0.603C23.298,11,22.789,10.789,22.414,10.414z"/><linearGradient id="73hvxuIu2KoRU1i7qzd8qb" x1="24" x2="24" y1="552.634" y2="582.763" gradientTransform="translate(0 -541.78)" gradientUnits="userSpaceOnUse"><stop offset="0" stop-color="#ffd869"/><stop offset="1" stop-color="#fec52b"/></linearGradient><path fill="url(#73hvxuIu2KoRU1i7qzd8qb)" d="M20.586,14.414l3.268-3.268C23.947,11.053,24.074,11,24.207,11H28l17,17v11	c0,1.105-0.895,2-2,2H5c-1.105,0-2-0.895-2-2V15.5C3,15.224,3.224,15,3.5,15h15.672C19.702,15,20.211,14.789,20.586,14.414z"/><path d="M45,22.99v6.98C44.66,29.99,44.33,30,44,30c-4.78,0-9.3-1.88-12.72-5.28	c-3.62-3.64-5.53-8.63-5.25-13.72h6.98v0.04c-0.11,3.03,0.99,6.03,3.02,8.23C38.2,21.64,41.29,23,44.5,23c0.16,0,0.3,0,0.44-0.01H45	z" opacity=".05"/><path d="M45,23.49v5.98c-0.34,0.02-0.67,0.03-1,0.03c-4.65,0-9.04-1.82-12.36-5.14	c-3.53-3.53-5.39-8.4-5.11-13.36h5.98v0.02c-0.12,3.16,1.03,6.29,3.15,8.59c2.27,2.47,5.49,3.89,8.84,3.89h0.03	c0.14,0,0.29,0,0.44-0.01H45z" opacity=".07"/><linearGradient id="73hvxuIu2KoRU1i7qzd8qc" x1="27" x2="45" y1="27.89" y2="27.89" gradientTransform="matrix(1 0 0 -1 0 47.89)" gradientUnits="userSpaceOnUse"><stop offset="0" stop-color="#7819a2"/><stop offset="1" stop-color="#771aa9"/></linearGradient><path fill="url(#73hvxuIu2KoRU1i7qzd8qc)" d="M31.99,24.01c-3.298-3.309-5.254-7.936-4.961-13.01h4.981c-0.12,3.29,1.05,6.53,3.28,8.95	C37.65,22.52,41.01,24,44.5,24c0.16,0,0.33,0,0.5-0.01v4.981C39.926,29.264,35.299,27.308,31.99,24.01z"/><path fill="#a238c2" d="M31,11.5c0-0.17,0-0.34,0.01-0.5h5.01c-0.13,2.3,0.67,4.56,2.21,6.25C39.84,19,42.12,20,44.5,20	c0.17,0,0.33,0,0.5-0.02v5.01C44.84,25,44.67,25,44.5,25C37.06,25,31,18.94,31,11.5z"/><path fill="#ba54d9" d="M35,11.5c0-0.17,0-0.33,0.01-0.5h5.08c0.2,1.26,0.8,2.38,1.67,3.24c0.86,0.87,1.98,1.47,3.24,1.67	v5.08C44.83,21,44.67,21,44.5,21C39.26,21,35,16.74,35,11.5z"/><path fill="#c767e5" d="M39.021,11.008c0.003-0.003,0.005-0.005,0.009-0.008H43c1.105,0,2,0.893,2,1.998v3.944	c-0.004,0.036-0.004,0.036-0.008,0.037C41.565,17.276,38.724,14.436,39.021,11.008z"/></svg>