<svg xmlns="http://www.w3.org/2000/svg"  viewBox="0 0 48 48" width="96px" height="96px"><linearGradient id="AkEixl0fFF2Red42g8M2Fa" x1="12.727" x2="4.186" y1="33.727" y2="25.186" gradientUnits="userSpaceOnUse"><stop offset=".365" stop-color="#199ae0"/><stop offset=".699" stop-color="#1898de"/><stop offset=".819" stop-color="#1691d8"/><stop offset=".905" stop-color="#1186cc"/><stop offset=".974" stop-color="#0a75bc"/><stop offset="1" stop-color="#076cb3"/></linearGradient><path fill="url(#AkEixl0fFF2Red42g8M2Fa)" d="M0.29,24.701l9.509,9.509c0.387,0.387,1.014,0.387,1.401,0l2.009-2.009	c0.387-0.387,0.387-1.014,0-1.401L3.701,21.29c-0.387-0.387-1.014-0.387-1.401,0L0.29,23.299	C-0.097,23.686-0.097,24.314,0.29,24.701z"/><linearGradient id="AkEixl0fFF2Red42g8M2Fb" x1="1.359" x2="12.357" y1="25.641" y2="14.643" gradientUnits="userSpaceOnUse"><stop offset="0" stop-color="#32bdef"/><stop offset="1" stop-color="#1ea2e4"/></linearGradient><path fill="url(#AkEixl0fFF2Red42g8M2Fb)" d="M3.701,26.71l9.509-9.509c0.387-0.387,0.387-1.014,0-1.401l-2.009-2.009	c-0.387-0.387-1.014-0.387-1.401,0L0.29,23.299c-0.387,0.387-0.387,1.014,0,1.401l2.009,2.009	C2.686,27.097,3.314,27.097,3.701,26.71z"/><linearGradient id="AkEixl0fFF2Red42g8M2Fc" x1="689.727" x2="681.186" y1="33.727" y2="25.186" gradientTransform="matrix(-1 0 0 1 725 0)" gradientUnits="userSpaceOnUse"><stop offset=".365" stop-color="#199ae0"/><stop offset=".699" stop-color="#1898de"/><stop offset=".819" stop-color="#1691d8"/><stop offset=".905" stop-color="#1186cc"/><stop offset=".974" stop-color="#0a75bc"/><stop offset="1" stop-color="#076cb3"/></linearGradient><path fill="url(#AkEixl0fFF2Red42g8M2Fc)" d="M47.71,24.701l-9.509,9.509c-0.387,0.387-1.014,0.387-1.401,0l-2.009-2.009	c-0.387-0.387-0.387-1.014,0-1.401l9.509-9.509c0.387-0.387,1.014-0.387,1.401,0l2.009,2.009	C48.097,23.686,48.097,24.314,47.71,24.701z"/><linearGradient id="AkEixl0fFF2Red42g8M2Fd" x1="678.359" x2="689.357" y1="25.641" y2="14.643" gradientTransform="matrix(-1 0 0 1 725 0)" gradientUnits="userSpaceOnUse"><stop offset="0" stop-color="#32bdef"/><stop offset="1" stop-color="#1ea2e4"/></linearGradient><path fill="url(#AkEixl0fFF2Red42g8M2Fd)" d="M44.299,26.71l-9.509-9.509c-0.387-0.387-0.387-1.014,0-1.401l2.009-2.009	c0.387-0.387,1.014-0.387,1.401,0l9.509,9.509c0.387,0.387,0.387,1.014,0,1.401l-2.009,2.009	C45.314,27.097,44.686,27.097,44.299,26.71z"/><path fill="#0078d4" d="M30.25,2.5h-3.61c-0.473,0-0.882,0.332-0.979,0.795l-8.644,41.301	c-0.098,0.466,0.258,0.904,0.734,0.904h3.61c0.473,0,0.882-0.332,0.979-0.795l8.644-41.301C31.081,2.938,30.726,2.5,30.25,2.5z"/></svg>