<svg xmlns="http://www.w3.org/2000/svg"  viewBox="0 0 48 48" width="96px" height="96px"><path fill="#199be2" d="M22.436,42.965l0.403-2.973c0.074-0.548-0.31-1.051-0.857-1.125 c-0.547-0.074-1.051,0.309-1.125,0.857l-0.403,2.973c-0.074,0.548,0.31,1.051,0.857,1.125S22.362,43.513,22.436,42.965z"/><path fill="#199be2" d="M17.554,41.905l1.163-2.765c0.214-0.51-0.025-1.095-0.534-1.309 c-0.509-0.214-1.095,0.024-1.309,0.534l-1.163,2.765c-0.214,0.51,0.025,1.095,0.534,1.309 C16.754,42.653,17.34,42.415,17.554,41.905z"/><path fill="#199be2" d="M25.922,38.878c-0.547,0.071-0.934,0.572-0.864,1.12l0.385,2.975 c0.071,0.548,0.572,0.934,1.12,0.864s0.934-0.572,0.864-1.12l-0.385-2.975C26.971,39.193,26.47,38.807,25.922,38.878z"/><path fill="#199be2" d="M29.686,37.882c-0.511,0.209-0.756,0.793-0.546,1.304l1.137,2.776 c0.21,0.512,0.794,0.756,1.304,0.546c0.511-0.209,0.756-0.793,0.546-1.304l-1.137-2.776C30.781,37.917,30.197,37.673,29.686,37.882 z"/><path fill="#199be2" d="M25.564,5.043l-0.403,2.973c-0.074,0.548,0.31,1.051,0.857,1.125 c0.547,0.074,1.051-0.309,1.125-0.857l0.403-2.973c0.074-0.548-0.31-1.051-0.857-1.125S25.638,4.495,25.564,5.043z"/><path fill="#199be2" d="M30.446,6.103l-1.163,2.765c-0.214,0.51,0.025,1.095,0.534,1.309 c0.509,0.214,1.095-0.024,1.309-0.534l1.163-2.765c0.214-0.51-0.025-1.095-0.534-1.309C31.246,5.355,30.66,5.593,30.446,6.103z"/><path fill="#199be2" d="M22.078,9.13c0.547-0.071,0.934-0.572,0.864-1.12l-0.385-2.975c-0.071-0.548-0.572-0.934-1.12-0.864 s-0.934,0.572-0.864,1.12l0.385,2.975C21.028,8.815,21.53,9.201,22.078,9.13z"/><path fill="#199be2" d="M18.314,10.126c0.511-0.209,0.756-0.793,0.546-1.304l-1.137-2.776 c-0.21-0.512-0.794-0.756-1.304-0.546c-0.511,0.209-0.756,0.793-0.546,1.304L17.01,9.58C17.219,10.091,17.803,10.335,18.314,10.126 z"/><path fill="#199be2" d="M33.55,35.722c0.018-0.018,0.037-0.036,0.057-0.052c6.186-5.085,7.33-14.153,2.555-20.631	c0.021-0.005,0.041-0.006,0.063-0.011c1.606-0.379,2.99-1.282,4.201-2.4c5.963,8.602,4.295,20.397-3.906,26.971	c-0.221,0.177-0.547,0.134-0.719-0.092c0,0-2.319-3.047-2.322-3.051C33.294,36.216,33.353,35.922,33.55,35.722z"/><path fill="#199be2" d="M35.796,11.445l-0.881,6.486c-0.058,0.427,0.43,0.711,0.773,0.45l7.913-6.021	c0.342-0.26,0.198-0.806-0.229-0.864l-6.486-0.881C36.356,10.544,35.868,10.915,35.796,11.445z"/><path fill="#199be2" d="M14.44,12.291c-0.019,0.017-0.039,0.034-0.058,0.051c-6.186,5.085-7.33,14.153-2.555,20.631	c-0.021,0.005-0.041,0.006-0.063,0.011c-1.606,0.379-2.99,1.282-4.201,2.4c-5.963-8.602-4.295-20.397,3.906-26.971	c0.221-0.177,0.547-0.134,0.719,0.092l2.322,3.051c0.084,0.133,0.146,0.265,0.119,0.426C14.608,12.11,14.532,12.207,14.44,12.291z"/><path fill="#199be2" d="M12.192,36.568l0.881-6.486c0.058-0.427-0.43-0.711-0.773-0.45l-7.913,6.021	c-0.342,0.26-0.198,0.806,0.229,0.864l6.486,0.881C11.632,37.468,12.12,37.098,12.192,36.568z"/><path fill="#199be2" d="M33.371,35.865c-0.468,0.429-0.486,1.161-0.039,1.613l10.133,10.229c0.391,0.391,1.024,0.391,1.414,0	l2.828-2.828c0.391-0.391,0.391-1.024,0-1.414L36.936,32.596L33.371,35.865z"/></svg>