<svg xmlns="http://www.w3.org/2000/svg"  viewBox="0 0 48 48" width="96px" height="96px"><radialGradient id="PrFtsSzfbx1AK_8CqmpOsa" cx="32" cy="34" r="10.654" gradientTransform="matrix(1 0 0 -1 0 48)" gradientUnits="userSpaceOnUse"><stop offset="0" stop-color="#9e17c2"/><stop offset=".378" stop-color="#b72cd4"/><stop offset="1" stop-color="#e756f7"/></radialGradient><path fill="url(#PrFtsSzfbx1AK_8CqmpOsa)" d="M32.598,3.592l1.149,1.138c0.36,0.357,0.882,0.497,1.373,0.368l1.564-0.411	c0.452-0.119,0.915,0.149,1.038,0.599l0.426,1.56c0.134,0.489,0.516,0.871,1.005,1.005l1.56,0.426	c0.45,0.123,0.718,0.586,0.599,1.038l-0.411,1.564c-0.129,0.491,0.011,1.013,0.368,1.373l1.138,1.149	c0.329,0.332,0.329,0.866,0,1.198l-1.138,1.149c-0.357,0.36-0.497,0.882-0.368,1.373l0.411,1.564	c0.119,0.452-0.149,0.915-0.599,1.038l-1.56,0.426c-0.489,0.134-0.871,0.516-1.005,1.005l-0.426,1.56	c-0.123,0.45-0.586,0.718-1.038,0.599l-1.564-0.411c-0.491-0.129-1.013,0.011-1.373,0.368l-1.149,1.138	c-0.332,0.329-0.866,0.329-1.198,0l-1.149-1.138c-0.36-0.357-0.882-0.497-1.373-0.368L26.5,23.525l-0.648-2.373	c-0.134-0.489-0.516-0.871-1.005-1.005l-2.373-0.648l0.625-2.379c0.129-0.491-0.011-1.013-0.368-1.373l-1.138-1.149	c-0.329-0.332-0.329-0.866,0-1.198l1.138-1.149c0.357-0.36,0.497-0.882,0.368-1.373l-0.411-1.564	c-0.119-0.452,0.149-0.915,0.599-1.038l1.56-0.426c0.489-0.134,0.871-0.516,1.005-1.005l0.426-1.56	c0.123-0.45,0.586-0.718,1.038-0.599l1.564,0.411c0.491,0.129,1.013-0.011,1.373-0.368l1.149-1.138	C31.733,3.264,32.266,3.264,32.598,3.592z"/><path fill="#e756f7" d="M39.482,33.348l1.043,3.128l3.128,1.043c0.463,0.154,0.463,0.81,0,0.964l-3.128,1.043l-1.043,3.128	c-0.154,0.463-0.81,0.463-0.964,0l-1.043-3.128l-3.128-1.043c-0.463-0.154-0.463-0.81,0-0.964l3.128-1.043l1.043-3.128	C38.672,32.884,39.328,32.884,39.482,33.348z"/><path fill="#e756f7" d="M30.289,29.209l0.626,1.876l1.876,0.626c0.278,0.093,0.278,0.486,0,0.579l-1.876,0.626l-0.626,1.876	c-0.093,0.278-0.486,0.278-0.579,0l-0.626-1.876l-1.876-0.626c-0.278-0.093-0.278-0.486,0-0.579l1.876-0.626l0.626-1.876	C29.804,28.93,30.197,28.93,30.289,29.209z"/><linearGradient id="PrFtsSzfbx1AK_8CqmpOsb" x1="9.062" x2="16.613" y1="24.272" y2="10.669" gradientTransform="matrix(1 0 0 -1 0 48)" gradientUnits="userSpaceOnUse"><stop offset="0" stop-color="#6d7479"/><stop offset="1" stop-color="#323538"/></linearGradient><path fill="url(#PrFtsSzfbx1AK_8CqmpOsb)" d="M5,42.414L3.586,41c-0.781-0.781-0.781-2.047,0-2.828l17.207-17.207l4.243,4.243L7.828,42.414	C7.047,43.195,5.781,43.195,5,42.414z"/><linearGradient id="PrFtsSzfbx1AK_8CqmpOsc" x1="25.773" x2="30.637" y1="34.945" y2="24.851" gradientTransform="matrix(1 0 0 -1 0 48)" gradientUnits="userSpaceOnUse"><stop offset="0" stop-color="#cfdbe6"/><stop offset="1" stop-color="#8f979e"/></linearGradient><path fill="url(#PrFtsSzfbx1AK_8CqmpOsc)" d="M33,11.586L34.414,13c0.781,0.781,0.781,2.047,0,2.828l-9.379,9.379l-4.243-4.243l9.379-9.379	C30.953,10.805,32.219,10.805,33,11.586z"/></svg>