<svg xmlns="http://www.w3.org/2000/svg"  viewBox="0 0 48 48" width="96px" height="96px"><path fill="#abb4be" d="M24,31c-0.552,0-1-0.448-1-1v-3.627c0-1.501,1.122-2.78,2.61-2.975l16.52-2.162	c0.496-0.065,0.87-0.491,0.87-0.992V13c0-0.551-0.449-1-1-1h-4c-0.552,0-1-0.448-1-1s0.448-1,1-1h4c1.654,0,3,1.346,3,3v7.245	c0,1.501-1.122,2.78-2.61,2.975l-16.52,2.162C25.374,25.447,25,25.873,25,26.373V30C25,30.552,24.552,31,24,31z"/><linearGradient id="Psn0qfw0zZI_2FiyraWIQa" x1="38.3" x2="40.42" y1="7.527" y2="14.85" gradientUnits="userSpaceOnUse"><stop offset="0" stop-color="#ffd869"/><stop offset="1" stop-color="#fec52b"/></linearGradient><path fill="url(#Psn0qfw0zZI_2FiyraWIQa)" d="M39.434,17H38V5h1.434C40.295,5,41,5.705,41,6.566v8.868C41,16.295,40.295,17,39.434,17z"/><linearGradient id="Psn0qfw0zZI_2FiyraWIQb" x1="7.763" x2="9.883" y1="7.782" y2="15.105" gradientUnits="userSpaceOnUse"><stop offset="0" stop-color="#ffd869"/><stop offset="1" stop-color="#fec52b"/></linearGradient><path fill="url(#Psn0qfw0zZI_2FiyraWIQb)" d="M10,17H8.565C7.701,17,7,16.299,7,15.435v-8.87C7,5.704,7.704,5,8.565,5H10V17z"/><linearGradient id="Psn0qfw0zZI_2FiyraWIQc" x1="21" x2="27" y1="36" y2="36" gradientUnits="userSpaceOnUse"><stop offset="0" stop-color="#3079d6"/><stop offset="1" stop-color="#297cd2"/></linearGradient><path fill="url(#Psn0qfw0zZI_2FiyraWIQc)" d="M22,29h4c0.552,0,1,0.448,1,1v12c0,0.552-0.448,1-1,1h-4c-0.552,0-1-0.448-1-1V30	C21,29.448,21.448,29,22,29z"/><linearGradient id="Psn0qfw0zZI_2FiyraWIQd" x1="24" x2="24" y1="4.909" y2="23.577" gradientUnits="userSpaceOnUse"><stop offset="0" stop-color="#d160f6"/><stop offset="1" stop-color="#c545ed"/></linearGradient><path fill="url(#Psn0qfw0zZI_2FiyraWIQd)" d="M10,4.999V23c0,0.552,0.448,1,1,1s1-0.448,1-1v-5c0-0.552,0.448-1,1-1s1,0.448,1,1v2	c0,0.552,0.448,1,1,1s1-0.448,1-1v-1c0-1.105,0.889-2,1.994-2C23.411,17,38,16.999,38,16.999V5L10,4.999z"/></svg>