<svg xmlns="http://www.w3.org/2000/svg"  viewBox="0 0 48 48" width="96px" height="96px"><path fill="#50e6ff" d="M6.673,11.767l24-8.308C31.322,3.235,32,3.717,32,4.404v18.884c0,0.426-0.27,0.806-0.673,0.945	l-24,8.308C6.678,32.765,6,32.283,6,31.596V12.712C6,12.286,6.27,11.906,6.673,11.767z"/><path d="M31.327,24.233C31.73,24.094,32,23.714,32,23.288V8.672l-20.653,7.149	C10.541,16.1,10,16.859,10,17.712v13.903L31.327,24.233z" opacity=".05"/><path d="M31.327,24.233C31.73,24.094,32,23.714,32,23.288V9.202l-20.49,7.093	c-0.604,0.208-1.01,0.778-1.01,1.417v13.73L31.327,24.233z" opacity=".05"/><path fill="#199be2" d="M11.673,16.767l24-8.308C36.322,8.235,37,8.717,37,9.404v18.884c0,0.426-0.27,0.806-0.673,0.945	l-24,8.308C11.678,37.765,11,37.283,11,36.596V17.712C11,17.286,11.27,16.906,11.673,16.767z"/><path d="M36.327,29.233C36.73,29.094,37,28.714,37,28.288V13.672l-20.653,7.149	C15.541,21.1,15,21.859,15,22.712v13.903L36.327,29.233z" opacity=".05"/><path d="M36.327,29.233C36.73,29.094,37,28.714,37,28.288V14.202l-20.49,7.093	c-0.604,0.208-1.01,0.778-1.01,1.417v13.73L36.327,29.233z" opacity=".05"/><path fill="#0d62ab" d="M16.673,21.767l24-8.308C41.322,13.235,42,13.717,42,14.404v18.884c0,0.426-0.27,0.806-0.673,0.945	l-24,8.308C16.678,42.765,16,42.283,16,41.596V22.712C16,22.286,16.27,21.906,16.673,21.767z"/></svg>