<svg xmlns="http://www.w3.org/2000/svg"  viewBox="0 0 48 48" width="96px" height="96px"><linearGradient id="3pqdDc9GpRiC~~RXNJCBxa" x1="20.035" x2="4.818" y1="13.721" y2="29.585" gradientTransform="translate(0 14)" gradientUnits="userSpaceOnUse"><stop offset="0" stop-color="#e5a505"/><stop offset=".01" stop-color="#e9a804"/><stop offset=".06" stop-color="#f4b102"/><stop offset=".129" stop-color="#fbb600"/><stop offset=".323" stop-color="#fdb700"/></linearGradient><path fill="url(#3pqdDc9GpRiC~~RXNJCBxa)" d="M12,41.5c0-1.381,1.119-2.5,2.5-2.5c0.156,0,0.307,0.019,0.454,0.046l1.186-1.186	C16.058,37.586,16,37.301,16,37c0-1.657,1.343-3,3-3c0.301,0,0.586,0.058,0.86,0.14L24,30l-6-6L4.586,37.414	C4.211,37.789,4,38.298,4,38.828v1.343c0,0.53,0.211,1.039,0.586,1.414l1.828,1.828C6.789,43.789,7.298,44,7.828,44h1.343	c0.53,0,1.039-0.211,1.414-0.586l1.46-1.46C12.019,41.807,12,41.656,12,41.5z"/><linearGradient id="3pqdDc9GpRiC~~RXNJCBxb" x1="21.64" x2="36.971" y1="-6.927" y2="15.362" gradientTransform="translate(0 14)" gradientUnits="userSpaceOnUse"><stop offset="0" stop-color="#fede00"/><stop offset="1" stop-color="#ffd000"/></linearGradient><path fill="url(#3pqdDc9GpRiC~~RXNJCBxb)" d="M29.5,5C22.044,5,16,11.044,16,18.5S22.044,32,29.5,32S43,25.956,43,18.5S36.956,5,29.5,5z M33,19c-2.209,0-4-1.791-4-4s1.791-4,4-4s4,1.791,4,4S35.209,19,33,19z"/><path d="M39.86,27.16c-0.12,0.15-0.25,0.3-0.38,0.44c-2.47,2.7-6.03,4.4-9.98,4.4	h-0.11c-0.2,0-0.39-0.01-0.59-0.02c1.96-3,5.35-4.98,9.2-4.98C38.63,27,39.25,27.05,39.86,27.16z" opacity=".05"/><path d="M39.48,27.6c-2.47,2.7-6.03,4.4-9.98,4.4h-0.11	c1.9-2.72,5.05-4.5,8.61-4.5C38.5,27.5,39,27.54,39.48,27.6z" opacity=".07"/><linearGradient id="3pqdDc9GpRiC~~RXNJCBxc" x1="33.304" x2="42.696" y1="88.831" y2="71.169" gradientTransform="matrix(1 0 0 -1 0 118)" gradientUnits="userSpaceOnUse"><stop offset="0" stop-color="#21ad64"/><stop offset="1" stop-color="#088242"/></linearGradient><circle cx="38" cy="38" r="10" fill="url(#3pqdDc9GpRiC~~RXNJCBxc)"/><path fill="#fff" d="M38.5,43h-1c-0.276,0-0.5-0.224-0.5-0.5v-9c0-0.276,0.224-0.5,0.5-0.5h1c0.276,0,0.5,0.224,0.5,0.5v9	C39,42.776,38.776,43,38.5,43z"/><path fill="#fff" d="M33,38.5v-1c0-0.276,0.224-0.5,0.5-0.5h9c0.276,0,0.5,0.224,0.5,0.5v1c0,0.276-0.224,0.5-0.5,0.5h-9	C33.224,39,33,38.776,33,38.5z"/></svg>