<svg xmlns="http://www.w3.org/2000/svg"  viewBox="0 0 48 48" width="96px" height="96px"><linearGradient id="GCWVriy4rQhfclYQVzRmda" x1="9.812" x2="38.361" y1="9.812" y2="38.361" gradientUnits="userSpaceOnUse"><stop offset="0" stop-color="#f44f5a"/><stop offset=".443" stop-color="#ee3d4a"/><stop offset="1" stop-color="#e52030"/></linearGradient><path fill="url(#GCWVriy4rQhfclYQVzRmda)" d="M24,4C12.955,4,4,12.955,4,24s8.955,20,20,20s20-8.955,20-20C44,12.955,35.045,4,24,4z M24,38	c-7.732,0-14-6.268-14-14s6.268-14,14-14s14,6.268,14,14S31.732,38,24,38z"/><linearGradient id="GCWVriy4rQhfclYQVzRmdb" x1="6.821" x2="41.08" y1="6.321" y2="40.58" gradientTransform="translate(-.146 .354)" gradientUnits="userSpaceOnUse"><stop offset="0" stop-color="#f44f5a"/><stop offset=".443" stop-color="#ee3d4a"/><stop offset="1" stop-color="#e52030"/></linearGradient><polygon fill="url(#GCWVriy4rQhfclYQVzRmdb)" points="13.371,38.871 9.129,34.629 34.629,9.129 38.871,13.371"/></svg>