<svg
	xmlns="http://www.w3.org/2000/svg"  viewBox="0 0 48 48" width="96px" height="96px">
	<linearGradient id="SVGID_1_" x1="5.327" x2="38.083" y1="520.657" y2="487.901" gradientTransform="matrix(1 0 0 -1 0 526)" gradientUnits="userSpaceOnUse">
		<stop offset="0" stop-color="#889097"/>
		<stop offset=".331" stop-color="#848c94"/>
		<stop offset=".669" stop-color="#78828b"/>
		<stop offset="1" stop-color="#64717c"/>
	</linearGradient>
  <path fill="#444" d="M43.4,19.2c-2.4,0-4.7-1.3-6-3.5c-1.2-2.1-1.2-4.6-0.2-6.7c-2.1-1.9-4.6-3.3-7.4-4.2C28.6,6.8,26.4,8,24,8	s-4.6-1.2-5.8-3.1c-2.8,0.8-5.3,2.3-7.4,4.2c1,2,1.1,4.6-0.2,6.7c-1.3,2.2-3.6,3.5-6,3.5C4.2,20.8,4,22.4,4,24	c0,1.3,0.1,2.5,0.4,3.8c2.5-0.1,4.9,1.2,6.2,3.5c1.4,2.4,1.2,5.2-0.2,7.3c2.1,1.9,4.6,3.5,7.3,4.4c1.1-2.3,3.5-4,6.3-4	s5.2,1.6,6.3,4c2.8-0.9,5.3-2.4,7.3-4.4c-1.4-2.1-1.6-5-0.2-7.3c1.3-2.3,3.7-3.5,6.2-3.5c0.2-1.2,0.4-2.5,0.4-3.8	C44,22.4,43.8,20.8,43.4,19.2z">
    <animateTransform attributeType="xml" attributeName="transform" type="rotate" from="360 24 24" to="0 24 24" dur="30s" additive="sum" repeatCount="indefinite" />
  </path>
	<path fill="url(#SVGID_1_)" d="M43.4,19.2c-2.4,0-4.7-1.3-6-3.5c-1.2-2.1-1.2-4.6-0.2-6.7c-2.1-1.9-4.6-3.3-7.4-4.2C28.6,6.8,26.4,8,24,8	s-4.6-1.2-5.8-3.1c-2.8,0.8-5.3,2.3-7.4,4.2c1,2,1.1,4.6-0.2,6.7c-1.3,2.2-3.6,3.5-6,3.5C4.2,20.8,4,22.4,4,24	c0,1.3,0.1,2.5,0.4,3.8c2.5-0.1,4.9,1.2,6.2,3.5c1.4,2.4,1.2,5.2-0.2,7.3c2.1,1.9,4.6,3.5,7.3,4.4c1.1-2.3,3.5-4,6.3-4	s5.2,1.6,6.3,4c2.8-0.9,5.3-2.4,7.3-4.4c-1.4-2.1-1.6-5-0.2-7.3c1.3-2.3,3.7-3.5,6.2-3.5c0.2-1.2,0.4-2.5,0.4-3.8	C44,22.4,43.8,20.8,43.4,19.2z">
    <animateTransform attributeType="xml" attributeName="transform" type="rotate" from="-360 24 24" to="0 24 24" dur="20s" additive="sum" repeatCount="indefinite" />
  </path>
	<path d="M30,18.1v1.3c-0.6-0.7-1.6-1.3-3.4-1.3h-4v6.6l-2.3-6.6h-3.7l-3.8,10.4H17l0.6-1.9h1.5l0.6,1.9h6.7v-2.9	c1.2,0,2.2-0.4,3-1c0.2-0.2,0.3-0.3,0.5-0.5v4.4h3.9V18.1H30z M26.5,22.2v-0.6c0.3,0,0.3,0.1,0.3,0.3C26.7,22.1,26.7,22.2,26.5,22.2	z" opacity=".05"/>
	<path d="M26.6,18.6h-3.5v9l-3.2-9H17L13.5,28h3.1l0.6-1.9h2.3l0.6,1.9H26v-2.9h0.4c1.1,0,2.1-0.3,2.8-0.9	c0.7-0.6,1.1-1.4,1.1-2.4C30.2,20.3,29.6,18.6,26.6,18.6z M18,23.7l0.4-1.2l0.4,1.2H18z M26.2,22.7H26v-1.6h0.2c0.9,0,1,0.4,1,0.8	C27.2,22.4,27.1,22.7,26.2,22.7z" opacity=".07"/>
	<path fill="#fff" d="M22.5,27.5h-2.1l-0.6-1.9h-3l-0.6,1.9h-2.1l3.1-8.4h2.2L22.5,27.5z M19.5,24.2l-0.9-2.8	c-0.1-0.2-0.1-0.5-0.1-0.8h0c0,0.2-0.1,0.5-0.1,0.7l-0.9,2.8H19.5z"/>
	<rect width="2.9" height="9.4" x="30.5" y="18.6" opacity=".07"/>
	<path fill="#fff" d="M25.5,24.6v2.9h-1.9v-8.4h3c2.1,0,3.2,0.9,3.2,2.7c0,0.8-0.3,1.5-0.9,2s-1.4,0.8-2.4,0.8H25.5z M25.5,20.6v2.6	h0.7c1,0,1.5-0.4,1.5-1.3c0-0.9-0.5-1.3-1.5-1.3H25.5z"/>
	<path fill="#fff" d="M32.9,27.5H31v-8.4h1.9V27.5z"/>
</svg>
