<svg xmlns="http://www.w3.org/2000/svg"  viewBox="0 0 48 48" width="96px" height="96px"><linearGradient id="SVGID_1_" x1="8.268" x2="38.902" y1="110.689" y2="78.192" gradientTransform="matrix(1 0 0 -1 0 118)" gradientUnits="userSpaceOnUse"><stop offset="0" stop-color="#7dd8f3"/><stop offset="1" stop-color="#45b0d0"/></linearGradient><path fill="url(#SVGID_1_)" d="M37,42H11c-1.1,0-2-1-2-2.3V8.3C9,7,9.9,6,11,6h26c1.1,0,2,1,2,2.3v31.4C39,41,38.1,42,37,42z"/><path fill="#057093" d="M34.5,23h-18c-0.3,0-0.5-0.2-0.5-0.5v-1c0-0.3,0.2-0.5,0.5-0.5h18c0.3,0,0.5,0.2,0.5,0.5v1 C35,22.8,34.8,23,34.5,23z"/><path fill="#057093" d="M34.5,28h-18c-0.3,0-0.5-0.2-0.5-0.5v-1c0-0.3,0.2-0.5,0.5-0.5h18c0.3,0,0.5,0.2,0.5,0.5v1 C35,27.8,34.8,28,34.5,28z"/><path fill="#057093" d="M34.5,13h-18c-0.3,0-0.5-0.2-0.5-0.5v-1c0-0.3,0.2-0.5,0.5-0.5h18c0.3,0,0.5,0.2,0.5,0.5v1 C35,12.8,34.8,13,34.5,13z"/><path fill="#057093" d="M34.5,18h-18c-0.3,0-0.5-0.2-0.5-0.5v-1c0-0.3,0.2-0.5,0.5-0.5h18c0.3,0,0.5,0.2,0.5,0.5v1 C35,17.8,34.8,18,34.5,18z"/><path fill="#057093" d="M34.5,33H16.5c-0.3,0-0.5-0.2-0.5-0.5v-1c0-0.3,0.2-0.5,0.5-0.5h18.1c0.3,0,0.5,0.2,0.5,0.5v1 C35,32.8,34.8,33,34.5,33z"/><path fill="#057093" d="M34.5,38H16.5c-0.3,0-0.5-0.2-0.5-0.5v-1c0-0.3,0.2-0.5,0.5-0.5h18.1c0.3,0,0.5,0.2,0.5,0.5v1 C35,37.8,34.8,38,34.5,38z"/><path fill="#057093" d="M12,13.5L12,13.5c0,0.8-0.7,1.5-1.5,1.5h-2C7.7,15,7,14.3,7,13.5l0,0C7,12.7,7.7,12,8.5,12h2 C11.3,12,12,12.7,12,13.5z"/><path fill="#057093" d="M12,20.5L12,20.5c0,0.8-0.7,1.5-1.5,1.5h-2C7.7,22,7,21.3,7,20.5l0,0C7,19.7,7.7,19,8.5,19h2 C11.3,19,12,19.7,12,20.5z"/><path fill="#057093" d="M12,27.5L12,27.5c0,0.8-0.7,1.5-1.5,1.5h-2C7.7,29,7,28.3,7,27.5l0,0C7,26.7,7.7,26,8.5,26h2 C11.3,26,12,26.7,12,27.5z"/><path fill="#057093" d="M12,34.5L12,34.5c0,0.8-0.7,1.5-1.5,1.5h-2C7.7,36,7,35.3,7,34.5l0,0C7,33.7,7.7,33,8.5,33h2 C11.3,33,12,33.7,12,34.5z"/><path d="M37,6h-5.5l-6.1,9.7c-0.1,0.1-0.4,0.6-0.4,1.2c0,1.1,0.9,2,2,2h12V8.3C39,7,38.1,6,37,6z" opacity=".05"/><path d="M37,6h-4.9l-6.3,10c0,0-0.3,0.4-0.3,0.9c0,0.9,0.7,1.5,1.5,1.5h12V8.3C39,7,38.1,6,37,6z" opacity=".07"/><linearGradient id="SVGID_2_" x1="-137.298" x2="43.76" y1="303.225" y2="95.565" gradientTransform="matrix(1 0 0 -1 0 118)" gradientUnits="userSpaceOnUse"><stop offset="0" stop-color="#ffda1c"/><stop offset="1" stop-color="#feb705"/></linearGradient><path fill="url(#SVGID_2_)" d="M47.8,16.3L37.9,0.5c0,0-0.3-0.5-0.9-0.5s-0.9,0.6-0.9,0.6l-9.9,15.7c0,0-0.2,0.3-0.2,0.6c0,0.6,0.5,1,1,1H47	c0.6,0,1-0.5,1-1C48,16.6,47.8,16.3,47.8,16.3z"/><radialGradient id="SVGID_3_" cx="33.956" cy="112.739" r="11.714" gradientTransform="matrix(1 0 0 -1 0 118)" gradientUnits="userSpaceOnUse"><stop offset="0" stop-color="#4b4b4b"/><stop offset=".531" stop-color="#393939"/><stop offset="1" stop-color="#252525"/></radialGradient><path fill="url(#SVGID_3_)" d="M37,15.9c-0.4,0-0.7-0.1-0.9-0.3s-0.4-0.5-0.4-0.8c0-0.3,0.1-0.6,0.4-0.8c0.3-0.2,0.6-0.3,0.9-0.3	c0.4,0,0.7,0.1,0.9,0.3c0.2,0.2,0.4,0.5,0.4,0.8c0,0.3-0.1,0.6-0.4,0.9C37.7,15.7,37.4,15.9,37,15.9z M38.2,5.8l-0.3,6.4	c0,0.2-0.2,0.3-0.4,0.3h-1.1c-0.2,0-0.4-0.2-0.4-0.3l-0.2-6.4c0-0.2,0.2-0.4,0.4-0.4h1.6C38,5.4,38.2,5.5,38.2,5.8z"/></svg>