<svg xmlns="http://www.w3.org/2000/svg"  viewBox="0 0 48 48" width="96px" height="96px"><path fill="#107c42" d="M6.999,25c-0.503,0-0.937-0.378-0.993-0.89c-0.061-0.549,0.335-1.043,0.884-1.104l8.688-0.965	l7.764-6.794c0.09-0.079,0.194-0.142,0.307-0.184l7.798-2.924l7.847-7.847c0.391-0.391,1.023-0.391,1.414,0s0.391,1.023,0,1.414	l-8,8c-0.101,0.101-0.223,0.179-0.355,0.229l-7.83,2.936l-7.863,6.881c-0.153,0.134-0.345,0.219-0.548,0.241l-9,1	C7.073,24.998,7.035,25,6.999,25z"/><path fill="#61e3a7" d="M44,19v24h-8V19c0-0.552,0.448-1,1-1h6C43.552,18,44,18.448,44,19z"/><path fill="#33c481" d="M36,25v18h-8V26c0-0.552,0.448-1,1-1H36z"/><path fill="#21a366" d="M28,29v14h-8V30c0-0.552,0.448-1,1-1H28z"/><path fill="#107c42" d="M20,33v10h-8v-9c0-0.552,0.448-1,1-1H20z"/><path fill="#185c37" d="M12,37v6H4v-5c0-0.552,0.448-1,1-1H12z"/><circle cx="32" cy="13" r="2" fill="#33c481"/><circle cx="24" cy="16" r="2" fill="#33c481"/><circle cx="16" cy="23" r="2" fill="#33c481"/><circle cx="7" cy="24" r="2" fill="#33c481"/><path fill="#33c481" d="M41.014,8.916l0.856-5.135c0.064-0.383-0.268-0.715-0.651-0.651l-5.135,0.856	c-0.454,0.076-0.632,0.633-0.307,0.958l4.279,4.279C40.381,9.548,40.938,9.37,41.014,8.916z"/></svg>