<svg xmlns="http://www.w3.org/2000/svg"  viewBox="0 0 48 48" width="96px" height="96px"><linearGradient id="wZGpzcUawlversdxtSVKMa" x1="22.255" x2="28.545" y1="18.269" y2="43.563" gradientUnits="userSpaceOnUse"><stop offset="0" stop-color="#32bdef"/><stop offset="1" stop-color="#1ea2e4"/></linearGradient><path fill="url(#wZGpzcUawlversdxtSVKMa)" d="M31.789,24.789l-6.728-6.728c-0.586-0.586-1.536-0.586-2.121,0l-6.728,6.728	C15.764,25.236,16.081,26,16.713,26H21v16c0,0.552,0.448,1,1,1h4c0.552,0,1-0.448,1-1V26h4.287	C31.919,26,32.236,25.236,31.789,24.789z"/><linearGradient id="wZGpzcUawlversdxtSVKMb" x1="42" x2="42" y1="4.513" y2="16.282" gradientUnits="userSpaceOnUse"><stop offset="0" stop-color="#32bdef"/><stop offset="1" stop-color="#1ea2e4"/></linearGradient><path fill="url(#wZGpzcUawlversdxtSVKMb)" d="M43.828,9.828L39,5v10c0,0.552,0.448,1,1,1h4c0.552,0,1-0.448,1-1v-2.343	C45,11.596,44.579,10.579,43.828,9.828z"/><linearGradient id="wZGpzcUawlversdxtSVKMc" x1="6" x2="6" y1="4.513" y2="16.282" gradientUnits="userSpaceOnUse"><stop offset="0" stop-color="#32bdef"/><stop offset="1" stop-color="#1ea2e4"/></linearGradient><path fill="url(#wZGpzcUawlversdxtSVKMc)" d="M9,5L4.172,9.828C3.421,10.579,3,11.596,3,12.657V15c0,0.552,0.448,1,1,1h4	c0.552,0,1-0.448,1-1V5z"/><linearGradient id="wZGpzcUawlversdxtSVKMd" x1="9" x2="39" y1="8" y2="8" gradientUnits="userSpaceOnUse"><stop offset="0" stop-color="#0362b0"/><stop offset=".112" stop-color="#036abd"/><stop offset=".258" stop-color="#036fc5"/><stop offset=".5" stop-color="#0370c8"/><stop offset=".742" stop-color="#036fc5"/><stop offset=".888" stop-color="#036abd"/><stop offset="1" stop-color="#0362b0"/></linearGradient><rect width="30" height="6" x="9" y="5" fill="url(#wZGpzcUawlversdxtSVKMd)"/></svg>