<svg xmlns="http://www.w3.org/2000/svg"  viewBox="0 0 48 48" width="96px" height="96px"><linearGradient id="iucqluk~4TSJfp3H4setfa" x1="30.123" x2="41.07" y1="36.377" y2="25.43" gradientUnits="userSpaceOnUse"><stop offset=".365" stop-color="#199ae0"/><stop offset=".699" stop-color="#1898de"/><stop offset=".819" stop-color="#1691d8"/><stop offset=".905" stop-color="#1186cc"/><stop offset=".974" stop-color="#0a75bc"/><stop offset="1" stop-color="#076cb3"/></linearGradient><path fill="url(#iucqluk~4TSJfp3H4setfa)" d="M45.516,25.667L33.668,37.516c-0.645,0.645-1.69,0.645-2.335,0l-2.349-2.349 c-0.645-0.645-0.645-1.69,0-2.335l11.849-11.849c0.645-0.645,1.69-0.645,2.335,0l2.349,2.349 C46.161,23.977,46.161,25.023,45.516,25.667z"/><linearGradient id="iucqluk~4TSJfp3H4setfb" x1="19.812" x2="38.111" y1="15.281" y2="33.58" gradientUnits="userSpaceOnUse"><stop offset="0" stop-color="#1ea2e4"/><stop offset="1" stop-color="#32bdef"/></linearGradient><path fill="url(#iucqluk~4TSJfp3H4setfb)" d="M45.516,23.332L32.667,10.484c-0.645-0.645-1.69-0.645-2.335,0l-2.349,2.349 c-0.645,0.645-0.645,1.69,0,2.335L32.816,20H15.5c-0.828,0-1.5,0.672-1.5,1.5v5c0,0.828,0.672,1.5,1.5,1.5h25.316l0,0h2.368 l2.333-2.333C46.161,25.023,46.161,23.977,45.516,23.332z"/><linearGradient id="iucqluk~4TSJfp3H4setfc" x1="145.334" x2="155.403" y1="-109.48" y2="-109.48" gradientTransform="rotate(-90 147.24 26.76)" gradientUnits="userSpaceOnUse"><stop offset="0" stop-color="#1ea2e4"/><stop offset="1" stop-color="#32bdef"/></linearGradient><path fill="url(#iucqluk~4TSJfp3H4setfc)" d="M12,21v6c0,0.552-0.448,1-1,1h0c-0.552,0-1-0.448-1-1v-6c0-0.552,0.448-1,1-1h0 C11.552,20,12,20.448,12,21z"/><linearGradient id="iucqluk~4TSJfp3H4setfd" x1="145.334" x2="155.403" y1="-113.48" y2="-113.48" gradientTransform="rotate(-90 147.24 26.76)" gradientUnits="userSpaceOnUse"><stop offset="0" stop-color="#1ea2e4"/><stop offset="1" stop-color="#32bdef"/></linearGradient><path fill="url(#iucqluk~4TSJfp3H4setfd)" d="M8,21v6c0,0.552-0.448,1-1,1h0c-0.552,0-1-0.448-1-1v-6c0-0.552,0.448-1,1-1h0 C7.552,20,8,20.448,8,21z"/><linearGradient id="iucqluk~4TSJfp3H4setfe" x1="145.334" x2="155.403" y1="-117.48" y2="-117.48" gradientTransform="rotate(-90 147.24 26.76)" gradientUnits="userSpaceOnUse"><stop offset="0" stop-color="#1ea2e4"/><stop offset="1" stop-color="#32bdef"/></linearGradient><path fill="url(#iucqluk~4TSJfp3H4setfe)" d="M4,21v6c0,0.552-0.448,1-1,1h0c-0.552,0-1-0.448-1-1v-6c0-0.552,0.448-1,1-1h0 C3.552,20,4,20.448,4,21z"/></svg>