<svg xmlns="http://www.w3.org/2000/svg"  viewBox="0 0 48 48" width="96px" height="96px"><linearGradient id="2xtIDvU2ySt~E0WlpAU5ia" x1="13.661" x2="34.486" y1="57.962" y2="3.712" gradientTransform="matrix(1 0 0 -1 0 48)" gradientUnits="userSpaceOnUse"><stop offset=".076" stop-color="#ffda1c"/><stop offset="1" stop-color="#feb705"/></linearGradient><path fill="url(#2xtIDvU2ySt~E0WlpAU5ia)" d="M42,10c-11.122,0-11.278-6-18-6s-6.878,6-18,6c-0.552,0-1,0.448-1,1c0,0,0,5.856,0,9	c0,1.378,0.178,2.712,0.493,4c2.936,12.007,18.08,19.907,18.08,19.907S23.784,44,24,44c0.203,0,0.427-0.093,0.427-0.093	s15.144-7.9,18.08-19.907C42.822,22.712,43,21.378,43,20c0-3.144,0-9,0-9C43,10.448,42.552,10,42,10z"/><path d="M24,33c-1.654,0-3-1.346-3-3v-2.91c-1.571-1.017-2.5-2.712-2.5-4.59	c0-3.033,2.468-5.5,5.5-5.5s5.5,2.467,5.5,5.5c0,1.877-0.929,3.573-2.5,4.59V30C27,31.654,25.654,33,24,33z" opacity=".05"/><path d="M24,32.5c-1.379,0-2.5-1.122-2.5-2.5v-3.19c-1.55-0.896-2.5-2.52-2.5-4.31	c0-2.757,2.243-5,5-5s5,2.243,5,5c0,1.79-0.95,3.415-2.5,4.31V30C26.5,31.378,25.379,32.5,24,32.5z" opacity=".07"/><radialGradient id="2xtIDvU2ySt~E0WlpAU5ib" cx="17.403" cy="30.919" r="17.37" gradientTransform="matrix(1 0 0 -1 0 48)" gradientUnits="userSpaceOnUse"><stop offset="0" stop-color="#4b4b4b"/><stop offset=".531" stop-color="#393939"/><stop offset="1" stop-color="#252525"/></radialGradient><path fill="url(#2xtIDvU2ySt~E0WlpAU5ib)" d="M28.5,22.5c0-2.485-2.015-4.5-4.5-4.5s-4.5,2.015-4.5,4.5c0,1.763,1.024,3.273,2.5,4.012V30	c0,1.105,0.895,2,2,2s2-0.895,2-2v-3.488C27.476,25.773,28.5,24.263,28.5,22.5z"/></svg>