<svg xmlns="http://www.w3.org/2000/svg"  viewBox="0 0 48 48" width="96px" height="96px"><linearGradient id="rycTnbCCmyN0Z_WqHqZZ_a" x1="24" x2="24" y1="3.34" y2="43.733" gradientUnits="userSpaceOnUse"><stop offset="0" stop-color="#7dd8f3"/><stop offset="1" stop-color="#45b0d0"/></linearGradient><path fill="url(#rycTnbCCmyN0Z_WqHqZZ_a)" d="M37,5H11C9.895,5,9,5.895,9,7v24v10c0,1.105,0.895,2,2,2h17h9c1.105,0,2-0.895,2-2v-9v-1V7	C39,5.895,38.105,5,37,5z"/><path fill="#057093" d="M33,11H23c-0.552,0-1,0.448-1,1l0,0c0,0.552,0.448,1,1,1h10c0.552,0,1-0.448,1-1l0,0	C34,11.448,33.552,11,33,11z"/><path fill="#057093" d="M14,13h5c0.552,0,1-0.448,1-1l0,0c0-0.552-0.448-1-1-1h-5c-0.552,0-1,0.448-1,1l0,0	C13,12.552,13.448,13,14,13z"/><path fill="#057093" d="M33,38H14c-0.552,0-1-0.448-1-1V17c0-0.552,0.448-1,1-1h19c0.552,0,1,0.448,1,1v20	C34,37.552,33.552,38,33,38z"/></svg>