<svg xmlns="http://www.w3.org/2000/svg"  viewBox="0 0 48 48" width="96px" height="96px"><defs><linearGradient id="YP84gtDqSIMPo~qxagCUGa" x1="16.442" x2="35.628" y1="3.234" y2="55.948" data-name="Безымянный градиент 100" gradientUnits="userSpaceOnUse"><stop offset="0" stop-color="#21ad64"/><stop offset="1" stop-color="#088242"/></linearGradient></defs><path fill="url(#YP84gtDqSIMPo~qxagCUGa)" d="M42,8V40a2.00591,2.00591,0,0,1-2,2H8a2.00591,2.00591,0,0,1-2-2V15.83a2.00616,2.00616,0,0,1,.59-1.42L14.41,6.59A2.00614,2.00614,0,0,1,15.83,6H40A2.00587,2.00587,0,0,1,42,8Z"/><path fill="#50d18d" d="M12,36V17.41L17.41,12H36V30H18V20.41406L20.41406,18H30v6H28V22a1.07539,1.07539,0,0,0-1-1H24.41418a1,1,0,0,0-.70709.29291l-1.41418,1.41418A1,1,0,0,0,22,23.41418V25a.99974.99974,0,0,0,1,1h8a.99974.99974,0,0,0,1-1V17a.99974.99974,0,0,0-1-1H20a.99928.99928,0,0,0-.707.293l-3,3A1.00012,1.00012,0,0,0,16,20V31a.99974.99974,0,0,0,1,1H37a.99974.99974,0,0,0,1-1V11a1.003,1.003,0,0,0-1-1H17a1.03276,1.03276,0,0,0-.71.29l-6,6A1.03276,1.03276,0,0,0,10,17V37a1.003,1.003,0,0,0,1,1H42V36Z"/></svg>