<svg xmlns="http://www.w3.org/2000/svg" viewBox="0 0 48 48" width="96px" height="96px">
  <linearGradient id="71jOKMe3jIEN7vuoamoZEa" x1="26.5" x2="26.5" y1="42.5" y2="35.874" gradientUnits="userSpaceOnUse">
    <stop offset="0" stop-color="#737b80"/>
    <stop offset="1" stop-color="#575c61"/>
  </linearGradient>
  <rect width="25" height="7" x="14" y="34" fill="url(#71jOKMe3jIEN7vuoamoZEa)"/>
  <linearGradient id="71jOKMe3jIEN7vuoamoZEb" x1="18" x2="18" y1="38.094" y2="35.749" gradientUnits="userSpaceOnUse">
    <stop offset="0" stop-color="#ffd869"/>
    <stop offset="1" stop-color="#fec52b"/>
  </linearGradient>
  <path fill="url(#71jOKMe3jIEN7vuoamoZEb)" d="M18.5,39h-1c-0.276,0-0.5-0.224-0.5-0.5v-5c0-0.276,0.224-0.5,0.5-0.5h1 c0.276,0,0.5,0.224,0.5,0.5v5C19,38.776,18.776,39,18.5,39z"/>
  <linearGradient id="71jOKMe3jIEN7vuoamoZEc" x1="22" x2="22" y1="38.094" y2="35.749" gradientUnits="userSpaceOnUse">
    <stop offset="0" stop-color="#ffd869"/>
    <stop offset="1" stop-color="#fec52b"/>
  </linearGradient>
  <path fill="url(#71jOKMe3jIEN7vuoamoZEc)" d="M22.5,39h-1c-0.276,0-0.5-0.224-0.5-0.5v-5c0-0.276,0.224-0.5,0.5-0.5h1 c0.276,0,0.5,0.224,0.5,0.5v5C23,38.776,22.776,39,22.5,39z"/>
  <linearGradient id="71jOKMe3jIEN7vuoamoZEd" x1="27" x2="27" y1="38.094" y2="35.749" gradientUnits="userSpaceOnUse">
    <stop offset="0" stop-color="#ffd869"/>
    <stop offset="1" stop-color="#fec52b"/>
  </linearGradient>
  <path fill="url(#71jOKMe3jIEN7vuoamoZEd)" d="M27.5,39h-1c-0.276,0-0.5-0.224-0.5-0.5v-5c0-0.276,0.224-0.5,0.5-0.5h1 c0.276,0,0.5,0.224,0.5,0.5v5C28,38.776,27.776,39,27.5,39z"/>
  <linearGradient id="71jOKMe3jIEN7vuoamoZEe" x1="31" x2="31" y1="38.094" y2="35.749" gradientUnits="userSpaceOnUse">
    <stop offset="0" stop-color="#ffd869"/>
    <stop offset="1" stop-color="#fec52b"/>
  </linearGradient>
  <path fill="url(#71jOKMe3jIEN7vuoamoZEe)" d="M31.5,39h-1c-0.276,0-0.5-0.224-0.5-0.5v-5c0-0.276,0.224-0.5,0.5-0.5h1 c0.276,0,0.5,0.224,0.5,0.5v5C32,38.776,31.776,39,31.5,39z"/>
  <linearGradient id="71jOKMe3jIEN7vuoamoZEf" x1="35" x2="35" y1="38.094" y2="35.749" gradientUnits="userSpaceOnUse">
    <stop offset="0" stop-color="#ffd869"/>
    <stop offset="1" stop-color="#fec52b"/>
  </linearGradient>
  <path fill="url(#71jOKMe3jIEN7vuoamoZEf)" d="M35.5,39h-1c-0.276,0-0.5-0.224-0.5-0.5v-5c0-0.276,0.224-0.5,0.5-0.5h1 c0.276,0,0.5,0.224,0.5,0.5v5C36,38.776,35.776,39,35.5,39z"/>
  <linearGradient id="71jOKMe3jIEN7vuoamoZEg" x1="24" x2="24" y1="30.333" y2="42.75" gradientUnits="userSpaceOnUse">
    <stop offset="0" stop-color="#c3cdd9"/>
    <stop offset="1" stop-color="#9fa7b0"/>
  </linearGradient>
  <path fill="url(#71jOKMe3jIEN7vuoamoZEg)" d="M42,30v10c0,1.1-0.9,2-2,2h-1.25c-0.44,0-0.83-0.3-0.96-0.73L37.71,41l-1.3-4.55	C36.17,35.59,35.38,35,34.49,35H18.51c-0.89,0-1.68,0.59-1.92,1.45L15.29,41l-0.08,0.27C15.08,41.7,14.69,42,14.25,42H8	c-1.1,0-2-0.9-2-2V30H42z"/>
  <g>
    <path d="M42,30v10c0,1.1-0.9,2-2,2h-1.25c-0.44,0-0.83-0.3-0.96-0.73L37.71,41h-1.04l-1.22-4.27 C35.33,36.3,34.94,36,34.49,36H18.51c-0.45,0-0.84,0.3-0.96,0.73L16.33,41h-1.04l-0.08,0.27C15.08,41.7,14.69,42,14.25,42H8 c-1.1,0-2-0.9-2-2V30H42z" opacity=".05"/>
    <path d="M42,30v10c0,1.1-0.9,2-2,2h-1.25c-0.44,0-0.83-0.3-0.96-0.73L37.71,41h-0.52l-1.26-4.41 c-0.18-0.64-0.77-1.09-1.44-1.09H18.51c-0.67,0-1.26,0.45-1.44,1.09L15.81,41h-0.52l-0.08,0.27C15.08,41.7,14.69,42,14.25,42H8 c-1.1,0-2-0.9-2-2V30H42z" opacity=".07"/>
  </g>
  <linearGradient id="71jOKMe3jIEN7vuoamoZEh" x1="24" x2="24" y1="6.417" y2="31.933" gradientUnits="userSpaceOnUse">
    <stop offset="0" stop-color="#737b80"/>
    <stop offset="1" stop-color="#575c61"/>
  </linearGradient>
  <path fill="url(#71jOKMe3jIEN7vuoamoZEh)" d="M10.764,6h26.471c1.008,0,1.859,0.75,1.984,1.751l2.767,22.02C42.124,30.958,41.195,32,40,32	H8c-1.195,0-2.124-1.042-1.987-2.229L8.78,7.751C8.906,6.75,9.756,6,10.764,6z"/>
  <g>
    <path d="M11,35c1.105,0,2,0.895,2,2s-0.895,2-2,2s-2-0.895-2-2S9.895,35,11,35 M11,34c-1.654,0-3,1.346-3,3s1.346,3,3,3 s3-1.346,3-3S12.654,34,11,34L11,34z" opacity=".05"/>
    <path d="M11,35c1.105,0,2,0.895,2,2s-0.895,2-2,2s-2-0.895-2-2S9.895,35,11,35 M11,34.5c-1.379,0-2.5,1.121-2.5,2.5 s1.121,2.5,2.5,2.5s2.5-1.121,2.5-2.5S12.379,34.5,11,34.5L11,34.5z" opacity=".07"/>
    <linearGradient id="71jOKMe3jIEN7vuoamoZEi" x1="11" x2="11" y1="34.958" y2="39.052" gradientUnits="userSpaceOnUse">
      <stop offset="0" stop-color="#75ff8a"/>
      <stop offset="1" stop-color="#1ee446"/>
    </linearGradient>
    <circle cx="11" cy="37" r="2" fill="#666666" />
    <circle cx="11" cy="37" r="2" fill="url(#71jOKMe3jIEN7vuoamoZEi)">
      <animate attributeName="opacity" dur="2s" values="0;1;0" repeatCount="indefinite" begin="0.1" />
    </circle>
  </g>
  <g>
    <g opacity=".05">
      <path d="M10.5,28c0.828,0,1.5,0.448,1.5,1s-0.672,1-1.5,1S9,29.552,9,29S9.672,28,10.5,28 M10.5,27C9.098,27,8,27.878,8,29 s1.098,2,2.5,2s2.5-0.878,2.5-2S11.902,27,10.5,27L10.5,27z"/>
      <path d="M37.5,28c0.828,0,1.5,0.448,1.5,1s-0.672,1-1.5,1S36,29.552,36,29S36.672,28,37.5,28 M37.5,27c-1.402,0-2.5,0.878-2.5,2 s1.098,2,2.5,2s2.5-0.878,2.5-2S38.902,27,37.5,27L37.5,27z"/>
      <path d="M12.5,8C13.328,8,14,8.448,14,9s-0.672,1-1.5,1S11,9.552,11,9S11.672,8,12.5,8 M12.5,7C11.098,7,10,7.878,10,9 s1.098,2,2.5,2S15,10.122,15,9S13.902,7,12.5,7L12.5,7z"/>
      <path d="M35.5,8C36.328,8,37,8.448,37,9s-0.672,1-1.5,1S34,9.552,34,9S34.672,8,35.5,8 M35.5,7C34.098,7,33,7.878,33,9 s1.098,2,2.5,2S38,10.122,38,9S36.902,7,35.5,7L35.5,7z"/>
    </g>
    <g opacity=".07">
      <path d="M10.5,28c0.828,0,1.5,0.448,1.5,1s-0.672,1-1.5,1S9,29.552,9,29S9.672,28,10.5,28 M10.5,27.5c-1.121,0-2,0.659-2,1.5 s0.879,1.5,2,1.5s2-0.659,2-1.5S11.621,27.5,10.5,27.5L10.5,27.5z"/>
      <path d="M37.5,28c0.828,0,1.5,0.448,1.5,1s-0.672,1-1.5,1S36,29.552,36,29S36.672,28,37.5,28 M37.5,27.5c-1.121,0-2,0.659-2,1.5 s0.879,1.5,2,1.5s2-0.659,2-1.5S38.621,27.5,37.5,27.5L37.5,27.5z"/>
      <path d="M12.5,8C13.328,8,14,8.448,14,9s-0.672,1-1.5,1S11,9.552,11,9S11.672,8,12.5,8 M12.5,7.5c-1.121,0-2,0.659-2,1.5 s0.879,1.5,2,1.5s2-0.659,2-1.5S13.621,7.5,12.5,7.5L12.5,7.5z"/>
      <path d="M35.5,8C36.328,8,37,8.448,37,9s-0.672,1-1.5,1S34,9.552,34,9S34.672,8,35.5,8 M35.5,7.5c-1.121,0-2,0.659-2,1.5 s0.879,1.5,2,1.5s2-0.659,2-1.5S36.621,7.5,35.5,7.5L35.5,7.5z"/>
    </g>
    <ellipse cx="10.5" cy="29" fill="#ccc" rx="1.5" ry="1"/>
    <ellipse cx="37.5" cy="29" fill="#ccc" rx="1.5" ry="1"/>
    <ellipse cx="12.5" cy="9" fill="#ccc" rx="1.5" ry="1"/>
    <ellipse cx="35.5" cy="9" fill="#ccc" rx="1.5" ry="1"/>
  </g>
</svg>
