<svg xmlns="http://www.w3.org/2000/svg"  viewBox="0 0 48 48" width="48px" height="48px"><linearGradient id="YGGk5xCyNietrYbhNX6WKa" x1="13.25" x2="13.25" y1="42.071" y2="28.237" gradientTransform="rotate(-90 24 24)" gradientUnits="userSpaceOnUse"><stop offset=".365" stop-color="#199ae0"/><stop offset=".699" stop-color="#1898de"/><stop offset=".819" stop-color="#1691d8"/><stop offset=".905" stop-color="#1186cc"/><stop offset=".974" stop-color="#0a75bc"/><stop offset="1" stop-color="#076cb3"/></linearGradient><path fill="url(#YGGk5xCyNietrYbhNX6WKa)" d="M25.168,45.516l15.849-15.849c0.645-0.645,0.645-1.69,0-2.335l-3.349-3.349	c-0.645-0.645-1.69-0.645-2.335,0L19.484,39.832c-0.645,0.645-0.645,1.69,0,2.335l3.349,3.349	C23.477,46.161,24.523,46.161,25.168,45.516z"/><linearGradient id="YGGk5xCyNietrYbhNX6WKb" x1="11.984" x2="30.101" y1="2.622" y2="45.327" gradientUnits="userSpaceOnUse"><stop offset="0" stop-color="#32bdef"/><stop offset="1" stop-color="#1ea2e4"/></linearGradient><path fill="url(#YGGk5xCyNietrYbhNX6WKb)" d="M27,2h-6c-1.105,0-2,0.895-2,2v26.316l-6.333-6.333c-0.645-0.645-1.69-0.645-2.335,0 l-3.349,3.349c-0.645,0.645-0.645,1.69,0,2.335l15.849,15.849c0.645,0.645,1.69,0.645,2.335,0l3.349-3.349 C28.839,41.845,29,41.423,29,41V4C29,2.895,28.105,2,27,2z"/></svg>