<svg xmlns="http://www.w3.org/2000/svg" xmlns:xlink="http://www.w3.org/1999/xlink" viewBox="0 0 48 48" width="96px" height="96px"><defs><linearGradient id="p0leOTPLvuNkjL_fSa~qVa" x1="24" x2="24" y1="9.109" y2="13.568" data-name="Безымянный градиент 6" gradientUnits="userSpaceOnUse"><stop offset="0" stop-color="#0077d2"/><stop offset="1" stop-color="#0b59a2"/></linearGradient><linearGradient id="p0leOTPLvuNkjL_fSa~qVb" x1="4.5" x2="4.5" y1="26.717" y2="41.786" xlink:href="#p0leOTPLvuNkjL_fSa~qVa"/><linearGradient id="p0leOTPLvuNkjL_fSa~qVc" x1="43.5" x2="43.5" y1="26.717" y2="41.786" xlink:href="#p0leOTPLvuNkjL_fSa~qVa"/><linearGradient id="p0leOTPLvuNkjL_fSa~qVd" x1="16" x2="16" y1="25.054" y2="43.495" xlink:href="#p0leOTPLvuNkjL_fSa~qVa"/><linearGradient id="p0leOTPLvuNkjL_fSa~qVe" x1="32" x2="32" y1="25.054" y2="43.495" xlink:href="#p0leOTPLvuNkjL_fSa~qVa"/></defs><rect width="2" height="6" x="23" y="8" fill="url(#p0leOTPLvuNkjL_fSa~qVa)"/><path fill="url(#p0leOTPLvuNkjL_fSa~qVb)" d="M6,27H8a0,0,0,0,1,0,0V37a0,0,0,0,1,0,0H6a5,5,0,0,1-5-5v0A5,5,0,0,1,6,27Z"/><path fill="url(#p0leOTPLvuNkjL_fSa~qVc)" d="M40,27h2a5,5,0,0,1,5,5v0a5,5,0,0,1-5,5H40a0,0,0,0,1,0,0V27A0,0,0,0,1,40,27Z"/><path fill="#199be2" d="M24,13h0A18,18,0,0,1,42,31v8a2,2,0,0,1-2,2H8a2,2,0,0,1-2-2V31A18,18,0,0,1,24,13Z"/><circle cx="16" cy="31" r="6" fill="url(#p0leOTPLvuNkjL_fSa~qVd)"/><circle cx="32" cy="31" r="6" fill="url(#p0leOTPLvuNkjL_fSa~qVe)"/><circle cx="32" cy="31" r="4" fill="#50e6ff"/><circle cx="32" cy="31" r="2" fill="url(#p0leOTPLvuNkjL_fSa~qVe)"/><circle cx="16" cy="31" r="4" fill="#50e6ff"/><circle cx="16" cy="31" r="2" fill="url(#p0leOTPLvuNkjL_fSa~qVd)"/><circle cx="24" cy="8" r="2" fill="#199be2"/></svg>