<svg xmlns="http://www.w3.org/2000/svg"  viewBox="0 0 48 48" width="96px" height="96px"><linearGradient id="XED_QU6xiox5XDw0HU_eba" x1="20.958" x2="5.741" y1="26.758" y2="42.622" gradientUnits="userSpaceOnUse"><stop offset="0" stop-color="#e5a505"/><stop offset=".01" stop-color="#e9a804"/><stop offset=".06" stop-color="#f4b102"/><stop offset=".129" stop-color="#fbb600"/><stop offset=".323" stop-color="#fdb700"/></linearGradient><path fill="url(#XED_QU6xiox5XDw0HU_eba)" d="M12,41.5c0-1.381,1.119-2.5,2.5-2.5c0.156,0,0.307,0.019,0.454,0.046l1.186-1.186	C16.058,37.586,16,37.301,16,37c0-1.657,1.343-3,3-3c0.301,0,0.586,0.058,0.86,0.14L24,30l-6-6L4.586,37.414	C4.211,37.789,4,38.298,4,38.828v1.343c0,0.53,0.211,1.039,0.586,1.414l1.828,1.828C6.789,43.789,7.298,44,7.828,44h1.343	c0.53,0,1.039-0.211,1.414-0.586l1.46-1.46C12.019,41.807,12,41.656,12,41.5z"/><linearGradient id="XED_QU6xiox5XDw0HU_ebb" x1="21.64" x2="36.971" y1="7.073" y2="29.362" gradientUnits="userSpaceOnUse"><stop offset="0" stop-color="#fede00"/><stop offset="1" stop-color="#ffd000"/></linearGradient><path fill="url(#XED_QU6xiox5XDw0HU_ebb)" d="M29.5,5C22.044,5,16,11.044,16,18.5S22.044,32,29.5,32S43,25.956,43,18.5S36.956,5,29.5,5z M33,19c-2.209,0-4-1.791-4-4s1.791-4,4-4s4,1.791,4,4S35.209,19,33,19z"/></svg>