<svg xmlns="http://www.w3.org/2000/svg"  viewBox="0 0 48 48" width="96px" height="96px"><linearGradient id="5VgOgqi_6eF~SnlSy~llla" x1="16.197" x2="38.605" y1="45.133" y2="2.988" gradientTransform="matrix(1 0 0 -1 0 48)" gradientUnits="userSpaceOnUse"><stop offset="0" stop-color="#05acb3"/><stop offset="1" stop-color="#038387"/></linearGradient><path fill="url(#5VgOgqi_6eF~SnlSy~llla)" d="M42,10c-11.122,0-11.278-6-18-6s-6.878,6-18,6c-0.552,0-1,0.448-1,1c0,0,0,5.856,0,9	c0,1.378,0.178,2.712,0.493,4c2.936,12.007,18.08,19.907,18.08,19.907S23.784,44,24,44c0.203,0,0.427-0.093,0.427-0.093	s15.144-7.9,18.08-19.907C42.822,22.712,43,21.378,43,20c0-3.144,0-9,0-9C43,10.448,42.552,10,42,10z"/><path d="M14.931,28c-0.6,0-1.211-0.058-1.768-0.167	c-0.446-0.087-0.86-0.212-1.229-0.371c-0.54-0.23-0.891-0.771-0.891-1.375v-1.443c0-0.714,0.583-1.295,1.299-1.295	c0.262,0,0.516,0.078,0.733,0.226c0.517,0.349,0.979,0.442,1.132,0.473c0.231,0.048,0.443,0.071,0.65,0.071	c0.188,0,0.363-0.019,0.521-0.056c0.087-0.021,0.146-0.045,0.184-0.064c-0.034-0.016-0.093-0.072-0.207-0.156	c-0.309-0.216-0.742-0.405-1.201-0.604l-0.186-0.081c-0.947-0.412-1.677-0.939-2.168-1.568c-0.53-0.676-0.8-1.492-0.8-2.425	c-0.054-1.925,1.218-3.48,3.24-3.95C14.845,15.072,15.484,15,16.144,15c0.825,0,1.642,0.118,2.36,0.34	c0.616,0.189,1.047,0.78,1.047,1.437v1.014c0,0.823-0.67,1.493-1.494,1.493c-0.204,0-0.404-0.041-0.594-0.122	c-0.406-0.173-0.881-0.271-1.336-0.273c-0.32,0-0.548,0.057-0.657,0.107c0.124,0.103,0.387,0.249,0.513,0.318	c0.208,0.107,0.429,0.207,0.655,0.31c0.471,0.213,0.953,0.432,1.354,0.694c1.324,0.791,2.042,2.049,2.007,3.534	c0.064,1.949-1.26,3.554-3.293,3.966C16.181,27.936,15.563,28,14.931,28z" opacity=".05"/><path d="M14.931,27.5c-0.568,0-1.146-0.055-1.671-0.158	c-0.412-0.081-0.792-0.195-1.128-0.339c-0.356-0.152-0.588-0.512-0.588-0.916v-1.443c0-0.438,0.358-0.795,0.799-0.795	c0.162,0,0.318,0.048,0.453,0.14c0.601,0.406,1.137,0.514,1.313,0.549c0.268,0.055,0.513,0.081,0.749,0.081	c0.227,0,0.44-0.023,0.636-0.07c0.219-0.052,0.587-0.186,0.586-0.505c0-0.18-0.071-0.344-0.431-0.605	c-0.356-0.25-0.813-0.448-1.296-0.659l-0.186-0.081c-0.868-0.377-1.533-0.854-1.974-1.417c-0.46-0.586-0.693-1.299-0.693-2.117	c-0.047-1.685,1.073-3.05,2.854-3.463c0.567-0.133,1.17-0.201,1.789-0.201c0.775,0,1.541,0.11,2.213,0.318	c0.409,0.126,0.694,0.521,0.694,0.959v1.014c0,0.547-0.446,0.993-0.994,0.993c-0.136,0-0.271-0.028-0.397-0.082	c-0.466-0.199-1.009-0.31-1.529-0.313c-0.276,0-1.189,0.043-1.211,0.595c0.008,0.294,0.315,0.487,0.821,0.768	c0.229,0.118,0.457,0.222,0.691,0.328c0.45,0.204,0.916,0.415,1.286,0.657c1.174,0.702,1.812,1.807,1.78,3.103	c0.057,1.741-1.078,3.121-2.893,3.488C16.109,27.439,15.526,27.5,14.931,27.5z" opacity=".07"/><path fill="#fff" d="M12.33,26.544c-0.179-0.077-0.286-0.262-0.286-0.457v-1.443c0-0.242,0.271-0.377,0.471-0.242	c0.71,0.48,1.335,0.593,1.517,0.63c0.531,0.109,1.087,0.119,1.577,0.003c0.505-0.12,0.971-0.433,0.971-0.993	c0-0.455-0.281-0.749-0.636-1.008c-0.457-0.32-1.024-0.552-1.575-0.793c-0.796-0.346-1.391-0.769-1.781-1.268	c-0.392-0.499-0.587-1.102-0.587-1.809c-0.044-1.576,1.068-2.652,2.467-2.976c1.185-0.278,2.579-0.25,3.741,0.108	c0.207,0.064,0.342,0.265,0.342,0.481v1.014c0,0.36-0.365,0.592-0.696,0.451c-0.545-0.233-1.151-0.35-1.722-0.354	c-0.709,0.001-1.68,0.215-1.714,1.075c0.016,0.654,0.599,0.959,1.123,1.249c0.57,0.292,1.373,0.597,1.902,0.942	c0.964,0.576,1.583,1.473,1.554,2.672c0.052,1.629-1.04,2.716-2.493,3.01c-0.98,0.222-2.168,0.208-3.15,0.015	C12.975,26.777,12.633,26.675,12.33,26.544z"/><path d="M23.931,28c-0.6,0-1.211-0.058-1.768-0.167	c-0.446-0.087-0.86-0.212-1.229-0.371c-0.54-0.23-0.891-0.771-0.891-1.375v-1.443c0-0.714,0.583-1.295,1.299-1.295	c0.262,0,0.516,0.078,0.733,0.226c0.517,0.349,0.979,0.442,1.132,0.473c0.231,0.048,0.443,0.071,0.65,0.071	c0.188,0,0.363-0.019,0.521-0.056c0.087-0.021,0.146-0.045,0.184-0.064c-0.034-0.016-0.093-0.072-0.207-0.156	c-0.309-0.216-0.742-0.405-1.201-0.604l-0.186-0.081c-0.947-0.412-1.677-0.939-2.168-1.568c-0.53-0.676-0.8-1.492-0.8-2.425	c-0.054-1.925,1.218-3.48,3.24-3.95C23.845,15.072,24.484,15,25.144,15c0.825,0,1.642,0.118,2.36,0.34	c0.616,0.189,1.047,0.78,1.047,1.437v1.014c0,0.823-0.67,1.493-1.494,1.493c-0.204,0-0.404-0.041-0.594-0.122	c-0.406-0.173-0.881-0.271-1.336-0.273c-0.32,0-0.548,0.057-0.657,0.107c0.124,0.103,0.387,0.249,0.513,0.318	c0.208,0.107,0.429,0.207,0.655,0.31c0.471,0.213,0.953,0.432,1.354,0.694c1.324,0.791,2.042,2.049,2.007,3.534	c0.064,1.949-1.26,3.554-3.293,3.966C25.181,27.936,24.563,28,23.931,28z" opacity=".05"/><path d="M23.931,27.5c-0.568,0-1.146-0.055-1.671-0.158	c-0.412-0.081-0.792-0.195-1.128-0.339c-0.356-0.152-0.588-0.512-0.588-0.916v-1.443c0-0.438,0.358-0.795,0.799-0.795	c0.162,0,0.318,0.048,0.453,0.14c0.601,0.406,1.137,0.514,1.313,0.549c0.268,0.055,0.513,0.081,0.749,0.081	c0.227,0,0.44-0.023,0.636-0.07c0.219-0.052,0.587-0.186,0.586-0.505c0-0.18-0.071-0.344-0.431-0.605	c-0.356-0.25-0.813-0.448-1.296-0.659l-0.186-0.081c-0.868-0.377-1.533-0.854-1.974-1.417c-0.46-0.586-0.693-1.299-0.693-2.117	c-0.047-1.685,1.073-3.05,2.854-3.463c0.567-0.133,1.17-0.201,1.789-0.201c0.775,0,1.541,0.11,2.213,0.318	c0.409,0.126,0.694,0.521,0.694,0.959v1.014c0,0.547-0.446,0.993-0.994,0.993c-0.136,0-0.271-0.028-0.397-0.082	c-0.466-0.199-1.009-0.31-1.529-0.313c-0.276,0-1.189,0.043-1.211,0.595c0.008,0.294,0.315,0.487,0.821,0.768	c0.229,0.118,0.457,0.222,0.691,0.328c0.45,0.204,0.916,0.415,1.286,0.657c1.174,0.702,1.812,1.807,1.78,3.103	c0.057,1.741-1.078,3.121-2.893,3.488C25.109,27.439,24.526,27.5,23.931,27.5z" opacity=".07"/><path fill="#fff" d="M21.33,26.544c-0.179-0.077-0.286-0.262-0.286-0.457v-1.443c0-0.242,0.271-0.377,0.471-0.242	c0.71,0.48,1.335,0.593,1.517,0.63c0.531,0.109,1.087,0.119,1.577,0.003c0.505-0.12,0.971-0.433,0.971-0.993	c0-0.455-0.281-0.749-0.636-1.008c-0.457-0.32-1.024-0.552-1.575-0.793c-0.796-0.346-1.391-0.769-1.781-1.268	c-0.392-0.499-0.587-1.102-0.587-1.809c-0.044-1.576,1.068-2.652,2.467-2.976c1.185-0.278,2.579-0.25,3.741,0.108	c0.207,0.064,0.342,0.265,0.342,0.481v1.014c0,0.36-0.365,0.592-0.696,0.451c-0.545-0.233-1.151-0.35-1.722-0.354	c-0.709,0.001-1.68,0.215-1.714,1.075c0.016,0.654,0.599,0.959,1.123,1.249c0.57,0.292,1.373,0.597,1.902,0.942	c0.964,0.576,1.583,1.473,1.554,2.672c0.052,1.629-1.04,2.716-2.493,3.01c-0.98,0.222-2.168,0.208-3.15,0.015	C21.975,26.777,21.633,26.675,21.33,26.544z"/><path d="M30.5,28c-0.827,0-1.5-0.673-1.5-1.5v-10c0-0.827,0.673-1.5,1.5-1.5h1.269	c0.827,0,1.5,0.673,1.5,1.5v7.49H35.5c0.827,0,1.5,0.673,1.5,1.5v1.01c0,0.827-0.673,1.5-1.5,1.5H30.5z" opacity=".05"/><path d="M30.5,27.5c-0.552,0-1-0.449-1-1v-10c0-0.551,0.448-1,1-1h1.269	c0.552,0,1,0.449,1,1v7.99H35.5c0.552,0,1,0.449,1,1v1.01c0,0.551-0.448,1-1,1H30.5z" opacity=".07"/><path fill="#fff" d="M35.5,27h-5c-0.276,0-0.5-0.224-0.5-0.5v-10c0-0.276,0.224-0.5,0.5-0.5h1.269	c0.276,0,0.5,0.224,0.5,0.5v8.49H35.5c0.276,0,0.5,0.224,0.5,0.5v1.01C36,26.776,35.776,27,35.5,27z"/></svg>