<svg xmlns="http://www.w3.org/2000/svg"  viewBox="0 0 48 48" width="96px" height="96px"><linearGradient id="dyoR47AMqzPbkc_5POASHa" x1="9.858" x2="38.142" y1="-27.858" y2="-56.142" gradientTransform="matrix(1 0 0 -1 0 -18)" gradientUnits="userSpaceOnUse"><stop offset="0" stop-color="#9dffce"/><stop offset="1" stop-color="#50d18d"/></linearGradient><path fill="url(#dyoR47AMqzPbkc_5POASHa)" d="M44,24c0,11.045-8.955,20-20,20S4,35.045,4,24S12.955,4,24,4S44,12.955,44,24z"/><path d="M34,21h-7v-7c0-1.105-0.895-2-2-2h-2c-1.105,0-2,0.895-2,2v7h-7	c-1.105,0-2,0.895-2,2v2c0,1.105,0.895,2,2,2h7v7c0,1.105,0.895,2,2,2h2c1.105,0,2-0.895,2-2v-7h7c1.105,0,2-0.895,2-2v-2	C36,21.895,35.105,21,34,21z" opacity=".05"/><path d="M34,21.5h-7.5V14c0-0.828-0.672-1.5-1.5-1.5h-2	c-0.828,0-1.5,0.672-1.5,1.5v7.5H14c-0.828,0-1.5,0.672-1.5,1.5v2c0,0.828,0.672,1.5,1.5,1.5h7.5V34c0,0.828,0.672,1.5,1.5,1.5h2	c0.828,0,1.5-0.672,1.5-1.5v-7.5H34c0.828,0,1.5-0.672,1.5-1.5v-2C35.5,22.172,34.828,21.5,34,21.5z" opacity=".07"/><linearGradient id="dyoR47AMqzPbkc_5POASHb" x1="22" x2="26" y1="24" y2="24" gradientUnits="userSpaceOnUse"><stop offset=".824" stop-color="#135d36"/><stop offset=".931" stop-color="#125933"/><stop offset="1" stop-color="#11522f"/></linearGradient><path fill="url(#dyoR47AMqzPbkc_5POASHb)" d="M23,13h2c0.552,0,1,0.448,1,1v20c0,0.552-0.448,1-1,1h-2c-0.552,0-1-0.448-1-1V14	C22,13.448,22.448,13,23,13z"/><linearGradient id="dyoR47AMqzPbkc_5POASHc" x1="13" x2="35" y1="24" y2="24" gradientUnits="userSpaceOnUse"><stop offset=".824" stop-color="#135d36"/><stop offset=".931" stop-color="#125933"/><stop offset="1" stop-color="#11522f"/></linearGradient><path fill="url(#dyoR47AMqzPbkc_5POASHc)" d="M35,23v2c0,0.552-0.448,1-1,1H14c-0.552,0-1-0.448-1-1v-2c0-0.552,0.448-1,1-1h20	C34.552,22,35,22.448,35,23z"/></svg>