<svg xmlns="http://www.w3.org/2000/svg"  viewBox="0 0 48 48" width="96px" height="96px"><linearGradient id="OhW_8EWeW2cETtZ_QU~4ka" x1="24" x2="24" y1="6.121" y2="42.039" gradientUnits="userSpaceOnUse"><stop offset="0" stop-color="#33bef0"/><stop offset="1" stop-color="#0a85d9"/></linearGradient><path fill="url(#OhW_8EWeW2cETtZ_QU~4ka)" d="M40,42H8c-1.1,0-2-0.9-2-2V8c0-1.1,0.9-2,2-2h32c1.1,0,2,0.9,2,2v32C42,41.1,41.1,42,40,42z"/><path d="M37.02,20.243V19.5c0-0.827-0.673-1.5-1.5-1.5h-2.927c-0.827,0-1.5,0.673-1.5,1.5v0.529	C30.513,18.94,29.296,18,26.809,18H23.78c-0.827,0-1.5,0.673-1.5,1.5v7.729l-2.929-8.234C19.139,18.4,18.571,18,17.939,18h-1.969	c-0.627,0-1.193,0.396-1.409,0.987l-3.336,9.164c-0.154,0.422-0.093,0.893,0.165,1.261C11.647,29.78,12.069,30,12.519,30h1.537	c0.658,0,1.233-0.421,1.43-1.047l0.373-1.177h2.094l0.378,1.183C18.53,29.581,19.104,30,19.759,30h1.557	c0.446,0,0.866-0.218,1.124-0.582c0.029-0.041,0.046-0.087,0.07-0.13C22.775,29.714,23.243,30,23.78,30h1.252	c0.827,0,1.5-0.673,1.5-1.5v-1.945h0.074c1.449,0,2.643-0.395,3.549-1.172c0.95-0.816,1.433-1.892,1.433-3.196	c0-0.281-0.021-0.597-0.078-0.925c0.122,0.13,0.259,0.246,0.42,0.326v4.823c-0.495,0.245-0.837,0.756-0.837,1.345V28.5	c0,0.827,0.673,1.5,1.5,1.5h2.927c0.827,0,1.5-0.673,1.5-1.5v-0.743c0-0.589-0.342-1.1-0.837-1.345v-4.823	C36.678,21.343,37.02,20.833,37.02,20.243z M27.217,22.271c0,0.33,0,0.553-0.685,0.574v-1.114	C27.217,21.751,27.217,21.961,27.217,22.271z" opacity=".05"/><path d="M18.881,19.164c-0.142-0.397-0.521-0.664-0.941-0.664h-1.969c-0.418,0-0.796,0.264-0.939,0.658	l-3.336,9.165c-0.098,0.269-0.059,0.568,0.104,0.803c0.164,0.234,0.433,0.374,0.719,0.374h1.537c0.438,0,0.822-0.281,0.953-0.698	l0.483-1.526h2.825l0.488,1.53c0.134,0.416,0.517,0.695,0.953,0.695h1.557c0.284,0,0.552-0.139,0.716-0.371	c0.164-0.232,0.205-0.531,0.109-0.799L18.881,19.164z M17.481,24.546h-1.188l0.596-1.856L17.481,24.546z" opacity=".07"/><path d="M26.809,18.5H23.78c-0.552,0-1,0.449-1,1v9c0,0.551,0.448,1,1,1h1.252c0.552,0,1-0.449,1-1v-2.445	h0.574c1.326,0,2.41-0.354,3.224-1.052c0.835-0.717,1.258-1.665,1.258-2.816C31.088,20.505,30.346,18.5,26.809,18.5z M27.717,22.271	c0,0.559-0.157,1.076-1.299,1.076h-0.386v-2.117h0.386C27.56,21.229,27.717,21.73,27.717,22.271z" opacity=".07"/><path d="M36.52,20.243V19.5c0-0.551-0.448-1-1-1h-2.927c-0.552,0-1,0.449-1,1v0.743	c0,0.496,0.363,0.909,0.837,0.987v5.54c-0.474,0.078-0.837,0.491-0.837,0.987V28.5c0,0.551,0.448,1,1,1h2.927c0.552,0,1-0.449,1-1	v-0.743c0-0.496-0.363-0.909-0.837-0.987v-5.54C36.156,21.152,36.52,20.739,36.52,20.243z M36.019,19.5L36.019,19.5L36.019,19.5	L36.019,19.5z" opacity=".07"/><path fill="#fff" d="M21.315,29h-1.557c-0.217,0-0.41-0.141-0.476-0.348l-0.6-1.877h-3.556l-0.594,1.875 C14.466,28.859,14.273,29,14.055,29h-1.537c-0.261,0-0.443-0.26-0.354-0.505l3.337-9.166c0.072-0.198,0.26-0.329,0.47-0.329h1.968 c0.212,0,0.4,0.133,0.471,0.332l3.26,9.165C21.757,28.743,21.575,29,21.315,29z M18.166,25.046l-1.074-3.361 c-0.079-0.251-0.135-0.551-0.167-0.9h-0.056c-0.023,0.293-0.081,0.583-0.174,0.872l-1.088,3.389H18.166z"/><path fill="#fff" d="M25.532,25.555V28.5c0,0.276-0.224,0.5-0.5,0.5H23.78c-0.276,0-0.5-0.224-0.5-0.5v-9 c0-0.276,0.224-0.5,0.5-0.5h3.029c2.52,0,3.78,1.062,3.78,3.187c0,1.004-0.361,1.817-1.084,2.437s-1.689,0.931-2.897,0.931H25.532z M25.532,20.729v3.117h0.886c1.199,0,1.799-0.525,1.799-1.576c0-1.027-0.6-1.541-1.799-1.541H25.532z"/><path fill="#fff" d="M36.019,19.5v0.743c0,0.276-0.224,0.5-0.5,0.5h-0.337v6.513h0.337c0.276,0,0.5,0.224,0.5,0.5V28.5 c0,0.276-0.224,0.5-0.5,0.5h-2.926c-0.276,0-0.5-0.224-0.5-0.5v-0.743c0-0.276,0.224-0.5,0.5-0.5h0.337v-6.513h-0.337 c-0.276,0-0.5-0.224-0.5-0.5V19.5c0-0.276,0.224-0.5,0.5-0.5h2.926C35.795,19,36.019,19.224,36.019,19.5z"/></svg>