<svg xmlns="http://www.w3.org/2000/svg"  viewBox="0 0 48 48" width="96px" height="96px"><linearGradient id="Nc0B9TSPkzHlq4dNHwoWda" x1="7.793" x2="23.566" y1="8.207" y2="23.98" gradientUnits="userSpaceOnUse"><stop offset="0" stop-color="#7dd8f3"/><stop offset="1" stop-color="#45b0d0"/></linearGradient><path fill="url(#Nc0B9TSPkzHlq4dNHwoWda)" d="M5,10h26v18H7c-1.105,0-2-0.895-2-2V10z"/><linearGradient id="Nc0B9TSPkzHlq4dNHwoWdb" x1="5" x2="31" y1="8" y2="8" gradientUnits="userSpaceOnUse"><stop offset="0" stop-color="#0077d2"/><stop offset="1" stop-color="#0b59a2"/></linearGradient><path fill="url(#Nc0B9TSPkzHlq4dNHwoWdb)" d="M31,10V8c0-1.105-0.895-2-2-2H7C5.895,6,5,6.895,5,8v2H31z"/><linearGradient id="Nc0B9TSPkzHlq4dNHwoWdc" x1="12.5" x2="12.5" y1="15" y2="24.438" gradientUnits="userSpaceOnUse"><stop offset="0" stop-color="#199ae0"/><stop offset="1" stop-color="#0782d8"/></linearGradient><path fill="url(#Nc0B9TSPkzHlq4dNHwoWdc)" d="M15,23h-5c-0.552,0-1-0.448-1-1v-6c0-0.552,0.448-1,1-1h5c0.552,0,1,0.448,1,1v6 C16,22.552,15.552,23,15,23z"/><linearGradient id="Nc0B9TSPkzHlq4dNHwoWdd" x1="23.5" x2="23.5" y1="15" y2="24.438" gradientUnits="userSpaceOnUse"><stop offset="0" stop-color="#199ae0"/><stop offset="1" stop-color="#0782d8"/></linearGradient><path fill="url(#Nc0B9TSPkzHlq4dNHwoWdd)" d="M26,23h-5c-0.552,0-1-0.448-1-1v-6c0-0.552,0.448-1,1-1h5c0.552,0,1,0.448,1,1v6 C27,22.552,26.552,23,26,23z"/><path d="M31,28v-9H19c-1.654,0-3,1.346-3,3v6H31z" opacity=".05"/><path d="M31,28v-8.5H19c-1.378,0-2.5,1.122-2.5,2.5v6H31z" opacity=".07"/><linearGradient id="Nc0B9TSPkzHlq4dNHwoWde" x1="17" x2="43" y1="33" y2="33" gradientUnits="userSpaceOnUse"><stop offset="0" stop-color="#9dffce"/><stop offset="1" stop-color="#50d18d"/></linearGradient><path fill="url(#Nc0B9TSPkzHlq4dNHwoWde)" d="M17,24h26v16c0,1.105-0.895,2-2,2H19c-1.105,0-2-0.895-2-2V24z"/><linearGradient id="Nc0B9TSPkzHlq4dNHwoWdf" x1="17" x2="43" y1="22" y2="22" gradientUnits="userSpaceOnUse"><stop offset="0" stop-color="#21ad64"/><stop offset="1" stop-color="#088242"/></linearGradient><path fill="url(#Nc0B9TSPkzHlq4dNHwoWdf)" d="M43,24v-2c0-1.105-0.895-2-2-2H19c-1.105,0-2,0.895-2,2v2H43z"/><g><linearGradient id="Nc0B9TSPkzHlq4dNHwoWdg" x1="21" x2="28" y1="33" y2="33" gradientUnits="userSpaceOnUse"><stop offset=".824" stop-color="#135d36"/><stop offset=".931" stop-color="#125933"/><stop offset="1" stop-color="#11522f"/></linearGradient><path fill="url(#Nc0B9TSPkzHlq4dNHwoWdg)" d="M27,37h-5c-0.552,0-1-0.448-1-1v-6c0-0.552,0.448-1,1-1h5c0.552,0,1,0.448,1,1v6 C28,36.552,27.552,37,27,37z"/><linearGradient id="Nc0B9TSPkzHlq4dNHwoWdh" x1="32" x2="39" y1="33" y2="33" gradientUnits="userSpaceOnUse"><stop offset=".824" stop-color="#135d36"/><stop offset=".931" stop-color="#125933"/><stop offset="1" stop-color="#11522f"/></linearGradient><path fill="url(#Nc0B9TSPkzHlq4dNHwoWdh)" d="M38,37h-5c-0.552,0-1-0.448-1-1v-6c0-0.552,0.448-1,1-1h5c0.552,0,1,0.448,1,1v6 C39,36.552,38.552,37,38,37z"/></g></svg>