<svg xmlns="http://www.w3.org/2000/svg"  viewBox="0 0 48 48" width="96px" height="96px"><linearGradient id="g6m9hEw6~hyGkm4KdOogNa" x1="16.86" x2="29.576" y1="1.533" y2="41.546" gradientUnits="userSpaceOnUse"><stop offset="0" stop-color="#c77740"/><stop offset="1" stop-color="#b0622b"/></linearGradient><path fill="url(#g6m9hEw6~hyGkm4KdOogNa)" d="M38,4H26c0,1.105-0.895,2-2,2s-2-0.895-2-2H10C8.895,4,8,4.895,8,6v36c0,1.105,0.895,2,2,2h28	c1.105,0,2-0.895,2-2V6C40,4.895,39.105,4,38,4z"/><linearGradient id="g6m9hEw6~hyGkm4KdOogNb" x1="24" x2="24" y1="36.966" y2="40.893" gradientUnits="userSpaceOnUse"><stop offset=".442" stop-color="#878786"/><stop offset=".594" stop-color="#9f9f9e"/><stop offset=".859" stop-color="#c3c3c3"/><stop offset="1" stop-color="#d1d1d1"/></linearGradient><path fill="url(#g6m9hEw6~hyGkm4KdOogNb)" d="M37,42H11c-0.552,0-1-0.448-1-1v-9h28v9C38,41.552,37.552,42,37,42z"/><path fill="#f3f3f3" d="M37,40H11c-0.552,0-1-0.448-1-1V7c0-0.552,0.448-1,1-1h26c0.552,0,1,0.448,1,1v32	C38,39.552,37.552,40,37,40z"/><linearGradient id="g6m9hEw6~hyGkm4KdOogNc" x1="-384.93" x2="-383.046" y1="275.072" y2="282.909" gradientTransform="rotate(180 -180 142.5)" gradientUnits="userSpaceOnUse"><stop offset="0" stop-color="#c3cdd9"/><stop offset="1" stop-color="#9fa7b0"/></linearGradient><path fill="url(#g6m9hEw6~hyGkm4KdOogNc)" d="M31,8V4h-4.184C26.403,2.837,25.304,2,24,2s-2.403,0.837-2.816,2H17v4c0,0.552,0.448,1,1,1h12	C30.552,9,31,8.552,31,8z M24,4c0.552,0,1,0.448,1,1c0,0.552-0.448,1-1,1s-1-0.448-1-1C23,4.448,23.448,4,24,4z"/><linearGradient id="g6m9hEw6~hyGkm4KdOogNd" x1="15" x2="34" y1="25.038" y2="25.038" gradientUnits="userSpaceOnUse"><stop offset="0" stop-color="#3079d6"/><stop offset="1" stop-color="#297cd2"/></linearGradient><path fill="url(#g6m9hEw6~hyGkm4KdOogNd)" d="M21.594,31.74l-6.333-6.333c-0.347-0.347-0.347-0.91,0-1.257l1.257-1.257	c0.347-0.347,0.91-0.347,1.257,0l4.448,4.448l9.004-9.004c0.347-0.347,0.91-0.347,1.257,0l1.257,1.257	c0.347,0.347,0.347,0.91,0,1.257L22.851,31.74C22.504,32.087,21.941,32.087,21.594,31.74z"/></svg>