<svg xmlns="http://www.w3.org/2000/svg"  viewBox="0 0 48 48" width="96px" height="96px"><linearGradient id="Gx4Hql1L2mKhvP9291EBWa" x1="19.53" x2="28.032" y1="12.426" y2="32.179" gradientUnits="userSpaceOnUse"><stop offset="0" stop-color="#32bdef"/><stop offset="1" stop-color="#1ea2e4"/></linearGradient><path fill="url(#Gx4Hql1L2mKhvP9291EBWa)" d="M31.19,22H27v-8c0-0.552-0.448-1-1-1h-4c-0.552,0-1,0.448-1,1v8h-4.19	c-0.72,0-1.08,0.87-0.571,1.379l6.701,6.701c0.586,0.586,1.536,0.586,2.121,0l6.701-6.701C32.271,22.87,31.91,22,31.19,22z"/><linearGradient id="Gx4Hql1L2mKhvP9291EBWb" x1="39.761" x2="43.605" y1="31.57" y2="42.462" gradientUnits="userSpaceOnUse"><stop offset="0" stop-color="#32bdef"/><stop offset="1" stop-color="#1ea2e4"/></linearGradient><path fill="url(#Gx4Hql1L2mKhvP9291EBWb)" d="M39,33v10l4.828-4.828c0.75-0.75,1.172-1.768,1.172-2.828V33c0-0.552-0.448-1-1-1h-4	C39.448,32,39,32.448,39,33z"/><linearGradient id="Gx4Hql1L2mKhvP9291EBWc" x1="9" x2="39" y1="40" y2="40" gradientUnits="userSpaceOnUse"><stop offset="0" stop-color="#0362b0"/><stop offset=".112" stop-color="#036abd"/><stop offset=".258" stop-color="#036fc5"/><stop offset=".5" stop-color="#0370c8"/><stop offset=".742" stop-color="#036fc5"/><stop offset=".888" stop-color="#036abd"/><stop offset="1" stop-color="#0362b0"/></linearGradient><rect width="30" height="6" x="9" y="37" fill="url(#Gx4Hql1L2mKhvP9291EBWc)"/><linearGradient id="Gx4Hql1L2mKhvP9291EBWd" x1="332.761" x2="336.605" y1="31.57" y2="42.462" gradientTransform="matrix(-1 0 0 1 341 0)" gradientUnits="userSpaceOnUse"><stop offset="0" stop-color="#32bdef"/><stop offset="1" stop-color="#1ea2e4"/></linearGradient><path fill="url(#Gx4Hql1L2mKhvP9291EBWd)" d="M9,33v10l-4.828-4.828C3.421,37.421,3,36.404,3,35.343V33c0-0.552,0.448-1,1-1h4	C8.552,32,9,32.448,9,33z"/><linearGradient id="Gx4Hql1L2mKhvP9291EBWe" x1="23.174" x2="24.956" y1="4.081" y2="8.222" gradientUnits="userSpaceOnUse"><stop offset="0" stop-color="#32bdef"/><stop offset="1" stop-color="#1ea2e4"/></linearGradient><path fill="url(#Gx4Hql1L2mKhvP9291EBWe)" d="M26,7h-4c-0.552,0-1-0.448-1-1v0c0-0.552,0.448-1,1-1h4c0.552,0,1,0.448,1,1v0	C27,6.552,26.552,7,26,7z"/><linearGradient id="Gx4Hql1L2mKhvP9291EBWf" x1="23.174" x2="24.956" y1="8.081" y2="12.222" gradientUnits="userSpaceOnUse"><stop offset="0" stop-color="#32bdef"/><stop offset="1" stop-color="#1ea2e4"/></linearGradient><path fill="url(#Gx4Hql1L2mKhvP9291EBWf)" d="M26,11h-4c-0.552,0-1-0.448-1-1v0c0-0.552,0.448-1,1-1h4c0.552,0,1,0.448,1,1v0	C27,10.552,26.552,11,26,11z"/></svg>