<svg xmlns="http://www.w3.org/2000/svg"  viewBox="0 0 40 40" width="80px" height="80px"><path fill="#dff0fe" d="M1.5 34.5H38.5V38.5H1.5z"/><path fill="#4788c7" d="M38,35v3H2v-3H38 M39,34H1v5h38V34L39,34z"/><path fill="#dff0fe" d="M26.5 31.5L26.5 9.5 23.022 9.5 29 1.814 34.978 9.5 31.5 9.5 31.5 31.5z"/><path fill="#4788c7" d="M29,2.629L33.955,9H32h-1v1v21h-4V10V9h-1h-1.955L29,2.629 M29,1l-7,9h4v22h6V10h4L29,1L29,1z"/><g><path fill="#dff0fe" d="M8.5 31.5L8.5 9.5 5.022 9.5 11 1.814 16.978 9.5 13.5 9.5 13.5 31.5z"/><path fill="#4788c7" d="M11,2.629L15.955,9H14h-1v1v21H9V10V9H8H6.045L11,2.629 M11,1l-7,9h4v22h6V10h4L11,1L11,1z"/></g></svg>