<svg xmlns="http://www.w3.org/2000/svg"  viewBox="0 0 40 40" width="80px" height="80px"><path fill="#4788c7" d="M7 19H13V20H7z"/><path fill="#4788c7" d="M7 14H18V15H7z" transform="rotate(-90 12.5 14.5)"/><path fill="#4788c7" d="M7 25H18V26H7z" transform="rotate(-90 12.5 25.5)"/><path fill="#4788c7" d="M24 9H33V10H24z" transform="rotate(-90 28.5 9.5)"/><path fill="#4788c7" d="M12 9H28V10H12zM28 5H38V6H28zM28 13H38V14H28z"/><path fill="#4788c7" d="M24 30H33V31H24z" transform="rotate(-90 28.5 30.5)"/><path fill="#4788c7" d="M13 30H28V31H13zM28 26H38V27H28zM28 34H38V35H28z"/><path fill="#98ccfd" d="M16.5 5.5H24.5V13.5H16.5z"/><path fill="#4788c7" d="M24,6v7h-7V6H24 M25,5h-9v9h9V5L25,5z"/><path fill="#98ccfd" d="M32.5 2.5H38.5V8.5H32.5z"/><path fill="#4788c7" d="M38,3v5h-5V3H38 M39,2h-7v7h7V2L39,2z"/><path fill="#98ccfd" d="M32.5 10.5H38.5V16.5H32.5z"/><path fill="#4788c7" d="M38,11v5h-5v-5H38 M39,10h-7v7h7V10L39,10z"/><path fill="#98ccfd" d="M16.5 26.5H24.5V34.5H16.5z"/><path fill="#4788c7" d="M24,27v7h-7v-7H24 M25,26h-9v9h9V26L25,26z"/><g><path fill="#98ccfd" d="M32.5 23.5H38.5V29.5H32.5z"/><path fill="#4788c7" d="M38,24v5h-5v-5H38 M39,23h-7v7h7V23L39,23z"/></g><g><path fill="#98ccfd" d="M32.5 31.5H38.5V37.5H32.5z"/><path fill="#4788c7" d="M38,32v5h-5v-5H38 M39,31h-7v7h7V31L39,31z"/></g><g><path fill="#dff0fe" d="M1.5 15.5H9.5V23.5H1.5z"/><path fill="#4788c7" d="M9,16v7H2v-7H9 M10,15H1v9h9V15L10,15z"/></g></svg>