<svg xmlns="http://www.w3.org/2000/svg"  viewBox="0 0 40 40" width="80px" height="80px"><path fill="#98ccfd" d="M0.5 2.5H39.5V19.5H0.5z"/><path fill="#4788c7" d="M39,3v16H1V3H39 M40,2H0v18h40V2L40,2z"/><path fill="#fff" d="M18 11c0 1.133-.867 2-2 2s-2-.867-2-2 .867-2 2-2S18 9.867 18 11zM8 9c-1.133 0-2 .867-2 2s.867 2 2 2 2-.867 2-2S9.133 9 8 9zM32 9c-1.133 0-2 .867-2 2s.867 2 2 2c1.133 0 2-.867 2-2S33.133 9 32 9zM24 9c-1.133 0-2 .867-2 2s.867 2 2 2 2-.867 2-2S25.133 9 24 9z"/><g><path fill="#dff0fe" d="M20,37.5c-4.136,0-7.5-3.364-7.5-7.5s3.364-7.5,7.5-7.5c1.752,0,3.459,0.624,4.805,1.756 l0.352,0.295l2.344-2.344V28.5h-6.293l1.838-1.838L22.56,26.32C21.8,25.784,20.914,25.5,20,25.5c-2.481,0-4.5,2.019-4.5,4.5 s2.019,4.5,4.5,4.5c1.911,0,3.598-1.215,4.228-3h3.115C26.642,34.958,23.579,37.5,20,37.5z"/><path fill="#4788c7" d="M20,23c1.634,0,3.226,0.582,4.484,1.638l0.702,0.59l0.648-0.648L27,23.414V28h-4.586l0.565-0.564 l0.84-0.84l-0.97-0.685C22.003,25.315,21.018,25,20,25c-2.757,0-5,2.243-5,5s2.243,5,5,5c2.003,0,3.784-1.201,4.568-3h2.135 c-0.867,2.917-3.573,5-6.703,5c-3.86,0-7-3.14-7-7S16.14,23,20,23 M28,21l-2.873,2.873C23.74,22.707,21.955,22,20,22 c-4.418,0-8,3.582-8,8s3.582,8,8,8c4.079,0,7.438-3.055,7.931-7h-4.072c-0.446,1.722-1.997,3-3.859,3c-2.209,0-4-1.791-4-4 c0-2.209,1.791-4,4-4c0.85,0,1.628,0.274,2.272,0.728L20,29h8V21L28,21z"/></g></svg>