<svg xmlns="http://www.w3.org/2000/svg"  viewBox="0 0 40 40" width="40px" height="40px"><path fill="#dff0fe" d="M36.62,28.775c-0.879,1.901-1.299,2.751-2.427,4.428c-1.576,2.346-3.803,5.273-6.555,5.294 c-2.446,0.019-3.131-1.022-6.451-0.997c-3.32,0.017-3.96,1.026-6.41,0.999c-2.75-0.023-4.857-2.661-6.434-5 C5.759,29.652,4.529,25.419,4.5,21.749c-0.02-2.598,0.562-4.914,1.692-6.612c1.928-2.904,4.981-4.61,7.846-4.61 c2.919,0,4.754,1.91,7.166,1.91c2.344,0,3.769-1.913,7.145-1.913c2.553,0,5.253,1.36,7.181,3.704 C29.462,17.479,30.595,26.546,36.62,28.775z"/><path fill="#4788c7" d="M14.873,38.999c-0.002,0-0.1,0-0.102,0c-2.945-0.024-5.112-2.653-6.844-5.221 C5.426,30.053,4.031,25.783,4,21.753c-0.021-2.731,0.593-5.115,1.776-6.893c1.979-2.981,5.144-4.833,8.261-4.833 c1.631,0,2.958,0.565,4.129,1.063c1.023,0.436,1.99,0.847,3.037,0.847c0.958,0,1.761-0.362,2.69-0.782 c1.175-0.53,2.506-1.131,4.455-1.131c2.735,0,5.564,1.453,7.567,3.887c0.096,0.116,0.134,0.268,0.104,0.415 c-0.028,0.147-0.122,0.273-0.254,0.344c-2.551,1.366-3.951,3.969-3.745,6.963c0.211,3.059,2.084,5.679,4.772,6.673 c0.131,0.048,0.235,0.149,0.288,0.278c0.054,0.129,0.051,0.274-0.008,0.401c-0.89,1.925-1.333,2.812-2.466,4.498 c-1.824,2.715-4.078,5.493-6.966,5.515c-0.001,0-0.002,0-0.002,0c-1.232,0-2.011-0.225-2.836-0.462 C23.894,38.271,22.95,38,21.309,38l-0.117,0c-1.695,0.008-2.644,0.28-3.561,0.543C16.813,38.777,16.039,38.999,14.873,38.999z M14.037,11.027c-2.786,0-5.632,1.681-7.428,4.386C5.536,17.025,4.98,19.214,5,21.745c0.029,3.836,1.364,7.911,3.758,11.474 c1.585,2.352,3.541,4.759,6.023,4.779l0.092,0.5v-0.5c1.025,0,1.7-0.193,2.482-0.417c0.937-0.269,1.998-0.572,3.829-0.582l0.124,0 c1.783,0,2.841,0.305,3.773,0.574c0.788,0.228,1.469,0.424,2.492,0.424c2.483-0.019,4.525-2.575,6.204-5.073 c1.002-1.492,1.429-2.301,2.168-3.886c-2.787-1.256-4.698-4.078-4.923-7.338c-0.219-3.182,1.168-5.979,3.733-7.6 c-1.779-1.936-4.137-3.077-6.408-3.077c-1.734,0-2.908,0.53-4.044,1.042c-0.991,0.448-1.929,0.871-3.102,0.871 c-1.251,0-2.357-0.471-3.429-0.927C16.639,11.527,15.464,11.027,14.037,11.027z"/><g><path fill="#dff0fe" d="M26.342,7.491c1.313-1.634,2.452-3.641,2.09-5.991c-2.141,0.143-4.789,1.169-6.252,2.886 c-1.326,1.565-1.977,3.865-1.549,6.114C22.968,10.571,24.938,9.245,26.342,7.491z"/><path fill="#4788c7" d="M20.811,11.003L20.811,11.003L20.615,11c-0.233-0.007-0.432-0.176-0.476-0.406 c-0.439-2.303,0.196-4.806,1.658-6.531c1.637-1.92,4.494-2.921,6.601-3.062c0.26-0.015,0.487,0.167,0.527,0.423 c0.424,2.746-1.05,4.957-2.194,6.381C25.08,9.867,22.977,11.003,20.811,11.003z M27.989,2.046 c-1.791,0.232-4.111,1.118-5.429,2.665c-1.186,1.398-1.745,3.391-1.504,5.287c1.771-0.084,3.501-1.078,4.895-2.818 C27.44,5.327,28.096,3.682,27.989,2.046z"/></g></svg>