<svg xmlns="http://www.w3.org/2000/svg"  viewBox="0 0 40 40" width="80px" height="80px"><path fill="#dff0fe" d="M5.5,5.5h29c1.657,0,3,1.343,3,3v23c0,1.657-1.343,3-3,3h-29c-1.657,0-3-1.343-3-3v-23 C2.5,6.843,3.843,5.5,5.5,5.5z"/><path fill="#4788c7" d="M34.5,35h-29C3.57,35,2,33.43,2,31.5v-23C2,6.57,3.57,5,5.5,5h29C36.43,5,38,6.57,38,8.5v23 C38,33.43,36.43,35,34.5,35z M5.5,6C4.121,6,3,7.121,3,8.5v23C3,32.879,4.121,34,5.5,34h29c1.379,0,2.5-1.121,2.5-2.5v-23 C37,7.121,35.879,6,34.5,6H5.5z"/><path fill="#98ccfd" d="M18.5,26.713V21.5h-8v-3h8v-5.213L25.146,20L18.5,26.713z"/><path fill="#98ccfd" d="M18,27.93V22h-8v-4h8v-5.93L25.85,20L18,27.93z M11,21h8v4.498L24.443,20L19,14.502V19h-8V21z"/><g><path fill="#98ccfd" d="M27.5,5.5h7c1.657,0,3,1.343,3,3v23c0,1.657-1.343,3-3,3h-7V5.5z"/><path fill="#4788c7" d="M34.5,35H27V5h7.5C36.43,5,38,6.57,38,8.5v23C38,33.43,36.43,35,34.5,35z M28,34h6.5 c1.379,0,2.5-1.121,2.5-2.5v-23C37,7.121,35.879,6,34.5,6H28V34z"/></g></svg>