<svg xmlns="http://www.w3.org/2000/svg"  viewBox="0 0 40 40" width="80px" height="80px"><path fill="#dff0fe" d="M2.5 2.5H37.5V37.5H2.5z"/><path fill="#4788c7" d="M37,3v34H3V3H37 M38,2H2v36h36V2L38,2z"/><path fill="#b6dcfe" d="M9 14.5A2.5 2.5 0 1 0 9 19.5A2.5 2.5 0 1 0 9 14.5Z"/><path fill="#4788c7" d="M9,15c1.103,0,2,0.897,2,2s-0.897,2-2,2s-2-0.897-2-2S7.897,15,9,15 M9,14c-1.657,0-3,1.343-3,3 s1.343,3,3,3s3-1.343,3-3S10.657,14,9,14L9,14z"/><path fill="#98ccfd" d="M9 6.5A2.5 2.5 0 1 0 9 11.5A2.5 2.5 0 1 0 9 6.5Z"/><path fill="#4788c7" d="M9,7c1.103,0,2,0.897,2,2s-0.897,2-2,2s-2-0.897-2-2S7.897,7,9,7 M9,6C7.343,6,6,7.343,6,9 s1.343,3,3,3s3-1.343,3-3S10.657,6,9,6L9,6z"/><path fill="#98ccfd" d="M15.5 6.5H33.5V33.5H15.5z"/><path fill="#4788c7" d="M33,7v26H16V7H33 M34,6H15v28h19V6L34,6z"/><path fill="#4788c7" d="M27 6.308H28V34H27zM21 6H22V33.692H21z"/><path fill="#fff" d="M30.5 12L30.5 12c-.276 0-.5-.224-.5-.5v-2C30 9.224 30.224 9 30.5 9h0C30.776 9 31 9.224 31 9.5v2C31 11.776 30.776 12 30.5 12zM24.5 12L24.5 12c-.276 0-.5-.224-.5-.5v-2C24 9.224 24.224 9 24.5 9h0C24.776 9 25 9.224 25 9.5v2C25 11.776 24.776 12 24.5 12zM18.5 12L18.5 12c-.276 0-.5-.224-.5-.5v-2C18 9.224 18.224 9 18.5 9h0C18.776 9 19 9.224 19 9.5v2C19 11.776 18.776 12 18.5 12z"/></svg>