<svg xmlns="http://www.w3.org/2000/svg"  viewBox="0 0 40 40" width="80px" height="80px"><path fill="#b6dcfe" d="M37,29v-8c0,0,0-4-3-5c0,0,4-1,5,5v8H37z"/><path fill="#b6dcfe" d="M26,26c0,1.657,1.343,3,3,3v-6C27.343,23,26,24.343,26,26z"/><polygon fill="#b6dcfe" points="9,8 13,8 21,29.5 17,29.5"/><path fill="#4788c7" d="M21.469,29.325l-8-21.5C13.396,7.63,13.209,7.5,13,7.5H9c-0.001,0-0.003,0.001-0.004,0.001 C8.921,7.502,8.85,7.521,8.784,7.553C8.765,7.562,8.751,7.577,8.733,7.588C8.689,7.617,8.65,7.65,8.616,7.691 C8.609,7.701,8.597,7.705,8.59,7.715C8.581,7.728,8.581,7.744,8.573,7.757C8.562,7.778,8.544,7.794,8.535,7.816l-8.5,21.5 c-0.102,0.257,0.024,0.547,0.281,0.648C0.377,29.989,0.438,30,0.5,30c0.199,0,0.388-0.12,0.465-0.316L3.607,23H14 c0.016,0,0.029-0.008,0.044-0.009l2.487,6.684C16.604,29.87,16.791,30,17,30h4c0.164,0,0.317-0.08,0.41-0.215 C21.504,29.65,21.525,29.479,21.469,29.325z M4.003,22L8.986,9.396L13.676,22H4.003z M17.348,29L9.72,8.5h2.933L20.28,29H17.348z"/><path fill="#4788c7" d="M38.512,17.309c-1.107-1.354-3.235-2.852-7.082-2.304c-0.04,0.006-0.078,0.016-0.113,0.03 c-1.539,0.168-3.374,1.214-5.24,4.2c-0.146,0.233-0.075,0.542,0.159,0.688c0.232,0.146,0.542,0.076,0.688-0.159 c1.932-3.091,3.959-4.282,6.033-3.544c1.326,0.474,2.541,1.967,2.915,3.418C35.439,20.339,33.944,22,29.5,22 c-2.481,0-4.5,1.794-4.5,4s2.019,4,4.5,4c3.349,0,5.417-1.668,6.5-2.922V29.5c0,0.276,0.224,0.5,0.5,0.5h3 c0.276,0,0.5-0.224,0.5-0.5v-7.76C40,20.055,39.472,18.481,38.512,17.309z M26,26c0-1.509,1.306-2.761,3-2.97v5.939 C27.306,28.761,26,27.509,26,26z M30,28.976v-5.99c3.282-0.094,5.065-1.085,6-1.965v4.352C35.684,25.938,33.906,28.747,30,28.976z M39,29h-2v-8.5c0-1.604-0.979-3.368-2.329-4.439c1.248,0.284,2.274,0.912,3.067,1.881C38.552,18.937,39,20.285,39,21.74V29z"/></svg>