<svg xmlns="http://www.w3.org/2000/svg"  viewBox="0 0 40 40" width="80px" height="80px"><path fill="#dff0fe" d="M6 1H34V39H6z"/><path fill="none" stroke="#4788c7" stroke-linecap="round" stroke-miterlimit="10" d="M6.5 26.5L6.5 38.5 33.5 38.5 33.5 1.5 6.5 1.5 6.5 13.5"/><path fill="#98ccfd" d="M16.5 22.5L0.5 22.5 0.5 17.5 16.5 17.5 16.5 10.241 26.292 20 16.5 29.759z"/><path fill="#4788c7" d="M17,11.445L25.583,20L17,28.554V23v-1h-1H1v-4h15h1v-1V11.445 M16,9.037V17H0v6h16v7.963L27,20 L16,9.037L16,9.037z"/></svg>