<svg xmlns="http://www.w3.org/2000/svg"  viewBox="0 0 40 40" width="80px" height="80px"><path fill="#b6dcfe" d="M21,37.5c-9.649,0-17.5-7.851-17.5-17.5S11.351,2.5,21,2.5S38.5,10.351,38.5,20 S30.649,37.5,21,37.5z M21,7.5C14.107,7.5,8.5,13.107,8.5,20S14.107,32.5,21,32.5S33.5,26.893,33.5,20S27.893,7.5,21,7.5z"/><path fill="#4788c7" d="M21,3c9.374,0,17,7.626,17,17c0,9.374-7.626,17-17,17S4,29.374,4,20C4,10.626,11.626,3,21,3 M21,33 c7.168,0,13-5.832,13-13S28.168,7,21,7S8,12.832,8,20S13.832,33,21,33 M21,2C11.059,2,3,10.059,3,20s8.059,18,18,18 s18-8.059,18-18S30.941,2,21,2L21,2z M21,32c-6.627,0-12-5.373-12-12c0-6.627,5.373-12,12-12s12,5.373,12,12 C33,26.627,27.627,32,21,32L21,32z"/><path fill="#dff0fe" d="M29 2.5A5.5 5.5 0 1 0 29 13.5A5.5 5.5 0 1 0 29 2.5Z"/><path fill="#4788c7" d="M29,3c2.757,0,5,2.243,5,5s-2.243,5-5,5s-5-2.243-5-5S26.243,3,29,3 M29,2c-3.314,0-6,2.686-6,6 s2.686,6,6,6s6-2.686,6-6S32.314,2,29,2L29,2z"/><g><path fill="#dff0fe" d="M30 26.5A5.5 5.5 0 1 0 30 37.5A5.5 5.5 0 1 0 30 26.5Z"/><path fill="#4788c7" d="M30,27c2.757,0,5,2.243,5,5s-2.243,5-5,5s-5-2.243-5-5S27.243,27,30,27 M30,26 c-3.314,0-6,2.686-6,6s2.686,6,6,6s6-2.686,6-6S33.314,26,30,26L30,26z"/></g><g><path fill="#dff0fe" d="M7 14.5A5.5 5.5 0 1 0 7 25.5A5.5 5.5 0 1 0 7 14.5Z"/><path fill="#4788c7" d="M7,15c2.757,0,5,2.243,5,5s-2.243,5-5,5s-5-2.243-5-5S4.243,15,7,15 M7,14c-3.314,0-6,2.686-6,6 s2.686,6,6,6s6-2.686,6-6S10.314,14,7,14L7,14z"/></g></svg>