<svg xmlns="http://www.w3.org/2000/svg"  viewBox="0 0 40 40" width="80px" height="80px"><path fill="none" stroke="#4788c7" stroke-miterlimit="10" d="M19.5 13.5L19.5 4.5"/><path fill="#dff0fe" d="M19.5 1.5A3 3 0 1 0 19.5 7.5A3 3 0 1 0 19.5 1.5Z"/><path fill="#4788c7" d="M19.5,2C20.879,2,22,3.122,22,4.5S20.879,7,19.5,7S17,5.878,17,4.5S18.121,2,19.5,2 M19.5,1 C17.567,1,16,2.567,16,4.5S17.567,8,19.5,8S23,6.433,23,4.5S21.433,1,19.5,1L19.5,1z"/><path fill="#dff0fe" d="M19,38.5c-4.304,0-14.5-1.358-14.5-3.5v-8.139C4.5,19.077,11.141,12.5,19,12.5h1 c7.859,0,14.5,6.577,14.5,14.361V35c0,2.142-10.196,3.5-14.5,3.5H19z"/><path fill="#4788c7" d="M20,13c7.589,0,14,6.348,14,13.861V35c0,0.011-0.239,1.136-5.571,2.129 C25.202,37.73,21.558,38,20,38h-1c-1.558,0-5.202-0.27-8.429-0.871C5.239,36.136,5,35.011,5,35v-8.139C5,19.348,11.411,13,19,13H20 M20,12h-1c-8.154,0-15,6.707-15,14.861V35c0,2.965,12.035,4,15,4h1c2.965,0,15-1.035,15-4v-8.139C35,18.707,28.154,12,20,12L20,12 z"/><path fill="#fff" d="M12.5,30.5c-2.206,0-4-1.794-4-4s1.794-4,4-4h14c2.206,0,4,1.794,4,4s-1.794,4-4,4H12.5z"/><path fill="#4788c7" d="M26.5,23c1.93,0,3.5,1.57,3.5,3.5S28.43,30,26.5,30h-14C10.57,30,9,28.43,9,26.5s1.57-3.5,3.5-3.5 H26.5 M26.5,22h-14C10.025,22,8,24.025,8,26.5s2.025,4.5,4.5,4.5h14c2.475,0,4.5-2.025,4.5-4.5S28.975,22,26.5,22L26.5,22z"/><path fill="#98ccfd" d="M12.5 25.5A1 1 0 1 0 12.5 27.5A1 1 0 1 0 12.5 25.5Z"/><path fill="#4788c7" d="M12.5,26c0.276,0,0.5,0.224,0.5,0.5S12.776,27,12.5,27S12,26.776,12,26.5S12.224,26,12.5,26 M12.5,25c-0.828,0-1.5,0.672-1.5,1.5s0.672,1.5,1.5,1.5s1.5-0.672,1.5-1.5S13.328,25,12.5,25L12.5,25z"/><g><path fill="#98ccfd" d="M26.5 25.5A1 1 0 1 0 26.5 27.5A1 1 0 1 0 26.5 25.5Z"/><path fill="#4788c7" d="M26.5,26c0.276,0,0.5,0.224,0.5,0.5S26.776,27,26.5,27S26,26.776,26,26.5S26.224,26,26.5,26 M26.5,25c-0.828,0-1.5,0.672-1.5,1.5s0.672,1.5,1.5,1.5s1.5-0.672,1.5-1.5S27.328,25,26.5,25L26.5,25z"/></g><g><path fill="#dff0fe" d="M36,32.5c-0.827,0-1.5-0.673-1.5-1.5V19c0-0.827,0.673-1.5,1.5-1.5s1.5,0.673,1.5,1.5v12 C37.5,31.827,36.827,32.5,36,32.5z"/><path fill="#4788c7" d="M36,18c0.551,0,1,0.449,1,1v12c0,0.551-0.449,1-1,1s-1-0.449-1-1V19C35,18.449,35.449,18,36,18 M36,17c-1.105,0-2,0.895-2,2v12c0,1.105,0.895,2,2,2s2-0.895,2-2V19C38,17.895,37.105,17,36,17L36,17z"/></g><g><path fill="#dff0fe" d="M3,32.5c-0.827,0-1.5-0.673-1.5-1.5V19c0-0.827,0.673-1.5,1.5-1.5s1.5,0.673,1.5,1.5v12 C4.5,31.827,3.827,32.5,3,32.5z"/><path fill="#4788c7" d="M3,18c0.551,0,1,0.449,1,1v12c0,0.551-0.449,1-1,1s-1-0.449-1-1V19C2,18.449,2.449,18,3,18 M3,17 c-1.1,0-2,0.9-2,2v12c0,1.1,0.9,2,2,2s2-0.9,2-2V19C5,17.9,4.1,17,3,17L3,17z"/></g></svg>