<svg xmlns="http://www.w3.org/2000/svg"  viewBox="0 0 40 40" width="80px" height="80px"><path fill="#dff0fe" d="M28.5 1.5H31.5V38.5H28.5z"/><path fill="#4788c7" d="M31,2v36h-2V2H31 M32,1h-4v38h4V1L32,1z"/><path fill="#dff0fe" d="M23.5 1.5H26.5V38.5H23.5z"/><path fill="#4788c7" d="M26,2v36h-2V2H26 M27,1h-4v38h4V1L27,1z"/><path fill="#dff0fe" d="M18.5 1.5H21.5V38.5H18.5z"/><path fill="#4788c7" d="M21,2v36h-2V2H21 M22,1h-4v38h4V1L22,1z"/><path fill="#dff0fe" d="M13.5 1.5H16.5V38.5H13.5z"/><path fill="#4788c7" d="M16,2v36h-2V2H16 M17,1h-4v38h4V1L17,1z"/><path fill="#dff0fe" d="M8.5 1.5H11.5V38.5H8.5z"/><path fill="#4788c7" d="M11,2v36H9V2H11 M12,1H8v38h4V1L12,1z"/><path fill="#dff0fe" d="M1.5 28.5H38.5V31.5H1.5z"/><path fill="#4788c7" d="M38,29v2H2v-2H38 M39,28H1v4h38V28L39,28z"/><path fill="#dff0fe" d="M1.5 23.5H38.5V26.5H1.5z"/><path fill="#4788c7" d="M38,24v2H2v-2H38 M39,23H1v4h38V23L39,23z"/><path fill="#dff0fe" d="M1.5 18.5H38.5V21.5H1.5z"/><path fill="#4788c7" d="M38,19v2H2v-2H38 M39,18H1v4h38V18L39,18z"/><g><path fill="#dff0fe" d="M1.5 13.5H38.5V16.5H1.5z"/><path fill="#4788c7" d="M38,14v2H2v-2H38 M39,13H1v4h38V13L39,13z"/></g><g><path fill="#dff0fe" d="M1.5 8.5H38.5V11.5H1.5z"/><path fill="#4788c7" d="M38,9v2H2V9H38 M39,8H1v4h38V8L39,8z"/></g><g><path fill="#98ccfd" d="M7,34.5c-0.827,0-1.5-0.673-1.5-1.5V7c0-0.827,0.673-1.5,1.5-1.5h26c0.827,0,1.5,0.673,1.5,1.5v26 c0,0.827-0.673,1.5-1.5,1.5H7z"/><path fill="#4788c7" d="M33,6c0.551,0,1,0.449,1,1v26c0,0.551-0.449,1-1,1H7c-0.551,0-1-0.449-1-1V7c0-0.551,0.449-1,1-1 H33 M33,5H7C5.895,5,5,5.895,5,7v26c0,1.105,0.895,2,2,2h26c1.105,0,2-0.895,2-2V7C35,5.895,34.105,5,33,5L33,5z"/></g><g><path fill="#fff" d="M10.5 9A1.5 1.5 0 1 0 10.5 12A1.5 1.5 0 1 0 10.5 9Z"/></g><g><path fill="#fff" d="M29.5 9A1.5 1.5 0 1 0 29.5 12A1.5 1.5 0 1 0 29.5 9Z"/></g><g><path fill="#fff" d="M29.5 28A1.5 1.5 0 1 0 29.5 31A1.5 1.5 0 1 0 29.5 28Z"/></g><g><path fill="#fff" d="M10.5 28A1.5 1.5 0 1 0 10.5 31A1.5 1.5 0 1 0 10.5 28Z"/></g></svg>