<?xml version="1.0" encoding="UTF-8"?>
<svg xmlns="http://www.w3.org/2000/svg" xmlns:xlink="http://www.w3.org/1999/xlink" viewBox="0 0 96 96" width="96px" height="96px">
<g id="surface100548424">
<path style=" stroke:none;fill-rule:nonzero;fill:rgb(27.843139%,53.333336%,78.039217%);fill-opacity:1;" d="M 83.507812 55.914062 L 66.597656 75.3125 C 66.21875 75.75 65.667969 76 65.089844 76 L 52.738281 76 C 52.261719 76 51.800781 76.171875 51.4375 76.480469 L 38.5625 87.519531 C 38.199219 87.828125 37.738281 88 37.261719 88 L 34 88 C 32.894531 88 32 87.105469 32 86 L 32 78 C 32 76.894531 31.105469 76 30 76 L 14 76 C 12.894531 76 12 75.105469 12 74 L 12 31.886719 C 12 31.574219 12.070312 31.269531 12.210938 30.988281 L 20.175781 15.105469 C 20.515625 14.429688 21.207031 14 21.960938 14 L 82 14 C 83.105469 14 84 14.894531 84 16 L 84 54.601562 C 84 55.085938 83.824219 55.550781 83.507812 55.914062 Z M 83.507812 55.914062 "/>
<path style=" stroke:none;fill-rule:nonzero;fill:rgb(98.039216%,98.039216%,98.039216%);fill-opacity:1;" d="M 78 52.738281 C 74.664062 56.492188 71.335938 60.246094 68 64 C 63.335938 64 58.664062 64 54 64 C 49.335938 68 44.664062 72 40 76 C 40 72 40 68 40 64 C 34.664062 63.984375 29.335938 63.96875 24 63.953125 C 24 49.300781 24 34.648438 24 20 C 42 20 60 20 78 20 C 78 30.910156 78 41.824219 78 52.738281 Z M 78 52.738281 "/>
<path style=" stroke:none;fill-rule:nonzero;fill:rgb(27.843139%,53.333336%,78.039217%);fill-opacity:1;" d="M 42 32 L 48 32 L 48 52 L 42 52 Z M 42 32 "/>
<path style=" stroke:none;fill-rule:nonzero;fill:rgb(27.843139%,53.333336%,78.039217%);fill-opacity:1;" d="M 60 32 L 66 32 L 66 52 L 60 52 Z M 60 32 "/>
</g>
</svg>
