<svg xmlns="http://www.w3.org/2000/svg"  viewBox="0 0 40 40" width="80px" height="80px"><path fill="#dff0fe" d="M20,38.5C9.799,38.5,1.5,30.201,1.5,20S9.799,1.5,20,1.5S38.5,9.799,38.5,20S30.201,38.5,20,38.5z"/><path fill="#4788c7" d="M20,2c9.925,0,18,8.075,18,18s-8.075,18-18,18S2,29.925,2,20S10.075,2,20,2 M20,1 C9.507,1,1,9.507,1,20s8.507,19,19,19s19-8.507,19-19S30.493,1,20,1L20,1z"/><path fill="#fff" d="M20,35.5c-8.547,0-15.5-6.953-15.5-15.5S11.453,4.5,20,4.5S35.5,11.453,35.5,20S28.547,35.5,20,35.5 z"/><path fill="#4788c7" d="M20,5c8.271,0,15,6.729,15,15s-6.729,15-15,15S5,28.271,5,20S11.729,5,20,5 M20,4 C11.163,4,4,11.163,4,20s7.163,16,16,16s16-7.163,16-16S28.837,4,20,4L20,4z"/><path fill="none" stroke="#4788c7" stroke-linecap="round" stroke-miterlimit="10" stroke-width="2" d="M26.639 10.19L20 20 25 25"/><path fill="#4788c7" d="M20 18.5A1.5 1.5 0 1 0 20 21.5A1.5 1.5 0 1 0 20 18.5Z"/><path fill="#98ccfd" d="M20 7A1 1 0 1 0 20 9 1 1 0 1 0 20 7zM20 31A1 1 0 1 0 20 33 1 1 0 1 0 20 31z"/><g><path fill="#98ccfd" d="M32 19A1 1 0 1 0 32 21A1 1 0 1 0 32 19Z"/></g><g><path fill="#98ccfd" d="M8 19A1 1 0 1 0 8 21A1 1 0 1 0 8 19Z"/></g></svg>