<svg xmlns="http://www.w3.org/2000/svg"  viewBox="0 0 40 40" width="80px" height="80px"><path fill="#dff0fe" d="M1.5 6.5H38.5V33.5H1.5z"/><path fill="#4788c7" d="M38,7v26H2V7H38 M39,6H1v28h38V6L39,6z"/><path fill="#dff0fe" stroke="#4788c7" stroke-miterlimit="10" d="M1.679,12.372l15.748,8.48c1.607,0.865,3.541,0.865,5.147,0 l15.748-8.48"/><path fill="#98ccfd" d="M31 22.5A8.5 8.5 0 1 0 31 39.5A8.5 8.5 0 1 0 31 22.5Z"/><path fill="#4788c7" d="M31,23c4.411,0,8,3.589,8,8s-3.589,8-8,8s-8-3.589-8-8S26.589,23,31,23 M31,22c-4.971,0-9,4.029-9,9 s4.029,9,9,9s9-4.029,9-9S35.971,22,31,22L31,22z"/><path fill="none" stroke="#fff" stroke-miterlimit="10" stroke-width="2" d="M26.821 31.025L29.591 33.794 35.821 27.563"/></svg>