<svg xmlns="http://www.w3.org/2000/svg"  viewBox="0 0 40 40" width="80px" height="80px"><rect width="24.787" height="4.947" x="2.5" y="17.553" fill="#98ccfd"/><rect width="9.287" height="4.947" x="28" y="17.553" fill="#fff"/><rect width="15.351" height="4.947" x="2.5" y="5.527" fill="#98ccfd"/><rect width="19.5" height="4.947" x="17.5" y="5.527" fill="#fff"/><rect width="8" height="4.947" x="2.5" y="29.527" fill="#98ccfd"/><rect width="27.085" height="4.947" x="10.5" y="29.527" fill="#fff"/><rect width="35" height="5" x="2.5" y="17.5" fill="none" stroke="#4788c7" stroke-linecap="round" stroke-linejoin="round" stroke-miterlimit="10"/><path fill="#dff0fe" stroke="#4788c7" stroke-miterlimit="10" d="M29.5,22.625v-5.25c0-0.438-0.4-0.875-0.8-0.875h-2.4	c-0.4,0-0.8,0.438-0.8,0.875v5.25c0,0.438,0.4,0.875,0.8,0.875h2.4C29.1,23.5,29.5,23.063,29.5,22.625z"/><rect width="35" height="5" x="2.5" y="29.5" fill="none" stroke="#4788c7" stroke-linecap="round" stroke-linejoin="round" stroke-miterlimit="10"/><path fill="#dff0fe" stroke="#4788c7" stroke-miterlimit="10" d="M12.5,34.625v-5.25c0-0.438-0.4-0.875-0.8-0.875H9.3	c-0.4,0-0.8,0.438-0.8,0.875v5.25c0,0.438,0.4,0.875,0.8,0.875h2.4C12.1,35.5,12.5,35.063,12.5,34.625z"/><rect width="35" height="5" x="2.5" y="5.5" fill="none" stroke="#4788c7" stroke-linecap="round" stroke-linejoin="round" stroke-miterlimit="10"/><path fill="#dff0fe" stroke="#4788c7" stroke-miterlimit="10" d="M19.5,10.625v-5.25c0-0.438-0.4-0.875-0.8-0.875h-2.4	c-0.4,0-0.8,0.438-0.8,0.875v5.25c0,0.438,0.4,0.875,0.8,0.875h2.4C19.1,11.5,19.5,11.063,19.5,10.625z"/></svg>