<svg xmlns="http://www.w3.org/2000/svg"  viewBox="0 0 40 40" width="80px" height="80px"><path fill="#dff0fe" d="M32 12.5A4.5 4.5 0 1 0 32 21.5A4.5 4.5 0 1 0 32 12.5Z"/><path fill="#4788c7" d="M32,13c2.206,0,4,1.794,4,4s-1.794,4-4,4s-4-1.794-4-4S29.794,13,32,13 M32,12 c-2.761,0-5,2.239-5,5s2.239,5,5,5s5-2.239,5-5S34.761,12,32,12L32,12z"/><path fill="#98ccfd" d="M24.5,32.5V32c0-4.136,3.364-7.5,7.5-7.5s7.5,3.364,7.5,7.5v0.5H24.5z"/><path fill="#4788c7" d="M32,25c3.86,0,7,3.14,7,7v0l-14,0C25,28.14,28.14,25,32,25 M32,24c-4.418,0-8,3.582-8,8v1h16v-1 C40,27.582,36.418,24,32,24L32,24z"/><path fill="#dff0fe" d="M8 12.5A4.5 4.5 0 1 0 8 21.5A4.5 4.5 0 1 0 8 12.5Z"/><path fill="#4788c7" d="M8,13c2.206,0,4,1.794,4,4s-1.794,4-4,4s-4-1.794-4-4S5.794,13,8,13 M8,12c-2.761,0-5,2.239-5,5 s2.239,5,5,5s5-2.239,5-5S10.761,12,8,12L8,12z"/><path fill="#dff0fe" d="M14.5 3.5A4 4 0 1 0 14.5 11.5A4 4 0 1 0 14.5 3.5Z"/><path fill="#4788c7" d="M14.5,4C16.43,4,18,5.57,18,7.5S16.43,11,14.5,11S11,9.43,11,7.5S12.57,4,14.5,4 M14.5,3 C12.015,3,10,5.015,10,7.5s2.015,4.5,4.5,4.5S19,9.985,19,7.5S16.985,3,14.5,3L14.5,3z"/><g><path fill="#dff0fe" d="M25.5 3.5A4 4 0 1 0 25.5 11.5A4 4 0 1 0 25.5 3.5Z"/><path fill="#4788c7" d="M25.5,4C27.43,4,29,5.57,29,7.5S27.43,11,25.5,11S22,9.43,22,7.5S23.57,4,25.5,4 M25.5,3 C23.015,3,21,5.015,21,7.5s2.015,4.5,4.5,4.5S30,9.985,30,7.5S27.985,3,25.5,3L25.5,3z"/></g><g><path fill="#98ccfd" d="M0.5,32.5V32c0-4.136,3.364-7.5,7.5-7.5s7.5,3.364,7.5,7.5v0.5H0.5z"/><path fill="#4788c7" d="M8,25c3.86,0,7,3.14,7,7v0L1,32C1,28.14,4.14,25,8,25 M8,24c-4.418,0-8,3.582-8,8v1h16v-1 C16,27.582,12.418,24,8,24L8,24z"/></g><g><path fill="#dff0fe" d="M20 17.5A4.5 4.5 0 1 0 20 26.5A4.5 4.5 0 1 0 20 17.5Z"/><path fill="#4788c7" d="M20,18c2.206,0,4,1.794,4,4s-1.794,4-4,4s-4-1.794-4-4S17.794,18,20,18 M20,17 c-2.761,0-5,2.239-5,5s2.239,5,5,5s5-2.239,5-5S22.761,17,20,17L20,17z"/></g><g><path fill="#b6dcfe" d="M12.5,37.5V37c0-4.136,3.364-7.5,7.5-7.5s7.5,3.364,7.5,7.5v0.5H12.5z"/><path fill="#4788c7" d="M20,30c3.86,0,7,3.14,7,7v0l-14,0C13,33.14,16.14,30,20,30 M20,29c-4.418,0-8,3.582-8,8v1h16v-1 C28,32.582,24.418,29,20,29L20,29z"/></g></svg>