<svg xmlns="http://www.w3.org/2000/svg"  viewBox="0 0 40 40" width="80px" height="80px"><path fill="#b6dcfe" d="M39,20c0,10.578-8.618,19-19,19C9.619,39,1,30.578,1,20S9.422,1,20,1S39,9.422,39,20z"/><path fill="#dff0fe" d="M36.453,11.5H3.547C2.245,14.04,1.5,16.922,1.5,20s0.762,5.96,2.083,8.5h32.835 c1.32-2.54,2.083-5.422,2.083-8.5S37.755,14.04,36.453,11.5z"/><path fill="#dff0fe" d="M36.721,29H3.279l-0.14-0.27C1.72,26,1,23.063,1,20c0-3.07,0.707-6.007,2.102-8.729L3.241,11h33.518 l0.14,0.271C38.293,13.993,39,16.93,39,20c0,3.064-0.72,6.002-2.14,8.73L36.721,29z M3.89,28H36.11c1.254-2.509,1.89-5.198,1.89-8 c0-2.808-0.624-5.498-1.855-8H3.855C2.624,14.502,2,17.192,2,20C2,22.8,2.636,25.489,3.89,28z"/><path fill="#4788c7" d="M7.5,24.5v-9h2.796c2.803,0,4.204,1.463,4.204,4.387c0,1.402-0.383,2.521-1.147,3.358 c-0.765,0.837-1.784,1.255-3.057,1.255H7.5z M9.5,17.503v5h0.788c0.69,0,1.231-0.231,1.623-0.693 c0.393-0.462,0.589-1.091,0.589-1.887c0-0.751-0.195-1.343-0.584-1.774c-0.389-0.431-0.935-0.646-1.638-0.646H9.5z"/><path fill="#4788c7" d="M24.598,24.516h-2.1l-3.722-5.675l-0.199-0.347v6.021h-2.15v-9.032h2.192l3.584,5.499l0.246,0.308 v-5.806h2.15V24.516z"/><path fill="#4788c7" d="M27.088,24.125v-1.995c0.38,0.304,0.793,0.531,1.239,0.683c0.446,0.152,0.896,0.228,1.351,0.228 c0.267,0,0.499-0.023,0.698-0.069c0.199-0.046,0.365-0.109,0.498-0.19c0.133-0.081,0.233-0.177,0.298-0.287 c0.066-0.11,0.098-0.23,0.098-0.359c0-0.175-0.052-0.331-0.157-0.467c-0.105-0.138-0.248-0.264-0.43-0.381 c-0.181-0.117-0.397-0.229-0.646-0.337c-0.249-0.108-0.518-0.218-0.806-0.33c-0.734-0.291-1.282-0.647-1.642-1.066 c-0.36-0.42-0.541-0.927-0.541-1.521c0-0.466,0.098-0.866,0.295-1.2c0.197-0.335,0.464-0.61,0.803-0.826 c0.339-0.216,0.731-0.375,1.177-0.477c0.446-0.102,0.918-0.153,1.416-0.153c0.489,0,0.923,0.028,1.302,0.084 c0.378,0.056,0.727,0.142,1.046,0.258v1.865c-0.157-0.104-0.329-0.195-0.515-0.274c-0.186-0.079-0.377-0.144-0.574-0.197 c-0.197-0.052-0.392-0.09-0.587-0.115c-0.195-0.025-0.379-0.037-0.554-0.037c-0.24,0-0.459,0.022-0.656,0.065 c-0.197,0.044-0.363,0.105-0.498,0.184c-0.135,0.079-0.24,0.174-0.315,0.284c-0.074,0.11-0.111,0.234-0.111,0.371 c0,0.15,0.042,0.284,0.125,0.403c0.083,0.118,0.201,0.23,0.354,0.337c0.153,0.106,0.339,0.21,0.557,0.312 c0.219,0.102,0.465,0.207,0.741,0.315c0.376,0.15,0.714,0.309,1.013,0.477c0.299,0.169,0.556,0.359,0.77,0.571 c0.214,0.212,0.378,0.454,0.492,0.726s0.17,0.59,0.17,0.951c0,0.499-0.099,0.918-0.298,1.257c-0.199,0.339-0.469,0.613-0.81,0.823 s-0.738,0.361-1.19,0.452c-0.453,0.091-0.93,0.137-1.433,0.137c-0.516,0-1.006-0.041-1.472-0.125 C27.832,24.416,27.429,24.291,27.088,24.125z"/><rect width="25.5" height="1" x="7.25" y="6" fill="#4788c7"/><rect width="25.5" height="1" x="7.25" y="33" fill="#4788c7"/><path fill="#4788c7" d="M20,39C9.523,39,1,30.477,1,20C1,9.346,9.346,1,20,1s19,8.346,19,19C39,30.477,30.477,39,20,39z M20,2C9.906,2,2,9.906,2,20c0,9.925,8.075,18,18,18s18-8.075,18-18C38,9.906,30.094,2,20,2z"/><path fill="#4788c7" d="M20,39c-4.751,0-9.121-3.78-11.405-9.865c-0.098-0.259,0.033-0.547,0.292-0.644 c0.255-0.099,0.546,0.034,0.644,0.292C11.665,34.469,15.677,38,20,38c4.315,0,8.324-3.522,10.461-9.193 c0.097-0.259,0.383-0.391,0.645-0.291c0.258,0.098,0.389,0.386,0.291,0.645C29.109,35.229,24.742,39,20,39z"/><g><path fill="#4788c7" d="M9.041,11.525c-0.058,0-0.116-0.01-0.174-0.031c-0.259-0.096-0.391-0.384-0.295-0.643 C10.828,4.774,15.207,1,20,1c4.786,0,9.162,3.767,11.42,9.83c0.096,0.259-0.035,0.547-0.294,0.644 c-0.261,0.099-0.547-0.035-0.644-0.294C28.374,5.518,24.357,2,20,2c-4.364,0-8.384,3.525-10.49,9.199 C9.435,11.401,9.244,11.525,9.041,11.525z"/></g><g><path fill="#4788c7" d="M20,39c-2.773,0-4.019-6.936-4.425-9.918c-0.038-0.273,0.154-0.525,0.428-0.563 c0.269-0.05,0.525,0.153,0.563,0.428C17.414,35.167,18.94,38,20,38c1.063,0,2.591-2.841,3.438-9.077 c0.037-0.273,0.295-0.476,0.563-0.428c0.273,0.037,0.465,0.289,0.428,0.563C24.023,32.047,22.778,39,20,39z"/></g><g><path fill="#4788c7" d="M16.058,11.51c-0.022,0-0.045-0.001-0.067-0.005c-0.273-0.036-0.466-0.288-0.429-0.562 C15.962,7.954,17.197,1,20,1c2.799,0,4.033,6.931,4.434,9.91c0.037,0.273-0.154,0.525-0.429,0.562 c-0.272,0.044-0.525-0.155-0.562-0.429C22.607,4.83,21.072,2,20,2c-1.074,0-2.611,2.84-3.448,9.076 C16.519,11.327,16.304,11.51,16.058,11.51z"/></g></svg>