<svg xmlns="http://www.w3.org/2000/svg"  viewBox="0 0 40 40" width="80px" height="80px"><path fill="#b6dcfe" d="M6,37.5c-1.93,0-3.5-1.57-3.5-3.5V18c0-1.93,1.57-3.5,3.5-3.5h9.5V6c0-1.93,1.57-3.5,3.5-3.5h15 c1.93,0,3.5,1.57,3.5,3.5v28c0,1.93-1.57,3.5-3.5,3.5H6z"/><path fill="#4788c7" d="M34,3c1.654,0,3,1.346,3,3v11.429v5.143V34c0,1.654-1.346,3-3,3H6c-1.654,0-3-1.346-3-3V18 c0-1.654,1.346-3,3-3h9h1v-1V6c0-1.654,1.346-3,3-3H34 M34,2H19c-2.209,0-4,1.791-4,4v8H6c-2.209,0-4,1.791-4,4v16 c0,2.209,1.791,4,4,4h28c2.209,0,4-1.791,4-4V22.571v-5.143V6C38,3.8,36.2,2,34,2L34,2z"/><path fill="#dff0fe" d="M34,3H19c-1.657,0-3,1.343-3,3v9H6c-1.657,0-3,1.343-3,3v13c0,1.657,1.343,3,3,3h28 c1.657,0,3-1.343,3-3V6C37,4.343,35.657,3,34,3z"/><path fill="#4788c7" d="M26,11.5V23H15v-5l-6.5,6.5L15,31v-5h14V11.5c0-0.828-0.672-1.5-1.5-1.5h0 C26.672,10,26,10.672,26,11.5z"/></svg>