<svg xmlns="http://www.w3.org/2000/svg"  viewBox="0 0 40 40" width="80px" height="80px"><path fill="#dff0fe" d="M20,38.5C9.8,38.5,1.5,30.2,1.5,20S9.8,1.5,20,1.5S38.5,9.8,38.5,20S30.2,38.5,20,38.5z"/><path fill="#fff" d="M20,35.5c-8.5,0-15.5-7-15.5-15.5S11.5,4.5,20,4.5s15.5,7,15.5,15.5S28.5,35.5,20,35.5z"/><path fill="#4788c7" d="M20,5c8.3,0,15,6.7,15,15s-6.7,15-15,15S5,28.3,5,20S11.7,5,20,5 M20,4C11.2,4,4,11.2,4,20s7.2,16,16,16	s16-7.2,16-16S28.8,4,20,4L20,4z"/><path fill="#fff" d="M6.6,6.6L6.6,6.6L20,20V10c3.3,0,6-2.7,6-6c0-0.8-0.1-1.5-0.4-2.2C23.8,1.3,21.9,1,20,1C14.8,1,10,3.1,6.6,6.6z"/><path fill="#dff0fe" d="M20,1.5c-1.4,0-2.5,1.1-2.5,2.5s1.1,2.5,2.5,2.5s2.5-1.1,2.5-2.5S21.4,1.5,20,1.5z"/><path fill="#4788c7" d="M20,2c1.1,0,2,0.9,2,2s-0.9,2-2,2s-2-0.9-2-2S18.9,2,20,2 M20,1c-1.7,0-3,1.3-3,3s1.3,3,3,3s3-1.3,3-3	S21.7,1,20,1L20,1z M21.4,18.6c0.8,0.8,0.8,2.1,0,2.9s-2.1,0.8-2.9,0s-8-10.9-8-10.9S20.6,17.8,21.4,18.6z"/><path fill="none" stroke="#4788c7" stroke-linecap="round" stroke-miterlimit="10" d="M7,6.8c-3.4,3.4-5.5,8-5.5,13.2c0,10.2,8.3,18.5,18.5,18.5S38.5,30.2,38.5,20c0-8.2-5.3-15.1-12.7-17.6"/><path fill="none" stroke="#4788c7" stroke-linecap="round" stroke-miterlimit="10" d="M25.8,5.6c5.7,2.3,9.7,7.9,9.7,14.4c0,8.6-6.9,15.5-15.5,15.5S4.5,28.6,4.5,20c0-4.3,1.7-8.2,4.5-11"/></svg>