<svg xmlns="http://www.w3.org/2000/svg"  viewBox="0 0 40 40" width="80px" height="80px"><path fill="#b6dcfe" d="M1.5 35.5L1.5 4.5 11.793 4.5 14.793 7.5 38.5 7.5 38.5 35.5z"/><path fill="#4788c7" d="M11.586,5l2.707,2.707L14.586,8H15h23v27H2V5H11.586 M12,4H1v32h38V7H15L12,4L12,4z"/><path fill="#dff0fe" d="M1.5 35.5L1.5 9.5 12.151 9.5 15.151 7.5 38.5 7.5 38.5 35.5z"/><path fill="#4788c7" d="M38,8v27H2V10h10h0.303l0.252-0.168L15.303,8H38 M39,7H15l-3,2H1v27h38V7L39,7z"/><g><path fill="#98ccfd" d="M21.321,31.5c-3.889,0-6.821-2.794-6.821-6.5c0-3.022,1.563-4.874,5.066-7.88l0.41-0.352 l-2.27-2.269H25.5v7.793l-2.579-2.58l-0.625,0.544C20.048,22.21,17.5,24.423,17.5,27c0,2.293,1.172,3.395,2.155,3.915 c0.69,0.365,1.388,0.503,1.845,0.555v0.03H21.321z"/><path fill="#4788c7" d="M25,15v6.086l-1.396-1.396l-0.66-0.66l-0.704,0.613l-0.274,0.238C19.638,21.903,17,24.195,17,27 c0,1.377,0.395,2.401,0.984,3.151C16.166,29.121,15,27.241,15,25c0-2.843,1.442-4.54,4.892-7.5l0.819-0.703l-0.763-0.763L18.914,15 H25 M26,14h-9.5l2.741,2.741C15.674,19.802,14,21.746,14,25c0,3.897,3.124,7,7.321,7H22v-1c0,0-0.005,0-0.016,0 C21.711,31,18,30.928,18,27c0-2.448,2.646-4.644,4.897-6.603L26,23.5V14L26,14z"/></g></svg>