<svg xmlns="http://www.w3.org/2000/svg"  viewBox="0 0 40 40" width="80px" height="80px"><path fill="#98ccfd" d="M16.13 35.5L5.5 35.5 5.5 2.5 34.5 2.5 34.5 35.5 23.716 35.5 19.994 39.293z"/><path fill="#4788c7" d="M34,3v32H23.926h-0.42l-0.294,0.3l-3.225,3.286l-3.36-3.299L16.335,35h-0.409H6V3H34 M35,2H5v34 h10.926L20,40l3.926-4H35V2L35,2z"/><path fill="#fff" d="M20 9A2 2 0 1 0 20 13A2 2 0 1 0 20 9Z"/><g><path fill="#fff" d="M22 27L22 15 17 15 17 16 18 16 18 27 17 27 17 28 23 28 23 27z"/></g></svg>