<svg xmlns="http://www.w3.org/2000/svg"  viewBox="0 0 40 40" width="80px" height="80px"><path fill="#4788c7" d="M24,2c0.551,0,1,0.449,1,1v3H14V3c0-0.551,0.449-1,1-1H24 M24,1h-9c-1.105,0-2,0.895-2,2v4h13V3C26,1.895,25.105,1,24,1L24,1z"/><path fill="#dff0fe" d="M1.5 14.5H37.5V31.5H1.5z"/><path fill="#4788c7" d="M37,15v16H2V15H37 M38,14H1v18h37V14L38,14z"/><path fill="#dff0fe" d="M5,20.5c-1.93,0-3.5-1.57-3.5-3.5V4.5h36V17c0,1.93-1.57,3.5-3.5,3.5H5z"/><path fill="#4788c7" d="M37,5v12c0,1.654-1.346,3-3,3H5c-1.654,0-3-1.346-3-3V5H37 M38,4H1v13c0,2.209,1.791,4,4,4h29c2.209,0,4-1.791,4-4V4L38,4z"/><path fill="#4788c7" d="M19.5 15A1.5 1.5 0 1 0 19.5 18 1.5 1.5 0 1 0 19.5 15zM27 5h-3V4.5C24 3.672 24.672 3 25.5 3l0 0C26.328 3 27 3.672 27 4.5V5zM15 5h-3V4.5C12 3.672 12.672 3 13.5 3l0 0C14.328 3 15 3.672 15 4.5V5z"/><path fill="#98ccfd" d="M29.045 37.318L26.217 37.718 25.723 34.905 23.2 33.566 24.455 31 23.2 28.434 25.723 27.095 26.217 24.282 29.045 24.682 31.098 22.696 33.151 24.682 35.979 24.282 36.473 27.095 38.996 28.434 37.741 31 38.996 33.566 36.473 34.905 35.979 37.718 33.151 37.318 31.098 39.304z"/><path fill="#4788c7" d="M31.098,23.391l1.53,1.48l0.351,0.34l0.484-0.068l2.107-0.298l0.368,2.096l0.084,0.481l0.432,0.229l1.88,0.997l-0.935,1.912L37.185,31l0.215,0.439l0.935,1.912l-1.88,0.997l-0.432,0.229l-0.084,0.481l-0.368,2.096l-2.107-0.298l-0.484-0.068l-0.351,0.34l-1.53,1.48l-1.53-1.48l-0.351-0.34l-0.484,0.068l-2.107,0.298l-0.368-2.096l-0.084-0.481l-0.432-0.229l-1.88-0.997l0.935-1.912L25.011,31l-0.215-0.439l-0.935-1.912l1.88-0.997l0.432-0.229l0.084-0.481l0.368-2.096l2.107,0.298l0.484,0.068l0.351-0.34L31.098,23.391 M31.098,22l-2.225,2.152l-3.065-0.434l-0.535,3.049l-2.735,1.451L23.898,31l-1.36,2.781l2.735,1.451l0.535,3.049l3.065-0.434L31.098,40l2.225-2.152l3.065,0.434l0.535-3.049l2.735-1.451L38.298,31l1.36-2.781l-2.735-1.451l-0.535-3.049l-3.065,0.434L31.098,22L31.098,22z"/></svg>