<svg xmlns="http://www.w3.org/2000/svg"  viewBox="0 0 40 40" width="80px" height="80px"><path fill="#b6dcfe" d="M12.109 35.5L1.384 30.584 11.653 27.317 6.053 12.384 16.315 19.848 19.561 5.941 23.702 19.746 36.814 12.253 29.299 27.284 38.777 30.602 29.872 35.5z"/><path fill="#4788c7" d="M19.621,7.883l3.421,11.404l0.362,1.205l1.092-0.624l11.132-6.361l-6.523,13.046l-0.508,1.016 l1.072,0.375l7.885,2.76L29.743,35H12.218l-9.45-4.331l8.535-2.716l1.003-0.319l-0.369-0.985l-4.83-12.881l8.306,6.041l1.219,0.887 l0.343-1.468L19.621,7.883 M19.5,4L16,19L5,11l6,16L0,30.5L12,36h18l10-5.5L30,27l8-16l-14,8L19.5,4L19.5,4z"/><path fill="#fff" d="M17 35L13 32 17 32 16 26 20 29 26 25 23 32 28 32 24 35z"/></svg>