<svg xmlns="http://www.w3.org/2000/svg"  viewBox="0 0 40 40" width="80px" height="80px"><path fill="#b6dcfe" d="M20 32.004L8.299 38.112 10.493 25.097 1.068 15.856 14.124 13.921 20 2.102 25.876 13.921 38.932 15.856 29.508 25.098 31.701 38.112z"/><path fill="#4788c7" d="M20,3.225l5.311,10.685l0.232,0.468l0.516,0.077l11.804,1.749l-8.52,8.354l-0.373,0.365l0.087,0.515 l1.983,11.766l-10.578-5.522L20,31.44l-0.463,0.242L8.959,37.204l1.984-11.767l0.087-0.515l-0.373-0.366l-8.521-8.353l11.803-1.749 l0.516-0.077l0.232-0.468L20,3.225 M20,0.979l-6.207,12.487L0,15.509l9.957,9.761L7.639,39.021L20,32.568l12.361,6.453 l-2.317-13.749L40,15.509l-13.793-2.044L20,0.979L20,0.979z"/><path fill="#fff" d="M28.971 24.923L29.344 24.558 37.864 16.204 26.06 14.455 25.544 14.378 25.311 13.91 20 3.225 20 31.44 20.463 31.681 31.041 37.204 29.058 25.438z"/></svg>