<svg xmlns="http://www.w3.org/2000/svg"  viewBox="0 0 40 40" width="80px" height="80px"><path fill="none" stroke="#4788c7" stroke-miterlimit="10" d="M6.5 35v-4.808c0-5.353 4.339-9.692 9.692-9.692h7.615c5.353 0 9.692-4.339 9.692-9.692V5.962M6.5 32.5L6.5 6.5"/><path fill="#dff0fe" d="M6.5 2.5A4 4 0 1 0 6.5 10.5A4 4 0 1 0 6.5 2.5Z"/><path fill="#4788c7" d="M6.5,3C8.43,3,10,4.57,10,6.5S8.43,10,6.5,10S3,8.43,3,6.5S4.57,3,6.5,3 M6.5,2 C4.015,2,2,4.014,2,6.5C2,8.985,4.015,11,6.5,11S11,8.985,11,6.5C11,4.014,8.985,2,6.5,2L6.5,2z"/><path fill="#dff0fe" d="M33.5 2.5A4 4 0 1 0 33.5 10.5A4 4 0 1 0 33.5 2.5Z"/><path fill="#4788c7" d="M33.5,3C35.43,3,37,4.57,37,6.5S35.43,10,33.5,10S30,8.43,30,6.5S31.57,3,33.5,3 M33.5,2 C31.015,2,29,4.014,29,6.5c0,2.485,2.015,4.5,4.5,4.5S38,8.985,38,6.5C38,4.014,35.985,2,33.5,2L33.5,2z"/><g><path fill="#dff0fe" d="M6.5 29.5A4 4 0 1 0 6.5 37.5A4 4 0 1 0 6.5 29.5Z"/><path fill="#4788c7" d="M6.5,30c1.93,0,3.5,1.57,3.5,3.5S8.43,37,6.5,37S3,35.43,3,33.5S4.57,30,6.5,30 M6.5,29 C4.015,29,2,31.014,2,33.5C2,35.985,4.015,38,6.5,38s4.5-2.015,4.5-4.5C11,31.014,8.985,29,6.5,29L6.5,29z"/></g></svg>