<svg xmlns="http://www.w3.org/2000/svg"  viewBox="0 0 40 40" width="80px" height="80px"><path fill="#dff0fe" d="M4,33.5c-0.827,0-1.5-0.673-1.5-1.5V8c0-0.827,0.673-1.5,1.5-1.5h32c0.827,0,1.5,0.673,1.5,1.5v24 c0,0.827-0.673,1.5-1.5,1.5H4z"/><path fill="#4788c7" d="M36,7c0.551,0,1,0.449,1,1v24c0,0.551-0.449,1-1,1H4c-0.551,0-1-0.449-1-1V8c0-0.551,0.449-1,1-1 H36 M36,6H4C2.895,6,2,6.895,2,8v24c0,1.105,0.895,2,2,2h32c1.105,0,2-0.895,2-2V8C38,6.895,37.105,6,36,6L36,6z"/><path fill="#4788c7" d="M9.92 15.8v3.511h1.781V15.8h1.703v8.763h-1.703v-3.666H9.92v3.666H8.217V15.8H9.92zM16.187 17.373h-1.547V15.8h4.811v1.573h-1.56v7.189h-1.703V17.373zM26.028 21.494c-.052-.832-.104-1.963-.091-2.898h-.026c-.156.936-.39 2.015-.559 2.69l-.767 3.134h-1.196l-.728-3.082c-.169-.701-.403-1.794-.546-2.742h-.026c-.026.948-.091 2.054-.13 2.925l-.156 3.042h-1.456l.624-8.763h1.807l.702 3.173c.234 1.104.455 2.08.611 3.067h.039c.13-.975.325-1.963.546-3.067l.702-3.173h1.794l.533 8.763h-1.521L26.028 21.494zM29.277 15.8h1.703v7.319h2.236v1.443h-3.939V15.8z"/></svg>