<?xml version="1.0" encoding="UTF-8"?>
<svg xmlns="http://www.w3.org/2000/svg" xmlns:xlink="http://www.w3.org/1999/xlink" viewBox="0 0 80 80" width="80px" height="80px">
<g id="surface100804718">
<path style=" stroke:none;fill-rule:nonzero;fill:rgb(87.450981%,94.117647%,99.607843%);fill-opacity:1;" d="M 3.132812 71.585938 L 5.949219 62.457031 L 29.597656 38.808594 L 28.410156 37.625 C 27.574219 36.789062 27.117188 35.679688 27.117188 34.496094 C 27.117188 33.3125 27.574219 32.203125 28.410156 31.363281 L 30.335938 29.441406 L 30.285156 28.964844 C 30.1875 28.074219 30.140625 27.246094 30.140625 26.429688 C 30.140625 13.511719 40.652344 3.003906 53.570312 3.003906 L 54.234375 3.011719 C 66.445312 3.347656 76.652344 13.554688 76.988281 25.765625 C 77.167969 32.152344 74.816406 38.191406 70.367188 42.765625 C 65.914062 47.339844 59.953125 49.859375 53.570312 49.859375 C 52.757812 49.859375 51.929688 49.8125 51.035156 49.714844 L 50.558594 49.664062 L 48.636719 51.585938 C 47.800781 52.421875 46.6875 52.882812 45.507812 52.882812 C 44.324219 52.882812 43.210938 52.421875 42.375 51.585938 L 41.191406 50.402344 L 36.59375 55 L 29 55 L 29 62.59375 L 26.59375 65 L 19 65 L 19 72.59375 L 17.523438 74.070312 L 8.417969 76.867188 Z M 53.941406 11 C 49.917969 11 46.136719 12.566406 43.292969 15.410156 L 42.585938 16.121094 L 63.882812 37.414062 L 64.589844 36.707031 C 67.433594 33.863281 69 30.082031 69 26.058594 C 69 22.039062 67.433594 18.257812 64.589844 15.410156 C 61.746094 12.566406 57.964844 11 53.941406 11 Z M 53.941406 11 "/>
<path style=" stroke:none;fill-rule:nonzero;fill:rgb(27.843139%,53.333336%,78.039217%);fill-opacity:1;" d="M 53.570312 4 C 53.785156 4 53.996094 4.003906 54.207031 4.007812 C 65.894531 4.332031 75.667969 14.101562 75.988281 25.789062 C 76.160156 31.90625 73.90625 37.6875 69.648438 42.0625 C 65.390625 46.445312 59.679688 48.855469 53.570312 48.855469 C 52.792969 48.855469 51.996094 48.8125 51.144531 48.71875 L 50.191406 48.617188 L 49.515625 49.292969 L 47.933594 50.878906 C 47.285156 51.527344 46.425781 51.882812 45.507812 51.882812 C 44.59375 51.882812 43.730469 51.527344 43.085938 50.878906 L 41.195312 48.988281 L 39.78125 50.402344 L 36.179688 54 L 28 54 L 28 62.179688 L 26.179688 64 L 18 64 L 18 72.179688 L 16.992188 73.1875 L 8.699219 75.734375 L 4.265625 71.304688 L 6.828125 62.988281 L 29.597656 40.222656 L 31.011719 38.808594 L 29.597656 37.394531 L 29.121094 36.921875 C 28.472656 36.273438 28.117188 35.410156 28.117188 34.496094 C 28.117188 33.578125 28.472656 32.71875 29.121094 32.070312 L 31.378906 29.8125 L 31.277344 28.859375 C 31.1875 28.007812 31.140625 27.210938 31.140625 26.433594 C 31.140625 14.0625 41.203125 4 53.570312 4 M 63.882812 38.828125 L 65.296875 37.414062 C 68.328125 34.382812 70 30.347656 70 26.058594 C 70 21.769531 68.328125 17.734375 65.296875 14.703125 C 62.265625 11.671875 58.230469 10 53.941406 10 C 49.652344 10 45.621094 11.671875 42.585938 14.703125 L 41.171875 16.117188 L 63.882812 38.828125 M 53.570312 2 C 40.078125 2 29.140625 12.9375 29.140625 26.429688 C 29.140625 27.320312 29.195312 28.203125 29.289062 29.070312 L 27.707031 30.652344 C 25.585938 32.773438 25.585938 36.210938 27.707031 38.332031 L 28.183594 38.808594 L 5.066406 61.925781 L 2 71.867188 L 8.136719 78 L 18.054688 74.953125 L 20 73.007812 L 20 66 L 27.007812 66 L 30 63.007812 L 30 56 L 37.007812 56 L 41.191406 51.816406 L 41.664062 52.292969 C 42.726562 53.355469 44.117188 53.882812 45.503906 53.882812 C 46.894531 53.882812 48.28125 53.355469 49.34375 52.292969 L 50.925781 50.710938 C 51.792969 50.804688 52.675781 50.859375 53.566406 50.859375 C 67.289062 50.859375 78.371094 39.542969 77.984375 25.734375 C 77.632812 12.988281 67.007812 2.363281 54.261719 2.011719 C 54.03125 2.003906 53.800781 2 53.570312 2 Z M 63.882812 36 L 44 16.117188 C 46.746094 13.371094 50.34375 12 53.941406 12 C 57.539062 12 61.136719 13.371094 63.882812 16.117188 C 69.371094 21.609375 69.371094 30.511719 63.882812 36 Z M 63.882812 36 "/>
<path style=" stroke:none;fill-rule:nonzero;fill:rgb(59.607846%,80.000001%,99.215686%);fill-opacity:1;" d="M 33.90625 43.507812 L 11.707031 65.707031 C 11.316406 66.097656 10.683594 66.097656 10.292969 65.707031 C 9.902344 65.316406 9.902344 64.683594 10.292969 64.292969 L 32.492188 42.09375 C 32.882812 41.703125 33.515625 41.703125 33.90625 42.09375 C 34.296875 42.484375 34.296875 43.117188 33.90625 43.507812 Z M 33.90625 43.507812 "/>
<path style=" stroke:none;fill-rule:nonzero;fill:rgb(27.843139%,53.333336%,78.039217%);fill-opacity:1;" d="M 29.195312 39.839844 L 30.609375 38.425781 L 41.253906 49.070312 L 39.839844 50.484375 Z M 29.195312 39.839844 "/>
<path style=" stroke:none;fill-rule:nonzero;fill:rgb(59.607846%,80.000001%,99.215686%);fill-opacity:1;" d="M 64 79 C 61.800781 78 49.199219 72.199219 49 49.800781 L 64 45 L 79 49.800781 C 78.800781 72.199219 66.199219 78 64 79 Z M 64 79 "/>
<path style=" stroke:none;fill-rule:nonzero;fill:rgb(27.843139%,53.333336%,78.039217%);fill-opacity:1;" d="M 64 46 L 78 50.398438 C 77.601562 70.398438 66.800781 76.398438 64 77.601562 C 61.199219 76.398438 50.601562 70.398438 50 50.398438 L 64 46 M 64 44 L 48 49.199219 C 48 74.800781 64 80 64 80 C 64 80 80 74.800781 80 49.199219 Z M 64 44 "/>
<path style=" stroke:none;fill-rule:nonzero;fill:rgb(87.450981%,94.117647%,99.607843%);fill-opacity:1;" d="M 64 73.199219 C 61 71.199219 55.199219 65.800781 54.199219 53.398438 L 64 50.398438 L 73.800781 53.601562 C 72.800781 66 67 71.199219 64 73.199219 Z M 64 73.199219 "/>
</g>
</svg>
