<svg xmlns="http://www.w3.org/2000/svg"  viewBox="0 0 40 40" width="80px" height="80px"><path fill="#98ccfd" d="M3.5 32.926L3.5 13.675 20 9.516 36.5 13.675 36.5 32.926 20 38.473z"/><path fill="#4788c7" d="M20,10.031l16,4.034v18.502l-16,5.378L4,32.567V14.065L20,10.031 M20,9L3,13.286v20L20,39l17-5.714 v-20L20,9L20,9z"/><path fill="#b6dcfe" d="M36,32.567l-16,5.378V13.031l16,1.034V32.567z"/><path fill="#dff0fe" d="M20,18.231L4,14.065l16-4.034l16,4.034L20,18.231z"/><path fill="none" stroke="#4788c7" stroke-linecap="round" stroke-miterlimit="10" stroke-width="1.5" d="M26.788 21.154L30.806 19.815"/><path fill="#4788c7" d="M24 7.306L23 7.082 23 2 24 2zM30 8.653L29 8.429 29 4 30 4zM36 10L35 9.776 35 2 36 2zM16 7.306L17 7.082 17 2 16 2zM10 8.653L11 8.429 11 4 10 4zM4 10L5 9.776 5 2 4 2z"/><path fill="#4788c7" d="M4.5 3L4.5 3C4.225 3 4 2.775 4 2.5v-1C4 1.225 4.225 1 4.5 1h0C4.775 1 5 1.225 5 1.5v1C5 2.775 4.775 3 4.5 3zM16.5 3L16.5 3C16.225 3 16 2.775 16 2.5v-1C16 1.225 16.225 1 16.5 1l0 0C16.775 1 17 1.225 17 1.5v1C17 2.775 16.775 3 16.5 3zM10.5 5L10.5 5C10.225 5 10 4.775 10 4.5v-1C10 3.225 10.225 3 10.5 3h0C10.775 3 11 3.225 11 3.5v1C11 4.775 10.775 5 10.5 5zM29.5 5L29.5 5C29.225 5 29 4.775 29 4.5v-1C29 3.225 29.225 3 29.5 3l0 0C29.775 3 30 3.225 30 3.5v1C30 4.775 29.775 5 29.5 5zM23.5 3L23.5 3C23.225 3 23 2.775 23 2.5v-1C23 1.225 23.225 1 23.5 1l0 0C23.775 1 24 1.225 24 1.5v1C24 2.775 23.775 3 23.5 3zM35.5 3L35.5 3C35.225 3 35 2.775 35 2.5v-1C35 1.225 35.225 1 35.5 1l0 0C35.775 1 36 1.225 36 1.5v1C36 2.775 35.775 3 35.5 3z"/></svg>