<svg xmlns="http://www.w3.org/2000/svg"  viewBox="0 0 40 40" width="80px" height="80px"><path fill="none" stroke="#4788c7" stroke-linecap="round" stroke-miterlimit="10" d="M3.5 37.5L36.5 37.5"/><path fill="#dff0fe" d="M20,33.5c-6.893,0-12.5-5.607-12.5-12.5V5.109l-2-0.5V2.5h10v2.109l-2,0.5V21 c0,3.584,2.916,6.5,6.5,6.5s6.5-2.916,6.5-6.5V5.109l-2-0.5V2.5h10v2.109l-2,0.5V21C32.5,27.893,26.893,33.5,20,33.5z"/><path fill="#4788c7" d="M34,3v1.219L32.757,4.53L32,4.719V5.5V21c0,6.617-5.383,12-12,12S8,27.617,8,21V5.5V4.719 L7.243,4.53L6,4.219V3h1h7h1v1.219L13.757,4.53L13,4.719V5.5V21c0,3.86,3.14,7,7,7s7-3.14,7-7V5.5V4.719L26.243,4.53L25,4.219V3 H34 M35,2H24v3l2,0.5V21c0,3.314-2.686,6-6,6s-6-2.686-6-6V5.5L16,5V2h-2H7H5v3l2,0.5V21c0,7.18,5.82,13,13,13s13-5.82,13-13V5.5 L35,5V2L35,2z"/></svg>