<svg xmlns="http://www.w3.org/2000/svg"  viewBox="0 0 40 40" width="80px" height="80px"><path fill="#98ccfd" d="M1.5 26.5H13.5V38.5H1.5z"/><path fill="#4788c7" d="M13,27v11H2V27H13 M14,26H1v13h13V26L14,26z"/><path fill="#fff" d="M27.77 2.77H37.230000000000004V12.23H27.77z" transform="rotate(-45.001 32.5 7.5)"/><path fill="#4788c7" d="M32.5,1.518L38.482,7.5L32.5,13.482L26.518,7.5L32.5,1.518 M32.5,0.103L25.103,7.5l7.397,7.397 L39.897,7.5L32.5,0.103L32.5,0.103z"/><path fill="#dff0fe" d="M7.5 1.5A6 6 0 1 0 7.5 13.5A6 6 0 1 0 7.5 1.5Z"/><path fill="#4788c7" d="M7.5,2C10.533,2,13,4.467,13,7.5S10.533,13,7.5,13S2,10.533,2,7.5S4.467,2,7.5,2 M7.5,1 C3.91,1,1,3.91,1,7.5S3.91,14,7.5,14S14,11.09,14,7.5S11.09,1,7.5,1L7.5,1z"/><path fill="#b6dcfe" d="M32.5 26.5A6 6 0 1 0 32.5 38.5A6 6 0 1 0 32.5 26.5Z"/><path fill="#4788c7" d="M32.5 27c3.033 0 5.5 2.467 5.5 5.5S35.533 38 32.5 38 27 35.533 27 32.5 29.467 27 32.5 27M32.5 26c-3.59 0-6.5 2.91-6.5 6.5s2.91 6.5 6.5 6.5 6.5-2.91 6.5-6.5S36.09 26 32.5 26L32.5 26zM7.5 17L7.5 17C7.224 17 7 17.224 7 17.5v6C7 23.776 7.224 24 7.5 24h0C7.776 24 8 23.776 8 23.5v-6C8 17.224 7.776 17 7.5 17z"/><path fill="#4788c7" d="M7.5 15.6L5.5 18 9.5 18zM22 7.5L22 7.5C22 7.224 21.776 7 21.5 7h-5C16.224 7 16 7.224 16 7.5v0C16 7.776 16.224 8 16.5 8h5C21.776 8 22 7.776 22 7.5z"/><path fill="#4788c7" d="M23.4 7.5L21 5.5 21 9.5zM32.5 23L32.5 23c.276 0 .5-.224.5-.5v-6c0-.276-.224-.5-.5-.5l0 0c-.276 0-.5.224-.5.5v6C32 22.776 32.224 23 32.5 23z"/><path fill="#4788c7" d="M32.5 24.4L34.5 22 30.5 22z"/></svg>