<svg xmlns="http://www.w3.org/2000/svg"  viewBox="0 0 40 40" width="80px" height="80px"><path fill="#dff0fe" d="M17.604,34.5c-0.946,0-1.835-0.368-2.504-1.037L2.537,20.899C1.868,20.23,1.5,19.341,1.5,18.396 c0-0.946,0.368-1.835,1.037-2.504L14.724,3.705l17.569,17.572L20.108,33.463C19.439,34.132,18.551,34.5,17.604,34.5z"/><path fill="#4788c7" d="M14.723,4.412l16.863,16.864L19.755,33.109C19.181,33.684,18.417,34,17.605,34 c-0.812,0-1.576-0.316-2.15-0.891L2.891,20.546c-1.186-1.186-1.186-3.115,0-4.301L14.723,4.412 M14.723,2.998l-12.54,12.54 c-1.578,1.578-1.578,4.137,0,5.715l12.564,12.564C15.536,34.605,16.57,35,17.605,35c1.034,0,2.068-0.395,2.858-1.184L33,21.277 L14.723,2.998L14.723,2.998z"/><path fill="#4788c7" d="M2.184,21.253l12.564,12.564c1.578,1.578,4.137,1.578,5.715,0L33,21.277L31.725,20H1.34 C1.537,20.454,1.813,20.882,2.184,21.253z"/><path fill="#98ccfd" d="M30.311 20H2.465c.12.193.258.378.425.546l12.564 12.564C16.029 33.684 16.792 34 17.605 34c.812 0 1.576-.316 2.15-.891l11.833-11.833L30.311 20zM35 39.501c-1.93 0-3.5-1.57-3.5-3.5 0-1.511 2.229-6.01 3.5-8.395 1.271 2.386 3.5 6.884 3.5 8.395C38.5 37.931 36.93 39.501 35 39.501z"/><path fill="#4788c7" d="M35 28.676c1.402 2.701 3 6.159 3 7.324 0 1.654-1.346 3-3 3s-3-1.346-3-3C32 34.836 33.598 31.378 35 28.676M35 26.556c0 0-4 7.236-4 9.445s1.791 4 4 4 4-1.791 4-4S35 26.556 35 26.556L35 26.556zM14.793 4.5l-3.647-3.647c-.194-.194-.194-.513 0-.707l0 0c.194-.194.513-.194.707 0L15.5 3.793c.194.194.194.513 0 .707v0C15.306 4.694 14.987 4.694 14.793 4.5z"/></svg>