<svg xmlns="http://www.w3.org/2000/svg"  viewBox="0 0 40 40" width="80px" height="80px"><path fill="#98ccfd" d="M20,38.5C9.799,38.5,1.5,30.201,1.5,20S9.799,1.5,20,1.5S38.5,9.799,38.5,20S30.201,38.5,20,38.5z"/><path fill="#4788c7" d="M20,2c9.925,0,18,8.075,18,18s-8.075,18-18,18S2,29.925,2,20S10.075,2,20,2 M20,1 C9.507,1,1,9.507,1,20s8.507,19,19,19s19-8.507,19-19S30.493,1,20,1L20,1z"/><path fill="#fff" d="M23 20h3v-9.5C26 9.672 25.328 9 24.5 9h0C23.672 9 23 9.672 23 10.5V20zM15 20h3V8.5C18 7.672 17.328 7 16.5 7h0C15.672 7 15 7.672 15 8.5V20zM11 23h3V12.5c0-.828-.672-1.5-1.5-1.5h0c-.828 0-1.5.672-1.5 1.5V23zM19 20h3V7.5C22 6.672 21.328 6 20.5 6h0C19.672 6 19 6.672 19 7.5V20zM21.554 27.567l2.879 2.879 6.971-6.971c.795-.795.795-2.084 0-2.879l0 0c-.795-.795-2.084-.795-2.879 0L21.554 27.567z"/><path fill="#fff" d="M20.678,32H16c-2.761,0-5-2.239-5-5v-9h15v8.678C26,29.617,23.617,32,20.678,32z"/></svg>