<?xml version="1.0" encoding="UTF-8" standalone="no"?>
<!DOCTYPE svg PUBLIC "-//W3C//DTD SVG 1.1//EN" "http://www.w3.org/Graphics/SVG/1.1/DTD/svg11.dtd">
<svg width="100%" height="100%" viewBox="0 0 109 105" version="1.1" xmlns="http://www.w3.org/2000/svg" xmlns:xlink="http://www.w3.org/1999/xlink" xml:space="preserve" xmlns:serif="http://www.serif.com/" style="fill-rule:evenodd;clip-rule:evenodd;stroke-linecap:round;stroke-linejoin:round;stroke-miterlimit:1.5;">
    <g transform="matrix(1,0,0,1,-100.5,0.5)">
        <path d="M111.1,101.044C149.869,109.584 202.903,89.9 202.903,89.9C202.903,89.9 192.718,72.842 185.955,64.965C178.736,56.557 159.591,39.452 159.591,39.452C159.591,39.452 191.454,68.807 181.208,83.471C172.443,96.016 154.44,99.138 111.1,101.044ZM135,3C109,33 101,89 101,89C101,89 120.851,88.186 131,86C141.833,83.667 166,75 166,75C166,75 125,89 117,73C110.156,59.311 116,42 135,3ZM208.661,73.549C196.413,35.787 152.603,0 152.603,0C152.603,0 143.042,17.416 139.669,27.234C136.068,37.715 131,62.883 131,62.883C131,62.883 140.201,20.547 158.033,21.966C173.289,23.18 185.09,37.129 208.661,73.549Z" style="fill:rgb(152,204,253);stroke:rgb(71,136,199);stroke-width:1px;"/>
    </g>
</svg>
