<svg xmlns="http://www.w3.org/2000/svg"  viewBox="0 0 40 40" width="80px" height="80px"><path fill="#dff0fe" d="M12.267 13L0 13 0 17 11.467 17zM10.567 22L11.1 19 0 19 0 22zM10 26L10.267 24 0 24 0 26z"/><path fill="#fff" d="M7.605 32.5L12.413 7.5 39.39 7.5 34.39 32.5z"/><path fill="#4788c7" d="M38.78,8l-4.8,24H8.211l4.615-24H38.78 M40,7H12L7,33h27.8L40,7L40,7z"/><path fill="#98ccfd" d="M13.562 24.5L15.408 15.5 33.39 15.5 31.59 24.5z"/><path fill="#4788c7" d="M32.78,16l-1.6,8H14.175l1.641-8H32.78 M34,15H15l-2.051,10H32L34,15L34,15z"/><path fill="#fff" d="M16.4 21L30 21 30.6 18 17 18z"/><path fill="#4788c7" d="M19.717 21L20.317 18 19.297 18 18.697 21z"/><g><path fill="#98ccfd" d="M12.826 8L12.057 12 37.98 12 38.78 8z"/></g></svg>