<svg xmlns="http://www.w3.org/2000/svg"  viewBox="0 0 40 40" width="80px" height="80px"><path fill="#c1e3f7" d="M39,20c0,10.6-8.6,19-19,19C9.6,39,1,30.6,1,20S9.4,1,20,1S39,9.4,39,20z"/><path fill="#7290bb" d="M20,1C20,1,20,1,20,1C20,1,20,1,20,1C20,1,20,1,20,1C9.4,1,1,9.4,1,20c0,4.1,1.3,7.9,3.5,11v0h0 c3.5,4.8,9.1,8,15.5,8c0,0,0,0,0,0c0,0,0,0,0,0c0,0,0,0,0,0c0.7,0,1.3,0,2-0.1c0.4,0,0.7-0.1,1.1-0.1c2.3-0.4,4.4-1.2,6.3-2.3 l-0.7-0.7c-0.9,0.5-1.9,1-3,1.3c-1.3,0.4-2.8,0.7-3.9,0.7c0.1-0.1,0.2-0.3,0.3-0.4V35c-0.7,2-1.5,3-2,3c0,0,0,0,0,0 c-0.8,0-2.2-2.4-3.1-7H22v-1h-5.2c-0.3-1.7-0.5-3.7-0.7-6H22v-1h-5.9c0-1-0.1-2-0.1-3s0-2,0.1-3h7.9c0,1,0.1,2,0.1,3 c0,0.7,0,1.4,0,2h1c0-0.7,0-1.3,0-2c0-1,0-2-0.1-3h6.9c0.1,1,0.2,2,0.2,3c0,0.7,0,1.3-0.1,2h1c0.1-0.7,0.1-1.3,0.1-2 c0-1-0.1-2-0.2-3h4.9c0.2,1,0.3,2,0.3,3c0,0.7-0.1,1.3-0.1,2c0,0.3-0.1,0.7-0.1,1l-0.2,1c0,0.1-0.1,0.3-0.1,0.4 c-0.4,1.5-0.9,2.9-1.7,4.3l0.7,0.7c1.1-1.9,1.9-4.1,2.3-6.3c0.1-0.4,0.1-0.7,0.1-1.1c0.1-0.7,0.1-1.3,0.1-2C39,9.4,30.6,1,20,1z M34.3,9h-3.7c-1.3-2.6-3-4.7-5-6.1C29.1,4,32.1,6.1,34.3,9z M20,2L20,2c0.8,0,2.2,2.4,3.1,7h-6.1C17.8,4.4,19.2,2,20,2z M14.4,2.9 c-2,1.4-3.7,3.5-5,6.1H5.7C7.9,6.1,10.9,4,14.4,2.9z M15.1,23H8.2C8.1,22,8,21,8,20s0.1-2,0.2-3h6.9c0,1-0.1,2-0.1,3S15,22,15.1,23 z M15.1,24c0.1,2.2,0.3,4.2,0.6,6H10c-0.8-1.8-1.4-3.8-1.7-6H15.1z M15.1,16H8.3c0.3-2.2,0.9-4.2,1.7-6h5.7 C15.5,11.8,15.2,13.8,15.1,16z M5,9.9L5,9.9L9,10c-0.8,1.8-1.3,3.8-1.7,6H2.4C2.9,13.8,3.8,11.7,5,9.9z M2,20c0-1,0.1-2,0.3-3h4.9 C7.1,18,7,19,7,20s0.1,2,0.2,3H2.3C2.1,22,2,21,2,20z M2.5,24h4.8c0.3,2.2,0.9,4.2,1.7,6H5C3.8,28.2,3,26.2,2.5,24z M5.8,31h3.6 c1.3,2.6,2.9,4.7,4.9,6.1C10.9,35.9,7.9,33.8,5.8,31z M18.3,37.8c-3.1-0.7-5.9-3.2-7.7-6.8h5.4C16.5,34.1,17.3,36.5,18.3,37.8z M15.9,9h-5.4c1.9-3.6,4.6-6.1,7.7-6.8C17.3,3.5,16.5,5.9,15.9,9z M16.1,16c0.1-2.3,0.4-4.3,0.7-6h6.5c0.3,1.7,0.5,3.7,0.7,6H16.1z M21.7,2.2c3.1,0.7,5.9,3.2,7.7,6.8h-5.4C23.5,5.9,22.7,3.5,21.7,2.2z M24.9,16c-0.1-2.2-0.3-4.2-0.6-6H30c0.8,1.8,1.4,3.8,1.7,6 H24.9z M32.7,16c-0.3-2.2-0.9-4.2-1.7-6h4V9.9c1.2,1.8,2.1,3.9,2.6,6.1H32.7z"/><path fill="#dff0fe" d="M39,20c0,10.6-8.6,19-19,19C9.6,39,1,30.6,1,20S9.4,1,20,1S39,9.4,39,20z"/><path fill="#4788c7" d="M2 16H38V17H2zM2 23H22V24H2zM4.5 30H22V31H4.5zM5 9H35V10H5z"/><path fill="#4788c7" d="M28.7,35.8C26.1,37.2,23.1,38,20,38c-9.9,0-18-8.1-18-18C2,9.9,9.9,2,20,2s18,7.9,18,18c0,3.1-0.8,6.1-2.2,8.7 l0.7,0.7c1.6-2.8,2.5-6,2.5-9.4C39,9.4,30.6,1,20,1S1,9.4,1,20s8.6,19,19,19c3.4,0,6.6-0.9,9.4-2.5L28.7,35.8z"/><path fill="#98ccfd" d="M40.1 35.9L31.6 27.4 35 24 24 24 24 35 27.4 31.6 35.9 40.1z"/><path fill="#4788c7" d="M32.6,25l-1.7,1.7l-0.7,0.7l0.7,0.7l7.8,7.8l-2.8,2.8l-7.8-7.8l-0.7-0.7l-0.7,0.7L25,32.6V25H32.6 M35,24H24 v11l3.4-3.4l8.5,8.5l4.2-4.2l-8.5-8.5L35,24L35,24z"/><path fill="#4788c7" d="M20,1C12.8,1,7,9.5,7,20s5.8,19,13,19c0.1,0,0.2,0,0.3,0c0.6,0,1.1-0.1,1.7-0.2v-1v0V35c-0.7,2-1.5,3-2,3 c-1.4,0-4-6.4-4-18s2.6-18,4-18s4,6.4,4,18c0,0.7,0,1.4,0,2h1c0-0.7,0-1.3,0-2c0-8.2-1.4-15.1-3.3-17.8C27.5,3.5,32,11,32,20 c0,0.7,0,1.3-0.1,2h1c0-0.7,0.1-1.3,0.1-2C33,9.5,27.2,1,20,1z M15,20c0,8.2,1.4,15.1,3.3,17.8C12.5,36.5,8,29,8,20 S12.5,3.5,18.3,2.2C16.4,4.9,15,11.8,15,20z"/></svg>