<svg xmlns="http://www.w3.org/2000/svg"  viewBox="0 0 40 40" width="80px" height="80px"><path fill="#dff0fe" d="M1.512,35.5c0.269-5.559,4.982-10,10.738-10h7.5c1.716,0,3.404,0.399,4.918,1.161 c-1.932,2.613-0.792,7.126-0.254,8.839H1.512z"/><path fill="#4788c7" d="M19.75,26c1.45,0,2.879,0.299,4.189,0.871c-1.421,2.515-0.731,6.169-0.192,8.129H2.051 c0.516-5.046,4.893-9,10.199-9H19.75 M19.75,25h-7.5C6.037,25,1,29.925,1,36h24.112c0,0-2.514-6.659,0.341-9.484 C23.78,25.553,21.831,25,19.75,25L19.75,25z"/><path fill="#fff" d="M16,28.5c-3.055,0-4.3-2.645-4.5-3.124v-5.467h9v5.469C20.297,25.875,19.075,28.5,16,28.5z"/><path fill="#4788c7" d="M20,20.41v4.865C19.737,25.865,18.607,28,16,28c-2.611,0-3.741-2.141-4-2.725V20.41H20 M21,19.41 H11v6.062c0,0,1.267,3.529,5,3.529s5-3.529,5-3.529V19.41L21,19.41z"/><path fill="#b6dcfe" d="M22.429,17.643c-1.143,0-2.071-0.929-2.071-2.071s0.929-2.071,2.071-2.071 c1.725,0,2.071,0.465,2.071,1.214C24.5,15.966,23.476,17.643,22.429,17.643z M9.571,17.643c-1.047,0-2.071-1.677-2.071-2.929 c0-0.749,0.347-1.214,2.071-1.214c1.143,0,2.071,0.929,2.071,2.071S10.714,17.643,9.571,17.643z"/><path fill="#4788c7" d="M22.429,14C24,14,24,14.363,24,14.714c0,1.044-0.896,2.429-1.571,2.429 c-0.867,0-1.571-0.705-1.571-1.571S21.562,14,22.429,14 M9.571,14c0.867,0,1.571,0.705,1.571,1.571s-0.705,1.571-1.571,1.571 C8.896,17.143,8,15.758,8,14.714C8,14.363,8,14,9.571,14 M22.429,13c-1.42,0-2.571,1.151-2.571,2.571s1.151,2.571,2.571,2.571 S25,16.134,25,14.714S23.849,13,22.429,13L22.429,13z M9.571,13C8.151,13,7,13.294,7,14.714s1.151,3.429,2.571,3.429 s2.571-1.151,2.571-2.571S10.992,13,9.571,13L9.571,13z"/><g><path fill="#fff" d="M16,24.5c-0.58,0-1.135-0.224-1.56-0.631l-0.09-0.086l-0.12-0.034 C11.445,22.963,9.5,20.393,9.5,17.5V9.364c0-1.564,1.272-2.837,2.836-2.837h7.328c1.563,0,2.836,1.272,2.836,2.837V17.5 c0,2.893-1.945,5.463-4.73,6.249l-0.12,0.034l-0.09,0.086C17.135,24.276,16.58,24.5,16,24.5z"/><path fill="#4788c7" d="M19.664,7.028C20.952,7.028,22,8.076,22,9.364V17.5c0,2.67-1.796,5.042-4.367,5.768l-0.239,0.068 l-0.18,0.172C16.882,23.825,16.451,24,16,24s-0.882-0.175-1.215-0.492l-0.18-0.172l-0.239-0.068C11.796,22.542,10,20.17,10,17.5 V9.364c0-1.288,1.048-2.336,2.336-2.336H19.664 M19.664,6.028h-7.328C10.494,6.028,9,7.521,9,9.364V17.5 c0,3.205,2.156,5.9,5.095,6.731C14.591,24.705,15.26,25,16,25s1.409-0.295,1.905-0.769C20.844,23.4,23,20.705,23,17.5V9.364 C23,7.521,21.506,6.028,19.664,6.028L19.664,6.028z"/></g><g><path fill="#b6dcfe" d="M22.5,15.5V12c0-3.484-2.218-4.425-2.312-4.463l-0.343-0.14l-0.234,0.287 C19.589,7.713,17.283,10.5,14,10.5c-0.264,0-0.529-0.009-0.791-0.017c-0.265-0.009-0.525-0.017-0.778-0.017 c-0.877,0-2.931,0-2.931,2.533v2.5H9.285C8.845,14.727,7.5,12.151,7.5,9.576C7.5,4.821,10.995,1.5,16,1.5 c3.095,0,4.543,2.704,4.557,2.731l0.119,0.228l0.253,0.036C22.462,4.715,24.5,5.524,24.5,10c0,2.334-1.338,4.763-1.778,5.5H22.5z"/><path fill="#4788c7" d="M16,2c2.762,0,4.062,2.367,4.113,2.463l0.237,0.454l0.507,0.073C22.321,5.199,24,5.958,24,10 c0,1.395-0.515,2.842-1,3.894V12c0-3.816-2.516-4.883-2.623-4.926l-0.687-0.279l-0.467,0.577C19.201,7.397,17.06,10,14,10 c-0.259,0-0.519-0.008-0.775-0.017c-0.27-0.009-0.537-0.017-0.794-0.017C11.582,9.966,9,9.966,9,13v0.801 c-0.486-1.124-1-2.679-1-4.225C8,5.115,11.29,2,16,2 M16,1c-5.36,0-9,3.667-9,8.576C7,12.828,9,16,9,16h1c0,0,0-2.105,0-3 c0-1.791,1.085-2.034,2.431-2.034C12.932,10.966,13.469,11,14,11c3.573,0,6-3,6-3s2,0.813,2,4c0,0.984,0,4,0,4h1c0,0,2-3.037,2-6 c0-4.161-1.703-5.671-4-6C21,4,19.434,1,16,1L16,1z"/></g><g><path fill="#98ccfd" d="M30.5,39.5c-4.963,0-9-4.037-9-9s4.037-9,9-9s9,4.037,9,9S35.463,39.5,30.5,39.5z M27.581,35.712 l0.7,0.283c0.712,0.288,1.459,0.434,2.219,0.434c3.27,0,5.929-2.659,5.929-5.929c0-0.76-0.146-1.506-0.433-2.219l-0.282-0.702 L27.581,35.712z M30.5,24.571c-3.27,0-5.929,2.659-5.929,5.929c0,0.76,0.146,1.507,0.434,2.219l0.283,0.7l8.133-8.133 l-0.702-0.282C32.006,24.717,31.26,24.571,30.5,24.571z"/><path fill="#4788c7" d="M30.5,22c4.687,0,8.5,3.813,8.5,8.5S35.187,39,30.5,39c-4.687,0-8.5-3.813-8.5-8.5 S25.813,22,30.5,22 M25.107,34.307l1.068-1.068l7.064-7.064l1.068-1.068l-1.401-0.566c-0.771-0.312-1.581-0.47-2.407-0.47 c-3.545,0-6.429,2.884-6.429,6.429c0,0.826,0.158,1.635,0.47,2.406L25.107,34.307 M30.5,36.929c3.545,0,6.429-2.884,6.429-6.429 c0-0.826-0.158-1.636-0.47-2.407l-0.566-1.4l-1.068,1.068l-7.064,7.064l-1.068,1.068l1.4,0.566 C28.865,36.77,29.674,36.929,30.5,36.929 M30.5,21c-5.247,0-9.5,4.253-9.5,9.5c0,5.247,4.253,9.5,9.5,9.5s9.5-4.253,9.5-9.5 C40,25.253,35.747,21,30.5,21L30.5,21z M25.468,32.532c-0.254-0.628-0.397-1.313-0.397-2.032c0-2.998,2.43-5.429,5.429-5.429 c0.719,0,1.404,0.143,2.032,0.397L25.468,32.532L25.468,32.532z M30.5,35.929c-0.719,0-1.404-0.143-2.032-0.397l7.063-7.063 c0.254,0.628,0.397,1.313,0.397,2.032C35.929,33.498,33.498,35.929,30.5,35.929L30.5,35.929z"/></g></svg>