<svg xmlns="http://www.w3.org/2000/svg"  viewBox="0 0 40 40" width="80px" height="80px"><path fill="#dff0fe" d="M2.5 37.5L2.5 8.175 6.24 3.5 33.759 3.5 37.5 8.175 37.5 37.5z"/><path fill="#4788c7" d="M33.519,4L37,8.351V37H3V8.351L6.48,4H33.519 M33.999,3H6L2,8v30h36V8L33.999,3L33.999,3z"/><path fill="#98ccfd" d="M2.5 8.5L2.5 8.175 6.24 3.5 33.759 3.5 37.5 8.175 37.5 8.5z"/><path fill="#4788c7" d="M33.519,4l3.2,4H3.281l3.2-4H33.519 M33.999,3H6L2,8v1h36V8L33.999,3L33.999,3z"/><path fill="#dff0fe" d="M5.954 8.5L16.432 1.597 27.156 8.5z"/><path fill="#4788c7" d="M16.435,2.193L25.456,8H7.621L16.435,2.193 M16.429,1L4.286,9h24.571L16.429,1L16.429,1z"/><g><path fill="#fff" d="M11.514 8.5L22.983 1.594 33.096 8.5z"/><path fill="#4788c7" d="M22.966,2.188L31.477,8H13.314L22.966,2.188 M23,1L9.714,9h25L23,1L23,1z"/></g><path fill="#ffc49c" stroke="#4788c7" stroke-miterlimit="10" d="M2 8.5L38 8.5"/><g><path fill="#4788c7" d="M24,13h-4h-4c-0.552,0-1,0.448-1,1c0,0.552,0.448,1,1,1h4h4c0.552,0,1-0.448,1-1 C25,13.448,24.552,13,24,13z"/></g></svg>