<svg xmlns="http://www.w3.org/2000/svg"  viewBox="0 0 40 40" width="80px" height="80px"><path fill="#dff0fe" d="M12.5 1.5H27.5V7.5H12.5z"/><path fill="#4788c7" d="M27,2v5H13V2H27 M28,1H12v7h16V1L28,1z"/><path fill="#dff0fe" d="M6.5 4.5H33.5V38.5H6.5z"/><path fill="#4788c7" d="M33,5v33H7V5H33 M34,4H6v35h28V4L34,4z"/><path fill="#98ccfd" d="M17.5 32.5H22.5V38.5H17.5z"/><path fill="#4788c7" d="M22,33v5h-4v-5H22 M23,32h-6v7h6V32L23,32z"/><path fill="#98ccfd" d="M17 26H23V29H17zM17 20H23V23H17zM17 14H23V17H17zM17 8H23V11H17zM25 26H31V29H25zM25 20H31V23H25zM25 14H31V17H25zM25 8H31V11H25zM9 26H15V29H9zM25 32H31V35H25zM9 32H15V35H9z"/><g><path fill="#98ccfd" d="M9 20H15V23H9z"/></g><g><path fill="#98ccfd" d="M9 14H15V17H9z"/></g><g><path fill="#98ccfd" d="M9 8H15V11H9z"/></g></svg>