<svg xmlns="http://www.w3.org/2000/svg"  viewBox="0 0 40 40" width="40px" height="40px"><path fill="#98ccfd" d="M20.614,2.5c-4.851,0-9.926,1.849-11.06,7.782c-0.121,0.632,0.062,0.89,0.479,0.982l4.878,0.221 c0.463-0.025,0.832-0.454,0.921-0.91C16.256,8.531,17.979,7.5,19.921,7.5c1.049,0,2.236,0.725,2.856,1.654 c0.717,1.037,0.707,2.484,0.707,3.686v0.682c-2.955,0.329-6.919,0.492-9.682,1.695C10.609,16.582,8.5,19.404,8.5,23.5 c0,5.241,3.22,8,7.511,8c3.625,0,5.58-1.02,8.378-3.841c0.925,1.326,1.271,1.358,2.964,2.753c0.381,0.202,0.861,0.165,1.197-0.135 c0,0,2.707-1.841,3.745-2.708c0.414-0.338,0.325-0.864,0-1.324c-0.932-1.274-1.796-2.331-1.796-4.696v-7.84 c0-3.33,0.281-6.411-2.199-8.705C26.344,3.147,23.092,2.5,20.614,2.5z M21.994,17.537c0.46-0.03,1.044-0.037,1.506-0.037v1.13 c0.001,1.967-0.046,3.585-1.047,5.333c-0.811,1.419-2.113,2.537-3.544,2.537c-1.956,0-3.342-1.722-3.342-3.906 C15.568,18.837,18.778,17.747,21.994,17.537z"/><path fill="#4788c7" d="M16.011,32C11.145,32,8,28.664,8,23.5c0-4.092,1.991-7.197,5.605-8.744 c2.352-1.024,5.526-1.332,8.327-1.604c0.406-0.04,0.672-0.041,1.052-0.08v-0.233c0-0.979,0.052-2.432-0.618-3.401 C21.816,8.615,20.768,8,19.921,8c-1.843,0-3.251,1-3.599,2.676c-0.121,0.617-0.636,1.268-1.384,1.308l-4.932-0.221 c-0.497-0.103-1.163-0.429-0.943-1.576C10.061,4.965,14.237,2,20.614,2c1.231,0,5.45,0.19,8.032,2.642 C31.052,6.867,31.024,9.744,31,12.79v8.759c0,2.088,0.69,3.028,1.565,4.219l0.134,0.183c0.528,0.749,0.492,1.534-0.088,2.006 c-1.041,0.869-3.668,2.658-3.78,2.733c-0.383,0.353-1.149,0.463-1.713,0.163l-0.083-0.056c-0.463-0.381-0.825-0.66-1.125-0.891 c-0.669-0.516-1.064-0.82-1.582-1.484C21.547,31.12,19.458,32,16.011,32z M19.921,7c1.189,0,2.535,0.771,3.272,1.876 c0.825,1.193,0.791,2.85,0.791,3.963v1.129l-0.445,0.05c-0.517,0.057-0.938,0.073-1.511,0.129 c-2.727,0.265-5.817,0.565-8.027,1.527C10.775,17.055,9,19.833,9,23.5c0,4.626,2.687,7.5,7.011,7.5 c3.341,0,5.216-0.863,8.023-3.693l0.422-0.426l0.343,0.492c0.625,0.896,0.946,1.143,1.722,1.741 c0.297,0.229,0.653,0.503,1.105,0.875c0.159,0.07,0.361,0.12,0.591-0.085c0.079-0.059,2.75-1.877,3.758-2.719 c0.206-0.168,0.033-0.48-0.088-0.651l-0.127-0.174C30.854,25.128,30,23.965,30,21.549l0.005-8.767 c0.023-2.94,0.043-5.48-2.043-7.41C26.119,3.622,22.958,3,20.614,3c-3.438,0-9.337,0.932-10.569,7.375 c-0.052,0.27-0.016,0.357-0.012,0.364l0,0c0.001,0,0.028,0.019,0.108,0.037l4.797,0.21c0.142-0.011,0.351-0.243,0.403-0.507 C15.791,8.313,17.583,7,19.921,7z M18.909,27c-2.19,0-3.841-1.894-3.841-4.406c0-2.33,1.196-5.186,6.894-5.556 C22.431,17.008,23.028,17,23.5,17H24v1.63c0.001,2.127-0.077,3.772-1.113,5.582C21.89,25.958,20.403,27,18.909,27z M23,18.003 c-0.331,0.004-0.678,0.014-0.973,0.034c-4.01,0.26-5.959,1.751-5.959,4.558c0,1.941,1.222,3.406,2.841,3.406 c1.113,0,2.305-0.875,3.11-2.285c0.915-1.599,0.982-3.051,0.981-5.084V18.003z"/><g><path fill="#dff0fe" d="M35.955,29.5c-1.311,0.019-2.847,0.958-4.023,1.774c-0.361,0.251-0.308,0.605,0.093,0.558 c1.323-0.157,3.483-0.699,4.35,0.168c0.525,0.666-0.058,2.834-0.551,4.059c-0.15,0.369,0.175,0.512,0.513,0.231 c2.201-1.823,2.704-4.963,1.84-5.819C37.953,30.201,37.268,29.481,35.955,29.5z M1.67,31.26c-0.274,0.036-0.381,0.393-0.093,0.651 C6.47,36.284,12.729,38.5,19.909,38.5c5.122,0,10.164-1.09,14.267-4.088c0.678-0.498,0.265-1.147-0.429-0.854 c-4.6,1.933-8.937,1.942-13.485,1.942C13.52,35.5,7.277,34.393,2,31.353C1.883,31.287,1.76,31.248,1.67,31.26z"/><path fill="#4788c7" d="M19.909,39C12.51,39,6.23,36.74,1.245,32.283c-0.289-0.258-0.404-0.627-0.301-0.961 c0.094-0.303,0.347-0.516,0.662-0.558c0.321-0.004,0.514,0.081,0.642,0.154C7.015,33.666,12.907,35,20.263,35 c4.505,0,8.761,0,13.291-1.903c0.612-0.259,1.255-0.023,1.426,0.499c0.108,0.331,0.032,0.824-0.507,1.22 C30.672,37.592,25.772,39,19.909,39z M3.026,32.476C7.643,36.146,13.312,38,19.909,38c5.587,0,10.249-1.315,13.858-3.909 C29.117,36,24.815,36,20.263,36C13.366,36,7.708,34.845,3.026,32.476z M35.997,36.938L35.997,36.938 c-0.246,0-0.461-0.111-0.591-0.304c-0.083-0.123-0.199-0.386-0.045-0.764c0.652-1.62,0.87-3.245,0.622-3.561 c-0.182-0.177-0.608-0.289-1.226-0.289c-0.601,0-1.29,0.105-1.896,0.198c-0.277,0.042-0.539,0.082-0.775,0.11l-0.129,0.008 c-0.356,0-0.637-0.189-0.733-0.495c-0.107-0.34,0.06-0.724,0.424-0.978c1.234-0.857,2.838-1.843,4.302-1.864c0,0,0,0,0.001,0 c1.452,0,2.257,0.722,2.612,1.152c0.354,0.347,0.547,1.011,0.51,1.833c-0.058,1.288-0.725,3.288-2.417,4.69 C36.449,36.847,36.221,36.938,35.997,36.938z M34.756,31.021c0.906,0,1.551,0.205,1.972,0.626c0.635,0.803,0.238,2.555-0.108,3.659 c0.953-1.08,1.409-2.396,1.453-3.364c0.027-0.614-0.11-0.979-0.249-1.115C37.547,30.494,36.991,30,36.005,30 c-0.975,0.014-2.107,0.597-3.047,1.192C33.535,31.105,34.165,31.021,34.756,31.021z"/></g></svg>