<svg xmlns="http://www.w3.org/2000/svg"  viewBox="0 0 40 40" width="40px" height="40px"><path fill="#dff0fe" d="M4.342,21.046c-1.208,0-2.286-0.767-2.683-1.909c-0.25-0.717-0.205-1.488,0.126-2.171 c0.33-0.683,0.907-1.196,1.624-1.446l27.305-9.496c0.303-0.105,0.616-0.159,0.934-0.159c1.207,0,2.286,0.767,2.683,1.909 c0.25,0.717,0.205,1.488-0.126,2.171c-0.33,0.683-0.907,1.196-1.624,1.446L5.275,20.888C4.973,20.993,4.659,21.046,4.342,21.046z"/><path fill="#4788c7" d="M31.647,6.366L31.647,6.366c0.995,0,1.884,0.632,2.211,1.573c0.424,1.219-0.223,2.556-1.442,2.98 L5.111,20.416c-0.25,0.087-0.508,0.131-0.769,0.131c-0.995,0-1.884-0.632-2.211-1.573c-0.424-1.219,0.223-2.556,1.442-2.98 l27.305-9.496C31.127,6.41,31.386,6.366,31.647,6.366 M31.647,5.366c-0.364,0-0.734,0.06-1.098,0.186L3.245,15.048 c-1.743,0.606-2.665,2.51-2.058,4.253c0.48,1.38,1.773,2.245,3.156,2.245c0.364,0,0.734-0.06,1.098-0.186l27.305-9.496 c1.743-0.606,2.664-2.51,2.058-4.253C34.323,6.231,33.03,5.366,31.647,5.366L31.647,5.366z"/><path fill="#b6dcfe" d="M8.353,34.134c-1.207,0-2.286-0.767-2.683-1.909c-0.25-0.717-0.205-1.488,0.126-2.171 c0.33-0.683,0.907-1.196,1.624-1.446l27.305-9.496c0.303-0.105,0.616-0.158,0.934-0.158c1.208,0,2.286,0.767,2.683,1.909 c0.25,0.717,0.205,1.488-0.126,2.171c-0.33,0.683-0.907,1.196-1.624,1.446L9.286,33.975C8.983,34.08,8.67,34.134,8.353,34.134z"/><path fill="#4788c7" d="M35.658,19.454L35.658,19.454c0.995,0,1.884,0.632,2.211,1.573c0.424,1.219-0.223,2.556-1.442,2.98 L9.122,33.503c-0.25,0.087-0.508,0.131-0.769,0.131c-0.995,0-1.884-0.632-2.211-1.573c-0.424-1.219,0.223-2.556,1.442-2.98 l27.305-9.496C35.138,19.498,35.397,19.454,35.658,19.454 M35.658,18.454c-0.364,0-0.734,0.06-1.098,0.186L7.256,28.136 c-1.743,0.606-2.664,2.51-2.058,4.253v0c0.48,1.38,1.773,2.245,3.156,2.245c0.364,0,0.734-0.06,1.098-0.186l27.305-9.496 c1.743-0.606,2.665-2.51,2.058-4.253C38.334,19.318,37.041,18.453,35.658,18.454L35.658,18.454z"/><path fill="#98ccfd" d="M31.291,34.489c-1.208,0-2.286-0.767-2.683-1.909L19.112,5.276c-0.515-1.48,0.271-3.103,1.75-3.617 C21.165,1.554,21.479,1.5,21.796,1.5c1.208,0,2.287,0.767,2.684,1.909l9.495,27.304c0.25,0.717,0.205,1.488-0.126,2.171 c-0.33,0.683-0.907,1.196-1.624,1.446C31.922,34.436,31.608,34.489,31.291,34.489z"/><path fill="#4788c7" d="M21.796,2L21.796,2c0.995,0,1.884,0.632,2.211,1.573l9.496,27.305 c0.424,1.219-0.223,2.556-1.442,2.98c-0.25,0.087-0.508,0.131-0.769,0.131c-0.995,0-1.884-0.632-2.211-1.573L19.584,5.111 c-0.205-0.591-0.169-1.226,0.104-1.789c0.272-0.563,0.748-0.986,1.339-1.192C21.276,2.044,21.535,2,21.796,2 M21.796,1 c-0.364,0-0.734,0.06-1.098,0.186c-1.743,0.606-2.665,2.51-2.058,4.253l9.496,27.305c0.48,1.38,1.773,2.245,3.156,2.245 c0.364,0,0.734-0.06,1.098-0.186c1.743-0.606,2.665-2.51,2.058-4.253L24.952,3.245C24.472,1.865,23.179,1,21.796,1L21.796,1z"/><path fill="#98ccfd" d="M25.865 21.365H31.548V27.046999999999997H25.865z" transform="rotate(-19.178 28.706 24.206)"/><path fill="#4788c7" d="M30.149,21.226l1.538,4.423l-4.423,1.538l-1.538-4.423L30.149,21.226 M30.765,19.953l-6.312,2.195 l2.195,6.312l6.312-2.195L30.765,19.953L30.765,19.953z"/><g><path fill="#98ccfd" d="M21.372 8.446H27.054000000000002V14.128H21.372z" transform="rotate(-19.178 24.213 11.287)"/><path fill="#4788c7" d="M25.656,8.306l1.538,4.423l-4.423,1.538l-1.538-4.423L25.656,8.306 M26.272,7.033L19.96,9.228 l2.195,6.312l6.312-2.195L26.272,7.033L26.272,7.033z"/></g><g><path fill="#b6dcfe" d="M18.204,38.5c-1.208,0-2.287-0.767-2.684-1.909L6.025,9.287C5.775,8.569,5.82,7.798,6.151,7.115 c0.33-0.683,0.907-1.196,1.624-1.446c0.303-0.105,0.616-0.159,0.934-0.159c1.208,0,2.286,0.767,2.683,1.909l9.496,27.305 c0.515,1.48-0.271,3.103-1.75,3.617C18.835,38.446,18.521,38.5,18.204,38.5z"/><path fill="#4788c7" d="M8.709,6.011L8.709,6.011c0.995,0,1.884,0.632,2.211,1.573l9.496,27.305 c0.424,1.219-0.223,2.556-1.442,2.98C18.724,37.956,18.465,38,18.204,38c-0.995,0-1.884-0.632-2.211-1.573L6.497,9.122 C6.292,8.531,6.329,7.896,6.601,7.333C6.873,6.77,7.349,6.347,7.94,6.142C8.189,6.055,8.448,6.011,8.709,6.011 M8.709,5.011 c-0.364,0-0.734,0.06-1.098,0.186c-1.743,0.606-2.665,2.51-2.058,4.253l9.496,27.305c0.48,1.38,1.773,2.245,3.156,2.245 c0.364,0,0.734-0.06,1.098-0.186c1.743-0.606,2.665-2.51,2.058-4.253L11.864,7.256C11.385,5.876,10.092,5.011,8.709,5.011 L8.709,5.011z"/></g><g><path fill="#b6dcfe" d="M12.945 25.865H18.627000000000002V31.546999999999997H12.945z" transform="rotate(-19.178 15.786 28.706)"/><path fill="#4788c7" d="M17.229,25.726l1.538,4.423l-4.423,1.538l-1.538-4.423L17.229,25.726 M17.845,24.453l-6.312,2.195 l2.195,6.312l6.312-2.195L17.845,24.453L17.845,24.453z"/></g><g><path fill="#b6dcfe" d="M8.452 12.946H14.135V18.628H8.452z" transform="rotate(-19.172 11.295 15.789)"/><path fill="#4788c7" d="M12.736,12.806l1.538,4.423l-4.423,1.538l-1.538-4.423L12.736,12.806 M13.352,11.533L7.04,13.728 l2.195,6.312l6.312-2.195L13.352,11.533L13.352,11.533z"/></g></svg>