<svg xmlns="http://www.w3.org/2000/svg"  viewBox="0 0 40 40" width="80px" height="80px"><path fill="#4788c7" d="M38.5 10h-25C13.224 10 13 9.776 13 9.5v0C13 9.224 13.224 9 13.5 9h25C38.776 9 39 9.224 39 9.5v0C39 9.776 38.776 10 38.5 10zM38.5 21h-25c-.276 0-.5-.224-.5-.5l0 0c0-.276.224-.5.5-.5h25c.276 0 .5.224.5.5l0 0C39 20.776 38.776 21 38.5 21zM38.5 32h-25c-.276 0-.5-.224-.5-.5l0 0c0-.276.224-.5.5-.5h25c.276 0 .5.224.5.5l0 0C39 31.776 38.776 32 38.5 32z"/><path fill="none" stroke="#4788c7" stroke-linecap="round" stroke-miterlimit="10" stroke-width="2" d="M2 30L5 33 10 28M2 19L5 22 10 17M2 8L5 11 10 6"/></svg>