<svg xmlns="http://www.w3.org/2000/svg"  viewBox="0 0 40 40" width="80px" height="80px"><path fill="#fff" d="M13.5 38.5L13.5 26.5 1.5 26.5 1.5 1.5 26.5 1.5 26.5 13.5 38.5 13.5 38.5 38.5z"/><path fill="#4788c7" d="M26,2v11v1h1h11v24H14V27v-1h-1H2V2H26 M27,1H1v26h12v12h26V13H27V1L27,1z"/><path fill="#4788c7" d="M33 31L28 26 31 23 23 23 23 31 26 28 31 33zM14 12L9 7 7 9 12 14 9 17 17 17 17 9zM20.849 19.859l-.99.99c-.194.194-.513.194-.707 0l0 0c-.194-.194-.194-.513 0-.707l.99-.99c.194-.194.513-.194.707 0l0 0C21.043 19.346 21.043 19.664 20.849 19.859zM17.849 22.859l-.99.99c-.194.194-.513.194-.707 0l0 0c-.194-.194-.194-.513 0-.707l.99-.99c.194-.194.513-.194.707 0l0 0C18.043 22.346 18.043 22.664 17.849 22.859zM14.849 25.859l-.99.99c-.194.194-.513.194-.707 0h0c-.194-.194-.194-.513 0-.707l.99-.99c.194-.194.513-.194.707 0h0C15.043 25.346 15.043 25.664 14.849 25.859zM23.849 16.859l-.99.99c-.194.194-.513.194-.707 0l0 0c-.194-.194-.194-.513 0-.707l.99-.99c.194-.194.513-.194.707 0l0 0C24.043 16.346 24.043 16.664 23.849 16.859zM26.849 13.859l-.99.99c-.194.194-.513.194-.707 0v0c-.194-.194-.194-.513 0-.707l.99-.99c.194-.194.513-.194.707 0v0C27.043 13.346 27.043 13.664 26.849 13.859z"/></svg>