<?xml version="1.0" encoding="UTF-8" standalone="no"?>
<!DOCTYPE svg PUBLIC "-//W3C//DTD SVG 1.1//EN" "http://www.w3.org/Graphics/SVG/1.1/DTD/svg11.dtd">
<svg width="100%" height="100%" viewBox="0 0 100 92" version="1.1" xmlns="http://www.w3.org/2000/svg" xmlns:xlink="http://www.w3.org/1999/xlink" xml:space="preserve" xmlns:serif="http://www.serif.com/" style="fill-rule:evenodd;clip-rule:evenodd;stroke-linejoin:round;stroke-miterlimit:2;">
    <g id="path2606" transform="matrix(0.46875,0,0,-0.46875,45,7.32797)">
        <path d="M0,0L0,-180L32,-164.939L32,15.633L0,0Z" style="fill:rgb(152,204,253);fill-rule:nonzero;stroke:rgb(71,136,199);stroke-width:2.13px;"/>
    </g>
    <g id="path2610">
        <path d="M15,59.59C15,48.961 26.581,40.011 42.367,37.278L42.367,27.751C18.222,30.669 0,43.814 0,59.59C0,75.935 19.559,89.454 45,91.703L45,82.299C27.883,80.154 15,70.802 15,59.59ZM78.143,42.681C73.811,40.172 68.512,38.296 62.633,37.278L62.633,27.755C72.886,28.994 82.073,32.072 89.248,36.419L96.948,32.078L99.018,53.577L70.011,47.265L78.143,42.681Z" style="fill:rgb(223,240,254);fill-rule:nonzero;"/>
        <path d="M15,59.59C15,48.961 26.581,40.011 42.367,37.278L42.367,27.751C18.222,30.669 0,43.814 0,59.59C0,75.935 19.559,89.454 45,91.703L45,82.299C27.883,80.154 15,70.802 15,59.59ZM13.374,59.59C13.374,64.491 15.584,69.086 19.484,72.962C24.8,78.246 33.317,82.206 43.374,83.717C43.374,83.717 43.374,89.908 43.374,89.908C29.279,88.351 17.172,83.261 9.63,76.126C4.599,71.365 1.626,65.701 1.626,59.59C1.626,53.697 4.392,48.217 9.102,43.564C16.136,36.616 27.447,31.525 40.741,29.606C40.741,29.606 40.741,35.927 40.741,35.927C31.473,37.761 23.725,41.712 18.905,46.815C15.366,50.562 13.374,54.937 13.374,59.59ZM78.143,42.681C73.811,40.172 68.512,38.296 62.633,37.278L62.633,27.755C72.886,28.994 82.073,32.072 89.248,36.419L96.948,32.078L99.018,53.577L70.011,47.265L78.143,42.681ZM78.941,44.097C79.449,43.81 79.765,43.273 79.768,42.69C79.772,42.107 79.462,41.566 78.957,41.274C74.809,38.871 69.805,37.023 64.259,35.926C64.259,35.926 64.259,29.61 64.259,29.61C73.528,30.948 81.834,33.828 88.406,37.81C88.908,38.114 89.535,38.124 90.046,37.835L95.569,34.722C95.569,34.722 97.186,51.514 97.186,51.514C97.186,51.514 74.529,46.585 74.529,46.585C74.529,46.585 78.941,44.097 78.941,44.097Z" style="fill:rgb(71,136,199);"/>
    </g>
</svg>
