<svg xmlns="http://www.w3.org/2000/svg"  viewBox="0 0 40 40" width="80px" height="80px"><path fill="#dff0fe" d="M14.893 13.314H23.887V15.908H14.893z" transform="rotate(-45.001 19.39 14.61)"/><path fill="#4788c7" d="M21.652,11.221l1.127,1.127L17.127,18L16,16.873L21.652,11.221 M21.652,9.807l-0.707,0.707 l-5.652,5.652l-0.707,0.707l0.707,0.707l1.127,1.127l0.707,0.707l0.707-0.707l5.652-5.652l0.707-0.707l-0.707-0.707l-1.127-1.127 L21.652,9.807L21.652,9.807z"/><path fill="#dff0fe" d="M20.893 19.314H29.887V21.908H20.893z" transform="rotate(-45.001 25.39 20.61)"/><path fill="#4788c7" d="M27.652,17.221l1.127,1.127L23.127,24L22,22.873L27.652,17.221 M27.652,15.807l-0.707,0.707 l-5.652,5.652l-0.707,0.707l0.707,0.707l1.127,1.127l0.707,0.707l0.707-0.707l5.652-5.652l0.707-0.707l-0.707-0.707l-1.127-1.127 L27.652,15.807L27.652,15.807z"/><path fill="#98ccfd" d="M20.438,7.862l4.822-4.822c0.9-0.899,2.096-1.395,3.368-1.395c0,0,0,0,0,0 c1.272,0,2.468,0.496,3.368,1.395l1.334,1.335L36,1.707L38.293,4l-2.668,2.668l1.335,1.334c1.857,1.857,1.857,4.879,0,6.737 l-4.822,4.822L20.438,7.862z"/><path fill="#4788c7" d="M28.629,2.145c1.139,0,2.209,0.443,3.015,1.249l0.981,0.981l0.707,0.707l0.707-0.707L36,2.414 L37.586,4l-1.961,1.961l-0.707,0.707l0.707,0.707l0.981,0.981c0.805,0.805,1.249,1.876,1.249,3.015 c0,1.139-0.443,2.209-1.249,3.015l-4.468,4.468L21.146,7.862l4.468-4.468C26.419,2.589,27.49,2.145,28.629,2.145 M36,1 l-2.668,2.668L32.35,2.687c-1.028-1.028-2.375-1.542-3.722-1.542s-2.694,0.514-3.722,1.542l-5.175,5.175l12.406,12.406 l5.175-5.175c2.056-2.055,2.056-5.388,0-7.444l-0.981-0.981L39,4L36,1L36,1z"/><g><path fill="#98ccfd" d="M16.34,9.846l2.066-2.067c0.644-0.644,1.468-1.013,2.261-1.013c0.562,0,1.044,0.187,1.397,0.539 l10.63,10.63c0.877,0.878,0.665,2.519-0.475,3.658l-2.067,2.066L16.34,9.846z"/><path fill="#4788c7" d="M20.668,7.266c0.297,0,0.72,0.068,1.044,0.392l10.63,10.63c0.671,0.671,0.454,2.023-0.475,2.951 l-1.713,1.713L17.047,9.846l1.713-1.713C19.303,7.59,20.016,7.266,20.668,7.266 M20.668,6.266c-0.887,0-1.852,0.397-2.615,1.16 l-2.42,2.42l14.521,14.521l2.42-2.42c1.337-1.337,1.549-3.291,0.475-4.365l-10.63-10.63C21.958,6.49,21.334,6.266,20.668,6.266 L20.668,6.266z"/></g><g><path fill="#98ccfd" d="M11.178,38.548c-1.272,0-2.468-0.496-3.368-1.395l-1.334-1.335L4,38.293L1.707,36l2.475-2.475 L2.847,32.19c-1.857-1.857-1.857-4.879,0-6.737l4.822-4.822l11.699,11.699l-4.822,4.822 C13.646,38.052,12.45,38.548,11.178,38.548z"/><path fill="#4788c7" d="M7.669,21.339l10.992,10.992l-4.468,4.468c-0.805,0.805-1.876,1.249-3.015,1.249 s-2.209-0.443-3.015-1.249l-0.981-0.981l-0.707-0.707l-0.707,0.707L4,37.586L2.414,36l1.768-1.768l0.707-0.707l-0.707-0.707 l-0.981-0.981c-1.662-1.662-1.662-4.367,0-6.03L7.669,21.339 M7.669,19.925L2.494,25.1c-2.056,2.056-2.056,5.388,0,7.444 l0.981,0.981L1,36l3,3l2.475-2.475l0.981,0.981c1.028,1.028,2.375,1.542,3.722,1.542s2.694-0.514,3.722-1.542l5.175-5.175 L7.669,19.925L7.669,19.925z"/></g><g><path fill="#98ccfd" d="M19.278,33.51c-0.589,0-1.135-0.221-1.536-0.622l-10.63-10.63 c-0.877-0.877-0.818-2.365,0.133-3.316l1.725-1.725l13.814,13.813l-1.725,1.725C20.579,33.235,19.93,33.51,19.278,33.51 L19.278,33.51z"/><path fill="#4788c7" d="M8.969,17.924l13.107,13.107l-1.371,1.371c-0.387,0.387-0.907,0.608-1.427,0.608 c-0.456,0-0.876-0.169-1.183-0.476l-10.63-10.63c-0.322-0.322-0.49-0.764-0.475-1.244c0.017-0.505,0.232-0.99,0.607-1.365 L8.969,17.924 M8.969,16.51l-2.078,2.078c-1.148,1.148-1.207,2.949-0.133,4.024l10.63,10.63c0.514,0.514,1.194,0.768,1.89,0.768 c0.759,0,1.535-0.303,2.134-0.901l2.078-2.078L8.969,16.51L8.969,16.51z"/></g></svg>