<svg xmlns="http://www.w3.org/2000/svg"  viewBox="0 0 40 40" width="80px" height="80px"><path fill="#b6dcfe" d="M17.676,38.5l-1.125-4.501l-0.284-0.076c-2.458-0.658-4.696-1.946-6.473-3.724l-0.208-0.208 l-4.445,1.271l-2.324-4.025l3.335-3.225l-0.076-0.284C5.741,22.475,5.571,21.22,5.571,20s0.17-2.475,0.504-3.729l0.076-0.284 l-3.335-3.225l2.324-4.025l4.445,1.271l0.208-0.208c1.778-1.779,4.016-3.066,6.473-3.724l0.284-0.076L17.676,1.5h4.647 l1.125,4.501l0.284,0.076c2.457,0.657,4.695,1.945,6.473,3.724l0.208,0.208l4.445-1.271l2.324,4.025l-3.335,3.225l0.076,0.284 c0.335,1.253,0.505,2.507,0.505,3.728c0,1.22-0.17,2.475-0.504,3.729l-0.076,0.284l3.335,3.224l-2.324,4.026l-4.445-1.272 l-0.208,0.208c-1.777,1.779-4.016,3.066-6.473,3.724l-0.284,0.076L22.324,38.5H17.676z M20,12.036 c-4.392,0-7.964,3.573-7.964,7.964s3.573,7.964,7.964,7.964s7.964-3.573,7.964-7.964S24.392,12.036,20,12.036z"/><path fill="#4788c7" d="M21.933,2l0.959,3.837l0.143,0.571l0.569,0.152c2.372,0.635,4.532,1.878,6.248,3.594l0.416,0.417 l0.566-0.162l3.787-1.083l1.934,3.349l-2.843,2.749l-0.423,0.409l0.152,0.568c0.324,1.211,0.488,2.422,0.488,3.599 c0,1.177-0.164,2.388-0.488,3.599l-0.152,0.568l0.423,0.409l2.843,2.749l-1.934,3.349l-3.787-1.083l-0.566-0.162l-0.416,0.417 c-1.715,1.716-3.876,2.959-6.248,3.594l-0.569,0.152l-0.143,0.571L21.934,38h-3.867l-0.959-3.837l-0.143-0.571l-0.569-0.152 c-2.372-0.635-4.533-1.878-6.248-3.594l-0.416-0.417l-0.566,0.162l-3.787,1.083l-1.934-3.349l2.843-2.749l0.423-0.409 l-0.152-0.568C6.235,22.388,6.071,21.177,6.071,20s0.164-2.388,0.488-3.599l0.152-0.568l-0.423-0.409l-2.843-2.749l1.934-3.349 l3.787,1.083l0.566,0.162l0.416-0.417c1.715-1.716,3.876-2.959,6.248-3.594l0.569-0.152l0.143-0.571L18.066,2H21.933 M20,28.464 c4.667,0,8.464-3.797,8.464-8.464c0-4.667-3.797-8.464-8.464-8.464c-4.667,0-8.464,3.797-8.464,8.464 C11.536,24.667,15.333,28.464,20,28.464 M22.714,1h-5.429l-1.149,4.594c-2.569,0.688-4.871,2.027-6.696,3.853L4.903,8.149 l-2.714,4.701l3.405,3.292C5.264,17.375,5.071,18.664,5.071,20s0.192,2.625,0.522,3.857l-3.405,3.292l2.714,4.701l4.538-1.298 c1.825,1.826,4.128,3.165,6.697,3.853L17.286,39h5.429l1.148-4.594c2.569-0.688,4.872-2.027,6.697-3.853l4.538,1.298l2.714-4.701 l-3.405-3.292c0.329-1.232,0.522-2.521,0.522-3.857s-0.192-2.625-0.522-3.857l3.405-3.292l-2.714-4.701l-4.538,1.298 c-1.825-1.826-4.127-3.165-6.696-3.853L22.714,1L22.714,1z M20,27.464c-4.122,0-7.464-3.342-7.464-7.464 c0-4.122,3.342-7.464,7.464-7.464c4.122,0,7.464,3.342,7.464,7.464C27.464,24.122,24.122,27.464,20,27.464L20,27.464z"/><path fill="#dff0fe" d="M20,9C13.925,9,9,13.925,9,20c0,6.075,4.925,11,11,11s11-4.925,11-11C31,13.925,26.075,9,20,9z M20,24c-2.209,0-4-1.791-4-4c0-2.209,1.791-4,4-4s4,1.791,4,4C24,22.209,22.209,24,20,24z"/><path fill="#4788c7" d="M20,16c2.209,0,4,1.791,4,4c0,2.209-1.791,4-4,4s-4-1.791-4-4C16,17.791,17.791,16,20,16 M20,15 c-2.757,0-5,2.243-5,5s2.243,5,5,5s5-2.243,5-5S22.757,15,20,15L20,15z"/><path fill="#fff" d="M21.5 23.5H39.5V39.5H21.5z"/><path fill="#4788c7" d="M39,24v15H22V24H39 M40,23H21v17h19V23L40,23z"/><g><path fill="#4788c7" d="M21 23H40V27H21z"/></g><path fill="none" stroke="#4788c7" stroke-linecap="round" stroke-miterlimit="10" stroke-width="2" d="M27 32L29.5 34.375 34 30"/></svg>