<svg xmlns="http://www.w3.org/2000/svg"  viewBox="0 0 40 40" width="80px" height="80px"><path fill="#b6dcfe" d="M17.817,16.396L30.482,3.73c0.793-0.794,1.821-1.23,2.894-1.23c1.073,0,2.1,0.437,2.894,1.23 c0.793,0.793,1.23,1.82,1.23,2.894s-0.437,2.101-1.23,2.894L23.604,22.184L17.817,16.396z"/><path fill="#4788c7" d="M33.376,3c0.939,0,1.841,0.385,2.54,1.084C36.615,4.783,37,5.685,37,6.624 c0,0.939-0.385,1.841-1.084,2.54L23.604,21.476l-5.08-5.08L30.836,4.084C31.535,3.385,32.437,3,33.376,3 M33.376,2 c-1.165,0-2.33,0.459-3.247,1.377L17.11,16.396l6.495,6.495L36.623,9.871c1.835-1.835,1.835-4.659,0-6.495 C35.706,2.459,34.541,2,33.376,2L33.376,2z"/><path fill="#dff0fe" d="M4.604 23.916L13.801 20.411 18.444 15.769 24.231 21.557 19.588 26.199 16.084 35.397 2.594 37.406z"/><path fill="#4788c7" d="M18.444,16.476l5.08,5.08L19.31,25.77l-0.151,0.151l-0.076,0.2l-3.362,8.824L3.188,36.812 l1.867-12.533l8.824-3.362l0.2-0.076l0.151-0.151L18.444,16.476 M18.444,15.062l-4.921,4.921l-9.371,3.57L2,38l14.448-2.152 l3.57-9.371l4.921-4.921L18.444,15.062L18.444,15.062z"/><path fill="#4788c7" d="M11.5 26.5A2 2 0 1 0 11.5 30.5A2 2 0 1 0 11.5 26.5Z"/><path fill="none" stroke="#4788c7" stroke-miterlimit="10" d="M2.922 37.078L11.349 28.651"/></svg>