<svg xmlns="http://www.w3.org/2000/svg"  viewBox="0 0 40 40" width="80px" height="80px"><path fill="#98ccfd" d="M12,22.5C6.21,22.5,1.5,17.79,1.5,12S6.21,1.5,12,1.5S22.5,6.21,22.5,12S17.79,22.5,12,22.5z"/><path fill="#4788c7" d="M12,2c5.514,0,10,4.486,10,10s-4.486,10-10,10S2,17.514,2,12S6.486,2,12,2 M12,1 C5.925,1,1,5.925,1,12s4.925,11,11,11s11-4.925,11-11S18.075,1,12,1L12,1z"/><path fill="#fff" d="M12 4A8 8 0 1 0 12 20A8 8 0 1 0 12 4Z"/><path fill="#4788c7" d="M12 10.625A1.375 1.375 0 1 0 12 13.375A1.375 1.375 0 1 0 12 10.625Z"/><path fill="none" stroke="#4788c7" stroke-linecap="round" stroke-miterlimit="10" d="M13.999 14.499L12 12 13.875 7.001"/><path fill="#98ccfd" d="M8.86,38.5c-0.49,0-0.93-0.254-1.176-0.679c-0.245-0.425-0.245-0.933,0-1.357l14.14-24.491 c0.246-0.425,0.686-0.679,1.176-0.679s0.93,0.254,1.176,0.679l14.14,24.491c0.245,0.425,0.245,0.933,0,1.357 C38.069,38.246,37.63,38.5,37.14,38.5H8.86z"/><path fill="#4788c7" d="M23,11.794c0.149,0,0.519,0.042,0.743,0.429l14.14,24.491c0.223,0.387,0.074,0.729,0,0.858 S37.587,38,37.14,38H8.86c-0.447,0-0.668-0.3-0.743-0.429s-0.223-0.471,0-0.858l14.14-24.491 C22.481,11.836,22.851,11.794,23,11.794 M23,10.794c-0.626,0-1.251,0.31-1.609,0.929L7.252,36.214C6.537,37.452,7.43,39,8.86,39 H37.14c1.43,0,2.324-1.548,1.609-2.786l-14.14-24.491C24.251,11.104,23.626,10.794,23,10.794L23,10.794z"/><path fill="#fff" d="M23 31.291A1.709 1.709 0 1 0 23 34.709 1.709 1.709 0 1 0 23 31.291zM22 20H24V29H22z"/></svg>