<svg xmlns="http://www.w3.org/2000/svg"  viewBox="0 0 40 40" width="80px" height="80px"><path fill="#dff0fe" d="M20,19.035C18.642,16.768,14.5,9.634,14.5,7c0-3.032,2.468-5.5,5.5-5.5s5.5,2.468,5.5,5.5 C25.5,9.634,21.358,16.768,20,19.035z"/><path fill="#4788c7" d="M20,2c2.757,0,5,2.243,5,5c0,1.966-2.74,7.247-5,11.068C17.74,14.247,15,8.966,15,7 C15,4.243,17.243,2,20,2 M20,1c-3.314,0-6,2.686-6,6s6,13,6,13s6-9.686,6-13S23.314,1,20,1L20,1z"/><path fill="#98ccfd" d="M21,11c0,0.552-1,4-1,4s-1-3.448-1-4c0-0.552,0.448-1,1-1C20.552,10,21,10.448,21,11z"/><path fill="#dff0fe" d="M20,38.5c-3.032,0-5.5-2.468-5.5-5.5c0-2.634,4.142-9.768,5.5-12.035 c1.358,2.268,5.5,9.401,5.5,12.035C25.5,36.032,23.032,38.5,20,38.5z"/><path fill="#4788c7" d="M20,21.932c2.26,3.821,5,9.102,5,11.068c0,2.757-2.243,5-5,5s-5-2.243-5-5 C15,31.034,17.74,25.753,20,21.932 M20,20c0,0-6,9.686-6,13s2.686,6,6,6s6-2.686,6-6S20,20,20,20L20,20z"/><path fill="#98ccfd" d="M19,29c0-0.552,1-4,1-4s1,3.448,1,4c0,0.552-0.448,1-1,1C19.448,30,19,29.552,19,29z"/><path fill="#dff0fe" d="M17.483,19.531c-5.906,0-10.095-0.462-11.491-1.268c-2.627-1.517-3.529-4.888-2.014-7.514 c0.979-1.697,2.807-2.751,4.769-2.751c0.96,0,1.909,0.255,2.745,0.737c2.078,1.201,5.93,7.629,7.675,10.781 C18.738,19.525,18.161,19.531,17.483,19.531C17.484,19.531,17.484,19.531,17.483,19.531z"/><path fill="#4788c7" d="M8.747,8.499c0.872,0,1.734,0.232,2.494,0.671c1.701,0.982,4.903,5.991,7.082,9.858 c-0.258,0.002-0.541,0.003-0.842,0.003c-5.735,0-9.936-0.449-11.239-1.201c-1.157-0.668-1.984-1.746-2.33-3.036 S3.744,12.157,4.412,11C5.302,9.457,6.964,8.499,8.747,8.499 M8.747,7.499c-2.074,0-4.09,1.076-5.202,3.001 c-1.657,2.87-0.674,6.539,2.196,8.196c2.012,1.162,8.213,1.335,11.739,1.335C18.984,20.031,20,20,20,20S14.611,9.961,11.742,8.304 C10.797,7.758,9.765,7.499,8.747,7.499L8.747,7.499z"/><path fill="#98ccfd" d="M12.706,14.634C13.184,14.91,15.67,17.5,15.67,17.5s-3.486-0.858-3.964-1.134 C11.228,16.09,11.064,15.478,11.34,15C11.616,14.522,12.228,14.358,12.706,14.634z"/><path fill="#dff0fe" d="M31.253,32.001c-0.96,0-1.909-0.255-2.745-0.737c-2.078-1.201-5.93-7.629-7.675-10.781 c0.43-0.008,1.01-0.014,1.69-0.014c5.903,0,10.089,0.462,11.484,1.268c2.627,1.517,3.529,4.888,2.014,7.514 C35.042,30.947,33.215,32.001,31.253,32.001L31.253,32.001z"/><path fill="#4788c7" d="M22.519,20.968c5.734,0,9.936,0.449,11.239,1.201c1.157,0.668,1.984,1.746,2.33,3.036 s0.168,2.637-0.5,3.794c-0.891,1.543-2.552,2.501-4.336,2.501c-0.872,0-1.734-0.232-2.494-0.671 c-1.701-0.982-4.903-5.991-7.082-9.858C21.935,20.97,22.218,20.968,22.519,20.968 M22.519,19.968C21.017,19.968,20,20,20,20 s5.389,10.039,8.258,11.696c0.945,0.545,1.977,0.805,2.994,0.805c2.074,0,4.09-1.076,5.202-3.001 c1.657-2.87,0.674-6.539-2.196-8.196C32.246,20.142,26.045,19.968,22.519,19.968L22.519,19.968z"/><path fill="#98ccfd" d="M27.294,25.366C26.816,25.09,24.33,22.5,24.33,22.5s3.486,0.858,3.964,1.134S28.936,24.522,28.66,25 C28.384,25.478,27.772,25.642,27.294,25.366z"/><path fill="#dff0fe" d="M8.747,32.001c-1.962,0-3.789-1.054-4.769-2.751c-1.516-2.626-0.613-5.997,2.014-7.514 c1.396-0.806,5.581-1.268,11.484-1.268c0.679,0,1.258,0.006,1.688,0.013c-1.285,2.31-5.393,9.465-7.673,10.782 C10.656,31.746,9.707,32.001,8.747,32.001L8.747,32.001z"/><path fill="#4788c7" d="M17.481,20.968c0.302,0,0.584,0.001,0.843,0.003c-2.179,3.867-5.38,8.876-7.082,9.858 c-0.76,0.439-1.623,0.671-2.494,0.671c-1.784,0-3.445-0.958-4.336-2.501c-0.668-1.157-0.845-2.504-0.5-3.794 s1.173-2.368,2.33-3.036C7.545,21.418,11.746,20.968,17.481,20.968 M17.481,19.968c-3.526,0-9.727,0.174-11.739,1.335 c-2.87,1.657-3.853,5.326-2.196,8.196c1.111,1.925,3.128,3.001,5.202,3.001c1.018,0,2.049-0.259,2.994-0.805 C14.611,30.039,20,20,20,20S18.983,19.968,17.481,19.968L17.481,19.968z"/><path fill="#98ccfd" d="M11.706,23.634c0.478-0.276,3.964-1.134,3.964-1.134s-2.486,2.59-2.964,2.866S11.616,25.478,11.34,25 C11.064,24.522,11.228,23.91,11.706,23.634z"/><g><path fill="#dff0fe" d="M22.517,19.531c-0.676,0-1.253-0.006-1.682-0.014c1.285-2.31,5.393-9.464,7.673-10.781 c0.836-0.482,1.785-0.737,2.745-0.737c1.962,0,3.789,1.054,4.769,2.751c1.516,2.626,0.613,5.997-2.014,7.514 C32.611,19.069,28.423,19.531,22.517,19.531C22.516,19.531,22.517,19.531,22.517,19.531z"/><path fill="#4788c7" d="M31.253,8.499c1.784,0,3.445,0.958,4.336,2.501c0.668,1.157,0.845,2.504,0.5,3.794 s-1.173,2.368-2.33,3.036c-1.303,0.752-5.505,1.201-11.239,1.201c-0.302,0-0.584-0.001-0.842-0.003 c2.179-3.867,5.38-8.876,7.082-9.858C29.518,8.731,30.381,8.499,31.253,8.499 M31.253,7.499c-1.018,0-2.049,0.259-2.994,0.805 C25.389,9.961,20,20,20,20s1.017,0.031,2.519,0.031c3.526,0,9.727-0.174,11.739-1.335c2.87-1.657,3.853-5.326,2.196-8.196 C35.343,8.575,33.326,7.499,31.253,7.499L31.253,7.499z"/></g><path fill="#98ccfd" d="M28.294,16.366C27.816,16.642,24.33,17.5,24.33,17.5s2.486-2.59,2.964-2.866 c0.478-0.276,1.09-0.112,1.366,0.366C28.936,15.478,28.772,16.09,28.294,16.366z"/><g><path fill="#b6dcfe" d="M20 14.5A5.5 5.5 0 1 0 20 25.5A5.5 5.5 0 1 0 20 14.5Z"/><path fill="#4788c7" d="M20,15c2.757,0,5,2.243,5,5s-2.243,5-5,5s-5-2.243-5-5S17.243,15,20,15 M20,14 c-3.314,0-6,2.686-6,6s2.686,6,6,6s6-2.686,6-6S23.314,14,20,14L20,14z"/></g></svg>