<svg xmlns="http://www.w3.org/2000/svg"  viewBox="0 0 40 40" width="80px" height="80px"><path fill="#98ccfd" d="M4,38.5c-1.378,0-2.5-1.122-2.5-2.5v-8L5.494,3.411C5.65,2.317,6.592,1.5,7.687,1.5h24.626 c1.095,0,2.037,0.817,2.192,1.901l4.001,24.679L38.5,36c0,1.378-1.122,2.5-2.5,2.5H4z"/><path fill="#4788c7" d="M32.313,2c0.848,0,1.577,0.633,1.7,1.49L38,28.081V36c0,1.103-0.897,2-2,2H4c-1.103,0-2-0.897-2-2 v-7.919L5.99,3.472C6.11,2.633,6.839,2,7.687,2H32.313 M32.313,1H7.687C6.336,1,5.191,1.993,5,3.33L1,28v8c0,1.657,1.343,3,3,3h32 c1.657,0,3-1.343,3-3v-8L35,3.33C34.809,1.993,33.664,1,32.313,1L32.313,1z"/><path fill="#dff0fe" d="M7.687,2C6.839,2,6.11,2.633,5.99,3.472L2.013,28h35.974L34.013,3.49C33.89,2.633,33.161,2,32.313,2 H7.687z"/><path fill="#fff" d="M33,31c-1.105,0-2,0.895-2,2s0.895,2,2,2s2-0.895,2-2S34.105,31,33,31L33,31z"/><path fill="#4788c7" d="M5 33H27V35H5z"/><path fill="#4788c7" d="M5 31H7V35H5zM25 31H27V35H25zM9 31H11V35H9zM13 31H15V35H13zM17 31H19V35H17zM21 31H23V35H21z"/></svg>