<svg xmlns="http://www.w3.org/2000/svg"  viewBox="0 0 40 40" width="80px" height="80px"><path fill="#dff0fe" d="M24.022,23.977c0.271,0.022,0.542,0.034,0.815,0.034C33.302,24.011,38.5,17.598,38.5,13 c0-4.393-3.192-7.46-7.763-7.46c-2.843,0-5.667,1.317-7.951,3.709c-1.852,1.94-3.205,4.437-3.884,7.033 c-2.538-2.004-5.102-4.795-7.36-7.253c-0.325-0.353-0.634-0.686-0.95-1.027L15.093,3.5H2.5v12.593l4.553-4.553 c0.269,0.292,0.531,0.572,0.807,0.872c3.274,3.564,6.836,7.44,10.682,9.688c1.049,8.736,8.001,15.381,16.399,15.381l2.56,0.02v-5 l-2.56-0.02C30.443,32.48,25.688,29.367,24.022,23.977z M23.486,18.83c0.289-2.209,1.354-4.491,2.916-6.128 c1.331-1.395,2.871-2.162,4.334-2.162c1.808,0,2.763,0.851,2.763,2.46c0,1.449-2.606,6.011-8.662,6.011 C24.397,19.011,23.946,18.947,23.486,18.83z"/><path fill="#4788c7" d="M37.5,38c-0.001,0-0.002,0-0.004,0l-2.56-0.02c-8.467,0-15.676-6.679-16.86-15.575 c-3.833-2.305-7.416-6.206-10.584-9.655l-0.453-0.489l-4.186,4.187c-0.144,0.144-0.358,0.185-0.545,0.108 C2.122,16.479,2,16.296,2,16.094V3.5C2,3.224,2.224,3,2.5,3h12.593c0.202,0,0.385,0.122,0.462,0.309 c0.078,0.187,0.035,0.402-0.108,0.545l-4.162,4.162l0.625,0.676c2.082,2.266,4.408,4.797,6.72,6.726 c0.762-2.439,2.092-4.729,3.794-6.514c2.379-2.491,5.332-3.863,8.313-3.863C35.602,5.04,39,8.313,39,13 c0,4.807-5.388,11.511-14.162,11.511c-0.035,0-0.07,0-0.105-0.001c1.664,4.433,6.013,7.539,10.453,7.539l2.563,0.02 C38.024,32.071,38,32.226,38,32.5v5c0,0.133-0.053,0.261-0.148,0.354C37.758,37.948,37.632,38,37.5,38z M7.053,11.04 c0.003,0,0.007,0,0.01,0c0.136,0.003,0.265,0.062,0.357,0.161l0.807,0.872c3.18,3.462,6.783,7.385,10.566,9.595 c0.135,0.079,0.225,0.217,0.244,0.372c1.023,8.518,7.859,14.94,15.902,14.972L37,37.027v-4.031l-2.063-0.016 c-5.094,0-9.78-3.642-11.392-8.856c-0.049-0.158-0.016-0.331,0.088-0.461c0.104-0.129,0.256-0.198,0.431-0.185 c0.257,0.021,0.515,0.032,0.774,0.032C32.993,23.511,38,17.389,38,13c0-4.098-2.987-6.96-7.263-6.96 c-2.705,0-5.4,1.263-7.589,3.555c-1.758,1.842-3.094,4.262-3.762,6.814c-0.043,0.163-0.165,0.294-0.325,0.347 c-0.16,0.054-0.336,0.023-0.469-0.081c-2.564-2.025-5.136-4.824-7.405-7.293l-0.962-1.04c-0.182-0.197-0.176-0.504,0.014-0.693 L13.886,4H3v10.887l3.7-3.7C6.793,11.093,6.921,11.04,7.053,11.04z M24.838,19.511c-0.468,0-0.964-0.066-1.475-0.196 c-0.245-0.063-0.405-0.298-0.372-0.549c0.304-2.331,1.445-4.728,3.05-6.409c1.426-1.493,3.094-2.316,4.696-2.316 C32.811,10.04,34,11.119,34,13C34,14.569,31.244,19.511,24.838,19.511z M24.053,18.44c0.272,0.047,0.535,0.07,0.785,0.07 C30.456,18.511,33,14.283,33,13c0-1.319-0.74-1.96-2.263-1.96c-1.326,0-2.737,0.713-3.973,2.008 C25.404,14.472,24.41,16.459,24.053,18.44z"/><path fill="#4788c7" d="M23.563,24.187c-0.536-1.978-0.708-3.766-0.563-5.421l0.979,0.11 c-0.135,1.536,0.044,3.188,0.548,5.049L23.563,24.187z"/><g><path fill="#4788c7" d="M18.013,22.315c-0.216-2.356-0.08-4.403,0.416-6.258l0.966,0.258 c-0.411,1.794-0.55,3.672-0.345,5.908L18.013,22.315z"/></g></svg>