<?xml version="1.0" encoding="UTF-8"?>
<svg xmlns="http://www.w3.org/2000/svg" xmlns:xlink="http://www.w3.org/1999/xlink" viewBox="0 0 96 96" width="96px" height="96px">
<g id="surface46010398">
<path style=" stroke:none;fill-rule:nonzero;fill:rgb(87.450981%,94.117647%,99.607843%);fill-opacity:1;" d="M 34.40625 38.242188 L 24.59375 43.675781 C 24.226562 43.875 24 44.253906 24 44.65625 L 24 55.523438 C 24 55.929688 24.226562 56.304688 24.59375 56.507812 L 34.410156 61.941406 C 34.777344 62.144531 35.230469 62.144531 35.597656 61.941406 L 45.410156 56.507812 C 45.773438 56.304688 46 55.929688 46 55.523438 L 46 44.65625 C 46 44.253906 45.773438 43.878906 45.40625 43.675781 L 35.59375 38.242188 C 35.410156 38.140625 35.203125 38.09375 35 38.09375 C 34.792969 38.09375 34.589844 38.140625 34.40625 38.242188 M 84.902344 48.027344 L 83.265625 48.929688 C 83.203125 48.964844 83.167969 49.027344 83.167969 49.09375 L 83.167969 50.90625 C 83.167969 50.972656 83.207031 51.035156 83.265625 51.070312 L 84.902344 51.976562 C 84.964844 52.011719 85.039062 52.011719 85.101562 51.976562 L 86.734375 51.070312 C 86.796875 51.035156 86.835938 50.972656 86.835938 50.90625 L 86.835938 49.09375 C 86.835938 49.027344 86.796875 48.964844 86.734375 48.929688 L 85.097656 48.027344 C 85.066406 48.007812 85.035156 48 85 48 C 84.964844 48 84.933594 48.007812 84.902344 48.027344 "/>
<path style=" stroke:none;fill-rule:nonzero;fill:rgb(59.607846%,80.000001%,99.215686%);fill-opacity:1;" d="M 71.503906 26.726562 L 66.722656 24.0625 C 66.574219 23.976562 66.390625 23.980469 66.242188 24.066406 C 66.09375 24.15625 66.003906 24.3125 66.003906 24.484375 L 66 40.589844 L 61.59375 38.152344 C 61.410156 38.050781 61.203125 38 61 38 C 60.796875 38 60.589844 38.050781 60.40625 38.152344 L 50.59375 43.582031 C 50.226562 43.785156 50 44.160156 50 44.5625 L 50 55.429688 C 50 55.835938 50.226562 56.210938 50.59375 56.414062 L 60.410156 61.847656 C 60.777344 62.050781 61.230469 62.050781 61.597656 61.847656 L 71.410156 56.414062 C 71.773438 56.210938 72 55.835938 72 55.429688 L 72 27.574219 C 72 27.222656 71.808594 26.898438 71.503906 26.726562 Z M 65.730469 52.914062 L 61.273438 55.386719 C 61.105469 55.476562 60.898438 55.476562 60.734375 55.386719 L 56.273438 52.914062 C 56.101562 52.824219 56 52.652344 56 52.46875 L 56 47.527344 C 56 47.34375 56.101562 47.175781 56.269531 47.078125 L 60.730469 44.613281 C 60.8125 44.566406 60.90625 44.542969 61 44.542969 C 61.09375 44.542969 61.1875 44.566406 61.269531 44.613281 L 65.730469 47.078125 C 65.898438 47.175781 66 47.347656 66 47.53125 L 66 52.46875 C 66 52.652344 65.898438 52.824219 65.730469 52.914062 Z M 65.730469 52.914062 "/>
<path style=" stroke:none;fill-rule:nonzero;fill:rgb(27.843139%,53.333336%,78.039217%);fill-opacity:1;" d="M 34.40625 38.242188 L 24 55.523438 C 24 55.929688 24.226562 56.304688 24.59375 56.507812 L 34.410156 61.941406 C 34.777344 62.144531 35.230469 62.144531 35.597656 61.941406 L 46 44.65625 C 46 44.253906 45.773438 43.878906 45.40625 43.675781 L 35.59375 38.242188 C 35.410156 38.140625 35.203125 38.09375 35 38.09375 C 34.792969 38.09375 34.589844 38.140625 34.40625 38.242188 "/>
<path style=" stroke:none;fill-rule:nonzero;fill:rgb(59.607846%,80.000001%,99.215686%);fill-opacity:1;" d="M 34.40625 38.242188 L 24.59375 43.675781 C 24.226562 43.875 24 44.253906 24 44.65625 L 34.40625 61.941406 C 34.773438 62.144531 35.226562 62.144531 35.59375 61.941406 L 45.40625 56.507812 C 45.773438 56.304688 46 55.929688 46 55.523438 L 35.59375 38.242188 C 35.410156 38.140625 35.203125 38.09375 35 38.09375 C 34.792969 38.09375 34.589844 38.140625 34.40625 38.242188 "/>
<path style=" stroke:none;fill-rule:nonzero;fill:rgb(59.607846%,80.000001%,99.215686%);fill-opacity:1;" d="M 95.40625 43.582031 L 85.59375 38.152344 C 85.410156 38.050781 85.203125 38 85 38 C 84.796875 38 84.589844 38.050781 84.40625 38.152344 L 74.59375 43.582031 C 74.226562 43.785156 74 44.167969 74 44.589844 L 74 55.410156 C 74 55.828125 74.226562 56.214844 74.59375 56.414062 L 84.410156 61.851562 C 84.777344 62.054688 85.226562 62.054688 85.597656 61.851562 L 90.121094 59.34375 C 90.535156 59.113281 90.535156 58.519531 90.117188 58.292969 L 80.269531 52.917969 C 80.105469 52.824219 80 52.648438 80 52.460938 L 80 47.53125 C 80 47.347656 80.101562 47.175781 80.261719 47.089844 L 84.730469 44.617188 L 84.726562 44.617188 C 84.8125 44.570312 84.902344 44.546875 84.996094 44.546875 C 85.09375 44.546875 85.183594 44.570312 85.269531 44.617188 L 89.738281 47.089844 C 89.898438 47.179688 89.996094 47.347656 89.996094 47.53125 L 89.996094 51.554688 C 89.996094 51.726562 90.089844 51.886719 90.238281 51.972656 C 90.390625 52.058594 90.574219 52.058594 90.722656 51.972656 L 95.519531 49.1875 C 95.816406 49.015625 96 48.695312 96 48.351562 L 96 44.59375 C 96 44.171875 95.773438 43.785156 95.40625 43.582031 Z M 21.40625 43.582031 L 11.59375 38.152344 C 11.410156 38.050781 11.203125 38 11 38 C 10.796875 38 10.589844 38.050781 10.40625 38.152344 L 0.59375 43.582031 C 0.226562 43.785156 0 44.167969 0 44.589844 L 0 59.519531 C 0 59.691406 0.09375 59.851562 0.242188 59.9375 C 0.390625 60.019531 0.574219 60.019531 0.726562 59.933594 L 5.523438 57.148438 C 5.816406 56.976562 6 56.65625 6 56.3125 L 6 47.527344 C 6 47.34375 6.101562 47.175781 6.261719 47.085938 L 10.730469 44.613281 C 10.8125 44.566406 10.90625 44.546875 11 44.546875 C 11.09375 44.546875 11.1875 44.570312 11.269531 44.613281 L 15.738281 47.089844 C 15.898438 47.175781 16 47.347656 16 47.53125 L 16 56.316406 C 16 56.660156 16.183594 56.976562 16.480469 57.148438 L 21.277344 59.9375 C 21.425781 60.023438 21.609375 60.023438 21.761719 59.9375 C 21.90625 59.851562 22 59.691406 22 59.519531 L 22 44.589844 C 22 44.171875 21.773438 43.785156 21.40625 43.582031 Z M 21.40625 43.582031 "/>
</g>
</svg>
