<svg xmlns="http://www.w3.org/2000/svg"  viewBox="0 0 40 40" width="80px" height="80px"><path fill="#dff0fe" d="M6.5,28.5c-3.309,0-6-2.691-6-6s2.691-6,6-6c0.497,0,1.011,0.068,1.529,0.204l0.494,0.13 l0.119-0.497c0.423-1.771,1.775-3.17,3.53-3.652l0.332-0.092l0.034-0.341C12.919,8.402,16.127,5.5,20,5.5 c2.859,0,5.43,1.596,6.709,4.165l0.204,0.408l0.425-0.165C28.037,9.638,28.765,9.5,29.5,9.5c3.309,0,6,2.691,6,6 c0,0.271-0.024,0.556-0.075,0.896l-0.058,0.391l0.366,0.147c2.288,0.919,3.767,3.104,3.767,5.565c0,3.309-2.691,6-6,6H6.5z"/><path fill="#4788c7" d="M20,6c2.668,0,5.068,1.49,6.262,3.888l0.406,0.816l0.85-0.329C28.161,10.126,28.828,10,29.5,10 c3.033,0,5.5,2.467,5.5,5.5c0,0.247-0.022,0.508-0.069,0.822l-0.117,0.782l0.734,0.295C37.645,18.241,39,20.244,39,22.5 c0,3.033-2.467,5.5-5.5,5.5h-27C3.467,28,1,25.533,1,22.5S3.467,17,6.5,17c0.455,0,0.927,0.063,1.401,0.188l0.99,0.26l0.237-0.995 c0.38-1.593,1.598-2.852,3.177-3.287l0.662-0.182l0.068-0.683C13.391,8.709,16.385,6,20,6 M20,5c-4.149,0-7.559,3.159-7.96,7.202 c-1.922,0.529-3.42,2.071-3.885,4.019C7.626,16.082,7.073,16,6.5,16C2.91,16,0,18.91,0,22.5S2.91,29,6.5,29c3.43,0,23.41,0,27,0 s6.5-2.91,6.5-6.5c0-2.734-1.69-5.069-4.08-6.03c0.048-0.317,0.08-0.64,0.08-0.97c0-3.59-2.91-6.5-6.5-6.5 c-0.827,0-1.615,0.161-2.343,0.442C25.847,6.812,23.138,5,20,5L20,5z"/><path fill="#dff0fe" d="M16 27H24V29H16z"/><path fill="#4788c7" d="M19,21v13c0,0.552,0.448,1,1,1h0c0.552,0,1-0.448,1-1V21h5l-6-6l-6,6H19z"/><path fill="#4788c7" d="M25.5 28h-2c-.275 0-.5.225-.5.5l0 0c0 .275.225.5.5.5h2c.275 0 .5-.225.5-.5l0 0C26 28.225 25.775 28 25.5 28zM16.5 28h-2c-.275 0-.5.225-.5.5l0 0c0 .275.225.5.5.5h2c.275 0 .5-.225.5-.5l0 0C17 28.225 16.775 28 16.5 28z"/></svg>