<svg xmlns="http://www.w3.org/2000/svg"  viewBox="0 0 40 40" width="80px" height="80px"><path fill="#98ccfd" d="M16.5 26.5H23.5V33.5H16.5z"/><path fill="#4788c7" d="M23,27v6h-6v-6H23 M24,26h-8v8h8V26L24,26z"/><path fill="#fff" d="M0.5 6.5H39.5V29.5H0.5z"/><path fill="#4788c7" d="M39,7v22H1V7H39 M40,6H0v24h40V6L40,6z"/><path fill="#98ccfd" d="M10.5,35.5V35c0-1.379,1.122-2.5,2.5-2.5h14c1.378,0,2.5,1.121,2.5,2.5v0.5H10.5z"/><path fill="#4788c7" d="M27,33c1.103,0,2,0.897,2,2H11c0-1.103,0.897-2,2-2H27 M27,32H13c-1.657,0-3,1.343-3,3v1h20v-1 C30,33.343,28.657,32,27,32L27,32z"/><path fill="none" stroke="#4788c7" stroke-miterlimit="10" d="M32.939 13.377L7.061 22.787"/><path fill="#4788c7" d="M32.623 15.599L35 12.447 31.079 11.993zM7.377 20.401L5 23.553 8.921 24.007z"/></svg>