<svg xmlns="http://www.w3.org/2000/svg"  viewBox="0 0 40 40" width="80px" height="80px"><path fill="#b6dcfe" d="M4,31.5c-1.378,0-2.5-1.122-2.5-2.5V13c0-1.378,1.122-2.5,2.5-2.5h3.5v-2h25v2H36c1.378,0,2.5,1.122,2.5,2.5v16c0,1.378-1.122,2.5-2.5,2.5H4z"/><path fill="#4788c7" d="M32,9v1v1h1h3c1.103,0,2,0.897,2,2v16c0,1.103-0.897,2-2,2H4c-1.103,0-2-0.897-2-2V13c0-1.103,0.897-2,2-2h3h1v-1V9H32 M33,8H7v2H4c-1.657,0-3,1.343-3,3v16c0,1.657,1.343,3,3,3h32c1.657,0,3-1.343,3-3V13c0-1.657-1.343-3-3-3h-3V8L33,8z"/><path fill="#fff" d="M8.5 1.5H31.5V11.5H8.5z"/><path fill="#4788c7" d="M31,2v9H9V2H31 M32,1H8v11h24V1L32,1z"/><path fill="#dff0fe" d="M11,20.5c-1.378,0-2.5-1.122-2.5-2.5v-7.5h23V18c0,1.378-1.122,2.5-2.5,2.5H11z"/><path fill="#4788c7" d="M31,11v7c0,1.103-0.897,2-2,2H11c-1.103,0-2-0.897-2-2v-7H31 M32,10H8v8c0,1.657,1.343,3,3,3h18c1.657,0,3-1.343,3-3V10L32,10z"/><path fill="#fff" d="M8.5 25.5H31.5V38.5H8.5z"/><path fill="#4788c7" d="M31,26v12H9V26H31 M32,25H8v14h24V25L32,25z"/><path fill="#dff0fe" d="M9 26H31V29H9z"/><path fill="none" stroke="#4788c7" stroke-linecap="round" stroke-miterlimit="10" d="M13.5 29.5L26.5 29.5M13.5 33.5L26.5 33.5"/><path fill="#fff" d="M35 14A1 1 0 1 0 35 16A1 1 0 1 0 35 14Z"/><path fill="#4788c7" d="M9,28v-2h22v2h1.5c0.828,0,1.5-0.672,1.5-1.5l0,0c0-0.828-0.672-1.5-1.5-1.5h-25C6.672,25,6,25.672,6,26.5l0,0C6,27.328,6.672,28,7.5,28H9z"/></svg>