<svg xmlns="http://www.w3.org/2000/svg"  viewBox="0 0 40 40" width="80px" height="80px"><path fill="#98ccfd" d="M2.633,32.5c-1.176,0-2.133-0.957-2.133-2.133V9.633C0.5,8.457,1.457,7.5,2.633,7.5h34.733 c1.176,0,2.133,0.957,2.133,2.133v20.733c0,1.176-0.957,2.133-2.133,2.133H2.633z"/><path fill="#4788c7" d="M37.367,8C38.267,8,39,8.733,39,9.633v20.734C39,31.267,38.267,32,37.367,32H2.633 C1.733,32,1,31.267,1,30.367V9.633C1,8.733,1.733,8,2.633,8H37.367 M37.367,7H2.633C1.185,7,0,8.185,0,9.633v20.734 C0,31.815,1.185,33,2.633,33h34.734C38.815,33,40,31.815,40,30.367V9.633C40,8.185,38.815,7,37.367,7L37.367,7z"/><path fill="#fff" d="M17 13L13 18.6 9 13 5 13 5 27 9 27 9 18.111 13 23.667 17 17.944 17 27 21 27 21 13z"/><g><path fill="#fff" d="M32 20L32 13 28 13 28 20 24.25 20 30 27 36 20z"/></g></svg>