<svg xmlns="http://www.w3.org/2000/svg"  viewBox="0 0 40 40" width="80px" height="80px"><path fill="none" stroke="#4788c7" stroke-miterlimit="10" d="M36.5 3.5L28.5 11.5 15.5 6.5 21.5 27.5 9.533 25.643 3.5 36.5"/><path fill="#dff0fe" d="M36.5 1.5A2 2 0 1 0 36.5 5.5A2 2 0 1 0 36.5 1.5Z"/><path fill="#4788c7" d="M36.5,2C37.327,2,38,2.673,38,3.5S37.327,5,36.5,5S35,4.327,35,3.5S35.673,2,36.5,2 M36.5,1 C35.119,1,34,2.119,34,3.5S35.119,6,36.5,6S39,4.881,39,3.5S37.881,1,36.5,1L36.5,1z"/><path fill="#dff0fe" d="M28.5 9.5A2 2 0 1 0 28.5 13.5A2 2 0 1 0 28.5 9.5Z"/><path fill="#4788c7" d="M28.5,10c0.827,0,1.5,0.673,1.5,1.5S29.327,13,28.5,13S27,12.327,27,11.5S27.673,10,28.5,10 M28.5,9c-1.381,0-2.5,1.119-2.5,2.5s1.119,2.5,2.5,2.5s2.5-1.119,2.5-2.5S29.881,9,28.5,9L28.5,9z"/><path fill="#dff0fe" d="M15.5 4.5A2 2 0 1 0 15.5 8.5A2 2 0 1 0 15.5 4.5Z"/><path fill="#4788c7" d="M15.5,5C16.327,5,17,5.673,17,6.5S16.327,8,15.5,8S14,7.327,14,6.5S14.673,5,15.5,5 M15.5,4 C14.119,4,13,5.119,13,6.5S14.119,9,15.5,9S18,7.881,18,6.5S16.881,4,15.5,4L15.5,4z"/><g><path fill="#dff0fe" d="M21.5 25.5A2 2 0 1 0 21.5 29.5A2 2 0 1 0 21.5 25.5Z"/><path fill="#4788c7" d="M21.5,26c0.827,0,1.5,0.673,1.5,1.5S22.327,29,21.5,29S20,28.327,20,27.5S20.673,26,21.5,26 M21.5,25c-1.381,0-2.5,1.119-2.5,2.5s1.119,2.5,2.5,2.5s2.5-1.119,2.5-2.5S22.881,25,21.5,25L21.5,25z"/></g><g><path fill="#dff0fe" d="M3.5 34.5A2 2 0 1 0 3.5 38.5A2 2 0 1 0 3.5 34.5Z"/><path fill="#4788c7" d="M3.5,35C4.327,35,5,35.673,5,36.5S4.327,38,3.5,38S2,37.327,2,36.5S2.673,35,3.5,35 M3.5,34 C2.119,34,1,35.119,1,36.5S2.119,39,3.5,39S6,37.881,6,36.5S4.881,34,3.5,34L3.5,34z"/></g><g><path fill="#dff0fe" d="M9.5 23.5A2 2 0 1 0 9.5 27.5A2 2 0 1 0 9.5 23.5Z"/><path fill="#4788c7" d="M9.5,24c0.827,0,1.5,0.673,1.5,1.5S10.327,27,9.5,27S8,26.327,8,25.5S8.673,24,9.5,24 M9.5,23 C8.119,23,7,24.119,7,25.5S8.119,28,9.5,28s2.5-1.119,2.5-2.5S10.881,23,9.5,23L9.5,23z"/></g></svg>