<svg xmlns="http://www.w3.org/2000/svg"  viewBox="0 0 40 40" width="80px" height="80px"><path fill="#dff0fe" d="M25.73,29.878c0-2.432,1.971-4.403,4.403-4.403c0.724,0,1.397,0.191,2,0.501	C34.36,21.146,36,14.658,36,6L20,1L4,6c0,27.141,16,33,16,33s3.624-1.35,7.422-5.676C26.399,32.518,25.73,31.282,25.73,29.878z"/><path fill="#4788c7" d="M20,39.004l-0.2-0.088C18.197,38.219,4.138,31.382,4.001,6.37L3.999,6L20,1.001l0.149,0.046 L36.001,6l-0.002,0.37c-0.027,5.008-0.623,9.642-1.771,13.774c-0.074,0.266-0.345,0.423-0.615,0.348 c-0.266-0.073-0.422-0.349-0.348-0.615c1.095-3.945,1.677-8.365,1.73-13.144L20,2.048L5.004,6.733 C5.262,29.979,17.755,36.86,19.998,37.909c0.376-0.178,1.061-0.529,1.93-1.104c0.23-0.155,0.54-0.09,0.692,0.142 c0.152,0.23,0.089,0.54-0.142,0.692c-1.081,0.715-1.892,1.106-2.278,1.276L20,39.004z"/><path fill="#98ccfd" d="M28.924,38.502l-0.36-2.158l-0.307-0.085c-1.056-0.294-2.026-0.854-2.806-1.618l-0.228-0.224	l-2.047,0.767L22.1,33.321l1.69-1.393l-0.079-0.309c-0.141-0.546-0.212-1.09-0.212-1.617s0.071-1.071,0.212-1.617l0.079-0.309	l-1.69-1.393l1.076-1.863l2.047,0.767l0.228-0.224c0.779-0.765,1.75-1.324,2.806-1.618l0.307-0.085l0.36-2.158h2.152l0.36,2.158	l0.307,0.085c1.056,0.294,2.026,0.854,2.806,1.618l0.228,0.224l2.047-0.767l1.076,1.863l-1.69,1.393l0.079,0.309	c0.141,0.546,0.212,1.09,0.212,1.617s-0.071,1.071-0.212,1.617l-0.079,0.309l1.69,1.393l-1.076,1.863l-2.047-0.767l-0.228,0.224	c-0.779,0.765-1.75,1.324-2.806,1.618l-0.307,0.085l-0.36,2.158H28.924z M30,26.502c-1.93,0-3.5,1.57-3.5,3.5s1.57,3.5,3.5,3.5	s3.5-1.57,3.5-3.5S31.93,26.502,30,26.502z"/><path fill="#4788c7" d="M30.653,22.002l0.238,1.426l0.105,0.628l0.614,0.171c0.975,0.271,1.871,0.787,2.59,1.493l0.455,0.446	l0.596-0.223l1.352-0.506l0.653,1.131l-1.118,0.92l-0.491,0.404l0.158,0.616C35.934,29.015,36,29.518,36,30.002	c0,0.484-0.066,0.987-0.196,1.494l-0.158,0.616l0.491,0.404l1.118,0.92l-0.653,1.131l-1.352-0.506l-0.596-0.223l-0.455,0.446	c-0.719,0.706-1.615,1.222-2.59,1.493l-0.614,0.171l-0.105,0.628l-0.238,1.426h-1.306l-0.238-1.426l-0.105-0.628l-0.614-0.171	c-0.975-0.271-1.871-0.787-2.59-1.493l-0.455-0.446l-0.596,0.223l-1.352,0.506l-0.653-1.131l1.118-0.92l0.491-0.404l-0.158-0.616	C24.066,30.989,24,30.486,24,30.002s0.066-0.987,0.196-1.494l0.158-0.616l-0.491-0.404l-1.118-0.92l0.653-1.131l1.352,0.506	l0.596,0.223l0.455-0.446c0.719-0.705,1.615-1.222,2.59-1.493l0.614-0.171l0.105-0.628l0.238-1.426L30.653,22.002 M30,34.002	c2.206,0,4-1.794,4-4s-1.794-4-4-4s-4,1.794-4,4S27.794,34.002,30,34.002 M31.5,21.002h-3l-0.377,2.262	c-1.155,0.321-2.19,0.926-3.022,1.742l-2.145-0.804l-1.5,2.598l1.772,1.459C23.084,28.818,23,29.399,23,30.002	s0.084,1.184,0.227,1.742l-1.772,1.458l1.5,2.598l2.145-0.804c0.832,0.816,1.867,1.421,3.022,1.742L28.499,39h3l0.377-2.262	c1.155-0.321,2.19-0.926,3.022-1.742l2.145,0.804l1.5-2.598l-1.772-1.458C36.916,31.186,37,30.605,37,30.002	s-0.084-1.184-0.227-1.742l1.772-1.459l-1.5-2.598L34.9,25.007c-0.832-0.816-1.867-1.421-3.022-1.742L31.5,21.002L31.5,21.002z M30,33.002c-1.657,0-3-1.343-3-3s1.343-3,3-3c1.657,0,3,1.343,3,3C33,31.659,31.657,33.002,30,33.002L30,33.002z"/></svg>