<svg xmlns="http://www.w3.org/2000/svg"  viewBox="0 0 40 40" width="80px" height="80px"><path fill="none" stroke="#4788c7" stroke-miterlimit="10" stroke-width="2" d="M30,17.714c0,0,0-5.306,0-5.714 c0-5.523-4.477-10-10-10S10,6.477,10,12c0,0.408,0,5.714,0,5.714"/><path fill="#dff0fe" d="M2.5,37.5V22c0-3.584,2.916-6.5,6.5-6.5h22c3.584,0,6.5,2.916,6.5,6.5v15.5H2.5z"/><path fill="#4788c7" d="M31,16c3.308,0,6,2.692,6,6v15H3V22c0-3.308,2.692-6,6-6H31 M31,15H9c-3.866,0-7,3.134-7,7v16h36V22 C38,18.134,34.866,15,31,15L31,15z"/><g><path fill="#b6dcfe" d="M17.59,32.5l0.891-5.343l-0.289-0.176C17.133,26.336,16.5,25.222,16.5,24c0-1.93,1.57-3.5,3.5-3.5 s3.5,1.57,3.5,3.5c0,1.222-0.633,2.336-1.691,2.981l-0.289,0.176L22.41,32.5H17.59z"/><path fill="#4788c7" d="M20,21c1.654,0,3,1.346,3,3c0,1.046-0.543,2.001-1.452,2.554l-0.578,0.352l0.111,0.667L21.82,32 H18.18l0.738-4.427l0.111-0.667l-0.578-0.352C17.543,26.001,17,25.046,17,24C17,22.346,18.346,21,20,21 M20,20 c-2.209,0-4,1.791-4,4c0,1.449,0.778,2.707,1.932,3.408L17,33h6l-0.932-5.592C23.222,26.707,24,25.449,24,24 C24,21.791,22.209,20,20,20L20,20z"/></g></svg>