<svg xmlns="http://www.w3.org/2000/svg"  viewBox="0 0 40 40" width="80px" height="80px"><path fill="#dff0fe" d="M12.008 29.045L1.5 32.32 1.5 4.796 11.992 1.526 21.992 4.955 32.5 1.68 32.5 29.204 22.008 32.474z"/><path fill="#4788c7" d="M11.985,2.052l9.69,3.322l0.31,0.106l0.312-0.097L32,2.359v26.477l-9.985,3.112l-9.69-3.322 l-0.31-0.106l-0.312,0.097L2,31.641V5.164L11.985,2.052 M33,1L22,4.429L12,1L1,4.429V33l11-3.429L22,33l11-3.429V1L33,1z"/><path fill="#fff" d="M22,31.937l-10-3.438V2.055L22,5.48V31.937z"/><path fill="#98ccfd" d="M24,38.5c-7.995,0-14.5-6.505-14.5-14.5S16.005,9.5,24,9.5S38.5,16.005,38.5,24S31.995,38.5,24,38.5 z"/><path fill="#4788c7" d="M24,10c7.72,0,14,6.28,14,14s-6.28,14-14,14s-14-6.28-14-14S16.28,10,24,10 M24,9 C15.716,9,9,15.716,9,24s6.716,15,15,15c8.284,0,15-6.716,15-15S32.284,9,24,9L24,9z"/><path fill="#fff" d="M24 12A12 12 0 1 0 24 36A12 12 0 1 0 24 12Z"/><path fill="none" stroke="#4788c7" stroke-linecap="round" stroke-miterlimit="10" d="M29.5 16L24 24 28.5 28.5"/><g><path fill="#4788c7" d="M24 22.5A1.5 1.5 0 1 0 24 25.5A1.5 1.5 0 1 0 24 22.5Z"/></g></svg>