<svg xmlns="http://www.w3.org/2000/svg"  viewBox="0 0 40 40" width="80px" height="80px"><path fill="#b6dcfe" d="M1,38.5c-0.276,0-0.5-0.225-0.5-0.5V15c0-0.275,0.224-0.5,0.5-0.5h38c0.276,0,0.5,0.225,0.5,0.5v23 c0,0.275-0.224,0.5-0.5,0.5H1z"/><path fill="#4788c7" d="M39,15v23H1V15H39 M39,14H1c-0.552,0-1,0.448-1,1v23c0,0.552,0.448,1,1,1h38c0.552,0,1-0.448,1-1 V15C40,14.448,39.552,14,39,14L39,14z"/><path fill="#dff0fe" d="M5.5 2.5H34.5V14.5H5.5z"/><path fill="#4788c7" d="M34,3v11H6V3H34 M35,2H5v13h30V2L35,2z"/><path fill="#4788c7" d="M23.2,6h-6.4C16.358,6,16,6.448,16,7c0,0.552,0.358,1,0.8,1h6.4C23.642,8,24,7.552,24,7 C24,6.448,23.642,6,23.2,6z"/><g><path fill="#98ccfd" d="M5.5 15.5H34.5V30.5H5.5z"/><path fill="#4788c7" d="M34,16v14H6V16H34 M35,15H5v16h30V15L35,15z"/></g><g><path fill="#dff0fe" d="M37,17v19H3V17H37 M39,15H1v23h38V15L39,15z"/></g></svg>