<?xml version="1.0" encoding="UTF-8"?>
<svg xmlns="http://www.w3.org/2000/svg" xmlns:xlink="http://www.w3.org/1999/xlink" viewBox="0 0 96 96" width="96px" height="96px">
<g id="surface46008244">
<path style=" stroke:none;fill-rule:nonzero;fill:rgb(27.843139%,53.333336%,78.039217%);fill-opacity:1;" d="M 88.164062 59.578125 C 87.800781 57.921875 86.296875 55.988281 83.261719 55.988281 C 82.640625 55.988281 81.964844 56.066406 81.191406 56.226562 C 79.777344 56.519531 78.570312 56.660156 77.507812 56.707031 C 85.773438 42.628906 91.140625 23.070312 85.824219 16.28125 C 78.824219 7.335938 69.398438 5.996094 64.402344 5.996094 L 63.933594 6 C 62.074219 6.03125 60.148438 6.257812 58.207031 6.679688 L 51.042969 8.226562 C 50.066406 8.105469 49.070312 8.019531 48.035156 8 L 47.945312 8 L 47.640625 7.996094 C 44.453125 7.996094 41.546875 8.675781 38.957031 9.945312 L 36.457031 8.957031 C 33.015625 7.601562 27.839844 5.988281 22.71875 5.988281 C 22.433594 5.988281 22.144531 5.992188 21.859375 6.003906 C 16.8125 6.1875 12.480469 8.101562 9.328125 11.539062 C 5.390625 15.828125 3.601562 22.109375 4.007812 30.199219 C 4.027344 30.617188 8.921875 72 22.800781 72 L 22.851562 72 L 22.976562 71.996094 C 24.78125 71.953125 26.496094 71.230469 28.105469 69.84375 C 29.328125 70.765625 30.914062 71.308594 32.394531 71.523438 C 33.371094 71.753906 35.125 72.078125 37.230469 72.078125 C 39.796875 72.078125 42.113281 71.554688 44.109375 70.605469 C 44.109375 72.363281 44.097656 74.59375 44.078125 77.441406 L 44.074219 77.589844 L 44.085938 77.738281 C 44.28125 80.578125 44.769531 83.136719 45.507812 85.140625 C 47.609375 90.859375 51.238281 94.011719 55.730469 94.011719 C 55.914062 94.011719 56.105469 94.003906 56.296875 93.992188 C 59.988281 93.765625 63.730469 91.691406 66.304688 88.449219 C 69.09375 84.9375 69.734375 81.234375 69.984375 78.394531 L 70 78.222656 L 70 69.886719 L 70.207031 69.90625 L 71.078125 69.984375 L 71.160156 69.992188 L 71.246094 69.996094 C 71.492188 70.007812 71.75 70.011719 72.007812 70.011719 C 75.023438 70.011719 78.730469 69.230469 81.238281 68.0625 C 83.636719 66.953125 89.117188 63.894531 88.164062 59.578125 Z M 88.164062 59.578125 "/>
<path style=" stroke:none;fill-rule:nonzero;fill:rgb(59.607846%,80.000001%,99.215686%);fill-opacity:1;" d="M 66 68 C 66 67.589844 66.023438 67.246094 66.035156 66.871094 C 66.015625 66.367188 66 66 66 66 C 66 66 66.023438 65.980469 66.0625 65.957031 C 66.363281 60.609375 67.835938 58.550781 69.414062 57.375 C 69.195312 57.070312 68.941406 56.738281 68.703125 56.425781 C 68.035156 55.550781 67.207031 54.46875 66.316406 53.078125 L 66.152344 52.761719 C 66.019531 52.433594 65.695312 51.867188 65.285156 51.125 C 62.917969 46.84375 57.992188 37.941406 61.363281 32.316406 C 62.839844 29.851562 65.609375 28.433594 69.605469 28.082031 C 67.972656 23.4375 61.851562 12.230469 47.96875 12 C 47.964844 12 47.960938 12 47.957031 12 C 35.875 11.804688 31.90625 22.785156 30.613281 29.34375 C 32.394531 28.589844 34.425781 28.132812 36.285156 28.132812 C 36.3125 28.132812 36.34375 28.132812 36.371094 28.132812 C 40.953125 28.164062 44.101562 30.609375 45.019531 34.839844 C 45.6875 37.945312 46.011719 40.660156 46.003906 43.144531 C 45.980469 48.585938 44.886719 51.445312 43.917969 53.96875 L 43.609375 54.785156 C 43.363281 55.453125 43.101562 56.074219 42.851562 56.65625 C 42.601562 57.253906 42.378906 57.785156 42.214844 58.261719 C 43.183594 58.480469 43.945312 58.792969 44.464844 59.023438 L 44.769531 59.152344 C 44.863281 59.195312 44.957031 59.238281 45.042969 59.292969 C 46.738281 60.324219 47.792969 61.910156 48.019531 63.757812 C 48.140625 64.753906 48.121094 71.542969 48.078125 77.46875 C 48.253906 80.039062 48.691406 82.195312 49.265625 83.761719 C 50.085938 85.988281 52.128906 90.242188 56.054688 89.996094 C 58.792969 89.828125 61.429688 88.160156 63.175781 85.960938 C 65.050781 83.597656 65.742188 80.984375 66.003906 78.042969 L 66.003906 68 Z M 66 68 "/>
<path style=" stroke:none;fill-rule:nonzero;fill:rgb(59.607846%,80.000001%,99.215686%);fill-opacity:1;" d="M 30.226562 57.835938 C 27.003906 54.46875 25.429688 49.941406 26.019531 45.722656 C 26.589844 41.652344 26.269531 37.667969 26.09375 35.527344 C 26.035156 34.8125 25.996094 34.28125 26 33.984375 C 26 33.96875 26.003906 33.957031 26.007812 33.941406 C 26.007812 33.933594 26.003906 33.925781 26.003906 33.917969 C 26.242188 27.875 28.574219 18.34375 34.988281 12.679688 C 31.863281 11.449219 26.777344 9.824219 22 10 C 14.515625 10.273438 7.273438 15.449219 8 30 C 8.273438 35.460938 14.445312 68.207031 22.878906 68 C 24.085938 67.96875 25.339844 67.195312 26.625 65.648438 C 28.65625 63.203125 30.632812 60.984375 32.039062 59.441406 C 31.410156 58.960938 30.800781 58.433594 30.226562 57.835938 Z M 74.046875 29.460938 C 74.074219 29.769531 74.050781 30.035156 74.003906 30.277344 C 74.0625 32.117188 73.867188 33.902344 73.664062 35.632812 C 73.515625 36.902344 73.363281 38.21875 73.320312 39.535156 C 73.28125 40.824219 73.460938 42.101562 73.652344 43.449219 C 74.105469 46.605469 74.570312 50.164062 72.125 54.320312 C 72.574219 54.914062 72.96875 55.464844 73.285156 55.996094 C 82.507812 41.046875 86.222656 23.273438 82.675781 18.742188 C 77.308594 11.886719 69.882812 9.902344 63.996094 10 C 62.15625 10.03125 60.480469 10.277344 59.050781 10.589844 C 69.203125 15.507812 73.726562 26.050781 74.046875 29.460938 Z M 82 60.140625 C 76.671875 61.242188 74.105469 60.65625 72.863281 59.890625 C 72.660156 60.035156 72.460938 60.15625 72.277344 60.269531 C 71.53125 60.71875 70.355469 61.4375 70.066406 65.835938 C 70.230469 65.867188 70.378906 65.882812 70.558594 65.921875 L 71.429688 66 C 74.066406 66.121094 77.527344 65.378906 79.554688 64.4375 C 83.925781 62.410156 86.304688 59.253906 82 60.140625 Z M 44.046875 64.238281 C 43.972656 63.640625 43.648438 63.160156 43.0625 62.773438 L 42.847656 62.679688 C 42.125 62.363281 41.304688 62 40 62 L 39.992188 62 C 39.738281 62.019531 39.484375 62.039062 39.230469 62.039062 C 39.128906 62.039062 39.027344 62.023438 38.921875 62.019531 C 37.972656 62.75 36.625 63.3125 33.289062 64 C 27.328125 65.519531 30.847656 67.308594 33.132812 67.589844 C 35.347656 68.140625 40.605469 68.816406 44.097656 65.96875 C 44.085938 65.074219 44.070312 64.457031 44.046875 64.238281 Z M 44.046875 64.238281 "/>
<path style=" stroke:none;fill-rule:nonzero;fill:rgb(59.607846%,80.000001%,99.215686%);fill-opacity:1;" d="M 41.363281 37.003906 C 40.777344 37.605469 39.855469 38.132812 38.839844 37.96875 C 37.183594 37.703125 35.910156 35.703125 36.003906 34.953125 C 36.09375 34.207031 37.507812 33.816406 39.160156 34.085938 C 39.734375 34.179688 40.257812 34.339844 40.695312 34.539062 C 40.054688 33.164062 38.898438 32.371094 37.132812 32.175781 C 34.003906 31.828125 30.679688 33.464844 30.011719 34.371094 C 30.027344 34.589844 30.050781 34.871094 30.078125 35.203125 C 30.265625 37.496094 30.609375 41.773438 29.976562 46.277344 C 29.5625 49.246094 30.765625 52.617188 33.113281 55.066406 C 34.625 56.648438 36.394531 57.648438 38.136719 57.945312 C 38.359375 56.988281 38.757812 56.054688 39.164062 55.09375 C 39.390625 54.5625 39.628906 54 39.855469 53.390625 L 40.179688 52.535156 C 41.066406 50.226562 41.980469 47.835938 41.996094 43.128906 C 42.007812 41.320312 41.785156 39.253906 41.363281 37.003906 Z M 69.695312 44.015625 C 69.484375 42.554688 69.273438 41.046875 69.324219 39.40625 C 69.371094 37.925781 69.535156 36.523438 69.691406 35.171875 C 69.816406 34.105469 69.910156 33.078125 69.96875 32.070312 C 67.390625 32.285156 65.679688 33.027344 64.867188 34.285156 C 65.203125 34.171875 65.582031 34.082031 66.003906 34.027344 C 67.785156 33.796875 69.089844 34.308594 69.238281 35.300781 C 69.347656 36.027344 68.730469 36.710938 68.460938 36.972656 C 67.90625 37.511719 67.210938 37.859375 66.5 37.949219 C 66.371094 37.964844 66.242188 37.972656 66.117188 37.972656 C 65.410156 37.972656 64.734375 37.730469 64.21875 37.375 C 64.441406 41.320312 67.351562 46.597656 68.785156 49.1875 C 69.089844 49.742188 69.324219 50.183594 69.523438 50.5625 C 70.308594 48.324219 70.019531 46.285156 69.695312 44.015625 Z M 69.695312 44.015625 "/>
</g>
</svg>
