<svg xmlns="http://www.w3.org/2000/svg"  viewBox="0 0 40 40" width="80px" height="80px"><path fill="#98ccfd" d="M0.5 2.5H39.5V19.5H0.5z"/><path fill="#4788c7" d="M39,3v16H1V3H39 M40,2H0v18h40V2L40,2z"/><path fill="#fff" d="M18 11c0 1.133-.867 2-2 2s-2-.867-2-2 .867-2 2-2S18 9.867 18 11zM8 9c-1.133 0-2 .867-2 2s.867 2 2 2 2-.867 2-2S9.133 9 8 9zM32 9c-1.133 0-2 .867-2 2s.867 2 2 2c1.133 0 2-.867 2-2S33.133 9 32 9zM24 9c-1.133 0-2 .867-2 2s.867 2 2 2 2-.867 2-2S25.133 9 24 9z"/><g><path fill="#dff0fe" d="M10.707 31L13.015 28.692 17.087 32.763 27.072 22.779 29.293 25 17 37.293z"/><path fill="#4788c7" d="M27.072,23.487L28.586,25L17,36.586L11.414,31l1.601-1.601l3.365,3.364l0.707,0.707l0.707-0.707 L27.072,23.487 M27.073,22.073l-9.986,9.983l-4.072-4.071L10,31l7,7.001L30,25L27.073,22.073L27.073,22.073z"/></g></svg>