<svg xmlns="http://www.w3.org/2000/svg"  viewBox="0 0 40 40" width="40px" height="40px"><path fill="#98ccfd" d="M28.045,37.5c-1.564,0-3.11-0.382-4.472-1.106l-0.153-0.082l-0.171,0.031 c-1,0.182-2.029,0.275-3.057,0.275c-9.191,0-16.67-7.372-16.67-16.432c0-1.107,0.113-2.218,0.337-3.301l0.04-0.19l-0.1-0.167 c-0.851-1.423-1.3-3.053-1.3-4.712C2.5,6.679,6.743,2.5,11.958,2.5c1.786,0,3.526,0.495,5.032,1.431l0.16,0.1l0.187-0.031 c0.945-0.16,1.906-0.241,2.855-0.241c9.193,0,16.672,7.37,16.672,16.429c0,1.195-0.131,2.381-0.389,3.526l-0.039,0.176l0.081,0.16 c0.652,1.285,0.982,2.676,0.982,4.134C37.5,33.321,33.259,37.5,28.045,37.5z"/><path fill="#4788c7" d="M11.958,3c1.693,0,3.341,0.469,4.768,1.355l0.322,0.2l0.373-0.063 c0.915-0.155,1.848-0.233,2.772-0.233c8.917,0,16.172,7.146,16.172,15.929c0,1.158-0.126,2.307-0.375,3.417l-0.079,0.351 l0.163,0.321C36.688,25.49,37,26.804,37,28.184C37,33.045,32.983,37,28.044,37c-1.483,0-2.947-0.362-4.236-1.048l-0.307-0.163 l-0.342,0.062c-0.971,0.177-1.97,0.267-2.967,0.267c-8.916,0-16.17-7.147-16.17-15.932c0-1.071,0.11-2.147,0.327-3.2l0.079-0.381 l-0.2-0.334C3.425,14.926,3,13.386,3,11.816C3,6.955,7.018,3,11.958,3 M11.958,2C6.46,2,2,6.396,2,11.816 c0,1.814,0.499,3.51,1.37,4.969c-0.227,1.101-0.348,2.238-0.348,3.402c0,9.354,7.686,16.932,17.17,16.932 c1.075,0,2.124-0.097,3.147-0.283C24.736,37.578,26.343,38,28.044,38C33.544,38,38,33.607,38,28.184 c0-1.567-0.37-3.047-1.036-4.361c0.263-1.172,0.4-2.389,0.4-3.636c0-9.348-7.688-16.929-17.172-16.929 c-1,0-1.981,0.085-2.938,0.247C15.721,2.553,13.907,2,11.958,2L11.958,2z"/><path fill="#fff" d="M27.529,26.993c-0.675,0.942-1.672,1.688-2.964,2.216C23.287,29.734,21.752,30,20.009,30 c-2.095,0-3.853-0.363-5.222-1.081c-0.981-0.522-1.79-1.23-2.401-2.102c-0.622-0.879-0.936-1.754-0.936-2.598 c0-0.526,0.205-0.984,0.608-1.358c0.401-0.37,0.913-0.556,1.523-0.556c0.501,0,0.933,0.147,1.285,0.44 c0.338,0.28,0.624,0.697,0.854,1.232c0.259,0.585,0.54,1.075,0.84,1.466c0.284,0.371,0.696,0.687,1.223,0.931 c0.529,0.248,1.241,0.372,2.119,0.372c1.206,0,2.194-0.253,2.936-0.753c0.726-0.489,1.081-1.078,1.081-1.796 c0-0.568-0.184-1.015-0.561-1.363c-0.398-0.367-0.924-0.652-1.558-0.847c-0.664-0.203-1.565-0.423-2.678-0.655 c-1.514-0.32-2.799-0.699-3.821-1.127c-1.048-0.44-1.89-1.047-2.508-1.807c-0.626-0.774-0.943-1.742-0.943-2.883 c0-1.088,0.333-2.067,0.992-2.911c0.65-0.837,1.604-1.492,2.831-1.939C16.882,10.222,18.323,10,19.951,10 c1.304,0,2.45,0.147,3.407,0.442c0.959,0.294,1.772,0.692,2.408,1.183c0.643,0.496,1.117,1.024,1.418,1.574 c0.303,0.554,0.456,1.106,0.456,1.639c0,0.514-0.2,0.982-0.598,1.389c-0.398,0.409-0.903,0.615-1.497,0.615 c-0.54,0-0.964-0.129-1.258-0.384c-0.273-0.238-0.556-0.61-0.871-1.144c-0.363-0.683-0.803-1.221-1.309-1.597 c-0.489-0.367-1.311-0.554-2.436-0.554c-1.045,0-1.895,0.206-2.526,0.615c-0.61,0.393-0.906,0.844-0.906,1.379 c0,0.327,0.096,0.601,0.291,0.837c0.21,0.248,0.501,0.468,0.871,0.65c0.384,0.189,0.778,0.341,1.174,0.449 c0.405,0.11,1.085,0.276,2.019,0.489c1.181,0.25,2.266,0.528,3.225,0.83c0.971,0.308,1.811,0.685,2.496,1.124 c0.696,0.449,1.25,1.024,1.644,1.712c0.394,0.69,0.591,1.543,0.591,2.535C28.549,24.969,28.207,26.049,27.529,26.993z"/></svg>