<svg xmlns="http://www.w3.org/2000/svg"  viewBox="0 0 40 40" width="80px" height="80px"><path fill="#fff" d="M20,32.5C10.238,32.5,2.002,21.886,0.616,20C2.002,18.115,10.245,7.5,20,7.5 c9.762,0,17.998,10.614,19.384,12.5C37.998,21.885,29.755,32.5,20,32.5z"/><path fill="#4788c7" d="M20,8c9.097,0,16.906,9.549,18.76,12C36.908,22.453,29.11,32,20,32c-9.097,0-16.906-9.549-18.76-12 C3.092,17.547,10.89,8,20,8 M20,7C8.954,7,0,20,0,20s8.954,13,20,13s20-13,20-13S31.046,7,20,7L20,7z"/><path fill="#98ccfd" d="M25.994 26.701C27.835 25.053 29 22.665 29 20c0-4.971-4.029-9-9-9-2.665 0-5.053 1.165-6.701 3.006L25.994 26.701zM8.166 12.873L25.98 30.687c.329-.139.654-.284.974-.44l-17.99-17.99C8.693 12.46 8.428 12.666 8.166 12.873zM6.019 14.726l16.932 16.932c.378-.082.751-.182 1.123-.291L6.757 14.05C6.501 14.276 6.261 14.501 6.019 14.726zM4.707 16c-.242.247-.468.486-.69.724l15.228 15.228C19.497 31.966 19.746 32 20 32c.224 0 .443-.031.665-.042L4.707 16zM2.145 18.852l11.803 11.803c.713.305 1.442.564 2.187.773L2.791 18.084C2.557 18.357 2.341 18.614 2.145 18.852z"/><path fill="#4788c7" d="M22.441,23.148C23.383,22.416,24,21.285,24,20c0-2.209-1.791-4-4-4c-1.285,0-2.416,0.617-3.148,1.559 L22.441,23.148z"/><path fill="#dff0fe" d="M23 14A2 2 0 1 0 23 18A2 2 0 1 0 23 14Z"/><path fill="none" stroke="#4788c7" stroke-linecap="round" stroke-miterlimit="10" stroke-width="2" d="M3 3L37 37"/></svg>