<svg xmlns="http://www.w3.org/2000/svg"  viewBox="0 0 40 40" width="80px" height="80px"><path fill="#b6dcfe" d="M34.5 6.5H37.5V32.5H34.5z"/><path fill="#4788c7" d="M37,7v25h-2V7H37 M38,6h-4v27h4V6L38,6z"/><path fill="#b6dcfe" d="M1.5 6.5H4.5V32.5H1.5z"/><path fill="#4788c7" d="M4 7v25H2V7H4M5 6H1v27h4V6L5 6zM30.5 32A.5.5 0 1 0 30.5 33 .5.5 0 1 0 30.5 32zM28.5 32A.5.5 0 1 0 28.5 33 .5.5 0 1 0 28.5 32zM26.5 32A.5.5 0 1 0 26.5 33 .5.5 0 1 0 26.5 32zM24.5 32A.5.5 0 1 0 24.5 33 .5.5 0 1 0 24.5 32zM22.5 32A.5.5 0 1 0 22.5 33 .5.5 0 1 0 22.5 32zM20.5 32A.5.5 0 1 0 20.5 33 .5.5 0 1 0 20.5 32zM18.5 32A.5.5 0 1 0 18.5 33 .5.5 0 1 0 18.5 32zM16.5 32A.5.5 0 1 0 16.5 33 .5.5 0 1 0 16.5 32zM14.5 32A.5.5 0 1 0 14.5 33 .5.5 0 1 0 14.5 32zM12.5 32A.5.5 0 1 0 12.5 33 .5.5 0 1 0 12.5 32zM10.5 32A.5.5 0 1 0 10.5 33 .5.5 0 1 0 10.5 32zM8.5 32A.5.5 0 1 0 8.5 33 .5.5 0 1 0 8.5 32zM6.5 32A.5.5 0 1 0 6.5 33 .5.5 0 1 0 6.5 32zM30.5 6A.5.5 0 1 0 30.5 7 .5.5 0 1 0 30.5 6zM32.5 32A.5.5 0 1 0 32.5 33 .5.5 0 1 0 32.5 32zM32.5 6A.5.5 0 1 0 32.5 7 .5.5 0 1 0 32.5 6zM28.5 6A.5.5 0 1 0 28.5 7 .5.5 0 1 0 28.5 6zM26.5 6A.5.5 0 1 0 26.5 7 .5.5 0 1 0 26.5 6zM24.5 6A.5.5 0 1 0 24.5 7 .5.5 0 1 0 24.5 6zM22.5 6A.5.5 0 1 0 22.5 7 .5.5 0 1 0 22.5 6zM20.5 6A.5.5 0 1 0 20.5 7 .5.5 0 1 0 20.5 6zM18.5 6A.5.5 0 1 0 18.5 7 .5.5 0 1 0 18.5 6zM16.5 6A.5.5 0 1 0 16.5 7 .5.5 0 1 0 16.5 6zM14.5 6A.5.5 0 1 0 14.5 7 .5.5 0 1 0 14.5 6zM12.5 6A.5.5 0 1 0 12.5 7 .5.5 0 1 0 12.5 6zM10.5 6A.5.5 0 1 0 10.5 7 .5.5 0 1 0 10.5 6zM8.5 6A.5.5 0 1 0 8.5 7 .5.5 0 1 0 8.5 6zM6.5 6A.5.5 0 1 0 6.5 7 .5.5 0 1 0 6.5 6z"/><g><path fill="#4788c7" d="M12 21L20 21 20 18 12 18 12 13 5 19.5 12 26z"/></g><g><path fill="#4788c7" d="M27 18L19 18 19 21 27 21 27 26 34 19.5 27 13z"/></g></svg>