<svg xmlns="http://www.w3.org/2000/svg"  viewBox="0 0 40 40" width="80px" height="80px"><path fill="#dff0fe" d="M3.5 38.5L3.5 13.286 19.998 3.58 36.5 13.286 36.5 38.5z"/><path fill="#4788c7" d="M19.998,4.16L36,13.572V38H4V13.572L19.998,4.16 M19.998,3L3,13v26h34V13L19.998,3L19.998,3z"/><path fill="#b6dcfe" d="M19.998 4.645L1.5 15.955 1.5 12.896 19.998 1.586 38.5 12.896 38.5 15.955z"/><path fill="#4788c7" d="M19.998,2.172L38,13.176v1.887L20.519,4.378l-0.522-0.319l-0.522,0.319L2,15.063v-1.887 L19.998,2.172 M19.998,1L1,12.615v4.231L19.998,5.231L39,16.846v-4.231L19.998,1L19.998,1z"/><g><path fill="#b6dcfe" d="M14.5 21.5H25.5V38.5H14.5z"/><path fill="#4788c7" d="M25,22v16H15V22H25 M26,21H14v18h12V21L26,21z"/></g><path fill="#4788c7" d="M23 30A1 1 0 1 0 23 32A1 1 0 1 0 23 30Z"/></svg>