<svg xmlns="http://www.w3.org/2000/svg"  viewBox="0 0 40 40" width="80px" height="80px"><path fill="#b6dcfe" d="M10.5 1.5H28.5V4.5H10.5z"/><path fill="#4788c7" d="M28,2v2H11V2H28 M29,1H10v4h19V1L29,1z"/><path fill="#b6dcfe" d="M1.5 34.5H37.5V37.5H1.5z"/><path fill="#4788c7" d="M37 35v2H2v-2H37M38 34H1v4h37V34L38 34zM37.5 32A.5.5 0 1 0 37.5 33 .5.5 0 1 0 37.5 32zM36.808 30A.5.5 0 1 0 36.808 31 .5.5 0 1 0 36.808 30zM36.115 28A.5.5 0 1 0 36.115 29 .5.5 0 1 0 36.115 28zM35.423 26A.5.5 0 1 0 35.423 27 .5.5 0 1 0 35.423 26zM34.731 24A.5.5 0 1 0 34.731 25 .5.5 0 1 0 34.731 24zM34.038 22A.5.5 0 1 0 34.038 23 .5.5 0 1 0 34.038 22zM33.346 20A.5.5 0 1 0 33.346 21 .5.5 0 1 0 33.346 20zM32.654 18A.5.5 0 1 0 32.654 19 .5.5 0 1 0 32.654 18zM31.962 16A.5.5 0 1 0 31.962 17 .5.5 0 1 0 31.962 16zM31.269 14A.5.5 0 1 0 31.269 15 .5.5 0 1 0 31.269 14zM30.577 12A.5.5 0 1 0 30.577 13 .5.5 0 1 0 30.577 12zM29.885 10A.5.5 0 1 0 29.885 11 .5.5 0 1 0 29.885 10zM29.192 8A.5.5 0 1 0 29.192 9 .5.5 0 1 0 29.192 8zM28.5 6A.5.5 0 1 0 28.5 7 .5.5 0 1 0 28.5 6z"/><g><path fill="#4788c7" d="M1.5 32A.5.5 0 1 0 1.5 33 .5.5 0 1 0 1.5 32zM2.192 30A.5.5 0 1 0 2.192 31 .5.5 0 1 0 2.192 30zM2.885 28A.5.5 0 1 0 2.885 29 .5.5 0 1 0 2.885 28zM3.577 26A.5.5 0 1 0 3.577 27 .5.5 0 1 0 3.577 26zM4.269 24A.5.5 0 1 0 4.269 25 .5.5 0 1 0 4.269 24zM4.962 22A.5.5 0 1 0 4.962 23 .5.5 0 1 0 4.962 22zM5.654 20A.5.5 0 1 0 5.654 21 .5.5 0 1 0 5.654 20zM6.346 18A.5.5 0 1 0 6.346 19 .5.5 0 1 0 6.346 18zM7.038 16A.5.5 0 1 0 7.038 17 .5.5 0 1 0 7.038 16zM7.731 14A.5.5 0 1 0 7.731 15 .5.5 0 1 0 7.731 14zM8.423 12A.5.5 0 1 0 8.423 13 .5.5 0 1 0 8.423 12zM9.115 10A.5.5 0 1 0 9.115 11 .5.5 0 1 0 9.115 10zM9.808 8A.5.5 0 1 0 9.808 9 .5.5 0 1 0 9.808 8zM10.5 6A.5.5 0 1 0 10.5 7 .5.5 0 1 0 10.5 6z"/></g><g><path fill="#4788c7" d="M21 27L21 19 18 19 18 27 13 27 19.5 34 26 27z"/></g><g><path fill="#4788c7" d="M18 12L18 20 21 20 21 12 26 12 19.5 5 13 12z"/></g></svg>