<svg xmlns="http://www.w3.org/2000/svg"  viewBox="0 0 40 40" width="80px" height="80px"><path fill="#98ccfd" d="M4,23.5c-0.827,0-1.5-0.673-1.5-1.5V4c0-0.827,0.673-1.5,1.5-1.5h17c0.827,0,1.5,0.673,1.5,1.5v18 c0,0.827-0.673,1.5-1.5,1.5H4z"/><path fill="#4788c7" d="M21,3c0.551,0,1,0.449,1,1v18c0,0.551-0.449,1-1,1H4c-0.551,0-1-0.449-1-1V4c0-0.551,0.449-1,1-1 H21 M21,2H4C2.895,2,2,2.895,2,4v18c0,1.105,0.895,2,2,2h17c1.105,0,2-0.895,2-2V4C23,2.895,22.105,2,21,2L21,2z"/><path fill="#fff" d="M11 5H15V9H11zM5 5H9V9H5zM11 11H15V15H11zM5 11H9V15H5zM11 17H15V21H11zM5 17H9V21H5z"/><path fill="#dff0fe" d="M25.361,38.5c-2.531,0-4.841-1.179-6.338-3.236l-8.712-10.095 c-1.071-1.073-1.071-2.775-0.025-3.822c0.568-0.568,1.242-0.848,1.959-0.848s1.391,0.279,1.897,0.786l3.357,3.891V7 c0-1.378,1.121-2.5,2.5-2.5s2.5,1.122,2.5,2.5v8.902l0.835-0.752C23.8,14.731,24.392,14.5,25,14.5 c1.034,0,1.973,0.657,2.335,1.634l0.282,0.76l0.553-0.593C28.65,15.784,29.301,15.5,30,15.5c1.042,0,1.981,0.657,2.34,1.635 l0.28,0.766l0.556-0.597C33.657,16.785,34.306,16.5,35,16.5c1.379,0,2.5,1.122,2.5,2.5v11.921c0,4.179-3.399,7.579-7.578,7.579 H25.361z"/><path fill="#4788c7" d="M20,5c1.103,0,2,0.897,2,2v7.779v2.247l1.669-1.504C23.933,15.284,24.379,15,25,15 c0.826,0,1.576,0.526,1.866,1.308l0.564,1.519l1.105-1.185C28.921,16.228,29.441,16,30,16c0.833,0,1.585,0.525,1.87,1.306 l0.56,1.532l1.111-1.194C33.928,17.229,34.446,17,35,17c1.103,0,2,0.897,2,2l0,1v10.921C37,34.825,33.825,38,29.921,38h-4.56 c-2.369,0-4.532-1.104-5.934-3.03l-0.024-0.034l-0.027-0.031l-8.687-10.063l-0.024-0.028l-0.026-0.026 c-0.851-0.851-0.851-2.237,0-3.088l0.061-0.061c0.412-0.412,0.961-0.64,1.544-0.64c0.572,0,1.111,0.219,1.52,0.616l2.478,2.87 L18,26.522l0-2.689L18,22V7C18,5.897,18.897,5,20,5 M20,4c-1.657,0-3,1.343-3,3v15h0v1.833l-2.504-2.9 C13.875,20.311,13.06,20,12.245,20c-0.815,0-1.629,0.311-2.251,0.932l-0.062,0.062c-1.243,1.243-1.243,3.259,0,4.502 l8.687,10.063C20.136,37.642,22.577,39,25.361,39h4.56C34.383,39,38,35.383,38,30.921V20h0v-1c0-1.657-1.343-3-3-3 c-0.868,0-1.643,0.374-2.191,0.963C32.39,15.816,31.296,15,30,15c-0.871,0-1.648,0.372-2.196,0.96C27.38,14.818,26.289,14,25,14 c-0.772,0-1.468,0.3-2,0.779V7C23,5.343,21.657,4,20,4L20,4z"/><path fill="#4788c7" d="M32 17L32 20 33 20 33.009 18.17zM27 16L27 20 28 20 28 17zM22 15L22 20 23 20 23 16z"/><path fill="#4788c7" d="M22.5 19L22.5 19c.275 0 .5.225.5.5v1c0 .275-.225.5-.5.5l0 0c-.275 0-.5-.225-.5-.5v-1C22 19.225 22.225 19 22.5 19zM27.5 19L27.5 19c.275 0 .5.225.5.5v1c0 .275-.225.5-.5.5l0 0c-.275 0-.5-.225-.5-.5v-1C27 19.225 27.225 19 27.5 19zM32.5 19L32.5 19c.275 0 .5.225.5.5v1c0 .275-.225.5-.5.5l0 0c-.275 0-.5-.225-.5-.5v-1C32 19.225 32.225 19 32.5 19z"/></svg>