<svg xmlns="http://www.w3.org/2000/svg"  viewBox="0 0 40 40" width="80px" height="80px"><path fill="#b6dcfe" d="M24,30.5c-7.995,0-14.5-6.505-14.5-14.5S16.005,1.5,24,1.5S38.5,8.005,38.5,16S31.995,30.5,24,30.5z"/><path fill="#4788c7" d="M24,2c7.72,0,14,6.28,14,14s-6.28,14-14,14s-14-6.28-14-14S16.28,2,24,2 M24,1 C15.716,1,9,7.716,9,16s6.716,15,15,15s15-6.716,15-15S32.284,1,24,1L24,1z"/><path fill="#4788c7" d="M21 6A1 1 0 1 0 21 8 1 1 0 1 0 21 6zM29 9A2 2 0 1 0 29 13 2 2 0 1 0 29 9z"/><path fill="#dff0fe" d="M17,38.5C8.453,38.5,1.5,31.547,1.5,23S8.453,7.5,17,7.5S32.5,14.453,32.5,23S25.547,38.5,17,38.5z"/><path fill="#4788c7" d="M17,8c8.271,0,15,6.729,15,15s-6.729,15-15,15S2,31.271,2,23S8.729,8,17,8 M17,7 C8.163,7,1,14.163,1,23s7.163,16,16,16s16-7.163,16-16S25.837,7,17,7L17,7z"/><path fill="#4788c7" d="M21 15A1 1 0 1 0 21 17 1 1 0 1 0 21 15zM24.5 21A1.5 1.5 0 1 0 24.5 24 1.5 1.5 0 1 0 24.5 21zM35 15A1 1 0 1 0 35 17 1 1 0 1 0 35 15zM22.5 29A1.5 1.5 0 1 0 22.5 32 1.5 1.5 0 1 0 22.5 29zM8 17A2 2 0 1 0 8 21 2 2 0 1 0 8 17z"/><g><path fill="#4788c7" d="M11 13A1 1 0 1 0 11 15A1 1 0 1 0 11 13Z"/></g><g><path fill="#4788c7" d="M13 26A2 2 0 1 0 13 30A2 2 0 1 0 13 26Z"/></g></svg>