<svg xmlns="http://www.w3.org/2000/svg"  viewBox="0 0 40 40" width="80px" height="80px"><path fill="#dff0fe" d="M6.5 33.5L6.5 31.96 9.5 31.21 9.5 9.5 3.766 9.5 2.623 13.5 1.5 13.5 1.5 6.5 22.5 6.5 22.5 13.5 21.377 13.5 20.234 9.5 14.5 9.5 14.5 31.21 17.5 31.96 17.5 33.5z"/><path fill="#4788c7" d="M22,7v6h-0.246l-0.936-3.275L20.611,9h-0.754H15h-1v1v20.819V31.6l0.757,0.189L17,32.35V33H7v-0.65 l2.243-0.561L10,31.6v-0.781V10V9H9H4.143H3.389L3.181,9.725L2.246,13H2V7H22 M23,6H1v8h2l1.143-4H9v20.819l-3,0.75V34h12v-2.431 l-3-0.75V10h4.857L21,14h2V6L23,6z"/><g><path fill="#dff0fe" d="M26.5 33.5L26.5 31.93 29.5 30.93 29.5 19.5 25.461 19.5 24.661 21.5 23.5 21.5 23.5 16.5 38.5 16.5 38.5 21.5 37.339 21.5 36.539 19.5 32.5 19.5 32.5 30.93 35.5 31.93 35.5 33.5z"/><path fill="#4788c7" d="M38,17v4h-0.323l-0.549-1.371L36.877,19H36.2H33h-1v1v10.569v0.721l0.684,0.228L35,32.29V33h-8 v-0.71l2.316-0.772L30,31.29v-0.721V20v-1h-1h-3.2h-0.677l-0.251,0.629L24.323,21H24v-4H38 M39,16H23v6h2l0.8-2H29v10.569l-3,1V34 h10v-2.431l-3-1V20h3.2l0.8,2h2V16L39,16z"/></g></svg>