<svg xmlns="http://www.w3.org/2000/svg"  viewBox="0 0 40 40" width="80px" height="80px"><path fill="#dff0fe" d="M20,38.5c-7.859,0-14.5-2.748-14.5-6V7h29v25.5C34.5,35.752,27.859,38.5,20,38.5z"/><path fill="#4788c7" d="M34,7.5v25c0,2.601-5.75,5.5-14,5.5S6,35.101,6,32.5v-25H34 M35,6.5H5c0,1.29,0,24.71,0,26	c0,3.59,6.716,6.5,15,6.5s15-2.91,15-6.5C35,31.21,35,7.79,35,6.5L35,6.5z"/><path fill="#dff0fe" d="M20,11.5c-8.674,0-14.5-2.585-14.5-5s5.826-5,14.5-5s14.5,2.585,14.5,5S28.674,11.5,20,11.5z"/><path fill="#4788c7" d="M20,2c8.674,0,14,2.621,14,4.5S28.674,11,20,11S6,8.379,6,6.5S11.326,2,20,2 M20,1	C11.716,1,5,3.462,5,6.5S11.716,12,20,12s15-2.462,15-5.5S28.284,1,20,1L20,1z"/><path fill="#4788c7" d="M20,30c-8.411,0-15-2.979-15-6.783h1C6,26.352,12.411,29,20,29s14-2.648,14-5.783h1 C35,27.021,28.411,30,20,30z M20,21c-8.411,0-15-2.556-15-5.817h1C6,17.509,11.626,20,20,20s14-2.491,14-4.817h1 C35,18.444,28.411,21,20,21z"/><path fill="#dff0fe" d="M35,36V20.851L32,22l-5,2v4h-5.563l5.092,10.357c1.033-0.169,2.946-0.786,3.58-1.029L35,36z"/><path fill="#dff0fe" d="M18.898,1.021c1.254-0.068,9.856-0.003,16.102,0l0,20.812l-6.458-2.91h-9.644L18.898,1.021z"/><path fill="#fff" d="M21.5,16.5v-15h17v15H21.5z"/><path fill="#4788c7" d="M39,17H21V1h18V17z M22,16h16V2H22V16z"/><path fill="#b6dcfe" d="M21.5,1.5h17v3h-17V1.5z"/><path fill="#4788c7" d="M39,5H21V1h18V5z M22,4h16V2H22V4z"/><path fill="#b6dcfe" d="M22,15h16v1H22V15z"/><rect width="2" height="2" x="33" y="6" fill="#b6dcfe"/><rect width="2" height="2" x="29" y="6" fill="#b6dcfe"/><rect width="2" height="2" x="25" y="6" fill="#b6dcfe"/><rect width="2" height="2" x="33" y="9" fill="#b6dcfe"/><rect width="2" height="2" x="29" y="9" fill="#b6dcfe"/><rect width="2" height="2" x="25" y="9" fill="#b6dcfe"/><rect width="2" height="2" x="33" y="12" fill="#b6dcfe"/><rect width="2" height="2" x="29" y="12" fill="#b6dcfe"/><rect width="2" height="2" x="25" y="12" fill="#b6dcfe"/><path fill="#98ccfd" d="M25.04,32.5h4.46v6h5v-6h4.46L32,23.8L25.04,32.5z"/><path fill="#4788c7" d="M35,39h-6v-6h-5l8-10.001L40,33h-5V39z M30,38h4v-6h3.92L32,24.601L26.08,32H30V38z"/><path fill="#4788c7" d="M18.406,2.016c-0.272,0-0.496-0.219-0.5-0.493c-0.004-0.275,0.217-0.503,0.493-0.507L19.472,1 c0.002,0,0.005,0,0.007,0c0.272,0,0.496,0.219,0.5,0.493C19.982,1.769,19.762,1.996,19.485,2l-1.072,0.016 C18.411,2.016,18.408,2.016,18.406,2.016z"/><path fill="#4788c7" d="M19.338,12c-0.005,0-0.011,0-0.017,0l-0.479-0.016c-0.275-0.01-0.492-0.24-0.483-0.517 c0.009-0.271,0.231-0.483,0.5-0.483c0.005,0,0.011,0,0.017,0L19.354,11c0.275,0.01,0.492,0.24,0.483,0.517 C19.829,11.787,19.606,12,19.338,12z"/><g><path fill="#4788c7" d="M25.202,38.594c-0.234,0-0.443-0.166-0.49-0.405c-0.052-0.271,0.125-0.533,0.396-0.586l1.375-0.266 c0.266-0.05,0.532,0.125,0.586,0.396c0.052,0.271-0.125,0.533-0.396,0.586l-1.375,0.266C25.266,38.591,25.234,38.594,25.202,38.594 z"/></g><g><path fill="#4788c7" d="M21.641,29.955c-0.269,0-0.491-0.214-0.5-0.484c-0.009-0.275,0.208-0.507,0.484-0.516 c0.489-0.016,0.992-0.068,1.425-0.114l0.117-0.012c0.27-0.031,0.521,0.171,0.549,0.445c0.029,0.274-0.171,0.521-0.445,0.549 l-0.116,0.013c-0.455,0.048-0.983,0.103-1.498,0.119C21.651,29.955,21.646,29.955,21.641,29.955z"/></g><g><path fill="#4788c7" d="M28.391,20.016c-0.224,0-0.427-0.15-0.484-0.377C27.838,19.371,28,19.1,28.268,19.031l1.656-0.422 c0.27-0.072,0.539,0.094,0.607,0.361s-0.094,0.539-0.361,0.607L28.514,20C28.473,20.011,28.431,20.016,28.391,20.016z"/></g></svg>