<svg xmlns="http://www.w3.org/2000/svg"  viewBox="0 0 40 40" width="80px" height="80px"><path fill="#98ccfd" d="M37.995,38.46c-2.113-0.165-4.481-0.831-6.779-1.917l-0.193-0.091l-0.199,0.076 C29.13,37.173,27.339,37.5,25.5,37.5c-7.168,0-13-4.935-13-11s5.832-11,13-11s13,4.935,13,11c0,2.53-1.042,5.001-2.935,6.958 l-0.242,0.25l0.151,0.314C36.292,35.724,37.138,37.211,37.995,38.46z"/><path fill="#4788c7" d="M25.5,16C32.393,16,38,20.71,38,26.5c0,2.4-0.992,4.748-2.794,6.611l-0.484,0.501l0.302,0.628 c0.641,1.333,1.3,2.537,1.968,3.602c-1.775-0.267-3.691-0.866-5.563-1.751l-0.385-0.182l-0.398,0.152 C29.009,36.684,27.278,37,25.5,37C18.607,37,13,32.29,13,26.5S18.607,16,25.5,16 M25.5,15C18.044,15,12,20.149,12,26.5 C12,32.851,18.044,38,25.5,38c1.961,0,3.82-0.364,5.501-1.005C33.547,38.198,36.405,39,39,39 c-1.176-1.549-2.201-3.377-3.075-5.194C37.846,31.82,39,29.275,39,26.5C39,20.149,32.956,15,25.5,15L25.5,15z"/><g><path fill="#dff0fe" d="M2.005,24.46c0.857-1.249,1.702-2.736,2.521-4.437l0.151-0.314l-0.242-0.25 C2.542,17.501,1.5,15.03,1.5,12.5c0-6.065,5.832-11,13-11s13,4.935,13,11s-5.832,11-13,11c-1.839,0-3.63-0.327-5.323-0.972 l-0.199-0.076l-0.193,0.091C6.487,23.629,4.119,24.295,2.005,24.46z"/><path fill="#4788c7" d="M14.5,2C21.393,2,27,6.71,27,12.5S21.393,23,14.5,23c-1.778,0-3.509-0.316-5.145-0.939 l-0.398-0.152l-0.385,0.182c-1.872,0.885-3.788,1.484-5.563,1.751c0.668-1.065,1.326-2.269,1.968-3.602l0.302-0.628l-0.484-0.501 C2.992,17.248,2,14.9,2,12.5C2,6.71,7.607,2,14.5,2 M14.5,1C7.044,1,1,6.149,1,12.5c0,2.775,1.154,5.32,3.075,7.306 C3.201,21.623,2.176,23.451,1,25c2.595,0,5.453-0.802,7.999-2.005C10.68,23.636,12.539,24,14.5,24C21.956,24,28,18.851,28,12.5 C28,6.149,21.956,1,14.5,1L14.5,1z"/></g></svg>