<svg xmlns="http://www.w3.org/2000/svg"  viewBox="0 0 40 40" width="80px" height="80px"><path fill="#98ccfd" d="M5,37.5c-1.378,0-2.5-1.121-2.5-2.5V5c0-1.379,1.122-2.5,2.5-2.5h30c1.378,0,2.5,1.121,2.5,2.5v30 c0,1.379-1.122,2.5-2.5,2.5H5z"/><path fill="#4788c7" d="M35,3c1.103,0,2,0.897,2,2v30c0,1.103-0.897,2-2,2H5c-1.103,0-2-0.897-2-2V5c0-1.103,0.897-2,2-2 H35 M35,2H5C3.343,2,2,3.343,2,5v30c0,1.657,1.343,3,3,3h30c1.657,0,3-1.343,3-3V5C38,3.343,36.657,2,35,2L35,2z"/><path fill="#dff0fe" d="M26,12H14c-1.105,0-2,0.895-2,2v12c0,1.105,0.895,2,2,2h12c1.105,0,2-0.895,2-2V14 C28,12.895,27.105,12,26,12z"/><path fill="#fff" d="M14 5A1 1 0 1 0 14 7 1 1 0 1 0 14 5zM18 5A1 1 0 1 0 18 7 1 1 0 1 0 18 5zM22 5A1 1 0 1 0 22 7 1 1 0 1 0 22 5zM26 5A1 1 0 1 0 26 7 1 1 0 1 0 26 5zM14 33A1 1 0 1 0 14 35 1 1 0 1 0 14 33zM18 33A1 1 0 1 0 18 35 1 1 0 1 0 18 33zM22 33A1 1 0 1 0 22 35 1 1 0 1 0 22 33zM26 33A1 1 0 1 0 26 35 1 1 0 1 0 26 33zM34 13A1 1 0 1 0 34 15 1 1 0 1 0 34 13zM34 17A1 1 0 1 0 34 19 1 1 0 1 0 34 17zM34 21A1 1 0 1 0 34 23 1 1 0 1 0 34 21zM34 25A1 1 0 1 0 34 27 1 1 0 1 0 34 25zM6 13A1 1 0 1 0 6 15 1 1 0 1 0 6 13zM6 17A1 1 0 1 0 6 19 1 1 0 1 0 6 17zM6 21A1 1 0 1 0 6 23 1 1 0 1 0 6 21zM6 25A1 1 0 1 0 6 27 1 1 0 1 0 6 25z"/></svg>