<svg xmlns="http://www.w3.org/2000/svg"  viewBox="0 0 40 40" width="80px" height="80px"><path fill="#4788c7" d="M21 32L21 26 19 26 19 32 13 32 20 39 27 32z"/><path fill="#4788c7" d="M19.5 7.5H20.5V45.5H19.5z" transform="rotate(-90 20 26.5)"/><path fill="#b6dcfe" d="M19.5 16.5L10.5 16.5 10.5 10.5 19.5 10.5 19.5 5.092 29.235 13.5 19.5 21.908z"/><path fill="#4788c7" d="M20 6.185l8.47 7.315L20 20.815V17v-1h-1-8v-5h8 1v-1V6.185M19 4v6h-9c0 3.208 0 4.764 0 7h9v6l11-9.5L19 4 19 4zM2 27H1V1.5C1 1.224 1.224 1 1.5 1h0C1.776 1 2 1.224 2 1.5V27zM39 27h-1V1.5C38 1.224 38.224 1 38.5 1l0 0C38.776 1 39 1.224 39 1.5V27z"/></svg>