<svg xmlns="http://www.w3.org/2000/svg"  viewBox="0 0 40 40" width="80px" height="80px"><polygon fill="#dff0fe" points="33.865,23.5 6.135,23.5 1,38.5 39,38.5"/><path fill="#4788c7" d="M39,39H1c-0.162,0-0.313-0.078-0.407-0.209s-0.119-0.3-0.066-0.453l5.135-15 C5.731,23.136,5.921,23,6.135,23h27.729c0.214,0,0.404,0.136,0.473,0.338l5.135,15c0.052,0.153,0.027,0.321-0.066,0.453 S39.162,39,39,39z M1.7,38H38.3l-4.793-14H6.493L1.7,38z"/><rect width="22" height="1.5" x="9" y="23" fill="#dff0fe"/><path fill="#98ccfd" d="M19.999,35.311C18.064,33.124,8.5,21.858,8.5,13C8.5,6.658,13.658,1.5,20,1.5S31.5,6.658,31.5,13 C31.5,21.814,21.934,33.117,19.999,35.311z"/><path fill="#4788c7" d="M20,36.066l-0.375-0.424C17.684,33.448,8,22.043,8,13C8,6.383,13.383,1,20,1s12,5.383,12,12 c0,9.002-9.685,20.44-11.626,22.642L20,36.066z M20,2C13.935,2,9,6.935,9,13c0,8.209,8.47,18.625,10.999,21.551 C22.526,31.617,31,21.172,31,13C31,6.935,26.065,2,20,2z"/><path fill="#fff" d="M20,18.5c-3.032,0-5.5-2.467-5.5-5.5s2.468-5.5,5.5-5.5s5.5,2.467,5.5,5.5S23.032,18.5,20,18.5z"/><path fill="#4788c7" d="M20,19c-3.309,0-6-2.691-6-6s2.691-6,6-6s6,2.691,6,6S23.309,19,20,19z M20,8c-2.757,0-5,2.243-5,5 s2.243,5,5,5s5-2.243,5-5S22.757,8,20,8z"/><g><path fill="#4788c7" d="M9,24H8c-0.276,0-0.5-0.224-0.5-0.5S7.724,23,8,23h1c0.276,0,0.5,0.224,0.5,0.5S9.276,24,9,24z"/></g><g><path fill="#4788c7" d="M31.998,24h-1c-0.276,0-0.5-0.224-0.5-0.5s0.224-0.5,0.5-0.5h1c0.276,0,0.5,0.224,0.5,0.5 S32.274,24,31.998,24z"/></g></svg>