<svg xmlns="http://www.w3.org/2000/svg"  viewBox="0 0 40 40" width="40px" height="40px"><path fill="#dff0fe" d="M10,37.5c-4.136,0-7.5-3.364-7.5-7.5V10c0-4.136,3.364-7.5,7.5-7.5h20c4.136,0,7.5,3.364,7.5,7.5v20 c0,4.136-3.364,7.5-7.5,7.5H10z"/><path fill="#4788c7" d="M30,3c3.86,0,7,3.14,7,7v20c0,3.86-3.14,7-7,7H10c-3.86,0-7-3.14-7-7V10c0-3.86,3.14-7,7-7H30 M30,2H10c-4.418,0-8,3.582-8,8v20c0,4.418,3.582,8,8,8h20c4.418,0,8-3.582,8-8V10C38,5.582,34.418,2,30,2L30,2z"/><polygon fill="#fff" points="24,28 12,28 12,10 30,10 30,22"/><path fill="#98ccfd" d="M10.257,9.649L9.064,12.83C9.022,12.942,9,13.061,9,13.181V28c0,0.552,0.448,1,1,1h5v2	c0,0.552,0.448,1,1,1h1.086c0.265,0,0.52-0.105,0.707-0.293L20.5,29h4.086c0.265,0,0.52-0.105,0.707-0.293l5.414-5.414	C30.895,23.105,31,22.851,31,22.586V10c0-0.552-0.448-1-1-1H11.193C10.776,9,10.403,9.259,10.257,9.649z M13,11h16v11l-3,3h-6l-3,3	v-3h-4V11z M18,15v6h2v-6H18z M23,15v6h2v-6H23z"/></svg>