<svg xmlns="http://www.w3.org/2000/svg"  viewBox="0 0 40 40" width="80px" height="80px"><path fill="#98ccfd" d="M1.516,29.5c0.283-4.455,4.316-8,9.234-8h6.5c4.918,0,8.952,3.545,9.234,8H1.516z"/><path fill="#4788c7" d="M17.25,22c4.454,0,8.142,3.059,8.682,7H2.068c0.54-3.941,4.228-7,8.682-7H17.25 M17.25,21h-6.5 C5.365,21,1,25.029,1,30h26C27,25.029,22.635,21,17.25,21L17.25,21z"/><path fill="#dff0fe" d="M14,23.5c-2.362,0-3.322-1.994-3.5-2.418v-4.255h7v4.255C17.322,21.506,16.362,23.5,14,23.5z"/><path fill="#4788c7" d="M17,17.328v3.649C16.775,21.463,15.913,23,14,23c-1.917,0-2.779-1.543-3-2.023v-3.649H17 M18,16.328h-8v4.849c0,0,1.014,2.823,4,2.823s4-2.823,4-2.823V16.328L18,16.328z"/><path fill="#98ccfd" d="M19.357,14.786c-0.906,0-1.643-0.737-1.643-1.644c0-0.905,0.737-1.643,1.643-1.643 c1.518,0,1.643,0.439,1.643,0.929C21,13.415,20.172,14.786,19.357,14.786z M8.643,14.786C7.828,14.786,7,13.415,7,12.429 C7,11.939,7.125,11.5,8.643,11.5c0.906,0,1.643,0.737,1.643,1.643C10.286,14.049,9.549,14.786,8.643,14.786z"/><path fill="#4788c7" d="M19.357,12c1.143,0,1.143,0.218,1.143,0.429c0,0.82-0.709,1.857-1.143,1.857 c-0.63,0-1.143-0.513-1.143-1.143C18.214,12.513,18.727,12,19.357,12 M8.643,12c0.63,0,1.143,0.513,1.143,1.143 c0,0.63-0.513,1.143-1.143,1.143c-0.434,0-1.143-1.038-1.143-1.857C7.5,12.218,7.5,12,8.643,12 M19.357,11 c-1.183,0-2.143,0.959-2.143,2.143s0.959,2.143,2.143,2.143s2.143-1.674,2.143-2.857C21.5,11.245,20.541,11,19.357,11L19.357,11z M8.643,11C7.459,11,6.5,11.245,6.5,12.429c0,1.183,0.959,2.857,2.143,2.857s2.143-0.959,2.143-2.143S9.826,11,8.643,11L8.643,11z"/><path fill="#dff0fe" d="M14,20.5c-0.517,0-1-0.212-1.36-0.597l-0.092-0.099l-0.129-0.038 C10.111,19.074,8.5,16.909,8.5,14.5V7.526c0-1.301,1.059-2.359,2.359-2.359h6.281c1.301,0,2.359,1.059,2.359,2.359V14.5 c0,2.409-1.611,4.574-3.918,5.267l-0.129,0.038l-0.092,0.099C15,20.288,14.517,20.5,14,20.5z"/><path fill="#4788c7" d="M17.141,5.667c1.025,0,1.859,0.834,1.859,1.86V14.5c0,2.19-1.465,4.159-3.562,4.788l-0.258,0.078 l-0.184,0.197C14.731,19.845,14.377,20,14,20s-0.731-0.155-0.995-0.438l-0.184-0.197l-0.258-0.078C10.465,18.659,9,16.69,9,14.5 V7.526c0-1.025,0.834-1.86,1.859-1.86H17.141 M17.141,4.667h-6.281C9.28,4.667,8,5.947,8,7.526V14.5 c0,2.714,1.803,5.004,4.275,5.745C12.707,20.707,13.318,21,14,21s1.293-0.293,1.725-0.755C18.197,19.504,20,17.214,20,14.5V7.526 C20,5.947,18.72,4.667,17.141,4.667L17.141,4.667z"/><path fill="#98ccfd" d="M20,20.5c-1.337,0-2.588-0.888-3.216-1.419c0.921-0.766,2.716-2.704,2.716-6.171v-2.397 c0-2.742-2.294-4.104-2.392-4.16l-0.477-0.276l-0.23,0.503c-0.049,0.107-1.245,2.645-4.613,3.11C10.377,9.885,8.5,10.431,8.5,12.91 c0,3.662,1.774,5.496,2.713,6.209c-0.587,0.526-1.765,1.381-3.22,1.381c-1.743,0-2.767-0.368-3.267-0.625 c0.632-0.865,1.917-2.839,1.917-4.59c0-0.732-0.162-1.483-0.333-2.277c-0.188-0.867-0.381-1.765-0.381-2.716 c0-5.503,3.741-8.792,7.357-8.792c2.68,0,3.846,1.882,3.857,1.9l0.146,0.242h0.282c2.167,0,4.5,1.634,4.5,5.221 c0,1.155-0.197,2.384-0.389,3.572c-0.167,1.042-0.326,2.026-0.326,2.85c0,1.587,1.266,3.065,1.929,3.729 C22.721,19.542,21.489,20.5,20,20.5z"/><path fill="#4788c7" d="M13.286,2c2.357,0,3.391,1.599,3.429,1.659l0.292,0.484h0.565c1.927,0,4,1.477,4,4.721 c0,1.115-0.194,2.324-0.382,3.492c-0.171,1.063-0.332,2.067-0.332,2.93c0,1.507,0.968,2.873,1.704,3.695 C21.973,19.446,21.052,20,20,20c-0.923,0-1.822-0.5-2.444-0.949C18.584,18.034,20,16.062,20,12.91v-2.397 c0-3.027-2.533-4.531-2.641-4.593l-0.96-0.557l-0.454,1.012c-0.011,0.024-1.105,2.387-4.225,2.818C10.8,9.321,8,9.707,8,12.91 c0,3.309,1.391,5.227,2.433,6.2C9.85,19.538,8.99,20,7.993,20c-1.161,0-1.972-0.17-2.5-0.345c0.703-1.05,1.649-2.762,1.649-4.37 c0-0.786-0.167-1.562-0.345-2.383c-0.182-0.842-0.37-1.712-0.37-2.61C6.429,5.102,9.915,2,13.286,2 M13.286,1 c-4.068,0-7.857,3.671-7.857,9.292c0,1.887,0.714,3.54,0.714,4.994C6.143,17.405,4,20,4,20s1.046,1,3.993,1 C10.355,21,12,19.039,12,19.039s-3-1.508-3-6.129c0-1.936,1.274-2.508,2.857-2.726c3.704-0.512,5-3.399,5-3.399 S19,8.028,19,10.513c0,0.803,0,1.078,0,2.397c0,4.333-3,6.129-3,6.129S17.866,21,20,21c2.312,0,4-2,4-2s-2.143-1.819-2.143-3.715 c0-1.685,0.714-4.189,0.714-6.422c0-3.787-2.513-5.721-5-5.721C17.571,3.143,16.279,1,13.286,1L13.286,1z"/><g><path fill="#b6dcfe" d="M9.512,38.5c0.268-5.559,4.982-10,10.738-10h7.5c5.756,0,10.47,4.441,10.738,10H9.512z"/><path fill="#4788c7" d="M27.75,29c5.306,0,9.683,3.954,10.199,9H10.051c0.516-5.046,4.893-9,10.199-9H27.75 M27.75,28h-7.5 C14.037,28,9,32.925,9,39h30C39,32.925,33.963,28,27.75,28L27.75,28z"/></g><g><path fill="#fff" d="M24,31.5c-3.076,0-4.296-2.625-4.5-3.122v-5.469h9v5.469C28.296,28.875,27.076,31.5,24,31.5z"/><path fill="#4788c7" d="M28,23.41v4.865C27.737,28.865,26.607,31,24,31c-2.611,0-3.741-2.141-4-2.725V23.41H28 M29,22.41 H19v6.062c0,0,1.267,3.529,5,3.529s5-3.529,5-3.529V22.41L29,22.41z"/></g><g><path fill="#b6dcfe" d="M30.429,20.643c-1.143,0-2.072-0.929-2.072-2.071s0.929-2.071,2.072-2.071 c1.725,0,2.071,0.465,2.071,1.214C32.5,18.966,31.476,20.643,30.429,20.643z M17.571,20.643c-1.047,0-2.071-1.677-2.071-2.929 c0-0.749,0.347-1.214,2.071-1.214c1.143,0,2.072,0.929,2.072,2.071S18.714,20.643,17.571,20.643z"/><path fill="#4788c7" d="M30.429,17C32,17,32,17.363,32,17.714c0,1.044-0.896,2.429-1.571,2.429 c-0.867,0-1.571-0.705-1.571-1.571S29.562,17,30.429,17 M17.571,17c0.867,0,1.571,0.705,1.571,1.571s-0.705,1.571-1.571,1.571 c-0.676,0-1.571-1.385-1.571-2.429C16,17.363,16,17,17.571,17 M30.429,16c-1.42,0-2.571,1.151-2.571,2.571 s1.151,2.571,2.571,2.571S33,19.134,33,17.714S31.849,16,30.429,16L30.429,16z M17.571,16C16.151,16,15,16.294,15,17.714 s1.151,3.429,2.571,3.429s2.571-1.151,2.571-2.571S18.992,16,17.571,16L17.571,16z"/></g><g><path fill="#fff" d="M24,27.5c-0.581,0-1.134-0.224-1.56-0.631l-0.09-0.086l-0.12-0.034 c-2.785-0.786-4.73-3.356-4.73-6.249v-8.136c0-1.564,1.272-2.837,2.836-2.837h7.328c1.564,0,2.836,1.272,2.836,2.837V20.5 c0,2.893-1.945,5.463-4.73,6.249l-0.12,0.034l-0.09,0.086C25.134,27.276,24.581,27.5,24,27.5z"/><path fill="#4788c7" d="M27.664,10.028c1.288,0,2.336,1.048,2.336,2.336V20.5c0,2.67-1.796,5.042-4.367,5.768l-0.239,0.068 l-0.18,0.172C24.882,26.825,24.451,27,24,27s-0.882-0.175-1.214-0.492l-0.18-0.172l-0.239-0.068C19.796,25.542,18,23.17,18,20.5 v-8.136c0-1.288,1.048-2.336,2.336-2.336H27.664 M27.664,9.028h-7.328c-1.842,0-3.336,1.494-3.336,3.336V20.5 c0,3.205,2.156,5.9,5.095,6.731C22.591,27.705,23.26,28,24,28s1.409-0.295,1.905-0.769C28.844,26.4,31,23.705,31,20.5v-8.136 C31,10.521,29.506,9.028,27.664,9.028L27.664,9.028z"/></g><g><path fill="#b6dcfe" d="M30.5,18.5V15c0-3.484-2.217-4.425-2.312-4.463l-0.342-0.14l-0.234,0.287 C27.589,10.713,25.283,13.5,22,13.5c-0.264,0-0.53-0.009-0.791-0.017c-0.265-0.009-0.526-0.017-0.778-0.017 c-0.877,0-2.931,0-2.931,2.533v2.5h-0.214c-0.44-0.773-1.786-3.349-1.786-5.924C15.5,7.821,18.995,4.5,24,4.5 c3.078,0,4.499,2.621,4.557,2.732l0.119,0.226l0.253,0.037C30.462,7.715,32.5,8.524,32.5,13c0,2.334-1.337,4.763-1.778,5.5H30.5z"/><path fill="#4788c7" d="M24,5c2.762,0,4.062,2.367,4.114,2.463l0.237,0.454l0.507,0.073C30.321,8.199,32,8.958,32,13 c0,1.395-0.515,2.842-1,3.894V15c0-3.816-2.516-4.883-2.623-4.926l-0.687-0.279l-0.467,0.577C27.201,10.397,25.06,13,22,13 c-0.259,0-0.519-0.008-0.775-0.017c-0.27-0.009-0.536-0.017-0.794-0.017c-0.849,0-3.431,0-3.431,3.034v0.807 c-0.486-1.122-1-2.677-1-4.23C16,8.115,19.29,5,24,5 M24,4c-5.36,0-9,3.667-9,8.576C15,15.828,17,19,17,19h1c0,0,0-2.105,0-3 c0-1.791,1.085-2.034,2.431-2.034C20.932,13.966,21.469,14,22,14c3.573,0,6-3,6-3s2,0.813,2,4c0,0.984,0,4,0,4h1c0,0,2-3.037,2-6 c0-4.161-1.703-5.671-4-6C29,7,27.434,4,24,4L24,4z"/></g></svg>