<svg xmlns="http://www.w3.org/2000/svg"  viewBox="0 0 40 40" width="80px" height="80px"><path fill="#fff" d="M6.5 37.5L6.5 2.5 24.793 2.5 33.5 11.207 33.5 37.5z"/><path fill="#4788c7" d="M24.586,3L33,11.414V37H7V3H24.586 M25,2H6v36h28V11L25,2L25,2z"/><path fill="#dff0fe" d="M24.5 11.5L24.5 2.5 24.793 2.5 33.5 11.207 33.5 11.5z"/><path fill="#4788c7" d="M25,3.414L32.586,11H25V3.414 M25,2h-1v10h10v-1L25,2L25,2z"/><path fill="none" stroke="#4788c7" stroke-miterlimit="10" d="M13.5 18.5L14.5 18.5 14.5 23M19.5 22.5L19.5 22.5c-.552 0-1-.448-1-1v-2c0-.552.448-1 1-1h0c.552 0 1 .448 1 1v2C20.5 22.052 20.052 22.5 19.5 22.5zM25.5 22.5L25.5 22.5c-.552 0-1-.448-1-1v-2c0-.552.448-1 1-1h0c.552 0 1 .448 1 1v2C26.5 22.052 26.052 22.5 25.5 22.5zM25.5 25.5L26.5 25.5 26.5 30M20.5 29.5L20.5 29.5c-.552 0-1-.448-1-1v-2c0-.552.448-1 1-1h0c.552 0 1 .448 1 1v2C21.5 29.052 21.052 29.5 20.5 29.5zM14.5 29.5L14.5 29.5c-.552 0-1-.448-1-1v-2c0-.552.448-1 1-1h0c.552 0 1 .448 1 1v2C15.5 29.052 15.052 29.5 14.5 29.5z"/></svg>