<svg xmlns="http://www.w3.org/2000/svg"  viewBox="0 0 40 40" width="80px" height="80px"><path fill="#b6dcfe" d="M1.5 35.5L1.5 4.5 11.793 4.5 14.793 7.5 38.5 7.5 38.5 35.5z"/><path fill="#4788c7" d="M11.586,5l2.707,2.707L14.586,8H15h23v27H2V5H11.586 M12,4H1v32h38V7H15L12,4L12,4z"/><path fill="#dff0fe" d="M1.5 35.5L1.5 9.5 12.151 9.5 15.151 7.5 38.5 7.5 38.5 35.5z"/><path fill="#4788c7" d="M38,8v27H2V10h10h0.303l0.252-0.168L15.303,8H38 M39,7H15l-3,2H1v27h38V7L39,7z"/><path fill="#dff0fe" d="M13 33H27V36H13z"/><path fill="#4788c7" d="M19,25v13c0,0.552,0.448,1,1,1h0c0.552,0,1-0.448,1-1V25h6l-7-7l-7,7H19z"/><path fill="#dff0fe" d="M24 7H39V22H24z"/><path fill="#4788c7" d="M35,7c0,2.209,1.791,4,4,4V7H35z"/><path fill="none" stroke="#4788c7" stroke-linecap="round" stroke-miterlimit="10" d="M38.5 14.5c-3.922 0-7-3.078-7-7M38.5 18.5c-6.058 0-11-4.942-11-11"/><path fill="#4788c7" d="M22.5 8h2C24.775 8 25 7.775 25 7.5v0C25 7.225 24.775 7 24.5 7h-2C22.225 7 22 7.225 22 7.5v0C22 7.775 22.225 8 22.5 8zM38.5 24L38.5 24c.275 0 .5-.225.5-.5v-2c0-.275-.225-.5-.5-.5l0 0c-.275 0-.5.225-.5.5v2C38 23.775 38.225 24 38.5 24zM32.5 36h-9c-.275 0-.5-.225-.5-.5l0 0c0-.275.225-.5.5-.5h9c.275 0 .5.225.5.5l0 0C33 35.775 32.775 36 32.5 36zM16.5 36h-9C7.225 36 7 35.775 7 35.5l0 0C7 35.225 7.225 35 7.5 35h9c.275 0 .5.225.5.5l0 0C17 35.775 16.775 36 16.5 36z"/></svg>