<?xml version="1.0" encoding="UTF-8"?>
<svg xmlns="http://www.w3.org/2000/svg" xmlns:xlink="http://www.w3.org/1999/xlink" viewBox="0 0 96 96" width="96px" height="96px">
<g id="surface37341098">
<path style="fill-rule:nonzero;fill:rgb(100%,100%,100%);fill-opacity:1;stroke-width:10;stroke-linecap:butt;stroke-linejoin:round;stroke:rgb(27.843139%,53.333336%,78.039217%);stroke-opacity:1;stroke-miterlimit:10;" d="M 143.330076 86.000001 C 143.330076 117.534875 117.534875 143.330076 86.000001 143.330076 C 54.465127 143.330076 28.669926 117.534875 28.669926 86.000001 C 28.669926 54.465127 54.465127 28.669926 86.000001 28.669926 C 117.534875 28.669926 143.330076 54.465127 143.330076 86.000001 Z M 143.330076 86.000001 " transform="matrix(0.527442,0,0,0.527442,2.64,2.64)"/>
<path style="fill-rule:nonzero;fill:rgb(71.372551%,86.274511%,99.607843%);fill-opacity:1;stroke-width:10;stroke-linecap:butt;stroke-linejoin:round;stroke:rgb(27.843139%,53.333336%,78.039217%);stroke-opacity:1;stroke-miterlimit:10;" d="M 107.499705 86.000001 C 107.499705 97.82743 97.82743 107.499705 86.000001 107.499705 C 74.172571 107.499705 64.500297 97.82743 64.500297 86.000001 C 64.500297 74.172571 74.172571 64.500297 86.000001 64.500297 C 97.82743 64.500297 107.499705 74.172571 107.499705 86.000001 Z M 43.000593 77.038705 C 37.986711 77.038705 34.039297 80.986119 34.039297 86.000001 C 34.039297 91.013883 37.986711 94.961296 43.000593 94.961296 C 48.014475 94.961296 51.961889 91.013883 51.961889 86.000001 C 51.961889 80.986119 48.014475 77.038705 43.000593 77.038705 M 55.539001 86.000001 C 55.539001 92.806142 49.806734 98.538409 43.000593 98.538409 C 36.194452 98.538409 30.454779 92.806142 30.454779 86.000001 C 30.454779 79.193859 36.194452 73.461593 43.000593 73.461593 C 49.806734 73.461593 55.539001 79.193859 55.539001 86.000001 Z M 107.499705 112.876482 C 102.485823 112.876482 98.538409 116.81649 98.538409 121.830372 C 98.538409 126.85166 102.485823 130.791668 107.499705 130.791668 C 112.513587 130.791668 116.461 126.85166 116.461 121.830372 C 116.461 116.81649 112.513587 112.876482 107.499705 112.876482 M 120.038113 121.830372 C 120.038113 128.643919 114.305846 134.376186 107.499705 134.376186 C 100.693563 134.376186 94.961296 128.643919 94.961296 121.830372 C 94.961296 115.024231 100.693563 109.291964 107.499705 109.291964 C 114.305846 109.291964 120.038113 115.024231 120.038113 121.830372 Z M 120.038113 121.830372 " transform="matrix(0.527442,0,0,0.527442,2.64,2.64)"/>
<path style="fill-rule:nonzero;fill:rgb(71.372551%,86.274511%,99.607843%);fill-opacity:1;stroke-width:10;stroke-linecap:butt;stroke-linejoin:round;stroke:rgb(27.843139%,53.333336%,78.039217%);stroke-opacity:1;stroke-miterlimit:10;" d="M 157.668149 86.000001 C 157.668149 125.41489 125.41489 157.668149 86.000001 157.668149 C 46.585111 157.668149 14.331852 125.41489 14.331852 86.000001 C 14.331852 46.585111 46.585111 14.331852 86.000001 14.331852 C 125.41489 14.331852 157.668149 46.585111 157.668149 86.000001 Z M 109.291964 113.231971 C 117.171979 106.42583 121.830372 96.753556 121.830372 86.000001 C 121.830372 75.246446 117.171979 65.574171 109.291964 58.76803 C 113.594867 58.049645 116.461 54.465127 116.461 50.169629 C 116.461 45.148341 112.513587 41.208334 107.499705 41.208334 C 102.485823 41.208334 98.538409 45.148341 98.538409 50.169629 C 98.538409 51.243504 98.538409 51.961889 98.901304 52.672867 C 94.961296 50.880608 90.658393 50.169629 86.000001 50.169629 C 67.72192 50.169629 53.035763 63.781912 50.525119 81.341608 C 49.088349 78.830964 46.222216 77.038705 43.000593 77.038705 C 37.986711 77.038705 34.039297 80.986119 34.039297 86.000001 C 34.039297 91.013883 37.986711 94.961296 43.000593 94.961296 C 46.222216 94.961296 49.088349 93.169037 50.525119 90.658393 C 53.035763 108.218089 67.72192 121.830372 86.000001 121.830372 C 90.658393 121.830372 94.961296 121.119393 98.901304 119.327134 C 98.538409 120.038113 98.538409 121.119393 98.538409 121.830372 C 98.538409 126.85166 102.485823 130.791668 107.499705 130.791668 C 112.513587 130.791668 116.461 126.85166 116.461 121.830372 C 116.461 117.534875 113.594867 113.950356 109.291964 113.231971 Z M 109.291964 113.231971 " transform="matrix(0.527442,0,0,0.527442,2.64,2.64)"/>
<path style="fill-rule:nonzero;fill:rgb(71.372551%,86.274511%,99.607843%);fill-opacity:1;stroke-width:10;stroke-linecap:butt;stroke-linejoin:round;stroke:rgb(27.843139%,53.333336%,78.039217%);stroke-opacity:1;stroke-miterlimit:10;" d="M 107.499705 41.208334 C 102.485823 41.208334 98.538409 45.148341 98.538409 50.169629 C 98.538409 55.183511 102.485823 59.123519 107.499705 59.123519 C 112.513587 59.123519 116.461 55.183511 116.461 50.169629 C 116.461 45.148341 112.513587 41.208334 107.499705 41.208334 M 120.038113 50.169629 C 120.038113 56.975771 114.305846 62.708038 107.499705 62.708038 C 100.693563 62.708038 94.961296 56.975771 94.961296 50.169629 C 94.961296 43.356082 100.693563 37.623815 107.499705 37.623815 C 114.305846 37.623815 120.038113 43.356082 120.038113 50.169629 Z M 86.000001 86.000001 C 76.683215 71.306438 67.36643 56.975771 58.049645 42.282208 " transform="matrix(0.527442,0,0,0.527442,2.64,2.64)"/>
<path style="fill-rule:nonzero;fill:rgb(71.372551%,86.274511%,99.607843%);fill-opacity:1;stroke-width:10;stroke-linecap:butt;stroke-linejoin:round;stroke:rgb(27.843139%,53.333336%,78.039217%);stroke-opacity:1;stroke-miterlimit:10;" d="M 55.146481 44.355896 L 61.189801 40.512167 L 88.888352 84.044809 L 82.845032 87.888538 Z M 55.146481 44.355896 " transform="matrix(0.527442,0,0,0.527442,2.64,2.64)"/>
<path style="fill-rule:nonzero;fill:rgb(71.372551%,86.274511%,99.607843%);fill-opacity:1;stroke-width:10;stroke-linecap:butt;stroke-linejoin:round;stroke:rgb(27.843139%,53.333336%,78.039217%);stroke-opacity:1;stroke-miterlimit:10;" d="M 86.000001 82.415482 L 137.597809 82.415482 L 137.597809 89.584519 L 86.000001 89.584519 Z M 86.000001 82.415482 " transform="matrix(0.527442,0,0,0.527442,2.64,2.64)"/>
<path style="fill-rule:nonzero;fill:rgb(71.372551%,86.274511%,99.607843%);fill-opacity:1;stroke-width:10;stroke-linecap:butt;stroke-linejoin:round;stroke:rgb(27.843139%,53.333336%,78.039217%);stroke-opacity:1;stroke-miterlimit:10;" d="M 86.000001 86.000001 C 76.327726 100.330668 67.010941 114.668741 57.33126 128.999408 " transform="matrix(0.527442,0,0,0.527442,2.64,2.64)"/>
<path style="fill-rule:nonzero;fill:rgb(71.372551%,86.274511%,99.607843%);fill-opacity:1;stroke-width:10;stroke-linecap:butt;stroke-linejoin:round;stroke:rgb(27.843139%,53.333336%,78.039217%);stroke-opacity:1;stroke-miterlimit:10;" d="M 54.354036 126.984968 L 82.970935 84.052215 L 88.940194 88.021847 L 60.31589 130.962006 Z M 54.354036 126.984968 " transform="matrix(0.527442,0,0,0.527442,2.64,2.64)"/>
<path style=" stroke:none;fill-rule:nonzero;fill:rgb(100%,100%,100%);fill-opacity:1;" d="M 78.238281 48 C 78.238281 64.632812 64.632812 78.238281 48 78.238281 C 31.367188 78.238281 17.761719 64.632812 17.761719 48 C 17.761719 31.367188 31.367188 17.761719 48 17.761719 C 64.632812 17.761719 78.238281 31.367188 78.238281 48 Z M 78.238281 48 "/>
<path style=" stroke:none;fill-rule:nonzero;fill:rgb(71.372551%,86.274511%,99.607843%);fill-opacity:1;" d="M 59.339844 48 C 59.339844 54.238281 54.238281 59.339844 48 59.339844 C 41.761719 59.339844 36.660156 54.238281 36.660156 48 C 36.660156 41.761719 41.761719 36.660156 48 36.660156 C 54.238281 36.660156 59.339844 41.761719 59.339844 48 Z M 25.320312 43.273438 C 27.964844 43.273438 30.046875 45.355469 30.046875 48 C 30.046875 50.644531 27.964844 52.726562 25.320312 52.726562 C 22.675781 52.726562 20.59375 50.644531 20.59375 48 C 20.59375 45.355469 22.675781 43.273438 25.320312 43.273438 M 25.320312 41.386719 C 21.730469 41.386719 18.703125 44.410156 18.703125 48 C 18.703125 51.589844 21.730469 54.613281 25.320312 54.613281 C 28.910156 54.613281 31.933594 51.589844 31.933594 48 C 31.933594 44.410156 28.910156 41.386719 25.320312 41.386719 Z M 59.339844 62.175781 C 61.984375 62.175781 64.066406 64.253906 64.066406 66.898438 C 64.066406 69.546875 61.984375 71.625 59.339844 71.625 C 56.695312 71.625 54.613281 69.546875 54.613281 66.898438 C 54.613281 64.253906 56.695312 62.175781 59.339844 62.175781 M 59.339844 60.285156 C 55.75 60.285156 52.726562 63.308594 52.726562 66.898438 C 52.726562 70.492188 55.75 73.515625 59.339844 73.515625 C 62.929688 73.515625 65.953125 70.492188 65.953125 66.898438 C 65.953125 63.308594 62.929688 60.285156 59.339844 60.285156 Z M 59.339844 60.285156 "/>
<path style=" stroke:none;fill-rule:nonzero;fill:rgb(71.372551%,86.274511%,99.607843%);fill-opacity:1;" d="M 48 10.199219 C 27.210938 10.199219 10.199219 27.210938 10.199219 48 C 10.199219 68.789062 27.210938 85.800781 48 85.800781 C 68.789062 85.800781 85.800781 68.789062 85.800781 48 C 85.800781 27.210938 68.789062 10.199219 48 10.199219 Z M 64.066406 66.898438 C 64.066406 69.546875 61.984375 71.625 59.339844 71.625 C 56.695312 71.625 54.613281 69.546875 54.613281 66.898438 C 54.613281 66.523438 54.613281 65.953125 54.804688 65.578125 C 52.726562 66.523438 50.457031 66.898438 48 66.898438 C 38.359375 66.898438 30.613281 59.71875 29.289062 50.457031 C 28.53125 51.78125 27.019531 52.726562 25.320312 52.726562 C 22.675781 52.726562 20.59375 50.644531 20.59375 48 C 20.59375 45.355469 22.675781 43.273438 25.320312 43.273438 C 27.019531 43.273438 28.53125 44.21875 29.289062 45.542969 C 30.613281 36.28125 38.359375 29.101562 48 29.101562 C 50.457031 29.101562 52.726562 29.476562 54.804688 30.421875 C 54.613281 30.046875 54.613281 29.667969 54.613281 29.101562 C 54.613281 26.453125 56.695312 24.375 59.339844 24.375 C 61.984375 24.375 64.066406 26.453125 64.066406 29.101562 C 64.066406 31.367188 62.554688 33.257812 60.285156 33.636719 C 64.441406 37.226562 66.898438 42.328125 66.898438 48 C 66.898438 53.671875 64.441406 58.773438 60.285156 62.363281 C 62.554688 62.742188 64.066406 64.632812 64.066406 66.898438 Z M 64.066406 66.898438 "/>
<path style=" stroke:none;fill-rule:nonzero;fill:rgb(71.372551%,86.274511%,99.607843%);fill-opacity:1;" d="M 59.339844 24.375 C 61.984375 24.375 64.066406 26.453125 64.066406 29.101562 C 64.066406 31.746094 61.984375 33.824219 59.339844 33.824219 C 56.695312 33.824219 54.613281 31.746094 54.613281 29.101562 C 54.613281 26.453125 56.695312 24.375 59.339844 24.375 M 59.339844 22.484375 C 55.75 22.484375 52.726562 25.507812 52.726562 29.101562 C 52.726562 32.691406 55.75 35.714844 59.339844 35.714844 C 62.929688 35.714844 65.953125 32.691406 65.953125 29.101562 C 65.953125 25.507812 62.929688 22.484375 59.339844 22.484375 Z M 48 48 C 43.085938 40.25 38.171875 32.691406 33.257812 24.941406 "/>
<path style=" stroke:none;fill-rule:nonzero;fill:rgb(71.372551%,86.274511%,99.607843%);fill-opacity:1;" d="M 31.726562 26.035156 L 34.914062 24.007812 L 49.523438 46.96875 L 46.335938 48.996094 Z M 31.726562 26.035156 "/>
<path style=" stroke:none;fill-rule:nonzero;fill:rgb(71.372551%,86.274511%,99.607843%);fill-opacity:1;" d="M 48 46.109375 L 75.214844 46.109375 L 75.214844 49.890625 L 48 49.890625 Z M 48 46.109375 "/>
<path style=" stroke:none;fill-rule:nonzero;fill:rgb(71.372551%,86.274511%,99.607843%);fill-opacity:1;" d="M 48 48 C 42.898438 55.558594 37.984375 63.121094 32.878906 70.679688 "/>
<path style=" stroke:none;fill-rule:nonzero;fill:rgb(71.372551%,86.274511%,99.607843%);fill-opacity:1;" d="M 31.308594 69.617188 L 46.402344 46.972656 L 49.550781 49.066406 L 34.453125 71.714844 Z M 31.308594 69.617188 "/>
</g>
</svg>
