<svg xmlns="http://www.w3.org/2000/svg"  viewBox="0 0 40 40" width="40px" height="40px"><path fill="#98ccfd" d="M31.186,21.769h0.01c0,0-3.586,5.26-6.601,9.17c-2.606,3.377-3.367,6.269-3.586,7.667	C20.923,39.12,20.504,39.5,20,39.5s-0.923-0.38-1.008-0.894c-0.219-1.398-0.98-4.29-3.586-7.667c-0.4-0.523-0.809-1.065-1.218-1.617	l9.845-11.7l7.924-9.398c0.875,1.836,1.36,3.89,1.36,6.069C33.317,17.051,32.528,19.61,31.186,21.769z"/><path fill="#fff" d="M24.033,17.622l-9.845,11.7c-2.682-3.596-5.384-7.553-5.384-7.553h0.01	c-0.285-0.457-0.542-0.923-0.761-1.408l7.914-9.398c-0.751,0.904-1.199,2.064-1.199,3.329c0,2.892,2.34,5.232,5.232,5.232	C21.627,19.524,23.082,18.782,24.033,17.622z"/><path fill="#98ccfd" d="M24.185,1.204l-8.152,9.683l-6.24-5.441C12.229,2.421,15.9,0.5,20,0.5	C21.465,0.5,22.873,0.747,24.185,1.204z"/><path fill="#dff0fe" d="M16.033,10.887l-0.067,0.076l-7.914,9.398c-0.875-1.836-1.37-3.89-1.37-6.069	c0-3.367,1.17-6.459,3.11-8.846L16.033,10.887z"/><path fill="#b6dcfe" d="M24.033,17.622c0.751-0.904,1.199-2.064,1.199-3.329c0-2.892-2.34-5.232-5.232-5.232	c-1.627,0-3.082,0.742-4.033,1.902l8.219-9.76c3.415,1.16,6.211,3.719,7.771,7.02L24.033,17.622z"/><path fill="#4788c7" d="M20,40c-0.75,0-1.387-0.552-1.515-1.312c-0.218-1.372-0.966-4.157-3.536-7.44 c-0.409-0.527-0.825-1.071-1.241-1.625c-2.693-3.563-5.442-7.529-5.469-7.569L7.785,21.27c-0.128-0.235-0.245-0.468-0.351-0.7 C6.484,18.604,6,16.489,6,14.293c0-3.353,1.16-6.607,3.268-9.165C11.927,1.87,15.839,0,20,0c1.51,0,2.993,0.246,4.405,0.731 c3.542,1.187,6.52,3.84,8.167,7.276C33.52,9.968,34,12.083,34,14.293c0,2.445-0.615,4.839-1.786,6.977h0.079l-0.532,0.784 c-0.036,0.053-3.679,5.316-6.709,9.193c-2.57,3.284-3.318,6.069-3.536,7.437C21.387,39.448,20.75,40,20,40z M9.178,21.652 c0.55,0.79,2.961,4.237,5.33,7.368c0.414,0.551,0.827,1.091,1.231,1.613c2.707,3.458,3.501,6.43,3.733,7.894 C19.518,38.799,19.74,39,20,39s0.482-0.201,0.529-0.478c0.232-1.459,1.026-4.431,3.735-7.892c2.74-3.504,5.986-8.154,6.579-9.008 l0.074-0.12C32.28,19.339,33,16.846,33,14.293c0-2.058-0.447-4.026-1.329-5.852c-1.531-3.196-4.296-5.66-7.587-6.764 C22.772,1.228,21.399,1,20,1c-3.859,0-7.489,1.736-9.959,4.763C8.08,8.143,7,11.172,7,14.293c0,2.044,0.451,4.013,1.339,5.851 c0.205,0.448,0.447,0.89,0.744,1.358L9.178,21.652z M20,20c-3.309,0-6-2.691-6-6c0-1.396,0.489-2.753,1.376-3.819 C16.51,8.796,18.197,8,20,8c3.309,0,6,2.691,6,6c0,1.396-0.489,2.753-1.376,3.819C23.49,19.204,21.803,20,20,20z M20,9 c-1.502,0-2.907,0.662-3.853,1.817C15.407,11.707,15,12.837,15,14c0,2.757,2.243,5,5,5c1.502,0,2.907-0.662,3.853-1.817 C24.593,16.293,25,15.163,25,14C25,11.243,22.757,9,20,9z"/></svg>