<svg xmlns="http://www.w3.org/2000/svg"  viewBox="0 0 40 40" width="80px" height="80px"><path fill="#dff0fe" d="M4.893,36.471c0.79-1.355,1.714-3.006,2.561-4.577l0.198-0.369l-0.328-0.261 C3.568,28.296,1.5,24.295,1.5,20C1.5,11.453,9.799,4.5,20,4.5S38.5,11.453,38.5,20S30.201,35.5,20,35.5 c-2.174,0-4.34-0.331-6.437-0.985l-0.162-0.051l-0.16,0.06C10.296,35.617,7.255,36.322,4.893,36.471z"/><path fill="#4788c7" d="M20,5c9.925,0,18,6.729,18,15s-8.075,15-18,15c-2.123,0-4.239-0.324-6.287-0.962l-0.326-0.102 l-0.32,0.119c-2.521,0.936-5.108,1.583-7.26,1.831c0.671-1.171,1.402-2.487,2.086-3.756l0.398-0.739l-0.658-0.52 C4,28.001,2,24.14,2,20C2,11.729,10.075,5,20,5 M20,4C9.507,4,1,11.163,1,20c0,4.601,2.32,8.737,6.013,11.656 C5.947,33.635,4.837,35.596,4,37c2.597,0,6.172-0.803,9.415-2.007C15.47,35.633,17.681,36,20,36c10.493,0,19-7.163,19-16 S30.493,4,20,4L20,4z"/><path fill="#4788c7" d="M30.5 17h-21C9.225 17 9 16.775 9 16.5l0 0C9 16.225 9.225 16 9.5 16h21c.275 0 .5.225.5.5l0 0C31 16.775 30.775 17 30.5 17zM30.5 21h-21C9.225 21 9 20.775 9 20.5l0 0C9 20.225 9.225 20 9.5 20h21c.275 0 .5.225.5.5l0 0C31 20.775 30.775 21 30.5 21zM19.5 25h-10C9.225 25 9 24.775 9 24.5l0 0C9 24.225 9.225 24 9.5 24h10c.275 0 .5.225.5.5l0 0C20 24.775 19.775 25 19.5 25z"/></svg>