<svg xmlns="http://www.w3.org/2000/svg" width="445.34356" height="581.89215" viewBox="0 0 445.34356 581.89215" xmlns:xlink="http://www.w3.org/1999/xlink"><g><g><polygon points="128.92467 552.93374 138.51901 555.79104 154.10605 520.14411 139.9457 515.927 128.92467 552.93374" fill="#a0616a"/><path d="M140.8288,550.50975l-.00948-.0032-10.43597-2.44529-.00948-.0032-2.41704-.56239-8.30729,21.23876-.44694,1.13674,6.81666,2.03656,.56063-1.09837,2.56737-4.98059,.97997,6.0405,.21014,1.31629,18.06517,5.38934c1.074,.32018,2.18446,.18836,3.11913-.29834,1.0011-.49591,1.80138-1.39733,2.14092-2.55981,1.8212-3.33262-10.90289-15.51054-12.20874-18.11479l1.94052-6.50076-2.56557-.59145Z" fill="#2f2e41"/></g><path d="M190.38148,436.50921l-1.11692,2.88136-3.2501,8.36326-34.86355,89.0697-24.50891-6.02604c4.61286-33.65321,7.87162-54.49264,19.51731-72.39887,3.22505-4.96212,7.10411-9.70346,11.8281-14.43122,0,0-18.60782-.05679-40.46153-.50324-1.91794-.04031-3.86751-.07977-5.83331-.1347-18.09197-.42404-37.43081-1.12036-49.85358-2.27547-7.55893-.70184-12.77747-4.31265-16.19828-9.39219-9.79061-14.46282-5.12804-40.86067,.92335-45.88758l40.90617-16.26706,16.4964,29.65811,1.72604,3.09769,61.44197,4.30703c8.96469,.62842,16.58175,6.79079,19.06825,15.42664l4.17858,14.51258Z" fill="#2f2e41"/><path d="M27.34356,0l-3,491,421-73V0H27.34356ZM96.67706,416H29.34356v-67.33301H96.67706v67.33301Zm0-69.33301H29.34356v-67.33398H96.67706v67.33398Zm0-69.33398H29.34356v-67.33301H96.67706v67.33301Zm0-69.33301H29.34356v-67.3335H96.67706v67.3335Zm0-69.3335H29.34356V71.3335H96.67706v67.33301Zm0-69.33301H29.34356v-.00007C29.34356,32.1462,59.48977,2,96.67699,2h.00007V69.3335Zm69.33301,346.6665H98.67706v-67.33301h67.33301v67.33301Zm0-69.33301H98.67706v-67.33398h67.33301v67.33398Zm0-69.33398H98.67706v-67.33301h67.33301v67.33301Zm0-69.33301H98.67706v-67.3335h67.33301v67.3335Zm0-69.3335H98.67706v-.00007c0-37.18696,30.14598-67.33294,67.33294-67.33294h.00007v67.33301Zm0-69.33301H98.67706V2h67.33301V69.3335Zm69.3335,346.6665h-67.3335v-67.33301h67.3335v67.33301Zm0-69.33301h-67.3335v-67.33398h67.3335v67.33398Zm0-69.33398h-67.3335v-67.33301h67.3335v67.33301Zm0-69.33301h-67.3335v-67.3335h67.3335v67.3335Zm0-69.3335h-67.3335V71.3335h67.3335v67.33301Zm0-69.33301h-67.3335V2h67.3335V69.3335Zm69.3335,346.6665h-67.3335v-67.33301h67.3335v67.33301Zm0-69.33301h-67.3335v-67.33398h67.3335v67.33398Zm0-69.33398h-67.3335v-67.33301h67.3335v67.33301Zm0-69.33301h-67.3335v-67.3335h67.3335v67.3335Zm0-69.3335h-67.3335V71.3335h67.3335v67.33301Zm0-69.33301h-67.3335V2h67.3335V69.3335Zm69.33301,346.6665h-.00007c-37.18696,0-67.33294-30.14598-67.33294-67.33294v-.00007h67.33301v67.33301Zm0-69.33301h-67.33301v-67.33398h67.33301v67.33398Zm0-69.33398h-67.33301v-67.33301h67.33301v67.33301Zm0-69.33301h-67.33301v-67.3335h67.33301v67.3335Zm0-69.3335h-67.33301V71.3335h67.33301v67.33301Zm0-69.33301h-67.33301V2h67.33301V69.3335Zm2.00056,346.6665h-.00056v-67.33301h67.3335v.00007c0,37.18696-30.14598,67.33294-67.33294,67.33294Zm67.33294-69.33301h-67.3335v-67.33398h67.3335v67.33398Zm0-69.33398h-67.3335v-67.33301h67.3335v67.33301Zm0-69.33301h-67.3335v-67.3335h67.3335v67.3335Zm0-69.3335h-67.3335v-.00007c0-37.18696,30.14598-67.33294,67.33294-67.33294h.00056v67.33301Zm0-69.33301h-67.3335V2h67.3335V69.3335Z" fill="#f2f2f2"/><g><path d="M143.7444,210.76081l-8.21832,22.88252-13.72683-2.87098,9.54972-23.88366c-.26444-.73975-.42738-1.52969-.46665-2.35514-.21357-4.48952,3.25279-8.30215,7.74231-8.51572,4.48952-.21357,8.30215,3.25279,8.51572,7.74231,.1362,2.86317-1.22794,5.44608-3.39596,7.00067Z" fill="#a0616a"/><path d="M145.10987,216.968l-18.60773,50.03919-2.68918,7.22055c-2.42809,6.53008-9.11185,10.43936-16.00056,9.36736l-43.2153-6.75236-3.19397-19.81033,46.61723,4.10299,7.79503-20.44702,10.34248-27.14067,2.35996,.42301,13.21703,2.38503,3.375,.61223Z" fill="#1976d2"/></g><g><polygon points="64.23966 550.32766 72.28542 556.28428 99.08998 528.08542 87.21519 519.29401 64.23966 550.32766" fill="#a0616a"/><path d="M74.42615,558.9911l4.03844-5.4543-2.21077-1.43683-8.98752-5.86479-2.08328-1.35297-15.04861,17.1392-.80671,.9189,5.71269,4.22975,.9037-.83655,4.10272-3.80625-1.13075,6.00673-.2508,1.31996,15.14552,11.21394c.90448,.66969,1.98926,.92533,3.02758,.78863,1.11791-.13048,2.17554-.70563,2.89561-1.67815,2.84985-2.51225-4.96672-18.29191-5.30781-21.18729Z" fill="#2f2e41"/></g><path d="M237.34356,348c-76.09326,0-138-61.90625-138-138S161.2503,72,237.34356,72s138,61.90674,138,138-61.90674,138-138,138Zm0-274c-74.99072,0-100,58.00928-100,133s25.00928,139,100,139,136-61.00977,136-136-61.00928-136-136-136Z" fill="#3f3d56"/><path d="M302.72351,204.42767l-61.15649-61.15649c-.17749-.23376-.36621-.46167-.57953-.67499-1.28137-1.28137-2.96454-1.91388-4.64392-1.90161-1.67938-.01227-3.36255,.62024-4.64392,1.90161-.21332,.21332-.40204,.44122-.57953,.67499l-61.15649,61.15649c-2.53839,2.53839-2.53839,6.65393,0,9.19238,2.53839,2.53839,6.65399,2.53839,9.19238,0l50.68756-50.68756v107.5675c0,3.58984,2.91016,6.5,6.5,6.5s6.5-2.91016,6.5-6.5v-107.5675l50.68756,50.68756c2.53839,2.53839,6.65399,2.53839,9.19238,0,2.53839-2.53845,2.53839-6.65399,0-9.19238Z" fill="#1976d2"/><polygon points="78.34356 342 88.20183 374.1502 43.34356 379 59.34356 338 78.34356 342" fill="#a0616a"/><path d="M162.34356,466l-2.03003,2.32996-5.89996,6.76001-63.07001,71.91003-21-14c15.78003-30.08002,25.92999-48.57001,42.96997-61.45001,4.72003-3.57001,9.98004-6.71002,16.03003-9.54999,0,0-17.47998-6.38-37.88-14.23004-1.78998-.69-3.60999-1.38995-5.44-2.10999-16.87-6.54999-34.82001-13.77997-46.10999-19.08997-6.87-3.23004-10.54999-8.40002-12.03998-14.34003-4.29004-16.92999,9.06995-40.16998,16.46997-42.83997l44-1.39001,5.42999,33.5,.57001,3.5s16.12,7.78998,33.03998,15.57996c2.54004,1.16003,5.09003,2.33002,7.61005,3.47003,4,1.79999,7.89996,3.53998,11.51996,5.10999,.0827,.0359,.16553,.07177,.24848,.1076,10.49055,4.53143,17.02074,15.14447,16.2606,26.54657l-.67906,10.18587Z" fill="#2f2e41"/><path d="M89.32354,317.12c-1.07001,7.64001-1.32001,14.85999,.02002,18.88,.35629,1.06887,5.69178,8.88274,6,10,2.75418,9.98352-9,12-9,12l-45.09302,14.9706c-2.5966,.86206-4.78235-2.14578-3.12334-4.32137,3.69858-4.85026,7.07707-11.85798,6.83635-21.13922-.37512-14.46322-6.77592-37.46541-10.31388-49.1613-1.4559-4.81296-1.10486-9.98511,.98004-14.56086l5.03386-11.04787,7.32001-16.04999,2.35999-11.69,21,1,2.59003,9.51001,19.53998,29.82996c.78998,1.21002,1.31,2.56,1.53998,3.95001,.31,1.73999,.16003,3.56-.45001,5.27002-2.02997,5.69-4.09998,14.35999-5.23999,22.56Z" fill="#1976d2"/><g><path d="M211.82763,280.34608l-23.93249,4.28793-4.35699-13.32985,25.46422-3.63317c.50933-.59812,1.11277-1.13329,1.80867-1.57897,3.78491-2.42402,8.81827-1.32079,11.24229,2.46412,2.42402,3.78491,1.32079,8.81827-2.46412,11.24229-2.4138,1.5459-5.33291,1.65158-7.76158,.54765Z" fill="#a0616a"/><path d="M51.52867,280.18309l3.03433,3.25994c7.35817,7.90527,17.443,12.72244,28.21635,13.47794l40.24253,2.82209,74.74517-14.05192-4.55133-17.86856-70.65911,12.17742-71.02793,.18309Z" fill="#1976d2"/></g></g><g><path d="M.00957,228.79794c-.2166,9.32008,3.26648,18.34462,8.27021,26.27122,1.4867-4.62743,4.15943-8.83902,6.94682-12.85381-1.45518,8.60015,.13811,17.65509,4.2583,25.34008,.15437,.10796,.29947,.20475,.45585,.29233,4.07857,2.4534,9.24943,3.44712,13.66155,1.67514-9.11615-9.82665-10.2763-26.10791-2.6334-37.13004,2.16385-3.12756,4.96233-5.89365,6.30257-9.45289,2.11609-5.67895,.08194-11.93163-1.20127-17.85254-1.19989-5.51058-1.40992-12.06821,2.28708-16.10676-.7592-1.08524-2.20101-1.8355-3.56069-1.63943-2.27941,.32199-3.93858,2.30324-4.99531,4.34381-1.05672,2.04051-1.75366,4.30209-3.22635,6.06458-2.72722,3.29889-7.37161,4.07886-11.28556,5.81745C5.81066,207.78906,.23679,218.42727,.00957,228.79794Z" fill="#2f2e41"/><path d="M79.79675,223.46911c-.54166-1.89581,3.19176,9.69287,1.39023,9.90208-8.20531,.94132-19.46907,5.84176-25.184,8.12793-.25738-.02991-.51476-.05978-.76452-.09713-.61312-.06726-1.21114-.16439-1.80153-.27643-13.30712-2.51777-18.42436-22.95907-18.42436-23.14584,0-.91893,2.2055-26.15831,5.67986-26.53186,.90077-.09713,1.81669-.14943,2.74772-.14943h8.62162c1.8318-.38851,3.64848-.65746,5.41213-.78446h.01515c17.35676-1.3224,31.04235,9.2567,29.76311,22.12948-.00758,.01491-.02273,.02987-.03026,.04482-.37094,.55286-.69642,1.07584-.98407,1.5764-.28007,.47068-.51472,.91893-.71906,1.34479-1.58204,3.28732,2.48454,7.42377-.21196,8.19585-3.58634,1.02687,9.43221,34.7781-4.76294,34.7781,6.90484,1.96318,.74711-29.88452-.74711-35.11431Z" fill="#2f2e41"/><circle cx="64.30255" cy="222.86019" r="20.41274" fill="#a0616a"/><path d="M87.25214,213.75664c-.34063,.1793-.67369,.34364-1.01433,.50803-.35574,.17182-.71153,.34369-1.06727,.50055-6.83524,3.10054-12.39877,3.44418-15.77477-1.00858-.09083-2.33099-.61312-4.64707-1.55173-6.79876,.17413,2.38329-.47688,4.81141-1.80153,6.79876h-6.79736c-7.00175,4.64702-10.59724,5.13266-5.73766,20.3887,1.35496,4.25107,6.74242,28.98798,4.62298,32.65633-.61312-.06726-7.13605-27.16184-7.72644-27.27388-13.30712-2.51777-21.76218-24.44131-20.67975-25.68149,0-3.64592,.84778-7.0901,2.36924-10.1682,1.96804-3.99708,5.06397-7.35909,8.88653-9.66764,2.25568-1.09828,4.6325-1.98735,7.10015-2.6672,.06057-.01496,.11356-.02991,.17408-.04482,.74937-.20174,1.51389-.38851,2.27841-.54542,1.56688-.32873,3.15645-.57525,4.7839-.72468,.11356-.00748,.22707-.01496,.33306-.01496,.66612,0,1.28682,.18678,1.82422,.5006,.00758,0,.00758,.00743,.01515,.00743,.39363,.2316,.74179,.53795,1.01433,.90402,.4693,.59768,.74179,1.34479,.74179,2.15917h7.56946c.28007,0,.56013,.00748,.8402,.02239,10.54425,.41838,19.02205,8.71136,19.56707,19.0813,.02268,.3586,.03026,.70972,.03026,1.06837Z" fill="#2f2e41"/><path d="M56.06882,193.78318c0,7.42714-6.02089,13.44803-13.44803,13.44803-7.42714,0-13.44803-6.02089-13.44803-13.44803s6.02089-13.44803,13.44803-13.44803c7.42714,0,13.44803,6.02089,13.44803,13.44803Z" fill="#2f2e41"/></g></svg>