<svg xmlns="http://www.w3.org/2000/svg" data-name="Layer 1" width="825.20213" height="591.41898" viewBox="0 0 825.20213 591.41898" xmlns:xlink="http://www.w3.org/1999/xlink"><path d="M855.22391,530.60767a3.61324,3.61324,0,0,0,2.90706-6.13407c-.07417-.366-.12737-.62878-.20154-.99475q.05434-.11581.10925-.23144a9.7031,9.7031,0,0,1,17.876.89878c2.59635,7.179,5.991,14.40726,6.561,21.8966a28.70516,28.70516,0,0,1-.96247,9.83823,115.08607,115.08607,0,0,0,12.68043-47.26037,111.08146,111.08146,0,0,0-.112-12.41061q-.33489-5.08075-1.11483-10.11009a116.41936,116.41936,0,0,0-20.7675-50.36176,30.98251,30.98251,0,0,1-12.24992-13.95369,23.63369,23.63369,0,0,1-1.84668-6.55118c.62279.11137,1.25731.19237,1.882.2626.19474.01931.39969.03918.59443.05857l.07346.00673a3.5799,3.5799,0,0,0,3.20814-5.68922q-.38259-.51834-.7657-1.03621c-.387-.5328-.78478-1.05577-1.17173-1.58848a1.78375,1.78375,0,0,1-.12638-.16038c-.44535-.60755-.891-1.2048-1.33637-1.81235a10.3517,10.3517,0,0,1,3.54254-3.11908c4.86483-2.55314,11.30882-.328,14.53022,4.11493,3.23163,4.44334,3.599,10.48308,2.15829,15.77961a41.485,41.485,0,0,1-6.32713,12.51228c.24157.34072.49384.67161.73533,1.01232a117.17152,117.17152,0,0,1,11.3155,19.92258,48.70927,48.70927,0,0,1,3.957-22.46476c3.09271-6.57809,8.56723-11.98458,13.42656-17.56958,5.83684-6.70843,16.99941-3.14247,17.55956,5.73205q.00813.12888.0156.25766-1.04937.52926-2.05883,1.13134a4.9011,4.9011,0,0,0,1.55911,9.00132l.09912.02006a48.76709,48.76709,0,0,1-1.62312,7.22358,50.20985,50.20985,0,0,1-26.43617,30.27174c-.41021.18678-.8102.374-1.21994.5506a119.59729,119.59729,0,0,1,5.02184,30.56259,113.43466,113.43466,0,0,1-.93392,18.29177l.04087-.2143a29.97406,29.97406,0,0,1,11.02621-16.813c8.16666-6.09535,19.39042-7.95739,28.11808-12.75615a5.62528,5.62528,0,0,1,8.3519,5.86726q-.02235.11259-.04527.22517a32.92431,32.92431,0,0,0-3.77057,1.60542q-1.04937.52938-2.05883,1.13133a4.90116,4.90116,0,0,0,1.55911,9.00141l.0992.02c.0714.01365.13259.02683.20391.04048a48.808,48.808,0,0,1-9.6217,13.62515,50.25442,50.25442,0,0,1-37.14994,14.27914l-.01031-.00048a119.56225,119.56225,0,0,1-9.11335,23.04815l-28.66063-1.33426c-.088-.32324-.16508-.65631-.24275-.97907a32.59881,32.59881,0,0,0,7.95257-.10325c-2.005-2.70831-4.009-5.43714-6.014-8.14536a1.78114,1.78114,0,0,1-.12638-.16029c-1.01644-1.38562-2.04367-2.7615-3.06011-4.14712l-.0005-.00167a47.75014,47.75014,0,0,1,1.96332-12.08589Z" transform="translate(-187.39893 -154.29051)" fill="#f2f2f2"/><path d="M277.74278,282.7727a3.61324,3.61324,0,0,1-3.28049-5.94275c.05141-.36985.08827-.63544.13969-1.00529q-.0614-.11225-.12334-.22425a9.70311,9.70311,0,0,0-17.78635,2.00152c-2.14784,7.32572-5.08937,14.74988-5.19559,22.26013a28.70519,28.70519,0,0,0,1.56847,9.76A115.08612,115.08612,0,0,1,237.489,263.2354a111.08,111.08,0,0,1-.655-12.39382q.02032-5.09173.488-10.15965a116.41941,116.41941,0,0,1,17.61625-51.54865,30.9826,30.9826,0,0,0,11.36441-14.68388,23.63353,23.63353,0,0,0,1.43838-6.65276c-.61471.14962-1.243.26968-1.86218.37837-.19317.0313-.3965.0638-.58967.09518l-.0729.01126a3.5799,3.5799,0,0,1-3.55352-5.48014q.34985-.541.70021-1.08154c.35338-.55569.71805-1.10224,1.07136-1.65784a1.783,1.783,0,0,0,.11622-.16788c.407-.63391.81488-1.25754,1.22185-1.89145a10.35181,10.35181,0,0,0-3.72849-2.89425c-5.01327-2.24769-11.30748.37131-14.24822,5.0048-2.95093,4.63452-2.94443,10.68542-1.17923,15.88282a41.485,41.485,0,0,0,7.0881,12.09746c-.22006.355-.4514.70083-.67138,1.05582a117.17159,117.17159,0,0,0-10.063,20.58363,48.70935,48.70935,0,0,0-5.33737-22.17736c-3.49323-6.37444-9.29133-11.43236-14.48644-16.70646-6.24017-6.335-17.16108-2.08617-17.17187,6.806q-.00015.12915.00035.25814,1.08007.46341,2.12481,1.002a4.9011,4.9011,0,0,1-1,9.08046l-.09769.02615a48.76726,48.76726,0,0,0,2.06632,7.10949,50.20987,50.20987,0,0,0,28.256,28.58057c.421.16108.83176.32327,1.25162.47418a119.5973,119.5973,0,0,0-3.124,30.81447,113.4334,113.4334,0,0,0,2.06228,18.19912l-.054-.21137a29.974,29.974,0,0,0-12.04392-16.09966c-8.52766-5.57913-19.845-6.74416-28.85249-10.99452a5.62528,5.62528,0,0,0-7.97344,6.37206q.02925.111.05909.22194a32.92391,32.92391,0,0,1,3.86256,1.3694q1.08007.46353,2.1248,1.002a4.90116,4.90116,0,0,1-1,9.08054l-.09777.02608c-.07043.018-.13068.035-.201.053a48.80794,48.80794,0,0,0,10.44514,13.00466,50.25449,50.25449,0,0,0,37.9612,11.95658l.01025-.00112a119.563,119.563,0,0,0,10.51995,22.44105l28.52344-3.10249c.06784-.32806.12422-.66525.1818-.99219a32.5995,32.5995,0,0,1-7.94375.38829c1.83384-2.827,3.66537-5.67444,5.49922-8.50137a1.7786,1.7786,0,0,0,.11623-.1678c.9289-1.44577,1.86915-2.88248,2.798-4.32825l.0004-.00171a47.75009,47.75009,0,0,0-2.70629-11.94149Z" transform="translate(-187.39893 -154.29051)" fill="#f2f2f2"/><path d="M671.818,272.20237a10.016,10.016,0,0,1,6.38343,13.969l15.30646,17.01743-8.07279,11.82394L664.157,290.67726a10.07034,10.07034,0,0,1,7.661-18.47489Z" transform="translate(-187.39893 -154.29051)" fill="#a0616a"/><path d="M815.11419,313.98886l0,0a20.02625,20.02625,0,0,0-27.60778-6.54222l-50.33925,31.17727-54.30081-46.15769L669.3562,305.04493l59.987,77.82961,77.96532-40.64446C805.489,343.17862,817.31273,317.56739,815.11419,313.98886Z" transform="translate(-187.39893 -154.29051)" fill="#ccc"/><path d="M715.39088,417.65494a189.27007,189.27007,0,0,1-189.308,189.308c-104.55063,0-189.308-84.75749-189.308-189.308a189.24483,189.24483,0,0,1,9.65476-59.84238A189.50618,189.50618,0,0,1,526.08289,228.347,189.24453,189.24453,0,0,1,693.0211,328.33307a186.77361,186.77361,0,0,1,10.46447,23.10619c.41,1.10421.80984,2.20843,1.19884,3.32331v.01053q2.60321,7.35132,4.58557,14.97635A189.32006,189.32006,0,0,1,715.39088,417.65494Z" transform="translate(-187.39893 -154.29051)" fill="#3f3d56"/><path d="M505.371,289.93115a63.51666,63.51666,0,0,0-55.7615-2.28136c-7.79648,3.393-16.00583,9.47972-18.6067,20.47116,10.519-6.20795,24.13568,3.60058,26.8425,19.33555l-.63186.17419c-1.42965,10.89863,1.76186,22.76429,7.94073,29.52228.81123-7.01955,5.42678-11.797,9.96657-14.78135,4.53979-2.9843,9.562-5.15219,13.02707-10.28189,4.10787-6.08133,5.151-14.96914,6.7829-23.077C496.56263,300.90483,499.65869,292.1904,505.371,289.93115Z" transform="translate(-187.39893 -154.29051)" fill="#fff"/><path d="M446.48934,382.675c-2.91326,4.375-6.80454,7.12011-10.29617,10.53817-3.48109,3.42859-6.79414,8.056-7.48817,13.99821-.44177,3.80718.24187,7.67741.14712,11.52684-.09449,3.84917-1.37767,8.18221-3.99642,9.1393-4.13328,1.49335-7.28842-6.18406-11.53724-6.72045-3.37608-.42071-6.41541,4.89049-5.43739,9.497.97814,4.6065,5.57412,6.64675,8.21392,3.63888,2.38741,4.007.70457,11.27444-2.88168,12.50486-.37873,2.52413-.7572,5.03773-1.1254,7.56174-9.06574-6.34185-18.22611-12.78872-25.9351-22.07541a67.00679,67.00679,0,0,1-15.27087-36.09467c-.99907-10.67489.48375-22.88524-4.41713-31.099-3.923-6.57319-10.654-8.02468-16.71184-7.61437-1.10421.07356-2.219.19976-3.32331.33649a187.23535,187.23535,0,0,1,13.55644-31.02548,13.2821,13.2821,0,0,0,3.397-2.11395c5.63728-4.78521,8.14036-14.47155,12.71528-21.171q.44177-.64686.915-1.262c4.68019-6.1105,10.94835-9.25511,17.00622-12.1789,13.40931-6.51,27.20763-13.10427,41.36375-12.19982l-4.028.38913q-7.05168,19.75116-14.114,39.50233-1.07283,3.0288-2.16646,6.06839c-2.67138,7.48805-5.42686,15.4601-5.01668,23.84221.24187,4.964,1.96657,10.26471,5.248,11.96848,3.06039,1.57756,6.40488-.35755,9.36012-2.27173,1.25161-.79932,2.49268-1.59863,3.74416-2.40846,4.49082-2.89221,9.4654-5.858,14.20862-3.92287,4.34358,1.76694,7.55122,7.667,8.16129,14.02992A28.04928,28.04928,0,0,1,446.48934,382.675Z" transform="translate(-187.39893 -154.29051)" fill="#fff"/><path d="M473.19842,472.57227q-19.67374-12.11336-39.34763-24.22672l.22263-.57342c-8.15482,3.106-11.54047,17.60169-10.19276,29.456,1.34764,11.85442,5.91745,22.45144,8.226,34.00207a90.25226,90.25226,0,0,1-3.40267,47.35761,387.843,387.843,0,0,0,45.56027-62.78054,33.58822,33.58822,0,0,0,4.12118-9.13813c.83321-3.44179.70508-7.57955-.96357-10.33953A11.5109,11.5109,0,0,0,473.19842,472.57227Z" transform="translate(-187.39893 -154.29051)" fill="#fff"/><path d="M421.43456,325.65321c-1.3927,3.13139-1.92854,7.30684-.66468,10.5469,1.29075,3.309,4.01943,4.80443,6.53166,6.04952l7.24713,3.59224c2.411,1.19506,5.00969,2.40208,7.46752,1.41883,2.96442-1.18591,5.01982-5.83337,4.48812-10.14785-.56592-4.59118-3.45988-7.7493-6.13638-10.43868q-5.61837-5.64531-11.23667-11.29061l-2.11089,2.58543A28.19193,28.19193,0,0,0,421.43456,325.65321Z" transform="translate(-187.39893 -154.29051)" fill="#fff"/><path d="M676.54061,374.73455q4.89062,1.15159,9.781,2.30319c-.568,11.01151-6.02628,21.20266-13.34615,24.894-3.05,1.53558-6.447,2.10342-8.97113,4.9747-2.28213,2.60822-3.43911,6.66768-4.50135,10.54856q-2.79233,10.15963-5.58465,20.319c-1.99815,7.29894-4.56426,15.40772-9.75978,18.037-4.45924,2.26108-9.56-.50493-12.9886-5.143-3.42859-4.638-5.52149-10.87466-7.55135-16.95345.1262,6.6257-2.95524,13.12534-7.31986,15.42852-4.37516,2.30319-9.69688.22082-12.62054-4.92193-2.10342-3.69152-2.97629-8.56108-5.03773-12.3051-2.06132-3.744-6.38383-5.88956-8.63451-2.37688-1.48295,2.3349-1.29371,5.91061-2.02986,8.87651-1.14633,4.60637-4.6169,7.49858-8.056,7.7511-3.42859.25241-6.77309-1.72482-9.64424-4.40673-5.92114-5.55307-10.28577-14.36628-11.979-24.15777-.74667-4.36463-.957-9.11826.33662-13.20956,1.29359-4.091,4.41714-7.24617,7.51964-6.46792,2.04038-4.31211-1.98763-10.03336-5.61611-9.52856-3.639.5048-6.4891,4.40661-9.47592,7.40409-2.9763,2.99735-7.141,5.17433-10.13851,2.198.02105,2.766-2.22963,4.596-4.17526,4.36462-1.93525-.22082-3.65994-1.77733-5.43727-2.88168-6.8677-4.28053-15.58643-1.44083-20.46638,6.65729,3.05-12.97808,7.51976-27.87034,16.89041-30.92033,3.82837-1.25148,8.00363-.22082,11.62146-2.38741,6.405-3.83864,7.69859-18.34178,2.16658-24.326.70457,5.65808.568,12.26286-2.419,16.13321-2.98683,3.87036-9.25511,1.34609-8.87638-4.37515-.86248,3.94391-5.15341,4.54346-7.13063,1.5144-1.98775-3.0288-1.81944-7.98232-.41019-11.60028s3.80719-6.21564,6.13143-8.70819c4.99563-5.35318,10.06495-10.76951,15.84936-14.13507,5.79494-3.36542,12.48381-4.50122,18.28914-1.15673,3.06065,1.76681,5.753,4.71165,8.87651,6.26816,3.12368,1.567,7.08852,1.36728,9.16049-2.29279,2.32424-4.08064,1.23042-10.13851,2.0929-15.23928,1.546-9.01311,10.55909-13.23048,15.55472-7.27789-3.7335-.957-7.59333,3.46018-8.05615,8.81348-.47322,5.35317,2.22975,10.759,5.84758,12.37866,6.07892,2.69231,12.03151-4.08078,16.62761-10.34893q7.19361-9.844,14.40839-19.67748a23.78177,23.78177,0,0,1,2.57664-3.13407,8.291,8.291,0,0,1,11.327-.23135c4.8589,3.96484,7.14116,12.09468,11.12719,17.68972,5.78441,8.12971,14.44,10.10693,22.496,11.6845q9.00784,1.75107,18.02648,3.52321a186.77361,186.77361,0,0,1,10.46447,23.10619C693.305,355.76164,683.91311,363.84937,676.54061,374.73455Z" transform="translate(-187.39893 -154.29051)" fill="#fff"/><path d="M695.95528,501.2765a188.54566,188.54566,0,0,1-15.67052,26.21909c-3.78613-1.61968-7.85625,1.27253-11.40051,3.986-3.702,2.83957-8.15076,5.60558-11.94742,3.01841-3.88076-2.65033-5.13236-10.06482-3.90181-15.944,1.23042-5.8685,4.30133-10.53816,7.27776-14.97635,3.15513-4.71165,6.53108-9.60213,10.91676-11.4321,4.39621-1.83,10.04377.7572,11.327,7.00443l3.113-.10527c-1.74588-2.3978-.83077-7.362,1.51453-8.23485,2.70284-1.02013,5.04826,2.69231,6.64676,5.97377C694.546,498.26849,695.27164,499.762,695.95528,501.2765Z" transform="translate(-187.39893 -154.29051)" fill="#fff"/><path d="M576.72735,456.85307c-6.69134.4208-11.99157-7.81664-15.51364-15.92031-3.52206-8.10375-6.73574-17.37094-12.77336-21.49573-3.44981-2.35695-7.3829-2.68032-11.12485-3.82245-3.742-1.142-7.65866-3.50524-9.44741-8.31792l-4.2446-1.71473c-5.60569,3.152-11.28535,6.36156-16.11556,11.4909a36.01807,36.01807,0,0,0-9.60269,20.99346c-.81084,8.4961,2.18328,17.96965,7.77788,21.16122,4.42058,2.52189,9.56739.93232,14.04519,3.24105,5.59453,2.88442,8.916,11.2636,10.17332,19.53684s.93866,16.87112,1.83819,25.23825,3.37871,17.07349,8.50933,21.36133c6.42036,5.36571,15.8412.907,18.72178-8.86044,1.413-4.79111,1.36427-10.19733,2.42106-15.1707,1.861-8.75838,6.88293-15.25634,10.866-22.44083C576.24114,474.94861,579.37645,465.19075,576.72735,456.85307Z" transform="translate(-187.39893 -154.29051)" fill="#fff"/><path d="M510.60693,370.79a17.86027,17.86027,0,0,1,1.74249,1.84977,6.0774,6.0774,0,0,1-.107,6.27583,5.83861,5.83861,0,0,0,4.18126-2.12511,26.87915,26.87915,0,0,0,3.20585-4.51587c.68252-1.11285,1.40836-2.61751.94522-3.93927-.3161-.90214-1.06361-1.287-1.58767-1.96542-.83059-1.07533-1.03646-2.78336-1.46641-4.25929-.92846-3.18785-3.15264-5.53192-5.56707-5.86707l.33533.06416c-1.00855.34549-1.7128,1.94712-1.48986,3.38824.20313,1.31242,1.04646,2.402.96255,3.74051-.12061,1.92473-2.04418,2.828-2.163,4.753A3.67445,3.67445,0,0,0,510.60693,370.79Z" transform="translate(-187.39893 -154.29051)" fill="#fff"/><path d="M499.14247,338.08151c.00994-.00271.01994-.00326.02988-.0058a5.35694,5.35694,0,0,0,.57089-.60813Z" transform="translate(-187.39893 -154.29051)" fill="#e6e6e6"/><path d="M501.14925,347.11614c1.47948-.95135,2.30574-3.58245,1.81653-5.7846-.48608-2.18856-2.20646-3.66-3.79343-3.25583a3.86646,3.86646,0,0,1-3.59495,1.05839c-.98109-.25259-2.0582-.90305-2.90906-.16386a4.40412,4.40412,0,0,0-.9909,1.93479q-.47242,1.45027-.9449,2.90028a1.83,1.83,0,0,0-.11163,1.09908.93106.93106,0,0,0,.714.56762q2.83452.83566,5.669,1.67123C498.38094,347.54918,499.86781,347.94034,501.14925,347.11614Z" transform="translate(-187.39893 -154.29051)" fill="#fff"/><path d="M643.80516,471.848q-1.31031-2.14511-2.62049-4.29038a14.334,14.334,0,0,0-3.45325-4.33578,3.05981,3.05981,0,0,0-4.356.43639l.1064.81686c1.991,2.498,4.09755,5.2729,4.60255,8.98025.19918,1.46151.12986,2.97414.3045,4.442s.671,2.9901,1.61837,3.623c1.37543.91891,2.99049-.43593,3.96942-2.08913a7.19317,7.19317,0,0,0,1.11451-4.57885A8.02966,8.02966,0,0,0,643.80516,471.848Z" transform="translate(-187.39893 -154.29051)" fill="#fff"/><path d="M682.68046,417.23054q.37892-2.48492.758-4.96988a14.334,14.334,0,0,0,.15018-5.54088,3.05981,3.05981,0,0,0-3.61357-2.47124l-.44463.69346c-.0854,3.1932-.26073,6.67273-2.26178,9.83426-.78878,1.2464-1.8159,2.359-2.62754,3.59445s-1.41218,2.71968-1.09493,3.814c.46053,1.58874,2.56861,1.59226,4.38215.95787a7.19314,7.19314,0,0,0,3.80128-2.78536A8.02963,8.02963,0,0,0,682.68046,417.23054Z" transform="translate(-187.39893 -154.29051)" fill="#e6e6e6"/><path d="M657.50794,473.70914c.42709-1.2275-.18949-2.63572-.31972-3.99283a8.76489,8.76489,0,0,1,1.33382-4.96911,16.1539,16.1539,0,0,0,2.07833-4.55638,3.81152,3.81152,0,0,0-.09971-2.23133c-.28914-.64955-.9895-.94582-1.39116-.43149l.85964.55366a7.82867,7.82867,0,0,0-3.48867.16894,4.3178,4.3178,0,0,0-2.64407,2.98058,18.44055,18.44055,0,0,1-.69335,3.09241c-.51278,1.054-1.50541,1.4046-2.12918,2.32976a5.57021,5.57021,0,0,0,.08774,5.29184,6.1768,6.1768,0,0,0,3.4939,2.74757C655.64528,475.06942,657.02766,475.08927,657.50794,473.70914Z" transform="translate(-187.39893 -154.29051)" fill="#fff"/><path d="M681.91,481.07154a12.00485,12.00485,0,0,0,1.512,2.77512c1.16822,1.17675,2.75595.4536,4.17324.16757a7.21546,7.21546,0,0,1,6.86407,2.75319A17.47133,17.47133,0,0,0,684.41091,474.231c-3.341-1.362-6.85973-1.49359-10.33414-1.616l-.60013.1538C675.00587,477.22036,679.808,477.12076,681.91,481.07154Z" transform="translate(-187.39893 -154.29051)" fill="#fff"/><path d="M578.55783,490.17659l.00879.01939q.08736-.168.17459-.33624Z" transform="translate(-187.39893 -154.29051)" fill="#e6e6e6"/><path d="M574.8559,497.342a32.88905,32.88905,0,0,0-2.07687,4.56227,39.71126,39.71126,0,0,0-1.50522,7.80631c-.188,1.50447-.246,3.42594.69654,4.15905a1.337,1.337,0,0,0,1.74906-.23754,6.91827,6.91827,0,0,0,1.26793-1.88467,43.41661,43.41661,0,0,0,4.28028-10.15882c.90215-3.74378.89368-8.15134-.701-11.39266Q576.71136,493.76906,574.8559,497.342Z" transform="translate(-187.39893 -154.29051)" fill="#fff"/><path d="M539.14331,306.43983a4.21456,4.21456,0,0,0,4.54215.88647,14.99873,14.99873,0,0,0,4.27371-2.823,10.0548,10.0548,0,0,0,2.59074-2.82624,5.73178,5.73178,0,0,0,.53-4.36641c-.58529-1.71175-2.07037-2.28553-3.38049-2.67406q-3.14617-.933-6.29241-1.86591l1.51726-1.36753c-1.561-.83779-3.288.71707-4.26378,2.64207a14.22382,14.22382,0,0,0-1.29432,3.98431C536.84394,301.051,537.35456,304.64906,539.14331,306.43983Z" transform="translate(-187.39893 -154.29051)" fill="#e6e6e6"/><path d="M576.17373,294.00836a3.46486,3.46486,0,0,0,4.72246.38419,5.27918,5.27918,0,0,0,2.08866-3.76209c.14845-1.64984-.66729-3.48358-1.8324-3.626l.26665-1.54471c-2.24437-.4053-5.00619-.48651-6.20894,2.239A6.399,6.399,0,0,0,576.17373,294.00836Z" transform="translate(-187.39893 -154.29051)" fill="#e6e6e6"/><path d="M571.22709,211.86454a49.9257,49.9257,0,0,0-55.20724,44.0149c-3.09067,27.39943,11.34417,86.89808,37.66188,111.52805,12.39171-47.189,55.81463-75.17882,61.56026-100.33572C621.38138,240.19076,598.62652,214.95522,571.22709,211.86454Z" transform="translate(-187.39893 -154.29051)" fill="#1976d2"/><circle id="a2705e7e-530b-43fb-b0c6-4087ca2c8018" data-name="b262ea8c-1946-46c9-a449-3a1996c39394" cx="374.72809" cy="102.20342" r="16.28242" fill="#fff"/><circle id="bb575e01-1284-49d3-8651-037e5b7ffa75" data-name="bcc29a3a-8123-4529-80aa-6f70df2823cf" cx="357.60783" cy="225.9293" r="10.66463" fill="#1976d2"/><path d="M575.59911,244.82842A16.28211,16.28211,0,0,1,558.82662,272.741a16.28,16.28,0,0,0,11.9092-29.8527A16.28211,16.28211,0,0,1,575.59911,244.82842Z" transform="translate(-187.39893 -154.29051)" fill="#231f20" opacity="0.2" style="isolation:isolate"/><path d="M615.30574,267.12439c-5.74562,25.15687-49.16855,53.14674-61.56025,100.33571a69.06074,69.06074,0,0,1-6.87746-7.53474c13.92474-44.35631,54.64494-71.30876,60.19629-95.61482,4.96849-21.75442-8.98817-42.429-29.01462-51.16258C602.29173,219.24193,620.93191,242.49051,615.30574,267.12439Z" transform="translate(-187.39893 -154.29051)" fill="#231f20" opacity="0.2" style="isolation:isolate"/><path d="M418.64434,275.39608a37.4925,37.4925,0,0,0-41.45875,33.05369c-2.321,20.576,8.51909,65.25748,28.28279,83.75375,9.30575-35.43731,41.91488-56.45672,46.22965-75.34869C456.3085,296.6681,439.22038,277.71708,418.64434,275.39608Z" transform="translate(-187.39893 -154.29051)" fill="#1976d2"/><circle id="b2d5ab8a-e71c-4a1a-aadf-98f8ab95825b" data-name="b262ea8c-1946-46c9-a449-3a1996c39394" cx="224.41157" cy="154.62072" r="12.22754" fill="#fff"/><circle id="bac33ac8-32b5-423c-9bc5-6c03ceb8d8dc" data-name="bcc29a3a-8123-4529-80aa-6f70df2823cf" cx="211.55484" cy="247.53462" r="8.00877" fill="#1976d2"/><path d="M421.92757,300.15083A12.2273,12.2273,0,1,1,409.332,321.11221a12.22574,12.22574,0,0,0,8.9434-22.41835A12.22721,12.22721,0,0,1,421.92757,300.15083Z" transform="translate(-187.39893 -154.29051)" fill="#231f20" opacity="0.2" style="isolation:isolate"/><path d="M451.7459,316.89434c-4.31476,18.892-36.9239,39.91138-46.22964,75.34869a51.86155,51.86155,0,0,1-5.16474-5.65834c10.457-33.31006,41.03648-53.55043,45.20536-71.80345,3.73116-16.33682-6.74982-31.8627-21.789-38.42135C441.97282,280.93625,455.971,298.39514,451.7459,316.89434Z" transform="translate(-187.39893 -154.29051)" fill="#231f20" opacity="0.2" style="isolation:isolate"/><polygon points="614.063 564.054 600.638 564.054 594.251 512.27 614.066 512.271 614.063 564.054" fill="#a0616a"/><path d="M808.68441,743.83618H799.158l-1.70042-8.99408-4.355,8.99408H767.83616a5.67965,5.67965,0,0,1-3.22736-10.35347l20.177-13.93494v-9.0927l21.22264,1.2667Z" transform="translate(-187.39893 -154.29051)" fill="#2f2e41"/><polygon points="562.063 564.054 548.638 564.054 542.251 512.27 562.066 512.271 562.063 564.054" fill="#a0616a"/><path d="M756.68441,743.83618H747.158l-1.70042-8.99408-4.355,8.99408H715.83616a5.67965,5.67965,0,0,1-3.22736-10.35347l20.177-13.93494v-9.0927l21.22264,1.2667Z" transform="translate(-187.39893 -154.29051)" fill="#2f2e41"/><path d="M698.45785,581.62352C701.027,585.47728,728.97669,691.417,728.97669,691.417l24.78267,2.8261-2.94167-26.65516-4.49613-47.1699-6.96244-31.48522s24.58692-55.95658,26.1413-60.41406l1.10473-3.19861L774.287,595.0346a19.577,19.577,0,0,1,1.16894,7.78459c-.23122,4.35477,4.1364,69.86859,4.1364,69.86859l2.09977,23.49506,21.23324,2.94958L811.54,658.48018c7.19365-13.20558,3.07-60.13148.12843-64.49911s-1.77275-34.78661-1.77275-34.78661c3.75647-1.32184,26.15662-77.70611,14.95252-77.25506.71936-4.07209,1.28453-7.70751,1.28453-7.70751L806.6841,458.54706l-48.67284-12.65291-12.27964-5.89628s-21.93185,40.55432-21.71349,42.57113a11.21429,11.21429,0,0,1-1.65709,7.3093l-22.14331,74.10779S695.863,577.73126,698.45785,581.62352Z" transform="translate(-187.39893 -154.29051)" fill="#2f2e41"/><path d="M820.74021,316.438,812.997,299.99787l-26.35436,1.01288-8.59627,17.10337s-24.56687,29.34271-25.362,38.88375c-1,12,7.31164,70.81225-1,67,0,0-19.59459,23-8,23s64.04242,32.924,67.48383,36.62652,18.80446,6.10321,17.51617-1.62652-7.9442-49.53382-7.9442-49.53382l18.01876-65.733c5.18564-14.19171,6.79951-30.11048-4.923-39.64345Z" transform="translate(-187.39893 -154.29051)" fill="#ccc"/><path d="M723.12108,268.05031A28.8805,28.8805,0,0,0,685.62273,284.238c-5.88478,14.825-6.86,50.22813,4.09122,67.97179,14.08087-24.45936,42.56848-33.49094,49.59479-46.6611C746.8166,291.47589,737.94606,273.9351,723.12108,268.05031Z" transform="translate(-187.39893 -154.29051)" fill="#1976d2"/><circle id="f50692ea-d13f-4759-b5e2-05248e17533e" data-name="b262ea8c-1946-46c9-a449-3a1996c39394" cx="523.86724" cy="137.29013" r="9.41888" fill="#fff"/><circle id="aec6a1c4-a00c-42b6-a49d-0158b63ca54a" data-name="bcc29a3a-8123-4529-80aa-6f70df2823cf" cx="495.52762" cy="203.75403" r="6.16917" fill="#1976d2"/><path d="M720.55717,287.11426a9.41871,9.41871,0,0,1-13.59978,13.03434A9.4175,9.4175,0,0,0,718.13705,285.293,9.41862,9.41862,0,0,1,720.55717,287.11426Z" transform="translate(-187.39893 -154.29051)" fill="#231f20" opacity="0.2" style="isolation:isolate"/><path d="M739.33634,305.58771c-7.0263,13.17015-35.51393,22.20174-49.59479,46.6611a39.949,39.949,0,0,1-2.69508-5.24993c14.50656-22.64545,41.328-31.50828,48.11674-44.233,6.076-11.3889,1.42413-25.0481-8.42863-32.96342C739.34118,276.88434,746.21658,292.69137,739.33634,305.58771Z" transform="translate(-187.39893 -154.29051)" fill="#231f20" opacity="0.2" style="isolation:isolate"/><path d="M680.14627,355.92032a10.01609,10.01609,0,0,1,12.03458,9.542l21.36828,8.20224-1.81735,14.20115-30.01347-12.007a10.07034,10.07034,0,0,1-1.572-19.93845Z" transform="translate(-187.39893 -154.29051)" fill="#a0616a"/><path d="M829.45215,326.65553l0,0a20.02625,20.02625,0,0,0-27.56523,6.71925l-30.67136,50.64907L701.8692,367.58613l-6.31772,17.34458,88.80518,42.06574,44.97713-71.63724C836.06781,345.896,839.36537,332.70754,829.45215,326.65553Z" transform="translate(-187.39893 -154.29051)" fill="#ccc"/><path d="M830.59748,264.58346a29.82287,29.82287,0,1,1-51.29533-20.68525l.14314-.143c.2386-.25061.4772-.50108.72773-.73975a.01167.01167,0,0,0,.01187-.01194c.31017-.28629.62034-.57258.94245-.84692a29.815,29.815,0,0,1,49.47014,22.42685Z" transform="translate(-187.39893 -154.29051)" fill="#2f2e41"/><circle cx="606.02821" cy="117.1931" r="25.00775" fill="#9e616a"/><path d="M819.98324,278.61537l-4.14356-.73193a11.55433,11.55433,0,0,1-9.30469-9.31739l-4.043,6.77588-.17675.0586c-9.63282,3.19824-19.65528,2.2417-30.63379-2.92041a85.46475,85.46475,0,0,1-9.11817-5.02735l-.21679-.13525-.01758-.2544c-.55957-8.13525,1.26562-14.93164,5.1416-19.1372a15.41707,15.41707,0,0,1,11.63379-4.84961.95727.95727,0,0,0,.41309-.228c.05566-.041.11132-.08154.167-.12012v-.042l.28711-.13525c.61718-.29,1.24609-.56787,1.875-.82178a28.19911,28.19911,0,0,1,29.44824,5.708c7.70312,7.354,11.23633,19.69531,8.792,30.71093Z" transform="translate(-187.39893 -154.29051)" fill="#2f2e41"/><path d="M872.72977,299.9221c-8.51007-4.39247,2.43483-20.33442.23554-29.65523-2.19937-9.32081-18.037-12.31871-19.04593-21.84222s-3.38245-19.346-9.6668-26.57249c-4.01568-4.61774-9.93278-8.02669-16.02492-7.44829a14.40868,14.40868,0,0,0-12.62826,17.79207c-1.73455-2.45776-6.22341-1.92509-7.33449.87052-.98788,2.48528,1.19437,5.49568,3.76252,5.71556,3.36046,4.15,7.2086,8.55427,12.47325,9.39144a5.68063,5.68063,0,0,0,4.84076-1.11734c1.23856-1.18942,1.33489-3.56739-.13434-4.45625,6.61615,2.62814,10.49509,9.78155,11.47678,16.83259.98162,7.051-.3765,14.18523-1.27148,21.24778s-1.28057,14.492,1.4886,21.05045c3.27178,7.74885,10.80453,13.30263,19.02518,15.0837s16.97552.04034,24.4166-3.88148c7.44108-3.92212,13.64622-9.90941,18.71523-16.62188C894.3263,302.51121,882.24593,304.834,872.72977,299.9221Z" transform="translate(-187.39893 -154.29051)" fill="#2f2e41"/><path d="M818.91887,277.92016s-7.408-27.65168-39.16341-34.03389c-.03575-.01179-.15508-.05955-.31017-.131-.09538-.05971-.21472-.11941-.334-.179.35786-.20285.70378-.38167,1.06171-.56078a.01167.01167,0,0,0,.01187-.01194c.31017-.28629.62034-.57258.94245-.84692l.90663.03582S813.89667,237.14642,818.91887,277.92016Z" transform="translate(-187.39893 -154.29051)" fill="#fd6584"/><polygon points="614.934 212.357 596.999 233.136 567.364 224.385 599.671 239.273 614.934 212.357" opacity="0.2"/><path d="M909.9846,745.40215l-275.75.30734a1.19069,1.19069,0,0,1,0-2.38137l275.75-.30733a1.19068,1.19068,0,1,1,0,2.38136Z" transform="translate(-187.39893 -154.29051)" fill="#cacaca"/><path d="M922.0884,560.36242q-19.36816,0-42.45654-1.46387c-79.61377-5.05566-182.73779-22.63281-290.376-49.49218C481.61813,482.547,382.32565,449.61242,309.67037,416.672c-35.39257-16.04687-62.55615-31.23633-80.73535-45.14746-19.24707-14.727-27.666-27.564-25.02392-38.15283,5.148-20.62891,50.731-25.14209,88.064-25.29541l.0127,3c-51.26807.21045-81.51367,8.38672-85.16553,23.022-4.65185,18.64014,33.28662,47.74072,104.08691,79.84131,72.49561,32.86813,171.60547,65.73923,279.07322,92.55661,107.46728,26.81641,210.40136,44.36328,289.83984,49.4082,77.57861,4.92774,124.74316-2.9375,129.39453-21.57812,3.86182-15.47657-21.59814-38.27539-71.68945-64.19825l1.3789-2.66406c36.397,18.83594,78.64551,45.85156,73.22168,67.58887-2.64251,10.58887-16.1054,17.96484-40.01507,21.92285C958.48342,559.23156,941.7427,560.36242,922.0884,560.36242Z" transform="translate(-187.39893 -154.29051)" fill="#1976d2"/></svg>